<?xml version="1.0" encoding="UTF-8"?>
<svg width="82px" height="116px" viewBox="0 0 82 116" version="1.1" xmlns="http://www.w3.org/2000/svg" xmlns:xlink="http://www.w3.org/1999/xlink">
    <!-- Generator: Sketch 51 (57462) - http://www.bohemiancoding.com/sketch -->
    <title>ll-dash-help-graphic</title>
    <desc>Created with Sketch.</desc>
    <defs>
        <polygon id="path-1" points="0.4575 0.0713 72.3825 0.0713 72.3825 72 0.4575 72"></polygon>
        <linearGradient x1="100%" y1="50%" x2="0%" y2="50%" id="linearGradient-3">
            <stop stop-color="#26ADE6" offset="0%"></stop>
            <stop stop-color="#33A6E3" offset="45.7888674%"></stop>
            <stop stop-color="#439EE0" offset="100%"></stop>
        </linearGradient>
    </defs>
    <g id="Symbols" stroke="none" stroke-width="1" fill="none" fill-rule="evenodd">
        <g id="ll-dash-help-graphic">
            <g id="Group-3" transform="translate(9.000000, 43.637000)">
                <mask id="mask-2" fill="white">
                    <use xlink:href="#path-1"></use>
                </mask>
                <g id="Clip-2"></g>
                <path d="M36.4195,0.0713 C16.5605,0.0713 0.4575,16.1743 0.4575,36.0353 C0.4575,55.8983 16.5605,72.0003 36.4195,72.0003 C56.2785,72.0003 72.3825,55.8983 72.3825,36.0353 C72.3825,16.1743 56.2785,0.0713 36.4195,0.0713" id="Fill-1" fill="url(#linearGradient-3)" mask="url(#mask-2)"></path>
            </g>
            <path d="M49.8849,67.0589 C49.8849,67.9879 49.5349,68.7699 48.8339,69.4219 C48.1359,70.0789 47.2939,70.3999 46.3059,70.3999 C45.3179,70.3999 44.4729,70.0789 43.7649,69.4219 C43.0589,68.7699 42.7059,67.9879 42.7059,67.0589 C42.7059,66.1329 43.0589,65.3369 43.7649,64.6789 C44.4729,64.0259 45.3179,63.6969 46.3059,63.6969 C47.2939,63.6969 48.1359,64.0259 48.8339,64.6789 C49.5349,65.3369 49.8849,66.1329 49.8849,67.0589 M49.5029,89.3599 L49.1009,91.0099 C47.8919,91.4849 46.9319,91.8419 46.2129,92.0919 C45.4989,92.3449 44.6639,92.4649 43.7109,92.4649 C42.2519,92.4649 41.1149,92.1119 40.3029,91.3999 C39.4959,90.6879 39.0929,89.7839 39.0929,88.6899 C39.0929,88.2579 39.1209,87.8249 39.1799,87.3779 C39.2409,86.9339 39.3389,86.4319 39.4759,85.8709 L40.9859,80.5379 C41.1189,80.0249 41.2289,79.5429 41.3209,79.0859 C41.4119,78.6279 41.4559,78.2129 41.4559,77.8379 C41.4559,77.1549 41.3209,76.6779 41.0399,76.4049 C40.7529,76.1409 40.2169,76.0059 39.4269,76.0059 C39.0319,76.0059 38.6379,76.0709 38.2249,76.1859 C37.8159,76.3129 37.4639,76.4319 37.1749,76.5409 L37.5709,74.8949 C38.5629,74.4889 39.5049,74.1449 40.4089,73.8619 C41.3089,73.5749 42.1649,73.4319 42.9709,73.4319 C44.4179,73.4319 45.5409,73.7789 46.3239,74.4849 C47.1139,75.1839 47.5039,76.0929 47.5039,77.2129 C47.5039,77.4419 47.4799,77.8529 47.4239,78.4379 C47.3679,79.0209 47.2659,79.5589 47.1179,80.0449 L45.6199,85.3579 C45.4989,85.7889 45.3879,86.2769 45.2899,86.8229 C45.1919,87.3749 45.1419,87.7859 45.1419,88.0669 C45.1419,88.7699 45.2999,89.2529 45.6199,89.5079 C45.9329,89.7649 46.4779,89.8909 47.2579,89.8909 C47.6239,89.8909 48.0369,89.8249 48.4999,89.6999 C48.9589,89.5739 49.2929,89.4579 49.5029,89.3599" id="Fill-4" fill="#FFFFFF"></path>
            <path d="M37.2462,18.284 C38.5402,20.94 41.7882,22.022 44.5002,20.7 C47.2132,19.377 48.3642,16.154 47.0692,13.498 C45.7752,10.842 42.5272,9.76 39.8142,11.082 C37.1012,12.403 35.9522,15.629 37.2462,18.284" id="Fill-6" fill="#282723"></path>
            <path d="M34.5025,25.1063 C36.1375,28.4603 40.2385,29.8263 43.6635,28.1563 C47.0875,26.4873 48.5405,22.4183 46.9055,19.0633 C45.2715,15.7093 41.1705,14.3433 37.7455,16.0133 C34.3205,17.6823 32.8685,21.7523 34.5025,25.1063" id="Fill-8" fill="#282723"></path>
            <path d="M40.2481,32.5174 C40.2481,32.5174 40.4491,33.4124 36.1351,34.5074 C31.8231,35.6034 25.2191,36.1434 25.2191,36.1434 L34.9341,32.6854 C34.9341,32.6854 38.7111,31.5414 40.2481,32.5174" id="Fill-10" fill="#D1DBEA"></path>
            <path d="M28.6939,35.5975 C26.6579,36.1815 26.0779,37.4515 25.3619,37.9995 C24.6449,38.5475 23.9739,39.2635 23.9769,39.2515 C24.1799,38.2525 24.8299,38.0405 25.0789,37.6635 C25.3269,37.2865 25.2819,37.4525 24.5419,37.6065 C24.1219,37.6935 23.6059,38.6275 23.1999,39.1805 C22.8479,39.6565 22.5719,39.7665 22.5719,39.7665 C22.5719,39.7665 22.8889,38.8805 23.3919,38.0975 C23.9979,37.1525 24.8289,36.2675 25.0389,36.1055 C25.4249,35.8115 26.7729,35.3735 27.7789,35.2255 C28.9139,35.0565 30.1589,35.1785 28.6939,35.5975" id="Fill-12" fill="#D1DBEA"></path>
            <path d="M25.1598,36.1146 C25.1598,36.1146 23.7158,36.9566 23.5008,37.2406 C23.3518,37.4376 22.7958,38.5026 22.7958,38.5026 C22.7958,38.5026 23.3508,38.2406 23.5978,37.8276 C23.8438,37.4166 25.1598,36.1146 25.1598,36.1146" id="Fill-14" fill="#D1DBEA"></path>
            <path d="M37.839,31.2029 C37.839,31.2029 41.846,30.3109 42.252,32.7229 C42.482,34.0929 41.717,34.8119 40.502,35.0619 C38.24,35.5229 35.643,35.9279 35.643,35.9279 L33.474,32.6249 L37.839,31.2029 Z" id="Fill-16" fill="#B0BFDE"></path>
            <path d="M37.6129,29.2117 L38.7299,18.2587 C38.7299,18.2587 38.6499,15.3927 39.6819,15.4527 C41.1709,15.5377 41.4559,18.0107 41.5849,18.8987 C41.8479,20.7097 42.2289,21.4207 42.1999,25.9767 C42.1819,28.7867 42.3819,31.9597 42.2049,33.8557 C42.0829,35.1607 40.8109,33.7107 39.4849,33.5857 C37.0119,33.3527 37.6129,29.2117 37.6129,29.2117" id="Fill-18" fill="#B0BFDE"></path>
            <polygon id="Fill-20" fill="#E4EEF3" points="13.5743 59.8968 9.9163 67.8308 4.8423 67.9418 2.2773 67.4218 7.7953 66.1118 10.7503 58.7468"></polygon>
            <path d="M9.3551,69.0843 L8.6811,68.9253 L8.3051,68.1043 L4.2121,68.2833 L0.9161,67.6733 C0.9161,67.6733 0.9811,67.4223 1.1371,67.3383 C1.7191,67.0283 4.2781,66.8743 4.2781,66.8743 C4.2781,66.8743 4.0101,67.5863 4.3011,67.7343 C4.5911,67.8833 7.7501,67.6893 8.5091,67.5823 C9.8121,67.3973 10.4881,67.0683 10.4291,67.2423 C10.3451,67.4963 9.3551,69.0843 9.3551,69.0843" id="Fill-22" fill="#161711"></path>
            <path d="M33.8336,43.765 L21.8726,43.447 L12.9596,62.953 L9.2696,61.496 L17.9636,38.024 C17.9636,38.024 18.6526,36.538 22.2666,36.538 C25.7806,36.538 39.9726,36.151 41.5846,36.6 C45.4096,37.664 33.1756,40.524 33.8336,43.765" id="Fill-24" fill="#854638"></path>
            <path d="M42.3419,11.3338 C43.6369,13.9898 46.8839,15.0718 49.5969,13.7508 C52.3099,12.4288 53.4599,9.2048 52.1659,6.5488 C50.8709,3.8928 47.6239,2.8108 44.9109,4.1318 C42.1989,5.4538 41.0489,8.6778 42.3419,11.3338" id="Fill-26" fill="#282723"></path>
            <path d="M36.7638,9.6151 C37.7588,11.6541 40.2168,12.5021 42.2578,11.5081 L42.3258,9.3031 C44.3658,8.3101 45.2138,5.8501 44.2198,3.8111 L43.5448,2.4271 C42.5508,0.3851 40.0918,-0.4619 38.0518,0.5311 L37.1288,0.9821 C35.0878,1.9761 34.2398,4.4351 35.2348,6.4761 L36.7638,9.6151 Z" id="Fill-28" fill="#282723"></path>
            <path d="M35.5943,3.4637 C35.7633,3.8007 35.9623,4.1367 36.1893,4.4627 C37.7183,6.6517 40.0373,7.7497 41.7213,7.2037 C42.2933,8.2557 42.9803,9.1147 43.6383,9.8107 C44.3883,10.6027 45.9653,11.0567 45.9653,11.0567 C47.0393,12.5827 46.4303,16.9777 42.5903,17.4287 C40.2813,17.7007 40.7543,15.2687 41.5603,13.7517 C41.9393,13.0387 42.3013,12.2187 42.2193,11.8187 C41.9273,10.4177 41.4143,10.2267 40.5933,9.7487 C39.2063,9.1407 37.9373,9.7787 37.9373,9.7787 C37.8133,9.8387 37.6773,9.8397 37.5583,9.7937 C37.3643,9.5877 37.1973,9.3487 37.0663,9.0787 L35.5823,6.0317 C35.1723,5.1907 35.2073,4.2457 35.5943,3.4637" id="Fill-30" fill="#FFFFFF"></path>
            <path d="M47.6427,39.9017 C47.6427,39.9017 45.8897,40.2637 45.4027,40.4457 C44.7517,40.6907 42.8467,40.3817 42.8467,40.3817 C42.8467,40.3817 42.6037,30.9827 42.1447,27.7017 C41.6857,24.4227 40.8347,23.5327 40.8417,22.5057 C40.8517,20.8667 40.9857,20.4837 41.2747,19.2117 C41.5647,17.9387 40.7187,16.2477 41.0057,16.5717 C41.4687,17.0917 43.2067,17.9037 44.8287,16.1087 C45.1067,15.7987 47.6427,39.9017 47.6427,39.9017" id="Fill-32" fill="#194866"></path>
            <path d="M41.4205,12.7606 C41.4205,12.7606 39.0355,15.1646 39.1315,15.9536 C39.2265,16.7446 38.9845,20.0626 39.5325,23.5926 C40.0795,27.1246 40.5195,28.0016 40.6095,30.5806 C40.6995,33.1586 40.1025,33.7336 40.3195,36.8996 C40.4885,39.3786 40.8785,41.5656 40.8785,41.5656 C40.8785,41.5656 42.0035,41.8826 42.8535,40.9616 C43.7035,40.0396 43.3975,31.4186 43.0825,29.2966 C42.7705,27.1726 41.5235,21.6036 41.5975,20.1256 C41.6725,18.6466 42.1505,15.1146 42.4125,14.6496 C43.0665,13.4906 41.6095,12.8806 41.4205,12.7606" id="Fill-34" fill="#D1DBEA"></path>
            <path d="M41.4117,12.5394 C41.4117,12.5394 41.5397,12.7454 41.7057,12.8604 C42.0187,13.0744 42.4077,13.4954 42.4077,13.4954 C42.4077,13.4954 41.9307,13.2664 41.7477,13.6774 C41.5237,14.1824 41.3867,15.3274 41.3867,15.3274 C41.3867,15.3274 40.5047,13.8704 40.7137,13.4084 C41.0937,12.5714 41.4117,12.5394 41.4117,12.5394" id="Fill-36" fill="#B0BFDE"></path>
            <path d="M44.6817,18.2625 C45.5977,21.2095 48.7797,22.8405 51.7897,21.9065 C54.7997,20.9705 56.4957,17.8245 55.5807,14.8755 C54.6647,11.9295 51.4837,10.2985 48.4737,11.2345 C45.4647,12.1705 43.7657,15.3165 44.6817,18.2625" id="Fill-38" fill="#282723"></path>
            <polygon id="Fill-40" fill="#E4EEF3" points="25.3741 61.6263 25.1961 67.1843 24.0631 68.5163 21.0471 70.2563 18.8091 69.8503 22.7521 66.9123 23.0411 61.0813"></polygon>
            <path d="M25.0221,68.4017 L24.0081,69.1257 L23.6981,68.8797 L20.9011,70.6517 C20.9011,70.6517 18.3551,71.3167 17.8621,70.7387 C17.7041,70.5527 18.1131,70.2417 18.6811,69.8207 C19.1311,69.4867 19.4051,69.3577 19.4051,69.3577 C19.4051,69.3577 19.5211,69.7917 20.5281,69.9587 C20.8501,70.0117 22.8451,68.6897 23.5311,68.3477 C24.7621,67.7347 25.2511,66.8737 25.3121,66.9537 C25.4741,67.1657 25.0221,68.4017 25.0221,68.4017" id="Fill-42" fill="#161711"></path>
            <path d="M49.0514,32.3299 L47.6074,35.7399 L45.1284,36.0429 L25.1104,37.3169 C25.1104,37.3169 23.3194,36.7639 22.1784,39.5939 C20.5554,43.6219 22.6774,63.7869 22.6774,63.7869 L25.6404,63.7419 L27.2414,44.7309 C27.2414,44.7309 46.4814,48.0949 52.0234,46.3949 C54.1504,45.7419 55.7744,41.9859 55.4714,38.1929 C55.2334,35.2189 53.2484,32.4849 53.2484,32.4849 L49.0514,32.3299 Z" id="Fill-44" fill="#AD5C49"></path>
            <path d="M46.3287,39.4881 C46.3287,39.4881 45.3987,31.0981 44.8717,27.1251 C44.3457,23.1541 44.4607,16.4881 44.3407,15.5321 C44.2197,14.5771 43.7197,13.2031 43.7197,13.2031 C43.7197,13.2031 44.6847,11.0341 45.9477,11.1051 C47.0587,11.1691 50.5637,12.3421 52.2617,13.0311 C53.4347,13.5091 52.8207,26.8851 52.9247,27.5911 C53.3057,30.1301 54.5527,33.0431 55.3607,35.0541 C56.0037,36.6531 56.5027,39.0401 56.5027,39.0401 C56.5027,39.0401 50.0937,38.2841 46.3287,39.4881" id="Fill-46" fill="#D1DBEA"></path>
            <path d="M45.711,10.4481 L44.77,11.5101 C44.77,11.5101 43.453,13.3281 43.88,13.0741 C44.423,12.7501 45.046,14.6471 45.046,14.6471 L46.796,11.0561 L45.711,10.4481 Z" id="Fill-48" fill="#B0BFDE"></path>
            <path d="M53.3858,30.8392 C53.3858,30.8392 54.8498,31.8782 49.3168,32.4472 C43.7838,33.0162 35.5288,32.6082 35.5288,32.6082 L48.1848,30.2092 C48.1848,30.2092 51.6748,29.5022 53.3858,30.8392" id="Fill-50" fill="#FFFFFF"></path>
            <path d="M39.9215,32.5296 C37.2965,32.8736 36.3375,34.2146 35.3475,34.7216 C34.3585,35.2286 33.3935,35.9306 33.3985,35.9196 C33.8405,34.8246 34.6845,34.6846 35.0645,34.2986 C35.4425,33.9126 35.3545,34.0926 34.4115,34.1516 C33.8765,34.1856 33.0595,35.1596 32.4525,35.7176 C31.9265,36.2016 31.5655,36.2816 31.5655,36.2816 C31.5655,36.2816 32.1255,35.3346 32.8965,34.5286 C33.8285,33.5566 35.0225,32.6866 35.3135,32.5376 C35.8465,32.2636 37.5925,31.9796 38.8645,31.9676 C40.2975,31.9526 41.8115,32.2826 39.9215,32.5296" id="Fill-52" fill="#FFFFFF"></path>
            <path d="M35.4601,32.5662 C35.4601,32.5662 33.5171,33.2922 33.1961,33.5802 C32.9741,33.7792 32.0841,34.8932 32.0841,34.8932 C32.0841,34.8932 32.8191,34.6822 33.2021,34.2562 C33.5871,33.8312 35.4601,32.5662 35.4601,32.5662" id="Fill-54" fill="#EDEEF0"></path>
            <path d="M50.1114,29.2698 L48.3124,17.0818 C48.3124,17.0818 48.7574,14.5718 49.5374,13.7108 C50.4614,12.6908 52.2204,12.9948 52.2204,12.9948 C52.2204,12.9948 54.2814,14.6838 54.4284,24.3338 C54.5304,30.9378 55.1354,33.6528 52.2894,33.9398 C49.6334,34.2078 46.6024,34.3738 46.6024,34.3738 L44.5874,30.3878 L50.1114,29.2698 Z" id="Fill-56" fill="#B0BFDE"></path>
            <polygon id="Fill-58" fill="#CDD5D7" points="17.626 36.222 35.091 36.222 35.091 35.863 17.626 35.863"></polygon>
            <path d="M27.3824,35.8416 C27.3824,36.1196 27.1844,36.3456 26.9404,36.3456 L17.9834,36.3456 C17.7414,36.3456 17.4094,36.1686 17.1114,35.4626 L12.6854,27.3786 C12.6854,27.0266 12.9584,26.8146 13.2014,26.8716 L22.3904,27.1476 C22.6344,27.2056 22.8334,27.3906 22.9714,27.7596 L27.3824,35.8416 Z" id="Fill-60" fill="#CDD5D7"></path>
            <path d="M26.2994,36.2225 L26.3894,36.2225 L35.1344,36.2225 C34.8204,36.3885 34.2974,36.4985 33.7034,36.4985 L26.3894,36.4985 L26.2994,36.4985 L18.9854,36.4985 C18.3914,36.4985 17.8674,36.3885 17.5554,36.2225 L26.2994,36.2225 Z" id="Fill-61" fill="#B7BEC0"></path>
            <polygon id="Fill-62" fill="#FFFFFF" points="18.7789 22.658 18.7789 12.671 8.7929 12.671"></polygon>
        </g>
    </g>
</svg>