<?xml version="1.0" encoding="UTF-8"?>
<svg width="104px" height="139px" viewBox="0 0 104 139" version="1.1" xmlns="http://www.w3.org/2000/svg" xmlns:xlink="http://www.w3.org/1999/xlink">
    <!-- Generator: Sketch 51 (57462) - http://www.bohemiancoding.com/sketch -->
    <title>ll-dash-tenancies-graphic</title>
    <desc>Created with Sketch.</desc>
    <defs>
        <polygon id="path-1" points="0.96722 0.0203 6.7961 0.0203 6.7961 5 0.96722 5"></polygon>
        <polygon id="path-3" points="0.0949317073 0.507245833 77.2732683 0.507245833 77.2732683 22.4617042 0.0949317073 22.4617042"></polygon>
        <polygon id="path-5" points="0.000182847873 0.0353913043 32.8150229 0.0353913043 32.8150229 43.8603638 0.000182847873 43.8603638"></polygon>
    </defs>
    <g id="Symbols" stroke="none" stroke-width="1" fill="none" fill-rule="evenodd">
        <g id="ll-dash-tenancies-graphic">
            <path d="M64,54.5009683 C64,57.5366197 61.3146647,60 57.9995087,60 C54.6863179,60 52,57.5366197 52,54.5009683 C52,51.462412 54.6863179,49 57.9995087,49 C61.3146647,49 64,51.462412 64,54.5009683" id="Fill-1" fill="#282723"></path>
            <path d="M60,54.5 C60,57.537588 57.3144448,60 54,60 C50.6855552,60 48,57.537588 48,54.5 C48,51.462412 50.6855552,49 54,49 C57.3144448,49 60,51.462412 60,54.5" id="Fill-3" fill="#282723"></path>
            <path d="M46.845152,50 C46.845152,50 47.7361724,49.5268978 45.2434836,44.8962604 C42.7507948,40.2656231 38,34 38,34 L42.8050051,45.1546776 C42.8050051,45.1546776 44.8354278,49.3440179 46.845152,50" id="Fill-5" fill="#EDEEF0"></path>
            <path d="M50.3395796,55.0039423 L43.9348047,42.741333 L43.6347234,42 L40,43.663525 C40,43.663525 45.0648982,53.0794907 45.4187935,53.4920751 C45.7736008,53.9056014 47.8240044,57.8835549 48.0702718,58.6446694 C48.315627,59.4067258 49.9783875,63.0455689 52.3078941,61.7070248 C54.6374007,60.3703646 50.3395796,55.0039423 50.3395796,55.0039423" id="Fill-7" fill="#F4DA80"></path>
            <path d="M40.6753239,37.1964786 C39.4374136,35.0676615 39.9611065,33.6403754 39.7985123,32.6374962 C39.6349206,31.634617 39.6438982,30.542593 39.6369157,30.5522826 C39.0124742,31.4650481 39.3865406,32.166579 39.2937721,32.6529997 C39.2020012,33.1384513 39.2967646,32.9766341 38.801002,32.2460342 C38.5177091,31.831317 38.8299298,30.7073171 38.9286834,29.9592758 C39.0134717,29.3110379 38.8708278,29 38.8708278,29 C38.8708278,29 38.4309257,29.9195482 38.2294286,30.9224274 C37.9860361,32.1297583 37.9750635,33.4804961 38.0219465,33.7760306 C38.1107249,34.3138064 38.8887829,35.7624097 39.6119779,36.7119959 C40.4279413,37.7827027 41.5661006,38.7313198 40.6753239,37.1964786" id="Fill-9" fill="#EDEEF0"></path>
            <path d="M65.154848,50 C65.154848,50 64.2638276,49.5249099 66.7565164,44.8952665 C69.2501908,40.2646291 74,34 74,34 L69.1949949,45.1546776 C69.1949949,45.1546776 67.1645722,49.343024 65.154848,50" id="Fill-11" fill="#EDEEF0"></path>
            <path d="M60.4358938,55.0381751 L66.9801046,42.7415031 L67.2866752,42 L71,43.6662567 C71,43.6662567 65.8255728,53.110267 65.4640244,53.5239974 C65.1015443,53.9377278 63.1735973,57.9975754 62.7552076,58.6909045 C61.3789013,60.9805905 61.3789013,62.2576761 61.0667397,61.9563519 C59.1173607,60.0775625 60.4358938,55.0381751 60.4358938,55.0381751" id="Fill-13" fill="#F4DA80"></path>
            <path d="M71.3246646,37.1965726 C72.5624656,35.0667622 72.0388189,33.6404287 72.2013988,32.637538 C72.364976,31.6336783 72.3569966,30.5435796 72.3629812,30.5523004 C72.9873675,31.4641074 72.6143316,32.1646774 72.7060944,32.6511036 C72.7978573,33.1375299 72.7031022,32.9766798 73.198821,32.2460714 C73.4820889,31.8303805 73.1708932,30.7073367 73.071151,29.9583178 C72.9863701,29.3110415 73.1290014,29 73.1290014,29 C73.1290014,29 73.5688646,29.9195587 73.7703439,30.9214805 C74.0147124,32.1297942 74.025684,33.4795786 73.9768103,33.7751164 C73.8890372,34.3138674 73.1110478,35.7624873 72.3869193,36.7101464 C71.5720253,37.7828034 70.4339666,38.7314315 71.3246646,37.1965726" id="Fill-15" fill="#EDEEF0"></path>
            <path d="M44,126.457355 L42.6652745,133.196423 C42.6652745,133.196423 39.7041408,135.61659 38.7460183,135.899569 C37.7878959,136.183538 37.9863509,135.797657 38.0925013,135.577012 C38.1986517,135.354389 39.98567,133.966206 40.4093484,133.078679 C40.8330269,132.193132 41.5022357,126.349506 41.6203857,126.068506 C41.7376126,125.788494 44,126.457355 44,126.457355" id="Fill-17" fill="#EDEEF0"></path>
            <path d="M65,128.220504 C65,128.220504 66.1617093,132.05004 66.3042563,133.361891 C66.4468033,134.673742 66.2266797,135.105742 66.6213506,135.503062 C67.0169912,135.898401 69.8048996,139.036342 70.4206637,138.999681 C71.0364278,138.965002 70.999579,138.366545 70.999579,138.366545 C70.999579,138.366545 68.8138588,135.975686 68.4463397,135.037375 C68.08076,134.098073 67.6909377,128.783292 67.6579677,128.245274 C67.6259673,127.708248 65,128.220504 65,128.220504" id="Fill-19" fill="#EDEEF0"></path>
            <path d="M56,80.9068825 L50.3904033,104.40432 L44.4419343,127 L41,126.448979 C41,126.448979 45.3707991,103.292696 45.4856236,101.265898 C45.5995146,99.2381419 46.4620986,82.7333962 49.3252427,79.2193218 C52.1883869,75.7042892 56,80.9068825 56,80.9068825" id="Fill-21" fill="#194866"></path>
            <path d="M53.9234938,81.9226355 C53.9234938,81.9226355 50.5677399,78.6739531 48.5403252,80.6224195 C48.33854,81.1685102 48.1587504,81.8102597 48,82.5225922 C49.8514504,85.5307346 51.5374562,88.0169332 51.9400701,88.6753997 C52.1160344,88.9660908 52.5922856,89.8130886 53.2511954,91 L54,86.9238231 L53.9234938,81.9226355 Z" id="Fill-23" fill="#163F59"></path>
            <path d="M61.0100529,78 C61.0100529,78 63.9684338,90.8679457 64.3953488,97.8778422 C64.8213256,104.888707 66.7823202,125.336176 66.7823202,125.336176 L67,128.920562 L64.2940151,129 L58.4926613,103.070358 L53,79.231285 L61.0100529,78 Z" id="Fill-25" fill="#194866"></path>
            <path d="M60,48.000923 C60,50.7625992 57.7610404,53 55.0009356,53 C52.2398952,53 50,50.7625992 50,48.000923 C50,45.2383238 52.2398952,43 55.0009356,43 C57.7610404,43 60,45.2383238 60,48.000923" id="Fill-27" fill="#282723"></path>
            <path d="M53.4105837,49.5368012 C53.4105837,49.5368012 53.8776214,52.2307071 53.4875076,52.9784983 C53.0992253,53.7281473 50.4590888,55.4494603 50.0708065,55.9733785 C49.6825242,56.4963678 50.8473711,60.5372268 54.6532702,59.9399228 C58.4591693,59.339832 60.037024,57.4633872 60.037024,56.8651543 C60.037024,56.2659924 61.7989465,55.2246585 60.55626,54.7769127 C59.3135735,54.3263802 57.2943224,54.0272637 56.7494451,53.4281019 C56.2063994,52.829869 55.5085902,51.3333578 55.8959567,49.761603 C56.2851548,48.1907771 53.4105837,49.5368012 53.4105837,49.5368012" id="Fill-29" fill="#EDEEF0"></path>
            <path d="M56.2042445,44.056 C56.1253401,44.034386 56.0455288,44.0147368 55.9629966,44 C55.7961183,44.9785263 55.0397243,46.1348772 53.8679485,47.0446316 C53.5831671,47.2676491 53.292944,47.4572632 53,47.6203509 L53,48.5389474 C53,49.8976842 54.1200798,51 55.5004535,51 C56.882641,51 58,49.8976842 58,48.5389474 L58,46.4689123 C57.313441,45.9992982 56.6568112,45.1445614 56.2042445,44.056" id="Fill-31" fill="#EDEEF0"></path>
            <path d="M61,78.647135 L49,82 L50.8773764,71.4155974 L50.4505703,59 C50.4505703,59 52.8697719,59.8949304 54.986692,60.0227776 C56.3745247,60.106407 59.3403042,59 59.3403042,59 L61,78.647135 Z" id="Fill-33" fill="#AD5C49"></path>
            <path d="M49.1594485,57.5934031 C49.1594485,57.5934031 49.5853398,65.3716617 49.3285968,68.2010948 C49.0738675,71.0285771 46.5114722,79.9850347 46.2547293,81.6362688 L46,83.2865275 C46,83.2865275 47.1095323,83.9126896 47.7065855,83.9926666 C48.3046455,84.0706931 49.4453897,83.5420641 49.8420827,81.6362688 C50.3334183,79.2779203 51.8466914,71.1621974 52.1477351,69.6923747 C52.5746332,67.61102 52.2333161,61.521058 52.5746332,60.7359171 C52.9159503,59.949801 54.1533506,57.3954111 53.9842023,56.7682737 C53.8130403,56.1391857 52.5746332,55 52.5746332,55 C52.5746332,55 49.8420827,56.0991972 49.1594485,57.5934031" id="Fill-35" fill="#F4DA80"></path>
            <path d="M59.1729762,55 C59.1729762,55 57.7097545,55.6481375 57.2594644,55.8847126 C56.8100589,56.1212877 57.0347616,58.7206809 57.2594644,59.0755436 C57.4850518,59.428451 57.8787239,67.4035732 57.9344572,69.2932412 C57.9910752,71.1838867 58.2166626,78.6252486 58.4970987,79.9850666 C58.7793041,81.3419518 58.6103348,82.9363897 59.9612051,83.4681948 C61.3111909,84 63,84 63,84 C63,84 62.3241225,79.3349739 61.9870684,77.7395584 C61.6491296,76.1451205 60.57958,72.3051744 60.4672286,69.8846789 C60.3548772,67.4612506 60.839669,63.756211 61.2492649,61.8518793 C61.7110556,59.7080398 61.9304504,56.7713804 62.0428017,56.4174954 C62.1560378,56.0626327 59.6232664,55.1769425 59.1729762,55" id="Fill-37" fill="#F4DA80"></path>
            <path d="M41.9409118,133 C41.9409118,133 42.0795655,133.451392 41.9320804,133.861043 C41.8110896,134.194005 41.335958,135.144355 41.335958,135.144355 L40.6735997,135.297732 L40.7663299,134.839544 C40.7663299,134.839544 39.3886248,135.975305 38.7580597,136.255848 C38.1266115,136.53639 36.7736344,137.284828 36.1624986,136.884885 C36.0008831,136.778104 36,136.54901 36,136.54901 C36,136.54901 37.2885076,135.57245 37.4880982,135.437518 C37.6876888,135.301615 38.0029713,135.73068 38.5001816,135.539445 C38.998275,135.350151 40.5075686,134.37262 40.9288284,134.034804 C41.4763779,133.597973 41.9409118,133 41.9409118,133" id="Fill-39" fill="#161711"></path>
            <g id="Group-43" transform="translate(65.000000, 134.000000)">
                <mask id="mask-2" fill="white">
                    <use xlink:href="#path-1"></use>
                </mask>
                <g id="Clip-42"></g>
                <path d="M1.0221,0.0203 C1.0221,0.0203 0.9101,0.4793 1.0061,0.9223 C1.0831,1.2823 1.4111,1.8423 1.4111,1.8423 L2.0691,2.1493 C2.0691,2.1493 3.3491,3.4893 3.9661,3.8783 C4.5821,4.2663 5.8861,5.2493 6.5791,4.9413 C6.7631,4.8583 6.7961,4.6253 6.7961,4.6253 C6.7961,4.6253 5.5961,3.4223 5.4071,3.2503 C5.2191,3.0813 4.8291,3.4653 4.3371,3.1913 C3.8471,2.9163 2.4151,1.6763 2.0261,1.2643 C1.5181,0.7283 1.0221,0.0203 1.0221,0.0203" id="Fill-41" fill="#161711" mask="url(#mask-2)"></path>
            </g>
            <path d="M58.9339623,54.0292407 L57,55.1139836 C57,55.1139836 57.533543,55.285955 57.7997904,55.7990346 C58.067086,56.3149489 58.2672956,57 58.2672956,57 L60,54.4865713 C60,54.4865713 58.9339623,53.859159 58.9339623,54.0292407" id="Fill-44" fill="#F0CA67"></path>
            <path d="M52.8662132,55 L53.1365079,55.4166667 L54,56.839539 C54,56.839539 53.8176871,56.3927305 53.1537415,56.8758865 C52.706576,57.1985816 52.461678,58 52.461678,58 L52,55.429078 L52.8662132,55 Z" id="Fill-46" fill="#F0CA67"></path>
            <polygon id="Fill-48" fill="#F3B840" points="91 20.3680688 83.9072684 19 80 38.6328872 87.0937031 40"></polygon>
            <g id="Group-52" transform="translate(26.000000, 20.000000)">
                <mask id="mask-4" fill="white">
                    <use xlink:href="#path-3"></use>
                </mask>
                <g id="Clip-51"></g>
                <polygon id="Fill-50" fill="#F3B840" mask="url(#mask-4)" points="75.9137854 22.4617042 77.2740293 15.4639542 1.45517561 0.507245833 0.0949317073 7.50595417"></polygon>
            </g>
            <polygon id="Fill-53" fill="#F3B840" points="102 27.0990151 86.6412051 24 84 37.9009849 99.3578334 41"></polygon>
            <g id="Group-57">
                <mask id="mask-6" fill="white">
                    <use xlink:href="#path-5"></use>
                </mask>
                <g id="Clip-56"></g>
                <path d="M12.3079629,7.30543478 L25.64562,9.95595652 L20.5061057,36.5836087 L7.16844857,33.9359565 L12.3079629,7.30543478 Z M4.96122,40.7521304 L20.0195914,43.7431739 C23.3469343,44.4041304 26.5715057,42.2022174 27.22302,38.8276087 L32.6991343,10.4533478 C33.3515914,7.07778261 31.18302,3.80647826 27.8556771,3.1436087 L12.7973057,0.152565217 C9.46619143,-0.509347826 6.24350571,1.69352174 5.59199143,5.06717391 L0.115877143,33.4414348 C-0.535637143,36.8179565 1.63010571,40.0892609 4.96122,40.7521304 Z" id="Fill-55" fill="#F3B840" mask="url(#mask-6)"></path>
            </g>
            <path d="M27.6761372,9.85940737 L11.0743451,6.46572473 L5.32147047,37.1364725 L21.9241956,40.529181 L27.6761372,9.85940737 Z M27.4914033,6.13064241 C29.8397629,6.61086214 31.377346,8.99540148 30.9192433,11.4422817 L25.4994495,40.338262 C25.0404138,42.7900126 22.7536321,44.3952908 20.4052725,43.915071 L5.50433836,40.8681596 C3.15691176,40.388914 1.62212767,38.0024265 2.08116339,35.5506759 L7.50095718,6.65566966 C7.95999291,4.20878941 10.2439756,2.60545944 12.5914022,3.0847051 L27.4914033,6.13064241 Z" id="Fill-58" fill="#F4DA80"></path>
            <polygon id="Fill-60" fill="#F3B840" points="103 22.3670506 95.906987 21 92 40.6329494 99.093013 42"></polygon>
            <polygon id="Fill-62" fill="#F4DA80" points="103 22.666356 99.4907111 22 97 34.332712 100.51025 35"></polygon>
            <polygon id="Fill-64" fill="#F4DA80" points="91 19.6673358 87.49111 19 85 31.3345282 88.50889 32"></polygon>
            <polygon id="Fill-66" fill="#F4DA80" points="102.325251 43 103 39.3996988 27.6747491 24 27 27.6022745"></polygon>
        </g>
    </g>
</svg>