<?xml version="1.0" encoding="UTF-8"?>
<svg width="1152px" height="339px" viewBox="0 0 1152 339" version="1.1" xmlns="http://www.w3.org/2000/svg" xmlns:xlink="http://www.w3.org/1999/xlink">
    <!-- Generator: Sketch 51 (57462) - http://www.bohemiancoding.com/sketch -->
    <title>ll-dash-bg-graphic</title>
    <desc>Created with Sketch.</desc>
    <defs>
        <path d="M306.619363,16.0932705 C264.665717,34.9806293 246.035216,36.9429259 231.290777,26.4439279 C224.277188,21.4504689 213.958111,-9.62927455 169.413531,16.8072024 C130.335694,39.9977956 36.7311775,15.9036112 36.7311775,65.2102926 C36.7311775,86.2841523 10.2277278,89.4826212 0,94.4374709 L0,337.999323 L1150.85587,337.999323 L1150.85587,121.302036 C1119.83706,93.9240361 1076.00704,63.7553347 1024.96043,71.3268056 C950.347747,82.3954589 909.545778,120.64297 854.362061,126.531892 C783.688225,134.074914 797.362186,95.9561002 755.907916,85.9075431 C719.629424,77.1141242 670.175671,97.9109459 625.958595,118.708445 C575.566989,142.409764 531.977855,166.11176 522.445734,146.011936 C512.051548,124.094092 469.516651,137.61206 469.516651,137.61206 C469.516651,137.61206 540.936167,74.6146854 469.516651,78.3801002 C398.438848,82.1279038 409.70728,52.7754148 410.544986,44.1127255 C413.309822,15.5581603 396.479915,0.449086172 367.629806,0.449086172 C350.858768,0.449086172 330.025736,5.55498597 306.619363,16.0932705" id="path-1"></path>
        <linearGradient x1="0%" y1="50.0000722%" x2="99.9999777%" y2="50.0000722%" id="linearGradient-3">
            <stop stop-color="#FFE6EF" offset="0%"></stop>
            <stop stop-color="#8ED8F9" offset="100%"></stop>
        </linearGradient>
        <path d="M259.637689,0.295857143 C255.9987,0.295857143 255.087767,4.142 255.087767,6.11732143 C255.087767,15.2644643 256.374867,64.3373929 256.374867,72.3771071 C256.374867,74.6286071 254.757011,75.5697857 253.017833,75.5697857 C249.580144,75.5697857 245.4213,75.5609643 241.122833,75.5562143 C239.532089,75.5541786 238.230756,74.2967857 238.167722,72.7068929 L237.676333,30.3735357 C237.656,28.6499643 236.237411,27.2724643 234.516533,27.3063929 L198.942011,28.01075 C196.870044,28.0521429 195.210844,29.7438214 195.208811,31.8188929 C195.189156,48.57825 195.111211,116.632857 195.111211,130.327107 C195.111211,132.541286 194.558822,133.448536 192.4855,133.448536 C191.304811,133.448536 184.836778,133.475679 181.569211,133.475679 C180.472567,133.475679 179.628733,133.103143 179.628733,131.94075 C179.628733,129.270571 179.623311,126.974964 179.623311,123.788393 C179.623311,121.125 178.555811,120.88275 175.566811,120.88275 C173.641244,120.88275 167.411111,120.898357 163.778222,120.907179 C162.275589,120.91125 161.0522,119.713571 161.020344,118.209179 C160.929522,113.882607 160.764144,105.62575 160.764144,102.975929 C160.764144,102.304143 160.325622,100.27725 158.383111,100.27725 C148.299133,100.27725 127.710956,100.4625 116.466622,100.4625 C113.579289,100.4625 112.700211,101.665607 112.700211,105.162964 C112.700211,120.326321 112.755111,168.998893 112.755111,175.007643 C112.755111,176.991107 110.541489,178.720786 108.926344,178.720786 C101.396911,178.720786 84.9757111,178.959643 78.0278111,178.959643 C75.6027222,178.959643 74.8700444,176.51 74.8700444,175.608179 C74.8700444,169.9835 74.8666556,158.580786 74.8666556,152.145893 C74.8666556,149.84825 74.9113889,148.011357 71.2120778,148.011357 C58.4075,148.011357 38.6401111,148.117214 26.2449111,148.246143 C25.9107667,148.249536 25.5718778,148.248857 25.2296,148.2475 C21.8956111,148.240036 18.3406667,148.231893 18.3406667,152.147929 C18.3406667,156.256679 18.3833667,163.811214 18.3833667,167.094143 C18.3833667,169.881036 18.117,172.37275 14.2577333,172.37275 C10.5984111,172.37275 11.2619556,172.324571 5.89531111,172.324571 C1.37792222,172.324571 0.122,174.540107 0.122,178.686857 C0.122,191.913571 -0.0481222222,278.871143 0.122,303.999321 L365.855633,303.999321 L365.855633,33.2248929 C354.167356,33.2248929 349.977333,33.4535714 338.444944,33.4535714 C333.315522,33.4535714 332.703489,36.6265714 332.703489,41.8888929 C332.703489,46.3769643 332.844467,79.0556071 332.844467,90.4725714 C332.844467,92.6521429 332.048756,94.1897857 330.020167,94.1897857 C323.8063,94.1897857 321.614367,94.3051429 318.723644,94.3051429 C314.947744,94.3051429 314.8637,92.2857143 314.8637,88.3364286 C314.8637,82.2733929 313.817211,14.3843571 313.817211,7.74114286 C313.817211,2.26982143 312.981511,0.295857143 308.292644,0.295857143 L259.637689,0.295857143 Z" id="path-4"></path>
        <linearGradient x1="50.0000023%" y1="0.000110129747%" x2="50.0000023%" y2="100.000176%" id="linearGradient-6">
            <stop stop-color="#BAE4F9" offset="0%"></stop>
            <stop stop-color="#6D75DF" offset="100%"></stop>
        </linearGradient>
        <path d="M0.6349,0.561169435 C2.8588,0.600478405 3.1297,2.18842525 3.1297,3.35142857 L3.1297,203.996611 L13.6997,203.996611 L13.6997,18.4386179 C13.6066,14.1159867 13.4351,5.86991362 13.4351,3.21994684 C13.4351,2.54966113 12.9822,0.609966777 10.9774,0.523893688 C10.4965,0.502883721 9.1518,0.495428571 7.574,0.495428571 C3.983,0.495428571 -0.8127,0.536093023 0.6349,0.561169435" id="path-7"></path>
        <linearGradient x1="50.0007949%" y1="-0.000166753257%" x2="50.0007949%" y2="99.9998663%" id="linearGradient-9">
            <stop stop-color="#BAE4F9" offset="0%"></stop>
            <stop stop-color="#6D75DF" offset="100%"></stop>
        </linearGradient>
        <path d="M0.297241379,0.115982609 C3.07172414,0.19533913 3.00689655,1.68547826 3.00689655,4.21742609 L3.00689655,155.996609 L19.6275862,155.996609 L19.6275862,4.05125217 C19.6275862,1.83605217 19.5813793,0.0868173913 15.9103448,0.0868173913 C11.7324138,0.0868173913 -0.104827586,0.103773913 0.297241379,0.115982609" id="path-10"></path>
        <linearGradient x1="50.0012331%" y1="8.88774813e-05%" x2="50.0012331%" y2="99.9998252%" id="linearGradient-12">
            <stop stop-color="#BAE4F9" offset="0%"></stop>
            <stop stop-color="#6D75DF" offset="100%"></stop>
        </linearGradient>
        <path d="M0.646363636,0.297892857 L0.646363636,303.996607 L14.6918182,303.996607 L14.6918182,88.3391429 C14.6918182,82.2774643 13.6390909,14.3823214 13.6390909,7.73978571 C13.6390909,2.27321429 12.8059091,0.297892857 8.08636364,0.297892857 L0.646363636,0.297892857 Z" id="path-13"></path>
        <linearGradient x1="50.0043757%" y1="48.9075791%" x2="50.0043757%" y2="148.907443%" id="linearGradient-15">
            <stop stop-color="#BAE4F9" offset="0%"></stop>
            <stop stop-color="#6D75DF" offset="100%"></stop>
        </linearGradient>
        <linearGradient x1="50.0004757%" y1="0.000159491918%" x2="50.0004757%" y2="100.000277%" id="linearGradient-16">
            <stop stop-color="#BAE4F9" offset="0%"></stop>
            <stop stop-color="#6D75DF" offset="100%"></stop>
        </linearGradient>
        <linearGradient x1="91.5488575%" y1="6906.55383%" x2="50.4834643%" y2="129.796502%" id="linearGradient-17">
            <stop stop-color="#BAE4F9" offset="0%"></stop>
            <stop stop-color="#6D75DF" offset="100%"></stop>
        </linearGradient>
        <linearGradient x1="101.197157%" y1="5371.14487%" x2="48.2218137%" y2="-134.88445%" id="linearGradient-18">
            <stop stop-color="#BAE4F9" offset="0%"></stop>
            <stop stop-color="#6D75DF" offset="100%"></stop>
        </linearGradient>
        <linearGradient x1="95.3624585%" y1="3792.93875%" x2="34.0337802%" y2="-1267.39976%" id="linearGradient-19">
            <stop stop-color="#BAE4F9" offset="0%"></stop>
            <stop stop-color="#6D75DF" offset="100%"></stop>
        </linearGradient>
        <linearGradient x1="84.4530078%" y1="4047.59935%" x2="34.8318751%" y2="-1710.02267%" id="linearGradient-20">
            <stop stop-color="#BAE4F9" offset="0%"></stop>
            <stop stop-color="#6D75DF" offset="100%"></stop>
        </linearGradient>
        <linearGradient x1="78.2134676%" y1="3687.15949%" x2="31.4732751%" y2="-2338.55237%" id="linearGradient-21">
            <stop stop-color="#BAE4F9" offset="0%"></stop>
            <stop stop-color="#6D75DF" offset="100%"></stop>
        </linearGradient>
        <path d="M335.096998,7.52748387 C303.274767,17.4943548 302.162604,21.2459032 294.147986,14.3382581 C290.335627,11.0534516 286.012878,-6.44564516 260.511636,7.9976129 C243.809551,17.4570968 211.975814,10.2872903 204.572446,41.4628065 C202.21206,51.4019032 160.774996,44.7774194 151.702367,70.2599032 C142.419219,96.3283548 125.762488,90.6204194 94.5142774,82.5191613 C44.3254402,69.5066129 -0.102890365,118.119581 0.440384957,146.999323 L814.855818,146.999323 L814.855818,54.1278387 C808.921346,53.9605161 804.847699,56.4107419 800.705685,58.8616452 C795.558459,61.9073226 790.304282,64.953 781.239776,62.9715484 C766.850694,59.8269677 756.954265,44.154871 739.220569,47.9179355 C703.881113,55.4176452 685.706071,79.2492581 665.384547,80.1888387 C641.841607,81.2767742 632.184805,59.892 605.536877,59.892 C547.732122,59.892 473.252359,101.679968 473.252359,93.0042581 C473.252359,77.0422258 444.480287,87.477871 444.480287,87.477871 C444.480287,87.477871 483.3038,46.0313226 444.480287,48.5086452 C405.842247,50.9737742 411.967608,31.6625806 412.423846,25.9634516 C413.895449,7.56474194 397.972488,0.470806452 376.911777,0.469451613 C363.966545,0.468774194 349.083995,3.14729032 335.096998,7.52748387" id="path-22"></path>
        <linearGradient x1="-18.1008358%" y1="50.0001662%" x2="100.253175%" y2="50.0001662%" id="linearGradient-24">
            <stop stop-color="#BADBF9" offset="0%"></stop>
            <stop stop-color="#3B70BF" offset="100%"></stop>
        </linearGradient>
        <path d="M688.54543,8.9582 C678.909574,15.4455429 670.57024,21.9328857 662.220746,13.9496 C649.976942,2.24391429 633.352465,30.2988857 621.767762,32.3534571 C612.438763,34.0078571 607.865033,28.9264857 604.284356,23.8451143 C600.304696,18.1970571 597.550433,12.549 590.855122,16.1492 C564.972095,30.0692571 561.264746,25.4444571 552.70797,20.8196571 C546.923746,17.6934857 538.923107,14.5666429 520.354524,17.1697714 C507.639936,18.9530857 484.965699,23.8041571 475.243815,22.6815286 C464.503815,21.4427429 456.187512,12.9746857 445.192136,14.4451143 C429.3873,16.5594429 423.353798,27.7494714 404.015701,28.1973143 C394.753763,28.4108286 384.316556,25.7741286 372.88291,23.1367571 C361.829279,20.5866714 349.844238,18.0372571 337.093071,18.0641143 C319.613052,18.1003714 289.860102,28.1429286 275.89099,28.1429286 C210.977495,28.1429286 206.716719,12.2972143 145.364935,12.2972143 C81.8665052,12.2972143 18.8395383,31.6054857 0.382047304,47 L715.856394,47 L715.856394,1.04877143 C713.858774,0.510957143 711.921442,0.270585714 710.036946,0.270585714 C702.030887,0.271257143 694.996882,4.61472857 688.54543,8.9582" id="path-25"></path>
        <linearGradient x1="8.22742146e-06%" y1="49.9996546%" x2="99.9999388%" y2="49.9996546%" id="linearGradient-27">
            <stop stop-color="#5460AA" offset="0%"></stop>
            <stop stop-color="#3B70BF" offset="100%"></stop>
        </linearGradient>
        <path d="M0,0.632032258 L0,83.9993226 L773.371463,83.9993226 C767.356726,62.4445161 723.397044,28.6074194 667.625066,36.8536452 C649.691811,39.5050645 631.625948,34.6378065 613.045888,29.7705484 C595.537521,25.1837419 577.57179,20.5976129 558.83003,22.3013226 C504.284003,27.2607097 509.883325,42.0027097 449.436226,41.8841613 C380.652388,41.7473226 340.226449,6.82906452 276.714472,9.9926129 C221.33829,12.7503871 208.290572,31.9802903 140.091294,33.2274194 C94.8109406,34.0559032 50.5075594,0.00541935484 15.5801329,0.00541935484 C10.3488671,0.00541935484 5.15616608,0.232354839 0,0.632032258" id="path-28"></path>
        <linearGradient x1="-27.9017914%" y1="50.0005646%" x2="123.872161%" y2="50.0005646%" id="linearGradient-30">
            <stop stop-color="#BADBF9" offset="0%"></stop>
            <stop stop-color="#3B70BF" offset="100%"></stop>
        </linearGradient>
        <path d="M184.689476,0.346 C149.315039,1.45866667 133.05976,17.0153333 89.4930418,17.5193333 C60.5672423,17.8533333 32.2655265,4.11733333 9.9528468,4.11733333 C6.61176602,4.11733333 3.29369916,4.20866667 0,4.37 L0,37.9993333 L485.364409,37.9993333 C472.842802,24.13 432.379579,9.19733333 389.404454,12.096 C349.293209,14.8006667 339.177911,21.0106667 295.141437,21.0106667 C252.443156,21.0106667 226.741337,0.292666667 188.093507,0.292 C186.969886,0.292 185.836111,0.31 184.689476,0.346" id="path-31"></path>
        <linearGradient x1="0%" y1="50.0015212%" x2="85.0382922%" y2="50.0015212%" id="linearGradient-33">
            <stop stop-color="#5460AA" offset="0%"></stop>
            <stop stop-color="#3B70BF" offset="100%"></stop>
        </linearGradient>
        <path d="M762.613477,0.521563126 L762.613477,6.34681363 L26.4733131,6.34681363 C17.4568877,4.8112505 8.86888136,2.78663727 0.536708098,0.521563126 L762.613477,0.521563126 Z" id="path-34"></path>
        <linearGradient x1="-1.90410555e-05%" y1="49.9942302%" x2="100.000038%" y2="49.9942302%" id="linearGradient-36">
            <stop stop-color="#FFFFFF" offset="0%"></stop>
            <stop stop-color="#FFFFFF" offset="100%"></stop>
        </linearGradient>
        <linearGradient x1="-4801.48318%" y1="50.0008886%" x2="7353.4804%" y2="50.0008886%" id="linearGradient-37">
            <stop stop-color="#BADBF9" offset="0%"></stop>
            <stop stop-color="#210B6B" offset="100%"></stop>
        </linearGradient>
        <linearGradient x1="-7458.7238%" y1="50.0008886%" x2="4696.4778%" y2="50.0008886%" id="linearGradient-38">
            <stop stop-color="#BADBF9" offset="0%"></stop>
            <stop stop-color="#210B6B" offset="100%"></stop>
        </linearGradient>
        <linearGradient x1="-2143.86719%" y1="50.0008886%" x2="10008.0192%" y2="50.0008886%" id="linearGradient-39">
            <stop stop-color="#BADBF9" offset="0%"></stop>
            <stop stop-color="#210B6B" offset="100%"></stop>
        </linearGradient>
        <polygon id="path-40" points="0.0764411765 0.4616 68.3857647 0.4616 68.3857647 3.6216 0.0764411765 3.6216"></polygon>
        <linearGradient x1="-227.172973%" y1="49.9923241%" x2="223.501019%" y2="49.9923241%" id="linearGradient-42">
            <stop stop-color="#BADBF9" offset="0%"></stop>
            <stop stop-color="#D1002B" offset="100%"></stop>
        </linearGradient>
        <path d="M0.0276666667,0.411428571 L0.0276666667,3.23357143 L67.0788455,3.23357143 C67.8035772,3.23357143 68.5283089,3.28071429 69.2462927,3.37642857 L81.4634878,4.995 C81.9500163,4.57642857 82.3413984,4.09571429 82.5829756,3.56142857 L71.0587967,0.845 C69.8387642,0.557142857 68.5917398,0.411428571 67.3406667,0.411428571 L0.0276666667,0.411428571 Z" id="path-43"></path>
        <linearGradient x1="-273.272862%" y1="50.0085616%" x2="98.7095771%" y2="50.0085616%" id="linearGradient-45">
            <stop stop-color="#BADBF9" offset="0%"></stop>
            <stop stop-color="#D1002B" offset="100%"></stop>
        </linearGradient>
        <linearGradient x1="-123.264145%" y1="49.9923241%" x2="327.414733%" y2="49.9923241%" id="linearGradient-46">
            <stop stop-color="#BADBF9" offset="0%"></stop>
            <stop stop-color="#D1002B" offset="100%"></stop>
        </linearGradient>
        <path d="M15.9071613,0.411428571 C14.6519032,0.411428571 13.4000323,0.557142857 12.1745806,0.845 L0.605612903,3.56142857 C0.848129032,4.09571429 1.24103226,4.57642857 1.72945161,4.995 L13.994129,3.37642857 C14.7155806,3.28071429 15.4424516,3.23357143 16.17,3.23357143 L83.4817742,3.23357143 L83.4817742,0.411428571 L15.9071613,0.411428571 Z" id="path-47"></path>
        <linearGradient x1="1.48908322%" y1="50.0085616%" x2="373.471523%" y2="50.0085616%" id="linearGradient-49">
            <stop stop-color="#BADBF9" offset="0%"></stop>
            <stop stop-color="#D1002B" offset="100%"></stop>
        </linearGradient>
        <path d="M149.093464,0.612 L297.817814,0.612 L296.285823,2.0392 C295.283459,2.968 294.394877,3.3448 292.347482,3.3448 L149.093464,3.3448 L5.84012273,3.3448 C3.79137273,3.3448 2.90414545,2.968 1.90110455,2.0392 L0.369113636,0.612 L149.093464,0.612 Z" id="path-50"></path>
        <linearGradient x1="-4.5584331e-05%" y1="49.9986475%" x2="100.000115%" y2="49.9986475%" id="linearGradient-52">
            <stop stop-color="#0064C3" offset="0%"></stop>
            <stop stop-color="#9E90AA" offset="100%"></stop>
        </linearGradient>
        <path d="M1.1074,0.0290909091 C0.5061,0.0290909091 0.0133,0.541818182 0.0133,1.16654545 L0.0133,6.80509091 C0.0133,7.42981818 0.5068,7.94254545 1.1074,7.94254545 L13.468,7.94254545 C12.327,6.57018182 10.9158,5.42836364 10.1255,4.78981818 L4.4219,0.176 C4.361,0.126545455 4.2987,0.0778181818 4.2371,0.0290909091 L1.1074,0.0290909091 Z" id="path-53"></path>
        <linearGradient x1="33.7869185%" y1="49.9995726%" x2="-2336.33639%" y2="49.9995726%" id="linearGradient-55">
            <stop stop-color="#2A0E59" offset="0%"></stop>
            <stop stop-color="#BADBF9" offset="100%"></stop>
        </linearGradient>
        <path d="M9.2568,0.0290909091 C9.1938,0.0778181818 9.1329,0.126545455 9.072,0.176 L3.367,4.78981818 C2.5774,5.42836364 1.1655,6.57018182 0.0252,7.94254545 L12.3851,7.94254545 C12.9864,7.94254545 13.4806,7.42981818 13.4806,6.80509091 L13.4806,1.16654545 C13.4806,0.541818182 12.9871,0.0290909091 12.3851,0.0290909091 L9.2568,0.0290909091 Z" id="path-56"></path>
        <linearGradient x1="2296.72676%" y1="49.9995726%" x2="-73.2732494%" y2="49.9995726%" id="linearGradient-58">
            <stop stop-color="#2A0E59" offset="0%"></stop>
            <stop stop-color="#BADBF9" offset="100%"></stop>
        </linearGradient>
        <path d="M2.13588,0.0290909091 C1.3022,0.0290909091 0.62084,0.540363636 0.62084,1.16654545 L0.62084,6.80509091 C0.62084,7.43127273 1.30356,7.94254545 2.13588,7.94254545 L67.4798,7.94254545 L67.4798,0.0290909091 L2.13588,0.0290909091 Z" id="path-59"></path>
        <linearGradient x1="426.760616%" y1="49.9985911%" x2="-36.5742625%" y2="49.9985911%" id="linearGradient-61">
            <stop stop-color="#2A0E59" offset="0%"></stop>
            <stop stop-color="#BADBF9" offset="100%"></stop>
        </linearGradient>
        <linearGradient x1="314.254772%" y1="50.0037092%" x2="-136.894119%" y2="50.0037092%" id="linearGradient-62">
            <stop stop-color="#2A0E59" offset="0%"></stop>
            <stop stop-color="#BADBF9" offset="100%"></stop>
        </linearGradient>
        <polygon id="path-63" points="0.0764411765 0.0290909091 68.3857647 0.0290909091 68.3857647 7.94254545 0.0764411765 7.94254545"></polygon>
        <linearGradient x1="210.341187%" y1="50.0027277%" x2="-240.802782%" y2="50.0027277%" id="linearGradient-65">
            <stop stop-color="#2A0E59" offset="0%"></stop>
            <stop stop-color="#BADBF9" offset="100%"></stop>
        </linearGradient>
        <path d="M0.0277474747,0.0290909091 L0.0277474747,7.94254545 L64.7335051,7.94254545 C65.7412121,7.94254545 66.5695758,7.43127273 66.5695758,6.80581818 L66.5695758,1.16654545 C66.5695758,0.540363636 65.7425657,0.0290909091 64.7335051,0.0290909091 L0.0277474747,0.0290909091 Z" id="path-66"></path>
        <linearGradient x1="109.305357%" y1="50.0037092%" x2="-354.025648%" y2="50.0037092%" id="linearGradient-68">
            <stop stop-color="#2A0E59" offset="0%"></stop>
            <stop stop-color="#BADBF9" offset="100%"></stop>
        </linearGradient>
        <path d="M510.855837,19.8337931 L7.13369536,19.8337931 C4.61050596,19.8337931 0.339764238,18.14 0.339764238,15.3793103 C0.339764238,12.6055172 3.86532583,9.81517241 5.28394305,8.67586207 L10.802743,4.30896552 C13.7834636,1.92896552 18.4555603,0.483448276 22.8136119,0.483448276 L510.855837,0.483448276 L510.855837,4.16344828 L16.8616464,4.16344828 L16.8616464,5.37517241 L510.855837,5.37517241 L510.855837,13.4958621 L86.0815033,13.4958621 L86.0815033,14.7082759 L510.855837,14.7082759 L510.855837,19.8337931 Z" id="path-69"></path>
    </defs>
    <g id="Page-1" stroke="none" stroke-width="1" fill="none" fill-rule="evenodd">
        <g id="Landlord-Manage-Payments-/-01-Dashboard" transform="translate(-216.000000, -405.000000)">
            <rect fill="#F4F8F9" x="0" y="0" width="1368" height="977"></rect>
            <g id="ll-dash-bg-graphic" opacity="0.75" transform="translate(216.000000, 405.000000)">
                <g id="Group-3">
                    <mask id="mask-2" fill="white">
                        <use xlink:href="#path-1"></use>
                    </mask>
                    <g id="Clip-2"></g>
                    <path d="M306.619363,16.0932705 C264.665717,34.9806293 246.035216,36.9429259 231.290777,26.4439279 C224.277188,21.4504689 213.958111,-9.62927455 169.413531,16.8072024 C130.335694,39.9977956 36.7311775,15.9036112 36.7311775,65.2102926 C36.7311775,86.2841523 10.2277278,89.4826212 0,94.4374709 L0,337.999323 L1150.85587,337.999323 L1150.85587,121.302036 C1119.83706,93.9240361 1076.00704,63.7553347 1024.96043,71.3268056 C950.347747,82.3954589 909.545778,120.64297 854.362061,126.531892 C783.688225,134.074914 797.362186,95.9561002 755.907916,85.9075431 C719.629424,77.1141242 670.175671,97.9109459 625.958595,118.708445 C575.566989,142.409764 531.977855,166.11176 522.445734,146.011936 C512.051548,124.094092 469.516651,137.61206 469.516651,137.61206 C469.516651,137.61206 540.936167,74.6146854 469.516651,78.3801002 C398.438848,82.1279038 409.70728,52.7754148 410.544986,44.1127255 C413.309822,15.5581603 396.479915,0.449086172 367.629806,0.449086172 C350.858768,0.449086172 330.025736,5.55498597 306.619363,16.0932705" id="Fill-1" fill="url(#linearGradient-3)" mask="url(#mask-2)"></path>
                </g>
                <g id="Group-6" transform="translate(786.000000, 35.000000)">
                    <mask id="mask-5" fill="white">
                        <use xlink:href="#path-4"></use>
                    </mask>
                    <g id="Clip-5"></g>
                    <path d="M259.637689,0.295857143 C255.9987,0.295857143 255.087767,4.142 255.087767,6.11732143 C255.087767,15.2644643 256.374867,64.3373929 256.374867,72.3771071 C256.374867,74.6286071 254.757011,75.5697857 253.017833,75.5697857 C249.580144,75.5697857 245.4213,75.5609643 241.122833,75.5562143 C239.532089,75.5541786 238.230756,74.2967857 238.167722,72.7068929 L237.676333,30.3735357 C237.656,28.6499643 236.237411,27.2724643 234.516533,27.3063929 L198.942011,28.01075 C196.870044,28.0521429 195.210844,29.7438214 195.208811,31.8188929 C195.189156,48.57825 195.111211,116.632857 195.111211,130.327107 C195.111211,132.541286 194.558822,133.448536 192.4855,133.448536 C191.304811,133.448536 184.836778,133.475679 181.569211,133.475679 C180.472567,133.475679 179.628733,133.103143 179.628733,131.94075 C179.628733,129.270571 179.623311,126.974964 179.623311,123.788393 C179.623311,121.125 178.555811,120.88275 175.566811,120.88275 C173.641244,120.88275 167.411111,120.898357 163.778222,120.907179 C162.275589,120.91125 161.0522,119.713571 161.020344,118.209179 C160.929522,113.882607 160.764144,105.62575 160.764144,102.975929 C160.764144,102.304143 160.325622,100.27725 158.383111,100.27725 C148.299133,100.27725 127.710956,100.4625 116.466622,100.4625 C113.579289,100.4625 112.700211,101.665607 112.700211,105.162964 C112.700211,120.326321 112.755111,168.998893 112.755111,175.007643 C112.755111,176.991107 110.541489,178.720786 108.926344,178.720786 C101.396911,178.720786 84.9757111,178.959643 78.0278111,178.959643 C75.6027222,178.959643 74.8700444,176.51 74.8700444,175.608179 C74.8700444,169.9835 74.8666556,158.580786 74.8666556,152.145893 C74.8666556,149.84825 74.9113889,148.011357 71.2120778,148.011357 C58.4075,148.011357 38.6401111,148.117214 26.2449111,148.246143 C25.9107667,148.249536 25.5718778,148.248857 25.2296,148.2475 C21.8956111,148.240036 18.3406667,148.231893 18.3406667,152.147929 C18.3406667,156.256679 18.3833667,163.811214 18.3833667,167.094143 C18.3833667,169.881036 18.117,172.37275 14.2577333,172.37275 C10.5984111,172.37275 11.2619556,172.324571 5.89531111,172.324571 C1.37792222,172.324571 0.122,174.540107 0.122,178.686857 C0.122,191.913571 -0.0481222222,278.871143 0.122,303.999321 L365.855633,303.999321 L365.855633,33.2248929 C354.167356,33.2248929 349.977333,33.4535714 338.444944,33.4535714 C333.315522,33.4535714 332.703489,36.6265714 332.703489,41.8888929 C332.703489,46.3769643 332.844467,79.0556071 332.844467,90.4725714 C332.844467,92.6521429 332.048756,94.1897857 330.020167,94.1897857 C323.8063,94.1897857 321.614367,94.3051429 318.723644,94.3051429 C314.947744,94.3051429 314.8637,92.2857143 314.8637,88.3364286 C314.8637,82.2733929 313.817211,14.3843571 313.817211,7.74114286 C313.817211,2.26982143 312.981511,0.295857143 308.292644,0.295857143 L259.637689,0.295857143 Z" id="Fill-4" fill="url(#linearGradient-6)" mask="url(#mask-5)"></path>
                </g>
                <g id="Group-9" transform="translate(933.000000, 135.000000)">
                    <mask id="mask-8" fill="white">
                        <use xlink:href="#path-7"></use>
                    </mask>
                    <g id="Clip-8"></g>
                    <path d="M0.6349,0.561169435 C2.8588,0.600478405 3.1297,2.18842525 3.1297,3.35142857 L3.1297,203.996611 L13.6997,203.996611 L13.6997,18.4386179 C13.6066,14.1159867 13.4351,5.86991362 13.4351,3.21994684 C13.4351,2.54966113 12.9822,0.609966777 10.9774,0.523893688 C10.4965,0.502883721 9.1518,0.495428571 7.574,0.495428571 C3.983,0.495428571 -0.8127,0.536093023 0.6349,0.561169435" id="Fill-7" fill="url(#linearGradient-9)" mask="url(#mask-8)"></path>
                </g>
                <g id="Group-12" transform="translate(841.000000, 183.000000)">
                    <mask id="mask-11" fill="white">
                        <use xlink:href="#path-10"></use>
                    </mask>
                    <g id="Clip-11"></g>
                    <path d="M0.297241379,0.115982609 C3.07172414,0.19533913 3.00689655,1.68547826 3.00689655,4.21742609 L3.00689655,155.996609 L19.6275862,155.996609 L19.6275862,4.05125217 C19.6275862,1.83605217 19.5813793,0.0868173913 15.9103448,0.0868173913 C11.7324138,0.0868173913 -0.104827586,0.103773913 0.297241379,0.115982609" id="Fill-10" fill="url(#linearGradient-12)" mask="url(#mask-11)"></path>
                </g>
                <g id="Group-15" transform="translate(1086.000000, 35.000000)">
                    <mask id="mask-14" fill="white">
                        <use xlink:href="#path-13"></use>
                    </mask>
                    <g id="Clip-14"></g>
                    <path d="M0.646363636,0.297892857 L0.646363636,303.996607 L14.6918182,303.996607 L14.6918182,88.3391429 C14.6918182,82.2774643 13.6390909,14.3823214 13.6390909,7.73978571 C13.6390909,2.27321429 12.8059091,0.297892857 8.08636364,0.297892857 L0.646363636,0.297892857 Z" id="Fill-13" fill="url(#linearGradient-15)" mask="url(#mask-14)"></path>
                </g>
                <polygon id="Fill-16" fill="url(#linearGradient-16)" points="1024 339 1055 339 1055 168 1024 168"></polygon>
                <g id="Group-54" transform="translate(815.000000, 143.000000)">
                    <path d="M207.773799,28.3280569 L150.990055,28.3280569 C150.538912,28.3280569 150.172993,27.9598764 150.172993,27.5059458 L150.172993,26.4803486 C150.172993,26.0257375 150.538912,25.6582375 150.990055,25.6582375 L207.773799,25.6582375 C208.224941,25.6582375 208.590861,26.0257375 208.590861,26.4803486 L208.590861,27.5059458 C208.590861,27.9598764 208.224941,28.3280569 207.773799,28.3280569" id="Fill-18" fill="#FFFFFF"></path>
                    <path d="M107.209222,5.8757125 L84.396432,5.8757125 C83.8363932,5.8757125 83.3825453,5.41905972 83.3825453,4.85555972 L83.3825453,1.60794861 C83.3825453,1.04444861 83.8363932,0.587115278 84.396432,0.587115278 L107.209222,0.587115278 C107.769261,0.587115278 108.223108,1.04444861 108.223108,1.60794861 L108.223108,4.85555972 C108.223108,5.41905972 107.769261,5.8757125 107.209222,5.8757125" id="Fill-20" fill="#FFFFFF"></path>
                    <path d="M117.569534,28.0568556 L84.291188,28.0568556 C83.7893175,28.0568556 83.3828159,27.6478417 83.3828159,27.1428694 L83.3828159,23.6822444 C83.3828159,23.1779528 83.7893175,22.7682583 84.291188,22.7682583 L117.569534,22.7682583 C118.071405,22.7682583 118.477906,23.1779528 118.477906,23.6822444 L118.477906,27.1428694 C118.477906,27.6478417 118.071405,28.0568556 117.569534,28.0568556" id="Fill-22" fill="#9FA7E9"></path>
                    <path d="M117.689726,50.2377264 L91.3665482,50.2377264 C90.9309625,50.2377264 90.5785709,49.8831569 90.5785709,49.4448792 L90.5785709,45.7433375 C90.5785709,45.3050597 90.9309625,44.9491292 91.3665482,44.9491292 L117.689726,44.9491292 C118.125312,44.9491292 118.477704,45.3050597 118.477704,45.7433375 L118.477704,49.4448792 C118.477704,49.8831569 118.125312,50.2377264 117.689726,50.2377264" id="Fill-24" fill="#ECECFC"></path>
                    <path d="M16.4487735,56.5169403 L10.6887605,56.5169403 C10.2721133,56.5169403 9.93392557,56.1766625 9.93392557,55.7574403 L9.93392557,45.2864125 C9.93392557,44.8671903 10.2721133,44.5269125 10.6887605,44.5269125 L16.4487735,44.5269125 C16.8660971,44.5269125 17.2036084,44.8671903 17.2036084,45.2864125 L17.2036084,55.7574403 C17.2036084,56.1766625 16.8660971,56.5169403 16.4487735,56.5169403" id="Fill-26" fill="#CADCF7"></path>
                    <path d="M25.9061249,92.6315736 L20.1454356,92.6315736 C19.7287883,92.6315736 19.3906006,92.2912958 19.3906006,91.8720736 L19.3906006,81.4010458 C19.3906006,80.9818236 19.7287883,80.6422264 20.1454356,80.6422264 L25.9061249,80.6422264 C26.3227722,80.6422264 26.6602835,80.9818236 26.6602835,81.4010458 L26.6602835,91.8720736 C26.6602835,92.2912958 26.3227722,92.6315736 25.9061249,92.6315736" id="Fill-28" fill="#ECECFC"></path>
                    <path d="M6.99270712,110.68889 L1.2320178,110.68889 C0.81537055,110.68889 0.477182848,110.348612 0.477182848,109.92939 L0.477182848,99.4590431 C0.477182848,99.0391403 0.81537055,98.6995431 1.2320178,98.6995431 L6.99270712,98.6995431 C7.40935437,98.6995431 7.7468657,99.0391403 7.7468657,99.4590431 L7.7468657,109.92939 C7.7468657,110.348612 7.40935437,110.68889 6.99270712,110.68889" id="Fill-30" fill="#8DC2F5"></path>
                    <path d="M16.4487735,128.746207 L10.6887605,128.746207 C10.2721133,128.746207 9.93392557,128.405929 9.93392557,127.986707 L9.93392557,117.51636 C9.93392557,117.096457 10.2721133,116.75686 10.6887605,116.75686 L16.4487735,116.75686 C16.8660971,116.75686 17.2036084,117.096457 17.2036084,117.51636 L17.2036084,127.986707 C17.2036084,128.405929 16.8660971,128.746207 16.4487735,128.746207" id="Fill-32" fill="#ECECFC"></path>
                    <path d="M25.9061249,128.746207 L20.1454356,128.746207 C19.7287883,128.746207 19.3906006,128.405929 19.3906006,127.986707 L19.3906006,117.51636 C19.3906006,117.096457 19.7287883,116.75686 20.1454356,116.75686 L25.9061249,116.75686 C26.3227722,116.75686 26.6602835,117.096457 26.6602835,117.51636 L26.6602835,127.986707 C26.6602835,128.405929 26.3227722,128.746207 25.9061249,128.746207" id="Fill-34" fill="#8DC2F5"></path>
                    <path d="M6.99270712,146.803524 L1.2320178,146.803524 C0.81537055,146.803524 0.477182848,146.463246 0.477182848,146.044024 L0.477182848,135.573676 C0.477182848,135.154454 0.81537055,134.814176 1.2320178,134.814176 L6.99270712,134.814176 C7.40935437,134.814176 7.7468657,135.154454 7.7468657,135.573676 L7.7468657,146.044024 C7.7468657,146.463246 7.40935437,146.803524 6.99270712,146.803524" id="Fill-36" fill="#ECECFC"></path>
                    <path d="M25.9061249,146.803524 L20.1454356,146.803524 C19.7287883,146.803524 19.3906006,146.463246 19.3906006,146.044024 L19.3906006,135.573676 C19.3906006,135.154454 19.7287883,134.814176 20.1454356,134.814176 L25.9061249,134.814176 C26.3227722,134.814176 26.6602835,135.154454 26.6602835,135.573676 L26.6602835,146.044024 C26.6602835,146.463246 26.3227722,146.803524 25.9061249,146.803524" id="Fill-38" fill="#ECECFC"></path>
                    <path d="M182.307994,51.1868292 L175.25137,51.1868292 C174.849603,51.1868292 174.522914,50.8588014 174.522914,50.4531903 L174.522914,39.9297597 C174.522914,39.5248292 174.849603,39.1968014 175.25137,39.1968014 L182.307994,39.1968014 C182.710438,39.1968014 183.036451,39.5248292 183.036451,39.9297597 L183.036451,50.4531903 C183.036451,50.8588014 182.710438,51.1868292 182.307994,51.1868292" id="Fill-40" fill="#88BBEB"></path>
                    <path d="M205.412437,51.1868292 L198.355813,51.1868292 C197.954046,51.1868292 197.627356,50.8588014 197.627356,50.4531903 L197.627356,39.9297597 C197.627356,39.5248292 197.954046,39.1968014 198.355813,39.1968014 L205.412437,39.1968014 C205.814881,39.1968014 206.140894,39.5248292 206.140894,39.9297597 L206.140894,50.4531903 C206.140894,50.8588014 205.814881,51.1868292 205.412437,51.1868292" id="Fill-42" fill="#ECECFC"></path>
                    <path d="M159.203619,88.5980569 L152.146995,88.5980569 C151.745228,88.5980569 151.418539,88.2700292 151.418539,87.8650986 L151.418539,77.3409875 C151.418539,76.9360569 151.745228,76.6087097 152.146995,76.6087097 L159.203619,76.6087097 C159.606063,76.6087097 159.932076,76.9360569 159.932076,77.3409875 L159.932076,87.8650986 C159.932076,88.2700292 159.606063,88.5980569 159.203619,88.5980569" id="Fill-44" fill="#88BBEB"></path>
                    <path d="M182.307994,88.5980569 L175.25137,88.5980569 C174.849603,88.5980569 174.522914,88.2700292 174.522914,87.8650986 L174.522914,77.3409875 C174.522914,76.9360569 174.849603,76.6087097 175.25137,76.6087097 L182.307994,76.6087097 C182.710438,76.6087097 183.036451,76.9360569 183.036451,77.3409875 L183.036451,87.8650986 C183.036451,88.2700292 182.710438,88.5980569 182.307994,88.5980569" id="Fill-46" fill="#ECECFC"></path>
                    <path d="M205.412437,88.5980569 L198.355813,88.5980569 C197.954046,88.5980569 197.627356,88.2700292 197.627356,87.8650986 L197.627356,77.3409875 C197.627356,76.9360569 197.954046,76.6087097 198.355813,76.6087097 L205.412437,76.6087097 C205.814881,76.6087097 206.140894,76.9360569 206.140894,77.3409875 L206.140894,87.8650986 C206.140894,88.2700292 205.814881,88.5980569 205.412437,88.5980569" id="Fill-48" fill="#8DC2F5"></path>
                    <path d="M193.859878,107.303399 L186.803929,107.303399 C186.402162,107.303399 186.075473,106.975371 186.075473,106.57044 L186.075473,96.0470097 C186.075473,95.6420792 186.402162,95.3140514 186.803929,95.3140514 L193.859878,95.3140514 C194.262321,95.3140514 194.588334,95.6420792 194.588334,96.0470097 L194.588334,106.57044 C194.588334,106.975371 194.262321,107.303399 193.859878,107.303399" id="Fill-50" fill="#ECECFC"></path>
                    <path d="M182.307994,126.009353 L175.25137,126.009353 C174.849603,126.009353 174.522914,125.681325 174.522914,125.276394 L174.522914,114.752964 C174.522914,114.347353 174.849603,114.020006 175.25137,114.020006 L182.307994,114.020006 C182.710438,114.020006 183.036451,114.347353 183.036451,114.752964 L183.036451,125.276394 C183.036451,125.681325 182.710438,126.009353 182.307994,126.009353" id="Fill-52" fill="#8DC2F5"></path>
                </g>
                <polygon id="Fill-55" fill="url(#linearGradient-17)" points="982 72 1021 72 1021 69 982 69"></polygon>
                <polygon id="Fill-57" fill="url(#linearGradient-18)" points="982 81 1007 81 1007 78 982 78"></polygon>
                <polygon id="Fill-59" fill="#FFFFFF" points="988 91 1020 91 1020 88 988 88"></polygon>
                <polygon id="Fill-61" fill="url(#linearGradient-19)" points="1002 129 1022 129 1022 126 1002 126"></polygon>
                <polygon id="Fill-63" fill="url(#linearGradient-20)" points="982 138 1009 138 1009 135 982 135"></polygon>
                <polygon id="Fill-65" fill="url(#linearGradient-21)" points="982 157 1013 157 1013 154 982 154"></polygon>
                <g id="Group-69" transform="translate(336.000000, 192.000000)">
                    <mask id="mask-23" fill="white">
                        <use xlink:href="#path-22"></use>
                    </mask>
                    <g id="Clip-68"></g>
                    <path d="M335.096998,7.52748387 C303.274767,17.4943548 302.162604,21.2459032 294.147986,14.3382581 C290.335627,11.0534516 286.012878,-6.44564516 260.511636,7.9976129 C243.809551,17.4570968 211.975814,10.2872903 204.572446,41.4628065 C202.21206,51.4019032 160.774996,44.7774194 151.702367,70.2599032 C142.419219,96.3283548 125.762488,90.6204194 94.5142774,82.5191613 C44.3254402,69.5066129 -0.102890365,118.119581 0.440384957,146.999323 L814.855818,146.999323 L814.855818,54.1278387 C808.921346,53.9605161 804.847699,56.4107419 800.705685,58.8616452 C795.558459,61.9073226 790.304282,64.953 781.239776,62.9715484 C766.850694,59.8269677 756.954265,44.154871 739.220569,47.9179355 C703.881113,55.4176452 685.706071,79.2492581 665.384547,80.1888387 C641.841607,81.2767742 632.184805,59.892 605.536877,59.892 C547.732122,59.892 473.252359,101.679968 473.252359,93.0042581 C473.252359,77.0422258 444.480287,87.477871 444.480287,87.477871 C444.480287,87.477871 483.3038,46.0313226 444.480287,48.5086452 C405.842247,50.9737742 411.967608,31.6625806 412.423846,25.9634516 C413.895449,7.56474194 397.972488,0.470806452 376.911777,0.469451613 C363.966545,0.468774194 349.083995,3.14729032 335.096998,7.52748387" id="Fill-67" fill="url(#linearGradient-24)" mask="url(#mask-23)"></path>
                </g>
                <g id="Group-72" transform="translate(436.000000, 292.000000)">
                    <mask id="mask-26" fill="white">
                        <use xlink:href="#path-25"></use>
                    </mask>
                    <g id="Clip-71"></g>
                    <path d="M688.54543,8.9582 C678.909574,15.4455429 670.57024,21.9328857 662.220746,13.9496 C649.976942,2.24391429 633.352465,30.2988857 621.767762,32.3534571 C612.438763,34.0078571 607.865033,28.9264857 604.284356,23.8451143 C600.304696,18.1970571 597.550433,12.549 590.855122,16.1492 C564.972095,30.0692571 561.264746,25.4444571 552.70797,20.8196571 C546.923746,17.6934857 538.923107,14.5666429 520.354524,17.1697714 C507.639936,18.9530857 484.965699,23.8041571 475.243815,22.6815286 C464.503815,21.4427429 456.187512,12.9746857 445.192136,14.4451143 C429.3873,16.5594429 423.353798,27.7494714 404.015701,28.1973143 C394.753763,28.4108286 384.316556,25.7741286 372.88291,23.1367571 C361.829279,20.5866714 349.844238,18.0372571 337.093071,18.0641143 C319.613052,18.1003714 289.860102,28.1429286 275.89099,28.1429286 C210.977495,28.1429286 206.716719,12.2972143 145.364935,12.2972143 C81.8665052,12.2972143 18.8395383,31.6054857 0.382047304,47 L715.856394,47 L715.856394,1.04877143 C713.858774,0.510957143 711.921442,0.270585714 710.036946,0.270585714 C702.030887,0.271257143 694.996882,4.61472857 688.54543,8.9582" id="Fill-70" fill="url(#linearGradient-27)" mask="url(#mask-26)"></path>
                </g>
                <g id="Group-75" transform="translate(0.000000, 255.000000)">
                    <mask id="mask-29" fill="white">
                        <use xlink:href="#path-28"></use>
                    </mask>
                    <g id="Clip-74"></g>
                    <path d="M0,0.632032258 L0,83.9993226 L773.371463,83.9993226 C767.356726,62.4445161 723.397044,28.6074194 667.625066,36.8536452 C649.691811,39.5050645 631.625948,34.6378065 613.045888,29.7705484 C595.537521,25.1837419 577.57179,20.5976129 558.83003,22.3013226 C504.284003,27.2607097 509.883325,42.0027097 449.436226,41.8841613 C380.652388,41.7473226 340.226449,6.82906452 276.714472,9.9926129 C221.33829,12.7503871 208.290572,31.9802903 140.091294,33.2274194 C94.8109406,34.0559032 50.5075594,0.00541935484 15.5801329,0.00541935484 C10.3488671,0.00541935484 5.15616608,0.232354839 0,0.632032258" id="Fill-73" fill="url(#linearGradient-30)" mask="url(#mask-29)"></path>
                </g>
                <g id="Group-84" transform="translate(61.000000, 75.000000)" fill="#FFFFFF">
                    <path d="M238.959106,29.8551424 C238.959106,45.9795023 225.919049,59.051235 209.83225,59.051235 C193.746806,59.051235 180.706072,45.9795023 180.706072,29.8551424 C180.706072,13.7307825 193.746806,0.659049871 209.83225,0.659049871 C225.919049,0.659049871 238.959106,13.7307825 238.959106,29.8551424" id="Fill-76"></path>
                    <path d="M1.47949802,125.882326 C7.34752351,123.206357 19.8811439,118.345092 21.6956482,117.857812 C23.3713564,117.407858 27.3097785,118.316588 29.7417558,118.461143 L32.3700788,117.754655 C32.3680476,117.701041 32.3619541,117.647426 32.3619541,117.592454 C32.3619541,115.179128 34.3139003,113.223221 36.7208266,113.223221 C36.776345,113.223221 36.8291552,113.22865 36.8839966,113.230686 L45.2970674,81.7549635 C45.4358635,81.2364648 45.9673507,80.9290303 46.4839428,81.0674776 C47.0337105,81.2154262 47.2774499,81.846583 47.1799541,82.8550766 C46.5577416,89.2874468 44.4906963,102.59739 44.0045717,104.416886 C43.555685,106.096578 40.80143,109.0603 39.4601864,111.099683 L38.7567275,113.730182 C40.1385943,114.463138 41.0796992,115.916156 41.0796992,117.592454 C41.0796992,118.446892 40.8318975,119.241606 40.4087388,119.91484 L63.3947161,142.956814 C63.7738663,143.335508 63.7738663,143.951056 63.3947161,144.331107 C62.9932232,144.733555 62.3256482,144.629041 61.5037048,144.04064 C56.2572147,140.284239 45.7913167,131.834881 44.461583,130.503344 C43.2354385,129.273606 42.0512714,125.400475 40.9612147,123.216537 L39.0383819,121.288454 C38.8196935,121.42758 38.5888181,121.547025 38.3457558,121.645431 L40.9788181,263.999796 L32.4628351,263.999796 L35.0958975,121.645431 C34.1371892,121.258593 33.3470674,120.541246 32.8677133,119.633195 L1.47001926,128.066943 C0.953427195,128.20539 0.421939943,127.897956 0.283143909,127.379457 C0.135546176,126.829061 0.560058924,126.30174 1.47949802,125.882326" id="Fill-78"></path>
                    <path d="M84.7806122,126.533164 C90.5606207,125.568105 102.702227,124.256249 104.40908,124.256249 C105.985938,124.256249 109.229026,125.982089 111.329247,126.68247 L113.804556,126.68247 C114.206048,124.91591 115.776136,123.594552 117.6597,123.594552 C118.065932,123.594552 118.449822,123.673277 118.818816,123.787293 L133.597547,98.1304288 C133.839932,97.7083003 134.378867,97.5630663 134.800672,97.8073851 C135.248204,98.0659558 135.313201,98.6787887 134.990924,99.5400123 C132.936065,105.039899 127.998312,116.235128 127.144547,117.718007 C126.356456,119.086192 123.24404,121.038028 121.587966,122.511406 L120.348281,124.664125 C121.126216,125.388938 121.621142,126.416434 121.621142,127.565411 C121.621142,128.715066 121.126216,129.741884 120.347604,130.466696 L135.122272,156.118131 C135.364658,156.540259 135.220445,157.080475 134.799318,157.324115 C134.352462,157.582686 133.790507,157.334295 133.207564,156.623735 C129.483091,152.089586 122.279915,142.204856 121.42615,140.723334 C120.63806,139.35447 120.507388,135.676115 120.062564,133.502357 L119.147187,131.914285 L121.529063,263.999796 L113.791014,263.999796 L116.185077,131.244444 C114.994816,130.764629 114.094335,129.724917 113.804556,128.448352 L84.2606348,128.448352 C83.7738331,128.448352 83.3791108,128.052691 83.3791108,127.565411 C83.3791108,127.047591 83.8760683,126.684506 84.7806122,126.533164" id="Fill-80"></path>
                    <path d="M160.172248,133.54647 C160.287347,133.11484 160.780242,132.9221 161.569687,132.997431 C166.603582,133.475889 177.02141,135.07957 178.445254,135.457586 C179.760092,135.808454 182.083741,137.969318 183.680911,139.019889 L185.754727,139.572321 C186.328192,138.484424 187.454132,137.735179 188.766262,137.735179 C189.431806,137.735179 190.047248,137.934028 190.572642,138.263858 L208.567378,120.151015 C208.863928,119.852403 209.345313,119.851724 209.64254,120.1483 C209.958724,120.464557 209.878155,120.989164 209.419112,121.63593 C206.488823,125.766953 199.894996,134.009318 198.855041,135.055817 C197.894979,136.021555 194.866517,136.95811 193.160342,137.820012 L191.651189,139.338182 C191.984976,139.867539 192.185384,140.489874 192.185384,141.163107 C192.185384,142.472249 191.442656,143.598151 190.364786,144.174336 L197.018871,168.857318 C197.127877,169.264516 196.8882,169.682573 196.483322,169.791838 C196.052716,169.909246 195.639713,169.576701 195.309988,168.853925 C193.875988,165.713071 191.645095,160.142604 190.246302,156.460856 L192.106169,263.999796 L185.427033,263.999796 L187.495432,144.338573 C186.238143,143.83229 185.347141,142.604588 185.347141,141.163107 C185.347141,141.121709 185.357973,141.083704 185.359327,141.043663 L160.711183,134.478953 C160.306982,134.371046 160.065274,133.954347 160.172248,133.54647" id="Fill-82"></path>
                </g>
                <g id="Group-87" transform="translate(0.000000, 301.000000)">
                    <mask id="mask-32" fill="white">
                        <use xlink:href="#path-31"></use>
                    </mask>
                    <g id="Clip-86"></g>
                    <path d="M184.689476,0.346 C149.315039,1.45866667 133.05976,17.0153333 89.4930418,17.5193333 C60.5672423,17.8533333 32.2655265,4.11733333 9.9528468,4.11733333 C6.61176602,4.11733333 3.29369916,4.20866667 0,4.37 L0,37.9993333 L485.364409,37.9993333 C472.842802,24.13 432.379579,9.19733333 389.404454,12.096 C349.293209,14.8006667 339.177911,21.0106667 295.141437,21.0106667 C252.443156,21.0106667 226.741337,0.292666667 188.093507,0.292 C186.969886,0.292 185.836111,0.31 184.689476,0.346" id="Fill-85" fill="url(#linearGradient-33)" mask="url(#mask-32)"></path>
                </g>
                <g id="Group-94" transform="translate(388.000000, 269.000000)">
                    <g id="Group-90" transform="translate(0.487324, 18.521042)">
                        <mask id="mask-35" fill="white">
                            <use xlink:href="#path-34"></use>
                        </mask>
                        <g id="Clip-89"></g>
                        <path d="M762.613477,0.521563126 L762.613477,6.34681363 L26.4733131,6.34681363 C17.4568877,4.8112505 8.86888136,2.78663727 0.536708098,0.521563126 L762.613477,0.521563126 Z" id="Fill-88" fill="url(#linearGradient-36)" mask="url(#mask-35)"></path>
                    </g>
                    <polygon id="Fill-91" fill="#FFFFFF" points="409.354667 19.0405731 477.697979 19.0405731 477.697979 0.0299358717 409.354667 0.0299358717"></polygon>
                    <path d="M558.491499,8.0804998 L552.976874,3.78268417 C549.990124,1.45597074 545.322861,0.0294617234 540.9649,0.0294617234 L480.371029,0.0294617234 L480.371029,19.0407764 L556.638401,19.0407764 C559.171013,19.0407764 563.440313,17.3738064 563.440313,14.655582 C563.440313,11.9366802 559.916855,9.19136152 558.491499,8.0804998" id="Fill-93" fill="#FFFFFF"></path>
                </g>
                <polygon id="Fill-95" fill="url(#linearGradient-37)" points="795 287 798 287 798 268 795 268"></polygon>
                <polygon id="Fill-97" fill="url(#linearGradient-38)" points="866 287 869 287 869 268 866 268"></polygon>
                <polygon id="Fill-99" fill="#FFFFFF" points="726 287 794 287 794 268 726 268"></polygon>
                <polygon id="Fill-101" fill="url(#linearGradient-39)" points="724 287 727 287 727 268 724 268"></polygon>
                <path d="M645.944687,276.046246 L651.455388,271.750989 C654.438971,269.42566 659.103017,268 663.456668,268 L724,268 L724,287 L647.796239,287 C645.265739,287 641,285.334022 641,282.617415 C641,279.900132 644.520519,277.156447 645.944687,276.046246" id="Fill-103" fill="#FFFFFF"></path>
                <g id="Group-107" transform="translate(798.000000, 281.000000)">
                    <mask id="mask-41" fill="white">
                        <use xlink:href="#path-40"></use>
                    </mask>
                    <g id="Clip-106"></g>
                    <polygon id="Fill-105" fill="url(#linearGradient-42)" mask="url(#mask-41)" points="0.0764411765 3.6216 68.3857647 3.6216 68.3857647 0.4616 0.0764411765 0.4616"></polygon>
                </g>
                <g id="Group-110" transform="translate(868.000000, 281.000000)">
                    <mask id="mask-44" fill="white">
                        <use xlink:href="#path-43"></use>
                    </mask>
                    <g id="Clip-109"></g>
                    <path d="M0.0276666667,0.411428571 L0.0276666667,3.23357143 L67.0788455,3.23357143 C67.8035772,3.23357143 68.5283089,3.28071429 69.2462927,3.37642857 L81.4634878,4.995 C81.9500163,4.57642857 82.3413984,4.09571429 82.5829756,3.56142857 L71.0587967,0.845 C69.8387642,0.557142857 68.5917398,0.411428571 67.3406667,0.411428571 L0.0276666667,0.411428571 Z" id="Fill-108" fill="url(#linearGradient-45)" mask="url(#mask-44)"></path>
                </g>
                <polygon id="Fill-111" fill="url(#linearGradient-46)" points="726 284 794 284 794 281 726 281"></polygon>
                <g id="Group-115" transform="translate(641.000000, 281.000000)">
                    <mask id="mask-48" fill="white">
                        <use xlink:href="#path-47"></use>
                    </mask>
                    <g id="Clip-114"></g>
                    <path d="M15.9071613,0.411428571 C14.6519032,0.411428571 13.4000323,0.557142857 12.1745806,0.845 L0.605612903,3.56142857 C0.848129032,4.09571429 1.24103226,4.57642857 1.72945161,4.995 L13.994129,3.37642857 C14.7155806,3.28071429 15.4424516,3.23357143 16.17,3.23357143 L83.4817742,3.23357143 L83.4817742,0.411428571 L15.9071613,0.411428571 Z" id="Fill-113" fill="url(#linearGradient-49)" mask="url(#mask-48)"></path>
                </g>
                <g id="Group-118" transform="translate(647.000000, 287.000000)">
                    <mask id="mask-51" fill="white">
                        <use xlink:href="#path-50"></use>
                    </mask>
                    <g id="Clip-117"></g>
                    <path d="M149.093464,0.612 L0.369113636,0.612 L1.90110455,2.0392 C2.90414545,2.968 3.79137273,3.3448 5.84012273,3.3448 L149.093464,3.3448 L292.347482,3.3448 C294.394877,3.3448 295.283459,2.968 296.285823,2.0392 L297.817814,0.612 L149.093464,0.612 Z" id="Fill-116" fill="url(#linearGradient-52)" mask="url(#mask-51)"></path>
                </g>
                <g id="Group-121" transform="translate(936.000000, 272.000000)">
                    <mask id="mask-54" fill="white">
                        <use xlink:href="#path-53"></use>
                    </mask>
                    <g id="Clip-120"></g>
                    <path d="M1.1074,0.0290909091 C0.5061,0.0290909091 0.0133,0.541818182 0.0133,1.16654545 L0.0133,6.80509091 C0.0133,7.42981818 0.5068,7.94254545 1.1074,7.94254545 L13.468,7.94254545 C12.327,6.57018182 10.9158,5.42836364 10.1255,4.78981818 L4.4219,0.176 C4.361,0.126545455 4.2987,0.0778181818 4.2371,0.0290909091 L1.1074,0.0290909091 Z" id="Fill-119" fill="url(#linearGradient-55)" mask="url(#mask-54)"></path>
                </g>
                <g id="Group-124" transform="translate(642.000000, 272.000000)">
                    <mask id="mask-57" fill="white">
                        <use xlink:href="#path-56"></use>
                    </mask>
                    <g id="Clip-123"></g>
                    <path d="M9.2568,0.0290909091 C9.1938,0.0778181818 9.1329,0.126545455 9.072,0.176 L3.367,4.78981818 C2.5774,5.42836364 1.1655,6.57018182 0.0252,7.94254545 L12.3851,7.94254545 C12.9864,7.94254545 13.4806,7.42981818 13.4806,6.80509091 L13.4806,1.16654545 C13.4806,0.541818182 12.9871,0.0290909091 12.3851,0.0290909091 L9.2568,0.0290909091 Z" id="Fill-122" fill="url(#linearGradient-58)" mask="url(#mask-57)"></path>
                </g>
                <g id="Group-127" transform="translate(656.000000, 272.000000)">
                    <mask id="mask-60" fill="white">
                        <use xlink:href="#path-59"></use>
                    </mask>
                    <g id="Clip-126"></g>
                    <path d="M2.13588,0.0290909091 C1.3022,0.0290909091 0.62084,0.540363636 0.62084,1.16654545 L0.62084,6.80509091 C0.62084,7.43127273 1.30356,7.94254545 2.13588,7.94254545 L67.4798,7.94254545 L67.4798,0.0290909091 L2.13588,0.0290909091 Z" id="Fill-125" fill="url(#linearGradient-61)" mask="url(#mask-60)"></path>
                </g>
                <polygon id="Fill-128" fill="url(#linearGradient-62)" points="726 280 794 280 794 272 726 272"></polygon>
                <g id="Group-132" transform="translate(798.000000, 272.000000)">
                    <mask id="mask-64" fill="white">
                        <use xlink:href="#path-63"></use>
                    </mask>
                    <g id="Clip-131"></g>
                    <polygon id="Fill-130" fill="url(#linearGradient-65)" mask="url(#mask-64)" points="0.0764411765 7.94254545 68.3857647 7.94254545 68.3857647 0.0290909091 0.0764411765 0.0290909091"></polygon>
                </g>
                <g id="Group-135" transform="translate(868.000000, 272.000000)">
                    <mask id="mask-67" fill="white">
                        <use xlink:href="#path-66"></use>
                    </mask>
                    <g id="Clip-134"></g>
                    <path d="M0.0277474747,0.0290909091 L0.0277474747,7.94254545 L64.7335051,7.94254545 C65.7412121,7.94254545 66.5695758,7.43127273 66.5695758,6.80581818 L66.5695758,1.16654545 C66.5695758,0.540363636 65.7425657,0.0290909091 64.7335051,0.0290909091 L0.0277474747,0.0290909091 Z" id="Fill-133" fill="url(#linearGradient-68)" mask="url(#mask-67)"></path>
                </g>
                <g id="Group-138" transform="translate(641.000000, 268.000000)">
                    <mask id="mask-70" fill="white">
                        <use xlink:href="#path-69"></use>
                    </mask>
                    <g id="Clip-137"></g>
                    <path d="M16.8616464,4.16344828 L16.8616464,5.37517241 L510.855837,5.37517241 L510.855837,13.4958621 L86.0815033,13.4958621 L86.0815033,14.7082759 L510.855837,14.7082759 L510.855837,19.8337931 L7.13369536,19.8337931 C4.61050596,19.8337931 0.339764238,18.14 0.339764238,15.3793103 C0.339764238,12.6055172 3.86532583,9.81517241 5.28394305,8.67586207 L10.802743,4.30896552 C13.7834636,1.92896552 18.4555603,0.483448276 22.8136119,0.483448276 L510.855837,0.483448276 L510.855837,4.16344828 L16.8616464,4.16344828 Z" id="Fill-136" mask="url(#mask-70)"></path>
                </g>
            </g>
        </g>
    </g>
</svg>