<?xml version="1.0" encoding="UTF-8"?>
<svg width="82px" height="87px" viewBox="0 0 82 87" version="1.1" xmlns="http://www.w3.org/2000/svg" xmlns:xlink="http://www.w3.org/1999/xlink">
    <!-- Generator: Sketch 51 (57462) - http://www.bohemiancoding.com/sketch -->
    <title>ll-dash-maintenance-graphic</title>
    <desc>Created with Sketch.</desc>
    <defs>
        <filter x="-9.5%" y="-6.3%" width="118.9%" height="117.7%" filterUnits="objectBoundingBox" id="filter-1">
            <feOffset dx="0" dy="2" in="SourceAlpha" result="shadowOffsetOuter1"></feOffset>
            <feGaussianBlur stdDeviation="2" in="shadowOffsetOuter1" result="shadowBlurOuter1"></feGaussianBlur>
            <feColorMatrix values="0 0 0 0 0.117647059   0 0 0 0 0.117647059   0 0 0 0 0.117647059  0 0 0 0.05 0" type="matrix" in="shadowBlurOuter1" result="shadowMatrixOuter1"></feColorMatrix>
            <feMerge>
                <feMergeNode in="shadowMatrixOuter1"></feMergeNode>
                <feMergeNode in="SourceGraphic"></feMergeNode>
            </feMerge>
        </filter>
        <path d="M26.5183333,1.30666667 C7.91842593,6.09907407 -3.27055556,25.06 1.5237963,43.6599074 C6.3162037,62.2578704 25.2764815,73.4481481 43.8757407,68.6550926 C62.475,63.8613889 73.6659259,44.900463 68.8728704,26.3025 C64.8290741,10.6140741 50.7052778,0.198333333 35.222963,0.197685185 C32.3497222,0.197685185 29.4298148,0.556111111 26.5183333,1.30666667 Z M15.5108333,40.0562037 C12.7082407,29.1828704 19.25,18.0956481 30.1239815,15.2930556 C40.9960185,12.4911111 52.0825926,19.0348148 54.884537,29.9075 C57.6871296,40.7808333 51.1440741,51.8641667 40.2707407,54.6667593 C38.5680556,55.1055556 36.8608333,55.3149074 35.1808333,55.3149074 C26.1300926,55.3149074 17.8739815,49.2268519 15.5108333,40.0562037 Z" id="path-2"></path>
        <path d="M26.5183333,1.30666667 C7.91842593,6.09907407 -3.27055556,25.06 1.5237963,43.6599074 C6.3162037,62.2578704 25.2764815,73.4481481 43.8757407,68.6550926 C62.475,63.8613889 73.6659259,44.900463 68.8728704,26.3025 C64.8290741,10.6140741 50.7052778,0.198333333 35.222963,0.197685185 C32.3497222,0.197685185 29.4298148,0.556111111 26.5183333,1.30666667 Z M15.5108333,40.0562037 C12.7082407,29.1828704 19.25,18.0956481 30.1239815,15.2930556 C40.9960185,12.4911111 52.0825926,19.0348148 54.884537,29.9075 C57.6871296,40.7808333 51.1440741,51.8641667 40.2707407,54.6667593 C38.5680556,55.1055556 36.8608333,55.3149074 35.1808333,55.3149074 C26.1300926,55.3149074 17.8739815,49.2268519 15.5108333,40.0562037 Z" id="path-4"></path>
        <path d="M26.5183333,1.30666667 C7.91842593,6.09907407 -3.27055556,25.06 1.5237963,43.6599074 C6.3162037,62.2578704 25.2764815,73.4481481 43.8757407,68.6550926 C62.475,63.8613889 73.6659259,44.900463 68.8728704,26.3025 C64.8290741,10.6140741 50.7052778,0.198333333 35.222963,0.197685185 C32.3497222,0.197685185 29.4298148,0.556111111 26.5183333,1.30666667 Z M15.5108333,40.0562037 C12.7082407,29.1828704 19.25,18.0956481 30.1239815,15.2930556 C40.9960185,12.4911111 52.0825926,19.0348148 54.884537,29.9075 C57.6871296,40.7808333 51.1440741,51.8641667 40.2707407,54.6667593 C38.5680556,55.1055556 36.8608333,55.3149074 35.1808333,55.3149074 C26.1300926,55.3149074 17.8739815,49.2268519 15.5108333,40.0562037 Z" id="path-6"></path>
        <path d="M26.5183333,1.30666667 C7.91842593,6.09907407 -3.27055556,25.06 1.5237963,43.6599074 C6.3162037,62.2578704 25.2764815,73.4481481 43.8757407,68.6550926 C62.475,63.8613889 73.6659259,44.900463 68.8728704,26.3025 C64.8290741,10.6140741 50.7052778,0.198333333 35.222963,0.197685185 C32.3497222,0.197685185 29.4298148,0.556111111 26.5183333,1.30666667 Z M15.5108333,40.0562037 C12.7082407,29.1828704 19.25,18.0956481 30.1239815,15.2930556 C40.9960185,12.4911111 52.0825926,19.0348148 54.884537,29.9075 C57.6871296,40.7808333 51.1440741,51.8641667 40.2707407,54.6667593 C38.5680556,55.1055556 36.8608333,55.3149074 35.1808333,55.3149074 C26.1300926,55.3149074 17.8739815,49.2268519 15.5108333,40.0562037 Z" id="path-8"></path>
        <path d="M24.0168081,1.18269388 C7.20420202,5.56016327 -2.94464646,22.9355102 1.3879596,39.9196735 C5.71991919,56.9005714 22.9197576,67.1555918 39.7304242,62.7781224 C56.5423838,58.4006531 66.6938182,41.0253061 62.3612121,24.0444082 C58.7041616,9.71232653 45.8860606,0.172408163 31.8700606,0.172408163 C29.2764444,0.173061224 26.6414545,0.499591837 24.0168081,1.18269388 Z M9.13777778,37.9010612 C5.90545455,25.2362449 13.4781414,12.2755918 26.0130909,9.01159184 C38.5525657,5.7482449 51.3803636,13.3955918 54.6120404,26.0610612 C57.8424242,38.7252245 50.2723232,51.6832653 37.7328485,54.9479184 C35.7747071,55.4573061 33.8107475,55.700898 31.8765253,55.700898 C21.4251313,55.7002449 11.8639192,48.587102 9.13777778,37.9010612 Z" id="path-10"></path>
        <path d="M24.0168081,1.18269388 C7.20420202,5.56016327 -2.94464646,22.9355102 1.3879596,39.9196735 C5.71991919,56.9005714 22.9197576,67.1555918 39.7304242,62.7781224 C56.5423838,58.4006531 66.6938182,41.0253061 62.3612121,24.0444082 C58.7041616,9.71232653 45.8860606,0.172408163 31.8700606,0.172408163 C29.2764444,0.173061224 26.6414545,0.499591837 24.0168081,1.18269388 Z M9.13777778,37.9010612 C5.90545455,25.2362449 13.4781414,12.2755918 26.0130909,9.01159184 C38.5525657,5.7482449 51.3803636,13.3955918 54.6120404,26.0610612 C57.8424242,38.7252245 50.2723232,51.6832653 37.7328485,54.9479184 C35.7747071,55.4573061 33.8107475,55.700898 31.8765253,55.700898 C21.4251313,55.7002449 11.8639192,48.587102 9.13777778,37.9010612 Z" id="path-12"></path>
        <path d="M24.0168081,1.18269388 C7.20420202,5.56016327 -2.94464646,22.9355102 1.3879596,39.9196735 C5.71991919,56.9005714 22.9197576,67.1555918 39.7304242,62.7781224 C56.5423838,58.4006531 66.6938182,41.0253061 62.3612121,24.0444082 C58.7041616,9.71232653 45.8860606,0.172408163 31.8700606,0.172408163 C29.2764444,0.173061224 26.6414545,0.499591837 24.0168081,1.18269388 Z M9.13777778,37.9010612 C5.90545455,25.2362449 13.4781414,12.2755918 26.0130909,9.01159184 C38.5525657,5.7482449 51.3803636,13.3955918 54.6120404,26.0610612 C57.8424242,38.7252245 50.2723232,51.6832653 37.7328485,54.9479184 C35.7747071,55.4573061 33.8107475,55.700898 31.8765253,55.700898 C21.4251313,55.7002449 11.8639192,48.587102 9.13777778,37.9010612 Z" id="path-14"></path>
        <path d="M24.0168081,1.18269388 C7.20420202,5.56016327 -2.94464646,22.9355102 1.3879596,39.9196735 C5.71991919,56.9005714 22.9197576,67.1555918 39.7304242,62.7781224 C56.5423838,58.4006531 66.6938182,41.0253061 62.3612121,24.0444082 C58.7041616,9.71232653 45.8860606,0.172408163 31.8700606,0.172408163 C29.2764444,0.173061224 26.6414545,0.499591837 24.0168081,1.18269388 Z M9.13777778,37.9010612 C5.90545455,25.2362449 13.4781414,12.2755918 26.0130909,9.01159184 C38.5525657,5.7482449 51.3803636,13.3955918 54.6120404,26.0610612 C57.8424242,38.7252245 50.2723232,51.6832653 37.7328485,54.9479184 C35.7747071,55.4573061 33.8107475,55.700898 31.8765253,55.700898 C21.4251313,55.7002449 11.8639192,48.587102 9.13777778,37.9010612 Z" id="path-16"></path>
    </defs>
    <g id="Symbols" stroke="none" stroke-width="1" fill="none" fill-rule="evenodd">
        <g id="ll-dash-maintenance-graphic" filter="url(#filter-1)" transform="translate(4.000000, 2.000000)">
            <g id="Group-15">
                <path d="M40.373686,1.40094322 C38.7677561,1.40094322 37.4292649,1.64956186 36.3952123,2.13962119 C31.7546333,4.33934153 16.7131596,7.99553644 14.2607737,8.37401102 C12.4276509,8.65851949 10.625686,11.0546551 8.90421228,15.496511 C7.64815965,18.7324686 6.00717719,21.7465619 4.55898421,24.405672 C2.92319474,27.4099771 1.51005439,30.0051381 1.13810702,32.0064856 C0.442896491,35.7586042 3.20166842,47.173528 3.2295807,47.2883754 C4.94910702,58.4116127 13.5408965,67.4108246 16.3652298,70.3681466 C18.6118439,72.723172 28.5271947,75.9989347 35.2118614,75.9989347 C37.0547211,75.9989347 38.4886333,75.7516212 39.4727035,75.264172 C44.4391421,72.80735 51.1238088,72.0875958 54.7147561,71.7012907 L55.4177561,71.6249432 C58.1122649,71.3234686 66.9383877,59.0204347 69.8386684,54.9772822 C70.3631596,54.2451297 70.7675632,53.6813331 71.0129316,53.3531042 C72.7077912,51.0829093 72.8311246,45.8540873 72.4643702,35.7064008 C72.0567211,24.3945788 66.3885807,20.1700195 64.661914,19.1448754 C62.5042298,17.8639347 59.0405105,13.51735 55.9844404,9.68170593 C54.1078263,7.32733305 52.3363702,5.1028161 51.5197737,4.46854492 C49.9475982,3.24763814 44.7007386,1.40094322 40.373686,1.40094322 M35.2118614,76.9281551 C28.1993877,76.9281551 18.1107211,73.5401551 15.6979316,71.0115534 C12.824914,68.002028 4.0805807,58.8435958 2.32470351,47.4697822 C2.2163,47.0319263 -0.501577193,35.7834008 0.229984211,31.836172 C0.628545614,29.6893076 2.07414211,27.0341127 3.74822982,23.9599856 C5.18279123,21.3250195 6.80949298,18.3389856 8.04282632,15.1584941 C9.91879123,10.3185873 11.9070544,7.79912119 14.1212123,7.4558839 C16.5482825,7.08132458 31.4242298,3.46885 36.0018439,1.29979915 C37.1592298,0.751011017 38.6301421,0.472375424 40.373686,0.472375424 C44.9597386,0.472375424 50.3727737,2.40390085 52.0838614,3.7337822 C52.9880895,4.4359178 54.7108614,6.59779068 56.7049667,9.10159576 C59.5630544,12.6873161 63.1189491,17.1513585 65.1312298,18.3448585 C66.961107,19.430689 72.9628965,23.889511 73.3874228,35.6724686 C73.7697561,46.2567059 73.6256509,51.4020025 71.7522825,53.911028 C71.5095105,54.2359941 71.1083526,54.7952229 70.5877561,55.52085 C64.6710018,63.7689856 58.2531246,72.2429008 55.5190193,72.5482907 L54.8134228,72.6246381 C51.2789491,73.0050703 44.7000895,73.7130788 39.8810018,76.0981212 C38.7677561,76.6482144 37.1968789,76.9281551 35.2118614,76.9281551" id="Fill-1" fill="#CDD5D7"></path>
                <polygon id="Fill-3" fill="#484F59" points="30.8701386 4.21313983 26.2607175 5.40663983 25.7855596 3.55211441 30.3956298 2.35796186"></polygon>
                <polygon id="Fill-5" fill="#484F59" points="48.6107298 73.4087983 44.0013088 74.6029508 43.5255018 72.7484254 48.1362211 71.5542729"></polygon>
                <polygon id="Fill-7" fill="#484F59" points="71.2869263 32.1191797 70.0990316 27.4854763 71.9418912 27.0078153 73.129786 31.6421712"></polygon>
                <polygon id="Fill-9" fill="#484F59" points="2.45264561 49.9535542 1.26475088 45.3191983 3.10890877 44.8415373 4.29745263 49.4758932"></polygon>
                <path d="M42.2786018,58.2998975 C31.3895667,61.1208381 20.2876193,54.5366856 17.4814614,43.5902873 C14.6746544,32.6432364 21.2262509,21.4808466 32.1165842,18.6592534 C43.0049702,15.8383127 54.1082158,22.4263805 56.9143737,33.3727788 C59.7211807,44.3204822 53.168286,55.4783042 42.2786018,58.2998975 M28.505514,4.57804153 C9.87828596,9.40359237 -1.32817018,28.4930669 3.47339123,47.2190754 C8.27300526,65.9424737 27.2617947,77.2092703 45.8890228,72.3830669 C64.5162509,67.5575161 75.7240053,48.467389 70.9237421,29.7433381 C66.1221807,11.0173297 47.132093,-0.248161864 28.505514,4.57804153" id="Fill-11" fill="#E5E8EC"></path>
                <path d="M31.3132298,15.5300517 C18.7260895,18.7914585 11.122914,31.7411619 14.3685281,44.3965686 C17.6128439,57.0500178 30.4933877,64.6906364 43.0811772,61.4298822 C55.6715632,58.1678229 63.2727912,45.2200771 60.0291246,32.5659754 C56.7841596,19.9105686 43.9036158,12.2686449 31.3132298,15.5300517 M45.0869667,69.2538653 C28.2071772,73.6272042 10.9366158,63.3803314 6.58619474,46.4129246 C2.23577368,29.4429076 12.4270018,12.0807127 29.3080895,7.70737373 C46.1885281,3.33403475 63.4590895,13.5809076 67.8108088,30.550272 C72.1612298,47.5176788 61.9680544,64.8798737 45.0869667,69.2538653" id="Fill-13" fill="#F7F8FC"></path>
            </g>
            <g id="Group-28" transform="translate(2.000000, 3.000000)">
                <g id="Group-18">
                    <mask id="mask-3" fill="white">
                        <use xlink:href="#path-2"></use>
                    </mask>
                    <g id="Clip-17"></g>
                    <polygon id="Fill-16" fill="#E67A61" mask="url(#mask-3)" points="35.3050833 35.4002963 18.8259167 14.3212222 2.34091667 -6.7597963 23.0628611 -12.100537 43.7854537 -17.4406296 39.5452685 8.98048148"></polygon>
                </g>
                <g id="Group-21">
                    <mask id="mask-5" fill="white">
                        <use xlink:href="#path-4"></use>
                    </mask>
                    <g id="Clip-20"></g>
                    <polygon id="Fill-19" fill="#E67A61" mask="url(#mask-5)" points="35.2816852 35.306963 51.7634444 56.386037 68.2458519 77.4657593 47.5239074 82.8071481 26.8013148 88.1478889 31.0421481 61.7267778"></polygon>
                </g>
                <g id="Group-24">
                    <mask id="mask-7" fill="white">
                        <use xlink:href="#path-6"></use>
                    </mask>
                    <g id="Clip-23"></g>
                    <polygon id="Fill-22" fill="#E67A61" mask="url(#mask-7)" points="35.340537 35.3404722 14.2627593 51.8222315 -6.81890741 68.305287 -12.1596481 47.5833426 -17.4997407 26.8620463 8.92266667 31.1022315"></polygon>
                </g>
                <g id="Group-27">
                    <mask id="mask-9" fill="white">
                        <use xlink:href="#path-8"></use>
                    </mask>
                    <g id="Clip-26"></g>
                    <polygon id="Fill-25" fill="#E67A61" mask="url(#mask-9)" points="35.2468796 35.3651667 56.32725 18.8847037 77.4063241 2.40359259 82.7457685 23.1235926 88.0871574 43.8448889 61.6673426 39.6053519"></polygon>
                </g>
            </g>
            <g id="Group-41" transform="translate(5.000000, 6.000000)">
                <g id="Group-31">
                    <mask id="mask-11" fill="white">
                        <use xlink:href="#path-10"></use>
                    </mask>
                    <g id="Clip-30"></g>
                    <polygon id="Fill-29" fill="#FF876C" mask="url(#mask-11)" points="31.9810586 32.4033306 15.5446949 11.1644735 -0.897486869 -10.0763429 19.7706343 -15.4575673 40.439402 -20.8381388 36.2102303 5.78324898"></polygon>
                </g>
                <g id="Group-34">
                    <mask id="mask-13" fill="white">
                        <use xlink:href="#path-12"></use>
                    </mask>
                    <g id="Clip-33"></g>
                    <polygon id="Fill-32" fill="#FF876C" mask="url(#mask-13)" points="31.9577212 32.3092898 48.3966707 53.5481469 64.8362667 74.7876571 44.1681455 80.1695347 23.4993778 85.5507592 27.729196 58.9293714"></polygon>
                </g>
                <g id="Group-37">
                    <mask id="mask-15" fill="white">
                        <use xlink:href="#path-14"></use>
                    </mask>
                    <g id="Clip-36"></g>
                    <polygon id="Fill-35" fill="#FF876C" mask="url(#mask-15)" points="32.0164202 32.3430531 10.9933899 48.9497469 -10.0335192 65.5577469 -15.3603879 44.6787265 -20.6866101 23.8003592 5.66716768 28.0726857"></polygon>
                </g>
                <g id="Group-40">
                    <mask id="mask-17" fill="white">
                        <use xlink:href="#path-16"></use>
                    </mask>
                    <g id="Clip-39"></g>
                    <polygon id="Fill-38" fill="#FF876C" mask="url(#mask-17)" points="31.9230061 32.3679347 52.9486222 15.7625469 73.9729455 -0.843493878 79.2985212 20.0335673 84.6260364 40.9119347 58.2748444 36.6402612"></polygon>
                </g>
            </g>
            <g id="Group-104" transform="translate(23.000000, 29.000000)">
                <path d="M12.1373914,29.7333632 C12.1373914,29.7333632 21.8874405,29.754173 25.6507656,29.8107497 C28.2545939,29.8497681 28.4926061,26.1378172 27.4644712,25.5785534 C24.3462503,23.8812528 14.617011,23.0091914 14.617011,23.0091914 L8.00013988,29.086308 C8.00013988,29.086308 8.37146503,29.0765534 12.1373914,29.7333632" id="Fill-42" fill="#3C463B"></path>
                <path d="M21.3305828,9.83742331 C21.3305828,9.83742331 23.836865,9.13574233 24.9280798,12.4093865 C26.6019693,17.4336564 26.455,22.0397791 26.2215399,23.0217423 C26.113589,23.4743558 25.7916871,25.035092 22.9914663,25.0955706 C21.856681,25.1196319 22.3105951,22.6855337 22.3105951,22.6855337 C22.3105951,22.6855337 21.5816012,20.6188589 20.8057853,17.1208589 C20.0299693,13.6248098 21.3305828,9.83742331 21.3305828,9.83742331" id="Fill-44" fill="#854638"></path>
                <path d="M23.3138883,10.1196564 L16.8843055,8.04062577 L12.0180601,7.71352147 L6.6868454,9.32693252 C6.6868454,9.32693252 4.94207239,10.5293497 6.5613362,14.3954233 C8.18125031,18.259546 7.55825644,24.3158528 7.55825644,24.3158528 L21.3141951,24.7561104 C21.3141951,24.7561104 21.5736675,19.1589202 22.4853975,13.5591288 C22.6882933,12.308589 22.7136552,10.8382454 23.3138883,10.1196564" id="Fill-46" fill="#AD5C49"></path>
                <path d="M13.8774822,24.4867534 L14.5778626,24.4867534 C15.3114086,19.0801031 15.2769423,13.5024221 14.470562,8.1165816 C14.2592123,8.2427411 14.0478626,8.36825031 13.8365129,8.49440982 C14.012746,14.0031583 13.7103534,19.5119067 13.8774822,24.4867534" id="Fill-48" fill="#854638"></path>
                <path d="M16.6101362,9.55512515 C16.5151914,10.2990761 15.9078049,10.9435301 15.269854,10.9734442 L13.4528969,10.9734442 C12.8136454,10.9435301 12.2069092,10.2990761 12.1119644,9.55512515 C11.9636945,8.32929693 11.8147742,7.10346871 11.665854,5.87699018 C11.5657067,5.14279387 12.0027129,3.66659755 12.9703693,3.23089202 C13.8547865,2.8433092 14.8679644,2.8433092 15.7530319,3.23089202 C16.7187374,3.66659755 17.1563939,5.14279387 17.0568969,5.87699018 C16.9079767,7.10346871 16.7590564,8.32929693 16.6101362,9.55512515" id="Fill-50" fill="#EDEEF0"></path>
                <polygon id="Fill-52" fill="#854638" points="14.2889963 11.0655926 13.1347018 12.9579853 11.0212049 10.3131877 11.352211 8.92348221 12.038935 8.35966626 12.0486896 9.40666012"></polygon>
                <polygon id="Fill-54" fill="#854638" points="14.4293325 11.0655926 15.5829767 12.9579853 17.5501546 10.4946233 17.2269521 8.98526135 16.7340196 8.34861104 16.5337252 9.58484417"></polygon>
                <path d="M14.0857755,0.897916564 C13.5765853,0.897916564 13.1291742,1.15933988 12.8697018,1.55537669 L12.3709166,1.55537669 C11.748573,1.55537669 11.243935,2.05936442 11.243935,2.68235828 L11.243935,5.46502086 L12.0373092,5.46502086 L12.0373092,4.33413742 C12.0373092,3.89648098 12.3923767,3.54076319 12.8293828,3.54076319 L13.2924012,3.54076319 L12.5588552,3.54076319 L13.0433337,3.54076319 C13.8471129,3.54076319 14.4974196,2.89045644 14.4974196,2.08732761 L14.4974196,0.897916564 L14.0857755,0.897916564 Z" id="Fill-56" fill="#163F59"></path>
                <path d="M12.6809828,6.502 C12.6809828,6.88307975 12.3720871,7.19197546 11.9910074,7.19197546 L11.9344307,7.19197546 C11.5533509,7.19197546 11.2438049,6.88307975 11.2438049,6.502 L11.2438049,5.66440491 C11.2438049,5.28332515 11.5533509,4.97442945 11.9344307,4.97442945 L11.9910074,4.97442945 C12.2732405,4.97442945 12.5158049,5.14415951 12.6224552,5.38542331" id="Fill-58" fill="#E4EEF3"></path>
                <path d="M13.4690896,2.00389325 L13.4690896,0.897721472 L13.9256049,0.897721472 L15.1293227,0.897721472 L15.8563656,0.897721472 C16.6594945,0.897721472 17.3104515,1.54932883 17.3104515,2.35180736 L17.3104515,3.45732883 L16.8526356,3.45732883 L15.6502184,3.45732883 L14.9218748,3.45732883 C14.1200466,3.45732883 13.4690896,2.80572147 13.4690896,2.00389325" id="Fill-60" fill="#163F59"></path>
                <path d="M17.1054748,7.55972393 C17.1028736,8.13784663 16.6613153,9.11720859 15.9290699,9.42610429 C14.9341006,9.83709816 13.7563951,9.83644785 12.7607755,9.42610429 C12.0278798,9.11720859 11.5889227,8.13849693 11.5850209,7.55972393 L11.5850209,2.63625153 C11.581119,2.0548773 12.1611926,1.56584663 12.8778307,1.55219018 L15.812665,1.55219018 C16.5286528,1.56519632 17.110027,2.05422699 17.1054748,2.63625153 L17.1054748,7.55972393 Z" id="Fill-62" fill="#FFFFFF"></path>
                <path d="M14.9101043,0.897916564 C15.4192945,0.897916564 15.8673558,1.15933988 16.1261779,1.55537669 L16.6262638,1.55537669 C17.2479571,1.55537669 17.7525951,2.05936442 17.7525951,2.68235828 L17.7525951,5.46502086 L16.9598712,5.46502086 L16.9598712,4.33413742 C16.9598712,3.89648098 16.6035031,3.54076319 16.1664969,3.54076319 L16.1580429,3.54076319 L16.4376748,3.54076319 L15.1539693,3.54076319 C14.3508405,3.54076319 13.7005337,2.89045644 13.7005337,2.08732761 L13.7005337,0.897916564 L14.9101043,0.897916564 Z" id="Fill-64" fill="#163F59"></path>
                <path d="M16.3262773,5.6637546 C16.3262773,5.28332515 16.6358233,4.97442945 17.0162528,4.97442945 L17.0728294,4.97442945 C17.4539092,4.97442945 17.7628049,5.28332515 17.7628049,5.6637546 L17.7628049,6.502 C17.7628049,6.88242945 17.4539092,7.19197546 17.0728294,7.19197546 L17.0162528,7.19197546 C16.7340196,7.19197546 16.4921055,7.02289571 16.3841546,6.7809816" id="Fill-66" fill="#FFFFFF"></path>
                <path d="M13.699038,2.28963804 C13.7172466,2.19664417 13.7276515,2.10104908 13.7276515,2.00415337 L13.7276515,0.897981595 L13.2711362,0.897981595 L12.6988663,0.897981595 C11.8944368,0.897981595 11.2441301,1.54893865 11.2441301,2.35206748 L11.2441301,3.45693865 L11.5465227,3.45693865 L11.701946,3.45693865 L12.274216,3.45693865 C12.3763141,3.45693865 12.475811,3.44653374 12.5733571,3.42637423 C12.6858601,2.85735583 13.1313202,2.40734356 13.699038,2.28963804" id="Fill-68" fill="#163F59"></path>
                <path d="M0.933581595,48.3757067 C0.784011043,48.5571423 0.893262577,49.0357681 0.893262577,49.0357681 C0.893262577,49.0357681 3.51790061,49.3284061 4.36264908,49.1294123 C4.58180245,49.0786883 4.9524773,48.8894491 5.30169202,48.6891546 C5.36152025,48.655989 5.46491902,48.4543939 5.52214601,48.4205779 C5.62814601,48.3574982 5.68342209,48.4621975 5.77316442,48.4056209 C6.00662454,48.2580012 6.17180245,48.1435472 6.17440368,48.1292405 C6.40396196,46.9248724 6.09766748,46.4397436 6.09766748,46.4397436 C6.09766748,46.4397436 3.86256319,45.6964429 3.44311534,46.2147374 C2.45855092,47.4347129 1.26263681,47.9770687 0.933581595,48.3757067" id="Fill-70" fill="#161711"></path>
                <path d="M25.4636074,47.066184 L25.6450429,49.048319 L27.6310798,49.2427607 C27.6310798,49.2427607 27.7676442,48.9787362 27.934773,48.9943436 C28.0771902,49.008 28.2326135,49.3019387 28.4257546,49.3207975 C28.8426012,49.3611166 29.3049693,49.4072883 29.4909571,49.4248466 C29.8635828,49.4619141 33.4740859,49.8150307 33.4740859,49.8150307 C33.4740859,49.8150307 33.6041472,49.4137914 33.5079018,49.2629202 C33.4591288,49.1848834 33.1391779,49.0262086 32.9245767,48.942319 C31.9263558,48.5540859 29.0806135,47.3672761 28.6657178,46.3371902 C28.1617301,45.0853497 25.4636074,47.066184 25.4636074,47.066184" id="Fill-72" fill="#161711"></path>
                <path d="M22.4616613,21.9661644 L15.751146,24.7072074 C15.751146,24.7072074 20.5113914,25.3867779 23.4871951,24.7793914 C25.5005448,24.3690479 22.5540049,21.8790233 22.4616613,21.9661644" id="Fill-74" fill="#FFFFFF"></path>
                <path d="M7.22835583,26.1420442 C7.22835583,26.1420442 6.58260123,32.2698847 6.67429448,35.5103632 C6.7438773,37.9535656 6.75168098,42.6370748 6.16900613,46.629308 C6.13323926,46.873173 3.01176687,46.6891362 3.01176687,46.6891362 C3.01176687,46.6891362 1.89128834,31.4966699 1.5589816,28.9949399 C1.22667485,26.4919092 2.19433129,24.6866577 7.22835583,26.1420442" id="Fill-76" fill="#3C463B"></path>
                <path d="M26.862027,27.6195411 C26.862027,27.6195411 25.8560025,29.2075902 23.0961006,29.5834675 C22.0991804,29.7193816 24.7049595,47.3680564 24.7049595,47.3680564 L28.7810822,46.0628908 L27.9929104,26.5458847 L26.862027,27.6195411 Z" id="Fill-78" fill="#323B31"></path>
                <path d="M15.6156221,29.5834675 C15.6156221,29.5834675 10.2863583,30.3449767 6.72853006,30.7169521 C5.42401472,30.8541669 4.29508221,27.2026945 4.14356074,27.0446699 C3.19216196,26.0464491 2.2518184,26.1732589 2.28498405,26.137492 C3.05559755,25.3037988 7.04587975,24.530584 11.2169472,23.553173 C15.3873644,22.5751117 16.0227141,23.1903018 16.0227141,23.1903018 L15.6156221,29.5834675 Z" id="Fill-80" fill="#323B31"></path>
                <path d="M11.2171423,23.5529129 C7.04607485,24.5309742 3.05514233,25.3035387 2.28517914,26.1378822 C2.2520135,26.1729988 3.19170675,26.046189 4.14375583,27.0444098 C4.18537546,27.0879804 4.42533865,28.2578822 4.59701963,28.6766798 C3.91679877,27.4528025 13.7188724,23.9970724 15.8369215,23.1029006 C15.441535,22.9760908 14.2891914,22.8330233 11.2171423,23.5529129" id="Fill-82" fill="#3C463B"></path>
                <polygon id="Fill-84" fill="#323B31" points="6.63774724 29.5387264 6.2293546 41.4634012 5.82096196 44.2291558 5.7760908 41.4634012 5.86648344 39.7407387 4.91508466 37.0647264 4.41564908 30.8529963 5.14139141 31.1248245 5.05034847 28.4045914"></polygon>
                <path d="M26.7235767,26.1376221 L27.7217975,26.4101006 L28.0846687,40.7389595 L25.999135,45.8620761 L26.9960552,42.3699288 L26.5876626,35.1612785 C26.5876626,35.1612785 25.1374785,38.6521252 25.1374785,38.4706896 C25.1374785,38.289254 26.3613558,30.8985178 26.3613558,30.8985178 C26.3613558,30.8985178 25.0022147,32.0326528 25.1374785,31.9871313 C25.2733926,31.9409595 25.9536135,26.8178429 26.7235767,26.1376221" id="Fill-86" fill="#3C463B"></path>
                <path d="M9.63266994,9.38552515 C9.63266994,9.38552515 7.49055951,7.70708344 5.39397055,10.8220528 C2.32322209,15.3872061 0.990093252,20.2436969 0.501062577,21.6490098 C0.127786503,22.7265681 0.333283436,25.7732552 1.58967607,27.0289975 C1.8914184,27.3320405 3.70512393,27.0901264 3.70512393,27.0901264 L4.89583558,26.2655374 L4.39705031,25.3082859 L4.37038773,24.5506785 C4.37038773,24.5506785 5.89340613,20.8783963 7.76303804,17.4064086 C9.63266994,13.9350712 9.63266994,9.38552515 9.63266994,9.38552515" id="Fill-88" fill="#AD5C49"></path>
                <path d="M4.39594479,23.3429939 L11.3516258,23.7065153 C11.3516258,23.7065153 4.65216564,26.779865 4.43041104,26.249865 C3.17531902,23.2480491 4.39594479,23.3429939 4.39594479,23.3429939" id="Fill-90" fill="#FFFFFF"></path>
                <path d="M8.22221963,23.1293031 C8.62866135,22.9348613 8.59224417,22.9303092 8.59224417,22.9303092 C8.59224417,22.9303092 8.96421963,23.3725178 9.50202331,23.4544564 C9.76864908,23.4954258 10.6316061,23.506481 10.6316061,23.506481 L11.9127104,23.538346 L12.5070908,23.5045301 C12.5070908,23.5045301 12.8419988,23.4603092 12.9317411,23.5175362 C13.1905632,23.6840147 12.9688086,23.8166773 12.9688086,23.8166773 L10.6732258,24.142481 L12.8797166,24.4156098 C12.8797166,24.4156098 13.1560969,24.4975485 13.1684528,24.6477693 C13.1814589,24.7882356 13.088465,24.7836834 13.088465,24.7836834 L10.5256061,25.0568123 L11.6499865,25.3247387 C11.6499865,25.3247387 11.9192135,25.4118798 11.939373,25.5575485 C11.9614834,25.7168736 11.9725387,25.7591436 11.9725387,25.7591436 L9.6164773,25.5282847 C9.6164773,25.5282847 7.81642822,23.3250454 8.22221963,23.1293031" id="Fill-92" fill="#FFFFFF"></path>
                <path d="M10.7662847,24.5486626 L12.3088123,24.8302454 C12.3088123,24.8302454 12.6606282,24.8549571 12.8167018,24.9681104 C12.9968368,25.0968712 12.8908368,25.255546 12.8908368,25.255546 L10.5256712,25.0572025 L10.7662847,24.5486626 Z" id="Fill-94" fill="#FFFFFF"></path>
                <path d="M20.436411,25.7610294 C20.438362,25.7564773 20.4416135,25.7519252 20.4442147,25.747373 L20.436411,25.3090663 L6.73314724,25.3090663 L6.73314724,25.747373 C6.73314724,25.747373 6.72989571,25.7564773 6.73314724,25.7610294 L6.77931902,25.8429681 C7.01277914,26.2240479 7.43157669,26.2916798 7.91085276,26.2916798 L19.2580552,26.2916798 C19.7373313,26.2916798 20.1561288,26.2240479 20.3902393,25.8429681 L20.436411,25.7610294 Z" id="Fill-96" fill="#B6C2C9"></path>
                <polygon id="Fill-98" fill="#879BA6" points="9.05116564 25.719865 18.1248957 25.719865 18.1248957 25.410319 9.05116564 25.410319"></polygon>
                <path d="M20.4275018,25.3561485 L20.4652196,16.3721607 C20.4658699,16.1347988 20.2746798,15.9436086 20.0373178,15.9436086 L7.21131779,15.9436086 C6.97395583,15.9436086 6.78146503,16.1347988 6.78081472,16.3721607 L6.74309693,25.3561485 L20.4275018,25.3561485 Z" id="Fill-100" fill="#E4EEF3"></path>
                <path d="M14.4350552,20.6496834 C14.4337546,21.1081497 14.0598282,21.4801252 13.601362,21.4801252 C13.1428957,21.4801252 12.7722209,21.1081497 12.7741718,20.6496834 C12.7761227,20.1912172 13.1487485,19.8192417 13.6085153,19.8192417 C14.0669816,19.8192417 14.4376564,20.1912172 14.4350552,20.6496834" id="Fill-101" fill="#B6C2C9"></path>
                <polygon id="Fill-102" fill="#854638" points="3.4928638 26.8174528 3.01618896 23.7681644 3.80696196 22.9539804 5.5647411 23.2336123 5.20512147 26.6106552"></polygon>
                <polygon id="Fill-103" fill="#AD5C49" points="24.818373 24.6293656 25.0017595 23.5075865 22.7783607 21.5130957 21.5778945 22.0554515 23.1490356 25.0637706"></polygon>
            </g>
        </g>
    </g>
</svg>