<?xml version="1.0" encoding="UTF-8"?>
<svg width="76px" height="88px" viewBox="0 0 76 88" version="1.1" xmlns="http://www.w3.org/2000/svg" xmlns:xlink="http://www.w3.org/1999/xlink">
    <!-- Generator: Sketch 51 (57462) - http://www.bohemiancoding.com/sketch -->
    <title>ll-dash-notices-graphic</title>
    <desc>Created with Sketch.</desc>
    <defs>
        <polygon id="path-1" points="0.354666667 0.198267568 75.8184444 0.198267568 75.8184444 39 0.354666667 39"></polygon>
    </defs>
    <g id="Symbols" stroke="none" stroke-width="1" fill="none" fill-rule="evenodd">
        <g id="ll-dash-notices-graphic">
            <path d="M0,73.7240776 L26.5090733,54 C26.5090733,54 38.9219104,57.5372707 43.2574771,58.2581661 C55.3998992,60.2759383 75,63.7186998 75,63.7186998 L51.1173654,87 C51.1173654,87 23.2394144,78.7183657 17.574351,77.0607787 C8.3020037,74.3415379 0,73.7240776 0,73.7240776" id="Fill-1" fill="#163F59"></path>
            <g id="Group-5" transform="translate(0.000000, 49.000000)">
                <mask id="mask-2" fill="white">
                    <use xlink:href="#path-1"></use>
                </mask>
                <g id="Clip-4"></g>
                <path d="M0.354666667,23.294173 L30.0221111,0.198267568 C30.0221111,0.198267568 41.8274444,6.25802432 46.0908333,7.89338919 C58.0365556,12.4753622 75.8184444,12.0057811 75.8184444,12.0057811 L47.8741944,39.0001054 C47.8741944,39.0001054 22.9050278,33.1200649 17.5296111,30.3115378 C8.73208333,25.7127 0.354666667,23.294173 0.354666667,23.294173" id="Fill-3" fill="#E4EEF3" mask="url(#mask-2)"></path>
            </g>
            <path d="M34,22.7370643 C34.2756377,22.2397295 34.6657865,21.8071923 35.1608196,21.4931735 C36.7128015,20.5040423 38.6883736,21.0495598 39.5740622,22.7110345 C40.4597509,24.3725092 39.9196227,26.5196884 38.3671341,27.5082658 C36.8485936,28.4752441 34.9267303,27.9707096 34.0152006,26.3928625 C34.5051668,25.2564138 34.5305012,23.9150498 34,22.7370643" id="Fill-6" fill="#282723"></path>
            <path d="M35.7488882,26.0963766 C35.4622261,25.8205641 34.5472706,26.1817224 34.1357719,26.6120941 C32.0567013,28.7873704 29,32.7606322 29,32.7606322 C29,32.7606322 29.8543352,34.368151 30.2735399,33.9216469 C31.122224,33.0187511 33.074403,32.2558432 35.3245461,28.7191978 C35.9744162,27.698171 36.2343642,26.5616152 35.7488882,26.0963766" id="Fill-8" fill="#975140"></path>
            <path d="M27.2493343,42 C27.2493343,42 26.8836615,42.5790859 27.0379982,42.8738933 C27.1476124,43.0796841 27.9543725,44 27.9543725,44 C27.9543725,44 28.1253706,43.6329265 27.8052973,43.262503 C27.3343949,42.7212252 27.2493343,42 27.2493343,42" id="Fill-10" fill="#E2C59C"></path>
            <path d="M27.5897682,43.5657167 C27.3721741,43.9864356 27.5064755,44.5098816 27.8306066,45.0916164 C28.1360131,45.6444954 27.9352067,46 27.9352067,46 C27.9352067,46 27.6937226,45.6635403 27.3192284,44.7591965 C27.213337,44.506996 27.1203591,44.2449844 27.0364208,43.988167 C26.7613613,43.1392265 28.1528007,42.4836206 27.5897682,43.5657167" id="Fill-12" fill="#E2C59C"></path>
            <path d="M28.7696983,38.1629666 C28.3051757,39.1955677 27.7501282,40.3685119 27.7232293,41.031363 C27.6828811,41.9743605 28.059465,42.4790558 27.7951321,43.0738945 C27.7666813,43.1386682 27.7527146,43.2088398 27.7304713,43.2768522 C27.6756391,43.4603777 27.5814931,43.6546989 27.5685609,43.7329672 C27.5520078,43.8231106 27.5359719,44.0800464 27.5033829,43.9753289 C27.2059437,43.0409679 26.9607502,41.9668036 27.0052368,41.7330784 C27.0952445,41.2532131 27.7046071,38.62286 28.1241257,37.6944366 C28.5969249,36.6478012 29.3961312,36.7687122 28.7696983,38.1629666" id="Fill-14" fill="#FFFFFF"></path>
            <path d="M27.887086,43.0337539 C27.887086,43.0337539 27.490086,42.9199593 27.334086,43.1102491 C27.078086,43.4231843 27.007086,44.1331362 27.000086,44.385381 C26.994086,44.6667065 27.304086,46 27.304086,46 C27.304086,46 27.719086,45.5745346 27.597086,45.0371712 C27.418086,44.2545172 27.887086,43.0337539 27.887086,43.0337539" id="Fill-16" fill="#FFFFFF"></path>
            <path d="M28.5996393,35.9379298 C29.3660956,35.5790131 30.6429216,33.7751205 31,34.0233626 C30.6206793,36.1654851 27,41 27,41 L28.5996393,35.9379298 Z" id="Fill-18" fill="#FFFFFF"></path>
            <path d="M29.0184784,38.9777507 C28.2567232,39.0874749 27.6493934,38.7697662 27,38.4973664 C27.3140367,36.9126442 28.3564082,33.4369547 29.4229807,32.0858739 C30.3040122,30.9695263 30.8514157,30.4170844 30.9943169,31.9051839 C31.0617339,32.6132048 30.5143304,34.7290792 30.1484344,35.9567886 C29.8142302,37.0758657 29.5866256,38.283923 29.0184784,38.9777507" id="Fill-20" fill="#975140"></path>
            <path d="M38.0189231,20.31379 C38.2287513,20.1867669 38.4442506,20.0845026 38.6638742,20 C38.7422375,20.2292874 38.8391606,20.4553453 38.9608301,20.673868 C39.9362477,22.4220497 41.9819438,23.1190618 43.7734745,22.4258173 C44.4039902,24.261731 43.6899557,26.3807554 41.984006,27.4179309 C40.0651348,28.5853588 37.6214353,27.9416318 36.5264105,25.9797716 C35.4313856,24.0184496 36.1000519,21.4812179 38.0189231,20.31379" id="Fill-22" fill="#282723"></path>
            <path d="M41,24.9696548 C41,24.9696548 40.1431145,27.8674862 38.5302187,28.555747 C36.917323,29.2455591 36.0332788,29.0635397 35.6508396,28.4776648 C35.2684004,27.8928241 34.9258679,26.6641932 35.2423502,26.2737823 C35.5588325,25.8828543 35.8675551,25.4934776 36.0759568,24.8403796 C36.2455602,24.3088003 35.9678761,23.4493792 35.6236808,22.8092087 C35.2794856,22.1705896 34.689199,22.2367785 35.1991179,21.8091363 C35.7095911,21.3809771 35.3969886,21.1115677 35.9978061,21.0888153 C36.5986237,21.06658 36.8923813,20.7987219 37.0076673,21.3173737 C37.218286,22.265219 37.4322303,23.6117488 38.1344773,24.1123021 C38.9137665,24.6676681 39.5755526,24.7535068 41,24.9696548" id="Fill-24" fill="#FFFFFF"></path>
            <path d="M35.5656452,29.6959804 C35.5267353,28.3442156 34.6498917,27.4720028 35.1579129,26.1856814 C35.2680664,25.9079592 35.5026221,25.8579142 35.5387919,25.6126387 C36.3800136,28.6494351 39.6605045,26.2478252 39.2138623,25 C39.9630155,25.5147485 41.7621888,25.7743226 41.7945224,25.9019098 C42.1370394,27.3015198 42.3622786,28.7280772 42.693287,30.1309869 C42.8374182,30.7282272 42.6587613,31.3485651 42.3869398,31.8182182 C42.4379064,31.919958 42.4812005,32.0310469 42.510794,32.1536846 L42.7234285,32.8240676 C42.8587912,33.3855614 44.2913344,35.0947905 43.9466253,35.1948805 L39.1311102,36 C38.8527124,35.7772723 38.5195118,35.3076192 37.9764169,34.4442056 C37.6481486,33.9223078 36.6205976,32.3846615 36.6205976,32.3846615 C36.609089,32.3357164 36.6025127,32.2878712 36.5948403,32.2394761 C36.1191527,31.8292171 35.581538,30.3790121 35.5656452,29.6959804" id="Fill-26" fill="#DBDAC6"></path>
            <path d="M38.3170999,25.2222528 C38.3170999,25.2222528 40.3174564,24.6140962 41.0392402,25.4097901 C41.9955486,26.4648213 42.0954285,27.778654 42.1522662,28.6574002 C42.2184849,29.6786747 42.5562003,30.9507134 42.6031052,32.2763341 C42.6604947,33.8864757 44.2828528,34.989195 43.9567257,34.7936204 C43.890507,34.7545055 41.932089,35.1638726 40.797542,34.9243607 C39.6613395,34.6837771 39.8920013,32.8175132 39.8467519,32.2340043 C39.7441129,30.915885 38.0406369,28.637039 38.0031129,27.5734346 C37.9633817,26.4439243 38.3170999,25.2222528 38.3170999,25.2222528" id="Fill-28" fill="#AD5C49"></path>
            <path d="M35.0042829,28.495287 C34.9753658,28.1112223 35.0956814,27.6580259 35.280544,27.0972914 C35.4318421,26.6389742 36.2632074,25.9241017 36.1196549,26.0065476 C36.0995163,26.0188377 35.1927601,26.7731408 36.3143287,30.1662246 C36.5064205,30.7459063 37.3269419,32.0117837 37.8040733,32.8597986 C38.281721,33.7088377 39,35.3321512 39,35.3321512 C39,35.3321512 38.0927274,35.8309233 38.0927274,35.9881338 C38.0932438,36.1463685 37.9600188,34.6905071 37.2448381,33.5050273 C35.5273717,30.6557791 35.1313113,30.1969498 35.0042829,28.495287" id="Fill-30" fill="#AD5C49"></path>
            <path d="M34.3191631,0.340028566 L34,2.42977204 L37.6752612,3 L37.9955099,0.910256529 C38.0286204,0.689593601 37.8750096,0.484224143 37.6535494,0.45036003 L34.7832524,0.00521080662 C34.5607067,-0.0302918922 34.3528164,0.119365638 34.3191631,0.340028566" id="Fill-32" fill="#FF876C"></path>
            <path d="M35.3342637,0.13665031 L35,1.80327361 L36.6626437,2 L36.9974856,0.333376695 C37.0154133,0.245005249 36.9356064,0.162406811 36.817631,0.149084483 L35.5771542,0.00165071332 C35.4603354,-0.01078346 35.351613,0.0482788633 35.3342637,0.13665031" id="Fill-34" fill="#FFA38F"></path>
            <path d="M37,2.84743643 L37.7255975,3 L37.9962059,0.607753231 C38.0241841,0.355773239 37.8943838,0.120675281 37.7072512,0.0812838683 L37.3219782,0 L37,2.84743643 Z" id="Fill-36" fill="#E36E54"></path>
            <path d="M33.1278047,9 L24,66 C24.4679938,66.0026308 24.8787945,65.7238971 25.0030796,65.3142752 L34,9.12982843 L33.1278047,9 Z" id="Fill-38" fill="#C9C8B6"></path>
            <path d="M36,9.30638918 L33.938629,9 L25.0003756,65.0089995 C24.9992829,65.012169 25.000922,65.0158668 25.000922,65.0195646 C25.000922,65.0158668 25.0042001,65.0116408 25.0036537,65.0089995 C24.9910877,65.4823179 25.3702532,65.9070367 25.8991181,65.9873318 C26.4274366,66.0660422 26.9202425,65.7702181 27.0568295,65.3153887 C27.0568295,65.3175017 27.0562832,65.3233125 27.0579222,65.324369 C27.0579222,65.3238408 27.0601076,65.3190865 27.0612003,65.3164452 L36,9.30638918 Z" id="Fill-40" fill="#DBDAC6"></path>
            <path d="M27.0001697,66.0578425 C26.9921457,66.4834524 27.2694725,66.8683517 27.675182,67 L36,10.1300621 L35.2051303,10 L27.0001697,66.0578425 Z" id="Fill-42" fill="#C9C8B6"></path>
            <path d="M28,66.1759731 C27.5320863,66.0526054 27.2126619,65.6894665 27.2218705,65.2895162 C27.2207194,65.2920035 27.2189928,65.2959831 27.2189928,65.296978 C27.2172662,65.2954856 27.2178417,65.2905111 27.2178417,65.2885213 C27.0739568,65.7168263 26.5548201,65.9953986 25.9982734,65.9212784 C25.4411511,65.845666 25.0411511,65.4457157 25.054964,65 C25.054964,65.0024873 25.0515108,65.0064669 25.0515108,65.009949 C25.0515108,65.0064669 25.0503597,65.0029847 25.0509353,65 C24.9202878,65.3850267 24.4897842,65.6476806 24,65.6441985 L24.7361151,73 L28,66.1759731 Z" id="Fill-44" fill="#FFFFFF"></path>
            <path d="M28,65.9206554 C27.5699171,65.7926719 27.2763181,65.4159463 27.2847822,65.0010321 C27.2837242,65.0036124 27.2821372,65.0077409 27.2821372,65.0087731 C27.2805502,65.0072249 27.2810792,65.0020642 27.2810792,65 C27.1488274,65.4443298 25,73 25,73 L28,65.9206554 Z" id="Fill-46" fill="#D1DBEA"></path>
            <polygon id="Fill-48" fill="#F0CA67" points="33 8.47658461 36.8655037 9 38 2.52391058 34.1333708 2"></polygon>
            <polygon id="Fill-50" fill="#F4DA80" points="34 8.88678252 34.8203628 9 36 2.11479726 35.1784669 2"></polygon>
            <path d="M26,71.1379619 C25.8490926,71.0928981 25.69532,71.056847 25.534384,71.0329632 C25.3548233,71.0072768 25.1766953,70.9991653 25,71.0000666 L25.1833811,73 L26,71.1379619 Z" id="Fill-52" fill="#C9C8B6"></path>
            <polygon id="Fill-54" fill="#F4DA80" points="33.73 7.03483607 33.443 8 33 7.96516393 33.289 7"></polygon>
            <polygon id="Fill-56" fill="#F4DA80" points="34.732 8.03483607 34.442 9 34 8.96516393 34.29 8"></polygon>
            <polygon id="Fill-58" fill="#F0CA67" points="34.733 8.03584229 34.444 9 34 8.96466974 34.289 8"></polygon>
            <polygon id="Fill-60" fill="#F0CA67" points="35.733 8.03483607 35.443 9 35 8.96516393 35.29 8"></polygon>
            <polygon id="Fill-62" fill="#F4DA80" points="35.732 8.03485392 35.441 9 35 8.96412096 35.291 8"></polygon>
            <polygon id="Fill-64" fill="#F4DA80" points="36.733 8.03586066 36.442 9 36 8.96465164 36.291 8"></polygon>
            <polygon id="Fill-66" fill="#F4DA80" points="36.731 8.03483607 36.441 9 36 8.96465164 36.29 8"></polygon>
            <polygon id="Fill-68" fill="#F4DA80" points="34.731 3.03533026 34.441 4 34 3.96415771 34.29 3"></polygon>
            <polygon id="Fill-70" fill="#F4DA80" points="34.733 3.03487179 34.442 4 34 3.96564103 34.291 3"></polygon>
            <polygon id="Fill-72" fill="#F0CA67" points="35.734 3.03534836 35.442 4 35 3.96465164 35.289 3"></polygon>
            <polygon id="Fill-74" fill="#F0CA67" points="35.733 3.03487179 35.442 4 35 3.96615385 35.29 3"></polygon>
            <polygon id="Fill-76" fill="#F4DA80" points="36.732 4.03586066 36.441 5 36 4.96567623 36.29 4"></polygon>
            <polygon id="Fill-78" fill="#F4DA80" points="37.733 4.03434136 37.442 5 37 4.96514608 37.289 4"></polygon>
            <polygon id="Fill-80" fill="#F4DA80" points="37.732 4.03483607 37.441 5 37 4.96465164 37.29 4"></polygon>
            <path d="M40.8793962,25.7984425 C40.7609006,25.418803 40.4735366,25.1426075 39.9074441,25.0143369 C38.4101772,24.6740062 38,30.505662 38,30.505662 C38,30.505662 38.2676946,33.21124 38.6582025,32.9867665 C40.1338811,32.1395601 40.0057907,31.9192244 40.7258796,29.0036551 C41.0329128,27.7597409 41.0789678,26.441347 40.8793962,25.7984425" id="Fill-82" fill="#975140"></path>
            <path d="M34.5537818,28.7960057 C34.5537818,28.7960057 33.1358061,27.7519579 33.0334552,27.6198391 C32.9311042,27.4877204 32.9687251,27.3700521 32.8824184,27.0201439 C32.7983246,26.6697195 32.765683,26.608821 32.681036,26.3368422 C32.5969422,26.062799 32.5792383,26.033898 32.5792383,26.033898 C32.5792383,26.033898 32.422669,26.0984091 32.4276482,26.2129809 C32.4326274,26.3146504 32.505103,26.5453421 32.5056562,26.632045 C32.5056562,26.719264 32.4414794,26.4395439 32.2257125,26.0679599 C32.0116054,25.6958598 31.7482592,25.3557572 31.625438,25.2158972 C31.54743,25.1271299 31.5347053,25.1168081 31.5291728,25.1188725 C31.478274,25.1400321 31.4334609,25.16274 31.4461856,25.2128006 C31.4572505,25.2566682 31.538578,25.3996248 31.5269598,25.3939478 C31.4827,25.3712399 31.2929358,25.1756422 31.2636136,25.1405482 C31.2331849,25.1028737 31.1927978,25.0512648 31.1634756,25.0218478 C31.1026183,24.9609493 31.0268233,25.0326856 31.0467402,25.1709974 C31.0478467,25.1730618 30.9958414,25.2262189 31.0002674,25.2690543 C31.0013739,25.2907301 31.0024804,25.3062127 31.0052466,25.3294367 C31.0096726,25.3531768 31.0212908,25.3794973 31.02627,25.4032374 C31.0450805,25.4951012 31.0721897,25.5833524 31.1037248,25.6664427 C31.1181093,25.6994724 31.2774448,25.9776443 31.2575279,25.9853857 C31.2553149,25.9869339 31.0959793,25.7815306 31.0793819,25.7939167 C31.0423142,25.8197211 31.0113323,25.8837162 31.0340155,25.9229389 C31.0755091,25.993127 31.1358132,26.0994413 31.3194917,26.3848385 C31.5203209,26.6996527 31.5894769,26.753842 31.7355345,27.2043876 C31.8622284,27.5971312 31.9850495,27.688995 32.2660997,27.8556917 C33.2331779,28.4239056 34.6494937,29.8147651 34.9305439,29.9850744 C35.2104876,30.1564159 34.5537818,28.7960057 34.5537818,28.7960057" id="Fill-84" fill="#FFFFFF"></path>
            <path d="M33,30.1463469 C33.2443177,29.4912167 33.6472094,29.385956 34.1580554,29 C35.3269579,29.9944782 37.1079458,30.0725072 38.6657937,30.6763163 C39.2215777,30.8915509 40.2587656,31.5540126 39.9405844,32.0164266 C39.5552547,32.5762461 38.5418271,33.451324 37.0433798,32.7228779 C36.1342909,32.2814113 33.138946,30.2008101 33,30.1463469" id="Fill-86" fill="#975140"></path>
            <path d="M36.379738,21.3591599 C37.4076248,21.1572589 38.0339434,22.6682432 38.8530574,22.0106806 C39.0117674,21.5212848 39.0490482,20.9825466 38.9297495,20.4367596 C38.5707879,18.8039299 36.9687758,17.7390409 35.3513186,18.0557384 C33.7338615,18.3734428 32.7128983,19.9539092 33.0718598,21.586739 C33.2502754,22.3998811 33.737057,23.0720451 34.3809509,23.5025321 C36.3909223,25.317123 35.1436109,21.6018438 36.379738,21.3591599" id="Fill-88" fill="#282723"></path>
            <path d="M34.7186912,19.0625331 C34.7593171,19.0401254 34.8013939,19.0192811 34.8439543,19 C35.0441819,19.542475 35.5877949,20.1146533 36.3316355,20.4940211 C36.5120337,20.5857364 36.6933993,20.6586917 36.8713793,20.7180982 L36.9729441,21.24494 C37.1233565,22.0266043 36.6314932,22.7973253 35.873627,22.9666859 C35.1162445,23.1365676 34.3791749,22.6399502 34.2287624,21.8593281 L34,20.669635 C34.3245234,20.3152805 34.5905262,19.7436233 34.7186912,19.0625331" id="Fill-90" fill="#FFFFFF"></path>
            <path d="M40.0383927,72.705756 C40.0383927,72.705756 40.3204902,72.5863621 41.1056697,72.4305729 C41.5647505,72.3386972 41.9152945,72.3315957 42.0761439,72.1704804 C42.3411298,71.9032865 42.2399267,70.9911875 42.3020174,71.0000643 C42.9630154,71.1025923 43.1693329,72.9667362 42.8574122,72.9862653 C42.431577,73.0120083 40.3200013,72.9951422 40.1425292,72.987153 C39.965546,72.9800515 39.9826576,72.6702485 40.0383927,72.705756" id="Fill-92" fill="#FFFFFF"></path>
            <path d="M41.863787,54.3837878 C42.1287264,54.6527473 43.1130989,55.3751413 43.377492,56.275594 C43.899723,58.0412084 44.0679731,58.9614454 43.9762003,60.8158218 C43.8314397,63.7577996 43.5042259,68.4584406 43.3392534,70.4384739 C43.1901226,72.2238727 43.5992763,74.4145821 42.28769,73.9322731 C42.9087952,71.5405125 42.2680244,67.7419283 41.9927059,65.7159098 C40.114641,51.8824116 41.3918126,53.9041524 41.863787,54.3837878" id="Fill-94" fill="#FFFFFF"></path>
            <path d="M40.4538327,73.0920703 C40.3478527,73.7470672 41.8970868,73.425748 42.2959568,73.2422253 C42.6765211,73.0667355 42.9212384,73.0049434 42.9212384,73.0049434 C42.9371354,73.0043255 42.9525507,73.0012358 42.9684477,73 C42.9703746,73.015448 42.9747101,73.031514 42.9751919,73.0481979 C42.9828995,73.4041207 43.1168196,73.874359 42.6721856,73.890425 L39.8834679,73.9948537 C37.6039356,74.0801269 40.4557596,73.0772402 40.4538327,73.0920703" id="Fill-96" fill="#AD5C49"></path>
            <path d="M40.6839811,35.04289 C41.3050848,34.8432181 41.3666771,35.3400761 41.944033,36.5468787 C43.0768709,38.9125007 43.9334069,42.4792498 43.9915454,46.3457647 C44.058894,50.8757889 43.7256048,55.4507005 42.9295099,58 C41.9054658,56.2839567 41.0650475,54.7278573 40.2102384,50.8278057 C38.3175702,42.1908348 38.774044,35.6553204 40.6839811,35.04289" id="Fill-98" fill="#FFFFFF"></path>
            <path d="M40.341286,36.0320933 C40.9216648,35.8741726 40.960435,36.2975678 41.4515248,37.3353318 C42.4125569,39.369937 43.0763505,42.4207955 42.9929357,45.7129944 C42.8948352,49.5697202 42.3737866,53.8729259 41.2365262,53.9993674 C40.8000672,54.0486848 40.3418734,51.2050643 39.9400727,48.8226141 C38.6888512,41.4113627 38.55668,36.5179221 40.341286,36.0320933" id="Fill-100" fill="#FFFFFF"></path>
            <path d="M48.0186507,73.5070243 C48.0186507,73.5070243 48.340825,73.3703615 49.0724289,73.1046283 C49.5846034,72.9177389 49.8386254,72.8026852 49.942919,72.5527207 C50.1138159,72.1392281 49.9356907,71.0167241 50.075093,71.0021233 C50.7545502,70.9256155 51.1087353,72.939932 50.9703656,73.279837 C50.7886263,73.7260353 48.5902002,74.1284313 48.2354988,73.961399 C48.0687323,73.8831391 47.95308,73.4824951 48.0186507,73.5070243" id="Fill-102" fill="#FFFFFF"></path>
            <path d="M46.3513548,54.9208682 C46.6366798,54.748508 46.2354868,53.4471096 46.8640707,54.2709597 C47.8885368,55.6124173 48.9139685,58.7802602 49.1838443,60.5217832 C49.6120731,63.2827085 50.3420414,67.6633979 50.5737774,69.5345863 C50.7823397,71.2212913 51.5316194,73.1741795 50.3492831,72.9875878 C50.2179661,70.5977376 49.2533651,67.2132584 48.5726407,65.4169175 C46.2446597,59.2862717 45.475586,55.4490177 46.3513548,54.9208682" id="Fill-104" fill="#FFFFFF"></path>
            <path d="M48.1813069,72.9211102 C48.8394484,73.7183553 49.9690379,72.9515988 50.3339387,72.6992568 C50.9600218,72.2672265 50.9020337,71.9850445 50.9053338,72.0006132 C50.989723,72.342475 51.1203141,72.8426182 50.7643708,73.1488018 C50.4414289,73.4257942 50.0647419,73.4543367 49.6508105,73.5866703 C49.2807238,73.704084 47.1054624,74.2431488 47.0097584,73.8707984 C46.8753957,73.3466535 48.1728208,72.9113798 48.1813069,72.9211102" id="Fill-106" fill="#AD5C49"></path>
            <path d="M43.4180874,37.0487916 C44.0023357,36.8355503 44.076643,37.3220562 44.6648619,38.4930401 C45.8191777,40.7892004 46.7505716,44.2726667 46.9337873,48.0752051 C47.1482008,52.5285241 46.8294167,56.4700641 46.1578148,59 C45.1282899,57.3393511 44.4317298,56.3989837 43.490693,52.5874945 C41.4072522,44.1441955 41.6245018,37.7032578 43.4180874,37.0487916" id="Fill-108" fill="#FFFFFF"></path>
            <path d="M45.2523978,53.0338111 C45.5456562,52.8362112 46.1942297,53.5394343 46.6939772,54.2400156 C47.6715054,55.6131761 48.1641137,57.384178 48.824769,59.8325142 C49.5985539,62.7008822 50.0005486,65.2897574 50,67 C49.2201736,65.7916822 48.5238221,64.2019015 47.6012112,62.5751369 C42.0287515,52.7442798 44.3534014,53.6392909 45.2523978,53.0338111" id="Fill-110" fill="#FFFFFF"></path>
            <path d="M43.1511735,36.0400985 C43.6986228,35.8569574 43.7496968,36.3009039 44.2513923,37.3771856 C45.2345665,39.488293 45.9676911,42.6762069 45.9980163,46.1401442 C46.0262134,49.3789598 45.7522227,52.3139396 45.2776602,54.5315731 C45.1574235,55.092541 44.5408115,55.1612845 44.3897177,54.6748325 C43.9114311,53.1404357 43.5469969,51.3908876 43.1953312,49.4991297 C41.7583433,41.7447588 41.468392,36.6036901 43.1511735,36.0400985" id="Fill-112" fill="#FFFFFF"></path>
            <path d="M39.7804926,52.8182811 C39.6584563,52.5685019 39.5602067,52.322396 39.4919491,52.0957056 C38.9014175,49.5244494 37.6019375,47.1421017 38.1190406,37.8462233 C38.1355879,37.3508629 38.2850306,36.5563972 38.3832802,36.1240063 C39.5524502,35.1521764 41.6860173,35.8175545 42.974121,35 C43.5843026,35.3290159 44.1417397,35.6401903 44.8982614,36.4183889 C49.3737882,41.0230366 49.0976552,48.8695661 50,51.6024442 C46.9030699,52.7610838 43.4069362,53.3131167 39.7804926,52.8182811" id="Fill-114" fill="#AD5C49"></path>
            <path d="M39.0412097,35.9845874 C39.0523631,36.0168248 39.3296043,35.9968294 39.6620814,35.940108 L43.4186473,35.2986255 C43.7505932,35.2419041 44.0103077,35.1700842 43.9996854,35.1374388 L43.9582586,35.0154265 C43.9481674,34.9831892 43.669864,35.0031845 43.3373869,35.0594978 L39.5818832,35.7009803 C39.2499373,35.7577017 38.9896917,35.8299297 39.0003139,35.8621671 L39.0412097,35.9845874 Z" id="Fill-116" fill="#15100C"></path>
            <path d="M27.7304908,42.171243 C27.9444854,42.4769908 27.903454,43.1999145 28.0846235,43.3391996 C28.6091944,43.7414279 29.005621,43.7869503 28.9999397,43.7930653 C28.458325,44.3495263 27.648428,43.6089372 27.1901386,43.5960278 C26.7324805,43.5810801 27.1756198,41.3810547 27.7304908,42.171243" id="Fill-118" fill="#FFFFFF"></path>
        </g>
    </g>
</svg>