<?xml version="1.0" encoding="UTF-8"?>
<svg width="237px" height="135px" viewBox="0 0 237 135" version="1.1" xmlns="http://www.w3.org/2000/svg" xmlns:xlink="http://www.w3.org/1999/xlink">
    <!-- Generator: Sketch 51 (57462) - http://www.bohemiancoding.com/sketch -->
    <title>ll-dash-properties-graphic</title>
    <desc>Created with Sketch.</desc>
    <defs>
        <polygon id="path-1" points="0.534922719 0.285487104 158.974893 0.285487104 158.974893 134.704913 0.534922719 134.704913"></polygon>
    </defs>
    <g id="Symbols" stroke="none" stroke-width="1" fill="none" fill-rule="evenodd">
        <g id="ll-dash-properties-graphic">
            <g id="Group-3" transform="translate(117.500000, 67.500000) scale(-1, 1) translate(-117.500000, -67.500000) translate(38.000000, 0.000000)">
                <mask id="mask-2" fill="white">
                    <use xlink:href="#path-1"></use>
                </mask>
                <g id="Clip-2"></g>
                <path d="M134.59718,15.0462994 C134.59718,20.3882954 111.400425,28.0762857 104.368639,35.0086223 C100.802386,38.5247911 102.23904,41.3611136 107.280622,39.6820623 C111.191735,38.3796282 121.208021,35.29169 132.599724,33.8094151 C137.501105,33.1723111 140.622583,34.8836208 143.004382,37.2981643 C163.490592,58.0701737 162.846797,104.438441 149.121641,134.704913 L16.7907959,134.704913 C11.7032863,127.408862 7.9001433,119.986198 5.41601408,112.441757 C-2.71239838,87.7471227 -0.349937503,63.6557209 9.98623171,44.3434054 C25.4002415,15.5430792 60.3980205,-3.74746179 95.97594,1.00420492 C105.192922,2.23486402 93.736759,6.01313261 87.387444,11.511582 C83.3506333,15.0067828 87.128798,14.2559679 89.3760366,13.8293502 C114.369616,9.08413513 134.59718,8.82848708 134.59718,15.0462994" id="Fill-1" fill="#D3F2FF" mask="url(#mask-2)"></path>
            </g>
            <polygon id="Fill-4" fill="#FFFFFF" points="148.429957 116.091386 150 116.091386 150 119.029404 148.429957 119.029404 148.429957 134 69.5700426 134 69.5700426 119.029404 68 119.029404 68 116.091386 69.5700426 116.091386 69.5700426 80.6804016 68 80.6804016 68 76.6985601 69.5700426 76.6985601 69.5700426 47.6681949 68 47.6681949 68 43.6855474 69.5700426 43.6855474 69.5700426 9 75.3535176 9 75.3535176 13.742744 117.875506 13.742744 121.262728 9 124.651565 13.742744 142.64729 13.742744 142.64729 9 148.429957 9 148.429957 43.6855474 150 43.6855474 150 47.6681949 148.429957 47.6681949 148.429957 76.6985601 150 76.6985601 150 80.6804016 148.429957 80.6804016"></polygon>
            <polygon id="Fill-6" fill="#4A90E2" points="95 28 100 40.305044 100 44 95 44"></polygon>
            <path d="M137.663314,50.622238 L143.20706,50.622238 L143.20706,47.9818834 L144.779892,47.9818834 L144.779892,44 L148.193357,44 L148.193357,47.9818834 L146.619717,47.9818834 L146.619717,50.622238 L149,50.622238 L149,53.089362 L146.619717,53.089362 L146.619717,77 L143.20706,77 L143.20706,53.089362 L138.705396,53.089362 L137.663314,50.622238 Z M70,53.089362 L105.907326,53.089362 L105.907326,50.622238 L70,50.622238 L70,53.089362 Z" id="Fill-8" fill="#4A90E2"></path>
            <polygon id="Fill-10" fill="#4A90E2" points="70 83.5587862 143.206251 83.5587862 143.206251 80.9429326 144.779892 80.9429326 144.779892 77 148.192548 77 148.192548 80.9429326 146.618908 80.9429326 146.618908 83.5587862 149 83.5587862 149 86.0022712 146.618908 86.0022712 146.618908 116 143.206251 116 143.206251 86.0022712 70 86.0022712"></polygon>
            <path d="M121,33.9423539 C121,32.3178543 122.343491,31 123.999592,31 C125.656509,31 127,32.3178543 127,33.9423539 L127,47 L121,47 L121,33.9423539 Z" id="Fill-12" fill="#4A90E2"></path>
            <path d="M129.492331,20.4906356 C129.492331,20.914978 129.14455,21.2592109 128.716636,21.2592109 C128.288721,21.2592109 127.94094,20.914978 127.94094,20.4906356 L127.94094,13.7677822 C127.94094,13.3434398 128.288721,13 128.716636,13 C129.14455,13 129.492331,13.3434398 129.492331,13.7677822 L129.492331,20.4906356 Z M113.087332,20.4906356 C113.087332,20.9141848 112.741154,21.2592109 112.312438,21.2592109 C111.883722,21.2592109 111.536742,20.9141848 111.536742,20.4906356 L111.536742,13.7677822 C111.536742,13.3434398 111.883722,13 112.312438,13 C112.741154,13 113.087332,13.3434398 113.087332,13.7677822 L113.087332,20.4906356 Z M106.580464,29.5279398 C106.580464,29.9514891 106.233485,30.2949289 105.804769,30.2949289 C105.376053,30.2949289 105.029073,29.9514891 105.029073,29.5279398 L105.029073,13.7677822 C105.029073,13.3434398 105.376053,13 105.804769,13 C106.233485,13 106.580464,13.3434398 106.580464,13.7677822 L106.580464,29.5279398 Z M100.073597,38.5636578 C100.073597,38.9880002 99.7258157,39.3322331 99.2970997,39.3322331 C98.869185,39.3322331 98.5222055,38.9880002 98.5222055,38.5636578 L98.5222055,13.7677822 C98.5222055,13.3434398 98.869185,13 99.2970997,13 C99.7258157,13 100.073597,13.3434398 100.073597,13.7677822 L100.073597,38.5636578 Z M92.0145366,13.7677822 C92.0145366,13.3434398 92.3623174,13 92.7902321,13 C93.2181468,13 93.5659277,13.3434398 93.5659277,13.7677822 L93.5659277,27.3816395 C93.5659277,27.805982 93.2181468,28.1494218 92.7902321,28.1494218 C92.3623174,28.1494218 92.0145366,27.805982 92.0145366,27.3816395 L92.0145366,13.7677822 Z M87.05906,27.3816395 C87.05906,27.805982 86.7112792,28.1494218 86.2833645,28.1494218 C85.8546485,28.1494218 85.5068676,27.805982 85.5068676,27.3816395 L85.5068676,13.7677822 C85.5068676,13.3434398 85.8546485,13 86.2833645,13 C86.7112792,13 87.05906,13.3434398 87.05906,13.7677822 L87.05906,27.3816395 Z M80.5513911,43.2314246 C80.5513911,43.6557671 80.2044116,44 79.7756955,44 C79.3477809,44 79,43.6557671 79,43.2314246 L79,13.7677822 C79,13.3434398 79.3477809,13 79.7756955,13 C80.2044116,13 80.5513911,13.3434398 80.5513911,13.7677822 L80.5513911,43.2314246 Z M136,29.5279398 C136,29.9514891 135.652219,30.2949289 135.223503,30.2949289 C134.795588,30.2949289 134.448609,29.9514891 134.448609,29.5279398 L134.448609,13.7677822 C134.448609,13.3434398 134.795588,13 135.223503,13 C135.652219,13 136,13.3434398 136,13.7677822 L136,29.5279398 Z" id="Fill-14" fill="#4A90E2"></path>
            <polygon id="Fill-16" fill="#4A90E2" points="86 44 92 44 92 34 86 34"></polygon>
            <polygon id="Fill-18" fill="#4A90E2" points="86 77 92 77 92 59 86 59"></polygon>
            <polygon id="Fill-19" fill="#4A90E2" points="113 77 119 77 119 59 113 59"></polygon>
            <polygon id="Fill-20" fill="#4A90E2" points="126 77 132 77 132 59 126 59"></polygon>
            <path d="M74.3911816,116.170811 L69.3641389,116.170811 L68.5709508,116.170811 L68.5709508,117.542225 L69.3641389,117.542225 L74.3911816,117.542225 L74.3911816,116.170811 Z M80.2682427,129.590449 L94.7404751,129.590449 L94.7404751,128.14922 L80.2682427,128.14922 L80.2682427,129.590449 Z M80.2682427,126.595646 L94.7404751,126.595646 L94.7404751,125.154417 L80.2682427,125.154417 L80.2682427,126.595646 Z M80.2682427,123.600843 L94.7404751,123.600843 L94.7404751,122.229429 L80.2682427,122.229429 L80.2682427,123.600843 Z M80.2682427,120.676657 L94.7404751,120.676657 L94.7404751,119.096602 L80.2682427,119.096602 L80.2682427,120.676657 Z M94.7404751,116.170811 L93.5567819,116.170811 L80.2682427,116.170811 L80.2682427,117.542225 L94.7404751,117.542225 L94.7404751,116.170811 Z M145.187076,116.170811 L145.187076,117.542225 L148.635861,117.542225 L149.429049,117.542225 L149.429049,116.170811 L148.635861,116.170811 L145.187076,116.170811 Z M143.616125,117.542225 L143.616125,116.170811 L142.822937,116.170811 L100.618348,116.170811 L100.618348,117.542225 L142.822937,117.542225 L143.616125,117.542225 Z M109.66329,126.594844 L115.50057,126.594844 L115.50057,122.229429 L109.66329,122.229429 L109.66329,126.594844 Z M108.877409,120.675855 L116.286452,120.675855 L126.36814,120.675855 L133.777183,120.675855 C134.211528,120.675855 134.563064,121.024125 134.563064,121.452642 L134.563064,127.372433 C134.563064,127.80095 134.211528,128.14922 133.777183,128.14922 L126.36814,128.14922 L116.286452,128.14922 L108.877409,128.14922 C108.442252,128.14922 108.090716,127.80095 108.090716,127.372433 L108.090716,121.452642 C108.090716,121.024125 108.442252,120.675855 108.877409,120.675855 Z M127.154022,126.594844 L132.991301,126.594844 L132.991301,122.229429 L127.154022,122.229429 L127.154022,126.594844 Z M117.072333,126.594844 L125.582259,126.594844 L125.582259,122.229429 L117.072333,122.229429 L117.072333,126.594844 Z M100.618348,114.616434 L142.037056,114.616434 L142.037056,83.5473582 L100.618348,83.5473582 L100.618348,114.616434 Z M147.849168,83.5481607 L143.608818,83.5481607 L143.608818,114.616434 L144.401195,114.616434 L147.849168,114.616434 L147.849168,83.5481607 Z M92.7717124,91.5038085 C92.0727002,90.6572069 91.2868189,90.0192464 90.4473547,89.5819025 C89.5202095,89.098818 88.5216206,88.862893 87.5043589,88.862893 C86.4862853,88.862893 85.4893202,89.098818 84.5613632,89.5819025 C83.7210871,90.0200489 82.9327702,90.6596143 82.2345698,91.5078209 L82.2337579,114.616434 L92.7717124,114.616434 L92.7717124,91.5038085 Z M80.8609012,90.7334412 C81.7393347,89.6115937 82.746854,88.7754242 83.8306883,88.2104881 C84.9932732,87.6046263 86.2386678,87.3085163 87.5043589,87.3085163 C88.7708619,87.3085163 90.0154447,87.6046263 91.1788414,88.2104881 C92.2529333,88.7698069 93.2523341,89.5987543 94.1267083,90.7053549 C94.2606653,90.8441815 94.3426633,91.032761 94.3426633,91.2405997 L94.3426633,114.616434 L95.5263565,114.616434 L99.0457735,114.616434 L99.0457735,83.5481607 L70.1500203,83.5481607 L70.1500203,114.616434 L75.1673207,114.616434 L75.177063,114.616434 L75.1868053,114.616434 L79.4823614,114.616434 L80.6676783,114.616434 L80.6676783,91.2405997 C80.6676783,91.0464029 80.7407458,90.8690579 80.8609012,90.7334412 Z M127.154022,110.29355 L132.991301,110.29355 L132.991301,105.035793 L127.154022,105.035793 L127.154022,110.29355 Z M127.154022,103.481416 L132.991301,103.481416 L132.991301,90.7543053 L127.154022,90.7543053 L127.154022,103.481416 Z M117.071521,110.29355 L125.581447,110.29355 L125.581447,105.035793 L117.071521,105.035793 L117.071521,110.29355 Z M117.071521,103.481416 L125.581447,103.481416 L125.581447,90.7543053 L117.071521,90.7543053 L117.071521,103.481416 Z M109.66329,103.481416 L115.50057,103.481416 L115.50057,90.7543053 L109.66329,90.7543053 L109.66329,103.481416 Z M109.66329,110.29355 L115.50057,110.29355 L115.50057,105.035793 L109.66329,105.035793 L109.66329,110.29355 Z M108.877409,89.2007311 L116.286452,89.2007311 L126.36814,89.2007311 L133.777183,89.2007311 C134.211528,89.2007311 134.563064,89.5481989 134.563064,89.9767157 L134.563064,104.259005 L134.563064,111.070337 C134.563064,111.498854 134.211528,111.846321 133.777183,111.846321 L126.36814,111.846321 L116.286452,111.846321 L108.877409,111.846321 C108.442252,111.846321 108.090716,111.498854 108.090716,111.070337 L108.090716,89.9767157 C108.090716,89.5481989 108.442252,89.2007311 108.877409,89.2007311 Z M70.1500203,80.9176772 L70.1500203,81.9937841 L99.8316548,81.9937841 L142.822937,81.9937841 L147.849168,81.9937841 L147.849168,80.9176772 L144.401195,80.9176772 L98.2533973,80.9176772 L70.1500203,80.9176772 Z M145.187076,76.9526927 L145.187076,79.364103 L148.635861,79.364103 L149.429049,79.364103 L149.429049,76.9526927 L148.635861,76.9526927 L145.187076,76.9526927 Z M99.0392786,76.9526927 L99.0392786,79.364103 L143.616125,79.364103 L143.616125,76.9526927 L142.822937,76.9526927 L131.552684,76.9526927 L123.381304,76.9526927 L119.273288,76.9526927 L111.101908,76.9526927 L99.8316548,76.9526927 L99.0392786,76.9526927 Z M97.4675159,79.364103 L97.4675159,76.9526927 L91.5904548,76.9526927 L83.418263,76.9526927 L69.3641389,76.9526927 L68.5709508,76.9526927 L68.5709508,79.364103 L69.3641389,79.364103 L97.4675159,79.364103 Z M84.2041444,68.5877872 L90.8045735,68.5877872 L90.8045735,55.8598742 L84.2041444,55.8598742 L84.2041444,68.5877872 Z M84.2041444,75.3991186 L90.8045735,75.3991186 L90.8045735,70.1421639 L84.2041444,70.1421639 L84.2041444,75.3991186 Z M111.887789,68.5877872 L118.488218,68.5877872 L118.488218,55.8598742 L111.887789,55.8598742 L111.887789,68.5877872 Z M111.886977,75.3991186 L118.487406,75.3991186 L118.487406,70.1421639 L111.886977,70.1421639 L111.886977,75.3991186 Z M124.167185,68.5877872 L130.767614,68.5877872 L130.767614,55.8598742 L124.167185,55.8598742 L124.167185,68.5877872 Z M124.166373,75.3991186 L130.766803,75.3991186 L130.766803,70.1421639 L124.166373,70.1421639 L124.166373,75.3991186 Z M99.0392786,44.0860931 L99.0392786,46.4975034 L105.394526,46.4975034 L106.186902,46.4975034 L106.186902,44.0860931 L99.8316548,44.0860931 L99.0392786,44.0860931 Z M97.4675159,46.4975034 L97.4675159,44.0860931 L94.5789148,44.0860931 L91.5904548,44.0860931 L83.418263,44.0860931 L80.429803,44.0860931 L75.177063,44.0860931 L69.3641389,44.0860931 L68.5709508,44.0860931 L68.5709508,46.4975034 L69.3641389,46.4975034 L97.4675159,46.4975034 Z M145.187076,44.0860931 L145.187076,46.4975034 L148.635861,46.4975034 L149.429049,46.4975034 L149.429049,44.0860931 L148.635861,44.0860931 L145.187076,44.0860931 Z M143.616125,46.4975034 L143.616125,44.0860931 L142.822937,44.0860931 L136.46769,44.0860931 L136.46769,46.4975034 L137.260066,46.4975034 L143.616125,46.4975034 Z M147.849168,50.6815611 L143.608818,50.6815611 L143.608818,75.3983161 L144.401195,75.3983161 L147.849168,75.3983161 L147.849168,50.6815611 Z M138.045947,48.0510776 L138.045947,49.1271845 L142.822937,49.1271845 L147.849168,49.1271845 L147.849168,48.0510776 L144.401195,48.0510776 L138.045947,48.0510776 Z M99.0457735,50.6815611 L70.1500203,50.6815611 L70.1500203,75.3983161 L82.6323817,75.3983161 L82.6323817,55.0830871 C82.6323817,54.6545702 82.9839174,54.3063 83.418263,54.3063 L91.5904548,54.3063 C92.0248004,54.3063 92.3763362,54.6545702 92.3763362,55.0830871 L92.3763362,69.3653768 L92.3763362,75.3983161 L98.2533973,75.3983161 L99.0457735,75.3983161 L99.0457735,50.6815611 Z M104.608644,49.1271845 L104.608644,48.0510776 L98.2533973,48.0510776 L70.1500203,48.0510776 L70.1500203,49.1271845 L99.8316548,49.1271845 L104.608644,49.1271845 Z M117.557826,30.2050364 C117.566756,29.7845443 117.914233,29.4451011 118.343707,29.4451011 L117.557826,30.2050364 Z M117.071521,46.4975034 L125.583071,46.4975034 L125.583071,44.0860931 L124.310885,44.0860931 L118.343707,44.0860931 L117.071521,44.0860931 L117.071521,46.4975034 Z M119.128777,42.5317165 L123.525003,42.5317165 L123.525003,30.2226907 C123.525003,29.6368905 123.293623,29.1080654 122.91692,28.7188694 L122.88201,28.6859683 C122.483386,28.29276 121.934568,28.0496128 121.327296,28.0496128 C120.720024,28.0496128 120.170394,28.29276 119.772582,28.6859683 C119.375582,29.0791766 119.128777,29.6216437 119.128777,30.2226907 L119.128777,30.2323203 L119.128777,42.5317165 Z M126.36814,48.0510776 L116.28564,48.0510776 C115.851294,48.0510776 115.499758,47.7036098 115.499758,47.275093 L115.499758,43.3093061 C115.499758,42.8799868 115.851294,42.5317165 116.28564,42.5317165 L117.557014,42.5317165 L117.557014,30.2226907 L117.557826,30.2050364 C117.561885,29.1834972 117.983241,28.2574515 118.661145,27.5873924 C119.34392,26.9133209 120.28649,26.4960386 121.327296,26.4960386 C122.368102,26.4960386 123.310672,26.9133209 123.993447,27.5873924 C124.008061,27.6034417 124.023486,27.6186885 124.037288,27.6355403 C124.693271,28.3072044 125.096766,29.2196082 125.096766,30.2226907 L125.096766,42.5317165 L126.36814,42.5317165 C126.802486,42.5317165 127.154022,42.8799868 127.154022,43.3093061 L127.154022,47.275093 C127.154022,47.7036098 126.802486,48.0510776 126.36814,48.0510776 Z M84.2041444,42.5317165 L90.8045735,42.5317165 L90.8045735,31.3276864 L84.2041444,31.3276864 L84.2041444,42.5317165 Z M82.6323817,42.5317165 L82.6323817,30.5508993 C82.6323817,30.1223824 82.9847293,29.7741122 83.418263,29.7741122 L91.5904548,29.7741122 C92.0248004,29.7741122 92.3763362,30.1223824 92.3763362,30.5508993 L92.3763362,42.5317165 L93.7930335,42.5317165 L93.7930335,28.0496128 L81.2156844,28.0496128 L81.2156844,42.5317165 L82.6323817,42.5317165 Z M70.1500203,42.5317165 L74.3911816,42.5317165 L74.3911816,39.3635808 L70.1500203,39.3635808 L70.1500203,42.5317165 Z M70.1500203,37.8100066 L74.3911816,37.8100066 L74.3911816,13.5001019 L74.3911816,9.55437662 L70.1500203,9.55437662 L70.1500203,37.8100066 Z M147.849168,39.3635808 L143.608818,39.3635808 L143.608818,42.5317165 L144.401195,42.5317165 L147.849168,42.5317165 L147.849168,39.3635808 Z M143.608818,37.8100066 L147.849168,37.8100066 L147.849168,9.55437662 L143.608818,9.55437662 L143.608818,13.5001019 L143.608818,37.8100066 Z M75.9637562,14.2760865 L75.9637562,38.5859912 L75.9637562,42.5317165 L79.6439217,42.5317165 L79.6439217,27.2728257 C79.6439217,26.8443089 79.9954574,26.4960386 80.429803,26.4960386 L94.5789148,26.4960386 C95.0132604,26.4960386 95.3647962,26.8443089 95.3647962,27.2728257 L95.3647962,42.5317165 L98.2533973,42.5317165 L99.0457735,42.5317165 L99.0457735,38.5859912 C99.0457735,38.3974117 99.1139698,38.2248815 99.2276303,38.0900673 L116.3993,14.2760865 L75.9637562,14.2760865 Z M124.127404,13.9952234 C124.102236,13.9663346 124.080316,13.9350385 124.060832,13.9029398 L121.327296,10.1120905 L118.594572,13.9013349 C118.574276,13.9350385 118.551544,13.9663346 118.526376,13.9960259 L100.618348,38.8315458 L100.618348,42.5317165 L106.973595,42.5317165 C107.407129,42.5317165 107.759477,42.8799868 107.759477,43.3093061 L107.759477,47.275093 C107.759477,47.7036098 107.407129,48.0510776 106.973595,48.0510776 L106.180407,48.0510776 L106.180407,49.904774 C106.180407,50.3332909 105.828871,50.6815611 105.394526,50.6815611 L100.618348,50.6815611 L100.618348,75.3983161 L110.316027,75.3983161 L110.316027,55.0830871 C110.316027,54.6545702 110.667562,54.3063 111.101908,54.3063 L119.273288,54.3063 C119.707633,54.3063 120.059169,54.6545702 120.059169,55.0830871 L120.059169,69.3653768 L120.059169,75.3983161 L122.594611,75.3983161 L122.594611,55.0830871 C122.594611,54.6545702 122.946958,54.3063 123.381304,54.3063 L131.552684,54.3063 C131.986218,54.3063 132.338565,54.6545702 132.338565,55.0830871 L132.338565,69.3653768 L132.338565,75.3983161 L142.036244,75.3983161 L142.036244,50.6815611 L137.260066,50.6815611 C136.825721,50.6815611 136.474185,50.3332909 136.474185,49.904774 L136.474185,48.0510776 L135.681809,48.0510776 C135.247463,48.0510776 134.895115,47.7036098 134.895115,47.275093 L134.895115,43.3093061 C134.895115,42.8799868 135.247463,42.5317165 135.681809,42.5317165 L142.036244,42.5317165 L142.036244,38.8315458 L124.127404,13.9952234 Z M126.255292,14.2760865 L142.036244,36.1617415 L142.036244,14.2760865 L126.255292,14.2760865 Z M70.1500203,133.223213 C70.1500203,133.65173 69.7976727,134 69.3641389,134 C68.9297934,134 68.5782576,133.65173 68.5782576,133.223213 L68.5782576,119.096602 L67.7850695,119.096602 C67.3515358,119.096602 67,118.748331 67,118.319012 L67,115.394024 C67,114.964704 67.3515358,114.616434 67.7850695,114.616434 L68.5782576,114.616434 L68.5782576,82.7713736 L68.5782576,80.9176772 L67.7850695,80.9176772 C67.3515358,80.9176772 67,80.5702094 67,80.1408901 L67,76.1759056 C67,75.7465863 67.3515358,75.3983161 67.7850695,75.3983161 L68.5782576,75.3983161 L68.5782576,48.0510776 L67.7850695,48.0510776 C67.3515358,48.0510776 67,47.7036098 67,47.275093 L67,43.3093061 C67,42.8799868 67.3515358,42.5317165 67.7850695,42.5317165 L68.5782576,42.5317165 L68.5782576,38.5859912 L68.5782576,8.77758955 C68.5782576,8.34827024 68.9297934,8 69.3641389,8 L75.177063,8 C75.6114086,8 75.9637562,8.34827024 75.9637562,8.77758955 L75.9637562,12.7225124 L117.519668,12.7225124 L120.688361,8.32740612 C120.939226,7.97993835 121.428779,7.89808682 121.781126,8.14604881 C121.859877,8.2006165 121.924014,8.26641871 121.974349,8.34024558 L125.134924,12.7225124 L142.036244,12.7225124 L142.036244,8.77758955 C142.036244,8.34827024 142.388591,8 142.822937,8 L148.635861,8 C149.069395,8 149.421742,8.34827024 149.421742,8.77758955 L149.421742,38.5859912 L149.421742,42.5317165 L150.214931,42.5317165 C150.648464,42.5317165 151,42.8799868 151,43.3093061 L151,47.275093 C151,47.7036098 150.648464,48.0510776 150.214931,48.0510776 L149.421742,48.0510776 L149.421742,49.904774 L149.421742,75.3983161 L150.214931,75.3983161 C150.648464,75.3983161 151,75.7465863 151,76.1759056 L151,80.1408901 C151,80.5702094 150.648464,80.9176772 150.214931,80.9176772 L149.421742,80.9176772 L149.421742,82.7713736 L149.421742,114.616434 L150.214931,114.616434 C150.648464,114.616434 151,114.964704 151,115.394024 L151,118.319012 C151,118.748331 150.648464,119.096602 150.214931,119.096602 L149.421742,119.096602 L149.421742,133.223213 C149.421742,133.65173 149.069395,134 148.635861,134 C148.201515,134 147.849168,133.65173 147.849168,133.223213 L147.849168,119.096602 L144.401195,119.096602 L143.608818,119.096602 L143.608818,133.223213 C143.608818,133.65173 143.256471,134 142.822937,134 C142.388591,134 142.036244,133.65173 142.036244,133.223213 L142.036244,119.096602 L100.618348,119.096602 L100.618348,133.223213 C100.618348,133.65173 100.265189,134 99.8316548,134 C99.3981211,134 99.0457735,133.65173 99.0457735,133.223213 L99.0457735,118.319012 L99.0457735,116.170811 L96.3122378,116.170811 L96.3122378,118.319012 L96.3122378,121.452642 L96.3122378,124.378433 L96.3122378,127.372433 L96.3122378,130.366434 L96.3122378,133.22241 C96.3122378,133.650927 95.9607021,133.999198 95.5263565,133.999198 C95.0928228,133.999198 94.7404751,133.650927 94.7404751,133.22241 L94.7404751,131.144024 L80.2682427,131.144024 L80.2682427,133.22241 C80.2682427,133.650927 79.9167069,133.999198 79.4823614,133.999198 C79.0480158,133.999198 78.69648,133.650927 78.69648,133.22241 L78.69648,130.366434 L78.69648,127.372433 L78.69648,124.378433 L78.69648,121.452642 L78.69648,118.319012 L78.69648,116.170811 L75.9637562,116.170811 L75.9637562,118.319012 L75.9637562,133.223213 C75.9637562,133.65173 75.6114086,134 75.177063,134 C74.7435293,134 74.3911816,133.65173 74.3911816,133.223213 L74.3911816,119.096602 L70.1500203,119.096602 L70.1500203,133.223213 Z" id="Fill-21" fill="#432D61"></path>
            <polygon id="Fill-22" fill="#4A90E2" points="111 111 133 111 133 93 111 93"></polygon>
            <polygon id="Fill-23" fill="#D3F2FF" points="111 107.975261 133 95 132.99921 99.7338137 113.898539 111 111 111"></polygon>
            <path d="M191.500405,88 C200.612932,88 208,95.3872496 208,104.5 C208,113.61275 200.612932,121 191.500405,121 C182.387878,121 175,113.61275 175,104.5 C175,95.3872496 182.387878,88 191.500405,88" id="Fill-24" fill="#00CF6B"></path>
            <path d="M189.5,90 C196.403487,90 202,95.59607 202,102.500801 C202,109.40393 196.403487,115 189.5,115 C182.597314,115 177,109.40393 177,102.500801 C177,95.59607 182.597314,90 189.5,90" id="Fill-25" fill="#47DF7F"></path>
            <path d="M191.771659,121.641578 L191.771659,134.213781 C191.771659,134.648313 191.425866,135 191.000398,135 C190.574134,135 190.228341,134.648313 190.228341,134.213781 L190.228341,121.641578 C185.842195,121.441775 181.887095,119.546888 178.97973,116.583133 C175.903452,113.447189 174,109.11486 174,104.33013 C174,99.544587 175.903452,95.2122576 178.97973,92.0763139 C182.056007,88.939558 186.306704,87 191.000398,87 C195.694889,87 199.944789,88.939558 203.021067,92.0763139 C206.097345,95.2122576 208,99.544587 208,104.33013 C208,109.11486 206.097345,113.447189 203.021067,116.583133 C200.114499,119.546888 196.159398,121.441775 191.771659,121.641578 Z M193.896609,106.517412 C194.19858,106.210396 194.686992,106.210396 194.987369,106.517412 C195.288543,106.824427 195.288543,107.322312 194.987369,107.629328 L191.771659,110.907408 L191.771659,120.067515 C195.733133,119.868523 199.302604,118.149887 201.930307,115.471217 C204.72772,112.621172 206.457479,108.68114 206.457479,104.33013 C206.457479,99.9783072 204.72772,96.0390876 201.930307,93.1882297 C199.132894,90.3365596 195.269421,88.572439 191.000398,88.572439 C186.732173,88.572439 182.867106,90.3365596 180.069693,93.1882297 C177.273873,96.0390876 175.543318,99.9783072 175.543318,104.33013 C175.543318,108.68114 177.273873,112.621172 180.069693,115.471217 C182.697396,118.149887 186.267663,119.868523 190.228341,120.067515 L190.228341,116.116924 L184.357041,110.131747 C184.055867,109.824732 184.055867,109.326847 184.357041,109.019831 C184.658215,108.712816 185.147423,108.712816 185.447801,109.019831 L190.228341,113.893905 L190.228341,104.33013 C190.228341,103.895597 190.574134,103.54391 191.000398,103.54391 C191.425866,103.54391 191.771659,103.895597 191.771659,104.33013 L191.771659,108.683576 L193.896609,106.517412 Z" id="Fill-26" fill="#432D61" transform="translate(191.000000, 111.000000) scale(-1, 1) translate(-191.000000, -111.000000) "></path>
            <path d="M165.667067,127.550296 L180.332933,127.550296 L180.332933,126.302959 L165.667067,126.302959 L165.667067,127.550296 Z M165.667067,124.775542 L180.332933,124.775542 L180.332933,123.528205 L165.667067,123.528205 L165.667067,124.775542 Z M162,122 L164.892864,122 L181.107136,122 L184,122 L184,123.528205 L181.882139,123.528205 L181.882139,124.775542 L184,124.775542 L184,126.302959 L181.882139,126.302959 L181.882139,127.550296 L184,127.550296 L184,129.078501 L181.882139,129.078501 L181.882139,133.236292 C181.882139,133.657594 181.535027,134 181.107136,134 C180.680045,134 180.332933,133.657594 180.332933,133.236292 L180.332933,129.078501 L165.667866,129.078501 L165.667866,133.236292 C165.667866,133.657594 165.320755,134 164.892864,134 C164.465772,134 164.118661,133.657594 164.118661,133.236292 L164.118661,129.078501 L162,129.078501 L162,127.550296 L164.118661,127.550296 L164.118661,126.302959 L162,126.302959 L162,124.775542 L164.118661,124.775542 L164.118661,123.528205 L162,123.528205 L162,122 Z" id="Fill-27" fill="#432D61"></path>
            <polygon id="Fill-28" fill="#4A90E2" points="143 118.953011 144.577154 118.953011 144.577154 116 148 116 148 118.953011 146.422846 118.953011 146.422846 134 143 134"></polygon>
            <polygon id="Fill-29" fill="#4A90E2" points="100 116 105 128.450446 105 134 100 134"></polygon>
            <path d="M84,116 L84.0008284,94.127984 C85.6949714,92.0105672 87.8952862,91 90.1776158,91 C91.5080772,91 92.810372,91.343752 94,92.0487619 L94,116 L84,116 Z" id="Fill-30" fill="#4A90E2"></path>
            <polygon id="Fill-31" fill="#4A90E2" points="111 128 133 128 133 125 111 125"></polygon>
            <path d="M0.4850362,135 C0.217240156,135 0,134.551884 0,134.000516 C0,133.448116 0.217240156,133 0.4850362,133 L236.514964,133 C236.78276,133 237,133.448116 237,134.000516 C237,134.551884 236.78276,135 236.514964,135 L0.4850362,135 Z" id="Fill-32" fill="#432D61"></path>
        </g>
    </g>
</svg>