<svg xmlns="http://www.w3.org/2000/svg" viewBox="0 0 400 400.12"><defs><style>.a{fill:#8cc152;}.b{fill:#434a54;}.c{fill:#656d78;}.d{fill:#f9e0a8;}.e{fill:#d9c392;}.f{fill:#ffe9ba;}</style></defs><title>Asset 6</title><circle class="a" cx="200" cy="200" r="200"/><path class="b" d="M316.67,302.79c-7.35-6.36-19.37-14.56-30.67-15.67-7.25-.71-86-13-86-13s-78.74,12.29-86,13c-11.3,1.11-23.32,9.31-30.67,15.67-13.42,11.6-20.78,25.84-24.79,38.71a200,200,0,0,0,282.92,0C337.45,328.63,330.09,314.39,316.67,302.79Z"/><path class="c" d="M316.67,302.79c-7.35-6.36-19.37-14.56-30.67-15.67-3.88-.38-28.17-4.06-49.95-7.41h0c-16.49-2.54-31.53-4.88-35.19-5.45l-.15,0-.46-.07-.25,0-.27,0-.35.06-.32,0-1.22.19-.23,0c-5.33.84-18.92,2.95-33.66,5.22h0c-21.78,3.35-46.07,7-49.95,7.41-11.3,1.11-23.32,9.31-30.67,15.67-13.42,11.6-20.78,25.84-24.79,38.71q3.38,3.38,6.91,6.59a79.51,79.51,0,0,1,17.88-22.3c7.35-6.36,19.37-14.56,30.67-15.67,4.3-.42,33.78-4.92,57-8.5,5.56,9.9,14.76,18.5,29,18.5s23.4-8.6,29-18.5c23.26,3.58,52.74,8.08,57,8.5,11.3,1.11,23.32,9.31,30.67,15.67a79.51,79.51,0,0,1,17.88,22.3q3.54-3.21,6.91-6.59C337.45,328.63,330.09,314.39,316.67,302.79Z"/><path class="d" d="M200,196.12l-42.25-5.5,16.31,88.74s3.66,30.76,25.94,30.76,25.94-30.76,25.94-30.76l16.31-88.74Z"/><path class="e" d="M233.73,206.62,164.2,228.21l7.09,38.56C182,279.91,198.21,292,222.25,293a55.58,55.58,0,0,0,3.42-12.67l12.13-66C235.41,209.57,233.73,206.62,233.73,206.62Z"/><path class="d" d="M137,159.62s-21.31-13.5-19.1,14.5,19.1,26,19.1,26Z"/><path class="d" d="M263,159.62s21.31-13.5,19.1,14.5-19.1,26-19.1,26Z"/><path class="f" d="M200,87.38c-63,0-63,34.74-63,34.74v80c0,20.5,19.24,36.29,35.23,50,13.4,11.5,27.77,11,27.77,11s14.37.5,27.77-11c16-13.71,35.23-29.5,35.23-50v-80S263,87.38,200,87.38Z"/><path class="b" d="M317.47,66.28c-1.78,11.57-34.84,17.91-42.1,19.18C297.57,81,300,40.16,300,40.16c-8.5,18-36,18-36,18,18-11,0-36,0-36-23.5,42-44.5,21-90,22.5s-36.5,53.49-36.5,53.49-11,33.37-2,60.31l2.62,1.12-.07-.61V170h5l3.5-13.69c8-13.76,4.5-44.62,4.5-44.62,8,8.6,50.5,11.67,50.5,11.67s42.5-3,50.5-11.65c0,0-3.5,30.84,4.5,44.59L260,170h4V158.94l.4.61,3-1c5.7-17,3-36.59.27-48.59h0C313.68,110,317.47,66.28,317.47,66.28Z"/><path class="c" d="M264,69.15c-1.94,0,25.33-2.66,33.69-14.11A98,98,0,0,0,300,40.18C294.39,52,280.62,56,271.82,57.43A15.61,15.61,0,0,1,264,69.15Z"/><path class="c" d="M275.37,95.5c5.58-1,26.37-4.94,36.52-12a55.42,55.42,0,0,0,5.58-18.2c-1.09,7.08-13.88,12.18-25.31,15.38C288.5,87.89,283.15,93.93,275.37,95.5Z"/><path class="c" d="M174,54.63c45.5-1.5,66.5,19.5,90-22.5a50.76,50.76,0,0,1,7.28,15.93C274.79,36.18,264,21.13,264,21.13c-23.5,42-44.5,21-90,22.5-35.84,1.18-38.24,33.7-37.22,47.45C137.93,75.77,145.85,55.55,174,54.63Z"/><path class="c" d="M138.47,109.12a22.92,22.92,0,0,1-1.86-8.36,127.77,127.77,0,0,0-4.34,40.35A126.09,126.09,0,0,1,138.47,109.12Z"/><path class="c" d="M215.47,96.13c29.7-2,36.5-24,36.5-24-17.63,19.38-52.16,12.67-63.5,20s14,18.38,7,24-44.5-4.4-44.5-4.4l2.61,2c12,7.08,47.89,9.66,47.89,9.66s34-2.44,46.91-9.12l3.59-2.53C220.81,117.65,185.77,98.12,215.47,96.13Z"/></svg>