<svg xmlns="http://www.w3.org/2000/svg" viewBox="0 0 400 455.79"><defs><style>.a{fill:#3db093;}.b{fill:#f9e0a8;}.c{fill:#d9c392;}.d{fill:#f5f7fa;}.e{fill:#434a54;}.f{fill:#e6e9ed;}.g{fill:#ffe9ba;}.h{fill:#656d78;}</style></defs><title>avatar13</title><circle class="a" cx="200" cy="200" r="200"/><path class="b" d="M200,197.12l-42.25-5.5,16.31,88.74s3.66,30.76,25.94,30.76,25.94-30.76,25.94-30.76l16.31-88.74Z"/><path class="c" d="M234,206.62l-69.53,21.59,7.09,38.56c10.66,13.14,26.92,25.19,51,26.26a55,55,0,0,0,3.42-12.67l12.13-66C235.69,209.57,234,206.62,234,206.62Z"/><path class="d" d="M316.67,303.79c-7.35-6.36-19.37-14.56-30.67-15.67-4.14-.4-31.61-4.59-54.41-8.1l-4-8.68a37.39,37.39,0,0,1-9.47,6.6A75.21,75.21,0,0,1,200,284.12a75.21,75.21,0,0,1-18.16-6.18,37.39,37.39,0,0,1-9.47-6.6l-4,8.68c-22.8,3.51-50.27,7.7-54.41,8.1-11.3,1.11-23.32,9.31-30.67,15.67-13.42,11.6-20.78,25.84-24.79,38.71a200,200,0,0,0,282.92,0C337.45,329.63,330.09,315.39,316.67,303.79Z"/><polygon class="e" points="200 455.79 213.49 439.66 207.6 302.62 213.85 296.87 200 284.12 186.27 296.74 192.69 302.62 186.73 439.67 200 455.79"/><path class="f" d="M260.67,341H240v28c0,16,20.5,15.15,20.5,15.15S281,385,281,369V341Z"/><polygon class="f" points="172.37 271.34 168.41 280.02 181.67 302.79 200 284.12 172.37 271.34"/><polygon class="f" points="227.63 271.34 231.59 280.02 218.33 302.79 200 284.12 227.63 271.34"/><path class="b" d="M137,159.62s-21.31-13.5-19.1,14.5,19.1,26,19.1,26Z"/><path class="b" d="M263,159.62s21.31-13.5,19.1,14.5-19.1,26-19.1,26Z"/><path class="g" d="M200,87.38c-63,0-63,34.74-63,34.74v80c0,20.5,19.24,36.29,35.23,50,13.4,11.5,27.77,11,27.77,11s14.37.5,27.77-11c16-13.71,35.23-29.5,35.23-50v-80S263,87.38,200,87.38Z"/><path class="e" d="M263,159.62l-.9-3.25L248.87,164a4,4,0,0,0-3.87-3H211a4,4,0,0,0-4,4v4H193v-4a4,4,0,0,0-4-4H155a4,4,0,0,0-3.87,3l-13.23-7.67-.9,3.25,14,15.27V182a4,4,0,0,0,4,4h34a4,4,0,0,0,4-4V172h14v10a4,4,0,0,0,4,4h34a4,4,0,0,0,4-4v-7.11Z"/><rect class="d" x="154" y="164" width="36" height="19" rx="1" ry="1"/><polygon class="f" points="162.5 183 156.5 183 161.5 164 167.5 164 162.5 183"/><polygon class="f" points="171.5 183 165.5 183 170.5 164 176.5 164 171.5 183"/><rect class="d" x="210" y="164" width="36" height="19" rx="1" ry="1"/><polygon class="f" points="218.5 183 212.5 183 217.5 164 223.5 164 218.5 183"/><polygon class="f" points="227.5 183 221.5 183 226.5 164 232.5 164 227.5 183"/><path class="e" d="M200.47,63.38c-37.33,0-68,12.35-68,49.23,0,38.18,5,47,5,47s5-20.83,13.67-23.83,7.08-18.33,7.08-18.33,28.92,4,42.25,4,42.25-4,42.25-4-1.58,15.33,7.09,18.33,13.66,23.83,13.66,23.83,5-8.83,5-47C268.47,75.73,237.81,63.38,200.47,63.38Z"/><path class="h" d="M200.47,79.38c35.8,0,65.45,11.37,67.83,44.82.11-3.53.17-7.37.17-11.59,0-36.88-30.66-49.23-68-49.23s-68,12.35-68,49.23c0,4.22.07,8.06.18,11.59C135,90.75,164.67,79.38,200.47,79.38Z"/></svg>