<svg xmlns="http://www.w3.org/2000/svg" viewBox="0 0 400 401"><defs><style>.a{fill:#da4453;}.b{fill:#434a54;}.c{fill:#f9e0a8;}.d{fill:#d9c392;}.e{fill:#fff;}.f{fill:#656d78;}.g{fill:#272b30;}.h{fill:#ffe9ba;}</style></defs><title>avatar18</title><circle class="a" cx="200" cy="200" r="200"/><path class="b" d="M200,401a199.34,199.34,0,0,0,141.46-58.62c-4-12.87-11.37-27.12-24.79-38.71a79.08,79.08,0,0,0-19.47-12.58A38.21,38.21,0,0,0,286,288c-2-.2-9.75-1.32-19.77-2.82C240.65,281.35,200,275,200,275s-40.65,6.35-66.23,10.18c-10,1.5-17.73,2.62-19.77,2.82a38.21,38.21,0,0,0-11.2,3.09,79.08,79.08,0,0,0-19.47,12.58c-13.42,11.59-20.78,25.84-24.79,38.71A199.34,199.34,0,0,0,200,401Z"/><path class="c" d="M199.64,275.06l-.93.14-.16,0c-6.33,1-32.21,5-53.79,8.29.87,14.1,13,41.44,84.57,44.48,41.66,1.77,60.42-17.81,70.47-35.71-.86-.42-1.73-.83-2.6-1.2A38.21,38.21,0,0,0,286,288c-2-.2-9.75-1.32-19.77-2.82C240.65,281.35,200,275,200,275l-.22,0Z"/><path class="c" d="M200,197.12l-42.25-5.5,16.31,88.74s3.66,30.76,25.94,30.76,25.94-30.76,25.94-30.76l16.31-88.74Z"/><path class="d" d="M234,206.62l-69.53,21.59,7.09,38.56c10.66,13.14,26.92,25.19,51,26.26a55,55,0,0,0,3.42-12.67l12.13-66C235.69,209.57,234,206.62,234,206.62Z"/><polygon class="e" points="167 267 167 279 151.75 273 167 267"/><polygon class="e" points="233 267 233 279 248.25 273 233 267"/><path class="b" d="M239,273a7,7,0,0,1-7,7H169a7,7,0,0,1-7-7h0a7,7,0,0,1,7-7h63a7,7,0,0,1,7,7Z"/><circle class="e" cx="200.83" cy="273" r="5.67"/><path class="f" d="M65.5,325.5s-.64-10-3.82-11.25c0,0,5.57-2,7.57,1.75,0,0,2-8.5,0-11.25,0,0,14.25,21,17.25,34,0,0-13.54,8.35-20.75,6a15.8,15.8,0,0,0,6-4.5S58,341,54.25,338l7.43-4.19S72.75,328.25,65.5,325.5Z"/><path class="c" d="M61.68,333.81l24.82,5L68.3,321.14A85.92,85.92,0,0,0,61.68,333.81Z"/><path class="b" d="M237.83,358c-.33-1,23.75-75.92,23.75-75.92l11.05,1.59-1,74.33Z"/><path class="g" d="M249.13,321.08c-.66,2.11-1.33,4.21-2,6.28a73.54,73.54,0,0,0,25-7.43l.08-6A72.72,72.72,0,0,1,249.13,321.08Z"/><path class="f" d="M149.33,325s88,39.37,146.34-9.29C295.67,315.67,273,384.59,149.33,325Z"/><path class="c" d="M137,159.62s-21.31-13.5-19.1,14.5,19.1,26,19.1,26Z"/><path class="c" d="M263,159.62s21.31-13.5,19.1,14.5-19.1,26-19.1,26Z"/><path class="h" d="M200,87.38c-63,0-63,34.74-63,34.74v80c0,20.5,19.24,36.29,35.23,50,13.4,11.5,27.77,11,27.77,11s14.37.5,27.77-11c16-13.71,35.23-29.5,35.23-50v-80S263,87.38,200,87.38Z"/><path class="b" d="M136.15,195.08a5.08,5.08,0,1,1-5.07-5.08A5.07,5.07,0,0,1,136.15,195.08Z"/><circle class="e" cx="121.63" cy="180.63" r="2.38"/><path class="e" d="M131.59,161.2a2.8,2.8,0,1,1-2.79-2.79A2.79,2.79,0,0,1,131.59,161.2Z"/><path class="e" d="M114.45,170.39l8.38,3.5c1.51.63,3.3-.67,3.69-2.09a3.08,3.08,0,0,0-2.1-3.69l-8.37-3.5c-1.51-.63-3.3.67-3.69,2.09a3.06,3.06,0,0,0,2.09,3.69Z"/><path class="g" d="M200.47,63.38c-37.33,0-68,12.35-68,49.23,0,38.18,5,47,5,47s5-20.83,13.67-23.83,7.08-18.33,7.08-18.33,28.92,4,42.25,4,42.25-4,42.25-4-1.58,15.33,7.09,18.33,13.66,23.83,13.66,23.83,5-8.83,5-47C268.47,75.73,237.81,63.38,200.47,63.38Z"/><path class="b" d="M145.33,124.2S178,149.67,188.67,172c0,0-4.67-23-6.34-26,0,0,21,30,24,48,0,0,.21-34.33-5.06-41.33,0,0,30.15,66,30.32,81,0,0,5.26-51.34,0-62,0,0,29.08,50.66,31.41,70.66,0,0,58-189.33-42-202s-84,47.05-84,47.05S113.67,107.67,145.33,124.2Z"/><path class="f" d="M133.85,115.86a28,28,0,0,1,5.84-7.66s-15.4-57.48,80.85-45.29c57.29,7.26,60.7,74.78,54.07,128.24C284.17,134.1,287,48.7,221,40.33c-100-12.66-84,47.05-84,47.05S120.7,101.56,133.85,115.86Z"/><path class="f" d="M146,96s88.26,39.82,98.33,113.67C244.33,209.67,225.33,68.33,146,96Z"/><path class="f" d="M149,111.5s19.82,13.17,19.41,52.17C168.41,163.67,156.33,130,149,111.5Z"/><path class="f" d="M149,86s87.33-32.59,114,65C263,151,238.67,21,149,86Z"/></svg>