<svg xmlns="http://www.w3.org/2000/svg" viewBox="0 0 400 401.12"><defs><style>.a{fill:#8cc152;}.b{fill:#b54331;}.c{fill:#434a54;}.d{fill:#ab7049;}.e{fill:#8c5c3c;}.f{fill:#e9573f;}.g{fill:#fc5e44;}.h{fill:#ba7a50;}</style></defs><title>avatar20</title><circle class="a" cx="200" cy="200" r="200"/><path class="b" d="M246.63,278.17s-29.5-1.61-43.66-2.51a3.29,3.29,0,0,0-1.61-.29l-1.36.1-1.36-.1a3.29,3.29,0,0,0-1.61.29c-14.16.9-43.66,2.51-43.66,2.51L139,301l9,21H252l9-21Z"/><path class="c" d="M316.67,303.79c-7.35-6.36-19.37-14.56-30.67-15.67-7.26-.71-86-13-86-13s-78.74,12.29-86,13c-11.3,1.11-23.32,9.31-30.67,15.67-13.41,11.6-20.78,25.84-24.79,38.71a200,200,0,0,0,282.92,0C337.45,329.63,330.08,315.39,316.67,303.79Z"/><path class="d" d="M200,197.12l-42.25-5.5,16.31,88.74s3.66,30.76,25.94,30.76,25.94-30.76,25.94-30.76l16.31-88.74Z"/><path class="e" d="M234,206.62l-69.53,21.59,7.09,38.56c10.66,13.14,26.92,25.19,51,26.26a55,55,0,0,0,3.42-12.67l12.13-66C235.69,209.57,234,206.62,234,206.62Z"/><path class="f" d="M246.8,278c3.84,21.83-4,58.52-46.8,59.1-42.77-.58-50.64-37.27-46.8-59.1C122.45,275.12,88,296,88,296c17.63,31.5,20.5,59.06,17.32,81.2a200.23,200.23,0,0,0,189.36,0c-3.18-22.14-.31-49.7,17.32-81.2C312,296,277.55,275.12,246.8,278Z"/><path class="g" d="M200,401a199.08,199.08,0,0,0,90.62-21.69c-.73-25.4,5.07-59.39,17.33-82.16-7.72-4.22-32-16.42-55.17-16.42-.85,0-1.7,0-2.54,0,1.51,12.91-.7,30-11.22,42.7-9,10.8-22.06,16.39-39.06,16.62-16.92-.23-30-5.82-39-16.62-10.52-12.71-12.73-29.79-11.22-42.7-.84,0-1.69,0-2.54,0-23.16,0-47.45,12.2-55.17,16.42,12.26,22.77,18.06,56.76,17.33,82.16A199.08,199.08,0,0,0,200,401Z"/><path class="d" d="M137,159.62s-21.31-13.5-19.1,14.5,19.1,26,19.1,26Z"/><path class="d" d="M263,159.62s21.31-13.5,19.1,14.5-19.1,26-19.1,26Z"/><path class="h" d="M200,81c-63,0-63,41.12-63,41.12v80c0,20.5,19.24,36.29,35.23,50,13.4,11.5,27.77,11,27.77,11s14.37.5,27.77-11c16-13.71,35.23-29.5,35.23-50v-80S263,81,200,81Z"/><path class="c" d="M200,63.5c-64.56,0-65,42.14-65,42.14v82a34.54,34.54,0,0,0,2,11.47V135.61l62-28.11L263,131v68.07a34.48,34.48,0,0,0,2-11.46v-82S264.56,63.5,200,63.5Z"/><path class="f" d="M276.86,136.15c-4.67-9-11.91-16.27-19.11-21.8C240.62,101.19,220.4,96.27,200.5,96h-1c-19.9.27-40.12,5.19-57.25,18.35-7.2,5.53-14.44,12.83-19.11,21.8C115.93,150,133.63,162.78,140.79,149l0,0c.58-.88,1.19-1.73,1.81-2.56a61.66,61.66,0,0,1,4.3-5c.35-.38.72-.75,1.08-1.12l0,0,.32-.3c1.13-1,2.29-2,3.47-3,13.9-11.29,30.88-15.31,48.19-15.47,17.31.16,34.29,4.18,48.19,15.47,1.18.95,2.34,1.92,3.47,3l.32.3,0,0c.36.37.73.74,1.08,1.12a61.66,61.66,0,0,1,4.3,5c.62.83,1.23,1.68,1.81,2.56l0,0C266.37,162.78,284.07,150,276.86,136.15ZM141.36,148Zm117.28,0Z"/><path class="g" d="M123.14,140.88c4.67-9,11.91-16.27,19.11-21.8,17.13-13.16,37.35-18.08,57.25-18.34l.3,0h.4l.3,0c19.9.26,40.12,5.18,57.25,18.34,7.2,5.53,14.44,12.83,19.11,21.8a15.41,15.41,0,0,1,1.18,3,13.49,13.49,0,0,0-1.18-10.16c-4.67-9-11.91-16.27-19.11-21.8C240.62,98.77,220.4,93.84,200.5,93.58l-.3,0h-.4l-.3,0c-19.9.26-40.12,5.19-57.25,18.34-7.2,5.53-14.44,12.83-19.11,21.8A13.49,13.49,0,0,0,122,143.88,15.41,15.41,0,0,1,123.14,140.88Z"/></svg>