<svg xmlns="http://www.w3.org/2000/svg" viewBox="0 0 400 400.12"><defs><style>.a{fill:#f6bb42;}.b{fill:#434a54;}.c{fill:#f9e0a8;}.d{fill:#d9c392;}.e{fill:#f5f7fa;}.f{fill:#656d78;}.g{fill:#aab2bd;}.h{fill:#da4453;}.i{fill:#ffe9ba;}.j{fill:#e8eaed;}</style></defs><title>avatar11</title><circle class="a" cx="200" cy="200" r="200"/><path class="b" d="M316.67,302.79c-7.35-6.36-19.37-14.56-30.67-15.67-7.26-.71-86-13-86-13s-78.74,12.29-86,13c-11.3,1.11-23.32,9.31-30.67,15.67-13.42,11.6-20.78,25.84-24.79,38.71a200,200,0,0,0,282.92,0C337.45,328.63,330.09,314.39,316.67,302.79Z"/><path class="c" d="M200,196.12l-42.25-5.5,16.31,88.74s3.66,30.76,25.94,30.76,25.94-30.76,25.94-30.76l16.31-88.74Z"/><path class="d" d="M234,205.62l-69.53,21.59,7.09,38.56c10.66,13.14,26.92,25.19,51,26.26a55,55,0,0,0,3.42-12.67l12.13-66C235.69,208.57,234,205.62,234,205.62Z"/><path class="e" d="M227.63,270.34c-9.46,9.47-27.63,12.78-27.63,12.78s-18.17-3.31-27.63-12.78l-4,8.77L200,395.83l31.63-116.72Z"/><path class="f" d="M228.45,272.14l3.18,7L200,395.83,168.37,279.11l3.18-7c-34.55,7-12.3,68.48-12.3,68.48l10-3.5-6.37,10.25L200,397.83l37.12-50.46-6.37-10.25,10,3.5S263,279.12,228.45,272.14Z"/><polygon class="g" points="179.47 320.06 200 343.37 220.53 320.06 200 395.83 179.47 320.06"/><path class="h" d="M225.09,283.13c.07-2.75-1.85-3.93-4.27-2.61l-7.11,3.86c-2.42,1.31-4.35,2-4.3,1.5s-2.16-.88-4.91-.88h-9c-2.75,0-5,.43-4.91.88s-1.88-.22-4.3-1.53l-7.11-3.85c-2.42-1.31-4.34-.13-4.27,2.62l.61,23.49c.07,2.75,2,3.83,4.39,2.39l8.14-5c2.34-1.43,4.3-2.28,4.36-1.81s2.34.79,5.09.79h5c2.75,0,5-.32,5.09-.79s2,.35,4.36,1.78l8.14,5c2.34,1.43,4.32.37,4.39-2.38Z"/><path class="c" d="M137,159.62s-21.31-13.5-19.1,14.5,19.1,26,19.1,26Z"/><path class="c" d="M263,159.62s21.31-13.5,19.1,14.5-19.1,26-19.1,26Z"/><path class="i" d="M200,87.38c-63,0-63,34.74-63,34.74v80c0,20.5,19.24,36.29,35.23,50,13.4,11.5,27.77,11,27.77,11s14.37.5,27.77-11c16-13.71,35.23-29.5,35.23-50v-80S263,87.38,200,87.38Z"/><path class="a" d="M234.92,191.87a20.31,20.31,0,1,1,20.3-20.3A20.33,20.33,0,0,1,234.92,191.87Z"/><path class="a" d="M234.17,191.87a236,236,0,0,0,4,28A103.54,103.54,0,0,0,244,239.93c1.66,3.91,4.26,9,8.54,10.65,18.52,6.95,15.1-41.83,14.27-50.46-.1-1-1.6-1-1.5,0a167.67,167.67,0,0,1,.52,24.65c-.31,5.95-2.47,31.07-14.12,23.68-4.21-2.67-6.34-8.74-7.92-13.16A124,124,0,0,1,239,216.6a228.81,228.81,0,0,1-3.35-24.73c-.08-1-1.58-1-1.5,0Z"/><path class="e" d="M216.61,171.57a18.31,18.31,0,1,0,18.31-18.31A18.3,18.3,0,0,0,216.61,171.57Z"/><path class="j" d="M235.11,153.26a18.47,18.47,0,0,0-5,.7L219.87,181.7a18.31,18.31,0,0,0,10,7.41l12.68-34.24A18.2,18.2,0,0,0,235.11,153.26Z"/><path class="j" d="M244.38,155.8l-12.5,33.77a18.13,18.13,0,0,0,3.23.3,18.73,18.73,0,0,0,4.33-.53L250,160.89A18.36,18.36,0,0,0,244.38,155.8Z"/><path class="b" d="M268.08,102.25C267.83,84.75,248.84,89,248.84,89s-27.5-54.39-82.43-29.84c-34.21,15.29-34.39,29.3-29,38-.09.34-.36.68-.36,1v70l6.24-8s9.31-11,3.48-54c0,0,31.19,5,54.69,5S254.08,106,254.08,106c-6.89,42.33,3.14,54,3.14,54l5.78,8V125.2C266,121.4,268.25,113.84,268.08,102.25Z"/><path class="f" d="M238,108.41c-1.87-12.24-9.95-45.92-42.31-45.12,0,0,32.17,11.83,31,38,0,0-30.47-33.84-56.5-31.33,0,0,32.5,8.33,36.17,33.5,0,0-26.5-32.84-65.34-21.67,0,0,43.34,4.33,48.75,25.5,0,0-29.44-21.24-53.16-12.18q.33.7.72,1.38c7.75.31,25.63,2.25,37.22,13.11,8.75.85,18.37,1.52,27,1.52A304.21,304.21,0,0,0,238,108.41Z"/><path class="f" d="M250.47,98.46s13.35-5.44,16.76,16C267.23,114.41,265.64,86,250.47,98.46Z"/></svg>