<svg xmlns="http://www.w3.org/2000/svg" viewBox="0 0 400 422.83"><defs><style>.a{fill:#e9573f;}.b{fill:#434a54;}.c{fill:#656d78;}.d{fill:#f5f7fa;}.e{fill:#e6e9ed;}.f{fill:#bec0c2;}.g{fill:none;}.h{fill:#f9e0a8;}.i{fill:#d9c392;}.j{fill:#ffe9ba;}</style></defs><title>avatar14</title><circle class="a" cx="200" cy="222.71" r="200"/><path class="b" d="M316.67,325.5c-7.35-6.36-19.37-14.56-30.67-15.67-7.26-.71-86-13-86-13s-78.74,12.29-86,13c-11.3,1.11-23.32,9.31-30.67,15.67-13.42,11.6-20.78,25.84-24.79,38.71a200,200,0,0,0,282.92,0C337.45,351.34,330.09,337.1,316.67,325.5Z"/><path class="c" d="M83.33,354.5c7.35-6.36,19.37-14.56,30.67-15.67,7.26-.71,86-13,86-13s78.74,12.29,86,13c11.3,1.11,23.32,9.31,30.67,15.67a79.06,79.06,0,0,1,15.59,18.34c3.15-2.78,6.23-5.65,9.2-8.63-4-12.87-11.37-27.11-24.79-38.71-7.35-6.36-19.37-14.56-30.67-15.67-7.26-.71-86-13-86-13s-78.74,12.29-86,13c-11.3,1.11-23.32,9.31-30.67,15.67-13.42,11.6-20.78,25.84-24.79,38.71,3,3,6.05,5.85,9.2,8.63A79.06,79.06,0,0,1,83.33,354.5Z"/><polygon class="d" points="165.25 304.33 171.85 300.89 198 296.83 241.5 304.33 203.38 410.58 176.25 396.08 165.25 304.33"/><path class="e" d="M235.83,303.58l.22-1.17c-19-2.91-36.05-5.58-36.05-5.58s-17.07,2.67-36.05,5.58l.22,1.17c1.74,13.77,11.38,39.25,35.83,39.25S234.09,317.35,235.83,303.58Z"/><polygon class="f" points="65.46 367.15 64.78 368.82 63.94 368.49 64.64 366.8 65.46 367.15"/><polygon class="f" points="66.56 364.68 65.82 366.33 65 365.97 65.74 364.31 66.56 364.68"/><polygon class="g" points="66.56 364.68 66.94 363.87 66.12 363.48 65.74 364.31 66.56 364.68"/><polygon class="g" points="64.78 368.82 64.46 369.65 63.61 369.34 63.94 368.49 64.78 368.82"/><polygon class="f" points="68.12 361.43 67.32 363.05 66.51 362.66 67.31 361.03 68.12 361.43"/><polygon class="f" points="69.36 359.02 68.52 360.63 67.72 360.22 68.56 358.6 69.36 359.02"/><polygon class="g" points="69.36 359.02 69.78 358.23 68.99 357.8 68.56 358.6 69.36 359.02"/><polygon class="g" points="67.32 363.05 66.94 363.87 66.12 363.48 66.51 362.66 67.32 363.05"/><polygon class="f" points="71.1 355.87 70.21 357.44 69.42 357 70.31 355.42 71.1 355.87"/><polygon class="f" points="72.47 353.53 71.54 355.08 70.77 354.63 71.7 353.07 72.47 353.53"/><polygon class="g" points="72.47 353.53 72.94 352.76 72.17 352.29 71.7 353.07 72.47 353.53"/><polygon class="g" points="70.21 357.44 69.78 358.23 68.99 357.8 69.42 357 70.21 357.44"/><path class="f" d="M74.39,350.48l-.5.75-.48.77-.76-.48.48-.77.5-.76Z"/><path class="f" d="M75.9,348.24l-.52.74-.5.75-.75-.5.51-.76.52-.75Z"/><polygon class="g" points="75.9 348.24 76.41 347.5 75.67 346.98 75.16 347.73 75.9 348.24"/><polygon class="g" points="73.41 352 72.94 352.76 72.17 352.29 72.65 351.52 73.41 352"/><polygon class="f" points="78 345.31 76.93 346.76 76.2 346.24 77.28 344.77 78 345.31"/><polygon class="f" points="79.65 343.17 78.55 344.59 77.83 344.05 78.95 342.61 79.65 343.17"/><polygon class="g" points="79.65 343.17 80.22 342.47 79.52 341.9 78.95 342.61 79.65 343.17"/><path class="g" d="M76.93,346.76l-.26.37-.26.37-.74-.52.26-.38.27-.36Z"/><path class="f" d="M82,340.41l-.59.68-.58.69-.69-.58.58-.7.61-.68Z"/><path class="f" d="M83.77,338.41s-.31.32-.61.65l-.6.67-.67-.6.6-.68.63-.66Z"/><polygon class="g" points="83.77 338.41 84.39 337.75 83.74 337.13 83.12 337.79 83.77 338.41"/><polygon class="g" points="80.8 341.78 80.22 342.47 79.52 341.9 80.1 341.2 80.8 341.78"/><polygon class="f" points="86.3 335.84 85.01 337.1 84.37 336.47 85.67 335.19 86.3 335.84"/><polygon class="f" points="88.28 334.01 86.94 335.21 86.33 334.56 87.68 333.34 88.28 334.01"/><polygon class="g" points="88.28 334.01 88.94 333.41 88.36 332.73 87.68 333.34 88.28 334.01"/><polygon class="g" points="85.01 337.1 84.39 337.75 83.74 337.13 84.37 336.47 85.01 337.1"/><polygon class="f" points="91.02 331.69 89.64 332.83 89.06 332.14 90.47 330.98 91.02 331.69"/><polygon class="f" points="93.18 330.07 91.74 331.15 91.2 330.44 92.66 329.34 93.18 330.07"/><polygon class="g" points="93.18 330.07 93.92 329.57 93.41 328.83 92.66 329.34 93.18 330.07"/><polygon class="g" points="89.64 332.83 88.94 333.41 88.36 332.73 89.06 332.14 89.64 332.83"/><path class="f" d="M96.18,328.1l-.77.47-.74.5-.5-.75.76-.51.78-.47Z"/><path class="f" d="M98.51,326.76l-.79.42-.77.46-.46-.77.79-.47.8-.43Z"/><polygon class="g" points="98.51 326.76 99.31 326.34 98.89 325.54 98.08 325.97 98.51 326.76"/><polygon class="g" points="94.67 329.07 93.92 329.57 93.41 328.83 94.17 328.32 94.67 329.07"/><path class="f" d="M101.73,325.19l-.82.36c-.41.18-.81.38-.81.38l-.39-.81.82-.38.84-.38Z"/><path class="f" d="M104.22,324.18l-.84.31-.57.22-.26.11-.35-.83.26-.12.59-.22.86-.32Z"/><polygon class="g" points="104.22 324.18 105.06 323.87 104.77 323.01 103.91 323.33 104.22 324.18"/><polygon class="g" points="100.1 325.93 99.31 326.34 98.89 325.54 99.7 325.12 100.1 325.93"/><polygon class="f" points="107.63 323.08 105.91 323.59 105.64 322.73 107.39 322.21 107.63 323.08"/><polygon class="f" points="110.26 322.42 108.5 322.84 108.27 321.97 110.04 321.55 110.26 322.42"/><polygon class="g" points="110.26 322.42 111.14 322.21 110.92 321.34 110.04 321.55 110.26 322.42"/><path class="g" d="M105.91,323.59l-.43.12c-.21.07-.42.16-.42.16l-.29-.86.43-.15.44-.13Z"/><polygon class="f" points="113.78 321.59 112.02 322 111.8 321.13 113.57 320.71 113.78 321.59"/><polygon class="f" points="116.41 320.96 114.66 321.38 114.45 320.5 116.21 320.08 116.41 320.96"/><polygon class="g" points="116.41 320.96 117.29 320.75 117.1 319.87 116.21 320.08 116.41 320.96"/><polygon class="g" points="112.02 322 111.14 322.21 110.92 321.34 111.8 321.13 112.02 322"/><polygon class="f" points="119.93 320.12 118.17 320.54 117.98 319.66 119.74 319.24 119.93 320.12"/><polygon class="f" points="122.59 319.6 120.82 319.95 120.63 319.07 122.41 318.71 122.59 319.6"/><polygon class="g" points="122.59 319.6 123.48 319.42 123.3 318.54 122.41 318.71 122.59 319.6"/><polygon class="g" points="118.17 320.54 117.29 320.75 117.1 319.87 117.98 319.66 118.17 320.54"/><rect class="f" x="124.26" y="318.18" width="1.81" height="0.9" transform="translate(-59.55 30.41) rotate(-11.21)"/><polygon class="f" points="128.8 318.37 127.03 318.72 126.86 317.84 128.64 317.48 128.8 318.37"/><polygon class="g" points="128.8 318.37 129.69 318.19 129.53 317.31 128.64 317.48 128.8 318.37"/><polygon class="g" points="124.37 319.25 123.48 319.42 123.3 318.54 124.19 318.36 124.37 319.25"/><path class="f" d="M132.36,317.71l-.89.15c-.45.07-.89.16-.89.16l-.16-.89s.44-.09.89-.16l.9-.14Z"/><polygon class="f" points="135.04 317.28 133.25 317.57 133.1 316.68 134.89 316.39 135.04 317.28"/><rect class="g" x="134.96" y="316.31" width="0.91" height="0.9" transform="translate(-49.51 26.11) rotate(-9.32)"/><polygon class="g" points="130.58 318.02 129.69 318.19 129.53 317.31 130.42 317.13 130.58 318.02"/><polygon class="f" points="138.61 316.69 136.82 316.99 136.68 316.1 138.47 315.81 138.61 316.69"/><path class="f" d="M141.29,316.27l-.9.13-.89.15-.14-.89.9-.15.89-.13Z"/><polygon class="g" points="141.28 316.27 142.18 316.15 142.05 315.25 141.15 315.38 141.28 316.27"/><polygon class="g" points="136.82 316.99 135.93 317.13 135.78 316.24 136.68 316.1 136.82 316.99"/><polygon class="f" points="144.87 315.79 143.08 316.03 142.95 315.13 144.75 314.9 144.87 315.79"/><polygon class="f" points="147.56 315.43 145.77 315.67 145.65 314.78 147.45 314.54 147.56 315.43"/><polygon class="g" points="147.56 315.43 148.46 315.31 148.35 314.42 147.45 314.54 147.56 315.43"/><polygon class="g" points="143.08 316.03 142.18 316.15 142.05 315.25 142.95 315.13 143.08 316.03"/><path class="f" d="M151.15,315l-.9.09-.9.11-.11-.89s.45-.07.9-.11l.91-.1Z"/><rect class="f" x="151.99" y="313.9" width="1.81" height="0.9" transform="translate(-32.56 18.04) rotate(-6.11)"/><rect class="g" x="153.8" y="313.75" width="0.9" height="0.9" transform="translate(-32.41 18.11) rotate(-6.08)"/><polygon class="g" points="149.35 315.19 148.46 315.31 148.35 314.42 149.24 314.3 149.35 315.19"/><path class="f" d="M157.44,314.32l-.9.09-.9.1-.09-.9.91-.09.9-.09Z"/><rect class="f" x="158.3" y="313.27" width="1.81" height="0.9" transform="translate(-25.53 14.32) rotate(-4.77)"/><rect class="g" x="160.11" y="313.16" width="0.91" height="0.9" transform="translate(-25.54 14.45) rotate(-4.77)"/><polygon class="g" points="155.64 314.51 154.74 314.6 154.65 313.71 155.56 313.61 155.64 314.51"/><path class="f" d="M163.75,313.82l-.9.06-.9.07-.07-.9.9-.07.91-.06Z"/><polygon class="f" points="166.45 313.65 164.65 313.76 164.59 312.87 166.41 312.76 166.45 313.65"/><polygon class="g" points="166.45 313.65 167.35 313.61 167.32 312.71 166.41 312.76 166.45 313.65"/><polygon class="g" points="161.94 313.95 161.04 314.02 160.97 313.13 161.88 313.05 161.94 313.95"/><polygon class="f" points="335.37 366.8 336.06 368.49 335.22 368.82 334.54 367.15 335.37 366.8"/><polygon class="f" points="334.26 364.31 335 365.97 334.18 366.33 333.44 364.68 334.26 364.31"/><polygon class="g" points="334.26 364.31 333.88 363.48 333.06 363.87 333.44 364.68 334.26 364.31"/><polygon class="g" points="336.06 368.49 336.39 369.34 335.54 369.65 335.22 368.82 336.06 368.49"/><polygon class="f" points="332.69 361.03 333.49 362.66 332.68 363.05 331.88 361.43 332.69 361.03"/><polygon class="f" points="331.44 358.6 332.28 360.22 331.48 360.63 330.64 359.02 331.44 358.6"/><polygon class="g" points="331.44 358.6 331.01 357.8 330.22 358.23 330.64 359.02 331.44 358.6"/><polygon class="g" points="333.49 362.66 333.88 363.48 333.06 363.87 332.68 363.05 333.49 362.66"/><polygon class="f" points="329.69 355.42 330.57 357 329.79 357.44 328.9 355.87 329.69 355.42"/><polygon class="f" points="328.3 353.07 329.23 354.63 328.46 355.08 327.53 353.53 328.3 353.07"/><polygon class="g" points="328.3 353.07 327.83 352.29 327.06 352.76 327.53 353.53 328.3 353.07"/><polygon class="g" points="330.57 357 331.01 357.8 330.22 358.23 329.79 357.44 330.57 357"/><path class="f" d="M326.37,350l.5.76.48.77-.76.48-.48-.77-.5-.75Z"/><path class="f" d="M324.84,347.72l.52.75.51.76-.75.5-.5-.75-.52-.74Z"/><polygon class="g" points="324.84 347.73 324.33 346.98 323.59 347.5 324.1 348.24 324.84 347.73"/><polygon class="g" points="327.35 351.52 327.83 352.29 327.06 352.76 326.59 352 327.35 351.52"/><polygon class="f" points="322.72 344.77 323.8 346.24 323.07 346.76 322 345.31 322.72 344.77"/><polygon class="f" points="321.05 342.61 322.17 344.05 321.45 344.59 320.35 343.17 321.05 342.61"/><polygon class="g" points="321.05 342.61 320.48 341.9 319.78 342.47 320.35 343.17 321.05 342.61"/><path class="g" d="M323.8,346.24l.27.36.26.38-.74.52-.26-.37-.26-.37Z"/><path class="f" d="M318.71,339.82l.61.68.58.7-.69.58-.58-.69-.59-.68Z"/><path class="f" d="M316.88,337.79l.63.66.6.68-.67.6-.6-.67c-.3-.33-.61-.65-.61-.65Z"/><polygon class="g" points="316.88 337.79 316.26 337.13 315.61 337.75 316.23 338.41 316.88 337.79"/><polygon class="g" points="319.9 341.2 320.48 341.9 319.78 342.47 319.2 341.78 319.9 341.2"/><polygon class="f" points="314.33 335.19 315.63 336.47 314.99 337.1 313.7 335.84 314.33 335.19"/><polygon class="f" points="312.32 333.34 313.67 334.56 313.06 335.21 311.72 334.01 312.32 333.34"/><polygon class="g" points="312.32 333.34 311.64 332.73 311.06 333.41 311.72 334.01 312.32 333.34"/><polygon class="g" points="315.63 336.47 316.26 337.13 315.61 337.75 314.99 337.1 315.63 336.47"/><polygon class="f" points="309.53 330.98 310.94 332.14 310.36 332.83 308.98 331.69 309.53 330.98"/><polygon class="f" points="307.34 329.34 308.8 330.44 308.26 331.15 306.82 330.07 307.34 329.34"/><polygon class="g" points="307.34 329.34 306.59 328.83 306.08 329.57 306.82 330.07 307.34 329.34"/><polygon class="g" points="310.94 332.14 311.64 332.73 311.06 333.41 310.36 332.83 310.94 332.14"/><path class="f" d="M304.29,327.34l.78.47.76.51-.5.75-.74-.5-.77-.47Z"/><path class="f" d="M301.92,326l.8.43.79.47-.46.77-.77-.46-.79-.42Z"/><polygon class="g" points="301.92 325.97 301.11 325.54 300.69 326.34 301.49 326.76 301.92 325.97"/><polygon class="g" points="305.83 328.32 306.59 328.83 306.08 329.57 305.33 329.07 305.83 328.32"/><path class="f" d="M298.63,324.36l.84.38.82.38-.39.81s-.4-.2-.81-.38l-.82-.36Z"/><path class="f" d="M296.09,323.33l.86.32.59.22.26.12-.35.83-.26-.11-.57-.22-.84-.31Z"/><polygon class="g" points="296.09 323.33 295.23 323.01 294.94 323.87 295.78 324.18 296.09 323.33"/><polygon class="g" points="300.3 325.12 301.11 325.54 300.69 326.34 299.9 325.93 300.3 325.12"/><polygon class="f" points="292.61 322.21 294.36 322.73 294.09 323.59 292.37 323.08 292.61 322.21"/><polygon class="f" points="289.96 321.55 291.73 321.97 291.5 322.84 289.74 322.42 289.96 321.55"/><polygon class="g" points="289.96 321.55 289.08 321.34 288.86 322.21 289.74 322.42 289.96 321.55"/><path class="g" d="M294.36,322.73l.44.13.43.15-.29.86s-.21-.09-.42-.16l-.43-.12Z"/><polygon class="f" points="286.43 320.71 288.2 321.13 287.98 322 286.23 321.59 286.43 320.71"/><polygon class="f" points="283.79 320.08 285.55 320.5 285.35 321.38 283.59 320.96 283.79 320.08"/><polygon class="g" points="283.79 320.08 282.9 319.87 282.71 320.75 283.59 320.96 283.79 320.08"/><polygon class="g" points="288.2 321.13 289.08 321.34 288.86 322.21 287.98 322 288.2 321.13"/><polygon class="f" points="280.26 319.24 282.02 319.66 281.83 320.54 280.07 320.12 280.26 319.24"/><polygon class="f" points="277.59 318.71 279.37 319.07 279.18 319.95 277.41 319.6 277.59 318.71"/><polygon class="g" points="277.59 318.71 276.7 318.54 276.52 319.42 277.41 319.6 277.59 318.71"/><polygon class="g" points="282.02 319.66 282.9 319.87 282.71 320.75 281.83 320.54 282.02 319.66"/><rect class="f" x="274.38" y="317.72" width="0.9" height="1.81" transform="translate(-91.05 526.44) rotate(-78.82)"/><polygon class="f" points="271.36 317.48 273.14 317.84 272.97 318.72 271.2 318.37 271.36 317.48"/><polygon class="g" points="271.36 317.48 270.47 317.31 270.31 318.19 271.2 318.37 271.36 317.48"/><polygon class="g" points="275.81 318.36 276.7 318.54 276.52 319.42 275.63 319.25 275.81 318.36"/><path class="f" d="M267.79,316.83l.9.14c.45.07.89.16.89.16l-.16.89s-.44-.09-.89-.16l-.89-.15Z"/><polygon class="f" points="265.11 316.39 266.9 316.68 266.75 317.57 264.96 317.28 265.11 316.39"/><rect class="g" x="264.14" y="316.31" width="0.9" height="0.91" transform="translate(-90.5 527.12) rotate(-80.77)"/><polygon class="g" points="269.58 317.13 270.47 317.31 270.31 318.19 269.42 318.02 269.58 317.13"/><polygon class="f" points="261.53 315.81 263.32 316.1 263.18 316.99 261.39 316.69 261.53 315.81"/><path class="f" d="M258.85,315.38l.89.13.9.15-.14.89-.89-.15-.9-.13Z"/><polygon class="g" points="258.85 315.38 257.95 315.25 257.82 316.15 258.71 316.27 258.85 315.38"/><polygon class="g" points="263.32 316.1 264.22 316.24 264.07 317.13 263.18 316.99 263.32 316.1"/><polygon class="f" points="255.25 314.9 257.05 315.13 256.92 316.03 255.13 315.79 255.25 314.9"/><polygon class="f" points="252.55 314.54 254.35 314.78 254.23 315.67 252.44 315.43 252.55 314.54"/><polygon class="g" points="252.55 314.54 251.65 314.42 251.54 315.31 252.44 315.43 252.55 314.54"/><polygon class="g" points="257.05 315.13 257.95 315.25 257.82 316.15 256.92 316.03 257.05 315.13"/><path class="f" d="M249,314.09l.91.1c.45,0,.9.11.9.11l-.11.89-.9-.11-.9-.09Z"/><rect class="f" x="246.65" y="313.44" width="0.9" height="1.81" transform="translate(-91.68 526.71) rotate(-83.91)"/><rect class="g" x="245.3" y="313.75" width="0.9" height="0.9" transform="translate(-92.64 525.41) rotate(-83.94)"/><polygon class="g" points="250.76 314.3 251.65 314.42 251.54 315.31 250.65 315.19 250.76 314.3"/><path class="f" d="M242.64,313.43l.9.09.91.09-.09.9-.9-.1-.9-.09Z"/><rect class="f" x="240.35" y="312.82" width="0.9" height="1.81" transform="translate(-91.82 527.68) rotate(-85.24)"/><rect class="g" x="238.99" y="313.16" width="0.9" height="0.91" transform="translate(-93.17 525.87) rotate(-85.18)"/><polygon class="g" points="244.44 313.61 245.35 313.71 245.26 314.6 244.36 314.51 244.44 313.61"/><path class="f" d="M236.31,312.92l.91.06.9.07-.07.9-.9-.07-.9-.06Z"/><polygon class="f" points="233.59 312.76 235.41 312.87 235.35 313.76 233.55 313.65 233.59 312.76"/><polygon class="g" points="233.59 312.76 232.68 312.71 232.65 313.61 233.55 313.65 233.59 312.76"/><polygon class="g" points="238.12 313.05 239.03 313.13 238.96 314.02 238.06 313.95 238.12 313.05"/><path class="h" d="M200,218.83l-42.25-5.5,16.31,88.73s3.66,30.77,25.94,30.77,25.94-30.77,25.94-30.77l16.31-88.73Z"/><path class="i" d="M234,228.33l-69.53,21.59,7.09,38.56c10.66,13.14,26.92,25.18,51,26.26a55,55,0,0,0,3.42-12.68l12.13-66C235.69,231.28,234,228.33,234,228.33Z"/><path class="c" d="M173.86,300.89l-2.76-15.06s-57.07-4-47.41,78c0,0,27.34-12,32-8.67S137,372.5,137,372.5s18,39.66,63,39.66v-6.33S173.86,401.29,173.86,300.89Z"/><polygon class="f" points="143.57 372.33 142.08 373.28 141.6 372.52 143.08 371.57 143.57 372.33"/><polygon class="f" points="145.78 370.87 144.31 371.85 143.82 371.09 145.28 370.12 145.78 370.87"/><rect class="g" x="145.45" y="369.8" width="0.88" height="0.9" transform="translate(-183.29 146.63) rotate(-34.3)"/><polygon class="g" points="142.08 373.28 141.33 373.75 140.85 372.98 141.6 372.52 142.08 373.28"/><polygon class="f" points="148.69 368.85 147.24 369.87 146.73 369.13 148.16 368.12 148.69 368.85"/><polygon class="f" points="150.82 367.26 149.4 368.33 148.87 367.6 150.27 366.55 150.82 367.26"/><polygon class="g" points="150.82 367.26 151.52 366.72 150.96 366.01 150.27 366.55 150.82 367.26"/><polygon class="g" points="147.24 369.87 146.51 370.37 146 369.63 146.73 369.13 147.24 369.87"/><polygon class="f" points="153.58 365.03 152.21 366.17 151.65 365.47 152.99 364.35 153.58 365.03"/><path class="f" d="M155.54,363.22c-.43.41-.85.83-1.3,1.22l-.6-.67c.44-.38.85-.79,1.27-1.19Z"/><path class="g" d="M155.54,363.22c.22-.21.43-.42.63-.64l-.65-.62c-.19.21-.4.42-.61.62Z"/><polygon class="g" points="152.21 366.17 151.52 366.72 150.96 366.01 151.65 365.47 152.21 366.17"/><path class="f" d="M157.92,360.52c-.36.49-.75,1-1.14,1.4l-.67-.6c.38-.43.74-.87,1.08-1.33Z"/><path class="f" d="M159.27,358.12l-.16.44-.22.41a8.74,8.74,0,0,1-.45.8l-.76-.48c.16-.23.27-.49.41-.73l.2-.37.13-.38Z"/><path class="g" d="M159.27,358.12a4,4,0,0,0,.26-.92l-.88-.16a3.22,3.22,0,0,1-.23.77Z"/><polygon class="g" points="156.78 361.92 156.17 362.58 155.52 361.96 156.11 361.32 156.78 361.92"/><path class="f" d="M159.25,354.35a5,5,0,0,1,.39,1.89h-.9a4,4,0,0,0-.32-1.54Z"/><path class="f" d="M157.37,352.18a4.93,4.93,0,0,1,1.41,1.32L158,354a4,4,0,0,0-1.15-1.08Z"/><path class="g" d="M157.37,352.18a5.16,5.16,0,0,0-.84-.44l-.35.83a4.34,4.34,0,0,1,.71.37Z"/><path class="g" d="M159.64,356.24a6.27,6.27,0,0,1-.11,1l-.88-.16a5.31,5.31,0,0,0,.09-.79Z"/><path class="f" d="M153.81,351.15a9.65,9.65,0,0,1,1.83.28l-.24.87a8.12,8.12,0,0,0-1.64-.25Z"/><path class="f" d="M151.1,351.25c.59-.08,1.2-.08,1.8-.11v.9a16.37,16.37,0,0,0-1.72.11Z"/><polygon class="g" points="151.1 351.25 150.21 351.36 150.33 352.25 151.19 352.15 151.1 351.25"/><path class="g" d="M155.64,351.43a7.22,7.22,0,0,1,.89.31l-.35.83a5.13,5.13,0,0,0-.78-.27Z"/><path class="f" d="M147.58,351.84c.57-.13,1.16-.25,1.74-.34l.15.89q-.85.14-1.71.33Z"/><polygon class="f" points="144.98 352.45 146.71 352.02 146.91 352.9 145.21 353.32 144.98 352.45"/><polygon class="g" points="144.98 352.45 144.13 352.68 144.36 353.55 145.21 353.32 144.98 352.45"/><polygon class="g" points="149.32 351.5 150.21 351.36 150.33 352.25 149.47 352.39 149.32 351.5"/><polygon class="f" points="141.57 353.41 143.27 352.91 143.52 353.78 141.84 354.27 141.57 353.41"/><polygon class="f" points="139.04 354.21 140.73 353.68 141 354.54 139.33 355.07 139.04 354.21"/><polygon class="g" points="139.04 354.21 138.21 354.5 138.49 355.35 139.33 355.07 139.04 354.21"/><polygon class="g" points="143.27 352.91 144.13 352.68 144.36 353.55 143.52 353.78 143.27 352.91"/><polygon class="f" points="135.7 355.36 137.37 354.78 137.66 355.63 136 356.21 135.7 355.36"/><polygon class="f" points="133.21 356.27 134.87 355.66 135.18 356.51 133.52 357.11 133.21 356.27"/><polygon class="g" points="133.21 356.27 132.38 356.58 132.7 357.42 133.52 357.11 133.21 356.27"/><polygon class="g" points="137.37 354.78 138.21 354.5 138.49 355.35 137.66 355.63 137.37 354.78"/><polygon class="f" points="129.91 357.53 131.56 356.89 131.88 357.73 130.24 358.37 129.91 357.53"/><polygon class="f" points="127.45 358.51 129.09 357.85 129.42 358.69 127.79 359.34 127.45 358.51"/><rect class="g" x="126.77" y="358.64" width="0.88" height="0.9" transform="translate(-126.39 74.81) rotate(-22.23)"/><polygon class="g" points="131.56 356.89 132.38 356.58 132.7 357.42 131.88 357.73 131.56 356.89"/><polygon class="f" points="126.42 356.21 126.56 357.96 125.67 358.04 125.53 356.28 126.42 356.21"/><path class="f" d="M126.25,353.58c0,.58,0,1.17.1,1.75l-.89.06c-.06-.58-.08-1.17-.11-1.76Z"/><polygon class="g" points="126.25 353.58 126.21 352.7 125.31 352.74 125.35 353.63 126.25 353.58"/><polygon class="g" points="126.56 357.96 126.63 358.84 125.74 358.92 125.67 358.04 126.56 357.96"/><polygon class="f" points="126.08 350.06 126.17 351.82 125.27 351.86 125.18 350.09 126.08 350.06"/><polygon class="f" points="126.04 347.43 126.07 349.19 125.17 349.21 125.14 347.44 126.04 347.43"/><polygon class="g" points="126.04 347.43 126.03 346.55 125.13 346.55 125.14 347.44 126.04 347.43"/><polygon class="g" points="126.17 351.82 126.21 352.7 125.31 352.74 125.27 351.86 126.17 351.82"/><polygon class="f" points="126.06 343.91 126.02 345.67 125.12 345.67 125.16 343.89 126.06 343.91"/><polygon class="f" points="126.12 341.28 126.08 343.03 125.18 343.01 125.22 341.24 126.12 341.28"/><polygon class="g" points="126.12 341.28 126.17 340.4 125.27 340.35 125.22 341.24 126.12 341.28"/><polygon class="g" points="126.02 345.67 126.03 346.55 125.13 346.55 125.12 345.67 126.02 345.67"/><polygon class="f" points="126.33 337.77 126.22 339.52 125.33 339.47 125.43 337.7 126.33 337.77"/><polygon class="f" points="126.58 335.15 126.4 336.89 125.5 336.82 125.68 335.05 126.58 335.15"/><polygon class="g" points="126.58 335.15 126.67 334.27 125.77 334.17 125.68 335.05 126.58 335.15"/><rect class="g" x="125.31" y="339.49" width="0.88" height="0.9" transform="translate(-221.06 445.27) rotate(-86.59)"/><polygon class="f" points="127.01 331.66 126.75 333.4 125.86 333.29 126.12 331.54 127.01 331.66"/><path class="f" d="M127.41,329.06c-.12.58-.19,1.16-.28,1.74l-.89-.14c.09-.59.16-1.17.29-1.75Z"/><polygon class="g" points="127.42 329.06 127.58 328.2 126.7 328.04 126.53 328.91 127.42 329.06"/><polygon class="g" points="126.75 333.4 126.67 334.27 125.77 334.17 125.86 333.29 126.75 333.4"/><path class="f" d="M128.1,325.63c-.15.56-.23,1.14-.35,1.71l-.88-.18c.12-.57.2-1.16.36-1.73Z"/><polygon class="f" points="128.74 323.07 128.32 324.77 127.44 324.56 127.87 322.84 128.74 323.07"/><path class="g" d="M128.74,323.07c.07-.28.13-.56.23-.84l-.87-.25c-.09.28-.16.57-.23.86Z"/><polygon class="g" points="127.75 327.34 127.58 328.2 126.7 328.04 126.87 327.16 127.75 327.34"/><polygon class="f" points="129.74 319.71 129.22 321.39 128.36 321.13 128.88 319.43 129.74 319.71"/><polygon class="f" points="130.62 317.24 130.01 318.88 129.16 318.59 129.78 316.92 130.62 317.24"/><polygon class="g" points="130.62 317.24 130.93 316.42 130.09 316.09 129.78 316.92 130.62 317.24"/><polygon class="g" points="129.22 321.39 128.97 322.23 128.1 321.98 128.36 321.13 129.22 321.39"/><polygon class="f" points="131.97 314.01 131.26 315.62 130.43 315.27 131.15 313.64 131.97 314.01"/><polygon class="f" points="133.12 311.66 132.32 313.21 131.51 312.83 132.32 311.25 133.12 311.66"/><polygon class="g" points="133.12 311.66 133.52 310.89 132.74 310.45 132.32 311.25 133.12 311.66"/><path class="g" d="M131.26,315.62c-.12.26-.24.53-.34.8l-.83-.33a8.33,8.33,0,0,1,.34-.82Z"/><polygon class="f" points="134.85 308.63 133.94 310.12 133.16 309.67 134.09 308.15 134.85 308.63"/><path class="f" d="M136.3,306.45c-.33.48-.69.94-1,1.43l-.76-.49c.31-.5.68-1,1-1.46Z"/><polygon class="g" points="136.3 306.45 136.81 305.74 136.08 305.2 135.57 305.93 136.3 306.45"/><path class="g" d="M133.94,310.12c-.16.24-.28.51-.42.77l-.79-.43c.15-.26.27-.54.43-.79Z"/><polygon class="f" points="138.43 303.69 137.32 305.03 136.61 304.48 137.74 303.11 138.43 303.69"/><path class="f" d="M140.18,301.74c-.4.42-.82.83-1.19,1.27l-.68-.59c.39-.46.82-.87,1.22-1.3Z"/><polygon class="g" points="140.18 301.74 140.78 301.11 140.15 300.47 139.53 301.12 140.18 301.74"/><path class="g" d="M137.32,305c-.19.22-.34.47-.51.71l-.73-.54c.18-.24.34-.49.53-.72Z"/><polygon class="f" points="142.7 299.33 141.41 300.5 140.78 299.85 142.1 298.65 142.7 299.33"/><polygon class="f" points="144.72 297.68 143.35 298.75 142.78 298.06 144.18 296.96 144.72 297.68"/><path class="g" d="M144.72,297.67c.24-.17.45-.37.7-.52l-.53-.73c-.25.16-.47.36-.71.54Z"/><path class="g" d="M141.41,300.5a7.28,7.28,0,0,0-.63.61l-.63-.64a7.36,7.36,0,0,1,.63-.62Z"/><path class="f" d="M147.59,295.68c-.5.3-1,.65-1.45,1l-.51-.74c.49-.32,1-.68,1.48-1Z"/><path class="f" d="M149.85,294.37c-.53.25-1,.58-1.51.87l-.46-.77c.51-.3,1-.63,1.54-.89Z"/><polygon class="g" points="149.85 294.37 150.63 293.97 150.22 293.17 149.42 293.58 149.85 294.37"/><polygon class="g" points="146.14 296.65 145.42 297.15 144.89 296.42 145.63 295.92 146.14 296.65"/><path class="f" d="M153,292.85c-.53.24-1.07.47-1.59.72l-.39-.81c.53-.26,1.08-.49,1.62-.74Z"/><polygon class="f" points="155.42 291.88 153.79 292.5 153.45 291.67 155.11 291.03 155.42 291.88"/><path class="g" d="M155.42,291.88c.27-.12.55-.2.82-.29l-.28-.85c-.29.09-.57.18-.85.29Z"/><polygon class="g" points="151.4 293.57 150.63 293.97 150.22 293.17 151.01 292.76 151.4 293.57"/><path class="f" d="M158.75,290.82c-.56.16-1.13.31-1.68.5l-.27-.86c.56-.2,1.14-.34,1.71-.5Z"/><polygon class="f" points="161.29 290.2 159.59 290.59 159.37 289.72 161.11 289.32 161.29 290.2"/><polygon class="g" points="161.29 290.2 162.15 290.03 161.98 289.15 161.11 289.32 161.29 290.2"/><polygon class="g" points="157.07 291.32 156.25 291.59 155.96 290.74 156.8 290.46 157.07 291.32"/><polygon class="f" points="164.74 289.61 163.01 289.87 162.86 288.98 164.62 288.71 164.74 289.61"/><path class="f" d="M167.34,289.35c-.58,0-1.16.08-1.74.16l-.1-.9c.59-.07,1.19-.11,1.78-.16Z"/><polygon class="g" points="167.34 289.35 168.21 289.3 168.17 288.4 167.28 288.45 167.34 289.35"/><polygon class="g" points="163.01 289.87 162.15 290.03 161.98 289.15 162.86 288.98 163.01 289.87"/><rect class="f" x="168.49" y="290.09" width="0.9" height="1.79" transform="translate(-44.65 31) rotate(-9.27)"/><rect class="f" x="168.92" y="292.74" width="0.9" height="1.79" transform="translate(-45.07 31.1) rotate(-9.27)"/><rect class="g" x="169.14" y="294.5" width="0.9" height="0.89" transform="translate(-45.27 31.15) rotate(-9.26)"/><rect class="g" x="168.28" y="289.22" width="0.9" height="0.89" transform="translate(-44.44 30.95) rotate(-9.27)"/><rect class="f" x="169.5" y="296.26" width="0.9" height="1.79" transform="translate(-45.63 31.24) rotate(-9.27)"/><rect class="f" x="169.93" y="298.9" width="0.9" height="1.79" transform="translate(-46.05 31.34) rotate(-9.27)"/><path class="g" d="M170.08,300.75l.07.44s0,.06,0,.15v.22h.9v-.22a2,2,0,0,0,0-.3l-.07-.44Z"/><rect class="g" x="169.28" y="295.38" width="0.9" height="0.89" transform="translate(-45.42 31.19) rotate(-9.27)"/><polygon class="f" points="170.2 304.24 170.17 302.46 171.07 302.45 171.1 304.24 170.2 304.24"/><polygon class="f" points="170.24 306.92 170.21 305.13 171.11 305.13 171.14 306.91 170.24 306.92"/><polygon class="g" points="170.24 306.92 170.25 307.81 171.15 307.8 171.14 306.91 170.24 306.92"/><polygon class="g" points="170.17 302.46 170.16 301.56 171.06 301.56 171.07 302.45 170.17 302.46"/><rect class="f" x="170.28" y="308.7" width="0.9" height="1.79" transform="translate(-4.46 2.5) rotate(-0.83)"/><polygon class="f" points="170.33 313.18 170.3 311.39 171.2 311.37 171.23 313.15 170.33 313.18"/><polygon class="g" points="170.33 313.18 170.34 314.07 171.24 314.05 171.23 313.15 170.33 313.18"/><rect class="g" x="170.26" y="307.81" width="0.9" height="0.89" transform="translate(-4.43 2.5) rotate(-0.83)"/><path class="f" d="M170.39,316.75c0-.6,0-1.19,0-1.79l.9,0c0,.59,0,1.19,0,1.78Z"/><polygon class="f" points="170.51 319.43 170.43 317.64 171.33 317.61 171.41 319.39 170.51 319.43"/><polygon class="g" points="170.51 319.43 170.55 320.32 171.45 320.28 171.41 319.39 170.51 319.43"/><polygon class="g" points="170.35 314.96 170.34 314.07 171.24 314.05 171.25 314.94 170.35 314.96"/><rect class="f" x="170.63" y="321.19" width="0.9" height="1.79" transform="translate(-14.26 7.99) rotate(-2.57)"/><polygon class="f" points="170.79 325.67 170.71 323.89 171.61 323.85 171.69 325.63 170.79 325.67"/><polygon class="g" points="170.79 325.67 170.83 326.57 171.73 326.52 171.69 325.63 170.79 325.67"/><polygon class="g" points="170.59 321.21 170.55 320.32 171.45 320.28 171.49 321.17 170.59 321.21"/><polygon class="f" points="170.95 329.24 170.87 327.46 171.77 327.41 171.85 329.19 170.95 329.24"/><polygon class="f" points="171.13 331.92 170.99 330.14 171.89 330.08 172.02 331.86 171.13 331.92"/><polygon class="g" points="171.13 331.92 171.2 332.81 172.09 332.75 172.02 331.86 171.13 331.92"/><polygon class="g" points="170.87 327.46 170.83 326.57 171.73 326.52 171.77 327.41 170.87 327.46"/><polygon class="f" points="171.41 335.48 171.27 333.7 172.16 333.64 172.3 335.41 171.41 335.48"/><rect class="f" x="171.54" y="336.34" width="0.9" height="1.79" transform="translate(-25.89 14.51) rotate(-4.49)"/><polygon class="g" points="171.62 338.15 171.69 339.05 172.58 338.97 172.51 338.08 171.62 338.15"/><polygon class="g" points="171.27 333.7 171.2 332.81 172.09 332.75 172.16 333.64 171.27 333.7"/><polygon class="f" points="171.9 341.72 171.76 339.94 172.65 339.86 172.79 341.63 171.9 341.72"/><polygon class="f" points="172.18 344.39 171.97 342.61 172.87 342.52 173.07 344.29 172.18 344.39"/><polygon class="g" points="172.18 344.39 172.28 345.27 173.17 345.18 173.07 344.29 172.18 344.39"/><polygon class="g" points="171.76 339.94 171.69 339.05 172.58 338.97 172.65 339.86 171.76 339.94"/><rect class="f" x="172.48" y="346.11" width="0.9" height="1.79" transform="translate(-38.92 22.29) rotate(-6.63)"/><polygon class="f" points="172.9 350.6 172.69 348.83 173.59 348.72 173.79 350.49 172.9 350.6"/><polygon class="g" points="172.9 350.6 173 351.49 173.89 351.37 173.79 350.49 172.9 350.6"/><polygon class="g" points="172.38 346.16 172.28 345.27 173.17 345.18 173.28 346.06 172.38 346.16"/><path class="f" d="M173.34,354.15c-.11-.59-.17-1.18-.24-1.77l.9-.12c.07.59.13,1.18.23,1.77Z"/><polygon class="f" points="173.76 356.8 173.48 355.03 174.37 354.91 174.65 356.67 173.76 356.8"/><polygon class="g" points="173.76 356.8 173.9 357.68 174.79 357.55 174.65 356.67 173.76 356.8"/><polygon class="g" points="173.1 352.38 173 351.49 173.89 351.37 174 352.26 173.1 352.38"/><polygon class="f" points="174.32 360.33 174.04 358.57 174.93 358.43 175.21 360.18 174.32 360.33"/><polygon class="f" points="174.74 362.98 174.46 361.22 175.35 361.06 175.63 362.82 174.74 362.98"/><path class="g" d="M174.74,363c0,.3.11.59.17.88l.88-.16c0-.29-.13-.58-.16-.88Z"/><polygon class="g" points="174.04 358.57 173.9 357.68 174.79 357.55 174.93 358.43 174.04 358.57"/><polygon class="f" points="175.45 366.49 175.09 364.74 175.97 364.57 176.34 366.31 175.45 366.49"/><polygon class="f" points="176 369.12 175.63 367.37 176.51 367.19 176.88 368.93 176 369.12"/><polygon class="g" points="176 369.12 176.18 370 177.06 369.8 176.88 368.93 176 369.12"/><polygon class="g" points="175.09 364.74 174.91 363.86 175.79 363.7 175.97 364.57 175.09 364.74"/><path class="f" d="M176.77,372.62c-.16-.58-.3-1.16-.41-1.75l.88-.2c.11.59.24,1.16.4,1.73Z"/><polygon class="f" points="177.45 375.21 176.99 373.48 177.87 373.27 178.32 374.99 177.45 375.21"/><rect class="g" x="177.54" y="375.09" width="0.9" height="0.89" transform="matrix(0.97, -0.25, 0.25, 0.97, -89.14, 57.18)"/><polygon class="g" points="176.36 370.87 176.18 370 177.06 369.8 177.24 370.67 176.36 370.87"/><polygon class="f" points="178.35 378.68 177.9 376.95 178.77 376.71 179.22 378.43 178.35 378.68"/><polygon class="f" points="179.16 381.24 178.6 379.54 179.47 379.28 180.02 380.97 179.16 381.24"/><rect class="g" x="179.27" y="381.09" width="0.9" height="0.89" transform="matrix(0.95, -0.31, 0.31, 0.95, -108.92, 74.04)"/><polygon class="g" points="177.9 376.95 177.67 376.08 178.54 375.85 178.77 376.71 177.9 376.95"/><polygon class="f" points="180.26 384.65 179.71 382.95 180.56 382.67 181.11 384.36 180.26 384.65"/><polygon class="f" points="181.21 387.17 180.54 385.51 181.39 385.2 182.05 386.85 181.21 387.17"/><polygon class="g" points="181.21 387.17 181.54 388.01 182.38 387.68 182.05 386.85 181.21 387.17"/><rect class="g" x="179.55" y="381.94" width="0.9" height="0.89" transform="translate(-109.17 74.17) rotate(-17.97)"/><polygon class="f" points="182.53 390.51 181.87 388.84 182.7 388.5 183.36 390.15 182.53 390.51"/><polygon class="f" points="183.68 392.94 182.9 391.33 183.72 390.96 184.5 392.55 183.68 392.94"/><polygon class="g" points="183.68 392.94 184.08 393.75 184.88 393.35 184.5 392.55 183.68 392.94"/><polygon class="g" points="181.87 388.84 181.54 388.01 182.38 387.68 182.7 388.5 181.87 388.84"/><polygon class="f" points="185.32 396.15 184.86 395.37 184.47 394.56 185.27 394.15 185.66 394.95 186.1 395.71 185.32 396.15"/><polygon class="f" points="186.69 398.48 185.77 396.92 186.55 396.47 187.45 398 186.69 398.48"/><path class="g" d="M186.69,398.48c.16.25.29.52.47.76l.75-.49a7.17,7.17,0,0,1-.46-.75Z"/><polygon class="g" points="184.47 394.56 184.08 393.75 184.88 393.35 185.27 394.15 184.47 394.56"/><polygon class="f" points="188.73 401.45 187.69 399.98 188.43 399.47 189.45 400.9 188.73 401.45"/><polygon class="f" points="190.46 403.54 189.27 402.17 189.98 401.61 191.13 402.94 190.46 403.54"/><polygon class="g" points="190.46 403.54 191.06 404.22 191.71 403.6 191.13 402.94 190.46 403.54"/><polygon class="g" points="187.69 399.98 187.16 399.24 187.91 398.75 188.43 399.47 187.69 399.98"/><polygon class="f" points="193.03 406.1 191.71 404.86 192.33 404.21 193.61 405.41 193.03 406.1"/><path class="f" d="M195.26,407.7a13,13,0,0,1-1.5-1.05l.55-.71a12.45,12.45,0,0,0,1.42,1Z"/><polygon class="g" points="195.26 407.7 196.05 408.17 196.47 407.37 195.73 406.94 195.26 407.7"/><path class="g" d="M191.71,404.86a7.86,7.86,0,0,1-.65-.64l.65-.62a7.13,7.13,0,0,0,.62.61Z"/><rect class="f" x="196.05" y="408.23" width="0.9" height="0.13"/><rect class="f" x="196.05" y="408.42" width="0.9" height="0.13"/><rect class="g" x="196.05" y="408.55" width="0.9" height="0.06"/><rect class="g" x="196.05" y="408.17" width="0.9" height="0.06"/><polygon class="f" points="193.42 408.38 195.17 408.53 195.12 409.43 193.34 409.27 193.42 408.38"/><polygon class="f" points="190.8 408.14 192.55 408.3 192.46 409.19 190.68 409.04 190.8 408.14"/><path class="g" d="M190.8,408.14a4.93,4.93,0,0,1-.87-.12l-.13.89a5.19,5.19,0,0,0,.88.13Z"/><polygon class="g" points="195.17 408.53 196.05 408.61 196 409.51 195.12 409.43 195.17 408.53"/><polygon class="f" points="187.33 407.55 189.06 407.87 188.92 408.75 187.17 408.43 187.33 407.55"/><polygon class="f" points="184.74 407.07 186.47 407.39 186.29 408.27 184.54 407.95 184.74 407.07"/><path class="g" d="M184.74,407.07c-.29-.06-.57-.15-.85-.22l-.21.87c.28.08.57.17.86.23Z"/><polygon class="g" points="189.06 407.87 189.93 408.02 189.8 408.91 188.92 408.75 189.06 407.87"/><polygon class="f" points="181.35 406.14 183.04 406.61 182.82 407.48 181.1 407 181.35 406.14"/><path class="f" d="M178.83,405.39a16.26,16.26,0,0,0,1.68.51l-.27.86c-.56-.18-1.15-.29-1.7-.52Z"/><polygon class="g" points="178.83 405.39 178 405.08 177.71 405.93 178.54 406.24 178.83 405.39"/><polygon class="g" points="183.04 406.61 183.89 406.85 183.68 407.72 182.82 407.48 183.04 406.61"/><polygon class="f" points="175.54 404.15 177.18 404.77 176.87 405.61 175.2 404.98 175.54 404.15"/><path class="f" d="M173.11,403.12c.54.24,1,.53,1.61.72l-.35.83c-.57-.19-1.09-.49-1.63-.73Z"/><polygon class="g" points="173.11 403.12 172.32 402.74 171.94 403.55 172.74 403.94 173.11 403.12"/><polygon class="g" points="177.18 404.77 178 405.08 177.71 405.93 176.87 405.61 177.18 404.77"/><polygon class="f" points="169.94 401.6 171.53 402.36 171.13 403.17 169.53 402.4 169.94 401.6"/><polygon class="f" points="167.65 400.31 169.17 401.19 168.74 401.98 167.2 401.09 167.65 400.31"/><polygon class="g" points="167.65 400.31 166.89 399.87 166.43 400.64 167.2 401.09 167.65 400.31"/><polygon class="g" points="171.53 402.36 172.32 402.74 171.94 403.55 171.13 403.17 171.53 402.36"/><path class="f" d="M164.64,398.49a15,15,0,0,0,1.49.94l-.47.76a13.65,13.65,0,0,1-1.51-.94Z"/><polygon class="f" points="162.46 397 163.91 398 163.41 398.74 161.94 397.74 162.46 397"/><polygon class="g" points="162.46 397 161.73 396.51 161.2 397.24 161.94 397.74 162.46 397"/><polygon class="g" points="166.13 399.43 166.89 399.87 166.43 400.64 165.66 400.19 166.13 399.43"/><polygon class="f" points="159.65 394.9 161.03 395.99 160.49 396.71 159.09 395.61 159.65 394.9"/><path class="f" d="M157.59,393.25c.43.39.91.73,1.36,1.1l-.56.7c-.46-.37-.95-.72-1.39-1.12Z"/><polygon class="g" points="157.59 393.25 156.93 392.66 156.34 393.34 157 393.93 157.59 393.25"/><path class="g" d="M161,396c.22.18.46.36.7.52l-.53.73c-.25-.16-.48-.35-.71-.53Z"/><polygon class="f" points="154.97 390.9 156.28 392.07 155.68 392.75 154.35 391.56 154.97 390.9"/><polygon class="f" points="153.09 389.05 154.33 390.3 153.7 390.95 152.45 389.68 153.09 389.05"/><polygon class="g" points="153.09 389.05 152.47 388.43 151.82 389.05 152.45 389.68 153.09 389.05"/><polygon class="g" points="156.28 392.07 156.93 392.66 156.34 393.34 155.68 392.75 156.28 392.07"/><path class="f" d="M150.66,386.5c.4.43.78.88,1.18,1.3l-.65.62c-.41-.43-.8-.88-1.19-1.32Z"/><path class="f" d="M148.92,384.52c.36.46.77.88,1.16,1.32l-.68.6c-.39-.45-.8-.87-1.17-1.34Z"/><polygon class="g" points="148.92 384.52 148.36 383.84 147.67 384.41 148.23 385.1 148.92 384.52"/><polygon class="g" points="151.84 387.8 152.47 388.43 151.82 389.05 151.19 388.42 151.84 387.8"/><path class="f" d="M146.71,381.78c.34.47.73.92,1.1,1.37l-.71.57c-.36-.47-.76-.91-1.11-1.39Z"/><polygon class="f" points="145.13 379.66 146.18 381.07 145.46 381.61 144.4 380.18 145.13 379.66"/><path class="g" d="M145.13,379.66c-.17-.23-.33-.48-.5-.72l-.74.51c.17.25.33.5.51.73Z"/><polygon class="g" points="147.81 383.15 148.36 383.84 147.67 384.41 147.1 383.72 147.81 383.15"/><path class="f" d="M143.16,376.75c.3.5.65,1,1,1.46l-.75.51c-.33-.5-.68-1-1-1.48Z"/><path class="f" d="M141.77,374.51c.29.51.61,1,.92,1.5l-.76.47c-.32-.5-.64-1-.93-1.52Z"/><polygon class="g" points="141.77 374.51 141.33 373.75 140.55 374.19 141 374.96 141.77 374.51"/><polygon class="g" points="144.14 378.21 144.63 378.94 143.89 379.45 143.39 378.72 144.14 378.21"/><path class="c" d="M225.94,300.89l2.89-15.06s57.14-4,47.47,78c0,0-27.3-12-32-8.67s18.43,17.34,18.43,17.34S230,422.16,184,422.16V410.5S225.94,401.29,225.94,300.89Z"/><path class="f" d="M234.16,289.5c-.58-.07-1.16-.11-1.74-.16l.06-.9c.6.05,1.19.09,1.78.17Z"/><polygon class="f" points="236.76 289.86 235.03 289.6 235.15 288.71 236.91 288.97 236.76 289.86"/><polygon class="g" points="236.76 289.86 237.62 290.02 237.79 289.14 236.91 288.97 236.76 289.86"/><polygon class="g" points="232.42 289.34 231.55 289.29 231.59 288.39 232.48 288.44 232.42 289.34"/><polygon class="f" points="240.19 290.58 238.48 290.19 238.66 289.31 240.4 289.71 240.19 290.58"/><path class="f" d="M242.71,291.3c-.55-.19-1.12-.33-1.68-.49l.23-.87c.58.16,1.16.31,1.72.5Z"/><polygon class="g" points="242.71 291.3 243.54 291.57 243.83 290.72 242.98 290.44 242.71 291.3"/><polygon class="g" points="238.48 290.19 237.62 290.02 237.79 289.14 238.66 289.31 238.48 290.19"/><polygon class="f" points="246 292.48 244.37 291.85 244.67 291 246.34 291.64 246 292.48"/><polygon class="f" points="248.4 293.54 246.8 292.82 247.16 291.99 248.79 292.73 248.4 293.54"/><polygon class="g" points="248.4 293.54 249.18 293.94 249.58 293.13 248.79 292.73 248.4 293.54"/><path class="g" d="M244.37,291.85c-.27-.11-.56-.18-.83-.28l.29-.85a8.33,8.33,0,0,1,.84.29Z"/><path class="f" d="M251.47,295.2c-.5-.29-1-.61-1.52-.86l.43-.8c.53.26,1,.59,1.55.89Z"/><path class="f" d="M253.68,296.61c-.49-.32-1-.68-1.46-1l.48-.77c.52.29,1,.66,1.49,1Z"/><polygon class="g" points="253.68 296.61 254.4 297.1 254.93 296.37 254.19 295.87 253.68 296.61"/><polygon class="g" points="249.95 294.34 249.18 293.94 249.58 293.13 250.38 293.54 249.95 294.34"/><polygon class="f" points="256.47 298.7 255.1 297.63 255.64 296.91 257.05 298.01 256.47 298.7"/><polygon class="f" points="258.43 300.44 257.14 299.27 257.73 298.59 259.05 299.79 258.43 300.44"/><path class="g" d="M258.43,300.44c.22.2.43.39.63.61l.63-.64c-.2-.22-.42-.42-.64-.62Z"/><path class="g" d="M255.1,297.63a8.58,8.58,0,0,0-.7-.53l.53-.73a7.38,7.38,0,0,1,.71.54Z"/><path class="f" d="M260.86,303c-.39-.43-.8-.84-1.2-1.27l.65-.62c.41.43.83.85,1.23,1.3Z"/><polygon class="f" points="262.53 304.97 261.42 303.63 262.11 303.04 263.24 304.42 262.53 304.97"/><path class="g" d="M262.53,305a8.44,8.44,0,0,1,.52.7l.73-.53c-.18-.24-.34-.49-.54-.72Z"/><polygon class="g" points="259.66 301.68 259.06 301.05 259.69 300.41 260.31 301.06 259.66 301.68"/><path class="f" d="M264.56,307.82c-.31-.49-.67-.95-1-1.43l.73-.52c.34.48.7,1,1,1.46Z"/><polygon class="f" points="265.93 310.06 265.02 308.57 265.78 308.09 266.71 309.61 265.93 310.06"/><path class="g" d="M265.93,310.06a7.15,7.15,0,0,1,.42.77l.79-.44c-.14-.26-.27-.53-.43-.78Z"/><polygon class="g" points="263.56 306.39 263.05 305.68 263.78 305.14 264.29 305.87 263.56 306.39"/><polygon class="f" points="267.57 313.15 266.76 311.6 267.56 311.18 268.38 312.76 267.57 313.15"/><polygon class="f" points="268.63 315.56 267.92 313.95 268.74 313.58 269.46 315.21 268.63 315.56"/><path class="g" d="M268.63,315.56c.12.27.25.53.34.8l.84-.33c-.1-.28-.23-.55-.35-.82Z"/><polygon class="g" points="266.76 311.6 266.35 310.82 267.14 310.39 267.56 311.18 266.76 311.6"/><polygon class="f" points="269.89 318.83 269.28 317.19 270.12 316.86 270.74 318.53 269.89 318.83"/><polygon class="f" points="270.68 321.34 270.17 319.66 271.02 319.38 271.55 321.08 270.68 321.34"/><polygon class="g" points="270.68 321.34 270.94 322.18 271.81 321.93 271.55 321.08 270.68 321.34"/><polygon class="g" points="269.28 317.19 268.97 316.36 269.81 316.03 270.12 316.86 269.28 317.19"/><polygon class="f" points="271.6 324.72 271.18 323.02 272.04 322.79 272.47 324.51 271.6 324.72"/><path class="f" d="M272.17,327.29c-.12-.57-.2-1.15-.36-1.71l.88-.2c.16.57.24,1.15.36,1.73Z"/><polygon class="g" points="272.17 327.29 272.34 328.16 273.22 327.99 273.05 327.12 272.17 327.29"/><path class="g" d="M271.17,323c-.06-.28-.14-.57-.23-.85l.87-.24a8.37,8.37,0,0,1,.23.86Z"/><path class="f" d="M272.79,330.75c-.08-.58-.16-1.16-.28-1.73l.88-.16c.13.58.21,1.17.29,1.75Z"/><polygon class="f" points="273.18 333.36 272.92 331.62 273.81 331.49 274.07 333.25 273.18 333.36"/><polygon class="g" points="273.18 333.36 273.27 334.24 274.16 334.13 274.07 333.25 273.18 333.36"/><polygon class="g" points="272.51 329.02 272.34 328.16 273.22 327.99 273.39 328.86 272.51 329.02"/><polygon class="f" points="273.54 336.86 273.36 335.11 274.25 335.01 274.43 336.78 273.54 336.86"/><polygon class="f" points="273.71 339.49 273.61 337.74 274.51 337.67 274.61 339.44 273.71 339.49"/><rect class="g" x="273.74" y="339.46" width="0.9" height="0.88" transform="translate(-19.88 17.05) rotate(-3.44)"/><polygon class="g" points="273.36 335.11 273.27 334.24 274.16 334.13 274.25 335.01 273.36 335.11"/><path class="f" d="M273.87,343c0-.59,0-1.18-.05-1.76l.9,0c0,.59,0,1.18,0,1.77Z"/><polygon class="f" points="273.92 345.65 273.88 343.89 274.79 343.87 274.82 345.64 273.92 345.65"/><polygon class="g" points="273.92 345.65 273.91 346.53 274.81 346.53 274.82 345.64 273.92 345.65"/><polygon class="g" points="273.82 341.25 273.77 340.37 274.67 340.32 274.72 341.21 273.82 341.25"/><polygon class="f" points="273.88 349.17 273.9 347.41 274.8 347.42 274.77 349.19 273.88 349.17"/><polygon class="f" points="273.78 351.81 273.86 350.05 274.76 350.08 274.68 351.85 273.78 351.81"/><polygon class="g" points="273.78 351.81 273.74 352.69 274.64 352.73 274.68 351.85 273.78 351.81"/><polygon class="g" points="273.9 347.41 273.91 346.53 274.81 346.53 274.8 347.42 273.9 347.41"/><path class="f" d="M273.59,355.33c.06-.59.08-1.18.11-1.76l.9.05c0,.59-.05,1.18-.11,1.77Z"/><polygon class="f" points="273.38 357.96 273.52 356.2 274.42 356.27 274.28 358.04 273.38 357.96"/><polygon class="g" points="273.38 357.96 273.31 358.84 274.21 358.92 274.28 358.04 273.38 357.96"/><polygon class="g" points="273.7 353.57 273.74 352.69 274.64 352.73 274.6 353.62 273.7 353.57"/><polygon class="f" points="270.89 357.86 272.51 358.51 272.17 359.34 270.56 358.7 270.89 357.86"/><polygon class="f" points="268.46 356.91 270.08 357.54 269.75 358.38 268.14 357.75 268.46 356.91"/><rect class="g" x="267.44" y="356.75" width="0.9" height="0.87" transform="translate(-161.35 480.05) rotate(-69.1)"/><rect class="g" x="272.29" y="358.66" width="0.9" height="0.87" transform="translate(-162.88 475.56) rotate(-67.75)"/><polygon class="f" points="265.2 355.7 266.83 356.3 266.52 357.14 264.89 356.54 265.2 355.7"/><polygon class="f" points="262.74 354.83 264.38 355.4 264.08 356.25 262.44 355.68 262.74 354.83"/><polygon class="g" points="262.74 354.83 261.91 354.55 261.62 355.4 262.44 355.68 262.74 354.83"/><rect class="g" x="266.63" y="356.44" width="0.9" height="0.87" transform="translate(-160.7 482.13) rotate(-69.51)"/><polygon class="f" points="259.43 353.74 261.08 354.27 260.8 355.13 259.15 354.59 259.43 353.74"/><polygon class="f" points="256.92 352.98 258.59 353.47 258.33 354.33 256.67 353.84 256.92 352.98"/><polygon class="g" points="256.92 352.98 256.08 352.74 255.84 353.61 256.67 353.84 256.92 352.98"/><polygon class="g" points="261.08 354.27 261.91 354.55 261.62 355.4 260.8 355.13 261.08 354.27"/><path class="f" d="M253.54,352.09c.57.14,1.14.27,1.7.42l-.23.87c-.56-.15-1.12-.27-1.68-.41Z"/><path class="f" d="M251,351.55c.58.09,1.14.23,1.72.35l-.19.88c-.57-.12-1.13-.26-1.69-.34Z"/><polygon class="g" points="250.97 351.55 250.1 351.41 249.96 352.3 250.81 352.44 250.97 351.55"/><polygon class="g" points="255.24 352.51 256.08 352.74 255.84 353.61 255.01 353.38 255.24 352.51"/><path class="f" d="M247.45,351.15a14.74,14.74,0,0,1,1.77.14l-.1.9a13.92,13.92,0,0,0-1.69-.14Z"/><path class="f" d="M244.76,351.33a10,10,0,0,1,1.8-.19l0,.9a8.18,8.18,0,0,0-1.65.18Z"/><path class="g" d="M244.76,351.33a9,9,0,0,0-.89.24l.29.86a5,5,0,0,1,.78-.21Z"/><path class="g" d="M249.22,351.29c.3,0,.59.06.88.12l-.14.89a8,8,0,0,0-.84-.11Z"/><path class="f" d="M241.5,353.08a5.52,5.52,0,0,1,1.5-1.14l.42.8a4.31,4.31,0,0,0-1.25.95Z"/><path class="f" d="M240.3,355.65a5,5,0,0,1,.63-1.8l.78.46a4,4,0,0,0-.52,1.46Z"/><path class="g" d="M240.3,355.65a4.3,4.3,0,0,0,0,1l.9-.05a4.07,4.07,0,0,1,0-.78Z"/><path class="g" d="M243,351.94a5.54,5.54,0,0,1,.87-.37l.29.86a4.43,4.43,0,0,0-.74.31Z"/><path class="f" d="M241.1,359.25c-.13-.28-.28-.54-.39-.83l-.3-.88.87-.22.26.77c.1.25.24.49.36.74Z"/><path class="f" d="M242.61,361.47a12.77,12.77,0,0,1-1.05-1.45l.76-.48a14.4,14.4,0,0,0,1,1.37Z"/><path class="g" d="M242.61,361.47c.17.24.38.46.57.68l.68-.59a8.24,8.24,0,0,1-.55-.65Z"/><path class="g" d="M240.41,357.54c-.06-.31-.1-.63-.14-.94l.9-.05.11.77Z"/><path class="f" d="M245,364.06c-.43-.4-.83-.83-1.24-1.25l.65-.61c.41.4.79.82,1.21,1.21Z"/><path class="f" d="M247,365.82c-.44-.38-.89-.75-1.31-1.16l.61-.66c.41.39.85.76,1.28,1.14Z"/><path class="g" d="M247,365.82c.22.2.44.38.67.57l.57-.7-.66-.55Z"/><polygon class="g" points="243.76 362.81 243.18 362.15 243.86 361.56 244.42 362.19 243.76 362.81"/><path class="f" d="M249.68,368c-.46-.36-.93-.7-1.38-1.08l.57-.7c.44.37.9.71,1.36,1.07Z"/><polygon class="f" points="251.78 369.58 250.37 368.55 250.91 367.83 252.31 368.86 251.78 369.58"/><rect class="g" x="251.95" y="369.04" width="0.9" height="0.87" transform="translate(-194.99 361.57) rotate(-54.65)"/><polygon class="g" points="248.3 366.94 247.63 366.39 248.2 365.69 248.87 366.24 248.3 366.94"/><polygon class="f" points="254.64 371.58 253.2 370.59 253.72 369.86 255.14 370.83 254.64 371.58"/><polygon class="f" points="256.82 373.01 255.37 372.06 255.86 371.31 257.31 372.26 256.82 373.01"/><polygon class="g" points="256.82 373.01 257.56 373.48 258.04 372.72 257.31 372.26 256.82 373.01"/><rect class="g" x="252.65" y="369.54" width="0.9" height="0.87" transform="translate(-195.1 362.6) rotate(-54.68)"/><polygon class="f" points="255.95 375.59 257.03 374.19 257.75 374.73 256.67 376.14 255.95 375.59"/><polygon class="f" points="254.31 377.66 255.41 376.28 256.12 376.84 255.01 378.23 254.31 377.66"/><rect class="g" x="253.94" y="377.84" width="0.89" height="0.9" transform="translate(-199.49 335.74) rotate(-50.73)"/><polygon class="g" points="257.03 374.19 257.56 373.48 258.28 374.02 257.75 374.73 257.03 374.19"/><polygon class="f" points="252.06 380.38 253.19 379.03 253.88 379.6 252.74 380.96 252.06 380.38"/><polygon class="f" points="250.32 382.39 251.48 381.05 252.16 381.64 251 382.98 250.32 382.39"/><polygon class="g" points="250.32 382.39 249.74 383.05 250.41 383.64 251 382.98 250.32 382.39"/><polygon class="g" points="253.19 379.03 253.75 378.35 254.45 378.92 253.88 379.6 253.19 379.03"/><polygon class="f" points="247.96 385.01 249.15 383.7 249.82 384.31 248.62 385.62 247.96 385.01"/><polygon class="f" points="246.15 386.94 247.36 385.66 248.02 386.27 246.8 387.56 246.15 386.94"/><polygon class="g" points="246.15 386.94 245.54 387.58 246.18 388.2 246.8 387.56 246.15 386.94"/><polygon class="g" points="249.15 383.7 249.74 383.05 250.41 383.64 249.82 384.31 249.15 383.7"/><polygon class="f" points="243.68 389.46 244.92 388.21 245.56 388.84 244.31 390.1 243.68 389.46"/><polygon class="f" points="241.78 391.31 243.05 390.08 243.68 390.72 242.41 391.96 241.78 391.31"/><polygon class="g" points="241.78 391.31 241.14 391.92 241.76 392.57 242.41 391.96 241.78 391.31"/><polygon class="g" points="244.92 388.21 245.54 387.58 246.18 388.2 245.56 388.84 244.92 388.21"/><path class="f" d="M239.2,393.72c.44-.39.87-.79,1.3-1.2l.61.66c-.42.41-.86.81-1.3,1.21Z"/><path class="f" d="M237.23,395.49c.45-.38.88-.78,1.32-1.18l.6.67c-.44.4-.88.8-1.33,1.18Z"/><rect class="g" x="236.75" y="395.66" width="0.89" height="0.9" transform="translate(-201.32 251.64) rotate(-40.85)"/><polygon class="g" points="240.5 392.52 241.14 391.92 241.76 392.57 241.11 393.18 240.5 392.52"/><path class="f" d="M234.54,397.77c.45-.37.91-.74,1.35-1.13l.59.69c-.45.39-.91.76-1.37,1.14Z"/><path class="f" d="M232.48,399.44q.71-.54,1.38-1.11l.57.7c-.45.38-.92.75-1.39,1.11Z"/><polygon class="g" points="232.48 399.44 231.79 399.98 232.34 400.69 233.04 400.14 232.48 399.44"/><rect class="g" x="236.08" y="396.24" width="0.89" height="0.9" transform="translate(-201.88 251.39) rotate(-40.86)"/><polygon class="f" points="229.69 401.59 231.1 400.53 231.65 401.24 230.22 402.31 229.69 401.59"/><path class="f" d="M227.55,403.14c.48-.34,1-.67,1.43-1l.53.73c-.47.36-1,.69-1.44,1Z"/><polygon class="g" points="227.54 403.14 226.82 403.65 227.34 404.39 228.06 403.88 227.54 403.14"/><polygon class="g" points="231.1 400.53 231.79 399.98 232.34 400.69 231.65 401.24 231.1 400.53"/><polygon class="f" points="224.63 405.13 226.1 404.15 226.61 404.9 225.13 405.88 224.63 405.13"/><path class="f" d="M222.41,406.56c.5-.31,1-.61,1.49-.94l.49.75c-.49.34-1,.64-1.51.95Z"/><polygon class="g" points="222.41 406.56 221.66 407.02 222.13 407.79 222.88 407.32 222.41 406.56"/><polygon class="g" points="226.1 404.15 226.82 403.65 227.34 404.39 226.61 404.9 226.1 404.15"/><path class="f" d="M219.38,408.37c.51-.3,1-.57,1.53-.88l.46.77c-.5.31-1,.59-1.54.89Z"/><path class="f" d="M217.07,409.66c.53-.27,1-.55,1.55-.85l.44.78c-.51.3-1,.59-1.56.86Z"/><polygon class="g" points="217.07 409.66 216.29 410.07 216.71 410.86 217.5 410.45 217.07 409.66"/><polygon class="g" points="220.91 407.49 221.66 407.02 222.13 407.79 221.37 408.26 220.91 407.49"/><path class="f" d="M213.94,411.26c.52-.26,1.06-.5,1.58-.78l.41.8c-.52.28-1.07.53-1.6.79Z"/><path class="f" d="M211.55,412.38c.54-.22,1.06-.48,1.59-.74l.39.81c-.54.26-1.07.53-1.62.75Z"/><polygon class="g" points="211.55 412.38 210.74 412.73 211.1 413.56 211.91 413.2 211.55 412.38"/><polygon class="g" points="215.51 410.48 216.29 410.07 216.71 410.86 215.93 411.28 215.51 410.48"/><path class="f" d="M208.3,413.75c.55-.2,1.09-.42,1.63-.67l.35.83c-.54.25-1.09.47-1.65.68Z"/><path class="f" d="M205.83,414.69c.56-.19,1.1-.42,1.65-.62l.32.84c-.55.21-1.1.44-1.66.63Z"/><polygon class="g" points="205.83 414.69 205 414.97 205.29 415.82 206.14 415.54 205.83 414.69"/><polygon class="g" points="209.93 413.08 210.74 412.73 211.1 413.56 210.28 413.91 209.93 413.08"/><path class="f" d="M202.49,415.79c.57-.15,1.12-.36,1.67-.54l.29.86c-.57.18-1.12.39-1.7.54Z"/><polygon class="f" points="199.95 416.52 201.64 416.04 201.9 416.9 200.18 417.39 199.95 416.52"/><path class="g" d="M200,416.52c-.28.08-.57.14-.85.21l.22.87c.29-.07.58-.12.86-.21Z"/><polygon class="g" points="204.16 415.25 205 414.97 205.29 415.82 204.45 416.11 204.16 415.25"/><polygon class="f" points="196.53 417.34 198.24 416.93 198.45 417.81 196.72 418.22 196.53 417.34"/><polygon class="f" points="193.94 417.81 195.66 417.5 195.84 418.38 194.09 418.7 193.94 417.81"/><path class="g" d="M193.94,417.81c-.29.05-.58.12-.87.15l.14.89c.29,0,.58-.1.87-.15Z"/><polygon class="g" points="198.24 416.93 199.1 416.73 199.32 417.61 198.45 417.81 198.24 416.93"/><polygon class="f" points="190.45 418.31 192.2 418.08 192.32 418.97 190.55 419.2 190.45 418.31"/><polygon class="f" points="187.83 418.54 189.58 418.4 189.67 419.3 187.89 419.44 187.83 418.54"/><polygon class="g" points="187.83 418.54 186.95 418.6 187 419.5 187.89 419.44 187.83 418.54"/><polygon class="g" points="192.2 418.08 193.07 417.96 193.21 418.85 192.32 418.97 192.2 418.08"/><rect class="f" x="186.05" y="416.19" width="0.9" height="1.61"/><rect class="f" x="186.05" y="413.78" width="0.9" height="1.61"/><rect class="g" x="186.05" y="412.98" width="0.9" height="0.8"/><rect class="g" x="186.05" y="417.8" width="0.9" height="0.8"/><path class="f" d="M189.44,411.9a16.28,16.28,0,0,1-1.65.74l-.34-.84a16.24,16.24,0,0,0,1.6-.71Z"/><path class="f" d="M191.83,410.62a16.26,16.26,0,0,1-1.59.86l-.41-.79c.52-.28,1.06-.51,1.55-.84Z"/><polygon class="g" points="191.83 410.62 192.59 410.15 192.12 409.38 191.38 409.85 191.83 410.62"/><polygon class="g" points="187.79 412.64 186.95 412.98 186.64 412.14 187.45 411.8 187.79 412.64"/><path class="f" d="M194.85,408.66a15,15,0,0,1-1.49,1l-.49-.76a14.31,14.31,0,0,0,1.46-1Z"/><polygon class="f" points="197 407.03 195.57 408.12 195.03 407.39 196.44 406.33 197 407.03"/><path class="g" d="M197,407c.24-.19.49-.35.71-.56l-.58-.69c-.21.2-.46.37-.69.55Z"/><polygon class="g" points="193.36 409.67 192.59 410.15 192.12 409.38 192.87 408.91 193.36 409.67"/><polygon class="f" points="199.7 404.65 198.38 405.87 197.79 405.19 199.09 403.99 199.7 404.65"/><polygon class="f" points="201.63 402.77 201.03 403.44 200.37 404.05 199.74 403.4 200.39 402.8 200.99 402.15 201.63 402.77"/><polygon class="g" points="201.63 402.77 202.24 402.11 201.58 401.49 200.99 402.15 201.63 402.77"/><polygon class="g" points="198.38 405.87 197.71 406.47 197.13 405.78 197.79 405.19 198.38 405.87"/><polygon class="f" points="204.05 400.12 202.84 401.44 202.18 400.84 203.37 399.53 204.05 400.12"/><polygon class="f" points="205.73 398.01 204.65 399.44 203.96 398.87 205.02 397.46 205.73 398.01"/><polygon class="g" points="205.73 398.01 206.27 397.3 205.56 396.75 205.02 397.46 205.73 398.01"/><polygon class="g" points="202.84 401.44 202.24 402.11 201.58 401.49 202.18 400.84 202.84 401.44"/><polygon class="f" points="207.9 395.15 206.82 396.58 206.09 396.05 207.16 394.63 207.9 395.15"/><polygon class="f" points="209.36 392.89 208.41 394.41 207.66 393.9 208.6 392.4 209.36 392.89"/><polygon class="g" points="209.36 392.89 209.84 392.13 209.07 391.65 208.6 392.4 209.36 392.89"/><polygon class="g" points="206.82 396.58 206.27 397.3 205.56 396.75 206.09 396.05 206.82 396.58"/><polygon class="f" points="211.26 389.85 210.31 391.37 209.54 390.9 210.49 389.4 211.26 389.85"/><polygon class="f" points="212.56 387.5 211.74 389.09 210.95 388.64 211.76 387.07 212.56 387.5"/><polygon class="g" points="212.56 387.5 212.97 386.7 212.17 386.28 211.76 387.07 212.56 387.5"/><polygon class="g" points="210.31 391.37 209.84 392.13 209.07 391.65 209.54 390.9 210.31 391.37"/><polygon class="f" points="214.19 384.31 213.38 385.9 212.58 385.49 213.39 383.91 214.19 384.31"/><path class="f" d="M215.38,381.9a15.92,15.92,0,0,1-.78,1.61l-.81-.39a14.73,14.73,0,0,0,.77-1.6Z"/><polygon class="g" points="215.38 381.9 215.72 381.07 214.9 380.7 214.56 381.52 215.38 381.9"/><polygon class="g" points="213.38 385.9 212.97 386.7 212.17 386.28 212.58 385.49 213.38 385.9"/><polygon class="f" points="216.76 378.59 216.07 380.25 215.24 379.89 215.93 378.25 216.76 378.59"/><polygon class="f" points="217.79 376.12 217.1 377.77 216.27 377.43 216.95 375.79 217.79 376.12"/><polygon class="g" points="217.79 376.12 218.14 375.29 217.29 374.97 216.95 375.79 217.79 376.12"/><polygon class="g" points="216.07 380.25 215.72 381.07 214.9 380.7 215.24 379.89 216.07 380.25"/><polygon class="f" points="219.02 372.76 218.46 374.46 217.62 374.14 218.18 372.46 219.02 372.76"/><polygon class="f" points="219.87 370.21 219.31 371.91 218.46 371.61 219.01 369.93 219.87 370.21"/><rect class="g" x="219.14" y="369.2" width="0.89" height="0.9" transform="translate(-200.39 461.71) rotate(-71.65)"/><path class="g" d="M218.46,374.46c-.08.28-.21.55-.32.83l-.85-.32a7.55,7.55,0,0,0,.33-.83Z"/><polygon class="f" points="220.99 366.81 220.43 368.51 219.57 368.24 220.13 366.55 220.99 366.81"/><path class="f" d="M221.73,364.24c-.15.57-.29,1.15-.45,1.72l-.87-.25c.17-.57.3-1.15.45-1.72Z"/><polygon class="g" points="221.73 364.24 221.95 363.37 221.08 363.13 220.86 363.99 221.73 364.24"/><polygon class="g" points="220.43 368.51 220.15 369.36 219.29 369.08 219.57 368.24 220.43 368.51"/><polygon class="f" points="222.61 360.77 222.17 362.5 221.3 362.27 221.74 360.55 222.61 360.77"/><polygon class="f" points="223.28 358.17 222.84 359.9 221.96 359.69 222.4 357.96 223.28 358.17"/><polygon class="g" points="223.28 358.17 223.5 357.31 222.62 357.1 222.4 357.96 223.28 358.17"/><polygon class="g" points="222.17 362.5 221.95 363.37 221.08 363.13 221.3 362.27 222.17 362.5"/><path class="f" d="M224.1,354.69a17,17,0,0,1-.38,1.75l-.88-.2a14.57,14.57,0,0,0,.38-1.74Z"/><polygon class="f" points="224.6 352.06 224.27 353.82 223.39 353.63 223.72 351.88 224.6 352.06"/><polygon class="g" points="224.6 352.06 224.76 351.18 223.88 351.01 223.72 351.88 224.6 352.06"/><polygon class="g" points="223.72 356.44 223.5 357.31 222.62 357.1 222.84 356.24 223.72 356.44"/><polygon class="f" points="225.26 348.55 224.93 350.3 224.04 350.13 224.37 348.39 225.26 348.55"/><polygon class="f" points="225.76 345.91 225.43 347.67 224.54 347.51 224.87 345.76 225.76 345.91"/><polygon class="g" points="225.76 345.91 225.92 345.04 225.03 344.89 224.87 345.76 225.76 345.91"/><polygon class="g" points="224.93 350.3 224.76 351.18 223.88 351.01 224.04 350.13 224.93 350.3"/><polygon class="f" points="226.31 342.38 226.08 344.16 225.19 344.02 225.42 342.25 226.31 342.38"/><polygon class="f" points="226.65 339.73 226.42 341.5 225.53 341.37 225.76 339.6 226.65 339.73"/><polygon class="g" points="226.65 339.73 226.76 338.84 225.87 338.72 225.76 339.6 226.65 339.73"/><polygon class="g" points="226.08 344.16 225.92 345.04 225.03 344.89 225.19 344.02 226.08 344.16"/><polygon class="f" points="227.1 336.18 226.87 337.95 225.98 337.84 226.21 336.07 227.1 336.18"/><polygon class="f" points="227.44 333.52 227.21 335.3 226.32 335.19 226.55 333.43 227.44 333.52"/><polygon class="g" points="227.44 333.52 227.55 332.64 226.66 332.54 226.55 333.43 227.44 333.52"/><polygon class="g" points="226.87 337.95 226.76 338.84 225.87 338.72 225.98 337.84 226.87 337.95"/><path class="f" d="M227.82,330c-.06.6-.07,1.19-.15,1.78l-.9-.09c.08-.59.1-1.18.15-1.77Z"/><polygon class="f" points="228.01 327.3 227.88 329.08 226.99 329 227.12 327.23 228.01 327.3"/><polygon class="g" points="228.01 327.3 228.08 326.41 227.18 326.34 227.12 327.23 228.01 327.3"/><polygon class="g" points="227.67 331.75 227.55 332.64 226.66 332.54 226.77 331.66 227.67 331.75"/><rect class="f" x="226.87" y="324.15" width="1.78" height="0.9" transform="translate(-112.6 528.05) rotate(-85.81)"/><polygon class="f" points="228.47 321.07 228.34 322.85 227.44 322.79 227.57 321.01 228.47 321.07"/><polygon class="g" points="228.47 321.07 228.53 320.18 227.64 320.12 227.57 321.01 228.47 321.07"/><polygon class="g" points="228.14 325.52 228.08 326.41 227.18 326.34 227.25 325.45 228.14 325.52"/><polygon class="f" points="228.73 317.5 228.6 319.29 227.7 319.24 227.83 317.46 228.73 317.5"/><polygon class="f" points="228.81 314.83 228.77 316.61 227.87 316.57 227.91 314.79 228.81 314.83"/><polygon class="g" points="228.81 314.83 228.84 313.94 227.94 313.9 227.91 314.79 228.81 314.83"/><polygon class="g" points="228.6 319.29 228.53 320.18 227.64 320.12 227.7 319.24 228.6 319.29"/><polygon class="f" points="228.9 311.26 228.86 313.04 227.96 313.01 228 311.23 228.9 311.26"/><rect class="f" x="227.6" y="309.01" width="1.78" height="0.9" transform="translate(-86.29 530.57) rotate(-88.65)"/><rect class="g" x="228.08" y="307.68" width="0.89" height="0.9" transform="translate(-84.92 529.3) rotate(-88.65)"/><polygon class="g" points="228.86 313.04 228.84 313.94 227.94 313.9 227.96 313.01 228.86 313.04"/><polygon class="f" points="229.05 305.01 229 306.8 228.1 306.78 228.15 305 229.05 305.01"/><polygon class="f" points="229.11 302.33 229.07 304.12 228.17 304.11 228.21 302.33 229.11 302.33"/><polygon class="g" points="229.11 302.33 229.13 301.44 228.23 301.44 228.21 302.33 229.11 302.33"/><polygon class="g" points="229 306.8 228.98 307.69 228.08 307.67 228.1 306.78 229 306.8"/><rect class="f" x="228.1" y="299.24" width="1.78" height="0.9" transform="translate(-110.13 464.76) rotate(-78.57)"/><rect class="f" x="228.63" y="296.62" width="1.78" height="0.9" transform="translate(-107.14 463.18) rotate(-78.57)"/><rect class="g" x="229.34" y="295.31" width="0.89" height="0.9" transform="translate(-105.64 462.39) rotate(-78.57)"/><path class="g" d="M229.25,300.65l-.09.44c0,.07,0,.18,0,.13v.22h-.9v-.22a1.19,1.19,0,0,1,0-.31l.09-.44Z"/><rect class="f" x="229.33" y="293.12" width="1.78" height="0.9" transform="translate(-103.14 461.07) rotate(-78.57)"/><rect class="f" x="229.86" y="290.5" width="1.78" height="0.9" transform="translate(-100.15 459.49) rotate(-78.57)"/><rect class="g" x="230.57" y="289.19" width="0.89" height="0.9" transform="translate(-98.65 458.7) rotate(-78.57)"/><rect class="g" x="229.51" y="294.43" width="0.89" height="0.9" transform="translate(-104.64 461.86) rotate(-78.57)"/><path class="d" d="M260.5,348.83a5.34,5.34,0,1,0,5.33-5.33A5.33,5.33,0,0,0,260.5,348.83Z"/><path class="d" d="M236.5,374.83a5.34,5.34,0,1,0,5.33-5.33A5.33,5.33,0,0,0,236.5,374.83Z"/><path class="d" d="M292,322.5l34.67-36.67L309.33,331.4S298.66,338.16,292,322.5Z"/><path class="d" d="M323.67,346.83l29-18.33-20.27,33S320,362.49,323.67,346.83Z"/><path class="d" d="M108,322.5,73.33,285.83,90.67,331.4S101.34,338.16,108,322.5Z"/><path class="d" d="M76.33,346.83l-29-18.33,20.27,33S80,362.49,76.33,346.83Z"/><path class="h" d="M137,182.33s-21.31-13.5-19.1,14.5,19.1,26,19.1,26Z"/><path class="h" d="M263,182.33s21.31-13.5,19.1,14.5-19.1,26-19.1,26Z"/><path class="j" d="M200,110.09c-63,0-63,34.74-63,34.74v80c0,20.5,19.24,36.29,35.23,50,13.4,11.5,27.77,11,27.77,11s14.37.5,27.77-11c16-13.71,35.23-29.5,35.23-50v-80S263,110.09,200,110.09Z"/><path class="b" d="M274.5,214.83a5.34,5.34,0,1,1-5.33-5.33A5.33,5.33,0,0,1,274.5,214.83Z"/><path class="b" d="M125.5,214.83a5.34,5.34,0,1,0,5.33-5.33A5.33,5.33,0,0,0,125.5,214.83Z"/><path class="b" d="M201.92,159.83s-22.4-11.86-27-60.55c0,0-2.83-61.45,13.27-68.25,0,0-7.91,5.95,1.42,28.06,0,0,3.67-51,28-59.09,0,0-18.66,28.05-7,59.51,0,0,4-23.8,24.67-16.15,0,0-17.11,8.14-16.44,36.56,0,0,9.1-10.21,25.44-3,0,0-19,5.52-17,23.8S221.47,143.83,201.92,159.83Z"/><path class="c" d="M189.58,71.09s2.91-40.41,20.7-55A70.7,70.7,0,0,1,217.58,0c-24.33,8.08-28,59.09-28,59.09a63.92,63.92,0,0,1-3.83-11.89C184.54,51.2,184.29,58.54,189.58,71.09Z"/><path class="c" d="M219.89,78.91a57.76,57.76,0,0,0-1.08,13,19.41,19.41,0,0,1,12-5.45c5-7.07,13.48-9.53,13.48-9.53C231.18,71.16,222.74,76.53,219.89,78.91Z"/><path class="c" d="M210.58,59.51A61.23,61.23,0,0,1,207,43.83a62.63,62.63,0,0,0,3.55,27.68s2.56-15.15,14.1-17.38c4.73-8,10.57-10.77,10.57-10.77C214.58,35.71,210.58,59.51,210.58,59.51Z"/><path class="c" d="M185.18,45.22c-1.49-10.44,2.74-13.64,2.74-13.64-13.23,5.59-13.45,48.78-13.17,62.73C175.08,77.65,177,53,185.18,45.22Z"/><path class="c" d="M225,124.06c-21,4.22-12.57-20-12.57-20-12.5,4.25-8.75,24-8.75,24-9.75-9-5.75-45-5.75-45-20.5,31,3.84,66.37,0,64.37-1.88-1-7.5-4.68-12.75-8.2,7.75,15.78,16.7,20.53,16.7,20.53A71,71,0,0,0,225,124.06Z"/></svg>