<svg xmlns="http://www.w3.org/2000/svg" viewBox="0 0 400 400.12"><defs><style>.a{fill:#aab2bd;}.b{fill:#f9e0a8;}.c{fill:#d9c392;}.d{fill:#da4453;}.e{fill:#c93f4d;}.f{fill:#ffe9ba;}.g{fill:#f6bb42;}.h{fill:#434a54;}.i{fill:#f5f7fa;}.j{fill:#e8eaed;}.k{fill:#ffce54;}.l{fill:#ffd56b;}</style></defs><title>avatar10</title><circle class="a" cx="200" cy="200" r="200"/><path class="b" d="M200,196.12l-42.25-5.5,16.31,88.74s3.66,30.76,25.94,30.76,25.94-30.76,25.94-30.76l16.31-88.74Z"/><path class="c" d="M234,205.62l-69.53,21.59,7.09,38.56c10.66,13.14,26.92,25.19,51,26.26a55,55,0,0,0,3.42-12.67l12.13-66C235.69,208.57,234,205.62,234,205.62Z"/><path class="d" d="M316.67,302.79c-7.35-6.36-19.37-14.56-30.67-15.67-4.14-.4-31.61-4.59-54.41-8.1l-4-8.68a37.39,37.39,0,0,1-9.47,6.6A75.21,75.21,0,0,1,200,283.12a75.21,75.21,0,0,1-18.16-6.18,37.39,37.39,0,0,1-9.47-6.6l-4,8.68c-22.8,3.51-50.27,7.7-54.41,8.1-11.3,1.11-23.32,9.31-30.67,15.67-13.41,11.6-20.78,25.84-24.79,38.71a200,200,0,0,0,282.92,0C337.45,328.63,330.08,314.39,316.67,302.79Z"/><path class="e" d="M197,400.08c1,0,2,0,3,0l2,0V284h-5Z"/><path class="e" d="M227.63,270.34C216.26,280.57,200,281.12,200,281.12s-16.26-.55-27.63-10.78l-4,8.68,20.26,21.77L200,287.27l11.33,13.52L231.59,279Z"/><path class="b" d="M137,159.62s-21.31-13.5-19.1,14.5,19.1,26,19.1,26Z"/><path class="b" d="M263,159.62s21.31-13.5,19.1,14.5-19.1,26-19.1,26Z"/><path class="f" d="M200,87.38c-63,0-63,34.74-63,34.74v80c0,20.5,19.24,36.29,35.23,50,13.4,11.5,27.77,11,27.77,11s14.37.5,27.77-11c16-13.71,35.23-29.5,35.23-50v-80S263,87.38,200,87.38Z"/><path class="g" d="M210,258.54s-.2,2.83-4.5,3L201,251.25l-4.5,10.27c-4.3-.15-4.5-3-4.5-3-6.28,1.06-18.77-5.42-18.77-5.42,17.55,13.67,22.35,10.52,22.35,10.52,3.91,5.19,5.42,4.48,5.42,4.48s1.51.71,5.42-4.48c0,0,4.8,3.15,22.35-10.52C228.77,253.12,216.28,259.6,210,258.54Z"/><path class="h" d="M263.08,156.87l-11.79,12.35a21,21,0,0,0-39.54,5.57c-3.12-2.83-7.69-4.09-11.75-4.17-4.06.08-8.63,1.34-11.75,4.17a21,21,0,0,0-39.54-5.57l-11.79-12.35.08,2.75s8.05,13.24,9.77,15.76a21,21,0,1,0,41.81,3.74c2.23-3.91,7.24-5.41,11.42-5.5,4.18.09,9.19,1.59,11.42,5.5a21,21,0,1,0,41.81-3.74c1.72-2.52,9.77-15.76,9.77-15.76Z"/><path class="i" d="M185.86,178.57a18.31,18.31,0,1,1-18.3-18.31A18.3,18.3,0,0,1,185.86,178.57Z"/><path class="i" d="M214.14,178.57a18.31,18.31,0,1,0,18.3-18.31A18.3,18.3,0,0,0,214.14,178.57Z"/><path class="j" d="M167.56,160.26a18.6,18.6,0,0,0-5,.7L152.31,188.7a18.34,18.34,0,0,0,10.06,7.41L175,161.87A18.19,18.19,0,0,0,167.56,160.26Z"/><path class="j" d="M176.83,162.8l-12.5,33.77a18,18,0,0,0,3.23.3,18.65,18.65,0,0,0,4.32-.53l10.53-28.45A18.6,18.6,0,0,0,176.83,162.8Z"/><path class="j" d="M232.64,160.26a18.6,18.6,0,0,0-5,.7L217.4,188.7a18.31,18.31,0,0,0,10,7.41l12.67-34.24A18.12,18.12,0,0,0,232.64,160.26Z"/><path class="j" d="M241.91,162.8l-12.5,33.77a18.13,18.13,0,0,0,3.23.3,18.65,18.65,0,0,0,4.32-.53l10.53-28.45A18.36,18.36,0,0,0,241.91,162.8Z"/><polygon class="i" points="140.18 160.26 138.83 163.54 141.83 168.21 144.83 164.71 140.18 160.26"/><polygon class="i" points="259.82 160.26 261.17 163.54 258.17 168.21 255.17 164.71 259.82 160.26"/><path class="g" d="M200.38,63.38c-37.33,0-68,12.35-68,49.23,0,38.18,5,47,5,47s5-20.83,13.67-23.83,7.08-18.33,7.08-18.33,28.92,4,42.25,4,42.25-4,42.25-4-1.58,15.33,7.08,18.33,13.67,23.83,13.67,23.83,5-8.83,5-47C268.38,75.73,237.71,63.38,200.38,63.38Z"/><path class="k" d="M265,66.12c-.44-17.39-13.65-32.59-58.15-33-105-1-48.75,84.34-48.75,84.34,50.25,21.83,84.5,0,84.5,0S255.81,101.59,262,83.63c19.68,7.44,29.92-3.49,29.92-3.49C269.41,89.64,265,66.17,265,66.12Z"/><path class="g" d="M262.27,54.22a25.51,25.51,0,0,0-3-4.73C151,32.28,204.49,120.11,208.8,126.94c.85-.06,1.68-.12,2.49-.2h.13l2.38-.26.15,0c1.55-.19,3-.42,4.48-.67.08,0,.16-.2.23-.21a13.33,13.33,0,0,1,2.09-.57h0a8.56,8.56,0,0,0,2-.25c.08,0,.16,0,.23,0,.62-.15,1.23-.25,1.83-.4a2,2,0,0,0,.26,0c.58-.14,1.14-.28,1.68-.43h.07C217.28,105.67,198.63,45.93,262.27,54.22Z"/><path class="l" d="M229.64,35a131.62,131.62,0,0,0-17.57-1.74c-88.83,3.38-55.31,71-45.83,87.4a114.07,114.07,0,0,0,19.21,5.06C175.17,107.63,143.06,40.46,229.64,35Z"/><path class="l" d="M235.94,120.76a47.92,47.92,0,0,0,6.69-3.3s.72-.87,1.89-2.41c-4.06-11.2-10.9-37.61,17.44-31.42C262,83.63,214.52,50.49,235.94,120.76Z"/></svg>