<svg xmlns="http://www.w3.org/2000/svg" viewBox="0 0 400 401.12"><defs><style>.a{fill:#d770ad;}.b{fill:#e6e9ed;}.c{fill:#f5f7fa;}.d{fill:#f9e0a8;}.e{fill:#d9c392;}.f{fill:#c93f4d;}.g{fill:#ffe9ba;}.h{fill:#ffce54;}.i{fill:#f6bb42;}.j{fill:#ffd56b;}.k{fill:#434a54;}.l{fill:#656d78;}.m{fill:#fc6e51;}.n{fill:#fc8f79;}.o{fill:#fca897;}</style></defs><title>avatar8</title><circle class="a" cx="200" cy="200" r="200"/><path class="b" d="M316.67,303.79c-7.35-6.36-19.37-14.56-30.67-15.67-7.26-.71-86-13-86-13s-78.74,12.29-86,13c-11.3,1.11-23.32,9.31-30.67,15.67-13.42,11.6-20.78,25.84-24.79,38.71a200,200,0,0,0,282.92,0C337.45,329.63,330.09,315.39,316.67,303.79Z"/><path class="c" d="M174.38,279.1,171.56,267s-7.93,2.8-14.41,14.73c-5.49,10.11-9.94,26.78-7.65,53.87,0,0,12.79-.44,13.65,2.56s-5.4,10-5.4,10l16.31,51.3c2,.26,3.94.48,5.94.68v-97Z"/><path class="c" d="M225.62,279.1,228.44,267s7.93,2.8,14.41,14.73c5.49,10.11,9.94,26.78,7.65,53.87,0,0-12.79-.44-13.65,2.56s5.4,10,5.4,10l-16.31,51.3c-2,.26-3.94.48-5.94.68v-97Z"/><path class="d" d="M200,197.12l-42.25-5.5,16.31,88.74s-.08,33.2,17.83,37.31l9.38,17.66L214.94,319c13.84-7.06,11-38.64,11-38.64l16.31-88.74Z"/><path class="e" d="M234,206.62l-69.53,21.59,7.09,38.56c10.66,13.14,26.92,25.19,51,26.26a55,55,0,0,0,3.42-12.67l12.13-66C235.69,209.57,234,206.62,234,206.62Z"/><path class="f" d="M234,277.11l-5.56-10.34-19.1,26.35-4.34,6-4.91,26.46-.09.16-.15-.45L195,299.11l-4.34-6-19.1-26.35L166,277.11l-4,46,18-7.66V400a189.76,189.76,0,0,0,20,1.1,179,179,0,0,0,22-1.35V316.31l16,6.81Z"/><path class="d" d="M137,159.62s-21.31-13.5-19.1,14.5,19.1,26,19.1,26Z"/><path class="d" d="M263,159.62s21.31-13.5,19.1,14.5-19.1,26-19.1,26Z"/><path class="g" d="M200,87.38c-63,0-63,34.74-63,34.74v80c0,20.5,19.24,36.29,35.23,50,13.4,11.5,27.77,11,27.77,11s14.37.5,27.77-11c16-13.71,35.23-29.5,35.23-50v-80S263,87.38,200,87.38Z"/><path class="h" d="M263,200.11s-9,38.51-51.21,50.26c0,0,.24-15.25-11.76-15.25s-11.76,15.25-11.76,15.25C146,238.62,137,200.11,137,200.11c-3.48,28,39.34,55.18,46.47,63s16.5,20,16.5,20,9.37-12.16,16.5-20S266.45,228.1,263,200.11Z"/><path class="i" d="M176.68,246.16c-2.15-1-4.21-2-6.15-3.16a31.21,31.21,0,0,0,1,9.93c2.36,2,4.55,3.73,6.42,5.28A57.78,57.78,0,0,1,176.68,246.16Z"/><path class="j" d="M161.68,237a72.45,72.45,0,0,1-6.88-6.26c-.16,2.14-.27,4.41-.23,6.71,2,2.13,4.13,4.19,6.23,6.14A18.47,18.47,0,0,1,161.68,237Z"/><path class="i" d="M148.69,223.49a76.57,76.57,0,0,1-4.88-7.44,55.26,55.26,0,0,0,0,7.89,74.08,74.08,0,0,0,4.46,6.22A39,39,0,0,1,148.69,223.49Z"/><path class="i" d="M223.32,246.16c2.15-1,4.21-2,6.15-3.16a31.21,31.21,0,0,1-1,9.93c-2.36,2-4.55,3.73-6.42,5.28A57.78,57.78,0,0,0,223.32,246.16Z"/><path class="j" d="M238.32,237a72.45,72.45,0,0,0,6.88-6.26c.16,2.14.27,4.41.23,6.71-2,2.13-4.13,4.19-6.23,6.14A18.47,18.47,0,0,0,238.32,237Z"/><path class="i" d="M251.31,223.49a76.57,76.57,0,0,0,4.88-7.44,55.26,55.26,0,0,1,0,7.89,74.08,74.08,0,0,1-4.46,6.22A39,39,0,0,0,251.31,223.49Z"/><path class="j" d="M207.14,237.72a11.1,11.1,0,0,0-14.28,0c-2.17,9.94-.35,25.69,2,38.89,3,3.74,5.14,6.51,5.14,6.51s2.13-2.77,5.14-6.51C207.49,263.41,209.31,247.66,207.14,237.72Z"/><path class="k" d="M263.09,163.46l-.18-3.66s-12.25,0-12.53,0l-34.63,6.28c-2.71.5-5.18,1.67-5.5,2.63s-2.74,2.18-5.37,2.72a28.79,28.79,0,0,1-9.58,0c-2.63-.54-5.05-1.77-5.37-2.73s-2.8-2.16-5.5-2.65l-34.52-6.33c-.34-.06-12.82.07-12.82.07l-.18,3.74,6.66,8.27,9.49,14.76a9.56,9.56,0,0,0,7.69,4l22.11-1a6.88,6.88,0,0,0,6-5.12l.44-2c.58-2.69,3.18-5.12,5.79-5.12s4.78-.22,4.84-.22h.22c.05,0,2.23.23,4.84.22a6.44,6.44,0,0,1,5.79,5l.44,2.11a6.9,6.9,0,0,0,6,5.15l22.1,1a9.6,9.6,0,0,0,7.7-4l9.48-14.78a6.71,6.71,0,0,0,.35-.65Z"/><path class="l" d="M207,170.77c-1,.26-1.4.5-2.21.66a28.77,28.77,0,0,1-9.62,0c-.74-.15-1.17-.36-2.17-.6v6.88a7.85,7.85,0,0,1,2.05-.49c2.6,0,4.87-.22,4.93-.22h.22c.05,0,2.14.23,4.75.22a6.61,6.61,0,0,1,2.05.57Z"/><path class="m" d="M212.78,181.91l.44,2.05a4.89,4.89,0,0,0,4.19,3.55l22.11,1h.18a7.68,7.68,0,0,0,5.74-3.06l9.48-14.78a8,8,0,0,0,.56-6.66,4.7,4.7,0,0,0-4.07-2.39,3.63,3.63,0,0,0-.67.06L216.11,168c-2.14.38-3.64,3.16-4.05,3.52Z"/><path class="n" d="M234,164.75l9.75,22.35a7.64,7.64,0,0,1-4.08,1.43h-.18l-3.92-.18-9.66-22.12Z"/><path class="o" d="M216.11,168l2.76-.51L227.8,188l-4.45-.21-8.41-19.27A3.33,3.33,0,0,1,216.11,168Z"/><path class="m" d="M187.39,181.91,187,184a4.88,4.88,0,0,1-4.19,3.55l-22.1,1h-.19a7.68,7.68,0,0,1-5.73-3.06l-9.48-14.78a8,8,0,0,1-.57-6.66,4.73,4.73,0,0,1,4.08-2.39,3.71,3.71,0,0,1,.67.06L184.07,168c2.13.38,3.64,3.16,4,3.52Z"/><path class="n" d="M166.15,164.75l-9.76,22.35a7.67,7.67,0,0,0,4.08,1.43h.19l3.92-.18,9.65-22.12Z"/><path class="o" d="M184.07,168l-2.76-.51L172.37,188l4.46-.21,8.41-19.27A3.41,3.41,0,0,0,184.07,168Z"/><path class="h" d="M249.9,231.93h0l0,0c5,5,19.73,21.78,16.6,42.22a14.92,14.92,0,0,0,13.41-.74C279.45,245.25,249.9,231.93,249.9,231.93Z"/><path class="h" d="M255.29,224.59c-.22.32-.44.64-.67.95,14.88,5.86,28,21.77,35.49,32.49C292.87,242.35,276,225.35,255.29,224.59Z"/><path class="i" d="M285.29,268.42l.29-.4c.24-.32.47-.65.7-1l.32-.5c.23-.36.45-.74.67-1.12l.29-.5c.31-.57.61-1.15.91-1.78s.45-1,.64-1.51l.17-.45c.13-.37.25-.75.36-1.13,0-.15.09-.3.13-.45q.19-.75.33-1.5V258c-7.51-10.71-20.61-26.63-35.49-32.49a78.45,78.45,0,0,1-4.91,6.2l.16.16,0,0h0s29.55,13.32,30,41.45h0c.35-.21.7-.43,1.05-.68l.11-.08c.33-.23.67-.49,1-.76l.1-.09a19.42,19.42,0,0,0,2.15-2.12l.13-.16C284.72,269.14,285,268.79,285.29,268.42Z"/><path class="h" d="M263.62,80.87v0c-3.89-16.09-18.27-34.27-63.43-34.27-45.68,0-59.94,18.38-63.66,34.53l-.14-.28c-18,18.34.8,78.75.8,78.75s0-1.5,5.67-9.5c3.35-4.72,3.67-22,3.37-35.37,20.38,17.21,54,24.87,54,24.87s33.18-7.58,53.59-24.56c-.28,13.32.06,30.37,3.38,35.06,5.67,8,5.67,9.5,5.67,9.5S281.62,99.21,263.62,80.87Z"/><path class="i" d="M146.25,63.15c1.06,37.87,13.23,57.14,25.75,66.92a180.44,180.44,0,0,0,27.31,9.34c-47.49-38.23-37.66-74.28-30.57-88.92C158.48,53.49,151.27,58,146.25,63.15Z"/><path class="i" d="M145.79,137.15,130,126.79c.77,5.52,1.77,10.82,2.78,15.5L145,143.66C145.33,141.73,145.59,139.53,145.79,137.15Z"/><path class="j" d="M128.62,111.28c.11,3.88.43,7.84.88,11.73l16.72,6c0-1.68.07-3.38.08-5.07Z"/><path class="j" d="M219,47.84a145.08,145.08,0,0,0-37.55,0C178.09,63,180.66,90.28,200,139.57l.21.05.21-.05C219.71,90.28,222.27,63,219,47.84Z"/><path class="i" d="M254.11,63.15c-1.06,37.87-13.23,57.14-25.74,66.92a180.82,180.82,0,0,1-27.31,9.34c47.48-38.23,37.65-74.28,30.56-88.92C241.88,53.49,249.09,58,254.11,63.15Z"/><path class="i" d="M255.17,144.47l11.89-1.34c1-4.68,2.06-10,2.86-15.67l-15.66,10.27A67,67,0,0,0,255.17,144.47Z"/><path class="j" d="M271.37,111.54,253.7,124.18c0,1.75,0,3.5.09,5.23l16.66-6C270.92,119.51,271.25,115.49,271.37,111.54Z"/></svg>