<svg xmlns="http://www.w3.org/2000/svg" viewBox="0 0 400 401"><defs><style>.a{fill:#967adc;}.b{fill:#e6e9ed;}.c{fill:#f9e0a8;}.d{fill:#d9c392;}.e{fill:#f5f7fa;}.f{fill:#ffe9ba;}.g{fill:#434a54;}.h{fill:#656d78;}</style></defs><title>avatar7</title><circle class="a" cx="200" cy="200" r="200"/><path class="b" d="M340.56,343.27c-4.25-12.59-11.4-29.09-23.42-39.48-7.35-6.36-19.36-14.56-30.67-15.67-7.25-.71-86-13-86-13s-78.74,12.29-86,13c-11.3,1.11-23.31,9.31-30.67,15.67C71.56,314.37,64.37,331.3,60.16,344a200,200,0,0,0,280.4-.69Z"/><path class="c" d="M200.47,197.12l-42.25-5.5,16.31,88.74s3.67,30.76,25.94,30.76,25.95-30.76,25.95-30.76l16.3-88.74Z"/><polygon class="c" points="188.47 307 209.47 307 200.47 398.5 188.47 307"/><path class="d" d="M234.47,206.62,165,228.21,172,266.77C182.69,279.91,199,292,223,293a55.32,55.32,0,0,0,3.43-12.67l12.12-66C236.16,209.57,234.47,206.62,234.47,206.62Z"/><polygon class="e" points="158.22 281.66 172.03 266.77 194.47 296.12 200.47 398.62 188.97 315.69 173.42 336.23 158.22 281.66"/><polygon class="e" points="242.72 281.66 228.91 266.77 206.47 296.12 200.47 398.62 211.97 315.69 227.53 336.23 242.72 281.66"/><path class="c" d="M137,159.62s-21.31-13.5-19.1,14.5,19.1,26,19.1,26Z"/><path class="c" d="M263,159.62s21.31-13.5,19.1,14.5-19.1,26-19.1,26Z"/><path class="f" d="M200,87.38c-63,0-63,34.74-63,34.74v80c0,20.5,19.24,36.29,35.23,50,13.4,11.5,27.77,11,27.77,11s14.37.5,27.77-11c16-13.71,35.23-29.5,35.23-50v-80S263,87.38,200,87.38Z"/><path class="g" d="M137.47,159.62a50.52,50.52,0,0,0,11,26s-17-50,5-56c0,0-1.5,11.5,30.5,29,0,0-16.5-24.5-2.5-29,0,0,45.5,38,42.5,56,0,0,15-21.5,2.5-41,0,0,28,24.5,21.5,52,0,0,15.5-23,15.5-37,0,0,6,17.5,15.5,15,0,0-12.3-15.5-3.15-18,0,0,8.65-10,14.65,7.5,0,0,10.5-11-7.73-24-13.84-9.86,12.73-28.5,28.73-2.5,0,0-1.5-78.5-57.5-74.5,0,0,32.5-34.5,2.5-50,0,0,19,34.5-34.5,44,0,0,18.9-31.3-34.5-38.5,0,0,42,19.5,4,30.5,0,0-30.5-14-54,11.5,0,0,4.5-15,16-21,0,0-28.26,1-25.63,30,0,0-25.37,1.5-20.37,22.5s-12,15-12,15,10,14.5,22.74,1c0,0-11.24,7-10.74,19.5s-3.5,19.5-12,19c0,0,9.47,15,22.74-10.5,0,0-9.82,16.68-3.24,34.5,0,0,1.24-14,12.87-14.25S125,181.12,110,175.62C110,175.62,129,186.62,137.47,159.62Z"/><path class="h" d="M112.73,159A36.76,36.76,0,0,0,115,170.62s.54-6.06,4.21-10.28a48.56,48.56,0,0,1,4.39-14C119.54,153.76,115.87,157.45,112.73,159Z"/><path class="h" d="M135.19,165.49a6.28,6.28,0,0,0-1.35-.12,12.33,12.33,0,0,0-3.65.61,23.23,23.23,0,0,1-7.76,8,22.69,22.69,0,0,0-1.13,3.68C126,176.9,131.21,173.86,135.19,165.49Z"/><path class="h" d="M159.47,48.62c-11.5,6-16,21-16,21,23.5-25.5,54-11.5,54-11.5,21.41-6.2,17.43-15.09,9.87-21.68.51,4.48-3.31,9.05-15.87,12.68,0,0-20.95-9.61-41.5,1.61A33.18,33.18,0,0,1,159.47,48.62Z"/><path class="h" d="M260,72.12c18.14-1.29,30.55,6.07,39.06,16.61-6.65-12-16.85-22.29-32.47-25A73.77,73.77,0,0,1,260,72.12Z"/><path class="h" d="M285,141.81c-.37,2.48.7,5.11,3.79,7.31a40.32,40.32,0,0,1,4.24,3.45C292.07,149.38,289.75,145.7,285,141.81Z"/><path class="h" d="M231.19,55.06A26.13,26.13,0,0,1,228,66.12c53.5-9.5,34.5-44,34.5-44A29.83,29.83,0,0,1,268.36,26c-1.47-4.87-5.05-9.39-11.89-12.92C256.47,13.12,273.17,43.44,231.19,55.06Z"/><path class="h" d="M203.41,29.42c10.06,2.34,16.67,5.74,20.9,9.55-2.63-8.27-11.77-17-36.84-20.35C187.47,18.62,197.6,23.33,203.41,29.42Z"/><path class="h" d="M113.09,144.32a38.9,38.9,0,0,0,.38-7.7c-.29-7.3,3.42-12.72,6.55-16-4.63,3-8.73,2.54-11.89,1.07a19.89,19.89,0,0,0-.66,5.9c.5,12.5-3.5,19.5-12,19C95.47,146.62,102.58,157.87,113.09,144.32Z"/><path class="h" d="M269.47,168.62c0,.58,0,1.17-.08,1.77a17.82,17.82,0,0,0,1.45,1.55C270,170,269.47,168.62,269.47,168.62Z"/><path class="h" d="M253.68,187.18c-2.28-9.18-7.24-17.28-11.8-23.22,5.15,9.1,9,20.59,6.09,32.66C248,196.62,250.59,192.73,253.68,187.18Z"/><path class="h" d="M226.42,181.37a77.29,77.29,0,0,0-6.18-9.32c2.82,5,4.37,9.76,3.73,13.57A38.78,38.78,0,0,0,226.42,181.37Z"/><path class="h" d="M113.89,111.74c.71-2.37.74-5.77-.42-10.62-5-21,20.37-22.5,20.37-22.5-.73-8.1.94-14,3.74-18.33.73-2.2,5.39-15.19,15.89-20.67,0,0-28.26,1-25.63,30,0,0-25.37,1.5-20.37,22.5s-12,15-12,15S103.26,118.44,113.89,111.74Z"/><path class="h" d="M290.26,163.54l.21.58a3.63,3.63,0,0,0,.25-.29Z"/><path class="h" d="M143.47,168.62a45,45,0,0,1-2.08,5.42,48,48,0,0,0,7.08,11.58l-.25-.78A49.57,49.57,0,0,1,143.47,168.62Z"/><path class="h" d="M113.86,111.82a25.6,25.6,0,0,0-3.2,4.13A6.69,6.69,0,0,0,113.86,111.82Z"/><path class="h" d="M120.35,177.76c-.25-.81-.47-1.62-.65-2.42a13.3,13.3,0,0,1-9.73.28A19.16,19.16,0,0,0,120.35,177.76Z"/><path class="h" d="M144.93,113.86s12.54-27.24,64.54-4.24,44.21-2.49,44.21-2.49-5.39,15.49-40.3.49S160.39,84.6,144.93,113.86Z"/><path class="h" d="M143.47,98.12s13.18-49.29,80.84-9.39C224.31,88.73,163.47,64.12,143.47,98.12Z"/></svg>