<svg xmlns="http://www.w3.org/2000/svg" viewBox="0 0 400 401.12"><defs><style>.a{fill:#434a54;}.b{fill:#f6bb42;}.c{fill:#ffce54;}.d{fill:#f5f7fa;}.e{fill:#f9e0a8;}.f{fill:#d9c392;}.g{fill:#fff;}.h{fill:#ffe9ba;}.i{fill:#ffd56b;}</style></defs><title>avatar16</title><circle class="a" cx="200" cy="200" r="200"/><path class="b" d="M149.75,225.12s-1.25,39.19-12.75,43c0,0,26,1.85,38-28.65S149.75,225.12,149.75,225.12Z"/><path class="b" d="M250.25,225.12s1.25,39.19,12.75,43c0,0-26,1.85-38-28.65S250.25,225.12,250.25,225.12Z"/><path class="c" d="M130.26,188.9s5.45,52.71-6.1,58.64c0,0,21,1.75,39.38-23.66Z"/><path class="c" d="M269.74,188.9s-5.45,52.71,6.1,58.64c0,0-21,1.75-39.38-23.66Z"/><path class="d" d="M316.67,303.79c-7.35-6.36-19.37-14.56-30.67-15.67-7.26-.71-86-13-86-13s-78.74,12.29-86,13c-11.3,1.11-23.32,9.31-30.67,15.67-13.42,11.6-20.78,25.84-24.79,38.71a200,200,0,0,0,282.92,0C337.45,329.63,330.09,315.39,316.67,303.79Z"/><path class="e" d="M199,196.12l-42.25-5.5,16.31,88.74s3.66,30.76,25.94,30.76,25.94-30.76,25.94-30.76l16.31-88.74Z"/><path class="f" d="M233,205.62l-69.53,21.59,7.09,38.56c10.66,13.14,26.92,25.19,51,26.26a55,55,0,0,0,3.42-12.67l12.13-66C234.69,208.57,233,205.62,233,205.62Z"/><polygon class="g" points="234.48 279.31 229.44 265.77 200 306.96 216.33 329.81 234.48 279.31"/><path class="g" d="M200,307,178.88,277.4l-8.32-11.63-5,13.54.07.15L223,398.8a199.9,199.9,0,0,0,37.83-8.11Z"/><path class="d" d="M237,396.69l-67.3-128.51L167.5,274l-.37,1,64.09,122.67C233.14,397.37,235.06,397.05,237,396.69Z"/><path class="d" d="M230.67,269.07l-25.53,45.07,3.33,4.66s24.29-44.1,24.08-44.68S230.67,269.07,230.67,269.07Z"/><path class="e" d="M136,159.62s-21.31-13.5-19.1,14.5,19.1,26,19.1,26Z"/><path class="e" d="M262,159.62s21.31-13.5,19.1,14.5-19.1,26-19.1,26Z"/><path class="h" d="M199,87.38c-63,0-63,34.74-63,34.74v80c0,20.5,19.24,36.29,35.23,50,13.4,11.5,27.77,11,27.77,11s14.37.5,27.77-11c16-13.71,35.23-29.5,35.23-50v-80S262,87.38,199,87.38Z"/><path class="c" d="M200.27,114.4S222,186,299.5,173c0,0-21.1-4-18.24-25s11.38-93.5-44.19-82.5S200.27,114.4,200.27,114.4Z"/><path class="c" d="M199,42.5s-77,4-82.26,61.5c-5,54.57-26.24,78-26.24,78s92,18,134-50S237.07,41.7,199,42.5Z"/><path class="b" d="M82,112.5s108.14,21,154.07-29S148,117.5,82,112.5Z"/><path class="i" d="M86,143s85.62,20.14,159-42C245,101,180.5,202,86,143Z"/><path class="b" d="M245,101s-3.54,67.5,51,60.5C296,161.5,267.59,151,245,101Z"/></svg>