<svg xmlns="http://www.w3.org/2000/svg" viewBox="0 0 400 401.12"><defs><style>.a{fill:#967adc;}.b{fill:#434a54;}.c{fill:#f9e0a8;}.d{fill:#d9c392;}.e{fill:#f5f7fa;}.f{fill:#e6e9ed;}.g{fill:#c93f4d;}.h{fill:#656d78;}.i{fill:#ffe9ba;}.j{fill:#ffd56b;}.k{fill:#f6bb42;}.l{fill:#ffce54;}</style></defs><title>avatar15</title><circle class="a" cx="200" cy="200" r="200"/><path class="b" d="M316.67,303.79c-7.35-6.36-19.37-14.56-30.67-15.67-7.26-.71-86-13-86-13s-78.74,12.29-86,13c-11.3,1.11-23.32,9.31-30.67,15.67-13.41,11.6-20.78,25.84-24.79,38.71a200,200,0,0,0,282.92,0C337.45,329.63,330.08,315.39,316.67,303.79Z"/><path class="c" d="M200,197.12l-42.25-5.5,16.31,88.74s3.66,30.76,25.94,30.76,25.94-30.76,25.94-30.76l16.31-88.74Z"/><path class="d" d="M234,206.62l-69.53,21.59,7.09,38.56c10.66,13.14,26.92,25.19,51,26.26a55,55,0,0,0,3.42-12.67l12.13-66C235.69,209.57,234,206.62,234,206.62Z"/><path class="e" d="M227.63,271.34c-9.46,9.47-27.63,12.78-27.63,12.78s-18.17-3.31-27.63-12.78l-4,8.77L200,396.83l31.63-116.72Z"/><polygon class="f" points="175.93 308.01 200 284.12 224.07 308.01 200 396.83 175.93 308.01"/><polygon class="g" points="192.69 318.62 185.39 352.9 200 396.83 214.71 352.56 207.6 318.62 213.85 297.87 200 284.12 186.27 297.74 192.69 318.62"/><path class="h" d="M228.45,273.14l3.18,7L200,396.83,168.37,280.11l3.18-7c-34.55,7-12.3,68.48-12.3,68.48l10-3.5-6.37,10.25L200,398.83l37.12-50.46-6.37-10.25,10,3.5S263,280.12,228.45,273.14Z"/><path class="c" d="M137,159.62s-21.31-13.5-19.1,14.5,19.1,26,19.1,26Z"/><path class="c" d="M263,159.62s21.31-13.5,19.1,14.5-19.1,26-19.1,26Z"/><path class="i" d="M200,87.38c-63,0-63,34.74-63,34.74v80c0,20.5,19.24,36.29,35.23,50,13.4,11.5,27.77,11,27.77,11s14.37.5,27.77-11c16-13.71,35.23-29.5,35.23-50v-80S263,87.38,200,87.38Z"/><polygon class="e" points="193 159.56 193 183 149 183 149 160.88 193 159.56"/><polygon class="f" points="165.18 183 160.86 183 163.74 163 168.06 163 165.18 183"/><polygon class="f" points="169.5 183 173.81 183 176.61 163 172.28 163 169.5 183"/><polygon class="e" points="207 159.56 207 183 251 183 251 160.88 207 159.56"/><polygon class="e" points="207 159.56 207 183 251 183 251 160.88 207 159.56"/><polygon class="f" points="228.65 183 224.34 183 227.21 163 231.53 163 228.65 183"/><polygon class="f" points="232.97 183 237.29 183 240.08 163 235.75 163 232.97 183"/><polygon class="h" points="263 159.62 254.47 158 205.6 158 205 163.57 205 163 195 163 195 163.57 195.35 158 146.47 158 137 159.62 137 163.12 147.46 166.06 148.15 169 149.35 169 150.79 163 191.13 163 193.96 171.83 195.64 170.86 195.6 169 205.35 169 205.31 170.9 206.99 171.8 209.81 163 250.16 163 251.59 169 252.79 169 253.01 166.06 263 163.12 263 159.62"/><path class="j" d="M248.72,27.37c-47-12.25-59.25,25.75-59.25,25.75s-11.75-12.75-42-4.25-9,44.25-9,44.25L141.64,91l5.17,2.16s-3.17-11.75,16.33-11.75c15.55,0,23.68,7.47,26.33,10.5.09.09.17.19.24.27,2.4-4.55,13.87-23.64,37.43-23.64,26.75,0,25.33,10.73,25.33,10.73s3.34,1.81,2.17,4.15c0,0,4.76,20.57,9.83,9.74C264.47,93.12,295.72,39.62,248.72,27.37Z"/><path class="k" d="M226.14,77.5c-23.56,0-35,20.09-37.43,24.64-.09.18-7.49-12.33-26.57-11.77-19.7.58-16.78,11.38-16.38,12.63h-8.29c-18,18,0,61.53,0,61.53s0-1.47,5.67-9.47c5.49-7.75,2.84-49.37,2.67-51.94.18.07,17,6.18,52.16,6.18,35.38,0,48.63-6.18,48.63-6.18S252.89,77.5,226.14,77.5Z"/><path class="k" d="M263.47,103h-8.33s-3,44.06,2.67,52.06,5.66,9.47,5.66,9.47S281.47,121,263.47,103Z"/><path class="l" d="M247.72,37.37c-47-12.25-59.25,25.75-59.25,25.75s-11.75-12.75-42-4.25-9,44.25-9,44.25l8.68,6.18-.34-6.18s-3.17-11.75,16.33-11.75c15.55,0,23.68,7.47,26.33,10.5.09.09.17.19.24.27,2.4-4.55,13.87-23.64,37.43-23.64,26.75,0,18.67,24.62,18.67,24.62s-3.34,14-4.5,16.34c0,0,18.09-5.51,23.16-16.34C263.47,103.12,294.72,49.62,247.72,37.37Z"/><path class="k" d="M240.08,63.12c-31.61-14.33-51.61,26-51.61,26s23.81-34,50.07-19.66,8.7,47.25,8.7,47.25S271.69,77.46,240.08,63.12Z"/><path class="k" d="M146.6,77.5c-16.87,3-7.72,26.62-7.72,26.62l3,2.1c-3.63-41.33,46.64-17.84,46.64-17.84S163.47,74.46,146.6,77.5Z"/><path class="k" d="M238.54,41.9c-26.28-3.11-49.83,37.56-49.83,37.56s25.11-32.34,51.37-23.67,21.39,48.33,21.39,48.33S271.47,45.79,238.54,41.9Z"/><path class="k" d="M142.48,60.27c-9.11,3.92-12.09,10.93-12.25,18.16,15.15-29.14,58.48,1,58.48,1C176.42,63.3,157.79,59.81,142.48,60.27Z"/></svg>