<svg xmlns="http://www.w3.org/2000/svg" viewBox="0 0 400 401"><defs><style>.a{fill:#3db093;}.b{fill:#f9e0a8;}.c{fill:#d9c392;}.d{fill:#434a54;}.e{fill:#656d78;}.f{fill:#ffe9ba;}.g{fill:#f5f7fa;}.h{fill:#e8eaed;}.i{fill:#ccd1d9;}</style></defs><title>avatar6</title><circle class="a" cx="200" cy="200" r="200"/><path class="b" d="M200.47,197l-42.25-5.5,16.31,88.73S178.2,311,200.47,311s25.95-30.77,25.95-30.77l16.3-88.73Z"/><path class="c" d="M234.47,206.5,165,228.09,172,266.65c10.66,13.14,26.92,25.18,51,26.26a55.33,55.33,0,0,0,3.43-12.68l12.12-66C236.16,209.45,234.47,206.5,234.47,206.5Z"/><path class="d" d="M317.14,303.67a78.89,78.89,0,0,0-19.47-12.58,38.13,38.13,0,0,0-11.2-3.09c-2-.2-9.75-1.32-19.77-2.82-11.35-1.7-25.67-3.9-38.09-5.81.62-4.05.87-8-.75-7C223.47,275,200.47,274,200.47,274s-23,1-27.39-1.65c-1.62-1-1.37,3-.75,7-12.42,1.91-26.74,4.11-38.09,5.81-10,1.5-17.73,2.62-19.77,2.82a38.07,38.07,0,0,0-11.19,3.09A79,79,0,0,0,83.8,303.67C70.39,315.26,63,329.51,59,342.38a200,200,0,0,0,282.93,0C337.92,329.51,330.56,315.26,317.14,303.67Z"/><path class="e" d="M83.8,318.67a79,79,0,0,1,19.48-12.58A38.07,38.07,0,0,1,114.47,303c2-.2,9.75-1.32,19.77-2.82,11.35-1.7,25.67-3.9,38.09-5.81-.62-4.05-1.62-16,0-15,4.39,2.65,51.89,2.65,56.28,0,1.62-1,.62,10.95,0,15,12.42,1.91,26.74,4.11,38.09,5.81,10,1.5,17.73,2.62,19.77,2.82a38.13,38.13,0,0,1,11.2,3.09,78.89,78.89,0,0,1,19.47,12.58,80.42,80.42,0,0,1,20.61,27.76q2.12-2,4.19-4.05c-4-12.87-11.38-27.12-24.8-38.71a78.89,78.89,0,0,0-19.47-12.58,38.13,38.13,0,0,0-11.2-3.09c-2-.2-9.75-1.32-19.77-2.82-11.35-1.7-25.67-3.9-38.09-5.81.62-4.05.87-8-.75-7C223.47,275,200.47,274,200.47,274s-23,1-27.39-1.65c-1.62-1-1.37,3-.75,7-12.42,1.91-26.74,4.11-38.09,5.81-10,1.5-17.73,2.62-19.77,2.82a38.07,38.07,0,0,0-11.19,3.09A79,79,0,0,0,83.8,303.67C70.39,315.26,63,329.51,59,342.38c1.37,1.37,2.77,2.72,4.18,4.05A80.67,80.67,0,0,1,83.8,318.67Z"/><path class="b" d="M137,159.62s-21.31-13.5-19.1,14.5,19.1,26,19.1,26Z"/><path class="b" d="M263,159.62s21.31-13.5,19.1,14.5-19.1,26-19.1,26Z"/><path class="f" d="M200,87.38c-63,0-63,34.74-63,34.74v80c0,20.5,19.24,36.29,35.23,50,13.4,11.5,27.77,11,27.77,11s14.37.5,27.77-11c16-13.71,35.23-29.5,35.23-50v-80S263,87.38,200,87.38Z"/><path class="e" d="M264.63,160.87l-24.19,9.63a16.39,16.39,0,0,0-30.82,4.33,14.54,14.54,0,0,0-18.3,0,16.39,16.39,0,0,0-30.82-4.33l-24.19-9.63.07,2.15s21.27,10.31,22.61,12.27a17.07,17.07,0,0,0-.21,2.49,16.4,16.4,0,0,0,32.8.43c1.73-3,5.63-4.22,8.89-4.29s7.17,1.25,8.9,4.29a16.4,16.4,0,0,0,32.79-.43,17.07,17.07,0,0,0-.2-2.49c1.33-2,22.61-12.27,22.61-12.27Z"/><path class="g" d="M189.46,177.78a14.27,14.27,0,1,1-14.27-14.27A14.26,14.26,0,0,1,189.46,177.78Z"/><path class="g" d="M211.49,177.78a14.27,14.27,0,1,0,14.27-14.27A14.26,14.26,0,0,0,211.49,177.78Z"/><path class="h" d="M175.19,163.51a14.21,14.21,0,0,0-3.88.55l-8,21.61a14.29,14.29,0,0,0,7.83,5.78L181,164.77A14.18,14.18,0,0,0,175.19,163.51Z"/><path class="h" d="M182.41,165.49l-9.74,26.32a15,15,0,0,0,2.52.23,13.89,13.89,0,0,0,3.37-.42l8.2-22.16A14.13,14.13,0,0,0,182.41,165.49Z"/><path class="h" d="M225.91,163.51a14.21,14.21,0,0,0-3.88.55l-8,21.61a14.29,14.29,0,0,0,7.83,5.78l9.88-26.68A14.18,14.18,0,0,0,225.91,163.51Z"/><path class="h" d="M233.13,165.49l-9.74,26.32a15,15,0,0,0,2.52.23,13.89,13.89,0,0,0,3.37-.42l8.2-22.16A14.24,14.24,0,0,0,233.13,165.49Z"/><path class="i" d="M244.74,201.15c-2.25,25.11-6.07,25.28-13.39,22.47,0,0,10.23-17-30.94-17s-31,17-31,17c-7.31,2.81-11.47,2.64-13.72-22.47-1.4-15.68-18.72-13.53-18.72-13.53v23c19,65,63,53.5,63,53.5s45,11.5,63-53.5v-23S246.14,185.47,244.74,201.15Zm-32.06,32.71c-2.05,4-11.58,5.27-12.21,5.25s-10.15-1.27-12.2-5.25a9,9,0,0,0-8-5.23S194.2,227,199.47,222h2c5.28,5,19.17,6.63,19.17,6.63A9,9,0,0,0,212.68,233.86Z"/><path class="i" d="M270,144.37c-6.5-12.25,3-28.75-6.5-33.75s-11.5-39.5-63-39.5-53.5,34.5-63,39.5,0,21.5-6.5,33.75,6.5,25.25,6.5,25.25l8.5,11.5c-2.1-11.31,7-12.44,4-20-22.13-56.5,26.5-69,26.5-69,3.5,10,15.5,2,15.5,7s8.5,10,8.5,10,8.5-5,8.5-10,12,3,15.5-7c0,0,48.64,12.5,26.5,69-3,7.56,6.1,8.69,4,20l8.5-11.5S276.47,156.61,270,144.37Z"/></svg>