<svg xmlns="http://www.w3.org/2000/svg" viewBox="0 0 400 401"><defs><style>.a{fill:#8cc152;}.b{fill:#272b30;}.c{fill:#434a54;}.d{fill:#ba4632;}.e{fill:#e9573f;}.f{fill:#ff5f45;}.g{fill:#ab7049;}.h{fill:#8c5c3c;}.i{fill:#ba7a50;}.j{fill:#f6bb42;}.k{fill:#656d78;}</style></defs><title>avatar17</title><circle class="a" cx="200" cy="200" r="200"/><path class="b" d="M195.82,326.48c-17.33-24.15-27.66-52.2-27-82.1a114.16,114.16,0,0,1,3.64-26.14q1-3.68,2.21-7.25c.28-.81,1.6-4,.67-1.85,1.47-3.32-.63-8-4.51-7.58l.19-.14c4.77-3.37,1.76-10-3.85-9.13-30.76,4.88-54,25.72-66.87,53.41C93.46,260.36,88.66,276.83,87.5,293c-.46,6.44,9.54,6.4,10,0a79.77,79.77,0,0,1,1.79-11.87,138.5,138.5,0,0,1,8.89-28.77c8.11-18.47,20.82-33.53,37.67-42.49a191,191,0,0,0-20.48,24.43c-20.6,29.09-28.79,65.28-14.69,99,2.45,5.86,12.13,3.29,9.64-2.66-6.73-16.1-8.78-33.22-5.16-50.34,3.21-15.22,10.52-29.2,19.45-41.8a154.83,154.83,0,0,1,13.24-16.13q-1.29,2.46-2.39,5c-6,13.84-8.75,28.8-10.66,43.68A341,341,0,0,0,132.5,332c.34,6.41,10.34,6.45,10,0a355.58,355.58,0,0,1,1.61-55c1.46-14.1,3.95-28.29,8.84-41.64,2-5.51,4.85-11.6,8.89-16.4a133.21,133.21,0,0,0-3,24.27c-1.25,31.78,10,62.67,28.35,88.28C190.91,336.71,199.59,331.73,195.82,326.48Z"/><path class="b" d="M310.5,293c-1.14-16-5.9-32-12.41-46.51-12.58-28.1-36.31-49.33-67.24-54.23-5.61-.9-8.62,5.76-3.85,9.13l.19.14c-3.88-.4-6,4.26-4.51,7.58-.91-2.06.26.7.54,1.49.83,2.28,1.53,4.61,2.17,7a114.6,114.6,0,0,1,3.78,25.65c1.19,30.18-9.55,58.93-27,83.24-3.77,5.25,4.91,10.23,8.64,5,18.28-25.47,29.06-55.61,28.38-87.14a124.7,124.7,0,0,0-3-25.33c3.79,4.56,6.49,10.26,8.51,15.48,5.11,13.2,7.51,27.48,9.05,41.5a346.44,346.44,0,0,1,1.72,56c-.34,6.45,9.66,6.41,10,0a349,349,0,0,0-2.17-59.94c-1.81-14.93-4.58-29.95-10.45-43.87-.82-1.95-1.73-3.88-2.73-5.77a163.27,163.27,0,0,1,13.24,16.11c8.83,12.28,15.7,25.91,19.2,40.67,4.11,17.34,1.92,35.13-4.91,51.47-2.49,5.95,7.19,8.52,9.64,2.66,14.17-33.89,5.75-69.71-14.69-99a182.88,182.88,0,0,0-20.38-24.39c16.51,8.84,28.95,23.55,37.21,41.63a136.31,136.31,0,0,1,9.13,29c.38,1.8.71,3.61,1,5.43.13.76.24,1.52.36,2.28a8.71,8.71,0,0,1,.14,1c.16,1.25.31,2.51.4,3.77C301,299.43,311,299.47,310.5,293Z"/><path class="c" d="M320.32,267.67c-4.42-18.87-13.28-36.26-26.89-50.15-11.37-11.6-25.63-19.86-40.7-25.65a151.62,151.62,0,0,0-51.06-10c-16.94-.54-34.64,2.71-50.6,7.9-33.67,11-60.13,35-71,69.1-.92,2.88-1.67,5.81-2.36,8.76-1.47,6.27,8.17,8.94,9.64,2.66,4.29-18.29,12.87-34.83,26.5-47.87,11-10.52,24.76-17.87,39.09-22.73l.86-.28c-1.18,1.13-2.32,2.32-3.4,3.56a114.7,114.7,0,0,0-28.27,27.21c-7.91,10.79-15,24.13-17.42,37.45-1.16,6.3,8.48,9,9.64,2.66,2.24-12.16,8.39-23.58,15.41-33.66,1.8-2.59,3.72-5,5.73-7.41-1.35,3.48-2.56,7-3.65,10.39a203.37,203.37,0,0,0-8.66,41.14c-.66,6.41,9.35,6.35,10,0,.35-3.44.66-5.29,1.37-9.49a225.7,225.7,0,0,1,5.72-25c2.76-9.51,6.61-21.08,12.69-30.57-8.2,23.4-8.12,50.17,1,72.64,2.39,5.89,12.07,3.32,9.64-2.66-10.61-26.14-8.26-57.82,6.08-82.38A134.7,134.7,0,0,1,199,193.13a134,134,0,0,1,29.37,10.2c14.32,24.56,16.66,56.22,6.06,82.34-2.43,6,7.25,8.55,9.64,2.66,9.11-22.44,9.2-49.17,1-72.55,5.83,9.19,9.58,20.29,12.35,29.49a218,218,0,0,1,5.9,25.34c.26,1.49.5,3,.73,4.46l.24,1.63c0,.13.13.9.17,1.23.13.95.25,1.9.35,2.86.65,6.35,10.66,6.41,10,0a209.9,209.9,0,0,0-8.35-40.15c-1.12-3.65-2.38-7.4-3.81-11.12,1.95,2.27,3.82,4.65,5.58,7.15,7.08,10,13.18,21.55,15.41,33.66,1.16,6.34,10.8,3.64,9.64-2.66-2.46-13.37-9.57-26.56-17.42-37.45a112,112,0,0,0-28.42-27.39q-1.56-1.77-3.25-3.39h0a106.81,106.81,0,0,1,39.17,22.32c14.12,12.93,22.9,30.06,27.24,48.56C312.15,276.61,321.79,273.94,320.32,267.67Z"/><path class="d" d="M162.94,281s-2.27-16,36.06-16,36.06,16,36.06,16Z"/><path class="e" d="M200,401a199.34,199.34,0,0,0,141.46-58.62c-4-12.87-11.37-27.12-24.79-38.71a79.08,79.08,0,0,0-19.47-12.58A38.21,38.21,0,0,0,286,288c-2-.2-9.75-1.32-19.77-2.82C240.65,281.35,200,275,200,275s-40.65,6.35-66.23,10.18c-10,1.5-17.73,2.62-19.77,2.82a38.21,38.21,0,0,0-11.2,3.09,79.08,79.08,0,0,0-19.47,12.58c-13.42,11.59-20.78,25.84-24.79,38.71A199.34,199.34,0,0,0,200,401Z"/><path class="f" d="M278.19,327.06s-6.63-13.9-3.22-23.89a27,27,0,0,1,5.34,6.66l-.76,2.87,1.69-1s1.33,5.57.39,6.86l2.66-1.82C287.64,322.88,278.19,327.06,278.19,327.06Z"/><path class="f" d="M273.75,303.88s-.92,15.64,3.76,21.91a6.26,6.26,0,0,1-6.48-2.62l1.44-.07s-3.85-1.73-3.87-4.12l2.11-1.21-3-1.65A28.3,28.3,0,0,1,273.75,303.88Z"/><path class="d" d="M259.9,381.5S237.85,358.68,238,337a51.42,51.42,0,0,1,14.51,9.26l.14,5.87,2.66-3s6.51,10.24,5.51,13.37l4.15-5.18C275.47,367,259.9,381.5,259.9,381.5Z"/><path class="d" d="M236.05,339.13s8.45,31.14,21.68,40.33a12.89,12.89,0,0,1-14.36-.89l2.5-1.31s-8.87-1.06-10.51-5.74l3.33-3.74-6.68-1S230.24,352.69,236.05,339.13Z"/><path class="d" d="M295.25,344.92s17.49-13.7,32.62-12a38.54,38.54,0,0,1-7.69,9.6l-4.27-.16,1.89,2.07s-7.43,3.62-9.54,2.7l3.4,3.19C304.11,356.91,295.25,344.92,295.25,344.92Z"/><path class="d" d="M326.5,331.39s-22.31,3.62-29.68,12.17a9,9,0,0,1,1.67-9.94l.55,2s1.22-6,4.58-6.73l2.36,2.58,1.38-4.74A40.8,40.8,0,0,1,326.5,331.39Z"/><path class="f" d="M117.31,330.75s6-14.19,15.73-18.27a26.94,26.94,0,0,1-1.43,8.41L129,322.23l1.84.61s-3.28,4.7-4.87,4.85l3.13.79C126.72,335,117.31,330.75,117.31,330.75Z"/><path class="f" d="M131.69,312s-12.29,9.71-13.88,17.37a6.27,6.27,0,0,1-2.34-6.59l1,1s-1.26-4,.51-5.62l2.3.77-.76-3.34A28.33,28.33,0,0,1,131.69,312Z"/><path class="g" d="M199,275s-17.08,2.67-36.06,5.59c6.76,18.83,17.26,93.53,20.83,119.84,5,.37,10.1.57,15.23.57s10.21-.2,15.23-.57c3.57-26.31,14.07-101,20.83-119.84C216.08,277.67,199,275,199,275Z"/><path class="g" d="M199,197l-42.25-5.5,16.31,88.73S176.72,311,199,311s25.94-30.77,25.94-30.77l16.31-88.73Z"/><path class="h" d="M233,206.5l-69.53,21.59,7.09,38.56c10.66,13.14,26.92,25.18,51,26.26a55,55,0,0,0,3.42-12.68l12.13-66C234.69,209.45,233,206.5,233,206.5Z"/><path class="f" d="M169.91,263.12c-.91.55-30.58,18.88-30.58,56.55,0,0-1,10,16-3,0,0-7.17,29.66,1.25,33s21,7.3,21,7.3c2.45-11-14.61-76.38-14.61-76.38s1.25-5,8.32-10.11Z"/><path class="f" d="M228.09,263.12c.91.55,30.58,18.88,30.58,56.55,0,0,1,10-16-3,0,0,7.17,29.66-1.25,33s-21,7.3-21,7.3c-2.45-11,14.61-76.38,14.61-76.38s-1.25-5-8.32-10.11Z"/><path class="d" d="M79.83,357s2.42-31.64,18.75-46a51.56,51.56,0,0,1,2.71,17L97,332h4s-3.33,11.67-6.33,13l6.62-.33C101,359,79.83,357,79.83,357Z"/><path class="d" d="M95.67,311S78,338,79.92,354A12.9,12.9,0,0,1,71,342.67l2.65,1S68.59,336.33,71,332h5l-3.67-5.67S81.67,315.67,95.67,311Z"/><path class="d" d="M130.65,359.11s21.87,4,30.66,16.4a38.61,38.61,0,0,1-12.28.62l-2.72-3.3-.29,2.78s-7.64-3.14-8.35-5.33l-.13,4.66C127.58,373.69,130.65,359.11,130.65,359.11Z"/><path class="d" d="M161.53,373.48s-17.53-14.27-28.82-14.1a9,9,0,0,1,8.54-5.36l-1.13,1.74s5.27-3,8.08-1.05l-.36,3.49,4.46-2.12A40.87,40.87,0,0,1,161.53,373.48Z"/><path class="g" d="M136,159.62s-21.31-13.5-19.1,14.5,19.1,26,19.1,26Z"/><path class="g" d="M262,159.62s21.31-13.5,19.1,14.5-19.1,26-19.1,26Z"/><path class="i" d="M199,87.38c-63,0-63,34.74-63,34.74v80c0,20.5,19.24,36.29,35.23,50,13.4,11.5,27.77,11,27.77,11s14.37.5,27.77-11c16-13.71,35.23-29.5,35.23-50v-80S262,87.38,199,87.38Z"/><path class="j" d="M261.28,173.39c0-.13-1.26-20.75-27.83-20.75-1.06,0-2.16,0-3.28.1a70.39,70.39,0,0,0-17.52,2.87c-15.88-5.1-26.33-1.34-29.17-.06a71.47,71.47,0,0,0-17.34-2.81c-1.11-.06-2.21-.1-3.27-.1-26.57,0-27.83,20.62-27.83,20.75-.08.59-1.87,14.71,5.67,23.73,3.7,4.42,9,6.82,15.77,7.13l1.72,0c30.72,0,35.91-38.27,36-38.59a5.5,5.5,0,0,0-.67-3.31,4.05,4.05,0,0,1,4.68-4.13,4.47,4.47,0,0,1,3.7,1.41,4.65,4.65,0,0,1,.84,3,5.4,5.4,0,0,0-.54,3.06c0,.32,5.24,38.59,36,38.59l1.71,0c6.77-.31,12.08-2.71,15.78-7.13C263.15,188.1,261.36,174,261.28,173.39ZM203.67,161l-.09.13a4.92,4.92,0,0,0-.94-2.13,5.39,5.39,0,0,0-4.48-1.79,5.53,5.53,0,0,0-4.54,1.8,4.9,4.9,0,0,0-1,2l0,0c-1.25-1.61-3.54-3.44-7.7-5,3.66-1.37,13-3.78,26.13.11C207.1,157.7,204.89,159.47,203.67,161Z"/><path class="c" d="M136,173.51s1-21.53,30.11-19.82,27.13,11.82,27.13,11.82-5,39.21-36.69,37.79C132.13,202.2,136,173.51,136,173.51Z"/><path class="k" d="M193.22,165.51s2-10.11-27.13-11.82c-6.75-.4-12,.46-16,2a20.63,20.63,0,0,0-2.68,8.32s-3.84,28.69,20.55,29.78a30.81,30.81,0,0,0,15-2.87C191.4,179.9,193.22,165.51,193.22,165.51Z"/><path class="c" d="M260.34,173.51s-1-21.53-30.11-19.82-27.14,11.82-27.14,11.82,5,39.21,36.7,37.79C264.18,202.2,260.34,173.51,260.34,173.51Z"/><path class="k" d="M203.09,165.51s-2-10.11,27.14-11.82c6.75-.4,12,.46,16,2a20.7,20.7,0,0,1,2.67,8.32s3.85,28.69-20.55,29.78a30.81,30.81,0,0,1-15-2.87C204.92,179.9,203.09,165.51,203.09,165.51Z"/><path class="c" d="M274.5,117.45c3.38-11.58-5.06-16.91-5.65-17.27.59-1.37,9-21.26-5.18-18.52,0,0,4.45-16.78-9.61-13.72,0,0-.56-15-12.81-9.24,0,0-3.75-13.56-15.25-5.63,0,0-5-11.46-14.63-2.45-.42,0,2.3-8.95-13.37-9.12-13-.5-10.95,9.08-11.37,9.12C177,41.61,172,53.07,172,53.07c-11.5-7.93-15.25,5.63-15.25,5.63-12.25-5.8-12.81,9.24-12.81,9.24-14.06-3.06-9.61,13.72-9.61,13.72-14.16-2.74-5.77,17.15-5.18,18.52-.59.36-9,5.69-5.65,17.27,0,0-7.61,7,2.45,20,0,0-6,12.77,10,22.15V150.5c8,.5,8-10,8-10,8,1,10-11,10-11,4.5,2.5,9.47-9.5,9.47-9.5,8.48,3,8.53-8.5,8.53-8.5,9.5,5,17-8.5,17-8.5,5,4.61,8.41,4.69,10,4.35,1.59.34,5,.26,10-4.35,0,0,7.5,13.5,17,8.5,0,0,.05,11.5,8.53,8.5,0,0,5,12,9.47,9.5,0,0,2,12,10,11,0,0,0,10.5,8,10v9.12c16-9.38,10.05-22.15,10.05-22.15C282.11,124.47,274.5,117.45,274.5,117.45Z"/><path class="k" d="M272.05,147.47a6.91,6.91,0,0,1,.27.69,15.93,15.93,0,0,0,.46-1.66C272.55,146.82,272.31,147.14,272.05,147.47Z"/><path class="k" d="M268.85,110.18a14.39,14.39,0,0,1,5.66,7.24c2.23-7.67-.73-12.59-3.15-15.14A44.29,44.29,0,0,1,268.85,110.18Z"/><path class="k" d="M126,147.47c-.26-.33-.5-.65-.73-1a15.93,15.93,0,0,0,.46,1.66A6.91,6.91,0,0,1,126,147.47Z"/><path class="k" d="M274.52,117.47a16.18,16.18,0,0,1,0,10,8.82,8.82,0,0,1,1.77,2.67C279.13,122.19,274.88,117.82,274.52,117.47Z"/><path class="k" d="M123.5,127.45a16.18,16.18,0,0,1,0-10c-.36.35-4.61,4.72-1.75,12.65A8.82,8.82,0,0,1,123.5,127.45Z"/><path class="k" d="M129.15,110.18a44.29,44.29,0,0,1-2.51-7.9c-2.42,2.55-5.38,7.47-3.15,15.14A14.39,14.39,0,0,1,129.15,110.18Z"/><path class="k" d="M134.33,91.66s-4.45-16.78,9.61-13.72c0,0,.56-15,12.81-9.24,0,0,3.75-13.56,15.25-5.63,0,0,5-11.46,14.63-2.45.42,0-1.63-9.62,11.37-9.12,15.67.17,12.95,9.08,13.37,9.12,9.61-9,14.63,2.45,14.63,2.45,11.5-7.93,15.25,5.63,15.25,5.63,12.25-5.8,12.81,9.24,12.81,9.24,14.06-3.06,9.61,13.72,9.61,13.72,4-.78,6.24.28,7.32,2.23,1.55-6.06,2-14-7.32-12.23,0,0,4.45-16.78-9.61-13.72,0,0-.56-15-12.81-9.24,0,0-3.75-13.56-15.25-5.63,0,0-5-11.46-14.63-2.45-.42,0,2.3-8.95-13.37-9.12-13-.5-10.95,9.08-11.37,9.12C177,41.61,172,53.07,172,53.07c-11.5-7.93-15.25,5.63-15.25,5.63-12.25-5.8-12.81,9.24-12.81,9.24-14.06-3.06-9.61,13.72-9.61,13.72-9.3-1.8-8.87,6.17-7.32,12.23C128.09,91.94,130.29,90.88,134.33,91.66Z"/><path class="b" d="M130.49,102.28s.29.51.75,1.42,1.08,2.21,1.76,3.8,1.43,3.46,2.19,5.48,1.47,4.19,2.15,6.38,1.3,4.4,1.83,6.49,1,4.05,1.29,5.75.56,3.13.69,4.14.18,1.59.18,1.59-.29-.5-.75-1.41-1.09-2.22-1.76-3.81-1.44-3.46-2.19-5.48-1.47-4.19-2.15-6.38-1.3-4.4-1.83-6.49-1-4.05-1.29-5.75-.55-3.13-.69-4.14S130.49,102.28,130.49,102.28Z"/><path class="b" d="M154,127.33s-.35-.59-.91-1.65c-.28-.53-.63-1.17-1-1.91s-.85-1.55-1.31-2.45-1-1.86-1.51-2.9-1.09-2.13-1.64-3.27c-1.11-2.29-2.24-4.75-3.33-7.24s-2.07-5-3-7.39S139.66,95.9,139,94s-1.1-3.58-1.41-4.74-.46-1.83-.46-1.83.39.58,1,1.6,1.49,2.5,2.45,4.3,2,3.91,3.15,6.19,2.21,4.77,3.29,7.25,2.09,5,3,7.37,1.7,4.64,2.32,6.6c.31,1,.61,1.87.79,2.69s.34,1.52.47,2.1C153.89,126.65,154,127.33,154,127.33Z"/><path class="b" d="M162.33,117.42s-.36-.62-.93-1.73S160,113,159.13,111c-.45-1-.93-2-1.4-3.15s-1-2.3-1.49-3.54-1-2.51-1.51-3.82-1-2.64-1.47-4-.95-2.67-1.39-4-.85-2.64-1.26-3.91c-.8-2.54-1.49-4.93-2-7s-1-3.81-1.21-5-.38-1.94-.38-1.94.36.62.94,1.73,1.38,2.71,2.27,4.66,1.89,4.22,2.88,6.69c.49,1.24,1,2.51,1.52,3.82s1,2.64,1.47,4,.92,2.68,1.38,4,.85,2.65,1.26,3.91.76,2.51,1.11,3.68.64,2.29.91,3.33c.56,2.06.95,3.8,1.21,5S162.33,117.42,162.33,117.42Z"/><path class="b" d="M189,99.05s-.12-.58-.27-1.58-.44-2.39-.65-4-.49-3.63-.69-5.73-.37-4.35-.47-6.6-.16-4.51-.15-6.62.06-4.1.18-5.8.23-3.11.35-4.11.21-1.56.21-1.56.16.56.38,1.53.51,2.38.78,4.06.53,3.64.76,5.75.38,4.35.48,6.61.15,4.51.13,6.63c0,1.06-.06,2.09-.09,3.06s-.09,1.88-.16,2.76a41.45,41.45,0,0,1-.47,4.12C189.14,98.49,189,99.05,189,99.05Z"/><path class="b" d="M171.33,107.36s-.29-.61-.74-1.68-1.08-2.62-1.75-4.49-1.42-4.06-2.16-6.42-1.46-4.91-2.13-7.46-1.28-5.12-1.8-7.55-.94-4.69-1.25-6.66-.53-3.61-.66-4.77-.17-1.83-.17-1.83.29.61.74,1.68,1.09,2.62,1.76,4.49,1.41,4.06,2.16,6.42,1.45,4.91,2.12,7.46,1.27,5.12,1.79,7.55.95,4.69,1.26,6.66.53,3.61.66,4.77S171.33,107.36,171.33,107.36Z"/><path class="b" d="M128.15,139.33s.2.07.51.21a8.25,8.25,0,0,1,1.16.68,11.16,11.16,0,0,1,4.26,6.06,9.07,9.07,0,0,1,.23,1.33,4.5,4.5,0,0,1,0,.55,3.84,3.84,0,0,1-.51-.21,8.05,8.05,0,0,1-1.16-.67,11.05,11.05,0,0,1-4.25-6.07,7.9,7.9,0,0,1-.24-1.33A4.48,4.48,0,0,1,128.15,139.33Z"/><path class="b" d="M267.51,102.28s0,.58-.18,1.59-.35,2.44-.69,4.14-.78,3.66-1.29,5.75-1.15,4.3-1.83,6.49-1.41,4.36-2.15,6.38-1.49,3.9-2.19,5.48-1.31,2.9-1.76,3.81-.75,1.41-.75,1.41,0-.58.18-1.59.35-2.44.69-4.14.77-3.66,1.29-5.75,1.15-4.3,1.83-6.49,1.41-4.36,2.15-6.38,1.49-3.89,2.19-5.48,1.31-2.89,1.76-3.8S267.51,102.28,267.51,102.28Z"/><path class="b" d="M244,127.33s.11-.68.35-1.85c.13-.58.27-1.3.47-2.1s.48-1.71.79-2.69c.62-2,1.42-4.23,2.32-6.6s1.93-4.88,3-7.37,2.19-5,3.29-7.25,2.17-4.4,3.15-6.19S259.2,90,259.82,89s1-1.6,1-1.6-.15.68-.46,1.83S259.59,92,259,94s-1.41,4.19-2.3,6.57-1.91,4.9-3,7.39-2.22,5-3.33,7.24c-.55,1.14-1.13,2.24-1.64,3.27s-1,2-1.51,2.9-1,1.69-1.31,2.45-.71,1.38-1,1.91C244.35,126.74,244,127.33,244,127.33Z"/><path class="b" d="M235.67,117.42s.11-.71.38-1.93.65-3,1.21-5c.27-1,.56-2.16.91-3.33s.69-2.41,1.11-3.68.8-2.59,1.26-3.91.92-2.66,1.38-4,1-2.67,1.47-4,1-2.58,1.52-3.82c1-2.47,2-4.75,2.88-6.69s1.69-3.54,2.27-4.66.94-1.73.94-1.73-.12.71-.38,1.94-.65,3-1.21,5-1.22,4.46-2,7c-.41,1.27-.8,2.59-1.26,3.91s-.91,2.66-1.39,4-1,2.66-1.47,4-1,2.58-1.51,3.82-1,2.42-1.49,3.54-1,2.18-1.4,3.15c-.89,2-1.69,3.55-2.27,4.66S235.67,117.42,235.67,117.42Z"/><path class="b" d="M209,99.05s-.14-.56-.32-1.53a41.45,41.45,0,0,1-.47-4.12c-.07-.88-.13-1.79-.16-2.76s-.08-2-.09-3.06c0-2.12,0-4.38.13-6.63s.27-4.51.48-6.61.48-4.07.76-5.75.56-3.08.78-4.06.38-1.53.38-1.53.1.57.21,1.56.27,2.42.35,4.11.16,3.68.18,5.8,0,4.37-.15,6.62-.27,4.5-.47,6.6-.44,4.09-.69,5.73-.5,3-.65,4S209,99.05,209,99.05Z"/><path class="b" d="M226.67,107.36s0-.67.17-1.83.33-2.81.66-4.77.75-4.24,1.26-6.66,1.13-5,1.79-7.55,1.39-5.09,2.12-7.46,1.47-4.56,2.16-6.42,1.3-3.41,1.76-4.49.74-1.68.74-1.68,0,.67-.17,1.83-.33,2.81-.66,4.77-.75,4.24-1.25,6.66-1.14,5-1.8,7.55-1.39,5.09-2.13,7.46-1.47,4.56-2.16,6.42-1.29,3.41-1.75,4.49S226.67,107.36,226.67,107.36Z"/><path class="b" d="M269.85,139.33a4.48,4.48,0,0,1,0,.55,7.9,7.9,0,0,1-.24,1.33,11.05,11.05,0,0,1-4.25,6.07,8.05,8.05,0,0,1-1.16.67,3.84,3.84,0,0,1-.51.21,4.5,4.5,0,0,1,0-.55,9.07,9.07,0,0,1,.23-1.33,11.16,11.16,0,0,1,4.26-6.06,8.25,8.25,0,0,1,1.16-.68C269.65,139.4,269.85,139.33,269.85,139.33Z"/></svg>