<svg xmlns="http://www.w3.org/2000/svg" viewBox="0 0 400 400.12"><defs><style>.a{fill:#3bafda;}.b{fill:#8cc152;}.c{fill:#a0d468;}.d{fill:#f9e0a8;}.e{fill:#d9c392;}.f{fill:#ffe9ba;}.g{fill:#434a54;}.h{fill:#656d78;}</style></defs><title>Asset 4</title><circle class="a" cx="200" cy="200" r="200"/><path class="b" d="M316.67,302.79c-7.35-6.36-19.37-14.56-30.67-15.67-7.26-.71-86-13-86-13s-78.74,12.29-86,13c-11.3,1.11-23.32,9.31-30.67,15.67-13.42,11.6-20.78,25.84-24.79,38.71a200,200,0,0,0,282.92,0C337.45,328.63,330.09,314.39,316.67,302.79Z"/><path class="c" d="M83.33,327.79c7.35-6.36,19.37-14.56,30.67-15.67,7.26-.71,86-13,86-13s78.74,12.29,86,13c11.3,1.11,23.32,9.31,30.67,15.67a79.38,79.38,0,0,1,17.14,21c2.61-2.35,5.17-4.76,7.65-7.25-4-12.87-11.37-27.11-24.79-38.71-7.35-6.36-19.37-14.56-30.67-15.67-7.26-.71-86-13-86-13s-78.74,12.29-86,13c-11.3,1.11-23.32,9.31-30.67,15.67-13.42,11.6-20.78,25.84-24.79,38.71,2.48,2.49,5,4.9,7.65,7.25A79.38,79.38,0,0,1,83.33,327.79Z"/><path class="d" d="M200,196.12l-42.25-5.5,16.31,88.74s3.66,30.76,25.94,30.76,25.94-30.76,25.94-30.76l16.31-88.74Z"/><path class="e" d="M234,205.62l-69.53,21.59,7.09,38.56c10.66,13.14,26.92,25.19,51,26.26a55,55,0,0,0,3.42-12.67l12.13-66C235.69,208.57,234,205.62,234,205.62Z"/><path class="c" d="M237.53,278.79l-9-9.35-25.89,23-2.64,14-2.64-14-25.89-23-9,9.35c-1.17,1.21,0,3.21,0,3.21s13.45,34.87,13.95,38.87,2.88,2.25,2.88,2.25,9.26-13,11.49-14c1.75-.75,1.58,1.38,1.58,1.38l0,43.5h15.34l0-43.5s-.18-2.1,1.57-1.35c2.23,1,11.5,14,11.5,14s2.37,1.75,2.87-2.25,14-38.88,14-38.88S238.7,280,237.53,278.79Z"/><path class="d" d="M137,159.62s-21.31-13.5-19.1,14.5,19.1,26,19.1,26Z"/><path class="d" d="M263,159.62s21.31-13.5,19.1,14.5-19.1,26-19.1,26Z"/><path class="f" d="M200,87.38c-63,0-63,34.74-63,34.74v80c0,20.5,19.24,36.29,35.23,50,13.4,11.5,27.77,11,27.77,11s14.37.5,27.77-11c16-13.71,35.23-29.5,35.23-50v-80S263,87.38,200,87.38Z"/><path class="g" d="M263,200.12v-48s-3.36,38.42-10.91,61.88c-.38.35-.67.7-1.06,1h.05a29,29,0,0,1-2.31,1.81l-.14.11c-.32.22-.65.43-1,.63l-.21.13a14,14,0,0,1-2.24,1.09l-.3.11c-.28.1-.55.19-.83.26l-.32.08a8.33,8.33,0,0,1-1.09.2c-9.58,1-3.58-17-42.25-17s-32.66,18-42.25,17a8.65,8.65,0,0,1-1.09-.2l-.31-.08a8,8,0,0,1-.83-.26l-.3-.11a14.49,14.49,0,0,1-2.25-1.09l-.21-.13q-.49-.3-1-.63l-.15-.11A27.58,27.58,0,0,1,149.7,215h0c-.39-.34-1-.69-1.37-1C140.77,190.54,137,152.12,137,152.12v48c-5,59.34,55.67,69,63,69S269,259.46,263,200.12Zm-51.21,30.5c-3.63,4.13-11.38-.62-11.38-4.62,0,4-7.75,8.75-11.37,4.62s-11.38-.75-10.75-5.25,6.87-3.5,6.87-3.5c7.79,1.87,15.07-7.23,15.25-7,.18-.25,7.47,8.85,15.25,7,0,0,6.25-1,6.88,3.5S215.41,226.5,211.79,230.62Z"/><path class="g" d="M267.72,87.62c-5.72-13.9-31.88-20.53-49.29-23.45-1.12-16.15-6.35-33.32-22-41.3,0,0,6.25,29.25-2.5,37.75,0,0-3.5-18.5-10.75-22.5,0,0,3.84,15.48-3.2,26.49-17.32,3.12-41.34,9.76-46.8,23-8.75,21.25-8.75,57.27-5.62,68.76,0,0,6.4,1.24,9.4,3.24V152s3-13.19,10.49-13.19,6.36-13.47,6.11-19c-.22-5,8.24-21.18,36.63-11.1,2.06,4.39,5.37,8.88,10.21,8.88,5,0,8.93-4.8,11.49-9.34,27.36-9.15,35.51,6.59,35.29,11.56-.25,5.5-1.74,19,5.76,19S263,152,263,152v7.62c3-2,9.87-3.24,9.87-3.24C276,144.89,276.47,108.87,267.72,87.62Z"/><path class="h" d="M133.22,101.62c5.46-13.25,29.48-19.89,46.8-23,5.29-8.28,4.44-19.07,3.69-23.93A27,27,0,0,1,180,64.61c-17.32,3.12-41.34,9.76-46.8,23-6.23,15.15-7.9,37.79-7.22,53.71C126.54,127.79,128.66,112.7,133.22,101.62Z"/><path class="h" d="M218.43,78.17c17.41,2.92,43.57,9.55,49.29,23.45,4.57,11.08,6.68,26.17,7.22,39.71.69-15.92-1-38.56-7.22-53.71-5.72-13.9-31.88-20.53-49.29-23.45-1.12-16.15-6.35-33.32-22-41.3a116.06,116.06,0,0,1,2,15.11C212.52,46.36,217.36,62.73,218.43,78.17Z"/><path class="h" d="M184,52.62c6.72,4.84,10,22,10,22,4.92-4.78,5.1-16.11,4.31-25.12-.55,4.62-1.82,8.71-4.31,11.12,0,0-3.5-18.5-10.75-22.5A45.7,45.7,0,0,1,184,52.62Z"/></svg>