<svg xmlns="http://www.w3.org/2000/svg" viewBox="0 0 400 401"><defs><style>.a{fill:#434a54;}.b{fill:#ffe9ba;}.c{fill:#f5f7fa;}.d{fill:#fff;}.e{fill:#f9e0a8;}.f{fill:#d9c392;}.g{fill:#f6bb42;}.h{fill:#ffce54;}.i{fill:#ffd56b;}</style></defs><title>avatar12</title><circle class="a" cx="200" cy="200" r="200"/><path class="b" d="M200,401a199.34,199.34,0,0,0,141.46-58.62c-4-12.87-11.37-27.12-24.79-38.71a79.08,79.08,0,0,0-19.47-12.58A38.21,38.21,0,0,0,286,288c-2-.2-9.75-1.32-19.77-2.82C240.65,281.35,200,275,200,275s-40.65,6.35-66.23,10.18c-10,1.5-17.73,2.62-19.77,2.82a38.21,38.21,0,0,0-11.2,3.09,79.08,79.08,0,0,0-19.47,12.58c-13.42,11.59-20.78,25.84-24.79,38.71A199.34,199.34,0,0,0,200,401Z"/><path class="c" d="M297.2,291.09A38.21,38.21,0,0,0,286,288c-2-.2-9.75-1.32-19.77-2.82-7.29,32.9-34.17,57.32-66.23,57.32s-58.94-24.42-66.23-57.32c-10,1.5-17.73,2.62-19.77,2.82a38.21,38.21,0,0,0-11.2,3.09A86.46,86.46,0,0,1,127.37,352a88.74,88.74,0,0,1-6.24,32.82,200.55,200.55,0,0,0,157.74,0A88.74,88.74,0,0,1,272.63,352,86.46,86.46,0,0,1,297.2,291.09Z"/><path class="d" d="M200,401a199.81,199.81,0,0,0,64.83-10.75,148.3,148.3,0,0,1-2.2-25.59c0-24.56,5.82-47.82,16.63-67.27l-5.75-1c-11.08,41.08-40.18,58.07-73.51,58.07s-62.43-17-73.51-58.07l-5.75,1c10.81,19.45,16.63,42.71,16.63,67.27a148.3,148.3,0,0,1-2.2,25.59A199.81,199.81,0,0,0,200,401Z"/><path class="e" d="M200,342.5c32.06,0,58.94-24.42,66.23-57.32C240.65,281.35,200,275,200,275s-40.65,6.35-66.23,10.18C141.06,318.08,167.94,342.5,200,342.5Z"/><path class="e" d="M200,197l-42.25-5.5,16.31,88.73S177.72,311,200,311s25.94-30.77,25.94-30.77l16.31-88.73Z"/><path class="f" d="M234,206.5l-69.53,21.59,7.09,38.56c10.66,13.14,26.92,25.18,51,26.26a55,55,0,0,0,3.42-12.68l12.13-66C235.69,209.45,234,206.5,234,206.5Z"/><path class="e" d="M137,159.62s-21.31-13.5-19.1,14.5,19.1,26,19.1,26Z"/><path class="e" d="M263,159.62s21.31-13.5,19.1,14.5-19.1,26-19.1,26Z"/><path class="b" d="M200,87.38c-63,0-63,34.74-63,34.74v80c0,20.5,19.24,36.29,35.23,50,13.4,11.5,27.77,11,27.77,11s14.37.5,27.77-11c16-13.71,35.23-29.5,35.23-50v-80S263,87.38,200,87.38Z"/><path class="g" d="M210,258.54s-.2,2.83-4.5,3L201,251.25l-4.5,10.27c-4.3-.15-4.5-3-4.5-3-6.28,1.06-18.77-5.42-18.77-5.42,17.55,13.67,22.35,10.52,22.35,10.52,3.91,5.19,5.42,4.48,5.42,4.48s1.51.71,5.42-4.48c0,0,4.8,3.15,22.35-10.52C228.77,253.12,216.28,259.6,210,258.54Z"/><polygon class="g" points="208.33 225.12 229 230.79 204.73 229.46 208.33 225.12"/><polygon class="g" points="193.67 225.12 173 230.79 197.27 229.46 193.67 225.12"/><path class="g" d="M174.12,279l-5.66-30.13C153.37,235.93,137,221,137,202.12v-9l-19.26-9.29s.58,56.39,8.86,102.38l7.17-1.07C145.82,283.38,161.21,281,174.12,279Z"/><path class="g" d="M273.4,286.25c8.28-46,8.86-102.38,8.86-102.38L263,193.16v9c0,18.91-16.37,33.81-31.46,46.77L225.88,279c12.91,2,28.3,4.36,40.35,6.16Z"/><path class="h" d="M264.74,320.38c10.86-18.6,67.61-123.4,23.76-213.26C248.14,24.42,211.1,38,200,44.74c-11.1-6.72-48.14-20.32-88.5,62.38C67.65,197,124.4,301.78,135.26,320.38c-10.63-19.17-10.85-51.89-7.77-82.46,1.31,59.8,30.38,100.2,30.38,100.2C144.79,250,188,154,200,129.55,212,154,255.21,250,242.13,338.12c0,0,29.07-40.4,30.38-100.2C275.59,268.49,275.37,301.21,264.74,320.38Z"/><path class="g" d="M200,129.55c-10.77,22-46.74,101.66-44.46,181.55,2.12-74.65,34.37-146,44.46-166.55,10.09,20.58,42.34,91.9,44.46,166.55C246.74,231.21,210.77,151.51,200,129.55Z"/><path class="i" d="M200,59.74c11.1-6.72,48.14-20.32,88.5,62.38,10.73,22,15.42,44.85,16.25,67.13,1-26.9-3.1-55.19-16.25-82.13C248.14,24.42,211.1,38,200,44.74c-11.1-6.72-48.14-20.32-88.5,62.38-13.15,26.94-17.25,55.23-16.25,82.13.83-22.28,5.52-45.15,16.25-67.13C151.86,39.42,188.9,53,200,59.74Z"/><path class="g" d="M200.6,79.43l.67-.31-1.27.2-1.27-.2.67.31c-14.59,2.76-109,26.81-89.49,184.69l4.09,24S96.56,128,200,79.72c103.44,48.27,86,208.4,86,208.4l4.09-24C309.57,106.24,215.19,82.19,200.6,79.43Z"/><path class="i" d="M200.26,99.38l1-1.51s-.46.42-1.27,1.25c-.81-.83-1.27-1.25-1.27-1.25l1,1.51c-11.76,12-86.47,96-51.41,258.41,0,0-15.92-156.55,51.67-258,67.59,101.48,51.67,258,51.67,258C286.73,195.39,212,111.39,200.26,99.38Z"/></svg>