<svg xmlns="http://www.w3.org/2000/svg" viewBox="0 0 400 401"><defs><style>.a{fill:#f6bb42;}.b{fill:#fff6e3;}.c{fill:#f9e0a8;}.d{fill:#d9c392;}.e{fill:#434a54;}.f{fill:#f9d178;}.g{fill:#ede5d3;}.h{fill:#ffe9ba;}.i{fill:#656d78;}</style></defs><title>Asset 7</title><circle class="a" cx="200" cy="200" r="200"/><path class="b" d="M316.67,303.67C309.32,297.31,297.3,289.11,286,288c-7.26-.71-86-13-86-13s-78.74,12.29-86,13c-11.3,1.11-23.32,9.31-30.67,15.67-13.42,11.59-20.78,25.84-24.79,38.71a200,200,0,0,0,282.92,0C337.45,329.51,330.09,315.26,316.67,303.67Z"/><path class="c" d="M200,197l-42.25-5.5,16.31,88.73S177.72,311,200,311s25.94-30.77,25.94-30.77l16.31-88.73Z"/><path class="d" d="M234,206.5l-69.53,21.59,7.09,38.56c10.66,13.14,26.92,25.18,51,26.26a55,55,0,0,0,3.42-12.68l12.13-66C235.69,209.45,234,206.5,234,206.5Z"/><polygon class="b" points="227.39 272.41 204.5 281.53 200 312.5 195.5 281.53 172.61 272.41 166.7 280.29 200 355 233.3 280.29 227.39 272.41"/><path class="e" d="M130,285.74V388.4a71,71,0,0,1,7,2.46V283l-7,1Z"/><path class="e" d="M263,283V390.86a44.77,44.77,0,0,0,7-2.46V284Z"/><rect class="f" x="259" y="341" width="15" height="17" rx="5" ry="5"/><rect class="f" x="126" y="341" width="15" height="17" rx="5" ry="5"/><polygon class="g" points="166.7 280.29 169.67 311 192.33 292.91 200 312.5 195.5 281.53 172.61 272.41 166.7 280.29"/><polygon class="g" points="233.3 280.29 230.33 311 207.67 292.91 200 312.5 204.5 281.53 227.39 272.41 233.3 280.29"/><path class="c" d="M137,159.62s-21.31-13.5-19.1,14.5,19.1,26,19.1,26Z"/><path class="c" d="M263,159.62s21.31-13.5,19.1,14.5-19.1,26-19.1,26Z"/><path class="h" d="M200,87.38c-63,0-63,34.74-63,34.74v80c0,20.5,19.24,36.29,35.23,50,13.4,11.5,27.77,11,27.77,11s14.37.5,27.77-11c16-13.71,35.23-29.5,35.23-50v-80S263,87.38,200,87.38Z"/><path class="e" d="M244.32,60.1c-3.75-5.62-16.35-9.48-43.85-9.48s-40.09,3.86-43.85,9.48c-48,25.95-28.78,96.28-28.78,96.28,2.57-.21,9.63,3.24,9.63,3.24-19.26,124,63,111.5,63,111.5s82.27,12.5,63-111.5c0,0,7.06-3.45,9.64-3.24C273.11,156.38,292.29,86.05,244.32,60.1Zm3.15,140s4.12,55.11-47,41.48c-51.11,13.63-47-41.48-47-41.48s-9.5-7.52-8.5-23.88,14.27-20.08,4.39-40.95C136.47,108.12,165,102.86,165,102.86s55.52,47.76,89.2,14.2h0c1.42,4.57,1.1,10.52-2.56,18.25-9.89,20.87,3.38,24.58,4.38,40.95S247.47,200.14,247.47,200.14Z"/><path class="i" d="M165,80.12s40,53.5,88.52,26.5C253.47,106.62,203.92,117.62,165,80.12Z"/><path class="i" d="M165,71.12s55,27,85,16.26C250,87.38,184.42,79.62,165,71.12Z"/><path class="i" d="M161,87.38S131,105.57,139,143.12C139,143.12,121.47,97.61,161,87.38Z"/></svg>