<svg xmlns="http://www.w3.org/2000/svg" viewBox="0 0 400 444.35"><defs><style>.a{fill:#da4453;}.b{fill:#434a54;}.c{fill:#656d78;}.d{fill:#e6e9ed;}.e{fill:#ab7049;}.f{fill:#8c5c3c;}.g{fill:#ba7a50;}.h{fill:#f6bb42;}.i{fill:#ffce54;}.j{fill:#ffd56b;}</style></defs><title>Asset 8</title><circle class="a" cx="200" cy="222.85" r="200"/><path class="b" d="M316.67,325.64C309.32,319.28,297.3,311.07,286,310c-7.26-.71-86-13-86-13s-78.74,12.29-86,13c-11.3,1.1-23.32,9.31-30.67,15.67-13.42,11.59-20.78,25.84-24.79,38.71a200,200,0,0,0,282.92,0C337.45,351.48,330.09,337.23,316.67,325.64Z"/><path class="b" d="M173.06,302.2l-3-16.46c-4.22-1.06-22.44-4.68-23,11.23-.67,18,52,59,52,59l-10.29-25.64C175.53,322.89,173.06,302.2,173.06,302.2Z"/><path class="b" d="M224.94,302.2l3-16.46c4.22-1.06,22.44-4.68,23,11.23.67,18-52,59-52,59l10.29-25.64C222.47,322.89,224.94,302.2,224.94,302.2Z"/><path class="c" d="M292,304c-5.5-18.5-28-10.78-28-10.78-10.54-22.4-33.75-11.48-35.49-10.63l-.58,3.18c4.22-1.06,22.44-4.68,23,11.23.67,18-52,59-52,59h0s-52.67-41-52-59c.59-15.91,18.81-12.29,23-11.23l-.58-3.18c-1.74-.85-24.95-11.77-35.49,10.63,0,0-22.46-7.72-28,10.78,0,0-17-3.22-17.5,10.87s110.45,47,110.45,47h.1s111-32.93,110.45-47S292,304,292,304Z"/><circle class="b" cx="184.38" cy="353.34" r="3"/><circle class="b" cx="215.63" cy="353.34" r="3"/><path class="d" d="M217,353.85v89a1.5,1.5,0,0,1-3,0v-89a1.5,1.5,0,0,1,3,0Z"/><path class="d" d="M183,353.85v89a1.5,1.5,0,0,0,3,0v-89a1.5,1.5,0,0,0-3,0Z"/><path class="e" d="M199,219l-42.25-5.5,16.31,88.73S176.72,333,199,333s25.94-30.77,25.94-30.77l16.31-88.73Z"/><path class="f" d="M233,228.47l-69.53,21.59,7.09,38.56c10.66,13.14,26.92,25.18,51,26.26a55,55,0,0,0,3.42-12.68l12.13-66C234.69,231.42,233,228.47,233,228.47Z"/><path class="e" d="M137,182.47S115.69,169,117.9,197,137,223,137,223Z"/><path class="e" d="M263,182.47S284.31,169,282.1,197,263,223,263,223Z"/><path class="g" d="M200,110.23c-63,0-63,34.74-63,34.74v80c0,20.5,19.24,36.29,35.23,50,13.4,11.5,27.77,11,27.77,11s14.37.5,27.77-11c16-13.71,35.23-29.5,35.23-50V145S263,110.23,200,110.23Z"/><path class="b" d="M263.47,223S246,267.55,220.35,265.22l-6.84-9s7,21.38-13,21.38-13-21.38-13-21.38l-6.84,9C154.93,267.55,137.47,223,137.47,223c-1.43,40.16,50.34,61.67,50.34,61.67A88,88,0,0,0,200.47,292a87.75,87.75,0,0,0,12.67-7.33S264.9,263.13,263.47,223Z"/><path class="b" d="M246.14,222.64c-21.1,0-36-12.61-40.88-34.59-.39-1.73-2.94-3.14-4.79-3.84-1.84.7-4.4,2.11-4.78,3.84-4.88,22-19.78,34.59-40.88,34.59-10.6,0-16.29-4.68-19.21-8.6-9.4-12.66-3.35-34-2.63-36.39l.7-2.34,2.28-.88c1-.37,24.05-9.13,64.52-9.13S264,174.06,265,174.43l2.28.88.71,2.34c.72,2.39,6.77,23.73-2.64,36.39C262.43,218,256.73,222.64,246.14,222.64Z"/><path class="c" d="M205,165.35c-1,0-3.3,0-5,0s-3,0-5,0V189c1-.3.38-.59.45-.9.39-1.73,3.06-3.14,4.9-3.84,1.86.7,4.23,2.11,4.61,3.84a3.91,3.91,0,0,1,0,.9Z"/><path class="h" d="M263.19,179.09s-22.72-8.79-62.72-8.79-62.72,8.79-62.72,8.79-11.61,38.55,17.06,38.55,34.66-24.67,36-30.67,9.66-8,9.66-8,8.34,2,9.67,8,7.33,30.67,36,30.67S263.19,179.09,263.19,179.09Z"/><path class="i" d="M146.5,176.45l-10.87,23.08c.69,6.75,3.27,13.31,10,16.34L166,172.65A180.35,180.35,0,0,0,146.5,176.45Z"/><path class="j" d="M175.35,171.52l-21.71,46.09c.39,0,.77,0,1.17,0a44.12,44.12,0,0,0,6.81-.52l21.78-46.26C180.59,171,177.91,171.27,175.35,171.52Z"/><path class="i" d="M221,171.11l-9.65,20.49a40.19,40.19,0,0,0,9.82,16.7l16.59-35.23C232.85,172.3,227.26,171.61,221,171.11Z"/><path class="j" d="M245.94,174.52l-18.21,38.67a32.43,32.43,0,0,0,6.43,2.76l18.78-39.87C250.9,175.57,248.56,175,245.94,174.52Z"/><path class="b" d="M286.68,27.62a77.31,77.31,0,0,0-91-15.71A83,83,0,0,0,70.75,95.49a56.54,56.54,0,0,0-2.56,78.43,54.69,54.69,0,0,0,69,54.55,31.18,31.18,0,0,1-.2-3.5v-2s-16.9,2-19.1-26,19.1-14.5,19.1-14.5V158.63a15.3,15.3,0,0,0,8.62-20.39h.64a21.6,21.6,0,0,0,13.64-5.75,41.66,41.66,0,0,0,68.47-4,29,29,0,0,0,29.3,7.13,17.08,17.08,0,0,0,4.32,5.16,16.89,16.89,0,0,0-.27,3.85A16.61,16.61,0,0,0,263,150.2v32.27S284.31,169,282.1,197,263,223,263,223v2a35.1,35.1,0,0,1-2.9,13.74,25.62,25.62,0,0,0,20.55-15.18,44.42,44.42,0,0,0,38-62.23,49.92,49.92,0,0,0,6.95-19.43A66,66,0,0,0,286.68,27.62Z"/><path class="c" d="M64.84,161a56.29,56.29,0,0,1,16.91-35.54,83,83,0,0,1,124.9-83.58,77.31,77.31,0,0,1,91,15.71,65.92,65.92,0,0,1,48.71,28.72,66,66,0,0,0-59.71-58.72,77.31,77.31,0,0,0-91-15.71A83,83,0,0,0,70.75,95.49a56.53,56.53,0,0,0-6,74.2A57,57,0,0,1,64.84,161Z"/><path class="c" d="M139.09,103a21.62,21.62,0,0,1,8.38,1.23,41.16,41.16,0,0,1,3.31-8.51,21.63,21.63,0,0,0-26,13.72A21.57,21.57,0,0,1,139.09,103Z"/><path class="c" d="M289.41,131.32A17.08,17.08,0,0,0,277.72,111a30,30,0,0,0,.12-4.46,29,29,0,0,0-48.63-19.85A41.67,41.67,0,0,0,155.13,89a41.67,41.67,0,0,1,69.08,5.73,29,29,0,0,1,48.63,19.85,30,30,0,0,1-.12,4.46,17.08,17.08,0,0,1,11.69,20.33,16.58,16.58,0,0,1,5,16.94,16.63,16.63,0,0,0,0-24.94Z"/></svg>