<svg xmlns="http://www.w3.org/2000/svg" viewBox="0 0 400 401"><defs><style>.a{fill:#3bafda;}.b{fill:#434a54;}.c{fill:#656d78;}.d{fill:#f5f7fa;}.e{fill:#f9e0a8;}.f{fill:#d9c392;}.g{fill:#da4453;}.h{fill:#ed5565;}.i{fill:#ffe9ba;}.j{fill:#31363d;}.k{fill:#7c8694;}.l{fill:#ffce54;}.m{fill:#f6bb42;}.n{fill:#ffd56b;}</style></defs><title>avatar9</title><circle class="a" cx="200" cy="200" r="200"/><path class="b" d="M213.38,326.38l1.77-.88c.06-.49.1-.75.1-.75a169.71,169.71,0,0,0,6.56-27.93c1.24-7.81,2.87-18,2.87-18h0C210.76,276.68,200,275,200,275s-10.76,1.68-24.68,3.83h0s1.63,10.18,2.87,18a169.71,169.71,0,0,0,6.56,27.93s0,.26.1.75l1.77.88s6.7,52.5-9.25,73.34a200.69,200.69,0,0,0,45.26,0C206.68,378.88,213.38,326.38,213.38,326.38Z"/><path class="c" d="M235.89,281.75l.21-1.16C217.1,277.67,200,275,200,275s-17,2.66-36,5.58l.21,1.17C166,295.52,175.61,321,200.05,321S234.14,295.52,235.89,281.75Z"/><path class="d" d="M184.85,325.5l-30.5,70.26a198.25,198.25,0,0,0,23,4c15.95-20.84,9.25-73.34,9.25-73.34Z"/><path class="e" d="M200,197l-42.25-5.5,16.31,88.73S177.72,311,200,311s25.94-30.77,25.94-30.77l16.31-88.73Z"/><path class="f" d="M234,206.5l-69.53,21.59,7.09,38.56c10.66,13.14,26.92,25.18,51,26.26a55,55,0,0,0,3.42-12.68l12.13-66C235.69,209.45,234,206.5,234,206.5Z"/><path class="d" d="M115.75,307.25l44.94-7.51c-1.43-7.4-2.63-14.43-3.24-18.16-19.88,3.05-40,6.08-43.45,6.42-11.3,1.11-23.32,9.31-30.67,15.67-13.42,11.59-20.78,25.84-24.79,38.71a200.63,200.63,0,0,0,53.25,38.16C129.73,350.7,115.75,307.25,115.75,307.25Z"/><path class="g" d="M158.59,288.28c-14.68,2.17-42.79,6.43-46.79,7.62-4.32,1.28-33,19.6-42.4,56.56q3,2.57,6,5c7.72-35.58,35-53.8,38.36-54.86,3.07-.91,26.83-4.58,46-7.43C159.37,292.71,159,290.38,158.59,288.28Z"/><path class="g" d="M167.21,325c-2-3.45-4.48-14.71-6.52-25.25l-44.94,7.51s14,43.45-4,73.29a198.75,198.75,0,0,0,63.81,19c14.55-27.12,10-68,9.25-74C174.52,331.23,167.21,325,167.21,325Z"/><path class="h" d="M184.75,324.75a169.71,169.71,0,0,1-6.56-27.93c-1.24-7.81-2.87-18-2.87-18s-1.32-2.71-9.7-.95-8.17,3.7-8.17,3.7c.61,3.73,1.81,10.76,3.24,18.16,2,10.54,4.55,21.8,6.52,25.25,0,0,7.31,6.24,17.64.51C184.79,325,184.75,324.75,184.75,324.75Z"/><path class="d" d="M168.54,277.41c-.6.06-1.27.16-2,.29,1,24.15,6.2,41.61,9.34,50.21a15,15,0,0,0,2.09-.11C174.92,319.58,169.57,302,168.54,277.41Z"/><path class="d" d="M215.15,325.5l30.5,70.26a198.25,198.25,0,0,1-23,4c-15.95-20.84-9.25-73.34-9.25-73.34Z"/><path class="d" d="M284.25,307.25l-44.94-7.51c1.43-7.4,2.63-14.43,3.24-18.16,19.88,3.05,40,6.08,43.45,6.42,11.3,1.11,23.32,9.31,30.67,15.67,13.42,11.59,20.78,25.84,24.79,38.71a200.63,200.63,0,0,1-53.25,38.16C270.27,350.7,284.25,307.25,284.25,307.25Z"/><path class="g" d="M232.79,325c2-3.45,4.48-14.71,6.52-25.25l44.94,7.51s-14,43.45,4,73.29a198.75,198.75,0,0,1-63.81,19c-14.55-27.12-10-68-9.25-74C225.48,331.23,232.79,325,232.79,325Z"/><path class="h" d="M215.25,324.75a169.71,169.71,0,0,0,6.56-27.93c1.24-7.81,2.87-18,2.87-18s1.32-2.71,9.7-.95,8.17,3.7,8.17,3.7c-.61,3.73-1.81,10.76-3.24,18.16-2,10.54-4.55,21.8-6.52,25.25,0,0-7.31,6.24-17.64.51C215.21,325,215.25,324.75,215.25,324.75Z"/><path class="d" d="M231.46,277.41c.6.06,1.27.16,2,.29-1,24.15-6.2,41.61-9.34,50.21a15,15,0,0,1-2.09-.11C225.08,319.58,230.43,302,231.46,277.41Z"/><path class="g" d="M241.41,288.28c14.68,2.17,42.79,6.43,46.79,7.62,4.32,1.28,33,19.6,42.4,56.56q-3,2.57-6,5c-7.72-35.58-35-53.8-38.36-54.86-3.07-.91-26.83-4.58-46-7.43C240.63,292.71,241,290.38,241.41,288.28Z"/><path class="e" d="M137,159.62s-21.31-13.5-19.1,14.5,19.1,26,19.1,26Z"/><path class="e" d="M263,159.62s21.31-13.5,19.1,14.5-19.1,26-19.1,26Z"/><path class="i" d="M200,87.38c-63,0-63,34.74-63,34.74v80c0,20.5,19.24,36.29,35.23,50,13.4,11.5,27.77,11,27.77,11s14.37.5,27.77-11c16-13.71,35.23-29.5,35.23-50v-80S263,87.38,200,87.38Z"/><path class="b" d="M263.21,159.35,247,157l.08,0h0c-3.22,0-9.46-.8-14.13-.82-1.39,0-2.36,0-2.59,0l-2.6,0c-4.66,0-10.9.1-14.12.74-2.32.46-5.63,1.43-7.64,4.56l-.18.28a5.77,5.77,0,0,0-1.67.93c-1.79,1.42-1.6,1.21-4.13,1.21s-2.36.21-4.15-1.21a5.66,5.66,0,0,0-1.7-.93c0-.1-.11-.19-.16-.28-2-3.13-5.33-4.1-7.65-4.56-3.22-.64-9.46-.75-14.12-.73-1.4,0-2.36,0-2.6,0s-1.2,0-2.59,0c-4.67,0-10.9.82-14.13.82h0l.08,0-16.21,2.38-.94,7a5.18,5.18,0,0,0,5,1.27c1-.29,2,1,2.62,2,0,.4,0,.81,0,1.24a48.31,48.31,0,0,0,4.85,16.63c1.91,3.55,4.17,5.27,8.89,7a38.29,38.29,0,0,0,12.56,2,37.14,37.14,0,0,0,12.39-2.05c4.7-1.73,6.77-3.46,8.66-7a54,54,0,0,0,4.87-15.07,4.84,4.84,0,0,1,8.56-.05,53.63,53.63,0,0,0,4.87,15.12c1.89,3.57,4,5.3,8.66,7a37.15,37.15,0,0,0,12.4,2.05,38.24,38.24,0,0,0,12.55-2c4.72-1.7,7-3.42,8.89-7a48.31,48.31,0,0,0,4.85-16.63c0-.42,0-.83,0-1.24.59-1,1.58-2.3,2.61-2a5.19,5.19,0,0,0,5-1.26Z"/><path class="j" d="M185.75,160c-4.45-.88-16.09-.65-16.09-.65s-11.65-.15-16.1.77c-5.47,1.13-7.1,3.89-6.9,10.68.15,5.13,1,11.28,3.37,15.7,3.33,6.19,12.39,8.23,19.76,8.2s16.25-2.13,19.53-8.35c2.35-4.44,3.3-10.6,3.41-15.72C192.88,163.85,191.23,161.1,185.75,160Z"/><path class="j" d="M246.44,160.14c-4.45-.92-16.1-.77-16.1-.77s-11.64-.23-16.09.65c-5.48,1.08-7.13,3.83-7,10.63.11,5.12,1.06,11.28,3.41,15.72,3.28,6.22,12.11,8.33,19.53,8.35s16.43-2,19.76-8.2c2.38-4.42,3.22-10.57,3.37-15.7C253.54,164,251.91,161.27,246.44,160.14Z"/><path class="c" d="M170.92,159.35,153,190a22.5,22.5,0,0,0,10.31,4.16l20.12-34.49C179.43,159.32,173.49,159.33,170.92,159.35Z"/><path class="k" d="M187.61,160.5l-19.92,34.17c.71,0,1.41.06,2.1.05s1.69,0,2.55-.09L191,162.68A7.07,7.07,0,0,0,187.61,160.5Z"/><path class="c" d="M230.34,159.37s-1.88,0-4.42,0l-15.47,26.53c.08.16.15.33.23.49,1.67,3.16,4.77,5.26,8.39,6.56l19.52-33.47C234.37,159.32,230.34,159.37,230.34,159.37Z"/><path class="k" d="M246.44,160.14a30.93,30.93,0,0,0-3.36-.43l-20,34.32a37.11,37.11,0,0,0,4.29.58l20-34.26C247.05,160.27,246.75,160.2,246.44,160.14Z"/><path class="l" d="M151.6,233.31c-.54,9.62.73,21,7.15,30.69,0,0-2.34-10.83.36-20.26-.16-1.22-.28-2.34-.36-3.34C156.27,238.11,153.87,235.75,151.6,233.31Z"/><path class="m" d="M168.26,248.81c-2.78-2.38-5.61-4.83-8.38-7.36l-1.13-1c.08,1,.2,2.12.36,3.34,1.1,8.51,4.19,21.94,12.86,30.76C172,274.5,166.33,258.34,168.26,248.81Z"/><path class="l" d="M241.3,239.79c-.09,1.13-.22,2.47-.41,4,2.7,9.43.36,20.26.36,20.26,6.57-9.92,7.75-21.64,7.11-31.39C246.14,235.07,243.76,237.46,241.3,239.79Z"/><path class="m" d="M240,241.05c-2.73,2.53-5.53,5-8.3,7.37,2.17,9.47-3.62,26.08-3.62,26.08,8.67-8.82,11.76-22.25,12.86-30.76.19-1.48.32-2.82.41-4Z"/><path class="l" d="M263.62,80.75v0C259.72,64.68,287.68,4,200.18,4s-59.94,60.87-63.66,77l-.14-.28c-18,18.33.8,78.75.8,78.75s0-1.5,5.67-9.5c3.35-4.72,3.67-22,3.37-35.37,20.38,17.2,54,28.87,54,28.87s33.18-11.58,53.59-28.56c-.28,13.32.06,30.37,3.38,35.06,5.67,8,5.67,9.5,5.67,9.5S281.62,99.08,263.62,80.75Z"/><path class="n" d="M145.79,137,130,126.67c.77,5.52,1.77,10.82,2.78,15.49L145,143.54C145.33,141.61,145.59,139.41,145.79,137Z"/><path class="m" d="M128.62,111.16c.11,3.88.43,7.84.88,11.73l16.72,6c0-1.68.07-3.38.08-5.07Z"/><path class="n" d="M220.08,5.67a119,119,0,0,0-39.8,0c-.84,38,3.63,82.63,19.64,137.59l.26.23.26-.23C216.45,88.31,220.92,43.67,220.08,5.67Z"/><path class="m" d="M193.41,140.93S139.32,87.67,164.66,10C164.66,10,94,57.19,193.41,140.93Z"/><path class="n" d="M146.22,114.63s-9.27-13.16-9.84-33.88C136.38,80.75,122.36,99.07,146.22,114.63Z"/><path class="m" d="M206.59,140.93S260.68,87.67,235.34,10C235.34,10,306,57.19,206.59,140.93Z"/><path class="n" d="M253.78,114.63s9.27-13.16,9.84-33.88C263.62,80.75,277.64,99.07,253.78,114.63Z"/><path class="n" d="M254.21,137,270,126.67c-.77,5.52-1.77,10.82-2.78,15.49L255,143.54C254.67,141.61,254.41,139.41,254.21,137Z"/><path class="m" d="M271.38,111.16c-.11,3.88-.43,7.84-.88,11.73l-16.72,6c0-1.68-.07-3.38-.08-5.07Z"/></svg>