<svg xmlns="http://www.w3.org/2000/svg" viewBox="0 0 400 400.12"><defs><style>.a{fill:#3bafda;}.b{fill:#434a54;}.c{fill:#272b30;}.d{fill:#bdaa80;}.e{fill:#dec896;}.f{fill:#f9e0a8;}.g{fill:#d9c392;}.h{fill:#ffe9ba;}.i{fill:#9c313c;}.j{fill:#c93f4d;}.k{fill:#e04656;}.l{fill:#8f8061;}</style></defs><title>avatar19</title><circle class="a" cx="200" cy="200" r="200"/><path class="b" d="M316.67,302.79c-7.35-6.36-19.37-14.56-30.67-15.67-7.26-.71-86-13-86-13s-78.74,12.29-86,13c-11.3,1.11-23.32,9.31-30.67,15.67-13.42,11.6-20.78,25.84-24.79,38.71a200,200,0,0,0,282.92,0C337.45,328.63,330.09,314.39,316.67,302.79Z"/><path class="c" d="M194,400c2,.06,4,.1,6,.1s4,0,6-.1V309H194Z"/><path class="d" d="M83.33,302.79a78.7,78.7,0,0,0-13.65,15.36c1.69,10.08,2.23,22.37,2.07,35.43a199.2,199.2,0,0,0,89.32,42.74c.74-17.53-.13-33-4.42-39.82C143.79,336,160,297.25,160,297.25l-19.21-14c-13.32,2-24.29,3.63-26.79,3.87C102.7,288.23,90.68,296.43,83.33,302.79Z"/><path class="e" d="M158.2,392.66a196.94,196.94,0,0,1-83.44-40.48,210.73,210.73,0,0,0-1.92-33.32,75.85,75.85,0,0,1,12.45-13.8c4.76-4.11,17.09-13.79,29-14.95,2.21-.22,10.86-1.47,25.73-3.71l16.34,11.91c-3.32,8.77-14.11,40.89-2.26,59.78C156.37,361.71,158.85,370.65,158.2,392.66Z"/><path class="d" d="M316.67,302.79a78.7,78.7,0,0,1,13.65,15.36c-1.69,10.08-2.23,22.37-2.07,35.43a199.2,199.2,0,0,1-89.32,42.74c-.74-17.53.13-33,4.42-39.82C256.21,336,240,297.25,240,297.25l19.21-14c13.32,2,24.29,3.63,26.79,3.87C297.3,288.23,309.32,296.43,316.67,302.79Z"/><path class="e" d="M241.8,392.66c-.65-22,1.83-31,4.1-34.57,11.85-18.89,1.06-51-2.26-59.78L260,286.4c14.87,2.24,23.52,3.49,25.73,3.71,11.91,1.16,24.24,10.84,29,14.95a75.85,75.85,0,0,1,12.45,13.8,210.73,210.73,0,0,0-1.92,33.32A196.94,196.94,0,0,1,241.8,392.66Z"/><path class="f" d="M200,196.12l-42.25-5.5,16.31,88.74s3.66,30.76,25.94,30.76,25.94-30.76,25.94-30.76l16.31-88.74Z"/><path class="g" d="M234,205.62l-69.53,21.59,7.09,38.56c10.66,13.14,26.92,25.19,51,26.26a55,55,0,0,0,3.42-12.67l12.13-66C235.69,208.57,234,205.62,234,205.62Z"/><path class="f" d="M137,159.62s-21.31-13.5-19.1,14.5,19.1,26,19.1,26Z"/><path class="f" d="M263,159.62s21.31-13.5,19.1,14.5-19.1,26-19.1,26Z"/><path class="h" d="M200,87.38c-63,0-63,34.74-63,34.74v80c0,20.5,19.24,36.29,35.23,50,13.4,11.5,27.77,11,27.77,11s14.37.5,27.77-11c16-13.71,35.23-29.5,35.23-50v-80S263,87.38,200,87.38Z"/><path class="i" d="M240.5,263.12c-3.56-.83,12.26-24.12,32.13-29.12s49.87-9.76,48.37-27.38C321,206.62,332.5,284.75,240.5,263.12Z"/><path class="j" d="M243.25,262.34s56.18,35.85,99.21,0c0,0-12,8.41-29,3.78S302,230.69,243.25,262.34Z"/><path class="j" d="M254.53,266.5C264.68,252,242.31,238,242.31,238A83.24,83.24,0,0,0,200,263.12,83.24,83.24,0,0,0,157.69,238s-22.37,14-12.22,28.5c0,0-23.07,3.74-10.56,17.62S169,356.5,200,356.5s52.58-58.5,65.09-72.38S254.53,266.5,254.53,266.5Z"/><path class="k" d="M200,274.12s-40.39-18.37-38.7-11S200,289,200,289s37-18.5,38.7-25.88S200,274.12,200,274.12Z"/><path class="k" d="M247,283.25c-3.5-7.26-47,26.87-47,26.87S156.5,276,153,283.25s47.22,51.86,47,52.74C199.5,338,250.5,290.5,247,283.25Z"/><path class="e" d="M309.43,131.08c-2.85-12.61-9.9,3.2-52.88-26.7L200,79.41l-56.55,25c-43,29.9-50,14.09-52.88,26.7s40.76,27.28,54.66,45.19c30,38.61,79.58,38.61,109.54,0C268.67,158.36,312.28,143.69,309.43,131.08Z"/><path class="e" d="M232.9,37c-26.55-1.07-31.85,14.72-32.9,14.72S193.65,35.88,167.1,37c-30.33,1.22-27.41,77.71-27.41,77.71s4,43.18,60.31,43.18,60.31-43.18,60.31-43.18S263.23,38.17,232.9,37Z"/><path class="l" d="M200,137.84c-49.39,0-58.54-33.23-60-41.38-.56,10.52-.27,18.2-.27,18.2s4,43.18,60.31,43.18,60.31-43.18,60.31-43.18.29-7.68-.27-18.2C258.54,104.62,249.39,137.84,200,137.84Z"/><path class="d" d="M156.65,187.94C148,175.83,137,158.82,130,147.9c-2.53-20.14-9.8-55-30.35-67.67C70,61.92,91,135.15,90.44,136.37Z"/><path class="d" d="M243.35,187.94c8.62-12.11,19.69-29.12,26.7-40,2.53-20.14,9.8-55,30.35-67.67,29.61-18.31,8.65,54.92,9.16,56.14Z"/><path class="d" d="M214.25,73.25c0-12.48-2.1-23.6-5.37-30.79-6.34,4.19-8.29,9.21-8.88,9.21s-2.5-4.92-8.69-9.08C188.07,49.78,186,60.84,186,73.25c0,21.68,6.32,26.25,14.12,26.25S214.25,94.93,214.25,73.25Z"/></svg>