<svg xmlns="http://www.w3.org/2000/svg" viewBox="0 0 400 400.12"><defs><style>.a{fill:#967adc;}.b{fill:#f9e0a8;}.c{fill:#d9c392;}.d{fill:#48cfad;}.e{fill:#3aa68b;}.f{fill:#e6e9ed;}.g{fill:#f5f7fa;}.h{fill:#ffe9ba;}</style></defs><title>Asset 10</title><circle class="a" cx="200" cy="200" r="200"/><path class="b" d="M200,196.12l-42.25-5.5,16.31,88.74s3.66,30.76,25.94,30.76,25.94-30.76,25.94-30.76l16.31-88.74Z"/><path class="c" d="M234,205.62l-69.53,21.59,7.09,38.56c10.66,13.14,26.92,25.19,51,26.26a55,55,0,0,0,3.42-12.67l12.13-66C235.69,208.57,234,205.62,234,205.62Z"/><path class="d" d="M316.67,302.79c-7.35-6.36-19.37-14.56-30.67-15.67-4.14-.4-31.61-4.59-54.41-8.1l-4-8.68a37.39,37.39,0,0,1-9.47,6.6A75.21,75.21,0,0,1,200,283.12a75.21,75.21,0,0,1-18.16-6.18,37.39,37.39,0,0,1-9.47-6.6l-4,8.68c-22.8,3.51-50.27,7.7-54.41,8.1-11.3,1.11-23.32,9.31-30.67,15.67-13.41,11.6-20.78,25.84-24.79,38.71a200,200,0,0,0,282.92,0C337.45,328.63,330.08,314.39,316.67,302.79Z"/><path class="e" d="M203.24,390.6c26.75-22.74,32.6-99.85,33.3-110.82l-4.95-.76-4-8.68a37.39,37.39,0,0,1-9.47,6.6A75.21,75.21,0,0,1,200,283.12a75.21,75.21,0,0,1-18.16-6.18,37.39,37.39,0,0,1-9.47-6.6l-4,8.68-4.95.76c.7,11,6.55,88.08,33.3,110.82l3.24,2.75Z"/><path class="f" d="M227.63,270.34a37.39,37.39,0,0,1-9.47,6.6A75.21,75.21,0,0,1,200,283.12a75.21,75.21,0,0,1-18.16-6.18,37.39,37.39,0,0,1-9.47-6.6l-4,8.66c.23,3.74,5.52,85.64,31.58,107.79,26.06-22.15,31.35-104,31.58-107.79Z"/><path class="g" d="M189.83,316.46,168.42,279l4-8.66s19.8,11,27.63,12.78Z"/><path class="g" d="M210.17,316.46,231.58,279l-4-8.66s-19.8,11-27.63,12.78Z"/><path class="b" d="M137,159.62s-21.31-13.5-19.1,14.5,19.1,26,19.1,26Z"/><path class="b" d="M263,159.62s21.31-13.5,19.1,14.5-19.1,26-19.1,26Z"/><path class="h" d="M200,87.38c-63,0-63,34.74-63,34.74v80c0,20.5,19.24,36.29,35.23,50,13.4,11.5,27.77,11,27.77,11s14.37.5,27.77-11c16-13.71,35.23-29.5,35.23-50v-80S263,87.38,200,87.38Z"/><path class="g" d="M201.47,205.62c-49,0-29.37,55.07-23,54s-1-24.5-.5-32,23.5-6,23.5-6,23-1.5,23.5,6-6.87,30.93-.5,32S250.47,205.62,201.47,205.62Z"/><path class="g" d="M137.54,124.12c-24.74,20.09-2.66,39.81-.45,41.67a.53.53,0,0,1-.09.55v26.8s15.68,3,3.17-29.4C154.24,150.82,137.54,124.12,137.54,124.12Z"/><path class="g" d="M263.54,124.12c24.74,20.09,2.12,39.81-.1,41.67a1.11,1.11,0,0,1-.44.55v26.8s-15.14,3-2.63-29.4C246.3,150.82,263.54,124.12,263.54,124.12Z"/></svg>