<svg xmlns="http://www.w3.org/2000/svg" viewBox="0 0 400 400.12"><defs><style>.a{fill:#3db093;}.b{fill:#fff6e3;}.c{fill:#fff6e4;}.d{fill:#e8e0cf;}.e{fill:#656d78;}.f{fill:#f9e0a8;}.g{fill:#d9c392;}.h{fill:#ffe9ba;}.i{fill:#434a54;}.j{fill:#ffce54;}</style></defs><title>avatar9 (2)</title><circle class="a" cx="200" cy="200" r="200"/><path class="b" d="M166.76,273.62,169,289.25l30.5-.19,28.5.1,2.5-15.2C225,264.83,172.26,264.5,166.76,273.62Z"/><polygon class="c" points="163 286 166.53 350.5 199.8 387.25 227.53 368.25 234.43 285.34 210.03 308 181.28 306 163 286"/><rect class="d" x="186" y="306" width="26" height="93"/><path class="e" d="M316.67,312.79c-7.35-6.36-19.37-14.56-30.67-15.67-3.89-.38-30.36-7-52.2-13-1.45,7.66-16.58,96.5-33.8,107.5-17.22-11-34.35-99.84-35.8-107.5-21.84,6-46.31,12.62-50.2,13-11.3,1.11-23.32,9.31-30.67,15.67C70.1,324.23,72.48,338.24,68.69,351a200,200,0,0,0,262.62,0C327.52,338.24,329.9,324.23,316.67,312.79Z"/><path class="f" d="M198.53,198l-42.25-5.5,16.3,88.73S176.25,312,198.53,312s25.94-30.77,25.94-30.77l16.31-88.73Z"/><path class="g" d="M232.53,207.5,163,229.09l7.09,38.56C180.75,280.79,197,292.83,221,293.91a55.33,55.33,0,0,0,3.43-12.68l12.13-66C234.21,210.45,232.53,207.5,232.53,207.5Z"/><path class="g" d="M166.76,273.62,163,285.34S179,317,198,317V303S177,295.75,166.76,273.62Z"/><path class="g" d="M230.76,273.62l4,11.72S219,317,200,317V303A59.05,59.05,0,0,0,230.76,273.62Z"/><path class="h" d="M200,98H137s4.79,94.46,11,114c7,22,14.24,27.29,30.23,41,13.4,11.5,21.77,10,21.77,10s8.37,1.5,21.77-10c16-13.71,24.23-19,31.23-41,6.21-19.54,10-114,10-114Z"/><path class="f" d="M141.75,158.5S119,147.59,124.48,175.14s22,23.58,22,23.58Z"/><path class="f" d="M259.25,158.5s22.74-10.91,17.27,16.64-22,23.58-22,23.58Z"/><path class="i" d="M285.81,192C268.81,140.5,301,66,200,66s-68.81,74.5-85.81,126c-10.33,31.27,5.6,49.27,22.83,52.85l-.16.16C105.22,300.52,152.5,376.5,152.5,376.5c21.15-27,7.21-116.65,1.85-133.15a22.48,22.48,0,0,0,11-9.94c14-25.58-29.67-65.43-.65-67.43,29.17-2,35.3-32,35.3-32s7.13,30,36.3,32c29,2-15.62,41.85-1.65,67.43a22.48,22.48,0,0,0,11,9.94c-5.36,16.5-19.3,106.19,1.85,133.15,0,0,47.28-76,15.64-131.49l-.16-.16C280.21,241.27,296.14,223.27,285.81,192Z"/><path class="e" d="M114.19,210C131.19,158.5,99,84,200,84s68.81,74.5,85.81,126a68.55,68.55,0,0,1,2.39,9.33c1.6-7.53,1.14-16.66-2.39-27.33C268.81,140.5,301,66,200,66s-68.81,74.5-85.81,126c-3.53,10.67-4,19.8-2.39,27.33A68.55,68.55,0,0,1,114.19,210Z"/><path class="e" d="M243.22,185.85c-5.25,13.08-14.84,30.27-10.05,44.2C237.81,211.19,252.71,191.91,243.22,185.85Z"/><path class="e" d="M166.92,229.79c4.62-13.81-4.49-30.77-9.47-43.74C148.48,192.29,162.51,211.22,166.92,229.79Z"/><path class="j" d="M156.82,245.28c0,3.46-5.7,6.27-12.74,6.27s-12.75-2.81-12.75-6.27S137,239,144.08,239,156.82,241.81,156.82,245.28Z"/><path class="j" d="M243.18,245.28c0,3.46,5.7,6.27,12.74,6.27s12.75-2.81,12.75-6.27S263,239,255.92,239,243.18,241.81,243.18,245.28Z"/></svg>