<svg xmlns="http://www.w3.org/2000/svg" viewBox="0 0 400 400"><defs><style>.a{fill:#f6bb42;}.b{fill:#2d3138;}.c{fill:#ec87c0;}.d{fill:#d770ad;}.e{fill:#f9e0a8;}.f{fill:#d9c392;}.g{fill:#ffe9ba;}.h{fill:#434a54;}.i{fill:#656d78;}</style></defs><title>avatar1</title><circle class="a" cx="200" cy="200" r="200"/><rect class="b" x="124" y="156" width="153" height="170"/><path class="c" d="M316.67,312.67C309.32,306.31,297.3,298.11,286,297c-2.68-.26-15.1-3.46-29.7-7.4l.2,0a56,56,0,0,1-112-.15s0-.08,0-.11l.52-.14c-15.17,4.09-28.26,7.48-31,7.75-11.3,1.11-23.32,9.31-30.67,15.67-13.23,11.44-10.85,25.45-14.64,38.18a200,200,0,0,0,262.62,0C327.52,338.12,329.9,324.11,316.67,312.67Z"/><path class="d" d="M144.49,289.5a56,56,0,0,0,112,.15l-.2,0-2.13-.57,0,0-2.65-.72c0,.41,0,.81,0,1.21a51,51,0,1,1-102,0c0-.49,0-1,0-1.48l-.82.23-1.25.33-.92.25-1.52.42-.52.14S144.49,289.46,144.49,289.5Z"/><path class="e" d="M251.47,288.29c-8.65-2.34-17.74-4.85-25.84-7.11.23-1.22.31-1.95.31-1.95l16.31-88.73L200,196l-42.25-5.5,16.31,88.73s.08.73.31,1.95l-.29.08-.41.12-.11,0-.74.21-1,.27-.13,0-.81.23-.64.17-1.6.45L168,283l-1.41.39-.83.23-1.63.45-.72.2-.38.1-.07,0-1.43.4-1,.26-1.29.36-.93.25L157,286l-.88.24-2,.54-.22.06-2.18.59-.73.2-1.44.39-.1,0c0,.49,0,1,0,1.48a51,51,0,1,0,102,0C251.5,289.1,251.48,288.7,251.47,288.29Z"/><path class="f" d="M234,205.5l-69.53,21.59,7.09,38.56c10.66,13.14,26.92,25.18,51,26.26a55,55,0,0,0,3.42-12.68l12.13-66C235.69,208.45,234,205.5,234,205.5Z"/><path class="g" d="M200,98H137s4.79,94.46,11,114c7,22,14.24,27.29,30.23,41,13.4,11.5,21.77,10,21.77,10s8.37,1.5,21.77-10c16-13.71,24.23-19,31.23-41,6.21-19.54,10-114,10-114Z"/><path class="e" d="M141.75,158.5S119,147.59,124.48,175.14s22,23.58,22,23.58Z"/><path class="e" d="M259.25,158.5s22.74-10.91,17.27,16.64-22,23.58-22,23.58Z"/><path class="h" d="M200,46c-122,0-77,194-82,237s59.38,57.51,59.38,57.51c-45.77-58.17-34.31-160-34.31-160,53.82-10.34,78.46-30.92,89.73-47,4.61,12.11,12.09,27.63,24.13,47,0,0,11.46,101.81-34.31,160,0,0,64.38-14.49,59.38-57.51S322,46,200,46Z"/><path class="i" d="M258.08,218.65c-.95,34.94-7.62,86.47-35.46,121.86a118.21,118.21,0,0,0,14.64-4.62C257,295.33,258.81,245.42,258.08,218.65Z"/><path class="i" d="M200,65c69.29,0,84.71,62.57,86,124.52C287.31,122.09,276.41,46,200,46s-87.31,76.09-86,143.52C115.29,127.57,130.71,65,200,65Z"/><path class="i" d="M162.74,335.89a118.21,118.21,0,0,0,14.64,4.62c-27.84-35.39-34.51-86.92-35.46-121.86C141.19,245.42,143,295.33,162.74,335.89Z"/><path class="i" d="M232.8,133.51s-12.66,56.05-89.73,47C143.07,180.53,200.5,169,232.8,133.51Z"/><path class="i" d="M227.5,89s-15.88,43-92.44,72.5C135.06,161.5,205,163.5,227.5,89Z"/></svg>