<svg xmlns="http://www.w3.org/2000/svg" viewBox="0 0 400 401"><defs><style>.a{fill:#da4453;}.b{fill:#2d3138;}.c{fill:#f5f7fa;}.d{fill:#d9c392;}.e{fill:#ec87c0;}.f{fill:#f9e0a8;}.g{fill:#ecb8d5;}.h{fill:#ffe9ba;}.i{fill:#434a54;}.j{fill:#656d78;}</style></defs><title>avatar8 (2)</title><circle class="a" cx="200" cy="200" r="200"/><rect class="b" x="124" y="156" width="153" height="170"/><path class="c" d="M316.67,313.67c-7.35-6.36-19.37-14.48-30.67-15.59-.26,0-.62-.08-1.06-.08h0c-.1,0-.21-.12-.33-.14v0c-.17,0-.36-.1-.55-.13l-.08,0h0l-.3-.06a1.88,1.88,0,0,1-.14.24,1.29,1.29,0,0,0-.39.07s-.12.05-.12.07v-.47l.21.23a4.41,4.41,0,0,1,0-.48c-.1,0-.19.08-.3.06s0,.05-.06,0-.28,0-.43-.06h-.05l-.58-.12-.26-.06-.18,0-.14,0-.11,0-.53-.13-.19,0-.27-.06h-.06l-1.24-.3-.3-.07-1.11-.28-.53-.13-3.17-.8-1-.26-1.18-.3-.19-.05-.57-.15-.3-.07-.93-.25h0A47.46,47.46,0,0,0,261,283.57s-9.61-28.22-28.86-5.82q-1.75,2-3.63,4.68c4.71,1.3,9.7,2.69,14.75,4.07l.71.2-.09.52a.29.29,0,0,0,0,.09C241.24,301.74,229.21,338,202,338c-.34,0-.67,0-1,0s-.66,0-1,0c-27.21,0-39.24-36.26-41.86-50.69,0-.2-.08-.42-.11-.61h0l.71-.2c5-1.38,10-2.77,14.75-4.07q-1.87-2.64-3.63-4.68c-19.25-22.4-28.86,5.82-28.86,5.82a48.22,48.22,0,0,0-8.11,9.91l-2.41.63-.93.25-.3.07-.57.15-.19.05-1.18.3-1,.26-3.17.8-.53.13-1.11.28-.3.07-1.24.3h-.06l-.27.06-.83.19-.14,0-.44.1-.58.13c-.17,0-.62.2-.62.19a19.74,19.74,0,0,1-3,.58c-11.3,1.11-23.32,9.27-30.67,15.63C70.1,325.14,72.48,339.13,68.7,351.86h0L70,353l1.23,1,1,.81.36.29,1.19,1,.82.66c.39.32.78.64,1.18.95l1.4,1.11.51.39.4.3,1.3,1,2,1.51.57.42,1.08.78,2.31,1.65.82.57.38.26.21.15,2.35,1.6,1.33.87.68.44c.6.4,1.21.79,1.82,1.18l1.37.86,1.16.72.11.07,1.26.76,1.18.7c.76.46,1.53.91,2.29,1.35l0,0,1.44.8,1.93,1.08c.49.27,1,.55,1.46.81l.17.09,2.15,1.14,1.07.57,1.54.77.23.11.74.37,1.64.82c.76.37,1.54.73,2.31,1.09l.32.16,1.57.73,2.34,1,1,.45.21.09.69.3,2.31,1,2,.82,2.29.9,2.08.79c.75.28,1.51.57,2.27.84l2.16.76,2.25.77,2.26.74,2.2.7,1.79.53.16.05.5.15,2.05.6,1.51.41h0c.66.19,1.32.37,2,.54l2.33.6,3.21.78,1.92.43,2.74.59,2,.41,2.65.51,2.11.36,2.64.44,2.13.32,2.66.37,2.13.27c.9.11,1.81.22,2.72.31l2.11.22,2.79.25,2.06.17,2.94.18,2,.12c1.08.05,2.17.09,3.26.12l1.65.06c1.64,0,3.29.06,4.94.06s3.3,0,4.94-.06l1.65-.06c1.09,0,2.18-.07,3.26-.12l2-.12,2.94-.18,2.06-.17,2.79-.25,2.11-.22c.91-.09,1.82-.2,2.72-.31l2.13-.27,2.66-.37,2.13-.32,2.64-.44,2.11-.36,2.65-.51,2-.41,2.74-.59,1.92-.43,3.21-.78,2.33-.6c.67-.17,1.33-.35,2-.54h0l1.51-.41,2.05-.6.5-.15.16-.05,1.79-.53,2.2-.7,2.26-.74,2.25-.77,2.16-.76c.76-.27,1.52-.56,2.27-.84l2.08-.79,2.29-.9,2-.82,2.31-1,.69-.3.21-.09,1-.45,2.34-1,1.57-.73.32-.16c.77-.36,1.55-.72,2.31-1.09l1.64-.82.74-.37.23-.11,1.54-.77,1.07-.57,2.15-1.14.17-.09c.49-.26,1-.54,1.46-.81l1.93-1.08,1.44-.8,0,0c.76-.44,1.53-.89,2.29-1.35l1.18-.7,1.26-.76.11-.07,1.16-.72,1.37-.86c.61-.39,1.22-.78,1.82-1.18l.68-.44,1.33-.87,2.35-1.6.21-.15.38-.26.82-.57,2.31-1.65,1.08-.78.57-.42,2-1.51,1.3-1,.4-.3c.17-.14.34-.26.51-.39l1.4-1.11c.4-.31.79-.63,1.18-.95l.82-.66,1.19-1,.36-.29,1-.81c.84-.71,1.68-1.42,2.51-2.14h0l0,0h0C327.52,339.12,329.9,325.11,316.67,313.67Z"/><path class="d" d="M225.81,280.11a2.71,2.71,0,0,1-.06.38A3,3,0,0,0,225.81,280.11Z"/><path class="d" d="M225.89,279.63a3.35,3.35,0,0,1-.06.36C225.86,279.85,225.87,279.73,225.89,279.63Z"/><path class="d" d="M225.94,279.23a.51.51,0,0,1,0,.09A.51.51,0,0,0,225.94,279.23Z"/><path class="d" d="M225.93,279.34c0,.06,0,.14,0,.25C225.91,279.48,225.92,279.4,225.93,279.34Z"/><path class="e" d="M253,330.88c-3.22,2-5.52-38.88-5.52-38.88,9,32.61-46.5,24-46.5,24s-55.51,8.61-46.5-24c0,0-3.26,40.46-7.45,37.61-1.09,20.34-.77,45.48,0,63.28.66.18,1.32.37,2,.54l2.33.6,3.21.78,1.92.43,2.74.59,2,.41,2.65.51,2.11.36,2.64.44,2.13.32,2.66.37,2.13.27c.9.11,1.81.22,2.72.31l2.11.22,2.79.25,2.06.17,2.94.18,2,.12c1.08.05,2.17.09,3.26.12l1.65.06c1.64,0,3.29.06,4.94.06s3.3,0,4.94-.06l1.65-.06c1.09,0,2.18-.07,3.26-.12l2-.12,2.94-.18,2.06-.17,2.79-.25,2.11-.22c.91-.09,1.82-.2,2.72-.31l2.13-.27,2.66-.37,2.13-.32,2.64-.44,2.11-.36,2.65-.51,2-.41,2.74-.59,1.92-.43,3.21-.78,2.33-.6c.67-.17,1.33-.36,2-.54C253.7,375.46,254,350.87,253,330.88Z"/><path class="f" d="M243.26,285.5c-5-1.38-10-2.77-14.75-4.07l-2.79-.78a1.1,1.1,0,0,0,0-.16,2.71,2.71,0,0,0,.06-.38.5.5,0,0,0,0-.12,3.35,3.35,0,0,0,.06-.36v0c0-.11,0-.19,0-.25v0a.51.51,0,0,0,0-.09l16.31-88.73L200,196l-42.25-5.5,16.31,88.73s.08.73.31,1.95l-.88.25c-4.7,1.3-9.7,2.69-14.75,4.07l-.71.2h0c0,.19.07.41.11.61C160.76,300.74,172.79,337,200,337c.34,0,.67,0,1,0s.66,0,1,0c27.21,0,39.24-36.26,41.86-50.69a.29.29,0,0,1,0-.09l.09-.52Z"/><path class="d" d="M234,205.5l-69.53,21.59,7.09,38.56a77.12,77.12,0,0,0,13,12.7,66.26,66.26,0,0,0,38,13.56,57.2,57.2,0,0,0,3.11-10.73q.08-.37.12-.69a2.71,2.71,0,0,0,.06-.38.5.5,0,0,0,0-.12,3.35,3.35,0,0,0,.06-.36v0c0-.11,0-.19,0-.25v0a.51.51,0,0,0,0-.09l12.13-66C235.69,208.45,234,205.5,234,205.5Z"/><path class="g" d="M269.47,293.1A47.46,47.46,0,0,0,261,282.57s-9.61-28.22-28.86-5.82q-1.75,2-3.63,4.68c4.71,1.3,9.7,2.69,14.75,4.07l.91.2s-.09.19-.27.53a.59.59,0,0,0,0,.08C241.24,300.74,229.21,337,202,337c-.34,0-.67,0-1,0s-.66,0-1,0c-27.21,0-39.24-36.26-41.86-50.69l-.29-.56,0-.05.91-.2c5-1.38,10-2.77,14.75-4.07q-1.87-2.64-3.63-4.68c-19.25-22.4-28.86,5.82-28.86,5.82a48.22,48.22,0,0,0-8.11,9.91c-11.3,18.91,4.11,33.3,14.16,40.13A61.42,61.42,0,0,0,154.5,337c-9,32.61,46.5,24,46.5,24s55.51,8.61,46.5-24a55.84,55.84,0,0,0,5.52-3.12C262.72,327.75,280.79,313,269.47,293.1Z"/><path class="h" d="M200,98H137s4.79,94.46,11,114c7,22,14.24,27.29,30.23,41,13.4,11.5,21.77,10,21.77,10s8.37,1.5,21.77-10c16-13.71,24.23-19,31.23-41,6.21-19.54,10-114,10-114Z"/><path class="f" d="M141.75,158.5S119,147.59,124.48,175.14s22,23.58,22,23.58Z"/><path class="f" d="M259.25,158.5s22.74-10.91,17.27,16.64-22,23.58-22,23.58Z"/><path class="e" d="M246.29,74.21c6.38,1.45,13.19,7.75,15.13,14s5.55,17.8,8,25.65l5,16c2.44,7.86,9,9.34,14.61,3.3l11.27-12.19,20.33-22,11.28-12.19c5.58-6.05,3.59-12.49-4.43-14.31l-16.28-3.71-26.2-6c-6.38-1.45-13.19-7.75-15.13-14s-5.53-17.78-8-25.64L256.93,7.24c-2.44-7.86-9-9.35-14.6-3.31L231.05,16.12l-20.32,22L199.45,50.29c-5.59,6-3.59,12.47,4.43,14.29l16.23,3.69Z"/><path class="g" d="M326.44,72.45l-16.28-3.71-26.2-6c-6.38-1.45-13.19-7.75-15.13-14s-5.53-17.78-8-25.64L255.93,7.24c-2.44-7.86-9-9.35-14.6-3.31L230.05,16.12l-20.32,22L198.45,50.29a14.84,14.84,0,0,0-1.8,2.37l6.08-6.56,20.32-22,11.28-12.19c5.59-6,12.16-4.55,14.6,3.31l4.93,15.89c2.44,7.86,6,19.4,8,25.64s8.75,12.55,15.13,14l26.2,6,16.28,3.71c7,1.59,9.38,6.66,6.22,11.93l5.21-5.62C336.45,80.71,334.46,74.27,326.44,72.45Z"/><path class="i" d="M203.27,48.67C101,48.67,119,134.8,119,134.8c5.59,47.29-23.33,45.87-23.33,45.87s38.73,52.66,137-37.34c0,0,13,35.56,58.3,31.12,0,0-17.25-6.45-14.62-30.45S305.54,48.67,203.27,48.67Z"/><path class="j" d="M238.05,108S251,164.67,294,160.67C294,160.67,261.89,141,238.05,108Z"/><path class="j" d="M232.7,104.87c.79-1.32-74.37,77.8-129.7,55.8C103,160.67,175.73,200.4,232.7,104.87Z"/><path class="j" d="M224.34,91S165,157.33,110,143.67C110,143.67,177,129.3,224.34,91Z"/><path class="j" d="M203.27,74.67c55.77,0,73.24,21.21,77.16,44.39,3.8-30.19-.38-70.39-77.16-70.39-94.28,0-86.35,73.2-84.53,84.64C122.52,108.1,139.55,74.67,203.27,74.67Z"/></svg>