<svg xmlns="http://www.w3.org/2000/svg" viewBox="0 0 400 400"><defs><style>.a{fill:#967adc;}.b{fill:#656d78;}.c{fill:#f9e0a8;}.d{fill:#d9c392;}.e{fill:#f5f7fa;}.f{fill:#84888d;}.g{fill:#e6e9ed;}.h{fill:#ffd56b;}.i{fill:#ffe9ba;}.j{fill:#ffce54;}.k{fill:#f6bb42;}</style></defs><title>avatar12 (2)</title><circle class="a" cx="200" cy="200" r="200"/><path class="b" d="M316.67,312.67C309.32,306.31,297.3,298.11,286,297c-7.26-.71-86-23-86-23s-78.74,22.29-86,23c-11.3,1.11-23.32,9.31-30.67,15.67-13.23,11.44-10.85,25.45-14.64,38.18a200,200,0,0,0,262.62,0C327.52,338.12,329.9,324.11,316.67,312.67Z"/><path class="c" d="M200,196l-42.25-5.5,16.31,88.73S177.72,310,200,310s25.94-30.77,25.94-30.77l16.31-88.73Z"/><path class="d" d="M234,205.5l-69.53,21.59,7.09,38.56c10.66,13.14,26.92,25.18,51,26.26a55,55,0,0,0,3.42-12.68l12.13-66C235.69,208.45,234,205.5,234,205.5Z"/><path class="e" d="M227.63,270.22C218.17,279.69,200,283,200,283s-18.17-3.31-27.63-12.78l-4,8.77L200,395.71,231.63,279Z"/><path class="f" d="M228.45,272l3.18,7L200,395.71,168.37,279l3.18-7c-34.55,7-12.3,68.48-12.3,68.48l10-3.5-6.37,10.25L200,397.71l37.12-50.46L230.75,337l10,3.5S263,279,228.45,272Z"/><polygon class="g" points="175.93 306.88 200 283 224.07 306.88 200 395.71 175.93 306.88"/><path class="h" d="M200,322l.08.15Z"/><path class="i" d="M200,98H137s4.79,94.46,11,114c7,22,14.24,27.29,30.23,41,13.4,11.5,21.77,10,21.77,10s8.37,1.5,21.77-10c16-13.71,24.23-19,31.23-41,6.21-19.54,10-114,10-114Z"/><path class="c" d="M141.75,158.5S119,147.59,124.48,175.14s22,23.58,22,23.58Z"/><path class="c" d="M259.25,158.5s22.74-10.91,17.27,16.64-22,23.58-22,23.58Z"/><path class="j" d="M273.31,201.67c3.88-19.06,11.35-60.11,11.35-93.67,0-45.33-41-81.67-91-78s-53.5,46.33-53.5,46.33-78.38,14.4-11.44,96.2c0,0,13.61,13.47,5.61,39.8,0,0,26-37.25,23.52-56.25,0,0,42.52,56.25,113.19,56.25,0,0,9.29,1,27.29-3.66C298.33,208.67,286.81,210.35,273.31,201.67Z"/><path class="h" d="M143,91.12s.66-22.45,50.66-26.12c45.51-3.34,83.56,26.46,90,66,.61-7.82,1-15.6,1-23,0-45.33-41-81.67-91-78s-53.5,46.33-53.5,46.33-50.89,9.37-35.61,55.81C113.12,103.86,143,91.12,143,91.12Z"/><path class="h" d="M152.2,115.5s18.43,61.83,121.11,86.17C273.31,201.67,165.9,143.5,152.2,115.5Z"/><path class="k" d="M152.2,106s99-27,125.63,71.26C277.83,177.26,251.9,33.5,152.2,106Z"/><path class="k" d="M147,111s-7,17.5-14.5,76C132.5,187,107.5,146,147,111Z"/></svg>