<svg xmlns="http://www.w3.org/2000/svg" viewBox="0 0 400 400.45"><defs><style>.a{fill:#d770ad;}.b{fill:#f9e0a8;}.c{fill:#d9c392;}.d{fill:#2d3138;}.e{fill:#ffe9ba;}.f{fill:#f5f7fa;}.g{fill:#fff;}.h{fill:#e6e9ed;}.i{fill:#434a54;}.j{fill:#656d78;}</style></defs><title>avatar7 (2)</title><circle class="a" cx="200" cy="200.33" r="200"/><path class="b" d="M316.67,313.12c-7.35-6.35-19.37-14.56-30.67-15.66-4.51-.45-36.69-9.24-60.37-15.82.23-1.22.31-1.95.31-1.95L242.25,191,200,196.45,157.75,191l16.31,88.74s.08.73.31,1.95C150.69,288.22,118.51,297,114,297.46c-11.3,1.1-23.32,9.31-30.67,15.66-13.23,11.44-10.85,25.46-14.64,38.19a200,200,0,0,0,262.62,0C327.52,338.58,329.9,324.56,316.67,313.12Z"/><path class="c" d="M234,206l-69.53,21.6,7.09,38.55c10.66,13.15,26.92,25.19,51,26.27a55.11,55.11,0,0,0,3.42-12.68l12.13-66C235.69,208.9,234,206,234,206Z"/><path class="d" d="M111.32,297.86c-.45.08-.89.17-1.34.28l-.8.2-1.22.33-.83.25-1.2.4-.82.3-1.23.47-.77.32c-.44.18-.88.38-1.33.58l-.63.29c-.65.31-1.29.62-1.93,1,3.81,18.2.33,44-5.07,67.93q4.08,2.55,8.29,4.91l.56.31,2.64,1.45,0,0q4.26,2.28,8.64,4.36l.48.22,2.81,1.31h0q4.48,2,9.08,3.84c.09,0,0,.07,0,.11A201.94,201.94,0,0,0,197,400.42h0l2.78,0h1.11c2.3,0,4.65-.06,6.94-.15h.39c1,0,2-.1,3-.15l1-.05,3-.2.53-.05c3.23-.25,6.43-.58,9.62-1l.87-.11,2.91-.4.75-.11q4.68-.71,9.29-1.62l.73-.15c1-.19,1.91-.39,2.86-.6l.82-.18c3.1-.69,6.18-1.45,9.22-2.28l.44-.12,2.83-.8.82-.24,2.82-.86.19-.06q4.62-1.44,9.13-3.11l.76-.28c.91-.34,1.82-.68,2.72-1,.18-.06.34-.13.51-.2,2.92-1.14,5.79-2.35,8.64-3.62l.6-.27c.89-.4,1.78-.81,2.66-1.23l.6-.28q4.26-2,8.42-4.24l.35-.18c.88-.47,1.75-.95,2.62-1.43l.57-.32q4.26-2.39,8.38-5c-5.4-24-8.88-49.73-5.07-67.93-.64-.33-1.28-.64-1.93-1l-.63-.28c-.44-.21-.89-.41-1.34-.59l-.76-.32-1.23-.47-.82-.3-1.2-.4-.83-.25-1.22-.33-.8-.2c-.44-.11-.89-.2-1.34-.28-.22,0-.45-.1-.67-.13q-1-.18-2-.27c-.34,0-.84-.12-1.47-.24l-.09,0-.59-.12-.39-.08-.38-.08-.62-.14-.23,0-.87-.2-.07,0c-2.91-.67-6.9-1.67-11.54-2.88,0,0-.05-.08-.09-.09C268,305.2,258.34,337.33,201,337.33h-2c-57.34,0-67-32.13-68.66-43.79,0,0-.06,0-.09.06-4.64,1.21-8.63,2.22-11.54,2.9l-.08,0-.85.21-.27.06-.59.13-.38.08-.39.08-.59.12-.09,0c-.63.12-1.13.2-1.47.24q-1,.09-2,.27C111.77,297.76,111.54,297.82,111.32,297.86Z"/><path class="e" d="M200,98.33H137s4.79,94.47,11,114c7,22,14.24,27.29,30.23,41,13.4,11.5,21.77,10,21.77,10s8.37,1.5,21.77-10c16-13.71,24.23-19,31.23-41,6.21-19.53,10-114,10-114Z"/><path class="b" d="M141.75,158.83S119,147.92,124.48,175.47s22,23.58,22,23.58Z"/><path class="b" d="M259.25,158.83s22.74-10.91,17.27,16.64-22,23.58-22,23.58Z"/><circle class="f" cx="165.13" cy="285.21" r="3.87"/><circle class="f" cx="170.13" cy="291.21" r="3.87"/><circle class="f" cx="176.13" cy="297.21" r="3.87"/><path class="f" d="M181,305.44a3.58,3.58,0,0,0-.87-.11,3.89,3.89,0,1,0,2.14.65,4.12,4.12,0,0,0,.86.1,3.87,3.87,0,1,0-2.13-.64Z"/><circle class="f" cx="191.13" cy="307.21" r="3.87"/><circle class="f" cx="154.13" cy="287.21" r="3.87"/><circle class="f" cx="159.13" cy="293.21" r="3.87"/><circle class="f" cx="165.13" cy="299.21" r="3.87"/><circle class="f" cx="172.13" cy="304.21" r="3.87"/><circle class="f" cx="146.13" cy="292.21" r="3.87"/><circle class="f" cx="151.13" cy="298.21" r="3.87"/><circle class="f" cx="157.13" cy="304.21" r="3.87"/><circle class="f" cx="164.13" cy="309.21" r="3.87"/><circle class="f" cx="172.13" cy="314.21" r="3.87"/><circle class="f" cx="187.13" cy="314.21" r="3.87"/><circle class="f" cx="179.13" cy="319.21" r="3.87"/><circle class="f" cx="187.13" cy="323.21" r="3.87"/><circle class="f" cx="196.13" cy="315.21" r="3.87"/><circle class="f" cx="234.88" cy="285.21" r="3.87"/><circle class="f" cx="229.88" cy="291.21" r="3.87"/><circle class="f" cx="223.88" cy="297.21" r="3.87"/><path class="f" d="M219,305.44a3.58,3.58,0,0,1,.87-.11,3.89,3.89,0,1,1-2.14.65,4.12,4.12,0,0,1-.86.1,3.87,3.87,0,1,1,2.13-.64Z"/><circle class="f" cx="208.88" cy="307.21" r="3.87"/><circle class="f" cx="245.88" cy="287.21" r="3.87"/><circle class="f" cx="240.88" cy="293.21" r="3.87"/><circle class="f" cx="234.88" cy="299.21" r="3.87"/><circle class="f" cx="227.88" cy="304.21" r="3.87"/><circle class="f" cx="253.88" cy="292.21" r="3.87"/><circle class="f" cx="248.88" cy="298.21" r="3.87"/><circle class="f" cx="242.88" cy="304.21" r="3.87"/><circle class="f" cx="235.88" cy="309.21" r="3.87"/><circle class="f" cx="227.88" cy="314.21" r="3.87"/><circle class="f" cx="212.88" cy="314.21" r="3.87"/><circle class="f" cx="220.88" cy="319.21" r="3.87"/><circle class="f" cx="212.88" cy="323.21" r="3.87"/><circle class="f" cx="203.88" cy="315.21" r="3.87"/><path class="g" d="M215.56,334.77A15.56,15.56,0,1,1,200,319.21,15.55,15.55,0,0,1,215.56,334.77Z"/><path class="g" d="M150.33,195.33A8.33,8.33,0,1,1,142,187,8.33,8.33,0,0,1,150.33,195.33Z"/><path class="g" d="M266.33,195.33A8.33,8.33,0,1,1,258,187,8.33,8.33,0,0,1,266.33,195.33Z"/><path class="d" d="M202.91,0c-99.17,0-50.67,90.67-50.67,90.67L202.91,65l50.67,25.7S302.08,0,202.91,0Z"/><path class="f" d="M230.8,45.2c-2.47-1.4-5.69-8-7.15-14.7s-7.11-12.17-12.55-12.17S200,23.81,198.54,30.5s-4.67,13.3-7.14,14.7-4.49,6.36-4.49,11.34,9.89,8.79,22,8.79h4.4c12.09,0,22-3.82,22-8.79S233.27,46.59,230.8,45.2Z"/><path class="h" d="M208.9,60.33c-10.06,0-15.93-2.79-17-4.11.08-3.53,1.45-6.18,2-6.72,5-2.93,8.32-12.64,9.48-17.94,1-4.71,4.9-8.23,7.67-8.23s6.64,3.52,7.67,8.23c1.15,5.3,4.45,15,9.48,17.94.59.54,2,3.19,2,6.72-1.06,1.32-6.93,4.11-17,4.11Z"/><circle class="g" cx="221.79" cy="50.21" r="2.88"/><circle class="g" cx="205.91" cy="43.83" r="3.5"/><circle class="g" cx="208.41" cy="31.33" r="3.75"/><circle class="g" cx="216.66" cy="42.83" r="4.5"/><path class="i" d="M208.66,12.08c-9.95-.72-16.84,1.45-21.6,5.31-24.84-6.89-17.84,20.84-32.16,37.69-15.5,18.25-27.74,0-27.74,0,1.75,13.75,30.75,34.5,41,1a88.22,88.22,0,0,1,9.93-22.35c-2.67,12.68-.26,27.27-.93,33.1-1.32,11.59-11.5,12.25-11.5,12.25,48.25,4.25,10.5-56.75,41.5-58.25s29,43,29,43S249.66,15.08,208.66,12.08Z"/><path class="i" d="M259.23,87.78C257.64,69.37,239,53,200.41,53c-62.63,0-62,37.67-62,37.67-9.71,6.66-9.92,35.1-5.95,66l9.48,2s3.92-1.85,7.06-8.08c21.56,6.95,28.14-16.49,30.11-29.5,3.14.43,6.47.89,9.94,1.26,4.76,17.57,19.86,47.83,66.58,32.55a14,14,0,0,0,4.31,3.77l9.48-2C273.54,124.33,268.34,102.51,259.23,87.78ZM243.15,121h0c1.26-1,2.44-2.13,3.55-3.23,1.73,2.28,2.59,5.74,2.38,10.87-.5,12.22,2.2,19.71,5,24.16C246.41,150.1,231.65,141.89,243.15,121Z"/><path class="j" d="M259.23,87.78C257.64,69.37,239,53,200.41,53c-62.63,0-62,37.67-62,37.67.76-.27.14-13.09,22.56-20.39,15.65-1.24,44.9.77,48.16,32.5,0,0,6.23-27.94-10.32-37.44h1.63a108.74,108.74,0,0,1,21.08,1.92c6.44,6.58,11.06,18.09-3.58,35.53,0,0,25.93-17.73,18.7-30.83,14.32,6.46,21.65,16.93,22.62,28.16,6.25,10.1,10.66,23.53,11.47,41.41C271.72,117.33,266.84,100.08,259.23,87.78Z"/><path class="j" d="M141.4,89.79C157.89,69.91,197.24,101,197.24,101,166.58,45.33,141.4,89.79,141.4,89.79Z"/><path class="j" d="M137.41,138.33s29.17,46.85,41.67-17.24C179.08,121.09,164.58,154,137.41,138.33Z"/><path class="j" d="M150.91,136.67c.33-24.67,22.25-17,22.25-17C141.74,108,150.91,136.67,150.91,136.67Z"/><path class="j" d="M197.24,123.67c.67-26.34-8.22-1.32-8.22-1.32s0,40.32,39.27,39.32C228.29,161.67,196.58,150,197.24,123.67Z"/><path class="j" d="M219.16,123c2.16-24.67-10.51,0-10.51,0s2.26,35.15,38.26,36.08C246.91,159.08,217,147.67,219.16,123Z"/></svg>