<svg xmlns="http://www.w3.org/2000/svg" viewBox="0 0 400 400.12"><defs><style>.a{fill:#8cc152;}.b{fill:#2d3138;}.c{fill:#434a54;}.d{fill:#f5f7fa;}.e{fill:#f9e0a8;}.f{fill:#d9c392;}.g{fill:#e6e9ed;}.h{fill:#ffe9ba;}.i{fill:#656d78;}</style></defs><title>avatar14 (2)</title><circle class="a" cx="200" cy="200" r="200"/><path class="b" d="M308.68,134.68c2.5-16.77,2.19-33.71-2.68-48.18C289,36,247,66.75,247,66.75L233.24,176s12.2,39.5,31.7,40.5c3,.16,6.54-1.67,10.22-5.05,9.61,7.14,19.62-4.32,38.84-37.95C325.23,153.84,317.56,141.62,308.68,134.68Z"/><path class="b" d="M153,66.75S111,36,94,86.5c-4.87,14.47-5.18,31.41-2.68,48.18-8.88,6.94-16.55,19.16-5.32,38.82,19.22,33.63,29.23,45.09,38.84,37.95,3.68,3.38,7.18,5.21,10.22,5.05,19.5-1,31.7-40.5,31.7-40.5Z"/><path class="c" d="M308.68,159.68a30.57,30.57,0,0,1,7.84,8.82c6.91-15.74,1.07-26.16-6.38-32.62A131.42,131.42,0,0,1,308.68,159.68Z"/><path class="c" d="M247,91.75S289,61,306,111.5a79.71,79.71,0,0,1,3.54,16.28C311,113.31,310.2,99,306,86.5,289,36,247,66.75,247,66.75L233.24,176s.8,2.61,2.33,6.49Z"/><path class="c" d="M94,111.5c17-50.5,59-19.75,59-19.75l11.43,90.74c1.53-3.88,2.33-6.49,2.33-6.49L153,66.75S111,36,94,86.5c-4.2,12.49-5,26.81-3.54,41.28A79.71,79.71,0,0,1,94,111.5Z"/><path class="c" d="M91.32,159.68a131.42,131.42,0,0,1-1.46-23.8c-7.45,6.46-13.29,16.88-6.38,32.62A30.57,30.57,0,0,1,91.32,159.68Z"/><path class="c" d="M106,164c.18,1.66-13.67-32.67,6.67-46.33C112.67,117.67,103,136.33,106,164Z"/><path class="c" d="M111,175s-6.92-30.28,14.71-34.14C125.71,140.86,108.33,162,111,175Z"/><path class="c" d="M117.83,189s-13.37-4-16.27,2.67C101.56,191.67,99.82,178.74,117.83,189Z"/><path class="c" d="M107.11,176.67s-7.78-9.67-14.11,0C93,176.67,99.9,173,107.11,176.67Z"/><path class="c" d="M294,164c-.18,1.66,13.67-32.67-6.67-46.33C287.33,117.67,297,136.33,294,164Z"/><path class="c" d="M289,175s6.92-30.28-14.71-34.14C274.29,140.86,291.67,162,289,175Z"/><path class="c" d="M282.17,189s13.37-4,16.27,2.67C298.44,191.67,300.18,178.74,282.17,189Z"/><path class="c" d="M292.89,176.67s7.78-9.67,14.11,0C307,176.67,300.1,173,292.89,176.67Z"/><path class="d" d="M162.63,284.56,100.78,303S88,294.46,111.33,288.56c0,0,2.67-21.56,45.67-8.06Z"/><path class="d" d="M162.63,284.56,100.78,303S88,294.46,111.33,288.56c0,0,2.67-21.56,45.67-8.06Z"/><path class="e" d="M198.53,198l-42.25-5.5,16.3,88.73S176.25,312,198.53,312s25.94-30.77,25.94-30.77l16.31-88.73Z"/><path class="f" d="M232.53,207.5,163,229.09l7.09,38.56C180.75,280.79,197,292.83,221,293.91a55.33,55.33,0,0,0,3.43-12.68l12.13-66C234.21,210.45,232.53,207.5,232.53,207.5Z"/><path class="d" d="M316.67,312.79c-7.35-6.36-19.37-14.56-30.67-15.67-3.6-.35-26.49-6-47.19-11.63l-2.21-5L212,274.12s-45,5.38-47.1,6.38c-.54.26-1.35,1.83-2.27,4.06-21.43,5.9-44.83,12.19-48.63,12.56-11.3,1.11-23.32,9.31-30.67,15.67C70.1,324.23,72.48,338.24,68.69,351a200,200,0,0,0,262.62,0C327.52,338.24,329.9,324.23,316.67,312.79Z"/><path class="g" d="M257,290.29c-5.89-1.51-12.12-3.16-18.17-4.8l-2.21-5L212,274.12s-45,5.38-47.1,6.38c-.54.26-1.35,1.83-2.27,4.06-6.7,1.84-13.59,3.73-20,5.45,10.92,7.73,32.51,13,57.38,13C224.57,303,245.93,297.87,257,290.29Z"/><rect class="d" x="156" y="270" width="88" height="21" rx="10.25" ry="10.25"/><path class="g" d="M113.36,380.42c3.55-11.78,7.36-25.7,5.64-26.09-3-.66-11,18-11,18l7-35.21c-5,1.12-12.42,35.55-12.42,35.55L107.67,321c-3.39,0-7.3,33-9.13,51.49Q105.76,376.75,113.36,380.42Z"/><path class="d" d="M236.37,284.56,298.22,303s12.78-8.54-10.55-14.44c0,0-2.67-21.56-45.67-8.06Z"/><path class="g" d="M286.64,380.42c-3.55-11.78-7.36-25.7-5.64-26.09,3-.66,11,18,11,18l-7-35.21c5,1.12,12.42,35.55,12.42,35.55L292.33,321c3.39,0,7.3,33,9.13,51.49Q294.25,376.75,286.64,380.42Z"/><path class="h" d="M200,98H137s4.79,94.46,11,114c7,22,14.24,27.29,30.23,41,13.4,11.5,21.77,10,21.77,10s8.37,1.5,21.77-10c16-13.71,24.23-19,31.23-41,6.21-19.54,10-114,10-114Z"/><path class="e" d="M141.75,161.5S119,150.59,124.48,178.14s22,23.58,22,23.58Z"/><path class="e" d="M259.25,158.5s22.74-10.91,17.27,16.64-22,23.58-22,23.58Z"/><path class="c" d="M200,62.2c-18.12-1.46-109.36-8.93-59.63,96.3,0,0,47.09-3.59,59.63-36.23,12.54,32.64,59.63,36.23,59.63,36.23C309.36,53.27,218.12,60.74,200,62.2Z"/><path class="i" d="M200,72.2c13.83-1.12,70.26-5.73,74.08,39,4.19-55.34-59.3-50.16-74.08-49-14.78-1.2-78.27-6.38-74.08,49C129.74,66.47,186.17,71.08,200,72.2Z"/><path class="i" d="M133.31,141.83S133,85.43,198,91.72C198,91.72,141.56,105.84,133.31,141.83Z"/><path class="i" d="M266.69,141.83S267,85.43,202,91.72C202,91.72,258.44,105.84,266.69,141.83Z"/></svg>