<svg xmlns="http://www.w3.org/2000/svg" viewBox="0 0 400 400.12"><defs><style>.a{fill:#3bafda;}.b{fill:#434a54;}.c{fill:#656d78;}.d{fill:#ab7049;}.e{fill:#8c5c3c;}.f{fill:#ec87c0;}.g{fill:#ba7a50;}.h{fill:#f5f7fa;}.i{fill:#e6e9ed;}.j{fill:#ff92cf;}</style></defs><title>avatar5</title><circle class="a" cx="200" cy="200" r="200"/><path class="b" d="M284.33,155.31C300,63.49,238.33,43.82,200,43.82S100,63.49,115.67,155.31C133,257,68.69,209,68.69,209s68.9,97,131.31,30.41C262.41,306,331.31,209,331.31,209S267,257,284.33,155.31Z"/><path class="c" d="M298.06,242.86A177.64,177.64,0,0,0,331.31,209s-43.7,32.61-49.34-12.92C279,229.08,287.41,240.57,298.06,242.86Z"/><path class="c" d="M101.94,242.86c10.65-2.29,19-13.78,16.09-46.78C112.39,241.61,68.69,209,68.69,209A177.64,177.64,0,0,0,101.94,242.86Z"/><path class="c" d="M200,66.82c32.21,0,80.89,13.9,86.32,72.84,6.39-78.43-50.27-95.84-86.32-95.84s-92.71,17.41-86.32,95.84C119.11,80.72,167.79,66.82,200,66.82Z"/><path class="b" d="M316.67,312.79c-7.36-6.36-19.37-14.56-30.67-15.67-7.26-.71-86-23-86-23s-78.74,22.29-86,23c-11.3,1.11-23.32,9.31-30.67,15.67C70.1,324.23,72.48,338.24,68.69,351a200,200,0,0,0,262.62,0C327.52,338.24,329.9,324.23,316.67,312.79Z"/><path class="c" d="M172,266.62s-45.33,6.25-35.5,45.59,11.17,53.29,11.17,53.29S163,346.14,167,351.81s-9.25,21.65-9.25,21.65l23.62,24.81,1.63-37.4-8.63-80.57Z"/><path class="c" d="M228,266.62s45.33,6.25,35.5,45.59-11.17,53.29-11.17,53.29S237,346.14,233,351.81s9.25,21.65,9.25,21.65l-23.62,24.81L217,360.87l8.63-80.57Z"/><path class="d" d="M200,197l-42.25-5.5,16.31,88.73S177.72,311,200,311s25.94-30.77,25.94-30.77l16.31-88.73Z"/><path class="e" d="M234,206.5l-69.53,21.59,7.09,38.56c10.66,13.14,26.92,25.18,51,26.26a55,55,0,0,0,3.42-12.68l12.13-66C235.69,209.45,234,206.5,234,206.5Z"/><path class="f" d="M228.67,286.46s3.08-4.18,2.66-13.34c-.37-8.19-26-6.53-31.33-6.08-5.38-.45-31-2.11-31.33,6.08-.42,9.16,2.67,13.34,2.67,13.34l4.8,9.37,6.86,65-1.38,38.42q9.07.82,18.38.83t18.45-.84L217,360.87l7.34-66Z"/><path class="g" d="M200,98H137s4.79,94.46,11,114c7,22,14.24,27.29,30.23,41,13.4,11.5,21.77,10,21.77,10s8.37,1.5,21.77-10c16-13.71,24.23-19,31.23-41,6.21-19.54,10-114,10-114Z"/><path class="d" d="M141.75,158.5S119,147.59,124.48,175.14s22,23.58,22,23.58Z"/><path class="d" d="M259.25,158.5s22.74-10.91,17.27,16.64-22,23.58-22,23.58Z"/><path class="b" d="M263,159.62l-.9-3.25L248.87,164a4,4,0,0,0-3.87-3H211a4,4,0,0,0-4,4v4H193v-4a4,4,0,0,0-4-4H155a4,4,0,0,0-3.87,3l-13.23-7.67-.9,3.25,14,15.27V182a4,4,0,0,0,4,4h34a4,4,0,0,0,4-4V172h14v10a4,4,0,0,0,4,4h34a4,4,0,0,0,4-4v-7.11Z"/><rect class="h" x="154" y="164" width="36" height="19" rx="1" ry="1"/><polygon class="i" points="162.5 183 156.5 183 161.5 164 167.5 164 162.5 183"/><polygon class="i" points="171.5 183 165.5 183 170.5 164 176.5 164 171.5 183"/><rect class="h" x="210" y="164" width="36" height="19" rx="1" ry="1"/><polygon class="i" points="218.5 183 212.5 183 217.5 164 223.5 164 218.5 183"/><polygon class="i" points="227.5 183 221.5 183 226.5 164 232.5 164 227.5 183"/><path class="b" d="M200,67c-99,0-59.83,92.07-59.83,92.07C158,92.8,200,104.67,200,104.67s42-11.87,59.83,54.4C259.83,159.07,299,67,200,67Z"/><path class="f" d="M200,84.24c-39.33,0-57.43,18.94-63.5,73.59l4,1.28s11-41.53,59.5-42.1c48.48.57,59.5,42.1,59.5,42.1l4-1.28C257.43,103.18,239.33,84.24,200,84.24Z"/><path class="j" d="M200,90.24c37.91,0,56.09,17.61,62.79,67.82l.71-.23c-6.07-54.65-24.17-73.59-63.5-73.59s-57.43,18.94-63.5,73.59l.71.23C143.91,107.85,162.09,90.24,200,90.24Z"/></svg>