<svg xmlns="http://www.w3.org/2000/svg" viewBox="0 0 400 400"><defs><style>.a{fill:#8cc152;}.b{fill:#f6bb42;}.c{fill:#da4453;}.d{fill:#f9e0a8;}.e{fill:#d9c392;}.f{fill:#ffd56b;}.g{fill:#ffe9ba;}.h{fill:#f5f7fa;}.i{fill:#ffce54;}</style></defs><title>avatar3</title><circle class="a" cx="200" cy="200" r="200"/><path class="b" d="M147.74,276.65S155,227.33,207,229.33s47.26,47.32,47.26,47.32L287,129.33l-97-26.66L114,148.5Z"/><path class="c" d="M211.5,344c-31-60.62-38-59.87-37.65-62.67l-.18.05-.11,0-.75.21-1,.27-.13,0-.81.23-.64.17-1.6.45L168,283l-1.41.39-.83.23-1.63.45-.72.2-.38.1-.07,0-1.43.4-1,.26-1.29.36-.93.25L157,286l-.88.24-2,.54-.22.06-2.18.59-.73.2-1.44.39-.1,0-.82.23-1.25.33-.92.25-1.52.42c-15.17,4.09-28.26,7.48-31,7.75-11.3,1.11-23.32,9.31-30.67,15.67-13.23,11.44-10.85,25.45-14.64,38.18a200,200,0,0,0,262.62,0c-3.79-12.73-1.41-26.74-14.64-38.18C309.31,306.31,297.3,298.11,286,297c-2.68-.26-15.1-3.46-29.7-7.4l-2.13-.57,0,0-2.65-.72c-8.92-2.42-18.33-5-26.62-7.32l-.54-.15-1.39-.39Z"/><path class="d" d="M225.92,281.26l-.29-.08c.23-1.22.31-1.95.31-1.95l16.31-88.73L200,196l-42.25-5.5,16.31,88.73s.08.73.31,1.95l-.29.08-.23.07c-.39,2.8-4.81,46.72,26.15,107.34,31-60.62,26.54-104.54,26.15-107.34Z"/><path class="e" d="M234,205.5l-69.53,21.59,7.09,38.56c10.66,13.14,26.92,25.18,51,26.26a55,55,0,0,0,3.42-12.68l12.13-66C235.69,208.45,234,205.5,234,205.5Z"/><path class="f" d="M142.66,269.48c2.54,4.6,4.08,7.17,4.08,7.17a483.05,483.05,0,0,1-7.76-71C138.34,226.57,140,248.73,142.66,269.48Z"/><path class="g" d="M200,98H137s4.79,94.46,11,114c7,22,14.24,27.29,30.23,41,13.4,11.5,21.77,10,21.77,10s8.37,1.5,21.77-10c16-13.71,24.23-19,31.23-41,6.21-19.54,10-114,10-114Z"/><path class="d" d="M141.75,158.5S119,147.59,124.48,175.14s22,23.58,22,23.58Z"/><path class="d" d="M259.25,158.5s22.74-10.91,17.27,16.64-22,23.58-22,23.58Z"/><path class="f" d="M262.25,220.44c-1.3,16.3-5.24,35.54-9,56.21,0,0,2-3.28,5.12-9.06C261.53,249.5,263.64,233.35,262.25,220.44Z"/><path class="h" d="M227.38,276.65a4.21,4.21,0,0,0-4.21,4.21,4.41,4.41,0,0,0,.1.89,3.74,3.74,0,0,0-.89-.1,4.21,4.21,0,0,0-4.21,4.19,4.21,4.21,0,0,0-3,4c0,.07,0,.14,0,.21a4.19,4.19,0,0,0-6,3.79c0,.07,0,.14,0,.21A4.17,4.17,0,0,0,204,295.4a5.38,5.38,0,0,0-7.94,0,4.17,4.17,0,0,0-5.22-1.33c0-.07,0-.14,0-.21a4.19,4.19,0,0,0-6-3.79c0-.07,0-.14,0-.21a4.21,4.21,0,0,0-3-4,4.21,4.21,0,0,0-4.21-4.19,3.74,3.74,0,0,0-.89.1,4.41,4.41,0,0,0,.1-.89,4.21,4.21,0,1,0-4.21,4.2,4.41,4.41,0,0,0,.89-.09,4.26,4.26,0,0,0-.1.89,4.19,4.19,0,0,0,3,4,4.19,4.19,0,0,0,6,3.77c0,.07,0,.14,0,.22a4.19,4.19,0,0,0,6,3.78c0,.07,0,.14,0,.22a4.2,4.2,0,0,0,6.39,3.58,5.46,5.46,0,0,0,10.4,0,4.2,4.2,0,0,0,6.39-3.58c0-.08,0-.15,0-.22a4.19,4.19,0,0,0,6-3.78c0-.08,0-.15,0-.22a4.19,4.19,0,0,0,6-3.77,4.19,4.19,0,0,0,3-4,4.26,4.26,0,0,0-.1-.89,4.41,4.41,0,0,0,.89.09,4.21,4.21,0,1,0,0-8.41Z"/><path class="c" d="M242.52,167.27l-11.41,3.37-16.67,4.94c-3.59,1.06-7.34,2.31-7.81,6.42H193.37c-.47-4.11-4.22-5.36-7.81-6.42l-16.67-4.94-11.41-3.37c-6.28-1.87-8.82,2.25-5.41,7.45l7.65,10.55c2.63,3.62,5.06,8,8.8,10.59,4.86,3.35,10.32.85,14.35-2.32,2.38-1.87,8-5,9.89-8.54h14.48c1.92,3.51,7.51,6.67,9.89,8.54,4,3.17,9.49,5.67,14.35,2.32,3.74-2.58,6.17-7,8.8-10.59l7.65-10.55C251.34,169.52,248.8,165.4,242.52,167.27ZM187.77,185.9l-8.05,6.33c-4.8,3.77-9.86,1.93-13.12-2.56l-11.94-16.46c-3.23-4.93,3.22-2.7,5.42-2l11.77,3.48,11.76,3.48C186.67,179,192.93,181.84,187.77,185.9Zm57.57-12.69L233.4,189.67c-3.26,4.49-8.32,6.33-13.12,2.56l-8.05-6.33c-5.16-4.06,1.1-6.86,4.16-7.77l11.76-3.48,11.77-3.48C242.12,170.51,248.57,168.28,245.34,173.21Z"/><path class="i" d="M200,37.33c-197,0-53.26,239.32-53.26,239.32C137,222.94,132,148.5,157.75,114c4.25,47,71.8,49.66,90.58,61.5,23,14.5,13.47,54.11,4.93,101.15C253.26,276.65,397,37.33,200,37.33Z"/><path class="f" d="M200,56.33c74.79,0,100.46,34.49,103.54,77.29C306.86,82.52,285.6,37.33,200,37.33S93.14,82.52,96.46,133.62C99.54,90.82,125.21,56.33,200,56.33Z"/></svg>