<svg xmlns="http://www.w3.org/2000/svg" viewBox="0 0 400 401.12"><defs><style>.a{fill:#967adc;}.b{fill:#f6bb42;}.c{fill:#f9e0a8;}.d{fill:#d9c392;}.e{fill:#f5f7fa;}.f{fill:#48cfad;}.g{fill:#52edc6;}.h{fill:#39a68a;}.i{fill:#40b899;}.j{fill:#ffe9ba;}.k{fill:#ffce54;}.l{fill:#ffd56b;}</style></defs><title>avatar2</title><circle class="a" cx="200" cy="200" r="200"/><path class="b" d="M303.33,265.76c1.34-30.33-26.46-51.33-26.46-51.33L201.5,227.76,202,234h-3.9l.45-6.24-75.37-13.33s-27.8,21-26.46,51.33-32,22.67-32,22.67,9.33,19,33.33,7.66c0,0-14.33,13,5.67,31.34s87.66,0,87.66,0L194.74,280h10.52l3.41,47.43s67.66,18.33,87.66,0S302,296.09,302,296.09c24,11.34,33.33-7.66,33.33-7.66S302,296.09,303.33,265.76Z"/><path class="c" d="M316.67,313.79c-7.36-6.36-19.37-14.56-30.67-15.67-4.51-.44-36.69-9.23-60.37-15.82.23-1.22.31-1.94.31-1.94l16.31-88.74L200,197.12l-42.25-5.5,16.31,88.74s.08.72.31,1.94c-23.68,6.59-55.86,15.38-60.37,15.82-11.3,1.11-23.32,9.31-30.67,15.67C70.1,325.23,72.48,339.24,68.69,352a200,200,0,0,0,262.62,0C327.52,339.24,329.9,325.23,316.67,313.79Z"/><path class="d" d="M234,206.62l-69.53,21.59,7.09,38.56c10.66,13.14,26.92,25.19,51,26.26a55,55,0,0,0,3.42-12.67l12.13-66C235.69,209.57,234,206.62,234,206.62Z"/><path class="e" d="M274.64,295.55l-5.29-1.36c-1.7,22.32-7.47,66.48-26.3,61.1-22.54-6.44-40,21.79-43.31,25.37-3.21-3.58-20.22-31.81-42.77-25.37-18.85,5.39-24.45-38.87-26.07-61.17-1.74.46-3.41.89-5,1.28l.46,63.39a143,143,0,0,1-16.24,21A200.24,200.24,0,0,0,290,379.75a140.45,140.45,0,0,1-15.83-21Z"/><path class="e" d="M200,344.38c-32.2,0-45-57.69-45.16-58.27l1-.21c.13.57,12.79,57.48,44.18,57.48s44.05-56.91,44.18-57.48l1,.21C245,286.69,232.2,344.38,200,344.38Z"/><rect class="e" x="194" y="345.5" width="12" height="12" rx="2" ry="2" transform="translate(-189.97 244.37) rotate(-45)"/><polygon class="f" points="205.66 351 200 345.84 200 351 205.66 351"/><polygon class="g" points="200 345.84 194.34 351 200 351 200 345.84"/><polygon class="h" points="200 351 200 356.16 205.66 351 200 351"/><polygon class="i" points="194.34 351 200 356.16 200 351 194.34 351"/><path class="j" d="M200,98H137s4.79,94.46,11,114c7,22,14.24,27.29,30.23,41,13.4,11.5,21.77,10,21.77,10s8.37,1.5,21.77-10c16-13.71,24.23-19,31.23-41,6.21-19.54,10-114,10-114Z"/><path class="c" d="M141.75,158.5S119,147.59,124.48,175.14s22,23.58,22,23.58Z"/><path class="c" d="M259.25,158.5s22.74-10.91,17.27,16.64-22,23.58-22,23.58Z"/><path class="k" d="M305.92,180.53C303.92,141.67,319,41.33,200,41.33S96.08,141.67,94.08,180.53,69,219.33,69,219.33c17,10,31.66-20.41,31.66-20.41-25.33,54.58,40.66,65.75,40.66,65.75-35.34,18.66-10.69,56,0,76.66S138.44,373,138.44,373c26.22-5.78-7.56-67,12.77-73.67s8.54-159,16.54-181S200,112,200,112s24.25-15.67,32.25,6.33-3.79,174.34,16.54,181S235.34,367.22,261.56,373c0,0-13.53-11-2.86-31.67s35.32-58,0-76.66c0,0,66-11.17,40.66-65.75,0,0,14.66,30.41,31.66,20.41C331,219.33,307.92,219.4,305.92,180.53Z"/><path class="b" d="M200,54.33s-96-18.66-99.34,144.59C100.66,198.92,94.83,30,200,54.33Z"/><path class="b" d="M139.91,265.44s16-3.11,10.39-31.44c0,0-8.3,29.79-21.63,29.06S139.91,265.44,139.91,265.44Z"/><path class="b" d="M200,54.33s96-18.66,99.34,144.59C299.34,198.92,305.17,30,200,54.33Z"/><path class="b" d="M260.09,265.44s-16-3.11-10.39-31.44c0,0,8.3,29.79,21.63,29.06S260.09,265.44,260.09,265.44Z"/><path class="l" d="M199.5,89.67s-62.5-23-60.5,57.66-22,148-74.33,120.34c0,0,57.16,11.26,61.66-116.34C130,47.33,199.5,89.67,199.5,89.67Z"/><path class="l" d="M161.88,265.44s-37.55.19-25.38,47.23C136.5,312.67,135.09,280.88,161.88,265.44Z"/><path class="l" d="M200.5,89.67s62.5-23,60.5,57.66,22,148,74.33,120.34c0,0-57.16,11.26-61.66-116.34C270,47.33,200.5,89.67,200.5,89.67Z"/><path class="l" d="M238.12,265.44s37.55.19,25.38,47.23C263.5,312.67,264.91,280.88,238.12,265.44Z"/></svg>