<svg xmlns="http://www.w3.org/2000/svg" viewBox="0 0 400 401"><defs><style>.a{fill:#f6bb42;}.b{fill:#ffe9ba;}.c{fill:#656d78;}.d{fill:#f5f7fa;}.e{fill:#434a54;}.f{fill:#f9e0a8;}.g{fill:#d9c392;}.h{fill:#fff;}.i{fill:#2d3138;}.j{fill:#da4453;}.k{fill:#a6343f;}</style></defs><title>avatar13 (2)</title><circle class="a" cx="200" cy="200" r="200"/><path class="b" d="M316.67,313.67C309.31,307.31,297.3,299.11,286,298c-2.68-.26-15.1-3.46-29.7-7.4l-2.13-.57,0,0-2.65-.72c-8.92-2.42-18.33-5-26.62-7.32l-.54-.15-1.39-.39-.65-.18-1.22-.34-.7-.2-1-.29-2.05-.57-.37-.11-.66-.18-1.15-.32-12.42-3.49h-.05l-1.08-.31-.3-.08-.75-.22L200,275l-.6.17-.09,0-.26.07-.27.08-.44.12-.81.23-.4.11-.2.06-1.35.38-.35.1h0l-1.07.31-.42.12-.44.12-.14,0-.09,0-.89.25-.05,0-.13,0-.32.09-.54.15-3.13.88-.49.14-1.16.33-.24.06-1.18.33-.69.2-1,.28-.59.17-1.77.49-1.15.32-.66.19-1.25.34-.83.24-1.19.33-.85.23-.83.23-.41.12-.11,0-.75.21-1,.27-.13,0-.81.23-.64.17-1.6.45L168,284l-1.41.39-.83.23-1.63.45-.72.2-.38.1-.07,0-1.43.4-1,.26-1.29.36-.93.25L157,287l-.88.24-2,.54-.22.06-2.18.59-.73.2-1.44.39-.1,0-.82.23-1.25.33-.92.25-1.52.42c-15.17,4.09-28.26,7.48-31,7.75-11.3,1.11-23.32,9.31-30.67,15.67-13.23,11.44-10.85,15.45-14.64,28.18a200,200,0,0,0,262.62,0C327.52,329.12,329.9,325.11,316.67,313.67Z"/><path class="c" d="M140.45,290.05,128.67,369s14.33-6.67,15.66-11.67-3.88-6-3.88-6a11.1,11.1,0,0,0,4.1-7.33c.45-4.67-5.34-6-5.34-6a20.11,20.11,0,0,0,5.37-11.06c.75-6.61-5.37-1.61-5.37-1.61s5.41-6.66,5.43-11.66-5.43,0-5.43,0,5.41-6.34,5.43-9.67-4.19-1-4.19-1S155.33,280.23,140.45,290.05Z"/><path class="c" d="M130.75,293s-8.46-3.6-9.27,0,4.64,10.33,4.64,10.33A4.09,4.09,0,0,0,121.4,307a7.16,7.16,0,0,0,2.23,6.67s-7.3.62-6.3,5.14,6.26,4.52,6.26,4.52-9.61.64-7.43,6.32,5.3,5.35,5.3,5.35-7.12.33-5.62,6,5.64,7.33,5.64,7.33-8.81-6.66-9.15,3S119.5,375,119.5,375Z"/><path class="c" d="M259.55,290.05,271.33,369s-14.33-6.67-15.66-11.67,3.88-6,3.88-6a11.1,11.1,0,0,1-4.1-7.33c-.45-4.67,5.34-6,5.34-6a20.11,20.11,0,0,1-5.37-11.06c-.75-6.61,5.37-1.61,5.37-1.61s-5.41-6.66-5.43-11.66,5.43,0,5.43,0-5.41-6.34-5.43-9.67,4.19-1,4.19-1S244.67,280.23,259.55,290.05Z"/><path class="c" d="M269.25,293s8.46-3.6,9.27,0-4.64,10.33-4.64,10.33A4.09,4.09,0,0,1,278.6,307a7.16,7.16,0,0,1-2.23,6.67s7.3.62,6.3,5.14-6.26,4.52-6.26,4.52,9.61.64,7.43,6.32-5.3,5.35-5.3,5.35,7.12.33,5.62,6-5.64,7.33-5.64,7.33,8.81-6.66,9.15,3S280.5,375,280.5,375Z"/><path class="d" d="M83.33,313.67s-10.67-31,0-28.67S97,317,97,317s-3.67-27.84,6-24.09S109,317,109,317s1.33-8.33,8.67-6,1.83,58,1.83,58L87.33,341Z"/><path class="d" d="M316.67,313.67s10.67-31,0-28.67S303,317,303,317s3.67-27.84-6-24.09S291,317,291,317s-1.33-8.33-8.67-6-1.83,58-1.83,58l32.17-28Z"/><path class="e" d="M130.75,293,119.5,369s12.72-1.91,13-2,7.95-76.95,7.95-76.95Z"/><path class="e" d="M269.25,293l11.25,76s-12.72-1.91-13-2-7.95-76.95-7.95-76.95Z"/><path class="f" d="M200,197l-42.25-5.5,16.31,88.73S177.72,311,200,311s25.94-30.77,25.94-30.77l16.31-88.73Z"/><path class="g" d="M234,206.5l-69.53,21.59,7.09,38.56c10.66,13.14,26.92,25.18,51,26.26a55,55,0,0,0,3.42-12.68l12.13-66C235.69,209.45,234,206.5,234,206.5Z"/><path class="g" d="M225.81,281.11a2.71,2.71,0,0,1-.06.38A3,3,0,0,0,225.81,281.11Z"/><path class="g" d="M225.89,280.63a3.35,3.35,0,0,1-.06.36C225.86,280.85,225.87,280.73,225.89,280.63Z"/><path class="g" d="M225.94,280.23a.51.51,0,0,1,0,.09A.51.51,0,0,0,225.94,280.23Z"/><path class="g" d="M225.93,280.34c0,.06,0,.14,0,.25C225.91,280.48,225.92,280.4,225.93,280.34Z"/><path class="d" d="M235.53,321c9.52-7.67-9-34.25-9-34.25L226,275h-.1l1.56-3c.25-1.43,14.79-22.33,14.79-22.33s-10-1.38-14.79,7.29c0,0-9.46-.2-14.13,7.06L202.64,275h-5.28l-10.69-10.94C182,256.8,172.54,257,172.54,257c-4.79-8.67-14.79-7.29-14.79-7.29s14.54,20.9,14.79,22.33l1.56,3H174l-.5,11.75s-18.55,26.58-9,34.25c0,0-25.3,27.33-6.72,45,6,5.74,11.55,7.11,16.25,6.36V388h52V372.36c4.7.75,10.21-.62,16.25-6.36C260.83,348.33,235.53,321,235.53,321Z"/><rect class="h" x="189" y="285" width="5" height="100"/><rect class="h" x="207" y="285" width="4" height="100"/><path class="e" d="M227.46,272s-7.71,4-27.46,4-27.46-4-27.46-4a8.94,8.94,0,0,0-3.88,11.73C175.07,290,200,293,200,293s24.93-3,31.34-9.23A8.94,8.94,0,0,0,227.46,272Z"/><path class="e" d="M316.67,313.67S281,333,280.5,369c0,0-43-26-80.5,8.5-37.5-34.5-80.5-8.5-80.5-8.5-.5-36-36.17-55.33-36.17-55.33-17.27,2.53-29,8.19-36.85,15.51a200,200,0,0,0,307,0C345.7,321.86,333.94,316.2,316.67,313.67Z"/><path class="e" d="M316.67,313.67S281,333,280.5,369c0,0-43-26-80.5,8.5-37.5-34.5-80.5-8.5-80.5-8.5-.5-36-36.17-55.33-36.17-55.33-17.27,2.53-29,8.19-36.85,15.51a200,200,0,0,0,307,0C345.7,321.86,333.94,316.2,316.67,313.67Z"/><path class="i" d="M83.33,328.67S119,348,119.5,384c0,0,43-26,80.5,8.5,37.5-34.5,80.5-8.5,80.5-8.5.5-36,36.17-55.33,36.17-55.33,12.18,1.78,21.6,5.12,28.84,9.5q4.14-4.38,8-9c-7.82-7.32-19.58-13-36.85-15.51,0,0-35.67,19.33-36.17,55.33,0,0-43-26-80.5,8.5-37.5-34.5-80.5-8.5-80.5-8.5-.5-36-36.17-55.33-36.17-55.33-17.27,2.53-29,8.19-36.85,15.51q3.87,4.62,8,9C61.73,333.79,71.15,330.45,83.33,328.67Z"/><path class="i" d="M231.66,359.3c-4.23-5.21-9.7-8.62-11.66-15.41-1.1-3.81-.48-7.89.47-11.65.69-2.72,2.24-5.21,2.46-8.05.72-9.2-5.09-18.56-9.77-26-1.9-3-3.93-6-6.06-9,11.38,7.07,28.87,14.94,30.53-.23,1.41-12.86-29.13-9.12-37.33-8a1,1,0,0,0-.3,0,1.17,1.17,0,0,0-.32,0,118.32,118.32,0,0,0-20.17-1c-5.73.23-17.22,1-17.14,9,.1,10.28,12.22,9,18.63,6.54a66.3,66.3,0,0,0,11.72-6q-2.76,3.83-5.31,7.77c-4.89,7.54-10.59,16.86-10.4,26.19a16,16,0,0,0,1.46,5.57,26.24,26.24,0,0,1,1.8,13.64c-1.08,7.09-6.86,10.69-11.17,15.7-6.29,7.32-13.9,20.73-8.65,30.4.93,1.7,3.52.18,2.6-1.52-5.58-10.27,5.69-25.14,13-31.54a22.32,22.32,0,0,0,7.32-13.5c.93-6.11-1.46-11.28-3.1-17-2.44-8.49,5.47-19.75,9.74-26.44a149.71,149.71,0,0,1,10-13.88,157.85,157.85,0,0,1,9.42,13c4.76,7.23,11.75,17.49,10.47,26.63-.41,2.88-2,5.64-2.7,8.47a26.41,26.41,0,0,0-.6,8.81c.44,5,3,9.41,6.44,13,4.27,4.52,8.19,8.38,11.23,13.95,2.83,5.21,5.78,12.8,2.69,18.48-.92,1.7,1.67,3.22,2.6,1.52C244.64,379.39,237.58,366.6,231.66,359.3Zm2.88-71.46c1.23,3.73-3.07,6.56-6.16,6.73-4.29.25-8.8-1.89-12.53-3.74a88.82,88.82,0,0,1-12-7.27c3.63-.35,7.88-.6,11.42-.66C219.92,282.81,232.62,282,234.54,287.84Zm-62.18,6.73c-3.66.21-7.76-2.63-6.9-6.73,1.22-5.79,15.16-5,19.24-4.94,3.53,0,7.78.29,11.41.66a100.08,100.08,0,0,1-12,7.27C180.51,292.7,176.5,294.34,172.36,294.57Z"/><path class="b" d="M200,98H137s4.79,94.46,11,114c7,22,14.24,27.29,30.23,41,13.4,11.5,21.77,10,21.77,10s8.37,1.5,21.77-10c16-13.71,24.23-19,31.23-41,6.21-19.54,10-114,10-114Z"/><path class="f" d="M141.75,158.5S119,147.59,124.48,175.14s22,23.58,22,23.58Z"/><path class="f" d="M259.25,158.5s22.74-10.91,17.27,16.64-22,23.58-22,23.58Z"/><path class="e" d="M152.47,69s-39-38.5-72,12,67.5,157.5,12,143c0,0,32.5,25.5,37.5-33.5s43.5-64,43.5-64Z"/><path class="i" d="M140.4,114.54l-.39-2.12-2.13.14a52,52,0,0,0-8.18,1.18c-.59.13-1.17.29-1.75.45l-.22-.35c-.26-.38-.51-.8-.77-1.16l-.75-1.05-.4-.57-.33-.49-.67-1a18,18,0,0,1-1.92-4.11,11.17,11.17,0,0,1,.68-8.34,20.89,20.89,0,0,1,6-7,35.09,35.09,0,0,1,4-2.72,37.89,37.89,0,0,1,4.29-2.2l3.78-1.6-3.12-2.56a27.66,27.66,0,0,0-2.74-2,27.26,27.26,0,0,0-2.9-1.62,17.9,17.9,0,0,0-6.78-1.89,11,11,0,0,0-3.86.48,10.35,10.35,0,0,0-3.5,1.94l-.72.66-.64.71a8.25,8.25,0,0,0-.61.79c-.19.27-.41.57-.52.76l-.39.66-.14.25-.09.17-.19.34-.72,1.35c-1,1.78-1.9,3.57-2.88,5.24a17.11,17.11,0,0,1-3.17,4.22,8.64,8.64,0,0,1-4.31,2,11.35,11.35,0,0,1-1.3.21,13.38,13.38,0,0,1-1.42.14c-.55,0-.92.07-1.66.16a10,10,0,0,0-2,.48A11.61,11.61,0,0,0,92.34,101a19.36,19.36,0,0,0-2.46,6.45,22.89,22.89,0,0,0,1.26,13.29,16.28,16.28,0,0,0,1.69,3,15.82,15.82,0,0,0,2.45,2.73l2.23,1.82c.33.29.6.63.9.94.15.16.31.31.44.48l.37.53a9.27,9.27,0,0,1,1.32,9.34,8.13,8.13,0,0,1-4.42,4c-.2.09-.39.19-.59.26l-.59.15c-.41.1-.75.24-1.23.32l-1.51.17-.64.08-.87.08A17.2,17.2,0,0,0,89,145a13.62,13.62,0,0,0-3.26,1.27,14.26,14.26,0,0,0-5,4.64,19.3,19.3,0,0,0-2.86,12.71,21.83,21.83,0,0,0,5.1,11.74c.37.4.71.81,1.1,1.2s.79.78,1.18,1.11l1.19,1c.35.31.72.6,1,.92a14.19,14.19,0,0,1,3.17,4.64,20.83,20.83,0,0,1,1.11,11.44,25,25,0,0,1-4.51,10.87,14,14,0,0,1-4.39,4,8.29,8.29,0,0,1-5.8,1,8.54,8.54,0,0,0,6-.61,14.55,14.55,0,0,0,4.82-3.82A26.06,26.06,0,0,0,93.15,196a27,27,0,0,0,.47-3,23,23,0,0,0,2.83,6,23.62,23.62,0,0,1-2.56-7.33c-.07-.4-.12-.8-.17-1.21a22.37,22.37,0,0,0-.14-2.31,9.36,9.36,0,0,1,.78-3.89,4.48,4.48,0,0,1,2.4-2.34,6.34,6.34,0,0,1,1.68-.4,6.64,6.64,0,0,1,.89-.05c.44,0,.69,0,1-.06l1-.07,1.1-.27.56-.14c.17-.06.33-.15.5-.23l1-.47a8.34,8.34,0,0,0,3-3.26,11,11,0,0,0,.27-8.59c-.19-.49-.41-1-.64-1.44l1.6,1.64c.59.6,1.18,1.21,1.76,1.82a9.81,9.81,0,0,0,.11,1.42,8,8,0,0,0,1.14,3,8.12,8.12,0,0,0,2.23,2.36,10.2,10.2,0,0,0,1.33.8l1.19.52h0a5.52,5.52,0,0,1,.41,1.85,4,4,0,0,1-2,3.39,28.17,28.17,0,0,1-4.5,2.2,23.92,23.92,0,0,0-8.28,6.7A19.3,19.3,0,0,0,98,202.25a11.88,11.88,0,0,0,.6,5.23,10.6,10.6,0,0,0,3,4.26,10.35,10.35,0,0,1-2.62-4.37,11.26,11.26,0,0,1-.24-5,18.44,18.44,0,0,1,4.51-8.9,23.17,23.17,0,0,1,8-5.86,29.09,29.09,0,0,0,4.89-2.16,7.16,7.16,0,0,0,2.2-2,5.56,5.56,0,0,0,.94-2.59,15.45,15.45,0,0,1,2.38,6.4,22.38,22.38,0,0,1,.25,4.55A13,13,0,0,1,121,196a3.21,3.21,0,0,1-.91,1.3c-.15.07-.25.16-.4.15-.36,0-.79,0-1.22,0a5.92,5.92,0,0,0-3.14,1.12,4.48,4.48,0,0,0-1.64,3,8.79,8.79,0,0,0,1.53,5.47,23.92,23.92,0,0,0,3.23,4.06l1.78,1.74a20.9,20.9,0,0,1,1.67,1.75,27.07,27.07,0,0,1,2.78,3.86,23.07,23.07,0,0,1,2,4.36,21.43,21.43,0,0,1,.61,2.32,16,16,0,0,1,.23,2.39,10.35,10.35,0,0,1-.81,4.69,9,9,0,0,1-3,3.75,9.33,9.33,0,0,0,3.41-3.56,11,11,0,0,0,1.27-4.87,16.59,16.59,0,0,0-.08-2.54,19.31,19.31,0,0,0-.47-2.5,24.17,24.17,0,0,0-1.75-4.77,26.06,26.06,0,0,0-2.73-4.31,21.21,21.21,0,0,0-1.63-1.93L120,209.7a21.89,21.89,0,0,1-2.71-3.81,6.6,6.6,0,0,1-1-3.9,1.66,1.66,0,0,1,.69-1.19,3.42,3.42,0,0,1,1.47-.45c.39,0,.78,0,1.25,0a3.7,3.7,0,0,0,1.94-.54,6,6,0,0,0,2.13-2.51,15.87,15.87,0,0,0,1.38-5.32,24.08,24.08,0,0,0-.09-5.3,21.55,21.55,0,0,0-1.29-5.22,13.59,13.59,0,0,0-3.07-4.8,9.65,9.65,0,0,0-1.18-1,11.09,11.09,0,0,0-1.33-.78l-1-.46a34.75,34.75,0,0,0-2.48-3.45,9.49,9.49,0,0,1,2.88-7,9.85,9.85,0,0,1,1.54-1.29c.27-.17.54-.33.82-.48a6.84,6.84,0,0,1,.78-.32,3.84,3.84,0,0,1,.5-.14l.15.11,0,.14h0l.31-.21,1.23-.33c.82-.18,1.65-.41,2.5-.63a21.83,21.83,0,0,0,2.63-.87,8.5,8.5,0,0,0,2.88-1.79,4.68,4.68,0,0,0,1.22-2.07,4.8,4.8,0,0,0,0-2.44,8.25,8.25,0,0,0-1.67-3,32.3,32.3,0,0,0-3.78-3.59,4.56,4.56,0,0,1-1.6-2.65,2.07,2.07,0,0,1,.26-1.11,4.9,4.9,0,0,1,1-1.24,11.15,11.15,0,0,1,3.46-2,15,15,0,0,1,4.1-1l.48,0h.56c.36,0,.73-.06,1.09-.11a8.77,8.77,0,0,0,1.1-.35,6.16,6.16,0,0,0,2.9-2.85,15.28,15.28,0,0,0,1.42-5.72,42.08,42.08,0,0,0,0-5.26A76.84,76.84,0,0,0,140.4,114.54Zm-12.81,10.34a8.19,8.19,0,0,1-2.65,7.52c-.25.23-.51.45-.79.67a16.12,16.12,0,0,0-.87-8.11l-.11-.27,0-.06v0a1.12,1.12,0,0,0,0,.11l0-.12-.16-.46-.08-.23c0-.08,0-.08,0-.13l0-.2a3.64,3.64,0,0,1,0-.48,2.15,2.15,0,0,1,.09-.44,3.46,3.46,0,0,1,1.47-1.73A10.17,10.17,0,0,1,126,120,16.72,16.72,0,0,1,127.59,124.88Zm-27.09.29-1.31-1.11-1.13-1a11.24,11.24,0,0,1-1.56-1.84A12,12,0,0,1,95.29,119a18.32,18.32,0,0,1-.81-10.58,14.69,14.69,0,0,1,1.9-4.83,6.81,6.81,0,0,1,3.33-2.89,2.26,2.26,0,0,1,.49-.14,2.77,2.77,0,0,1,.5-.1l1.37-.11c.5,0,1-.07,1.59-.15s1.15-.14,1.71-.27a14.1,14.1,0,0,0,1.71-.41c.28-.09.57-.17.85-.27l.86-.36a12.71,12.71,0,0,0,1.67-.88,14,14,0,0,0,1.5-1.13,22,22,0,0,0,4.18-5.4c1.08-1.82,2-3.62,3-5.4l.73-1.33.31-.56.39-.65a3.26,3.26,0,0,1,.34-.49,3.12,3.12,0,0,1,.33-.41l.37-.42.41-.36a5.51,5.51,0,0,1,3.92-1.24,14.71,14.71,0,0,1,6.2,2.06l-1,.58a41.59,41.59,0,0,0-4.55,3.11A25.65,25.65,0,0,0,119.23,95a15.73,15.73,0,0,0-.86,11.84,22.21,22.21,0,0,0,2.53,5.23l.81,1.16.77,1.06.77,1c.11.16.22.31.31.46a14.84,14.84,0,0,0-2,1.19,10.14,10.14,0,0,0-1.89,1.78,7.12,7.12,0,0,0-1.56,4.08,9.09,9.09,0,0,0,.11,1.47c.05.26.11.51.17.76a3.19,3.19,0,0,0,.1.35l.08.23.39,1a11.6,11.6,0,0,1,.62,6.44,13.26,13.26,0,0,1-.78,2.75c-.7.24-1.41.46-2.13.64l-.25.07-.15,0-.31.09a2.82,2.82,0,0,0-.37.13l-.42.17a5.72,5.72,0,0,0-.74.35,4.8,4.8,0,0,0-.67.37,15.92,15.92,0,0,0-2.36,1.69,25.61,25.61,0,0,0-3.26,3.33,9.72,9.72,0,0,0-4.11.32,11.92,11.92,0,0,0-1.19.41,11.55,11.55,0,0,0,1.34-2.06,12.34,12.34,0,0,0,1.15-7.1,14.78,14.78,0,0,0-.34-1.76l-.55-1.69a16.41,16.41,0,0,0-1.71-3.07l-.5-.73c-.18-.22-.38-.43-.57-.65C101.29,126,100.92,125.56,100.5,125.17Zm2.12,34.11a12.66,12.66,0,0,0,.85,2.68l-.6-.54-1.61-1.27c-.25-.19-.54-.4-.76-.59l-.56-.53a6.35,6.35,0,0,1-1.57-2.66,6.87,6.87,0,0,1,1.41-5.87,9.89,9.89,0,0,1,5.3-3.67l.3-.06a23.6,23.6,0,0,0-2.64,6.71A15.26,15.26,0,0,0,102.62,159.28Zm2.95,16.65a6.31,6.31,0,0,1-2.1,2.54l-.75.41c-.13.06-.25.14-.38.19l-.39.12-.79.27-1,.13-.92.11a7.82,7.82,0,0,0-1.06.12,7.39,7.39,0,0,0-2.08.65,5.93,5.93,0,0,0-2.9,3.21,7.06,7.06,0,0,0-.33,1c-.13-.42-.25-.84-.41-1.25a16.39,16.39,0,0,0-3.4-5.5c-.38-.4-.79-.76-1.19-1.13l-1.1-1c-.36-.35-.65-.68-1-1s-.61-.73-.92-1.09a19,19,0,0,1-4.1-10.38,16.13,16.13,0,0,1,2.7-10.47,10.7,10.7,0,0,1,3.89-3.42,10.21,10.21,0,0,1,2.41-.87c.43,0,.84-.17,1.28-.18l1.52-.12,1.51-.14c.53-.06,1.16-.24,1.74-.36l.88-.21.82-.32.26-.11a13.27,13.27,0,0,0-1,1.24A11.44,11.44,0,0,0,95,152.59a8.87,8.87,0,0,0,.21,4.76,9.35,9.35,0,0,0,2.55,3.93c.28.27.6.52.9.77s.54.39.82.58l1.53,1.1a14.07,14.07,0,0,1,4.38,5.52A8.81,8.81,0,0,1,105.57,175.93Zm21.34-22.27a3.89,3.89,0,0,1,.78,1.2v0h0a4.26,4.26,0,0,1-1.3.77,16.68,16.68,0,0,1-2.07.71c-.73.21-1.5.4-2.29.58l-1.18.28-.3.06-.4.11a4.82,4.82,0,0,0-.68.21,12.4,12.4,0,0,0-5,3.34,15.37,15.37,0,0,0-3.07,4.84c-.12.31-.22.62-.32.94-.07-.07-.13-.15-.19-.22l-1.76-1.92-.87-1c-.3-.32-.49-.59-.74-.88a8.94,8.94,0,0,1-1.68-4,12.12,12.12,0,0,1,.26-4.51,20.92,20.92,0,0,1,3.37-7.09l.77.1a10,10,0,0,0,2.51-.17,13.34,13.34,0,0,0,7.59-5.09,19,19,0,0,0,2-3.07c.21-.08.41-.16.62-.26a.2.2,0,0,0,.08,0,9.39,9.39,0,0,0-1.85,2.46,6.93,6.93,0,0,0-.77,3.66,7.62,7.62,0,0,0,1.14,3.39,12.17,12.17,0,0,0,2,2.39A31.06,31.06,0,0,1,126.91,153.66Zm9.71-24.13a11.79,11.79,0,0,1-.86,3.83,1.47,1.47,0,0,1-.49.62.09.09,0,0,0-.08,0,.2.2,0,0,0-.13,0l-.68,0-.75.06a20.15,20.15,0,0,0-5.48,1.32l-.46.2.12-.1A12.46,12.46,0,0,0,132,124.33a19.8,19.8,0,0,0-1.58-5.59,1.3,1.3,0,0,0-.08-.17l.47-.11a44.36,44.36,0,0,1,5.18-.83,72,72,0,0,1,.73,7.29A35.25,35.25,0,0,1,136.62,129.53Z"/><path class="j" d="M133.21,49.67S86.67,74.43,75,65.55c0,0,.13,22.91,24.4,12.68,0,0-26.73,24.1-39.4,17.77,0,0,11.88,26,36.61,11,0,0-18.94,20.67-31.61,17.67,0,0,26.06,28.33,66.87-15S133.21,49.67,133.21,49.67Z"/><path class="k" d="M144.21,65.67S97.67,90.43,86,81.55c0,0,.13,22.91,24.4,12.68,0,0-26.73,24.1-39.4,17.77,0,0,11.88,26,36.61,11,0,0-18.94,20.67-31.61,17.67,0,0,26.06,28.33,66.87-15S144.21,65.67,144.21,65.67Z"/><path class="e" d="M247.53,69s39-38.5,72,12-67.5,157.5-12,143c0,0-32.5,25.5-37.5-33.5s-43.5-64-43.5-64Z"/><path class="i" d="M317.2,210.53a14,14,0,0,1-4.39-4,25,25,0,0,1-4.51-10.87,20.83,20.83,0,0,1,1.11-11.44,14.19,14.19,0,0,1,3.17-4.64c.33-.32.7-.61,1.05-.92l1.19-1c.39-.33.79-.74,1.18-1.11s.73-.8,1.1-1.2a21.83,21.83,0,0,0,5.1-11.74,19.3,19.3,0,0,0-2.86-12.71,14.26,14.26,0,0,0-5-4.64A13.62,13.62,0,0,0,311,145a17.2,17.2,0,0,0-1.72-.3l-.87-.08-.64-.08-1.51-.17c-.48-.08-.82-.22-1.23-.32l-.59-.15c-.2-.07-.39-.17-.59-.26a8.13,8.13,0,0,1-4.42-4,9.27,9.27,0,0,1,1.32-9.34l.37-.53c.13-.17.29-.32.44-.48.3-.31.57-.65.9-.94l2.23-1.82a15.82,15.82,0,0,0,2.45-2.73,16.28,16.28,0,0,0,1.69-3,22.89,22.89,0,0,0,1.26-13.29,19.36,19.36,0,0,0-2.46-6.45,11.61,11.61,0,0,0-5.75-4.86,10,10,0,0,0-2-.48c-.74-.09-1.11-.12-1.66-.16a13.38,13.38,0,0,1-1.42-.14,11.35,11.35,0,0,1-1.3-.21,8.64,8.64,0,0,1-4.31-2A17.11,17.11,0,0,1,288.09,89c-1-1.67-1.92-3.46-2.88-5.24l-.72-1.35-.19-.34-.09-.17-.14-.25-.39-.66c-.11-.19-.33-.49-.52-.76a8.25,8.25,0,0,0-.61-.79l-.64-.71-.72-.66a10.35,10.35,0,0,0-3.5-1.94,11,11,0,0,0-3.86-.48,17.9,17.9,0,0,0-6.78,1.89,27.26,27.26,0,0,0-2.9,1.62,27.66,27.66,0,0,0-2.74,2l-3.12,2.56,3.78,1.6a37.89,37.89,0,0,1,4.29,2.2,35.09,35.09,0,0,1,4,2.72,20.89,20.89,0,0,1,6,7,11.17,11.17,0,0,1,.68,8.34,18,18,0,0,1-1.92,4.11l-.67,1-.33.49-.4.57-.75,1.05c-.26.36-.51.78-.77,1.16l-.22.35c-.58-.16-1.16-.32-1.75-.45a52,52,0,0,0-8.18-1.18l-2.13-.14-.39,2.12a76.84,76.84,0,0,0-1.23,10.15,42.08,42.08,0,0,0,0,5.26,15.28,15.28,0,0,0,1.42,5.72,6.16,6.16,0,0,0,2.9,2.85,8.28,8.28,0,0,0,1.1.35c.36,0,.73.09,1.09.11h.56l.48,0a15,15,0,0,1,4.1,1,11.15,11.15,0,0,1,3.46,2,4.9,4.9,0,0,1,1,1.24,2.07,2.07,0,0,1,.26,1.11,4.51,4.51,0,0,1-1.6,2.64,33.36,33.36,0,0,0-3.78,3.6,8.25,8.25,0,0,0-1.67,3,4.8,4.8,0,0,0,0,2.44,4.7,4.7,0,0,0,1.22,2.06,8.46,8.46,0,0,0,2.88,1.78,21.62,21.62,0,0,0,2.63.85c.85.22,1.68.41,2.5.59l1.23.41.31.21h0l.05-.14.15,0c.2.05.42.07.5.11a6.31,6.31,0,0,1,.78.3c.28.14.55.3.82.47a10.36,10.36,0,0,1,1.54,1.28,9.51,9.51,0,0,1,2.88,7,34.75,34.75,0,0,0-2.48,3.45l-1,.46a11.09,11.09,0,0,0-1.33.78,9.65,9.65,0,0,0-1.18,1,13.59,13.59,0,0,0-3.07,4.8,21.55,21.55,0,0,0-1.29,5.22,24.08,24.08,0,0,0-.09,5.3,15.87,15.87,0,0,0,1.38,5.32,6,6,0,0,0,2.13,2.51,3.7,3.7,0,0,0,1.94.54c.47,0,.86,0,1.25,0a3.42,3.42,0,0,1,1.47.45,1.66,1.66,0,0,1,.69,1.19,6.6,6.6,0,0,1-1,3.9A21.89,21.89,0,0,1,280,209.7l-1.65,1.82a21.21,21.21,0,0,0-1.63,1.93,26.06,26.06,0,0,0-2.73,4.31,24.17,24.17,0,0,0-1.75,4.77,19.31,19.31,0,0,0-.47,2.5,16.59,16.59,0,0,0-.08,2.54,11,11,0,0,0,1.27,4.87,9.33,9.33,0,0,0,3.41,3.56,9,9,0,0,1-3-3.75,10.35,10.35,0,0,1-.81-4.69,16,16,0,0,1,.23-2.39,21.43,21.43,0,0,1,.61-2.32,23.07,23.07,0,0,1,2-4.36,27.07,27.07,0,0,1,2.78-3.86,20.9,20.9,0,0,1,1.67-1.75l1.78-1.74a23.92,23.92,0,0,0,3.23-4.06,8.79,8.79,0,0,0,1.53-5.47,4.48,4.48,0,0,0-1.64-3,5.92,5.92,0,0,0-3.14-1.12c-.43,0-.86,0-1.22,0-.15,0-.25-.08-.4-.15A3.21,3.21,0,0,1,279,196a13,13,0,0,1-.86-4.25,22.38,22.38,0,0,1,.25-4.55,15.45,15.45,0,0,1,2.38-6.4,5.56,5.56,0,0,0,.94,2.59,7.16,7.16,0,0,0,2.2,2,29.09,29.09,0,0,0,4.89,2.16,23.17,23.17,0,0,1,8,5.86,18.44,18.44,0,0,1,4.51,8.9,11.26,11.26,0,0,1-.24,5,10.35,10.35,0,0,1-2.62,4.37,10.6,10.6,0,0,0,2.95-4.26,11.88,11.88,0,0,0,.6-5.23,19.3,19.3,0,0,0-4.21-9.63,23.92,23.92,0,0,0-8.28-6.7,28.17,28.17,0,0,1-4.5-2.2,4,4,0,0,1-2-3.39,5.52,5.52,0,0,1,.41-1.85h0l1.19-.52a10.2,10.2,0,0,0,1.33-.8,8.12,8.12,0,0,0,2.23-2.36,8,8,0,0,0,1.14-3,9.81,9.81,0,0,0,.11-1.42c.58-.61,1.17-1.22,1.76-1.82l1.6-1.64c-.23.47-.45.95-.64,1.44a11,11,0,0,0,.27,8.59,8.34,8.34,0,0,0,3,3.26l1,.47c.17.08.33.17.5.23l.56.14,1.1.27,1,.07c.35,0,.6,0,1,.06a6.64,6.64,0,0,1,.89.05,6.34,6.34,0,0,1,1.68.4,4.48,4.48,0,0,1,2.4,2.34,9.36,9.36,0,0,1,.78,3.89,22.37,22.37,0,0,0-.14,2.31c0,.41-.1.81-.17,1.21a23.62,23.62,0,0,1-2.56,7.33,23,23,0,0,0,2.83-6,27,27,0,0,0,.47,3,26.06,26.06,0,0,0,5.34,11.11,14.55,14.55,0,0,0,4.82,3.82,8.54,8.54,0,0,0,6,.61A8.29,8.29,0,0,1,317.2,210.53Zm-19.94-57.05a23.6,23.6,0,0,0-2.64-6.71l.3.06a9.89,9.89,0,0,1,5.3,3.67,6.87,6.87,0,0,1,1.41,5.87,6.35,6.35,0,0,1-1.57,2.66l-.56.53c-.22.19-.51.4-.76.59l-1.61,1.27-.6.54a12.66,12.66,0,0,0,.85-2.68A15.26,15.26,0,0,0,297.26,153.48Zm-19.74-39.15.77-1.06.81-1.16a22.21,22.21,0,0,0,2.53-5.23A15.73,15.73,0,0,0,280.77,95a25.65,25.65,0,0,0-7.36-8.67,41.59,41.59,0,0,0-4.55-3.11l-1-.58a14.71,14.71,0,0,1,6.2-2.06A5.51,5.51,0,0,1,278,81.86l.41.36.37.42a3.12,3.12,0,0,1,.33.41,3.26,3.26,0,0,1,.34.49l.39.65.31.56.73,1.33c1,1.78,1.92,3.58,3,5.4a22,22,0,0,0,4.18,5.4,14,14,0,0,0,1.5,1.13,12.71,12.71,0,0,0,1.67.88l.86.36c.28.1.57.18.85.27a14.1,14.1,0,0,0,1.71.41c.56.13,1.13.19,1.71.27s1.09.11,1.59.15l1.37.11a2.77,2.77,0,0,1,.5.1,2.26,2.26,0,0,1,.49.14,6.81,6.81,0,0,1,3.33,2.89,14.69,14.69,0,0,1,1.9,4.83,18.32,18.32,0,0,1-.81,10.58,12,12,0,0,1-1.21,2.27,11.24,11.24,0,0,1-1.56,1.84l-1.13,1-1.31,1.11c-.42.39-.79.85-1.18,1.27-.19.22-.39.43-.57.65l-.5.73a17,17,0,0,0-1.71,3.07l-.55,1.69a14.78,14.78,0,0,0-.34,1.76,12.34,12.34,0,0,0,1.15,7.1,11.55,11.55,0,0,0,1.34,2.06,11.92,11.92,0,0,0-1.19-.41,9.72,9.72,0,0,0-4.11-.32,25.61,25.61,0,0,0-3.26-3.33,15.92,15.92,0,0,0-2.36-1.69,4.8,4.8,0,0,0-.67-.37,5.72,5.72,0,0,0-.74-.35l-.42-.17a2.82,2.82,0,0,0-.37-.13l-.31-.09-.15,0-.25-.07c-.72-.18-1.43-.4-2.13-.64a13.26,13.26,0,0,1-.78-2.75,11.6,11.6,0,0,1,.62-6.44l.39-1,.08-.23a3.19,3.19,0,0,0,.1-.35c.06-.25.12-.5.17-.76a9.09,9.09,0,0,0,.11-1.47,7.12,7.12,0,0,0-1.56-4.08,10.14,10.14,0,0,0-1.89-1.78,14.84,14.84,0,0,0-2-1.19c.09-.15.2-.3.31-.46Zm-2.46,18.07a8.19,8.19,0,0,1-2.65-7.52A16.72,16.72,0,0,1,274,120a10.17,10.17,0,0,1,1.63.92,3.46,3.46,0,0,1,1.47,1.73,2.15,2.15,0,0,1,.09.44,3.64,3.64,0,0,1,0,.48l0,.2s0,0,0,.13l-.08.23-.16.46,0,.12a1.12,1.12,0,0,0,0-.11v0l0,.06-.11.27a16.12,16.12,0,0,0-.87,8.11C275.57,132.85,275.31,132.63,275.06,132.4Zm-8.69,1.7-.75-.06-.68,0a.2.2,0,0,0-.13,0,.09.09,0,0,0-.08,0,1.47,1.47,0,0,1-.49-.62,11.79,11.79,0,0,1-.86-3.83,35.25,35.25,0,0,1-.06-4.61,72,72,0,0,1,.73-7.29,44.36,44.36,0,0,1,5.18.83l.47.11a1.3,1.3,0,0,0-.08.17,19.8,19.8,0,0,0-1.58,5.59,12.46,12.46,0,0,0,4.15,11.19l.12.1-.46-.2A20.15,20.15,0,0,0,266.37,134.1Zm25.36,29.53-.87,1-1.76,1.92c-.06.07-.12.15-.19.22-.1-.32-.2-.63-.32-.94a15.37,15.37,0,0,0-3.07-4.84,12.4,12.4,0,0,0-5-3.34,4.82,4.82,0,0,0-.68-.21l-.4-.11-.3-.06L278,157c-.79-.18-1.56-.37-2.29-.58a16.68,16.68,0,0,1-2.07-.71,4.26,4.26,0,0,1-1.3-.77h0v0a3.89,3.89,0,0,1,.78-1.2,31.06,31.06,0,0,1,3.41-3.16,12.17,12.17,0,0,0,2-2.39,7.62,7.62,0,0,0,1.14-3.39,6.93,6.93,0,0,0-.77-3.66A9.39,9.39,0,0,0,277,138.6a.2.2,0,0,0,.08,0c.21.1.41.18.62.26a19,19,0,0,0,1.95,3.07,13.34,13.34,0,0,0,7.59,5.09,10,10,0,0,0,2.51.17l.77-.1a20.92,20.92,0,0,1,3.37,7.09,12.12,12.12,0,0,1,.26,4.51,8.94,8.94,0,0,1-1.68,4C292.22,163,292,163.31,291.73,163.63Zm15.37,21.1a7.06,7.06,0,0,0-.33-1,5.93,5.93,0,0,0-2.9-3.21,7.39,7.39,0,0,0-2.08-.65,7.82,7.82,0,0,0-1.06-.12l-.92-.11-1-.13-.79-.27-.39-.12c-.13,0-.25-.13-.38-.19l-.75-.41a6.31,6.31,0,0,1-2.1-2.54,8.81,8.81,0,0,1,.21-6.68,14.07,14.07,0,0,1,4.38-5.52l1.53-1.1c.28-.19.53-.35.82-.58s.62-.5.9-.77a9.35,9.35,0,0,0,2.55-3.93,8.87,8.87,0,0,0,.21-4.76,11.44,11.44,0,0,0-1.87-4.19,13.27,13.27,0,0,0-1-1.24l.26.11.82.32.88.21c.58.12,1.21.3,1.74.36l1.51.14,1.52.12c.44,0,.85.13,1.28.18a10.21,10.21,0,0,1,2.41.87,10.7,10.7,0,0,1,3.89,3.42,16.13,16.13,0,0,1,2.7,10.47,19,19,0,0,1-4.1,10.38c-.31.36-.6.75-.92,1.09s-.62.66-1,1l-1.1,1c-.4.37-.81.73-1.19,1.13a16.39,16.39,0,0,0-3.4,5.5C307.35,183.89,307.23,184.31,307.1,184.73Z"/><path class="c" d="M145.68,70.18c-1.62-1.1-3.28-2.14-5-3.1a43.66,43.66,0,0,0-5.42-2.6,26.75,26.75,0,0,0-6.09-1.66,16.51,16.51,0,0,0-3.39-.13,14.46,14.46,0,0,0-1.91.26l-.7.18-.17,0-.09,0-.19.06,0,0-.39.14a16.7,16.7,0,0,0-5.81,3.31,26.58,26.58,0,0,0-4.09,4.7,12.18,12.18,0,0,1-3.05,3.26c-.26.1-.54.28-.77.35l-.32.1-.16.08-.35,0-.7-.1-.33-.15h0l-.19.21c-.5,0-1,.16-1.52.23a26.18,26.18,0,0,0-6.1,1.42,21.29,21.29,0,0,0-10,7.67,31,31,0,0,0-5,11c-1,3.79-1.5,7.52-2.53,10.84a13.63,13.63,0,0,1-2.09,4.31,6.63,6.63,0,0,1-3.49,2.36,9.57,9.57,0,0,1-1.11.23l-.35.05-.17,0h0c-.09,0,.08,0,0,0l-.1,0-.79.13c-.52.11-1,.17-1.57.31l-1.53.51a14.36,14.36,0,0,0-9.34,15.23,18.85,18.85,0,0,0,1.62,5.91c.42.91.94,1.77,1.41,2.65s1.18,1.66,1.77,2.48,1.24,1.41,1.87,2.11l1,1.05a11.76,11.76,0,0,1,.86,1A20.34,20.34,0,0,1,72,149.34a22,22,0,0,1,1.67,10.54,24.87,24.87,0,0,1-3.28,10.38,16.67,16.67,0,0,1-8.06,7.38c3.64-1.07,6.61-3.81,8.78-6.91a25.69,25.69,0,0,0,4.14-10.67,22.59,22.59,0,0,0-4-16.77,15,15,0,0,0-.91-1.19L69.44,141c-.58-.73-1.2-1.46-1.75-2.19l-1.38-2.19c-.36-.79-.8-1.56-1.13-2.36A15.82,15.82,0,0,1,64,129.33a12.73,12.73,0,0,1,.07-2.47,9.32,9.32,0,0,1,.26-1.19l.13-.6c0-.19.15-.37.22-.56a10.07,10.07,0,0,1,2.62-4,10.62,10.62,0,0,1,4.07-2.4c1.56-.6,2.92-.45,5.37-1a11,11,0,0,0,5.8-3.65,17.93,17.93,0,0,0,3-5.65c1.3-3.83,1.91-7.56,2.92-11,.25-.86.52-1.7.81-2.51.15-.41.31-.81.47-1.19.08-.2.17-.39.26-.58l.24-.51A27.54,27.54,0,0,1,93,87.64,15.85,15.85,0,0,1,100.66,82a20.84,20.84,0,0,1,4.87-1c.42,0,.86,0,1.29-.09l.52,0,.35,0,.7-.08.35,0,.52-.12c.34-.08.69-.17,1-.27a14.62,14.62,0,0,0,1.8-.79,16.83,16.83,0,0,0,4.81-4.68,22.39,22.39,0,0,1,3.31-3.75,11.18,11.18,0,0,1,3.92-2.19l.27-.1h0l.17,0,.66-.16c.28,0,.5-.08.89-.09a10.43,10.43,0,0,1,2.21.1,21.29,21.29,0,0,1,4.74,1.34,39.1,39.1,0,0,1,4.7,2.29c1.58.89,3.15,1.89,4.68,3-.34.17-.69.33-1,.51a23.25,23.25,0,0,0-5.63,4.11,14.06,14.06,0,0,0-3.82,6.6,12.51,12.51,0,0,0-.31,3.94,14.89,14.89,0,0,0,.28,1.91l.39,1.58.37,1.48.22,1.25a10.38,10.38,0,0,1,.13,1.25l.05.63,0,.58a4.74,4.74,0,0,1-1.28,3.49,7.16,7.16,0,0,1-3.95,1.52l-1.31.12-1.35,0-1.4,0h-.88l-.48,0-.54,0a16.24,16.24,0,0,0-7,2.44,21.79,21.79,0,0,0-5.29,4.55,19.26,19.26,0,0,0-3.57,6.13,12.3,12.3,0,0,0-.23,7.7,10.34,10.34,0,0,0,2,3.54l.44.55.24.29.13.21c.18.24.37.62.57,1a14.19,14.19,0,0,1,1.37,4.93,19.44,19.44,0,0,1-1.9,10.45c-1.6,3.15-4.32,5.47-7.62,5.84-.9.12-2,.21-3.06.37s-2.12.33-3.2.59a16.17,16.17,0,0,0-3.33,1.13A7.94,7.94,0,0,0,89.76,155a5.36,5.36,0,0,0-1.46,1.93,5.05,5.05,0,0,0-.39,2.44,7.1,7.1,0,0,0,.48,2,14.43,14.43,0,0,0,1.76,3.08,38.07,38.07,0,0,0,4.31,4.76c1.49,1.45,3.1,2.82,4.62,4.13s3,2.65,4.35,4.08a33.53,33.53,0,0,1,3.73,4.49,10,10,0,0,1,2,5,4,4,0,0,1-.59,2.26,6,6,0,0,1-1.87,1.74,11.91,11.91,0,0,1-2.56,1.16c-.46.16-.92.3-1.4.42l-.35.09-.18,0-.11,0h0l-.09,0c-.25.08-.48.14-.74.24s-.59.27-.87.42-.5.36-.73.56a6.55,6.55,0,0,0-.61.69,5.24,5.24,0,0,0-.46.79,7.12,7.12,0,0,0-.53,3.33,20.59,20.59,0,0,0,1.54,6.08,60.2,60.2,0,0,0,5.89,10.75,60,60,0,0,1-5-11.07,19.69,19.69,0,0,1-1.1-5.8,5.82,5.82,0,0,1,.57-2.61,3.77,3.77,0,0,1,.34-.51c.13-.16.29-.28.43-.43l.5-.33.52-.22.73-.18.09,0h0l.19,0,.39-.08a14.62,14.62,0,0,0,1.56-.36,13.51,13.51,0,0,0,3-1.2,8.08,8.08,0,0,0,2.67-2.27,6.41,6.41,0,0,0,1.15-3.5,12.56,12.56,0,0,0-2-6.42,35.26,35.26,0,0,0-3.81-5.1c-1.38-1.56-2.88-3.06-4.37-4.46s-3-2.75-4.33-4.19a36,36,0,0,1-3.7-4.44A10.64,10.64,0,0,1,92.08,160a1.88,1.88,0,0,1-.08-1.47,2.67,2.67,0,0,1,1.27-1,12.86,12.86,0,0,1,2.47-.74,27.29,27.29,0,0,1,2.82-.42c1-.12,1.88-.17,3-.28a13.38,13.38,0,0,0,3.56-.84,14.2,14.2,0,0,0,3.19-1.77,16.76,16.76,0,0,0,4.6-5.35A23.69,23.69,0,0,0,115.69,135a19.54,19.54,0,0,0-1.78-6.8,15.8,15.8,0,0,0-1-1.67l-.29-.43-.23-.3-.24-.31-.19-.24-.07-.1a4.89,4.89,0,0,1-1-1.78,6.91,6.91,0,0,1,.28-4.29,13.85,13.85,0,0,1,2.64-4.3,16.41,16.41,0,0,1,4-3.32,11.34,11.34,0,0,1,4.49-1.56l.21,0a1.75,1.75,0,0,1,.29,0h.64l1.66.06,1.69,0c.58,0,1.16-.09,1.74-.14s1.19-.2,1.78-.31a18.34,18.34,0,0,0,1.84-.55,9.81,9.81,0,0,0,1.83-.87,8.29,8.29,0,0,0,.89-.56l.84-.71a4.44,4.44,0,0,0,.76-.8,8.23,8.23,0,0,0,.69-.87,10.34,10.34,0,0,0,1-1.94l.34-1a8.57,8.57,0,0,0,.21-1l.16-1,.05-.94,0-.94-.05-.89a15.53,15.53,0,0,0-.19-1.79l-.31-1.76-.36-1.48L137.74,91a8.93,8.93,0,0,1-.15-1.11,6.48,6.48,0,0,1,.18-2.12,8.11,8.11,0,0,1,2.29-3.8,18.51,18.51,0,0,1,4.21-3c.8-.43,1.63-.82,2.48-1.18a25.69,25.69,0,0,1,2.52-.89l5.49-1.58-4.33-3.57C148.83,72.42,147.3,71.3,145.68,70.18Zm-21.34-1.39Z"/><path class="c" d="M330.8,144.81a11.76,11.76,0,0,1,.86-1l.95-1.05c.63-.7,1.26-1.38,1.87-2.11s1.2-1.64,1.77-2.48,1-1.74,1.41-2.65a18.85,18.85,0,0,0,1.62-5.91,14.36,14.36,0,0,0-9.34-15.23l-1.53-.51c-.52-.14-1.05-.2-1.57-.31l-.79-.13-.1,0s.13,0,0,0h-.05l-.17,0-.35-.05a9.57,9.57,0,0,1-1.11-.23,6.63,6.63,0,0,1-3.49-2.36,13.63,13.63,0,0,1-2.09-4.31c-1-3.31-1.55-7-2.53-10.84a30.76,30.76,0,0,0-5-11,21.13,21.13,0,0,0-10-7.65,26.07,26.07,0,0,0-6.1-1.38c-.51-.07-1-.28-1.52-.32l-.19-.21h0l-.33.15h-1.05l-.16,0a1.68,1.68,0,0,0-.32-.09c-.23-.07-.51-.24-.77-.35a12.12,12.12,0,0,1-3.05-3.25,27,27,0,0,0-4.09-4.71,16.83,16.83,0,0,0-5.81-3.3l-.39-.14,0,0-.19-.06-.09,0-.17,0-.7-.18a14.46,14.46,0,0,0-1.91-.26,16.51,16.51,0,0,0-3.39.13,26.75,26.75,0,0,0-6.09,1.66,43.66,43.66,0,0,0-5.42,2.6c-1.74,1-3.4,2-5,3.1s-3.15,2.24-4.75,3.55l-4.33,3.57,5.49,1.58a25.69,25.69,0,0,1,2.52.89c.85.36,1.68.75,2.48,1.18a18.51,18.51,0,0,1,4.21,3,8.11,8.11,0,0,1,2.29,3.8,6.48,6.48,0,0,1,.18,2.12,8.93,8.93,0,0,1-.15,1.11l-.34,1.38-.36,1.48-.31,1.76a15.53,15.53,0,0,0-.19,1.79l-.05.89,0,.94,0,.94.16,1a8.57,8.57,0,0,0,.21,1l.34,1a10.34,10.34,0,0,0,1,1.94,8.23,8.23,0,0,0,.69.87,4.44,4.44,0,0,0,.76.8l.84.71a8.29,8.29,0,0,0,.89.56,9.81,9.81,0,0,0,1.83.87,18.34,18.34,0,0,0,1.84.55c.59.11,1.19.22,1.78.31s1.16.11,1.74.14l1.69,0,1.66-.06h.64a1.75,1.75,0,0,1,.29,0l.21,0a11.34,11.34,0,0,1,4.49,1.56,16.41,16.41,0,0,1,4,3.32,13.85,13.85,0,0,1,2.64,4.3,6.91,6.91,0,0,1,.28,4.29,4.89,4.89,0,0,1-.95,1.78l-.07.1-.19.24-.24.31-.23.3-.29.43a15.8,15.8,0,0,0-1,1.67,19.54,19.54,0,0,0-1.78,6.8,23.69,23.69,0,0,0,2.78,13.19,16.76,16.76,0,0,0,4.6,5.35,14.2,14.2,0,0,0,3.19,1.77,13.38,13.38,0,0,0,3.56.84c1.12.11,2,.16,3,.28a27.29,27.29,0,0,1,2.82.42,12.86,12.86,0,0,1,2.47.74,2.67,2.67,0,0,1,1.27,1,1.88,1.88,0,0,1-.08,1.47,10.64,10.64,0,0,1-1.18,2.25,36,36,0,0,1-3.7,4.44c-1.38,1.44-2.82,2.77-4.33,4.19s-3,2.9-4.37,4.46a35.26,35.26,0,0,0-3.81,5.1,12.56,12.56,0,0,0-2,6.42,6.41,6.41,0,0,0,1.15,3.5,8.08,8.08,0,0,0,2.67,2.27,13.51,13.51,0,0,0,3.05,1.2,14.62,14.62,0,0,0,1.56.36l.39.08.19,0h0l.09,0,.73.18.52.22.5.33c.14.15.3.27.43.43a3.77,3.77,0,0,1,.34.51,5.82,5.82,0,0,1,.57,2.61,19.69,19.69,0,0,1-1.1,5.8,60,60,0,0,1-5,11.07,60.2,60.2,0,0,0,5.89-10.75,20.59,20.59,0,0,0,1.54-6.08,7.12,7.12,0,0,0-.53-3.33,5.24,5.24,0,0,0-.46-.79,6.55,6.55,0,0,0-.61-.69c-.23-.2-.48-.38-.73-.56s-.58-.29-.87-.42-.49-.16-.74-.24l-.09,0H298l-.11,0-.18,0-.35-.09c-.48-.12-.94-.26-1.4-.42a11.91,11.91,0,0,1-2.56-1.16,6,6,0,0,1-1.87-1.74,4,4,0,0,1-.59-2.26,10,10,0,0,1,1.95-5,33.53,33.53,0,0,1,3.73-4.49c1.38-1.43,2.82-2.76,4.35-4.08s3.13-2.68,4.62-4.13a38.07,38.07,0,0,0,4.31-4.76,14.43,14.43,0,0,0,1.76-3.08,7.1,7.1,0,0,0,.48-2,5.05,5.05,0,0,0-.39-2.44,5.36,5.36,0,0,0-1.46-1.93,7.94,7.94,0,0,0-1.72-1.11,16.17,16.17,0,0,0-3.33-1.13c-1.08-.26-2.14-.44-3.2-.59s-2.16-.25-3.06-.37c-3.3-.37-6-2.69-7.62-5.84a19.44,19.44,0,0,1-1.9-10.45,14.19,14.19,0,0,1,1.37-4.93c.2-.34.39-.72.57-1l.13-.21.24-.29.44-.55a10.34,10.34,0,0,0,2-3.54,12.3,12.3,0,0,0-.23-7.7,19.26,19.26,0,0,0-3.57-6.13,21.79,21.79,0,0,0-5.29-4.55,16.24,16.24,0,0,0-7-2.44l-.54,0-.48,0h-.88l-1.4,0-1.35,0-1.31-.12a7.16,7.16,0,0,1-3.95-1.52A4.74,4.74,0,0,1,266.9,99l0-.58.05-.63a10.38,10.38,0,0,1,.13-1.25l.22-1.25.37-1.48.39-1.58a14.89,14.89,0,0,0,.28-1.91,12.51,12.51,0,0,0-.31-3.94,14.06,14.06,0,0,0-3.82-6.6,23.25,23.25,0,0,0-5.63-4.11c-.34-.18-.69-.34-1-.51,1.53-1.06,3.1-2.06,4.68-3a39.1,39.1,0,0,1,4.7-2.29,21.29,21.29,0,0,1,4.74-1.34,10.43,10.43,0,0,1,2.21-.1c.39,0,.61.07.89.09l.66.16.17,0h0l.27.1a11.18,11.18,0,0,1,3.92,2.19,22.39,22.39,0,0,1,3.31,3.75,16.83,16.83,0,0,0,4.81,4.68,14.62,14.62,0,0,0,1.8.79c.34.1.69.19,1,.27l.52.12.35,0,.7.08.35,0,.52,0c.43,0,.87,0,1.29.09a20.84,20.84,0,0,1,4.87,1A15.85,15.85,0,0,1,307,87.64a27.54,27.54,0,0,1,2.69,4.43l.24.51c.09.19.18.38.26.58.16.38.32.78.47,1.19.29.81.56,1.65.81,2.51,1,3.44,1.62,7.17,2.92,11a17.93,17.93,0,0,0,3,5.65,11,11,0,0,0,5.8,3.65c2.45.55,3.81.4,5.37,1a10.62,10.62,0,0,1,4.07,2.4,10.07,10.07,0,0,1,2.62,4c.07.19.17.37.22.56l.13.6a9.32,9.32,0,0,1,.26,1.19,12.73,12.73,0,0,1,.07,2.47,15.82,15.82,0,0,1-1.14,4.95c-.33.8-.77,1.57-1.13,2.36l-1.38,2.19c-.55.73-1.17,1.46-1.75,2.19l-.88,1.08a15,15,0,0,0-.91,1.19,22.59,22.59,0,0,0-4,16.77,25.69,25.69,0,0,0,4.14,10.67c2.17,3.1,5.14,5.84,8.78,6.91a16.67,16.67,0,0,1-8.06-7.38,24.87,24.87,0,0,1-3.28-10.38A22,22,0,0,1,328,149.34,20.34,20.34,0,0,1,330.8,144.81Zm-55.14-76h0C275.73,68.81,275.7,68.81,275.66,68.79Z"/><path class="j" d="M266.79,49.67S313.33,74.43,325,65.55c0,0-.13,22.91-24.4,12.68,0,0,26.73,24.1,39.4,17.77,0,0-11.88,26-36.61,11,0,0,18.94,20.67,31.61,17.67,0,0-26.06,28.33-66.87-15S266.79,49.67,266.79,49.67Z"/><path class="k" d="M255.79,65.67S302.33,90.43,314,81.55c0,0-.13,22.91-24.4,12.68,0,0,26.73,24.1,39.4,17.77,0,0-11.88,26-36.61,11,0,0,18.94,20.67,31.61,17.67,0,0-26.06,28.33-66.87-15S255.79,65.67,255.79,65.67Z"/><path class="d" d="M200,30C51.67,40.33,138.51,164.34,138.87,165.45L200,78l61.13,87.45C261.49,164.34,348.33,40.33,200,30Z"/><path class="i" d="M275.13,126.58l-1.5-38.37S302,54.33,294,49.33s-18,9.17-18,9.17,8.35-29.83-8.31-35.83-31.05,13-31.05,13S240,4,201,4s-35.62,31.67-35.62,31.67-14.38-19-31-13S126,58.5,126,58.5s-10-14.17-18-9.17,20.37,38.88,20.37,38.88l-1.5,38.37s-17.21-8.35-18.87-2.91S119.67,137,119.67,137s-7.34.33-6.06,5.22,11,6.45,11,6.45-8.3,1-7.47,5.66,18.9,2,18.9,2C108.65,63.82,201,59,201,59s92.35,4.82,64.94,97.37c0,0,18.08,2.63,18.9-2s-7.47-5.66-7.47-5.66,9.73-1.56,11-6.45-6.06-5.22-6.06-5.22,13.33-7.9,11.67-13.33S275.13,126.58,275.13,126.58Z"/><path class="e" d="M294,49.33c-8-5-18,9.17-18,9.17s8.35-29.83-8.31-35.83-31.05,13-31.05,13S240,4,201,4s-35.62,31.67-35.62,31.67-14.38-19-31-13S126,58.5,126,58.5s-10-14.17-18-9.17c-3.2,2-.57,8.64,3.73,15.87A2.93,2.93,0,0,1,113,63.33c8-5,18,9.17,18,9.17s-8.35-29.83,8.31-35.83,31,13,31,13S167.3,20.78,201,18.19c33.7,2.59,30.62,31.48,30.62,31.48s14.38-19,31.05-13S271,72.5,271,72.5s10-14.17,18-9.17a2.93,2.93,0,0,1,1.27,1.87C294.57,58,297.2,51.34,294,49.33Z"/><path class="e" d="M200,58.5s-77.75,2-76.37,46S143.45,173,143.45,173L156,175c-2.29-9.18-5.53-25.95-5.53-25.95l10.06,26.67,12.44,2-5-28.14,7.5,28.14s8.5,8.41,24.5,8.41,24.5-8.41,24.5-8.41L232,149.5l-5,28.14,12.44-2L249.5,149S246.26,165.77,244,175l12.58-2S275,148.5,276.37,104.5,200,58.5,200,58.5Z"/><path class="c" d="M260.79,87s-8.82,12.55-12,17.25c2-4.6,2.69-14.92,2.69-14.92s-16.17,19-13.5,14.67,4.25-17,4.25-17-22.92,20-20.58,16-3-17.33-3-17.33c-2.34,4-7.67,16.66-7.67,16.66C209.67,98,200,84,200,84s-9.67,14-11,18.33c0,0-5.33-12.66-7.67-16.66,0,0-5.33,13.33-3,17.33s-20.58-16-20.58-16,1.58,12.67,4.25,17-13.5-14.67-13.5-14.67.66,10.32,2.69,14.92c-3.16-4.7-12-17.25-12-17.25s-7.45,34,0,46c0,0,5.78-11,7.28-18,0,0,7.84,17,15.18,23.67,0,0,7-17.34,6.33-23.67,0,0,6.33,22.51,11.33,29.92a31.65,31.65,0,0,0,4.71-5.85c5.09,6.74,10.74,13.31,16,17.3,5.22-4,10.87-10.56,16-17.3a31.65,31.65,0,0,0,4.71,5.85C225.67,137.51,232,115,232,115c-.67,6.33,6.33,23.67,6.33,23.67C245.67,132,253.51,115,253.51,115c1.5,7,7.28,18,7.28,18C268.24,121,260.79,87,260.79,87Z"/></svg>