<svg xmlns="http://www.w3.org/2000/svg" viewBox="0 0 400 400"><defs><style>.a{fill:#3bafda;}.b{fill:#f6bb42;}.c{fill:#f9e0a8;}.d{fill:#d9c392;}.e{fill:#ffce54;}.f{fill:#ffe9ba;}.g{fill:#434a54;}.h{fill:#656d78;}</style></defs><title>avatar11 (2)</title><circle class="a" cx="200" cy="200" r="200"/><path class="b" d="M316.67,312.67C309.31,306.31,297.3,298.11,286,297c-2.68-.26-15.1-3.46-29.7-7.4l-2.13-.57,0,0-2.65-.72c-8.92-2.42-18.33-5-26.62-7.32l-.54-.15-1.39-.39-.65-.18-1.22-.34-.7-.2-1-.29-2.05-.57-.37-.11-.66-.18-1.15-.32-12.42-3.49h-.05l-1.08-.31-.3-.08-.75-.22L200,274l-.6.17-.09,0-.26.07-.27.08-.44.12-.81.23-.4.11-.2.06-1.35.38-.35.1h0l-1.07.31-.42.12-.44.12-.14,0-.09,0-.89.25-.05,0-.13,0-.32.09-.54.15-3.13.88-.49.14-1.16.33-.24.06-1.18.33-.69.2-1,.28-.59.17-1.77.49-1.15.32-.66.19-1.25.34-.83.24-1.19.33-.85.23-.83.23-.41.12-.11,0-.75.21-1,.27-.13,0-.81.23-.64.17-1.6.45L168,283l-1.41.39-.83.23-1.63.45-.72.2-.38.1-.07,0-1.43.4-1,.26-1.29.36-.93.25L157,286l-.88.24-2,.54-.22.06-2.18.59-.73.2-1.44.39-.1,0-.82.23-1.25.33-.92.25-1.52.42c-15.17,4.09-28.26,7.48-31,7.75-11.3,1.11-23.32,9.31-30.67,15.67-13.23,11.44-10.85,25.45-14.64,38.18a200,200,0,0,0,262.62,0C327.52,338.12,329.9,324.11,316.67,312.67Z"/><path class="c" d="M200,196l-42.25-5.5,16.31,88.73S177.72,310,200,310s25.94-30.77,25.94-30.77l16.31-88.73Z"/><path class="d" d="M234,205.5l-69.53,21.59,7.09,38.56c10.66,13.14,26.92,25.18,51,26.26a55,55,0,0,0,3.42-12.68l12.13-66C235.69,208.45,234,205.5,234,205.5Z"/><path class="e" d="M237.53,283.67l-9-14.35-23.89,27-4.64,15-4.64-15-23.89-27-9,14.35c-1.17,1.21,0,3.21,0,3.21s13.45,29.87,13.95,33.87S179.3,323,179.3,323s9.26-13,11.49-14c1.75-.75,1.58,1.44,1.58,1.44l2,43.56h11.34l2-43.56s-.18-2.14,1.57-1.39c2.23,1,11.5,14,11.5,14s2.37,1.73,2.87-2.27,14-33.88,14-33.88S238.7,284.88,237.53,283.67Z"/><path class="f" d="M200,98H137s4.79,94.46,11,114c7,22,14.24,27.29,30.23,41,13.4,11.5,21.77,10,21.77,10s8.37,1.5,21.77-10c16-13.71,24.23-19,31.23-41,6.21-19.54,10-114,10-114Z"/><path class="c" d="M141.75,158.5S119,147.59,124.48,175.14s22,23.58,22,23.58Z"/><path class="c" d="M259.25,158.5s22.74-10.91,17.27,16.64-22,23.58-22,23.58Z"/><path class="g" d="M180.07,21.66s-48,27.87,35.48,89.42,147.11-17.8,147.11-17.8S347.28,108.21,331,98.79c0,0,25.86-3.76,25.15-27.37,0,0-71.56,42.05-102.71-9S197.46,13.45,180.07,21.66Z"/><circle class="b" cx="202.11" cy="56.62" r="12.12"/><path class="g" d="M200,56c-119,0-64.94,120-64.94,120,30.27-1.78,42.24-25.81,46.63-39.55,17.48,19.06,50,47.45,83.25,39.55C264.94,176,319,56,200,56Z"/><path class="h" d="M171,98.5S181.38,199,264.94,176C264.94,176,188,154.5,171,98.5Z"/><path class="h" d="M164.47,98s-27.47,60.74-50,58.37C114.5,156.37,168,182,164.47,98Z"/><path class="h" d="M196.5,70c45.75,6.51,79,25.61,80.56,55.41C278.66,92.62,265.74,56,200,56s-78.66,36.62-77.06,69.4C124.49,95.6,138,61.67,196.5,70Z"/></svg>