<svg xmlns="http://www.w3.org/2000/svg" viewBox="0 0 400 400.12"><defs><style>.a{fill:#aab2bd;}.b{fill:#4a89dc;}.c{fill:#f9e0a8;}.d{fill:#d9c392;}.e{fill:#5d9cec;}.f{fill:#ffe9ba;}.g{fill:#434a54;}.h{fill:#f5f7fa;}.i{fill:#e8eaed;}.j{fill:#2d3138;}.k{fill:#ffce54;}.l{fill:#ffd56b;}.m{fill:#f6bb42;}</style></defs><title>avatar10 (2)</title><circle class="a" cx="200" cy="200" r="200"/><path class="b" d="M316.67,312.79c-7.35-6.36-19.37-14.56-30.67-15.67-7.26-.71-86-23-86-23s-78.74,22.29-86,23c-11.3,1.11-23.32,9.31-30.67,15.67C70.1,324.23,72.48,338.24,68.69,351a200,200,0,0,0,262.62,0C327.52,338.24,329.9,324.23,316.67,312.79Z"/><path class="c" d="M200,200l-42.25-5.5,16.31,88.73S177.72,314,200,314s25.94-30.77,25.94-30.77l16.31-88.73Z"/><path class="d" d="M234,209.5l-69.53,21.59,7.09,38.56c10.66,13.14,26.92,25.18,51,26.26a55,55,0,0,0,3.42-12.68l12.13-66C235.69,212.45,234,209.5,234,209.5Z"/><path class="e" d="M170.69,279.5l-9.63,14.41s23.06,32.84,23.06,32.09c0-.47,5.73-3.72,10.06-10.66l5.76,5.16-1-24.5Z"/><path class="e" d="M229.31,279.5,201.06,296l-1,24.5,5.76-5.16c4.33,6.94,10.06,10.19,10.06,10.66,0,.75,23.06-32.09,23.06-32.09Z"/><path class="e" d="M195,400.08c1,0,2.66,0,4,0,1.67,0,3,0,5-.06V307h-9Z"/><path class="f" d="M200,98H137s4.79,94.46,11,114c7,22,14.24,27.29,30.23,41,13.4,11.5,21.77,10,21.77,10s8.37,1.5,21.77-10c16-13.71,24.23-19,31.23-41,6.21-19.54,10-114,10-114Z"/><path class="c" d="M141.75,158.5S119,147.59,124.48,175.14s22,23.58,22,23.58Z"/><path class="c" d="M259.25,158.5s22.74-10.91,17.27,16.64-22,23.58-22,23.58Z"/><path class="g" d="M252.71,169.87l-9.86,10.32a17.57,17.57,0,0,0-33,4.65,15.57,15.57,0,0,0-19.62,0,17.57,17.57,0,0,0-33-4.65l-9.86-10.32.07,2.3s6.73,11.06,8.16,13.16a18,18,0,0,0-.22,2.67,17.58,17.58,0,0,0,35.16.46c1.86-3.26,6-4.52,9.54-4.59s7.68,1.33,9.54,4.59A17.58,17.58,0,0,0,244.7,188a18,18,0,0,0-.22-2.67c1.43-2.1,8.16-13.16,8.16-13.16Z"/><path class="h" d="M188.19,188a15.3,15.3,0,1,1-15.3-15.3A15.3,15.3,0,0,1,188.19,188Z"/><path class="h" d="M211.81,188a15.3,15.3,0,1,0,15.3-15.3A15.3,15.3,0,0,0,211.81,188Z"/><path class="i" d="M172.89,172.7a15.35,15.35,0,0,0-4.15.59l-8.58,23.17a15.3,15.3,0,0,0,8.4,6.2l10.59-28.61A15.22,15.22,0,0,0,172.89,172.7Z"/><path class="i" d="M180.64,174.83,170.2,203a14.66,14.66,0,0,0,6.3-.2l8.8-23.76A15.28,15.28,0,0,0,180.64,174.83Z"/><path class="i" d="M227.27,172.7a15.48,15.48,0,0,0-4.16.59l-8.57,23.17a15.32,15.32,0,0,0,8.39,6.2l10.59-28.61A15.17,15.17,0,0,0,227.27,172.7Z"/><path class="i" d="M235,174.83,224.57,203a15.07,15.07,0,0,0,2.7.25,14.81,14.81,0,0,0,3.61-.45l8.8-23.76A15.4,15.4,0,0,0,235,174.83Z"/><polygon class="h" points="150.02 172.7 148.9 175.44 151.4 179.35 153.91 176.42 150.02 172.7"/><polygon class="h" points="249.98 172.7 251.1 175.44 248.6 179.35 246.09 176.42 249.98 172.7"/><path class="j" d="M200,21.33c-70,0-96,49.34-77.51,125.34,0,0,35.83-61.34,77.51-61.34s77.51,61.34,77.51,61.34C296,70.67,270,21.33,200,21.33Z"/><path class="g" d="M200,31.33c53.58,0,81.39,28.9,83.2,76.54,1.85-53.56-26-86.54-83.2-86.54s-85,33-83.2,86.54C118.61,60.23,146.42,31.33,200,31.33Z"/><path class="g" d="M285.51,135.67c-5.78-13-13.93-25.16-22.89-36.19-14.87-18.32-35.14-33.37-59.2-35.27a10.45,10.45,0,0,0-2.15-.21h-2.54a10.55,10.55,0,0,0-2.16.21c-24,1.91-44.15,17-59.19,35.27-9,10.94-17.19,23.17-23,36.19-2.2,5-1.46,10.7,3.63,13.68,4.3,2.52,11.49,1.4,13.69-3.59,1.49-3.36,3.25-6.62,5-9.83a177.91,177.91,0,0,1,13.57-20.7C156.83,107,164.79,99,172.62,93.67c8.66-5.89,17.57-9.26,27.37-9.63,9.88.37,18.6,3.82,27.38,9.63,7.9,5.22,15.76,13.42,22.28,21.56a178.35,178.35,0,0,1,13.57,20.7c1.79,3.21,3.53,6.47,5,9.83,2.21,5,9.38,6.11,13.68,3.59C287,146.37,287.71,140.65,285.51,135.67Z"/><path class="k" d="M200,83h0c-98.67,1-101.32,180-73.92,214.23s52.6,35.09,52.6,35.09c16-38.66-44.67-142.66-29.42-158,7-7.05,18.3-26.92,28.46-46.33h44.58c10.16,19.41,21.45,39.28,28.46,46.33,15.25,15.34-45.42,119.34-29.42,158,0,0,25.21-.85,52.6-35.1S298.68,84,200,83Z"/><path class="l" d="M200,84c-52.67,0-59.83,61.19-59.83,61.19,19.2,21.61,53.92,22.36,60.74,22.29s41.58-.68,60.79-22.29C261.7,145.19,252.67,84,200,84Z"/><path class="m" d="M195.17,86.3c.46-.76,1-1.49,1.44-2.2-1.82.09-3.6.26-5.31.5-14,6.37-34.18,24-35.65,72.58a77.29,77.29,0,0,0,13.72,5.68C170,143.21,173.94,102.9,195.17,86.3Z"/><path class="m" d="M208.5,84.57c-1.33-.18-2.68-.32-4.07-.42a43.35,43.35,0,0,1,2.48,4C226.4,106,230,144.71,230.51,163.45a81.84,81.84,0,0,0,13.73-5.25C243,108.74,222.61,91,208.5,84.57Z"/><path class="k" d="M206.91,88.18A35.64,35.64,0,0,0,201.42,84c-.47,0-.94,0-1.42,0s-1.05,0-1.57,0a34.54,34.54,0,0,0-3.26,2.27c-14,23-12,68.18-12.25,79.72a112,112,0,0,0,35.17.14C217.86,155.13,219.81,111.8,206.91,88.18Z"/><path class="m" d="M178.67,311.32s-9.49-.33-23.14-8.47c-6.48-19.62-25-75-28.2-133.18,0,0-7,55.85,9.17,118.21a134.76,134.76,0,0,1-10.43-11.65c-8.12-10.15-13.6-33-14.73-60.19-1.44,36,4.58,68.51,14.73,81.19,27.39,34.25,52.6,35.09,52.6,35.09,3-7.26,3.3-16.83,1.91-27.69A33,33,0,0,1,178.67,311.32Z"/><path class="m" d="M288.66,216c-1.13,27.18-6.61,50-14.73,60.19a133.15,133.15,0,0,1-10.44,11.65c16.2-62.36,9.18-118.21,9.18-118.21-3.24,58.2-21.72,113.57-28.2,133.18-13.65,8.15-23.14,8.48-23.14,8.48a33,33,0,0,1-1.91-6.69c-1.39,10.86-1.09,20.43,1.91,27.69,0,0,25.21-.85,52.6-35.1C284.08,284.55,290.1,252,288.66,216Z"/></svg>