<svg xmlns="http://www.w3.org/2000/svg" viewBox="0 0 400 422.5"><defs><style>.a{fill:#e9573f;}.b{fill:#2d3138;}.c{fill:#434a54;}.d{fill:#37bc9b;}.e{fill:#f9e0a8;}.f{fill:#d9c392;}.g{fill:#48cfad;}.h{fill:#e6e9ed;}.i{fill:#ffe9ba;}.j{fill:#f5f7fa;}.k{fill:#656d78;}</style></defs><title>avatar4</title><circle class="a" cx="200" cy="200" r="200"/><path class="b" d="M264.37,174.49,190,209.07,184.67,184,124,196.69s7.14,82.18,23.12,102.29c6.48,8.14,11.46,12,15.16,13.78l-7.95,29.74S212,419,252,338,264.37,174.49,264.37,174.49Z"/><path class="c" d="M249.51,177.67S274.67,302.33,240.33,338s-21.66,14.67-21.66,14.67l14.4-173.34Z"/><path class="d" d="M316.67,312.84c-7.36-6.36-19.37-14.56-30.67-15.67-2.68-.26-15.1-3.46-29.7-7.4l-2.13-.57,0,0-2.65-.72c-8.92-2.42-18.33-5-26.62-7.32l-.54-.15-1.39-.39-.65-.18-1.22-.34-.7-.2-1-.29-2.05-.57-.37-.11-.66-.18-1.15-.32-12.42-3.49h-.05l-1.08-.31-.3-.08-.75-.22-.47-.13-.6.17-.09,0-.26.07-.27.08-.44.12-.81.23-.4.11-.2.06-1.35.38-.35.1h0l-1.07.3-.42.12-.44.12-.14,0-.09,0-.89.25-.05,0-.13,0-.32.08-.54.16-3.13.87-.49.14-1.16.33-.24.06-1.18.33-.69.2-1,.28-.59.17-1.77.49-1.15.32-.66.19-1.25.34-.83.24-1.19.33-.85.24-.83.22-.41.12-.11,0-.75.21-1,.27-.13,0-.81.23-.64.17-1.6.45-.66.18-1.41.39-.83.23-1.63.45-.72.2-.38.1-.07,0-1.43.39-1,.26-1.29.36-.93.26-1.31.35-.88.24-2,.54L154,287l-2.18.59-.73.2-1.44.39-.1,0-.82.23-1.25.33-.92.25-1.52.42c-15.17,4.09-28.26,7.48-31,7.75-11.3,1.11-23.32,9.31-30.67,15.67C70.1,324.28,72.48,338.29,68.69,351a200,200,0,0,0,262.62,0C327.52,338.29,329.9,324.28,316.67,312.84Z"/><path class="d" d="M174.06,279.4l-3-16.46c-4.22-1.06-22.44-4.68-23,11.23-.67,18,52,59,52,59l-10.29-25.64C176.53,300.09,174.06,279.4,174.06,279.4Z"/><path class="d" d="M225.94,279.4l3-16.46c4.22-1.06,22.44-4.68,23,11.23.67,18-52,59-52,59l10.29-25.64C223.47,300.09,225.94,279.4,225.94,279.4Z"/><path class="e" d="M200,196.17l-42.25-5.5,16.31,88.73s3.66,30.77,25.94,30.77,25.94-30.77,25.94-30.77l16.31-88.73Z"/><path class="f" d="M234,205.67l-69.53,21.59,7.09,38.56c10.66,13.14,26.92,25.18,51,26.26a55,55,0,0,0,3.42-12.68l12.13-66C235.69,208.62,234,205.67,234,205.67Z"/><path class="g" d="M293,281.17c-5.5-18.5-28-10.78-28-10.78-10.54-22.4-33.75-11.48-35.49-10.63l-.58,3.18c4.22-1.06,22.44-4.68,23,11.23.67,18-52,59-52,59h0s-52.67-41-52-59c.59-15.91,18.81-12.29,23-11.23l-.58-3.18c-1.74-.85-24.95-11.77-35.49,10.63,0,0-22.46-7.72-28,10.78,0,0-17-2.75-17.5,11.34S200,340,200,340h.1s111-33.4,110.45-47.49S293,281.17,293,281.17Z"/><circle class="c" cx="185.38" cy="330.54" r="3"/><circle class="c" cx="216.63" cy="330.54" r="3"/><path class="h" d="M184,332v89a1.5,1.5,0,0,0,3,0V332a1.5,1.5,0,0,0-3,0Z"/><path class="h" d="M218,332v89a1.5,1.5,0,0,1-3,0V332a1.5,1.5,0,0,1,3,0Z"/><path class="i" d="M200,98H137s4.79,94.46,11,114c7,22,14.24,27.29,30.23,41,13.4,11.5,21.77,10,21.77,10s8.37,1.5,21.77-10c16-13.71,24.23-19,31.23-41,6.21-19.54,10-114,10-114Z"/><path class="e" d="M141.75,158.5S119,147.59,124.48,175.14s22,23.58,22,23.58Z"/><path class="e" d="M259.25,158.5s22.74-10.91,17.27,16.64-22,23.58-22,23.58Z"/><path class="j" d="M259,194v31c0,3.87,6,3.87,6,0V194c0-3.87-6-3.87-6,0Z"/><path class="k" d="M148,161.67s-10,31.66,5.34,71.66,0,73.67,0,73.67l-28-101.5,8.34-52.5Z"/><path class="c" d="M120.84,159.84s-13,38.41,4.83,69.16,6.66,68.33,6.66,68.33,19.67-25,4.67-75-1.94-57.1-1.94-57.1S128.35,148.68,120.84,159.84Z"/><path class="c" d="M242.12,169.28s-3.83,11.22,3.65,12.05c0,0,4.58,18.91,11.36,17.51s12.62-40.59,12.62-40.59Z"/><path class="d" d="M269.42,122.86C271,110.63,275.77,66.4,265.94,57c-9.33-8.9-31-16.35-64.46-16.35S146.34,48.12,137,57c-9.83,9.38-5,53.61-3.48,65.84L131,126H272Z"/><path class="j" d="M138.35,124c-3.79-30.81-2.93-55.54,2.12-60.36,3.68-3.52,19-15,61-15s57.33,11.45,61,15c5.05,4.82,5.91,29.55,2.12,60.36Z"/><path class="g" d="M286,144.72,268.46,122H133.54L116,144.72c-21.07,34.15,77.43,30.31,85,30C208.59,175,307.09,178.87,286,144.72Z"/><path class="d" d="M201,167.69c-6.52.3-80.27,3.17-87.41-17.73-8.22,28.5,80.23,25.06,87.41,24.73,7.18.33,95.63,3.77,87.41-24.73C281.27,170.86,207.52,168,201,167.69Z"/></svg>