<svg xmlns="http://www.w3.org/2000/svg" viewBox="0 0 400 400.12"><defs><style>.a{fill:#434a54;}.b{fill:#f6bb42;}.c{fill:#ffce54;}.d{fill:#3db093;}.e{fill:#f9e0a8;}.f{fill:#d9c392;}.g{fill:#379e84;}.h{fill:#ffe9ba;}.i{fill:#ffd56b;}</style></defs><title>avatar15 (2)</title><circle class="a" cx="200" cy="200" r="200"/><path class="b" d="M182.5,69S166.6,32.61,200,30c32-2.5,23,35.5,48,47s50,69.84,41.5,121.92-15.5,58.33,3.5,75.2S281.83,341,268.66,349.5,224,319.5,224.5,318s29.61-28.5,16.31-59-30.06-38.5-5.81-69.5S182.5,69,182.5,69Z"/><path class="c" d="M244.17,278.52c-1.56,21.69-19.28,38.31-19.67,39.48-.08.25.71,1.51,2.15,3.4C232.05,315.13,245.62,298.45,244.17,278.52Z"/><path class="c" d="M281,254.39c-.75,11,2.09,16.94,12,25.73,3.67,3.27,5.5,7.77,6,13,.63-7.73-1-14.51-6-19C285.05,267.06,281.66,261.86,281,254.39Z"/><path class="c" d="M239.61,176.81A23.23,23.23,0,0,1,235,189.5c-10.19,13-13.14,22-12.15,30.27.8-6.72,4.36-14.31,12.15-24.27C238.87,190.56,240.16,184.12,239.61,176.81Z"/><path class="c" d="M200,36c32-2.5,23,35.5,48,47,21.1,9.71,42.21,52.79,43.16,97.31C292.09,133.72,270.05,87.14,248,77c-25-11.5-16-49.5-48-47-19,1.48-22,13.85-21.14,24.27C179.69,45.58,184.6,37.2,200,36Z"/><rect class="d" x="187" y="45" width="26" height="26" rx="12" ry="12"/><path class="c" d="M253,141s10.33,15.67,20.33,16.67,6.34,21.39,5,28.86-5.33,22.14,7,34.47c0,0-13.33-20,0-48.33S253,141,253,141Z"/><path class="c" d="M273,177.64S253,212,289.67,228.33s15.66,38.34,15.66,38.34c3-7,7-25-19.66-33.67-25-8.12-31.25-48.77-31.25-54.66a1.5,1.5,0,0,1,.09-.7l-4.51,30c-4.75,11,4.49,22,15.94,30.66,14.5,11,14.74,22.46,8.39,33.67-5.67,10-14.66,32.33-14.66,32.33-2.67-20.66,10.13-39.91-5.38-51.62C237,239.64,238.48,218.5,237.22,211c-.15-.9-.22-1.43-.22-1.52Z"/><path class="e" d="M316.67,312.79c-7.35-6.36-19.37-14.56-30.67-15.67-7.26-.71-86-23-86-23s-78.74,22.29-86,23c-11.3,1.11-23.32,9.31-30.67,15.67C70.1,324.23,72.48,338.24,68.69,351a200,200,0,0,0,262.62,0C327.52,338.24,329.9,324.23,316.67,312.79Z"/><path class="f" d="M214.58,349c-.55.25-1.19.61-1.92,1a23,23,0,0,0-2.36,1.6l-1.27,1c-.42.38-.84.8-1.28,1.22a27.18,27.18,0,0,0-4.62,6.41A30,30,0,0,0,200,370.75a30,30,0,0,0-3.13-10.46,27.18,27.18,0,0,0-4.62-6.41c-.44-.42-.86-.84-1.28-1.22l-1.27-1a23,23,0,0,0-2.36-1.6c-.73-.42-1.37-.78-1.92-1-1.11-.49-1.75-.72-1.75-.72s.45.53,1.28,1.37c.42.41.86,1,1.42,1.56.28.29.53.64.82,1s.61.69.89,1.09l.92,1.2.92,1.32c.62.92,1.23,1.89,1.81,2.93.3.51.56,1.06.85,1.59s.52,1.11.8,1.67c.48,1.14,1,2.3,1.37,3.5s.76,2.41,1.09,3.62.58,2.43.8,3.61c.45,2.37.74,4.64.92,6.6s.3,3.64.36,4.82S198,386,198,386a14.36,14.36,0,0,0,.71-1.76,28.36,28.36,0,0,0,1.16-4.86c0-.33.09-.69.13-1,0,.35.08.71.13,1a28.36,28.36,0,0,0,1.16,4.86A14.36,14.36,0,0,0,202,386s0-.68.08-1.87.15-2.85.36-4.82.47-4.23.92-6.6c.22-1.18.49-2.39.8-3.61s.66-2.43,1.09-3.62.89-2.36,1.37-3.5c.28-.56.53-1.13.8-1.67s.55-1.08.85-1.59c.58-1,1.19-2,1.81-2.93l.92-1.32.92-1.2c.28-.4.61-.73.89-1.09s.54-.69.82-1c.56-.58,1-1.15,1.42-1.56.83-.84,1.28-1.37,1.28-1.37S215.69,348.5,214.58,349Z"/><path class="e" d="M200,200l-42.25-5.5,16.31,88.73S177.72,314,200,314s25.94-30.77,25.94-30.77l16.31-88.73Z"/><path class="f" d="M234,209.5l-69.53,21.59,7.09,38.56c10.66,13.14,26.92,25.18,51,26.26a55,55,0,0,0,3.42-12.68l12.13-66C235.69,212.45,234,209.5,234,209.5Z"/><path class="g" d="M200,400.12a199,199,0,0,0,102.79-28.41l-.25-.32c-13.85-17.64-15.47-60.57-15.63-74.14-.3,0-.61-.1-.91-.13a69.91,69.91,0,0,1-6.85-1.45l.19,1.2.13.88c.92,5.74,3.06,19.2-5.91,43.33-12.37,33.27-61.32,35-71,35-1.52,0-2.38,0-2.42,0h-.26s-.9,0-2.42,0c-9.69,0-58.64-1.68-71-35-9-24.13-6.83-37.59-5.91-43.33l.13-.88.19-1.2a69.91,69.91,0,0,1-6.85,1.45c-.3,0-.61.09-.91.13-.16,13.57-1.78,56.5-15.63,74.14l-.25.32A199,199,0,0,0,200,400.12Z"/><path class="d" d="M283.91,296.76c-.48-.1-1-.21-1.61-.35.87,5.7,3.77,19.62-5.93,45.71C261.65,381.75,200,379,200,379s-61.65,2.75-76.37-36.88c-9.7-26.09-6.8-40-5.93-45.71-.59.14-1.13.25-1.61.35-.13,14.46-1.78,58-16.27,76.49a200.19,200.19,0,0,0,200.36,0C285.69,354.78,284,311.22,283.91,296.76Z"/><path class="h" d="M200,98H137s4.79,94.46,11,114c7,22,14.24,27.29,30.23,41,13.4,11.5,21.77,10,21.77,10s8.37,1.5,21.77-10c16-13.71,24.23-19,31.23-41,6.21-19.54,10-114,10-114Z"/><path class="e" d="M141.75,158.5S119,147.59,124.48,175.14s22,23.58,22,23.58Z"/><path class="e" d="M259.25,158.5s22.74-10.91,17.27,16.64-22,23.58-22,23.58Z"/><path class="c" d="M200.5,56c-7.42-.28-96.87-1.51-58.75,102.77,0,0-3.25-23.13,10.25-29.13l-2.5-18.06s9.85-20.2,50.5-8.83V103l.5-.14c.17,0,.5-.13.5-.13,40.65-11.37,50.5,8.83,50.5,8.83L249,129.62c13.5,6,10.25,29.13,10.25,29.13C297.37,54.47,207.92,55.7,200.5,56Z"/><path class="i" d="M176.87,58.46a69.33,69.33,0,0,0-21.33,8.72c-2.51,15.54,4.62,26.28,12.1,33a47.93,47.93,0,0,1,8.05-.91C169.12,83.76,173.92,66.43,176.87,58.46Z"/><path class="b" d="M137.16,88.29a57.78,57.78,0,0,0-4.61,19.1c5,2.37,11.44,5.27,17.42,7.54l-.47-3.37a17.33,17.33,0,0,1,4-4.75C146.93,102.45,140.41,96.48,137.16,88.29Z"/><path class="i" d="M133,124.07a123.31,123.31,0,0,0,2.3,13.18l9.3-.32a16.06,16.06,0,0,1,4.78-5.77Z"/><path class="i" d="M224.13,58.46a69.33,69.33,0,0,1,21.33,8.72c2.51,15.54-4.62,26.28-12.1,33a47.93,47.93,0,0,0-8.05-.91C231.88,83.76,227.08,66.43,224.13,58.46Z"/><path class="b" d="M263.84,88.29a57.78,57.78,0,0,1,4.61,19.1c-5,2.37-11.44,5.27-17.42,7.54l.47-3.37a17.33,17.33,0,0,0-4-4.75C254.07,102.45,260.59,96.48,263.84,88.29Z"/><path class="i" d="M268,124.07a123.31,123.31,0,0,1-2.3,13.18l-9.3-.32a16.06,16.06,0,0,0-4.78-5.77Z"/><path class="b" d="M220.82,130.08A11.1,11.1,0,0,0,218.6,127c-.24-.23-.5-.49-.73-.68l-.69-.53-1.33-1a11.44,11.44,0,0,1-1.22-1.09c-.39-.39-.82-.73-1.18-1.16l-1.11-1.23c-.36-.42-.69-.87-1-1.3-.71-.85-1.31-1.81-2-2.72s-1.23-1.87-1.79-2.85-1.11-2-1.66-3-1-2-1.5-3-1-2-1.42-3.08-.89-2.1-1.27-3.11l-.32-.87C217.94,80.61,219,65.52,217.64,57.34A93.68,93.68,0,0,0,200.11,56L200,56l-.11,0a93.68,93.68,0,0,0-17.53,1.38c-1.38,8.19-.3,23.31,16.32,44a36.73,36.73,0,0,0-4.81,1.19A33.51,33.51,0,0,0,188,105a22.72,22.72,0,0,0-9.29,8.84,20,20,0,0,0-2.13,6.13,26.41,26.41,0,0,0-.2,6.4c.14,1,.23,2.1.47,3.15l.32,1.56.41,1.48c.56,2,1.19,3.93,1.76,5.91,1.16,3.92,2.26,7.85,3.19,11.82.48,2,.88,4,1.22,6a49.39,49.39,0,0,1,.68,6,26.25,26.25,0,0,1-.33,6,16.15,16.15,0,0,1-2.11,5.58,15.34,15.34,0,0,1-4.22,4.24,24.11,24.11,0,0,1-5.46,2.69l.11.28a24.52,24.52,0,0,0,5.62-2.56,15.75,15.75,0,0,0,4.52-4.28,16.84,16.84,0,0,0,2.4-5.77,28.33,28.33,0,0,0,.54-6.22,51,51,0,0,0-.5-6.19c-.28-2.05-.63-4.09-1.05-6.1-.83-4-1.86-8-2.92-12-.53-2-1.14-4-1.62-5.91l-.37-1.49-.26-1.45c-.2-1-.26-2-.37-2.94a24.22,24.22,0,0,1,.32-5.84,17.64,17.64,0,0,1,2-5.38,19.92,19.92,0,0,1,8.5-7.61,31.07,31.07,0,0,1,5.48-2.12,37,37,0,0,1,4.6-1c.27.73.56,1.45.85,2.17.46,1.09.92,2.17,1.43,3.23s1.06,2.1,1.61,3.14,1.14,2.07,1.77,3.07,1.27,2,1.93,3,1.39,1.92,2.19,2.82c.39.45.76.92,1.17,1.36l1.26,1.29c.4.45.89.82,1.33,1.23a13.24,13.24,0,0,0,1.43,1.14l1.43,1,.71.5c.22.16.37.31.56.47a9.81,9.81,0,0,1,1.9,2.37,13.6,13.6,0,0,1,1.57,6.2,31.17,31.17,0,0,1-.62,6.71q-.33,1.68-.81,3.33c-.32,1.1-.65,2.2-1.06,3.27l.27.13a36.12,36.12,0,0,0,2.66-6.46,27.13,27.13,0,0,0,1.25-7A15.5,15.5,0,0,0,220.82,130.08Z"/></svg>