<svg xmlns="http://www.w3.org/2000/svg" viewBox="0 0 400 401"><defs><style>.a{fill:#3db093;}.b{fill:#f5f7fa;}.c{fill:#967adc;}.d{fill:#f9e0a8;}.e{fill:#d9c392;}.f{fill:#ac92ec;}.g{fill:#ffe9ba;}.h{fill:#656d78;}.i{fill:#e8eaed;}</style></defs><title>avatar6 (2)</title><circle class="a" cx="200" cy="200" r="200"/><path class="b" d="M308.5,150.45c-9.21,7-17.72,2.05-23.58-4A55.64,55.64,0,0,0,290.63,95c6-4.28,7.84-13,7.84-13-4.89,3.83-8.8,5-11.81,4.88a56,56,0,0,0-18.94-19.14,62.32,62.32,0,0,0-113.8-7.61,55.69,55.69,0,0,0-40.57,26.75c-3,.11-6.93-1-11.82-4.88,0,0,1.83,8.71,7.84,13a55.69,55.69,0,0,0,5.7,51.49c-5.87,6-14.37,11-23.57,4,0,0,10.44,11,22.29,13A31.93,31.93,0,1,0,176,173.57a31.5,31.5,0,0,0-.32-4.48A55.69,55.69,0,0,0,200,155.25a55.64,55.64,0,0,0,22.52,13.33,32.83,32.83,0,0,0-.39,5,31.93,31.93,0,1,0,62.28-9.94C297,162.53,308.5,150.45,308.5,150.45Z"/><path class="c" d="M316.67,313.67C309.31,307.31,297.3,299.11,286,298c-7.26-.71-86-23-86-23s-78.74,22.29-86,23c-11.3,1.11-23.32,9.31-30.67,15.67-13.23,11.44-10.85,25.45-14.64,38.18a200,200,0,0,0,262.62,0C327.52,339.12,329.9,325.11,316.67,313.67Z"/><path class="d" d="M222.37,277.91,200,279.75l-22.37-1.84-9.16,11.76s3.53,53.66,8.2,64.66c3.08,7.26,13.56,10.89,20.33,12.52h6c6.77-1.63,17.25-5.26,20.33-12.52,4.67-11,8.2-64.66,8.2-64.66Z"/><path class="b" d="M222.81,365.33,231.47,330l-31,21-31-21,8.67,35.33,3.7,34.81h0q9.21.86,18.63.86t18.63-.86h0Z"/><path class="d" d="M200.47,197l-42.25-5.5,16.31,88.73S178.2,311,200.47,311s25.95-30.77,25.95-30.77l16.3-88.73Z"/><path class="e" d="M234.47,206.5,165,228.09,172,266.65c10.66,13.14,26.92,25.18,51,26.26a55.33,55.33,0,0,0,3.43-12.68l12.12-66C236.16,209.45,234.47,206.5,234.47,206.5Z"/><path class="b" d="M227.85,289.65a4.21,4.21,0,0,0-4.21,4.21,4.41,4.41,0,0,0,.1.89,3.68,3.68,0,0,0-.89-.1,4.2,4.2,0,0,0-4.2,4.19,4.2,4.2,0,0,0-3,4,1.52,1.52,0,0,0,0,.21,4.2,4.2,0,0,0-6,3.79,1.52,1.52,0,0,0,0,.21,4.18,4.18,0,0,0-5.23,1.33,5.38,5.38,0,0,0-7.94,0,4.17,4.17,0,0,0-5.22-1.33c0-.07,0-.14,0-.21a4.19,4.19,0,0,0-6-3.79c0-.07,0-.14,0-.21a4.21,4.21,0,0,0-3-4,4.21,4.21,0,0,0-4.21-4.19,3.8,3.8,0,0,0-.89.1,4.41,4.41,0,0,0,.1-.89,4.21,4.21,0,1,0-4.21,4.2A4.33,4.33,0,0,0,174,298a4.26,4.26,0,0,0-.1.89,4.19,4.19,0,0,0,3,4,4.19,4.19,0,0,0,6,3.77c0,.07,0,.14,0,.22a4.19,4.19,0,0,0,6,3.78c0,.07,0,.14,0,.22a4.2,4.2,0,0,0,6.4,3.58,5.45,5.45,0,0,0,10.39,0,4.2,4.2,0,0,0,6.39-3.58c0-.08,0-.15,0-.22a4.19,4.19,0,0,0,6-3.78c0-.08,0-.15,0-.22a4.19,4.19,0,0,0,6-3.77,4.19,4.19,0,0,0,3-4,3.68,3.68,0,0,0-.1-.89,4.41,4.41,0,0,0,.89.09,4.21,4.21,0,1,0,0-8.41Z"/><path class="f" d="M172,268.5s-45.33,6.25-35.5,45.58,11.17,53.3,11.17,53.3S163,348,167,353.69s-9.25,21.65-9.25,21.65l23.62,24.8L183,362.75l-8.63-80.57Z"/><path class="f" d="M228,268.5s45.33,6.25,35.5,45.58-11.17,53.3-11.17,53.3S237,348,233,353.69s9.25,21.65,9.25,21.65l-23.62,24.8L217,362.75l8.63-80.57Z"/><path class="g" d="M200,98H137s4.79,94.46,11,114c7,22,14.24,27.29,30.23,41,13.4,11.5,21.77,10,21.77,10s8.37,1.5,21.77-10c16-13.71,24.23-19,31.23-41,6.21-19.54,10-114,10-114Z"/><path class="d" d="M141.75,158.5S119,147.59,124.48,175.14s22,23.58,22,23.58Z"/><path class="d" d="M259.25,158.5s22.74-10.91,17.27,16.64-22,23.58-22,23.58Z"/><path class="h" d="M258.57,158.87l-22.08,8.79a15,15,0,0,0-28.14,4,13.26,13.26,0,0,0-16.7,0,15,15,0,0,0-28.14-4l-22.08-8.79.06,2s19.42,9.41,20.64,11.21a15.31,15.31,0,0,0-.19,2.26,15,15,0,0,0,29.94.4c1.58-2.78,5.14-3.85,8.12-3.91s6.54,1.13,8.12,3.91a15,15,0,0,0,29.94-.4,15.31,15.31,0,0,0-.19-2.26c1.22-1.8,20.64-11.21,20.64-11.21Z"/><path class="b" d="M189.94,174.3a13,13,0,1,1-13-13A13,13,0,0,1,189.94,174.3Z"/><path class="b" d="M210.06,174.3a13,13,0,1,0,13-13A13,13,0,0,0,210.06,174.3Z"/><path class="i" d="M176.92,161.28a12.94,12.94,0,0,0-3.54.5l-7.3,19.73a13.06,13.06,0,0,0,7.15,5.28l9-24.36A13,13,0,0,0,176.92,161.28Z"/><path class="i" d="M183.51,163.09l-8.89,24a13.38,13.38,0,0,0,2.3.22A13.05,13.05,0,0,0,180,187l7.48-20.24A13,13,0,0,0,183.51,163.09Z"/><path class="i" d="M223.22,161.28a12.94,12.94,0,0,0-3.54.5l-7.3,19.73a13.06,13.06,0,0,0,7.15,5.28l9-24.36A12.92,12.92,0,0,0,223.22,161.28Z"/><path class="i" d="M229.82,163.09l-8.9,24a13.48,13.48,0,0,0,2.3.22,13.05,13.05,0,0,0,3.08-.38l7.48-20.24A13.06,13.06,0,0,0,229.82,163.09Z"/><path class="b" d="M129,143.5s21.5,8,38.5-29c0,0-1.25-12.12,14.75-8.56S185,190.46,281,144.23L276.89,90.5S271,47.67,200.5,47.67s-71.5,51-71.5,51Z"/></svg>