<?xml version="1.0" encoding="UTF-8"?>
<svg width="95px" height="95px" viewBox="0 0 95 95" version="1.1" xmlns="http://www.w3.org/2000/svg" xmlns:xlink="http://www.w3.org/1999/xlink">
    <!-- Generator: Sketch 51.3 (57544) - http://www.bohemiancoding.com/sketch -->
    <title>Add</title>
    <desc>Created with Sketch.</desc>
    <defs>
        <circle id="path-1" cx="32.5" cy="32.5" r="32.5"></circle>
        <filter x="-38.5%" y="-30.8%" width="176.9%" height="176.9%" filterUnits="objectBoundingBox" id="filter-2">
            <feOffset dx="0" dy="5" in="SourceAlpha" result="shadowOffsetOuter1"></feOffset>
            <feGaussianBlur stdDeviation="7.5" in="shadowOffsetOuter1" result="shadowBlurOuter1"></feGaussianBlur>
            <feColorMatrix values="0 0 0 0 0.278431373   0 0 0 0 0.874509804   0 0 0 0 0.498039216  0 0 0 0.372367527 0" type="matrix" in="shadowBlurOuter1"></feColorMatrix>
        </filter>
    </defs>
    <g id="Empty-States" stroke="none" stroke-width="1" fill="none" fill-rule="evenodd">
        <g id="4.4_No-Purchases" transform="translate(-140.000000, -542.000000)">
            <g id="Add" transform="translate(155.000000, 552.000000)">
                <g id="Oval-Copy">
                    <use fill="black" fill-opacity="1" filter="url(#filter-2)" xlink:href="#path-1"></use>
                    <use fill="#00CF6B" fill-rule="evenodd" xlink:href="#path-1"></use>
                </g>
                <path d="M35,31 L41,31 C42.1045695,31 43,31.8954305 43,33 C43,34.1045695 42.1045695,35 41,35 L35,35 L35,41 C35,42.1045695 34.1045695,43 33,43 C31.8954305,43 31,42.1045695 31,41 L31,35 L25,35 C23.8954305,35 23,34.1045695 23,33 C23,31.8954305 23.8954305,31 25,31 L31,31 L31,25 C31,23.8954305 31.8954305,23 33,23 C34.1045695,23 35,23.8954305 35,25 L35,31 Z" id="Combined-Shape" fill="#FFFFFF"></path>
            </g>
        </g>
    </g>
</svg>
