<?xml version="1.0" encoding="UTF-8"?>
<svg width="16px" height="13px" viewBox="0 0 16 13" version="1.1" xmlns="http://www.w3.org/2000/svg" xmlns:xlink="http://www.w3.org/1999/xlink">
    <!-- Generator: Sketch 51.3 (57544) - http://www.bohemiancoding.com/sketch -->
    <title>Shape</title>
    <desc>Created with Sketch.</desc>
    <defs></defs>
    <g id="Page-1" stroke="none" stroke-width="1" fill="none" fill-rule="evenodd">
        <g id="Landlord-Manage-Tenancies-/-01-Dashboard-:-Properties-:-Unpublished" transform="translate(-1121.000000, -587.000000)" fill="#FFFFFF" fill-rule="nonzero">
            <g id="Group" transform="translate(1108.000000, 575.000000)">
                <path d="M28.2334626,18.0294363 L22.6550404,12.2135495 C22.3945922,11.9493427 21.9726483,11.9187243 21.6689995,12.1868654 C21.3975342,12.4265777 21.3907705,12.8940969 21.6418052,13.1544038 L26.1197927,17.8156556 L13.288861,17.8156556 C12.903713,17.8156556 12.903713,19.1841055 13.288861,19.1841055 L26.1197927,19.1841055 L21.6418052,23.8453402 C21.3908053,24.1056129 21.4086246,24.5616374 21.6689995,24.8128444 C21.9439164,25.0780433 22.3985668,25.0544382 22.6550404,24.7861603 L28.2334626,18.9703248 C28.5163669,18.6556576 28.4722041,18.29833 28.2334626,18.0294363 Z" id="Shape" transform="translate(20.714715, 18.500000) rotate(-180.000000) translate(-20.714715, -18.500000) "></path>
            </g>
        </g>
    </g>
</svg>