<?xml version="1.0" encoding="UTF-8"?>
<svg width="229px" height="337px" viewBox="0 0 229 337" version="1.1" xmlns="http://www.w3.org/2000/svg" xmlns:xlink="http://www.w3.org/1999/xlink">
    <!-- Generator: Sketch 51.3 (57544) - http://www.bohemiancoding.com/sketch -->
    <title>ballon</title>
    <desc>Created with Sketch.</desc>
    <defs>
        <linearGradient x1="68.9780238%" y1="-45.6354604%" x2="50%" y2="100%" id="linearGradient-1">
            <stop stop-color="#DF94AD" offset="0%"></stop>
            <stop stop-color="#BC5B74" offset="100%"></stop>
        </linearGradient>
        <path d="M4.64069108,0.481132941 L17.5936512,6.30063849 C23.316317,8.93170723 29.8130187,8.93125077 35.5380079,6.29938691 L48.4874398,0.481987495 C50.0050147,-0.188044729 51.7029477,0.461564832 52.2701195,1.93293106 C52.4160795,2.31386178 52.4759535,2.72756324 52.4459771,3.14613172 L50.5837346,23.2943793 C50.3521636,26.5278676 47.7850115,29.1491279 44.8498398,29.1491279 L8.24477452,29.1491279 C5.30960282,29.1491279 2.74502731,26.5278676 2.5166348,23.2943793 L0.679904348,3.14544404 C0.565708094,1.52869986 1.78748195,0.218069742 3.40881264,0.218069742 C3.82843238,0.218069742 4.24859022,0.30777299 4.64069108,0.481132941 Z" id="path-2"></path>
        <linearGradient x1="50%" y1="0%" x2="50%" y2="64.1966025%" id="linearGradient-4">
            <stop stop-color="#F2AEAE" offset="0%"></stop>
            <stop stop-color="#E27689" offset="100%"></stop>
        </linearGradient>
        <linearGradient x1="50%" y1="0%" x2="50%" y2="64.1966025%" id="linearGradient-5">
            <stop stop-color="#F2C6AE" offset="0%"></stop>
            <stop stop-color="#E27689" offset="100%"></stop>
        </linearGradient>
    </defs>
    <g id="Page-1" stroke="none" stroke-width="1" fill="none" fill-rule="evenodd">
        <g id="Landlord-Manage-Tenancies-/-01-Dashboard-:-Properties-:-Published-Confirm-Modal" transform="translate(-553.000000, -113.000000)">
            <g id="Artwork" transform="translate(428.000000, 113.000000)">
                <g id="ballon" transform="translate(125.960265, 0.000000)">
                    <g id="Group" transform="translate(104.321515, 291.192114)">
                        <g id="Group-2-Copy" transform="translate(9.417910, 11.395124) rotate(6.000000) translate(-9.417910, -11.395124) translate(5.753451, 6.638141)" fill="#9FB2C3">
                            <polygon id="Rectangle-4-Copy" transform="translate(3.470293, 4.865817) rotate(-63.000000) translate(-3.470293, -4.865817) " points="-0.921872042 3.28707675 7.86245766 4.50295547 7.80089245 6.44455626 -0.921872042 6.44455626"></polygon>
                        </g>
                        <rect id="Rectangle-8" fill="#FAC1B7" x="2.93156733" y="8.05027933" width="2.93156733" height="4.39106145"></rect>
                        <path d="M3.5222879,11.3536814 C5.01358176,11.0305621 6.77188334,11.4238476 8.79719263,12.533538 C8.01071579,19.0295099 8.19463618,24.06981 9.3489538,27.6544384 C5.31235982,29.3191085 2.59896581,28.7766701 1.20877176,26.0271233 C1.39706194,17.79574 1.49120703,13.6800484 1.49120703,13.6800484 C1.49120703,13.6800484 1.28534711,11.8383605 3.5222879,11.3536814 Z" id="Rectangle" fill="#ACBBCA"></path>
                        <path d="M14.7653677,5.14510906 L15.8195587,5.35396431 C17.2082022,5.62908095 18.2087709,6.84732898 18.2087709,8.26296311 L18.2087709,8.26296311 C18.2087709,9.26519756 17.3962993,10.0776691 16.3940649,10.0776691 C16.2182549,10.0776691 16.043378,10.0521209 15.8749158,10.0018254 L14.618819,9.62680921 C13.4061228,9.26475057 12.5853117,8.13642322 12.614201,6.87116282 L12.614201,6.87116282 C12.6369127,5.87646737 13.4616841,5.08851881 14.4563795,5.11123044 C14.5601593,5.11360002 14.6635401,5.12493507 14.7653677,5.14510906 Z" id="Rectangle-3" fill="#FFFFFF"></path>
                        <rect id="Rectangle-5" fill="#E8EDF0" x="17.5134596" y="7.81604917" width="1" height="1.07470676" rx="0.5"></rect>
                        <rect id="Rectangle-5-Copy" fill="#E8EDF0" x="17.415619" y="7.22984549" width="1" height="1" rx="0.5"></rect>
                        <g id="Group-4" transform="translate(14.917573, 7.694640) rotate(23.000000) translate(-14.917573, -7.694640) translate(9.420884, 4.767266)">
                            <path d="M6.02147543,0.0788578876 C6.12166364,0.0275322762 6.22767129,5.68434189e-14 6.33735878,5.68434189e-14 C6.95641111,5.68434189e-14 7.45825218,0.876965741 7.45825218,1.9587578 C7.45825218,3.04054987 6.95641111,3.91751561 6.33735878,3.91751561 L1.85378522,5.03680578 L1.85378522,1.11929017 L6.02147543,0.0788578876 Z" id="Combined-Shape" fill="#4C4C4C"></path>
                            <ellipse id="Oval-27" fill="#838383" cx="1.85378522" cy="3.07804798" rx="1.12089339" ry="1.9587578"></ellipse>
                            <path d="M8.8237089,0.638502975 C8.92389712,0.587177363 9.02990477,0.559645087 9.13959226,0.559645087 C9.75864459,0.559645087 10.2604857,1.43661083 10.2604857,2.51840289 C10.2604857,3.60019496 9.75864459,4.4771607 9.13959226,4.4771607 L4.6560187,5.59645087 L4.6560187,1.67893526 L8.8237089,0.638502975 Z" id="Combined-Shape" fill="#565656"></path>
                            <ellipse id="Oval-27-Copy" fill="#838383" cx="4.6560187" cy="3.63769307" rx="1.12089339" ry="1.9587578"></ellipse>
                            <ellipse id="Oval-27-Copy-5" fill="#000000" opacity="0.229110054" cx="1.46629043" cy="3.14702858" rx="1" ry="1.47589357"></ellipse>
                            <ellipse id="Oval-27-Copy-4" fill="#000000" opacity="0.229110054" cx="4.31062166" cy="3.56871246" rx="1" ry="1.47589357"></ellipse>
                        </g>
                        <g id="Group-2" transform="translate(11.896366, 12.689079) rotate(4.000000) translate(-11.896366, -12.689079) translate(5.300340, 6.468408)">
                            <path d="M1.75231106,5.55165855 L9.59227986,9.36999763 L8.78096675,11.0310568 C8.45367899,11.7011363 7.67430932,12.018497 6.97110169,11.7680369 L0.238214616,9.36999763 L1.75231106,5.55165855 Z" id="Rectangle-4" fill="#ACBBCA"></path>
                            <path d="M12.3387373,0.380970115 C13.1964583,0.744107412 13.2750657,1.48320046 12.5745595,2.59824925 C11.6072598,4.13797339 11.4420353,4.63477303 12.0788858,4.08864817 L10.9331324,2.59675962 C11.2820023,2.64116139 11.3625425,2.55690825 11.1747529,2.34400019 C11.0353531,2.18595443 11.0835434,1.92966452 11.094138,1.19280233 C11.094138,1.19280233 11.094138,1.19280233 11.094138,1.19280233 L11.094138,1.19280233 C11.1012484,0.69826483 11.5079145,0.303127135 12.002452,0.310237586 C12.1180591,0.311899784 12.2322506,0.335932797 12.3387206,0.381009504 Z" id="Path-2" fill="#FAC1B7"></path>
                            <polygon id="Rectangle-4-Copy" fill="#ACBBCA" transform="translate(9.354452, 6.348173) rotate(-63.000000) translate(-9.354452, -6.348173) " points="4.96228758 4.76943349 13.7466173 5.98531222 13.6850521 7.926913 4.96228758 7.926913"></polygon>
                        </g>
                        <ellipse id="Oval-2" fill="#FAC1B7" cx="6.22958057" cy="5.8547486" rx="2.56512141" ry="4.39106145"></ellipse>
                        <path d="M4.79752047,0.0544393019 L4.79752047,0.0544393019 C6.38666808,0.03299505 7.69231075,1.30386972 7.713755,2.89301732 C7.71817646,3.22067379 7.66660194,3.54667851 7.56125607,3.8569696 C6.77473242,6.17359105 6.2666828,7.49158291 6.03709341,7.8109405 C4.61619312,9.6523356 3.57953545,9.91093485 2.39344314,8.98476886 C1.81212843,8.53084642 0.420649899,7.09281751 0.420649899,5.71543154 C0.420649899,5.25492296 0.426815242,4.80051905 0.439145928,4.3522198 L0.439123937,4.35221919 C0.50430044,1.98263667 2.42725756,0.0864240683 4.79752047,0.0544393019 Z" id="Rectangle-41" fill="#FF6D6D"></path>
                        <rect id="Rectangle-9" fill="#FF6D6D" x="6.59602649" y="4.39106145" width="1" height="2.19553073"></rect>
                    </g>
                    <g id="Group-2" transform="translate(87.679232, 254.491200)">
                        <path d="M9.62907115,1.97343947 L9.62907115,61.6755468" id="Line" stroke="#88776D" stroke-width="2" stroke-linecap="square"></path>
                        <path d="M42.9418237,1.97343947 L42.9418237,61.6755468" id="Line-Copy-3" stroke="#88776D" stroke-width="2" stroke-linecap="square"></path>
                        <path d="M20.1488878,0.657813156 L20.1488878,27.4914301" id="Line-Copy" stroke="#88776D" stroke-width="2" stroke-linecap="square"></path>
                        <path d="M30.6687044,0.657813156 L30.6687044,27.4914301" id="Line-Copy-2" stroke="#88776D" stroke-width="2" stroke-linecap="square"></path>
                        <g id="Rectangle-10" transform="translate(0.000000, 52.692737)">
                            <mask id="mask-3" fill="white">
                                <use xlink:href="#path-2"></use>
                            </mask>
                            <use id="Mask" fill="url(#linearGradient-1)" xlink:href="#path-2"></use>
                            <rect fill="#8F3C53" mask="url(#mask-3)" x="0" y="10.9776536" width="53.5011038" height="4.39106145"></rect>
                        </g>
                        <path d="M11.7262693,75.867784 C13.3453292,75.867784 14.6578366,74.5571539 14.6578366,72.9404097 C14.6578366,71.8625802 13.6806475,70.2362612 11.7262693,68.0614525 C9.7718911,70.2362612 8.79470199,71.8625802 8.79470199,72.9404097 C8.79470199,74.5571539 10.1072094,75.867784 11.7262693,75.867784 Z" id="Oval-3" fill="#FFB379"></path>
                        <path d="M21.2538631,75.867784 C22.8729231,75.867784 24.1854305,74.5571539 24.1854305,72.9404097 C24.1854305,71.8625802 23.2082414,70.2362612 21.2538631,68.0614525 C19.2994849,70.2362612 18.3222958,71.8625802 18.3222958,72.9404097 C18.3222958,74.5571539 19.6348032,75.867784 21.2538631,75.867784 Z" id="Oval-3-Copy" fill="#FFB379"></path>
                        <path d="M31.5143488,75.867784 C33.1334087,75.867784 34.4459161,74.5571539 34.4459161,72.9404097 C34.4459161,71.8625802 33.468727,70.2362612 31.5143488,68.0614525 C29.5599706,70.2362612 28.5827815,71.8625802 28.5827815,72.9404097 C28.5827815,74.5571539 29.8952889,75.867784 31.5143488,75.867784 Z" id="Oval-3-Copy-2" fill="#FFB379"></path>
                        <path d="M41.7748344,75.867784 C43.3938944,75.867784 44.7064018,74.5571539 44.7064018,72.9404097 C44.7064018,71.8625802 43.7292127,70.2362612 41.7748344,68.0614525 C39.8204562,70.2362612 38.8432671,71.8625802 38.8432671,72.9404097 C38.8432671,74.5571539 40.1557745,75.867784 41.7748344,75.867784 Z" id="Oval-3-Copy-3" fill="#FFB379"></path>
                        <rect id="Rectangle-2" fill="#756660" x="8.9705113" y="25.8894953" width="34.4459161" height="4.39106145" rx="2.19553073"></rect>
                    </g>
                    <g id="Group">
                        <path d="M37.4127471,180.739574 C16.1594225,158.958734 0,130.515559 0,100.571382 C0,36.6305518 49.2735082,1.89940905 113.305925,1.89940905 C177.338341,1.89940905 227.92936,36.6305518 227.92936,100.571382 C227.92936,125.796073 216.257236,149.955621 199.689502,169.96469 C199.778292,169.964641 199.866666,169.964641 199.954661,169.964641 C199.152188,170.804786 198.356305,171.641474 197.567011,172.474703 C194.830898,175.643697 191.974956,178.701373 189.027574,181.634821 C158.571275,214.857552 139.268468,242.226198 131.119154,263.740759 C125.731019,261.986591 120.342885,261.109506 114.95475,261.109506 C109.566615,261.109506 103.659418,261.986591 97.2331591,263.740759 C85.4048077,241.021673 65.4646704,213.354611 37.4127471,180.739574 Z" id="Combined-Shape" fill="url(#linearGradient-4)"></path>
                        <path d="M76.92338,3.97684621 C105.988685,-1.06642362 51.6174112,35.5736701 51.6174112,85.4615484 C51.6174112,135.349427 87.9986618,194.083288 97.2608901,241.343398 C88.7134303,241.343398 91.3030601,241.343398 90.5011376,241.343398 C79.29803,200.778342 19.7626613,134.478563 19.7626613,85.4615484 C19.7626613,36.444534 47.8580749,9.02011604 76.92338,3.97684621 Z" id="Rectangle-42-Copy" fill="#FFFFFF"></path>
                        <path d="M186.276772,3.97684621 C215.342077,-1.06642362 160.970803,35.5736701 160.970803,85.4615484 C160.970803,135.349427 197.352054,194.083288 206.614282,241.343398 C198.066823,241.343398 200.656452,241.343398 199.85453,241.343398 C188.651422,200.778342 129.116054,134.478563 129.116054,85.4615484 C129.116054,36.444534 157.211467,9.02011604 186.276772,3.97684621 Z" id="Rectangle-42-Copy-3" fill="#FFFFFF" transform="translate(167.865168, 122.428053) scale(-1, 1) translate(-167.865168, -122.428053) "></path>
                        <path d="M108.280259,7.1619143 C135.026811,-17.7908622 180.169595,27.6594498 180.169595,79.4660927 C180.169595,131.272736 140.573008,193.922202 131.538573,241.343398 C117.821279,241.343398 112.509043,241.343398 95.593905,241.343398 C86.5743919,190.043585 49.0772755,130.368377 49.0772755,79.4660927 C49.0772755,28.5638085 82.5612335,-16.9894952 108.280259,7.1619143 Z" id="Rectangle-42-Copy-2" fill="url(#linearGradient-5)"></path>
                        <path d="M110.670903,0.583782736 C132.538933,0.583782736 155.466269,35.5736701 155.466269,85.4615484 C155.466269,135.349427 131.824807,182.424554 122.964846,241.343398 C114.417386,241.343398 115.5046,241.343398 104.964514,241.343398 C97.8416251,187.028292 73.780602,133.162937 73.780602,84.1459221 C73.780602,35.1289077 88.8028732,0.583782736 110.670903,0.583782736 Z" id="Rectangle-42" fill="#FFFFFF"></path>
                        <path d="M39.4588481,182.800491 C19.3727247,162.915018 3.39940405,137.107907 0.478413081,109.548857 C22.7454535,147.098462 67.5561847,172.749266 119.207835,172.749266 C161.083277,172.749266 198.46232,155.889506 222.977344,129.498089 C216.197079,149.534135 203.086841,167.976025 187.62948,183.010375 C156.629739,216.851706 137.792964,243.761834 131.119154,263.740759 C125.731019,262.062348 120.342885,261.223142 114.95475,261.223142 C109.566615,261.223142 103.659418,262.062348 97.2331591,263.740759 C86.6176369,242.832865 67.359538,215.852781 39.4588623,182.800505 Z" id="Combined-Shape" fill="#B1EBFF" opacity="0.25854846" style="mix-blend-mode: multiply;"></path>
                    </g>
                </g>
            </g>
        </g>
    </g>
</svg>