<?xml version="1.0" encoding="UTF-8"?>
<svg width="577px" height="320px" viewBox="0 0 577 320" version="1.1" xmlns="http://www.w3.org/2000/svg" xmlns:xlink="http://www.w3.org/1999/xlink">
    <!-- Generator: Sketch 51.3 (57544) - http://www.bohemiancoding.com/sketch -->
    <title>list-by-entire-graphic</title>
    <desc>Created with Sketch.</desc>
    <defs></defs>
    <g id="Page-1" stroke="none" stroke-width="1" fill="none" fill-rule="evenodd">
        <g id="Account-/-02-Copy-5" transform="translate(-683.000000, -307.000000)">
            <g id="list-by-entire-graphic" transform="translate(683.000000, 307.000000)">
                <path d="M394.559092,44.9835502 C394.559092,57.1731372 339.040163,74.7138661 322.210473,90.5312126 C313.67484,98.5539911 317.11384,105.026512 329.180781,101.19415 C338.543266,98.2234794 362.514135,91.1764974 389.778667,87.7966216 C401.511725,86.3388289 408.976966,90.2459495 414.678517,95.7564455 C463.712251,143.147498 472.232172,248.942724 439.38393,318 L98.0744994,318 C15.2301545,134.034817 142.42208,-7.38485095 302.124436,12.9475217 C324.184313,15.7549039 296.766588,24.3757512 281.568998,36.9194578 C271.907982,44.8950203 280.950332,43.1814745 286.32782,42.2096126 C346.145989,31.3853539 394.559092,30.799089 394.559092,44.9835502" id="Fill-1" fill="#D3F2FF" transform="translate(265.500000, 164.500000) scale(-1, 1) translate(-265.500000, -164.500000) "></path>
                <path d="M424,161.639922 L424,236.224187 L410.06098,236.224187 L410.06098,289.300724 L412.921373,289.300724 L412.921373,318 L134.605933,318 L134.605933,289.300724 L137.466326,289.300724 L137.466326,207.02107 L121.167187,219.339597 C120.490345,219.853279 119.521186,219.71551 119.011103,219.038473 L115.309071,214.108307 C114.798988,213.429302 114.934356,212.457046 115.611198,211.9473 L218.006592,134.5368 L253.857634,161.639922 L280.429075,161.639922 L280.429075,152.682961 L282.865705,152.682961 L282.865705,135.215805 L280.429075,135.215805 L280.429075,128.106918 L282.865705,128.106918 L282.865705,121 L298.546858,121 L298.546858,128.106918 L300.983489,128.106918 L300.983489,135.215805 L298.546858,135.215805 L298.546858,152.682961 L300.983489,152.682961 L300.983489,161.639922 L424,161.639922 Z" id="Fill-3" fill="#FFFFFF"></path>
                <path d="M283,182.15022 C283,183.171512 282.103769,184 281.001033,184 C279.896231,184 279,183.171512 279,182.15022 L279,172.847871 C279,171.828488 279.896231,171 281.001033,171 C282.103769,171 283,171.828488 283,172.847871 L283,182.15022 Z" id="Fill-5" fill="#4A90E2"></path>
                <path d="M265,168.184887 C265,169.186199 264.105372,170 263,170 C261.896694,170 261,169.186199 261,168.184887 L261,161.815113 C261,160.811926 261.896694,160 263,160 C264.105372,160 265,160.811926 265,161.815113 L265,168.184887 Z" id="Fill-7" fill="#98D7DA"></path>
                <path d="M408,220.08781 C408,221.142675 407.103769,222 406.001033,222 C404.898296,222 404,221.142675 404,220.08781 L404,161.91219 C404,160.857325 404.898296,160 406.001033,160 C407.103769,160 408,160.857325 408,161.91219 L408,220.08781 Z" id="Fill-9" fill="#4A90E2"></path>
                <path d="M390,220.08781 C390,221.142675 389.103769,222 388.001033,222 C386.896231,222 386,221.142675 386,220.08781 L386,161.91219 C386,160.857325 386.896231,160 388.001033,160 C389.103769,160 390,160.857325 390,161.91219 L390,220.08781 Z" id="Fill-11" fill="#4A90E2"></path>
                <path d="M372,220.08781 C372,221.142675 371.103306,222 370,222 C368.894628,222 368,221.142675 368,220.08781 L368,161.91219 C368,160.857325 368.894628,160 370,160 C371.103306,160 372,160.857325 372,161.91219 L372,220.08781 Z" id="Fill-13" fill="#4A90E2"></path>
                <path d="M354,220.08781 C354,221.142675 353.103306,222 352,222 C350.894628,222 350,221.142675 350,220.08781 L350,161.91219 C350,160.857325 350.894628,160 352,160 C353.103306,160 354,160.857325 354,161.91219 L354,220.08781 Z" id="Fill-15" fill="#4A90E2"></path>
                <path d="M336,220.08781 C336,221.142675 335.103306,222 334,222 C332.894628,222 332,221.142675 332,220.08781 L332,161.91219 C332,160.857325 332.894628,160 334,160 C335.103306,160 336,160.857325 336,161.91219 L336,220.08781 Z" id="Fill-17" fill="#4A90E2"></path>
                <path d="M318,209.100208 C318,210.148234 317.103769,211 316.001033,211 C314.896231,211 314,210.148234 314,209.100208 L314,161.899792 C314,160.851766 314.896231,160 316.001033,160 C317.103769,160 318,160.851766 318,161.899792 L318,209.100208 Z" id="Fill-19" fill="#4A90E2"></path>
                <path d="M301,196.091427 C301,197.144297 300.103769,198 299.001033,198 C297.896231,198 297,197.144297 297,196.091427 L297,172.908573 C297,171.855703 297.896231,171 299.001033,171 C300.103769,171 301,171.855703 301,172.908573 L301,196.091427 Z" id="Fill-21" fill="#4A90E2"></path>
                <path d="M137,206.933204 L217.671343,146 L259.552529,177.634606 L254.360858,181.554217 L222.49555,157.48702 L213.462198,164.3099 C209.844535,165.355786 206.782981,167.713461 204.821858,170.835362 L137,222.062113 L137,206.933204 Z M168.110728,278.666018 L209.447594,278.666018 L209.447594,228.72939 L168.110728,228.72939 L168.110728,278.666018 Z M245.649775,289.278511 L255.942726,289.278511 L255.942726,251.983121 C259.352094,249.536811 262.883295,247.714881 266.54812,246.560664 L266.54812,278.666018 L272.350923,278.666018 L272.350923,245.313873 C277.294998,244.728886 282.476844,245.311904 287.922007,247.159439 L287.922007,220.192912 C271.857695,210.667667 257.956906,211.357046 245.649775,220.192912 L245.649775,289.278511 Z M255.140984,318 L242.784727,318 L242.784727,289.278511 L255.140984,318 Z M179.240791,310.988033 L198.317531,310.988033 L198.317531,303.723951 L179.240791,303.723951 L179.240791,310.988033 Z M410.038295,236.160893 L410.038295,245.705835 L334.792464,245.705835 L341.290896,260.809138 L335.725865,268.209127 L327.350807,268.209127 L327.350807,318 L301.205769,318 L301.205769,289.278511 L298.342686,289.278511 L298.342686,214.640458 L271.698525,194.514538 L235.229096,222.062113 L235.229096,267.50596 L212.43251,213.224277 L217.671343,220.192912 L235.229096,206.933204 L266.785891,183.096456 L298.342686,206.830782 L314.670316,219.265205 L320.233383,211.863246 L326.700374,226.893673 L424,226.893673 L424,236.160893 L410.038295,236.160893 Z M220.396872,171.556255 C228.023245,171.556255 234.205304,177.752786 234.205304,185.395042 C234.205304,193.039267 228.023245,199.235797 220.396872,199.235797 C212.772465,199.235797 206.590406,193.039267 206.590406,185.395042 C206.590406,177.752786 212.772465,171.556255 220.396872,171.556255 Z" id="Fill-23" fill="#4A90E2"></path>
                <path d="M176.156838,309.173044 L196.734652,309.173044 L196.734652,298.456406 L176.156838,298.456406 L176.156838,309.173044 Z M174.256502,294.642544 L198.634988,294.642544 C199.685277,294.642544 200.537287,295.495541 200.537287,296.549475 L200.537287,311.081945 C200.537287,312.135879 199.685277,312.986906 198.634988,312.986906 L174.256502,312.986906 C173.206213,312.986906 172.354203,312.135879 172.354203,311.081945 L172.354203,296.549475 C172.354203,295.495541 173.206213,294.642544 174.256502,294.642544 Z M289.116902,294.642544 L289.116902,291.275864 L288.152992,291.275864 L280.162943,291.275864 L253.915531,291.275864 L245.923518,291.275864 L244.961571,291.275864 L244.961571,294.642544 L289.116902,294.642544 Z M244.961571,301.823085 L289.116902,301.823085 L289.116902,298.456406 L244.961571,298.456406 L244.961571,301.823085 Z M244.961571,309.175014 L289.116902,309.175014 L289.116902,305.638917 L244.961571,305.638917 L244.961571,309.175014 Z M165.037516,276.843863 L172.356166,276.843863 L172.356166,223.44979 L165.037516,223.44979 L165.037516,276.843863 Z M200.537287,276.845833 L207.855937,276.845833 L207.855937,223.45176 L200.537287,223.45176 L200.537287,276.845833 Z M176.156838,276.843863 L196.734652,276.843863 L196.734652,223.44979 L176.156838,223.44979 L176.156838,276.843863 Z M163.13718,219.637898 L174.256502,219.637898 L198.634988,219.637898 L209.75431,219.637898 C210.804599,219.637898 211.65661,220.488925 211.65661,221.542859 L211.65661,278.750794 C211.65661,279.806698 210.804599,280.659695 209.75431,280.659695 L198.634988,280.659695 L174.256502,280.659695 L163.13718,280.659695 C162.086891,280.659695 161.236844,279.806698 161.236844,278.750794 L161.236844,221.542859 C161.236844,220.488925 162.086891,219.637898 163.13718,219.637898 Z M226.303725,170.510781 C224.152105,168.349724 221.177922,167.016054 217.89356,167.016054 C214.609198,167.016054 211.635015,168.349724 209.483395,170.510781 C207.331774,172.669868 206.000754,175.654373 206.000754,178.948163 C206.000754,182.245893 207.331774,185.230398 209.483395,187.389486 C211.635015,189.548573 214.609198,190.884213 217.89356,190.884213 C221.177922,190.884213 224.152105,189.548573 226.303725,187.389486 C228.455346,185.230398 229.788329,182.245893 229.788329,178.948163 C229.788329,175.654373 228.455346,172.669868 226.303725,170.510781 Z M217.89356,163.200221 C222.226248,163.200221 226.150599,164.963345 228.993251,167.813892 C231.831976,170.662469 233.589002,174.600439 233.589002,178.948163 C233.589002,183.297858 231.831976,187.235828 228.993251,190.086375 C226.150599,192.934952 222.226248,194.698075 217.89356,194.698075 C213.560872,194.698075 209.636521,192.934952 206.795832,190.086375 C203.957107,187.235828 202.200081,183.297858 202.200081,178.948163 C202.200081,174.600439 203.957107,170.662469 206.795832,167.813892 C209.636521,164.963345 213.560872,163.200221 217.89356,163.200221 Z M233.61256,210.830161 L220.34358,220.863219 C219.587765,221.434511 218.669007,221.643328 217.801292,221.523159 C216.927687,221.399051 216.099234,220.943988 215.529919,220.18555 L211.825441,215.252744 C211.256126,214.492336 211.046068,213.57236 211.167783,212.699663 C211.291462,211.823026 211.744952,210.991699 212.498804,210.420407 L256.212425,177.366277 L217.970123,148.451055 L139.278931,207.955975 L139.278931,287.460032 L232.650613,287.460032 L233.61256,287.460032 L233.61256,210.830161 Z M299.21342,205.115278 C299.572678,205.245296 299.882856,205.481692 300.10273,205.787037 L315.733388,217.604889 L319.007934,213.245345 L267.039237,173.946409 L260.527444,178.869365 L260.488181,178.902854 L215.07054,213.245345 L218.345086,217.604889 L234.287886,205.550641 C234.340891,205.505332 234.397822,205.461992 234.456717,205.424563 L265.865269,181.672632 C266.526853,181.15256 267.478984,181.117101 268.181794,181.648992 L299.21342,205.115278 Z M289.346592,220.059472 C289.778486,220.406186 290.055292,220.943988 290.055292,221.542859 L290.055292,287.460032 L291.015275,287.460032 L296.663279,287.460032 L296.663279,236.240807 L296.663279,226.972097 L296.663279,207.955975 L267.039237,185.553473 L237.413232,207.955975 L237.413232,287.460032 L243.061235,287.460032 L244.023182,287.460032 L244.023182,221.542859 C244.023182,220.943988 244.299987,220.406186 244.731882,220.059472 C247.774775,217.321213 251.277048,215.187735 255.052199,213.731927 C258.860724,212.262329 262.920533,211.492071 267.039237,211.492071 C271.157941,211.492071 275.21775,212.262329 279.026275,213.731927 C282.799463,215.187735 286.303698,217.321213 289.346592,220.059472 Z M255.813904,287.460032 L278.260643,287.460032 L278.260643,228.879028 L255.813904,228.879028 L255.813904,287.460032 Z M252.013232,287.460032 L252.013232,226.972097 C252.013232,225.920133 252.865242,225.065166 253.915531,225.065166 L280.162943,225.065166 C281.211269,225.065166 282.063279,225.920133 282.063279,226.972097 L282.063279,287.460032 L286.254619,287.460032 L286.254619,222.403736 C283.675031,220.199339 280.771521,218.473646 277.675622,217.277874 C274.32255,215.983603 270.720157,215.303963 267.039237,215.303963 C263.356354,215.303963 259.755924,215.983603 256.404814,217.277874 C253.306952,218.473646 250.40148,220.199339 247.823854,222.403736 L247.823854,287.460032 L252.013232,287.460032 Z M272.598898,280.659695 L261.479576,280.659695 C260.429287,280.659695 259.57924,279.806698 259.57924,278.750794 L259.57924,236.240807 C259.57924,235.188843 260.429287,234.335846 261.479576,234.335846 L272.598898,234.335846 C273.647224,234.335846 274.499234,235.188843 274.499234,236.240807 L274.499234,278.750794 C274.499234,279.806698 273.647224,280.659695 272.598898,280.659695 Z M263.379912,276.845833 L270.698562,276.845833 L270.698562,238.147738 L263.379912,238.147738 L263.379912,276.845833 Z M318.006724,271.503273 L390.710287,271.503273 L390.710287,252.975704 L318.006724,252.975704 L318.006724,271.503273 Z M390.710287,293.846676 L390.710287,289.366963 L390.710287,275.317136 L318.006724,275.317136 L318.006724,289.366963 L318.006724,293.846676 L390.710287,293.846676 Z M422.199328,228.879028 L300.465914,228.879028 L300.465914,234.335846 L410.153395,234.335846 L422.199328,234.335846 L422.199328,228.879028 Z M408.251096,238.147738 L300.465914,238.147738 L300.465914,287.460032 L301.425898,287.460032 L314.204088,287.460032 L314.204088,273.412175 L314.204088,251.068773 C314.204088,250.016808 315.056098,249.161841 316.106387,249.161841 L392.610623,249.161841 C393.660912,249.161841 394.510959,250.016808 394.510959,251.068773 L394.510959,273.412175 L394.510959,287.460032 L408.251096,287.460032 L408.251096,238.147738 Z M282.334194,133.229095 L282.872099,133.229095 L298.565578,133.229095 L299.103483,133.229095 L299.103483,129.931365 L298.565578,129.931365 L282.872099,129.931365 L282.334194,129.931365 L282.334194,133.229095 Z M284.770472,126.115532 L296.663279,126.115532 L296.663279,122.813862 L284.770472,122.813862 L284.770472,126.115532 Z M299.103483,154.528413 L298.565578,154.528413 L282.872099,154.528413 L282.334194,154.528413 L282.334194,161.586816 L282.334194,170.333484 L299.103483,170.333484 L299.103483,161.586816 L299.103483,154.528413 Z M284.770472,150.71455 L296.663279,150.71455 L296.663279,137.044927 L284.770472,137.044927 L284.770472,150.71455 Z M252.786716,163.170672 C252.729784,163.131273 252.676779,163.091873 252.625737,163.048534 L217.970123,136.84399 L116.936239,213.245345 L120.210785,217.604889 L136.159474,205.546701 C136.208553,205.505332 136.261558,205.463962 136.316527,205.426533 L216.798118,144.568243 C217.457739,144.048171 218.411833,144.014682 219.114644,144.546574 L259.363292,174.982613 L263.886406,171.562745 L252.786716,163.170672 Z M259.522308,163.495717 L268.170015,170.034048 L268.181794,170.043898 L268.211242,170.067538 L321.577706,210.420407 C322.333522,210.991699 322.787011,211.823026 322.91069,212.697693 C323.032406,213.56842 322.822348,214.484456 322.253033,215.242894 L322.249106,215.248804 L322.253033,215.252744 L318.546592,220.18555 C317.977276,220.943988 317.150787,221.399051 316.277182,221.523159 C315.407503,221.643328 314.490709,221.434511 313.73293,220.863219 L300.465914,210.830161 L300.465914,225.065166 L422.199328,225.065166 L422.199328,163.495717 L302.904155,163.495717 L302.904155,172.240415 C302.904155,173.294349 302.054108,174.149316 301.001856,174.149316 L280.433858,174.149316 C279.383569,174.149316 278.533522,173.294349 278.533522,172.240415 L278.533522,163.495717 L259.522308,163.495717 Z M136.416648,318.093069 C136.416648,319.145033 135.564637,320 134.516311,320 C133.466022,320 132.615975,319.145033 132.615975,318.093069 L132.615975,289.366963 C132.615975,288.314999 133.466022,287.460032 134.516311,287.460032 L135.478258,287.460032 L135.478258,210.830161 L122.211242,220.863219 C121.453464,221.434511 120.536669,221.643328 119.66699,221.523159 C118.791422,221.397081 117.964933,220.943988 117.397581,220.18555 L113.69114,215.250774 C113.119861,214.490366 112.911767,213.57039 113.033482,212.697693 C113.155198,211.821056 113.610651,210.991699 114.364503,210.420407 L216.827566,132.939509 C217.530376,132.407617 218.48447,132.441107 219.146054,132.963149 L254.476994,159.679885 L278.533522,159.679885 L278.533522,152.621481 C278.533522,151.567547 279.383569,150.71455 280.433858,150.71455 L280.9698,150.71455 L280.9698,137.044927 L280.433858,137.044927 C279.383569,137.044927 278.533522,136.18996 278.533522,135.137996 L278.533522,128.022464 C278.533522,126.970499 279.383569,126.115532 280.433858,126.115532 L280.9698,126.115532 L280.9698,120.906931 C280.9698,119.852997 281.82181,119 282.872099,119 L298.565578,119 C299.613904,119 300.465914,119.852997 300.465914,120.906931 L300.465914,126.115532 L301.001856,126.115532 C302.054108,126.115532 302.904155,126.970499 302.904155,128.022464 L302.904155,135.137996 C302.904155,136.18996 302.054108,137.044927 301.001856,137.044927 L300.465914,137.044927 L300.465914,150.71455 L301.001856,150.71455 C302.054108,150.71455 302.904155,151.567547 302.904155,152.621481 L302.904155,159.679885 L424.099664,159.679885 C425.149953,159.679885 426,160.534852 426,161.586816 L426,226.972097 L426,236.240807 C426,237.296711 425.149953,238.147738 424.099664,238.147738 L412.051768,238.147738 L412.051768,287.460032 L413.013715,287.460032 C414.064004,287.460032 414.914051,288.314999 414.914051,289.366963 L414.914051,318.093069 C414.914051,319.145033 414.064004,320 413.013715,320 C411.963426,320 411.113379,319.145033 411.113379,318.093069 L411.113379,291.275864 L410.153395,291.275864 L394.510959,291.275864 L394.510959,295.751637 L394.510959,318.093069 C394.510959,319.145033 393.660912,320 392.610623,320 C391.560334,320 390.710287,319.145033 390.710287,318.093069 L390.710287,297.658568 L318.006724,297.658568 L318.006724,318.093069 C318.006724,319.145033 317.154713,320 316.106387,320 C315.056098,320 314.204088,319.145033 314.204088,318.093069 L314.204088,295.751637 L314.204088,291.275864 L303.326234,291.275864 L303.326234,318.093069 C303.326234,319.145033 302.476187,320 301.425898,320 C300.377572,320 299.525562,319.145033 299.525562,318.093069 L299.525562,291.275864 L298.565578,291.275864 L292.917575,291.275864 L292.917575,296.549475 L292.917575,303.730016 L292.917575,311.081945 L292.917575,318.093069 C292.917575,319.145033 292.065565,320 291.015275,320 C289.96695,320 289.116902,319.145033 289.116902,318.093069 L289.116902,312.988876 L244.961571,312.988876 L244.961571,318.093069 C244.961571,319.145033 244.109561,320 243.061235,320 C242.012909,320 241.160899,319.145033 241.160899,318.093069 L241.160899,311.081945 L241.160899,303.730016 L241.160899,296.549475 L241.160899,291.275864 L235.512896,291.275864 L234.550949,291.275864 L234.550949,318.093069 C234.550949,319.145033 233.700902,320 232.650613,320 C231.600323,320 230.750276,319.145033 230.750276,318.093069 L230.750276,291.275864 L137.378595,291.275864 L136.416648,291.275864 L136.416648,318.093069 Z M268.211242,170.067538 C268.338847,170.166036 268.45271,170.282264 268.552831,170.416222 L268.211242,170.067538 Z M219.146054,132.963149 C219.269733,133.061647 219.385559,133.179846 219.48568,133.311834 L219.146054,132.963149 Z" id="Fill-25" fill="#432D61"></path>
                <path d="M147.000987,92 L133.317115,92 C121.588363,84.7265546 107,69.1823545 107,52.0009874 C107,29.9100941 124.908119,12 147.000987,12 C169.091881,12 187,29.9100941 187,52.0009874 C187,69.1823545 172.411637,84.7265546 160.682885,92 L147.000987,92 Z" id="Fill-27"></path>
                <g id="Ballon" transform="translate(335.000000, 0.000000)">
                    <path d="M42.0009757,82 L31.053633,82 C21.6713114,74.7265546 10,59.1823545 10,42.0009874 C10,19.9100941 24.3271641,2 42.0009757,2 C59.6728359,2 74,19.9100941 74,42.0009874 C74,59.1823545 62.3286886,74.7265546 52.946367,82 L42.0009757,82 Z" id="Fill-28" fill="#FF4057"></path>
                    <path d="M41.501943,82 L33.8056995,82 C27.2072539,74.7265546 19,59.1823545 19,42.0009874 C19,19.9100941 29.0744819,2 41.501943,2 C53.9274611,2 64,19.9100941 64,42.0009874 C64,59.1823545 55.7946891,74.7265546 49.1962435,82 L41.501943,82 Z" id="Fill-29" fill="#FF4057"></path>
                    <path d="M51,104 L51,116.571601 C51,117.908834 49.9417326,119 48.6491625,119 L34.3508375,119 C33.0582674,119 32,117.908834 32,116.571601 L32,104 L51,104 Z" id="Fill-30" fill="#FFFFFF"></path>
                    <path d="M32.2840156,98 L51.7159844,98 C52.420895,98 53,98.5751244 53,99.279602 L53,102.720398 C53,103.424876 52.420895,104 51.7159844,104 L32.2840156,104 C31.5771081,104 31,103.424876 31,102.720398 L31,99.279602 C31,98.5751244 31.5771081,98 32.2840156,98" id="Fill-31" fill="#FFFFFF"></path>
                    <path d="M28,82 L55,82 L55,86.7208223 C55,87.4250663 54.4368911,88 53.7471314,88 L29.2528686,88 C28.5631089,88 28,87.4250663 28,86.7208223 L28,82 Z" id="Fill-32" fill="#FFFFFF"></path>
                    <path d="M42.0009575,82 L38.921481,82 C36.2824769,74.7265546 33,59.1823545 33,42.0009874 C33,19.9100941 37.0293648,2 42.0009575,2 C46.9706352,2 51,19.9100941 51,42.0009874 C51,59.1823545 47.7175231,74.7265546 45.078519,82 L42.0009575,82 Z" id="Fill-33" fill="#FFFFFF"></path>
                    <path d="M50,105 L50,117.571601 C50,118.908834 49.0060257,120 47.7919832,120 L43,120 C44.2140424,120 45.2080168,118.908834 45.2080168,117.571601 L45.2080168,105 L45.2373592,105 L50,105 Z" id="Fill-34" fill="#98D7DA"></path>
                    <path d="M45,99 L49.8151106,99 C50.465602,99 51,99.5751244 51,100.279602 L51,103.720398 C51,104.424876 50.465602,105 49.8151106,105 L45,105 C45.6523342,105 46.1848894,104.424876 46.1848894,103.720398 L46.1848894,100.279602 C46.1848894,99.5751244 45.6523342,99 45,99" id="Fill-35" fill="#98D7DA"></path>
                    <path d="M49.1848894,83 L54,83 L54,87.7223881 C54,88.4248756 53.4674447,89 52.8151106,89 L48,89 C48.6523342,89 49.1848894,88.4248756 49.1848894,87.7223881 L49.1848894,83 Z" id="Fill-36" fill="#98D7DA"></path>
                    <path d="M28.483402,80.0037377 L41.4990223,80.0037377 L54.5146425,80.0037377 C60.6763341,76.0518387 67.5850159,69.7556597 72.5401814,62.1461309 C76.5117446,56.049423 79.2122511,49.1153313 79.2122511,41.9146196 C79.2122511,31.3959717 74.992343,21.8727047 68.165791,14.9800872 C61.34315,8.0874696 51.913865,3.82550149 41.4990223,3.82550149 C31.0841795,3.82550149 21.6548946,8.0874696 14.8322535,14.9800872 C8.0057015,21.8727047 3.78579338,31.3959717 3.78579338,41.9146196 C3.78579338,49.1153313 6.48629992,56.049423 10.4578631,62.1461309 C15.4130286,69.7556597 22.3217104,76.0518387 28.483402,80.0037377 Z M50.3768642,100.357697 L46.60867,100.357697 L36.3893745,100.357697 L32.6211804,100.357697 L32.6211804,102.488681 L50.3768642,102.488681 L50.3768642,100.357697 Z M49.1194958,106.310232 L33.8785487,106.310232 L33.8785487,116.710382 C33.8785487,116.838755 33.9274355,116.955278 34.0076098,117.036251 L34.0154317,117.044151 C34.0956061,117.125124 34.2109789,117.174499 34.3400401,117.174499 L48.6599599,117.174499 C48.7675109,117.174499 48.8652845,117.138949 48.9435034,117.077725 L48.9826128,117.038226 C49.0686536,116.951328 49.1194958,116.834805 49.1194958,116.710382 L49.1194958,106.310232 Z M53.227942,97.4545024 L53.2396749,97.4663522 C53.2944281,97.5216511 53.3433149,97.5769501 53.3882907,97.6381739 C53.8712923,98.1970882 54.1626576,98.9258492 54.1626576,99.713859 L54.1626576,103.130543 C54.1626576,104.007427 53.8087172,104.803336 53.2396749,105.37805 C53.1360349,105.482723 53.024573,105.579496 52.9072447,105.670345 L52.9072447,116.710382 C52.9072447,117.893385 52.4301096,118.965789 51.6616091,119.739974 C51.6146778,119.787373 51.569702,119.828848 51.5208152,119.870322 C50.7640476,120.569458 49.7589351,121 48.6599599,121 L34.3400401,121 C33.1765343,121 32.1166686,120.518109 31.3442573,119.739974 L31.3423018,119.736024 L31.3383909,119.732074 L31.3344799,119.728124 C30.567935,118.949989 30.0927553,117.881535 30.0927553,116.710382 L30.0927553,105.66442 C29.975427,105.575546 29.8659206,105.476798 29.7622806,105.3741 L29.7603251,105.37805 C29.1893274,104.803336 28.835387,104.005452 28.835387,103.130543 L28.835387,99.713859 C28.835387,98.8468507 29.1893274,98.0548909 29.7603251,97.474252 L29.7622806,97.4722771 L29.7661915,97.4663522 L29.772058,97.4624023 L29.772058,97.4604273 L27.6445047,89.3551831 C27.4039816,89.2169357 27.1849688,89.045114 26.9894216,88.8495928 L26.9855107,88.8456428 L26.9815997,88.8416929 L26.9757333,88.835768 C26.4086465,88.2571042 26.058617,87.4651444 26.058617,86.602086 L26.058617,82.958281 C19.6153375,78.741737 12.4700436,72.1591885 7.30759807,64.2376157 C2.95667334,57.558294 0,49.9230907 0,41.9146196 C0,30.341342 4.64424549,19.8621934 12.1532572,12.2763641 C19.6642243,4.69250983 30.0399576,0 41.4990223,0 C52.9600424,0 63.3338202,4.69053487 70.8447874,12.2763641 C78.353799,19.8621934 83,30.341342 83,41.9146196 C83,49.9230907 80.0413712,57.558294 75.6904465,64.2376157 C70.5299564,72.1591885 63.3846625,78.7437119 56.941383,82.958281 L56.941383,86.602086 C56.941383,87.4710693 56.5854871,88.266979 56.0125339,88.8456428 L56.0184003,88.8495928 C55.8189422,89.047089 55.5960184,89.2208856 55.3535399,89.3611079 L53.227942,97.4545024 Z M48.5015667,96.5341701 L49.5614324,96.5341701 L51.3350454,89.7817749 L48.5015667,89.7817749 L48.5015667,96.5341701 Z M38.2842266,96.5341701 L44.7157734,96.5341701 L44.7157734,89.7817749 L38.2842266,89.7817749 L38.2842266,96.5341701 Z M33.4366121,96.5341701 L34.4964778,96.5341701 L34.4964778,89.7817749 L31.6629992,89.7817749 L33.4366121,96.5341701 Z M41.4990223,83.8292392 L29.8444104,83.8292392 L29.8444104,85.9582483 L36.3893745,85.9582483 L46.60867,85.9582483 L53.1555896,85.9582483 L53.1555896,83.8292392 L41.4990223,83.8292392 Z" id="Fill-37" fill="#432D61"></path>
                </g>
                <path d="M71.9990181,206 C94.0899919,206 112,223.908484 112,246 C112,268.091516 94.0899919,286 71.9990181,286 C49.9080443,286 32,268.091516 32,246 C32,223.908484 49.9080443,206 71.9990181,206" id="Fill-38" fill="#00CF6B"></path>
                <path d="M67.4990223,210 C84.3440715,210 98,223.654411 98,240.501955 C98,257.345589 84.3440715,271 67.4990223,271 C50.6539731,271 37,257.345589 37,240.501955 C37,223.654411 50.6539731,210 67.4990223,210" id="Fill-39" fill="#47DF7F"></path>
                <path d="M73.9054225,287.717148 L73.9054225,318.09997 C73.9054225,319.15009 73.0531002,320 72,320 C70.9488682,320 70.0945775,319.15009 70.0945775,318.09997 L70.0945775,287.717148 C59.2545344,287.234289 49.4853072,282.65498 42.302573,275.492572 C34.7005671,267.914041 30,257.444245 30,245.881147 C30,234.316085 34.7005671,223.846289 42.302573,216.267759 C49.9026105,208.687265 60.4021184,204 72,204 C83.5978816,204 94.0973895,208.687265 101.697427,216.267759 C109.297464,223.846289 114,234.316085 114,245.881147 C114,257.444245 109.297464,267.914041 101.697427,275.492572 C94.5166612,282.65498 84.7434972,287.234289 73.9054225,287.717148 Z M70.0945775,245.881147 C70.0945775,244.831026 70.9488682,243.981116 72,243.981116 C73.0531002,243.981116 73.9054225,244.831026 73.9054225,245.881147 L73.9054225,256.401976 L79.1551765,251.167078 C79.9012045,250.425124 81.1078408,250.425124 81.8519005,251.167078 C82.5959601,251.909032 82.5959601,253.112254 81.8519005,253.854208 L73.9054225,261.776236 L73.9054225,283.913161 C83.6923654,283.432265 92.5108497,279.278893 99.0026714,272.805442 C105.913765,265.917831 110.187187,256.396088 110.187187,245.881147 C110.187187,235.364242 105.913765,225.844462 99.0026714,218.954888 C92.091578,212.063352 82.5467498,207.800061 72,207.800061 C61.4552186,207.800061 51.9064536,212.063352 44.9973286,218.954888 C38.0862352,225.844462 33.8128134,235.364242 33.8128134,245.881147 C33.8128134,256.396088 38.0862352,265.917831 44.9973286,272.805442 C51.4891503,279.278893 60.3076346,283.432265 70.0945775,283.913161 L70.0945775,274.365901 L55.5873834,259.901723 C54.8433238,259.159769 54.8433238,257.956547 55.5873834,257.214593 C56.331443,256.472639 57.5400478,256.472639 58.282139,257.214593 L70.0945775,268.993604 L70.0945775,245.881147 Z" id="Fill-40" fill="#432D61"></path>
                <path d="M1.18086872,317 C0.5288927,317 0,316.103769 0,315.001033 C0,313.896231 0.5288927,313 1.18086872,313 L575.819131,313 C576.471107,313 577,313.896231 577,315.001033 C577,316.103769 576.471107,317 575.819131,317 L1.18086872,317 Z" id="Fill-41" fill="#432D61"></path>
            </g>
        </g>
    </g>
</svg>