<?xml version="1.0" encoding="UTF-8"?>
<svg width="21px" height="20px" viewBox="0 0 21 20" version="1.1" xmlns="http://www.w3.org/2000/svg" xmlns:xlink="http://www.w3.org/1999/xlink">
    <!-- Generator: Sketch 51 (57462) - http://www.bohemiancoding.com/sketch -->
    <title>mailbox</title>
    <desc>Created with Sketch.</desc>
    <defs></defs>
    <g id="Page-1" stroke="none" stroke-width="1" fill="none" fill-rule="evenodd">
        <g id="iPhone-8-/-nav-close" transform="translate(-261.000000, -30.000000)">
            <g id="mailbox" transform="translate(261.000000, 30.000000)">
                <path d="M0,9.99878564 C0,8.34260206 1.12368393,6.25087738 2.48835343,5.34109771 L8.01164657,1.65890229 C9.38592622,0.742715853 11.6236839,0.74912262 12.9883534,1.65890229 L18.5116466,5.34109771 C19.8859262,6.25728415 21,8.34226429 21,9.99878564 L21,17.0012144 C21,18.6573979 19.6544098,20 17.991212,20 L3.00878799,20 C1.34708027,20 0,18.6577357 0,17.0012144 L0,9.99878564 Z" id="Rectangle-13" fill="#FFFFFF"></path>
                <path d="M4.99410244,7.4552624 C5.19727484,5.81544417 6.69367284,4.32111281 8.33113217,4.11823267 L13.8070386,3.43977146 C15.4468569,3.23659906 16.6978177,4.41540175 16.6014017,6.06817745 L16.2438759,12.1969335 C16.1473418,13.8517344 14.7255789,15.2715901 13.0728032,15.3680061 L6.94404722,15.7255319 C5.28924627,15.822066 4.11276109,14.5686282 4.31564123,12.9311689 L4.99410244,7.4552624 Z" id="Rectangle-8" fill="#4BB7F1" transform="translate(10.449755, 9.573875) rotate(-315.000000) translate(-10.449755, -9.573875) "></path>
            </g>
        </g>
    </g>
</svg>