<?xml version="1.0" encoding="UTF-8"?>
<svg width="24px" height="24px" viewBox="0 0 24 24" version="1.1" xmlns="http://www.w3.org/2000/svg" xmlns:xlink="http://www.w3.org/1999/xlink">
    <!-- Generator: Sketch 51 (57462) - http://www.bohemiancoding.com/sketch -->
    <title>Nav Item / feedback</title>
    <desc>Created with Sketch.</desc>
    <defs></defs>
    <g id="Symbols" stroke="none" stroke-width="1" fill="none" fill-rule="evenodd">
        <g id="sideNav-/-SideNavManage" transform="translate(-23.000000, -390.000000)" fill="#ECF0F0">
            <g id="Nav-Item" transform="translate(0.000000, 379.000000)">
                <g id="Nav-Item-/-maintenance" transform="translate(23.000000, 11.000000)">
                    <path d="M18.0181871,7.40812604 L19.5264247,7.27190432 C19.7498482,7.25082782 19.9572871,7.15659064 20.114465,7.00476416 L21.9212625,5.26026997 C22.1828697,5.00768371 22.5734595,4.92298988 22.9301892,5.04149856 C23.2869189,5.16000725 23.5485544,5.46137592 23.606016,5.81995957 C23.9453917,7.90537088 23.0691462,9.97348142 21.3278433,11.196892 C19.5865404,12.4203025 17.2645387,12.5992275 15.2908128,11.6620835 L3.42018076,23.1233834 C2.6377671,23.8788173 1.36922391,23.8788173 0.586810247,23.1233834 C-0.195603416,22.3679495 -0.195603416,21.1431492 0.586810247,20.3877153 L12.4588236,8.92508173 C11.4897099,7.01938141 11.6756937,4.77831342 12.9424465,3.09752118 C14.2091993,1.41672894 16.3501222,0.570338358 18.5095948,0.896609656 C18.880985,0.952089795 19.1931169,1.20470336 19.315858,1.54913207 C19.4385992,1.89356077 19.3508805,2.27068192 19.0892733,2.52326818 L17.2935265,4.25709268 C17.1291142,4.4165717 17.0306229,4.62895481 17.0158375,4.85589138 L16.9132683,6.37331701 C16.8943844,6.65600452 17.0069767,6.93520486 17.2205039,7.13518325 C17.4340311,7.33516164 17.7263572,7.43518671 18.0181871,7.40812604 Z M1.80628728,21.9486893 C2.14102239,22.2718818 2.68373522,22.2718818 3.01847033,21.9486893 C3.35320544,21.6254968 3.35320544,21.1014982 3.01847033,20.7783057 C2.68373522,20.4551132 2.14102239,20.4551132 1.80628728,20.7783057 C1.47155217,21.1014982 1.47155217,21.6254968 1.80628728,21.9486893 Z" id="shape"></path>
                </g>
            </g>
        </g>
    </g>
</svg>