<?xml version="1.0" encoding="UTF-8"?>
<svg width="24px" height="21px" viewBox="0 0 24 21" version="1.1" xmlns="http://www.w3.org/2000/svg" xmlns:xlink="http://www.w3.org/1999/xlink">
    <!-- Generator: Sketch 51 (57462) - http://www.bohemiancoding.com/sketch -->
    <title>settings</title>
    <desc>Created with Sketch.</desc>
    <defs></defs>
    <g id="Symbols" stroke="none" stroke-width="1" fill="none" fill-rule="evenodd">
        <g id="sideNav-/-SideNavManage" transform="translate(-23.000000, -326.000000)">
            <g id="Nav-Item" transform="translate(0.000000, 313.000000)">
                <g id="Nav-Icon-/-properties" transform="translate(23.000000, 11.000000)">
                    <g id="home-interface" transform="translate(0.000000, 2.666667)">
                        <path d="M23.7430017,8.91163955 L12.4933593,0.164510011 C12.2113731,-0.0548366704 11.7928594,-0.0548366704 11.5108733,0.164510011 L7.50000932,3.28118067 L7.50000932,2.01888589 C7.50000932,1.27602885 6.82802876,0.673190681 6.00008002,0.673190681 C5.17213128,0.673190681 4.50010138,1.27607311 4.50010138,2.01888589 L4.50010138,5.61329407 L0.258220996,8.91163955 C-0.0537646929,9.15520069 -0.0882543333,9.58048093 0.183222064,9.86171392 C0.456228045,10.1416189 0.928721316,10.171234 1.24218725,9.92900089 L11.9998959,1.5640348 L22.756075,9.92900089 C22.9000532,10.0393604 23.0725507,10.09319 23.2480581,10.09319 C23.4595353,10.09319 23.6650423,10.0137736 23.8135599,9.86171392 C24.089477,9.58048093 24.0535071,9.15790103 23.7430017,8.91163955 Z" id="Shape" fill="#D4D2D2" fill-rule="nonzero"></path>
                        <path d="M13.2838343,5.34732288 C13.0147204,5.14816821 12.6838308,5.04659498 12.3529412,5.04659498 C12.0220516,5.04659498 11.691162,5.14682315 11.4205968,5.34732288 L4.06763951,10.7538734 C3.72644588,11.0044872 3.52941176,11.3777612 3.52941176,11.7747689 L3.52941176,18.2365355 C3.52941176,18.9646432 4.18824007,19.5555122 4.99998387,19.5555122 L9.41174858,19.5555122 L9.41174858,12.9605853 L15.2941338,12.9605853 L15.2941338,19.5555556 L19.7058985,19.5555556 C20.516191,19.5555556 21.1764706,18.9646432 21.1764706,18.2365789 L21.1764706,11.7748123 C21.1764706,11.3764595 20.9779368,11.0045306 20.6367432,10.7552184 L13.2838343,5.34732288 Z" id="Shape" fill="#ECF0F0" fill-rule="nonzero"></path>
                    </g>
                </g>
            </g>
        </g>
    </g>
</svg>