<?xml version="1.0" encoding="UTF-8"?>
<svg width="46px" height="46px" viewBox="0 0 46 46" version="1.1" xmlns="http://www.w3.org/2000/svg" xmlns:xlink="http://www.w3.org/1999/xlink">
    <!-- Generator: Sketch 51 (57462) - http://www.bohemiancoding.com/sketch -->
    <title>ic_sentiment_very_satisfied_black_24px</title>
    <desc>Created with Sketch.</desc>
    <defs></defs>
    <g id="Symbols" stroke="none" stroke-width="1" fill="none" fill-rule="evenodd">
        <g id="ic_sentiment_very_satisfied_black_24px" fill="#686868" fill-rule="nonzero">
            <path d="M22.9776913,0.691256831 C10.663265,0.691256831 0.691256831,10.663265 0.691256831,23 C0.691256831,35.336735 10.663265,45.3087432 22.9776913,45.3087432 C35.2921175,45.3087432 45.3087432,35.336735 45.3087432,23 C45.3087432,10.663265 35.3144262,0.691256831 22.9776913,0.691256831 Z M23,40.8469945 C13.1395355,40.8469945 5.15300546,32.8604645 5.15300546,23 C5.15300546,13.1395355 13.1395355,5.15300546 23,5.15300546 C32.8604645,5.15300546 40.8469945,13.1395355 40.8469945,23 C40.8469945,32.8604645 32.8604645,40.8469945 23,40.8469945 Z M25.2308743,18.4043989 L27.5956011,20.7691257 L29.9603279,18.4043989 L32.3250546,20.7691257 L34.6897814,18.4043989 L29.9603279,13.6749454 L25.2308743,18.4043989 Z M16.0396721,18.4043989 L18.4043989,20.7691257 L20.7691257,18.4043989 L16.0396721,13.6749454 L11.3102186,18.4043989 L13.6749454,20.7691257 L16.0396721,18.4043989 Z M23,35.2698087 C28.1979372,35.2698087 32.6150683,32.0127322 34.3997678,27.4617486 L11.6002322,27.4617486 C13.3849317,32.0127322 17.8020628,35.2698087 23,35.2698087 Z" id="Shape"></path>
        </g>
    </g>
</svg>
