<?xml version="1.0" encoding="UTF-8"?>
<svg width="514px" height="315px" viewBox="0 0 514 315" version="1.1" xmlns="http://www.w3.org/2000/svg" xmlns:xlink="http://www.w3.org/1999/xlink">
    <!-- Generator: Sketch 51.3 (57544) - http://www.bohemiancoding.com/sketch -->
    <title>Skies</title>
    <desc>Created with Sketch.</desc>
    <defs>
        <linearGradient x1="50%" y1="0%" x2="50%" y2="100%" id="linearGradient-1">
            <stop stop-color="#C1E9FD" offset="0%"></stop>
            <stop stop-color="#FFFFFF" offset="100%"></stop>
        </linearGradient>
        <linearGradient x1="50%" y1="35.6730229%" x2="50%" y2="100%" id="linearGradient-2">
            <stop stop-color="#FFFFFF" offset="0%"></stop>
            <stop stop-color="#FFFFFF" stop-opacity="0.158486187" offset="100%"></stop>
        </linearGradient>
    </defs>
    <g id="Page-1" stroke="none" stroke-width="1" fill="none" fill-rule="evenodd">
        <g id="Landlord-Manage-Tenancies-/-01-Dashboard-:-Properties-:-Published-Confirm-Modal" transform="translate(-428.000000, -191.000000)">
            <g id="Artwork" transform="translate(428.000000, 113.000000)">
                <g id="Skies" transform="translate(0.000000, 78.000000)">
                    <g id="sky" transform="translate(194.000000, 0.000000)">
                        <path d="M44.7064018,0 L314.540839,0 C317.302263,-5.07265313e-16 319.540839,2.23857625 319.540839,5 L319.540839,314.692737 L44.7064018,314.692737 L44.7064018,0 Z" fill="url(#linearGradient-1)"></path>
                        <path d="M71.9788127,263.522595 C67.3967437,269.491757 59.0588311,272.374959 49.532906,272.374959 C37.3641518,272.374959 27.1340454,267.67003 24.1954153,257.837511 C23.7062371,257.867609 23.2128472,257.882891 22.7157276,257.882891 C10.1701777,257.882891 0,248.150411 0,236.144788 C0,224.139166 10.1701777,214.406686 22.7157276,214.406686 C22.7458367,214.406686 22.7759321,214.406742 22.8060137,214.406854 C23.7900679,204.157493 32.6966236,196.134078 43.5384779,196.134078 C49.680259,196.134078 55.2009859,198.708862 59.0122392,202.804503 C63.6678328,198.661197 69.8638666,196.134078 76.6655806,196.134078 C91.1278118,196.134078 102.851767,207.559163 102.851767,221.65272 C102.851767,222.333092 102.824444,223.007246 102.770809,223.674195 C111.758407,227.716685 117.995585,236.576684 117.995585,246.856317 C117.995585,260.949874 106.27163,272.374959 91.809399,272.374959 C83.8838945,272.374959 76.7807473,268.943785 71.9788127,263.522595 Z" id="cloud" fill="url(#linearGradient-2)"></path>
                    </g>
                    <g id="sky-copy" fill="url(#linearGradient-1)">
                        <path d="M5.70640177,0 L275.540839,0 L275.540839,314.692737 L0.706401766,314.692737 L0.706401766,5 C0.706401766,2.23857625 2.94497802,5.07265313e-16 5.70640177,0 Z" id="sky"></path>
                    </g>
                    <g id="sky" transform="translate(60.000000, 0.000000)">
                        <rect fill="url(#linearGradient-1)" x="44.7064018" y="0" width="274.834437" height="314.692737"></rect>
                        <path d="M278.551948,218.053257 C273.229917,224.986383 263.545509,228.335196 252.481236,228.335196 C238.347342,228.335196 226.465168,222.870465 223.051977,211.450085 C222.483801,211.485044 221.910733,211.502793 221.333333,211.502793 C206.761794,211.502793 194.949227,200.198609 194.949227,186.25419 C194.949227,172.309771 206.761794,161.005587 221.333333,161.005587 C221.368305,161.005587 221.40326,161.005652 221.4382,161.005782 C222.58117,149.101244 232.926051,139.782123 245.518764,139.782123 C252.652385,139.782123 259.064658,142.77271 263.491393,147.529759 C268.898822,142.717347 276.095458,139.782123 283.995585,139.782123 C300.793332,139.782123 314.410596,153.052253 314.410596,169.421788 C314.410596,170.212034 314.378861,170.995057 314.316564,171.769712 C324.755576,176.465027 332,186.755833 332,198.695531 C332,215.065066 318.382736,228.335196 301.584989,228.335196 C292.379589,228.335196 284.12935,224.349919 278.551948,218.053257 Z" id="cloud" fill="url(#linearGradient-2)"></path>
                        <path d="M202.850718,98.1028958 C200.061632,101.736299 194.986381,103.491291 189.187992,103.491291 C181.780924,103.491291 175.553903,100.627422 173.765172,94.6424096 C173.467412,94.6607307 173.167087,94.6700326 172.864492,94.6700326 C165.228071,94.6700326 159.037528,88.7459143 159.037528,81.4381442 C159.037528,74.130374 165.228071,68.2062558 172.864492,68.2062558 C172.882819,68.2062558 172.901138,68.2062899 172.919449,68.2063581 C173.518438,61.9676166 178.93982,57.0837989 185.53921,57.0837989 C189.277685,57.0837989 192.638128,58.6510587 194.958021,61.1440571 C197.791861,58.6220448 201.563359,57.0837989 205.703533,57.0837989 C214.50663,57.0837989 221.642951,64.0381985 221.642951,72.6168853 C221.642951,73.0310249 221.626319,73.4413791 221.593672,73.8473483 C227.064384,76.3079945 230.860927,81.7010371 230.860927,87.9582051 C230.860927,96.5368918 223.724607,103.491291 214.92151,103.491291 C210.097289,103.491291 205.773635,101.402751 202.850718,98.1028958 Z" id="cloud" fill="url(#linearGradient-2)"></path>
                        <path d="M71.9788127,263.522595 C67.3967437,269.491757 59.0588311,272.374959 49.532906,272.374959 C37.3641518,272.374959 27.1340454,267.67003 24.1954153,257.837511 C23.7062371,257.867609 23.2128472,257.882891 22.7157276,257.882891 C10.1701777,257.882891 0,248.150411 0,236.144788 C0,224.139166 10.1701777,214.406686 22.7157276,214.406686 C22.7458367,214.406686 22.7759321,214.406742 22.8060137,214.406854 C23.7900679,204.157493 32.6966236,196.134078 43.5384779,196.134078 C49.680259,196.134078 55.2009859,198.708862 59.0122392,202.804503 C63.6678328,198.661197 69.8638666,196.134078 76.6655806,196.134078 C91.1278118,196.134078 102.851767,207.559163 102.851767,221.65272 C102.851767,222.333092 102.824444,223.007246 102.770809,223.674195 C111.758407,227.716685 117.995585,236.576684 117.995585,246.856317 C117.995585,260.949874 106.27163,272.374959 91.809399,272.374959 C83.8838945,272.374959 76.7807473,268.943785 71.9788127,263.522595 Z" id="cloud" fill="url(#linearGradient-2)"></path>
                    </g>
                </g>
            </g>
        </g>
    </g>
</svg>