<?xml version="1.0" encoding="UTF-8"?>
<svg width="21px" height="17px" viewBox="0 0 21 17" version="1.1" xmlns="http://www.w3.org/2000/svg" xmlns:xlink="http://www.w3.org/1999/xlink">
    <!-- Generator: Sketch 51 (57462) - http://www.bohemiancoding.com/sketch -->
    <title>Nav Icon / Tenancies</title>
    <desc>Created with Sketch.</desc>
    <defs></defs>
    <g id="Symbols" stroke="none" stroke-width="1" fill="none" fill-rule="evenodd">
        <g id="sideNav-/-SideNavManage" transform="translate(-24.000000, -262.000000)">
            <g id="Nav-Item" transform="translate(0.000000, 247.000000)">
                <g id="Nav-Icon-/-tenancies" transform="translate(23.000000, 11.000000)">
                    <g id="ic-business-center-24px" transform="translate(0.000000, 1.777778)">
                        <path d="M0,0 L24,0 L24,21.3333333 L0,21.3333333 L0,0 Z M10,4.44444444 L14,4.44444444 L14,6.22222222 L10,6.22222222 L10,4.44444444 Z M10,4.44444444 L14,4.44444444 L14,6.22222222 L10,6.22222222 L10,4.44444444 Z" id="Shape"></path>
                        <path d="M9.72307692,14.5868946 L9.72307692,13.6752137 L2.84061538,13.6752137 L2.83076923,17.3219373 C2.83076923,18.3339031 3.70707692,19.1452991 4.8,19.1452991 L18.5846154,19.1452991 C19.6775385,19.1452991 20.5538462,18.3339031 20.5538462,17.3219373 L20.5538462,13.6752137 L13.6615385,13.6752137 L13.6615385,14.5868946 L9.72307692,14.5868946 Z M19.5692308,6.38176638 L15.6209231,6.38176638 L15.6209231,4.55840456 L13.6516923,2.73504274 L9.71323077,2.73504274 L7.744,4.55840456 L7.744,6.38176638 L3.81538462,6.38176638 C2.73230769,6.38176638 1.84615385,7.2022792 1.84615385,8.20512821 L1.84615385,10.9401709 C1.84615385,11.9521368 2.72246154,12.7635328 3.81538462,12.7635328 L9.72307692,12.7635328 L9.72307692,10.9401709 L13.6615385,10.9401709 L13.6615385,12.7635328 L19.5692308,12.7635328 C20.6523077,12.7635328 21.5384615,11.9430199 21.5384615,10.9401709 L21.5384615,8.20512821 C21.5384615,7.2022792 20.6523077,6.38176638 19.5692308,6.38176638 Z M13.6615385,6.38176638 L9.72307692,6.38176638 L9.72307692,4.55840456 L13.6615385,4.55840456 L13.6615385,6.38176638 Z" id="Shape" fill="#ECF0F0" fill-rule="nonzero"></path>
                    </g>
                </g>
            </g>
        </g>
    </g>
</svg>