<?xml version="1.0" encoding="UTF-8"?>
<svg width="52px" height="79px" viewBox="0 0 52 79" version="1.1" xmlns="http://www.w3.org/2000/svg" xmlns:xlink="http://www.w3.org/1999/xlink">
    <!-- Generator: Sketch 51.3 (57544) - http://www.bohemiancoding.com/sketch -->
    <title>Group 46</title>
    <desc>Created with Sketch.</desc>
    <defs>
        <rect id="path-1" x="0" y="0" width="63" height="82"></rect>
        <polygon id="path-3" points="0.766951458 0.357725 10.607292 0.357725 10.607292 20.988515 0.766951458 20.988515"></polygon>
    </defs>
    <g id="Page-1" stroke="none" stroke-width="1" fill="none" fill-rule="evenodd">
        <g id="Account-/-02-Copy-3" transform="translate(-371.000000, -177.000000)">
            <g id="Group-46" transform="translate(365.000000, 174.000000)">
                <mask id="mask-2" fill="white">
                    <use xlink:href="#path-1"></use>
                </mask>
                <g id="clip" fill-rule="nonzero"></g>
                <g id="Group-3" mask="url(#mask-2)">
                    <g transform="translate(28.000000, 2.717275)">
                        <mask id="mask-4" fill="white">
                            <use xlink:href="#path-3"></use>
                        </mask>
                        <g id="Clip-2" stroke="none" fill="none"></g>
                        <path d="M3.4204,0.500815 C5.3594,-0.06396 7.3774,1.09019 7.9274,3.077665 L10.3284,11.75019 C11.4284,15.72514 9.1764,19.861015 5.2994,20.988515 L0.9064,5.12049 C0.3564,3.13199 1.4824,1.064565 3.4204,0.500815" id="Fill-1" stroke="none" fill="#E07270" fill-rule="evenodd" mask="url(#mask-4)"></path>
                    </g>
                </g>
                <path d="M21.6768,84.7165575 L40.8158,84.5289825 L48.3958,40.3238075 C48.9768,35.3177075 45.1608,30.9143075 40.2418,30.9143075 L24.4968,30.9143075 C20.0328,30.9143075 16.5018,34.7857325 16.8008,39.3500575 L21.6768,84.7165575 Z" id="Fill-20" fill="#343C52" mask="url(#mask-2)"></path>
                <polygon id="Fill-22" fill="#343C52" mask="url(#mask-2)" points="42.7495 72.06119 20.0545 72.06119 8.3535 130.17049 54.4515 130.17049"></polygon>
                <path d="M30.0884,25.835125 L31.8404,25.324675 C34.3774,24.5836 35.8484,21.8776 35.1264,19.277175 L32.6974,10.5288 L21.3204,13.848775 L23.6244,22.145125 C24.4154,24.994625 27.3094,26.6459 30.0884,25.835125" id="Fill-24" fill="#F9B290" mask="url(#mask-2)"></path>
                <path d="M32.6187,17.84033 C32.5577,18.60293 33.1117,19.272255 33.8567,19.335805 C34.6007,19.399355 35.2547,18.83048 35.3157,18.06788 C35.3767,17.304255 34.8227,16.633905 34.0777,16.57138 C33.3327,16.508855 32.6797,17.076705 32.6187,17.84033" id="Fill-26" fill="#F9B290" mask="url(#mask-2)"></path>
                <polygon id="Fill-28" fill="#F9B290" mask="url(#mask-2)" points="27.9580332 19.310795 33.2382755 20.6388276 35.767351 30.9313792 34.9789634 31.7007602 26.8610158 31.7007602 26.8610158 30.7661828"></polygon>
                <path d="M34.9497,15.6151575 L28.9287,16.7283075 C23.6687,17.5954575 20.9937,15.9093325 20.0307,12.2777575 C19.6857,10.9801075 20.7117,9.5625325 22.3217,9.1135825 L27.5537,8.0896075 C30.3307,7.3147075 33.0637,8.5047325 33.6577,10.7443575 L34.9497,15.6151575 Z" id="Fill-30" fill="#E07270" mask="url(#mask-2)"></path>
                <path d="M28.7899442,36.69172 C27.6824959,36.69172 26.7849,35.7723427 26.7849,34.635836 L26.867518,30.75 L35.7624844,30.9170599 L31.5924274,35.9787136 C31.2108776,36.4315558 30.6566765,36.69172 30.0738592,36.69172 L28.7899442,36.69172 Z" id="Fill-32" fill="#F9B290" mask="url(#mask-2)"></path>
                <path d="M12.5757,72.02716 C10.9857,72.02716 9.4087,71.437785 8.1727,70.29491 C6.0907,68.37201 5.4277,65.302135 6.5227,62.65661 L17.0637,36.70361 L27.6137,38.637785 L19.8197,57.45371 L24.5397,66.210285 L15.7517,71.187685 C14.7567,71.75041 13.6617,72.02716 12.5757,72.02716" id="Fill-34" fill="#343C52" mask="url(#mask-2)"></path>
                <path d="M49.9316,71.207365 C49.2246,71.207365 48.5106,71.108965 47.8046,70.908065 L32.3196,66.486215 L35.0726,56.359215 L45.8696,59.44139 L38.2026,39.657865 L47.7476,35.914565 L57.1976,60.19784 C58.3056,63.054515 57.7476,66.250465 55.7416,68.538265 C54.2246,70.26744 52.1176,71.207365 49.9316,71.207365" id="Fill-36" fill="#343C52" mask="url(#mask-2)"></path>
                <path d="M30.5981,65.2835825 L26.1121,66.5925075 C25.6641,66.7226825 25.1981,66.4572075 25.0711,65.9980075 L22.3921,56.3507075 C22.2651,55.8915075 22.5241,55.4138575 22.9721,55.2836825 L27.4581,53.9747575 C27.9061,53.8445825 28.3711,54.1110825 28.4991,54.5692575 L31.1781,64.2175825 C31.3051,64.6757575 31.0461,65.1534075 30.5981,65.2835825" id="Fill-38" fill="#F8F5E8" mask="url(#mask-2)"></path>
                <path d="M31.355,63.5408775 L28.411,63.7366525 C27.356,63.7141025 26.358,63.2415775 25.658,62.4328525 L23.466,59.8980275 C23.324,59.7340275 23.48,59.4818775 23.685,59.5444025 L27.517,60.6944525 C27.916,60.8143775 28.346,60.6944525 28.631,60.3838775 C29.271,59.6899525 30.204,59.3660525 31.124,59.5187775 L32.619,59.7688775 L31.355,63.5408775 Z" id="Fill-40" fill="#F9B290" mask="url(#mask-2)"></path>
                <path d="M24.3301,64.7120425 L27.1611,63.8592425 C28.1441,63.4666675 28.9231,62.6722925 29.3091,61.6657425 L30.5191,58.5138675 C30.5981,58.3098925 30.3671,58.1284675 30.1951,58.2586425 L26.9811,60.6868675 C26.6471,60.9390175 26.2031,60.9779675 25.8311,60.7883425 C24.9981,60.3609175 24.0121,60.3844925 23.2001,60.8529175 L21.8801,61.6144925 L24.3301,64.7120425 Z" id="Fill-42" fill="#F9B290" mask="url(#mask-2)"></path>
                <path d="M24.6851,56.51809 L23.9281,56.738465 C23.7191,56.79894 23.5011,56.674915 23.4411,56.459665 C23.3821,56.24544 23.5031,56.023015 23.7121,55.961515 L24.4691,55.740115 C24.6791,55.67964 24.8971,55.803665 24.9561,56.018915 C25.0161,56.23314 24.8941,56.45659 24.6851,56.51809" id="Fill-44" fill="#E07270" mask="url(#mask-2)"></path>
            </g>
        </g>
    </g>
</svg>