<?xml version="1.0" encoding="UTF-8"?>
<svg width="30px" height="32px" viewBox="0 0 30 32" version="1.1" xmlns="http://www.w3.org/2000/svg" xmlns:xlink="http://www.w3.org/1999/xlink">
    <!-- Generator: Sketch 51 (57462) - http://www.bohemiancoding.com/sketch -->
    <title>Thumb Up</title>
    <desc>Created with Sketch.</desc>
    <defs>
        <path d="M23.2490834,13.7165568 C24.4572982,13.7165568 25.4365049,14.7146389 25.4365049,15.9460534 C25.4365049,17.1774678 24.4572982,18.1755499 23.2490834,18.1755499 L21.5591621,18.1755499 C22.7673769,18.1755499 23.7465836,19.1769813 23.7465836,20.4134197 C23.7465836,21.6498581 22.7673769,22.6518477 21.5591621,22.6518477 L20.394944,22.6518477 C21.3132323,22.6551969 22.0566623,23.4009674 22.0566623,24.3208999 C22.0566623,25.2430653 21.310412,25.9899522 20.3893034,25.9899522 C20.3893034,25.9899522 17.1341179,26 13.5873138,26 C10.0405097,26 6.35833141,22.592119 4,22.592119 L4,11.4502182 C5.81514242,11.4502182 9.33994821,8.26450543 11.6661282,6.34928191 L15.4628106,2.58247096 C16.220342,1.83111833 17.4189678,1.80320776 18.1403995,2.51883486 C18.8618311,3.23446195 18.8330641,4.42345236 18.0760967,5.17480499 C18.0760967,5.17480499 13.9748224,9.20509175 13.7774017,9.41442104 C13.579981,9.62375034 13.4976284,9.81912435 13.6724867,9.81912435 L23.9902572,9.81912435 C25.1003256,9.81912435 26,10.6910507 26,11.7678406 C26,12.8446305 25.1003256,13.7165568 23.9902572,13.7165568 L23.2490834,13.7165568 Z" id="path-1"></path>
        <filter x="-25.9%" y="-15.4%" width="151.7%" height="147.4%" filterUnits="objectBoundingBox" id="filter-2">
            <feMorphology radius="1.6875" operator="dilate" in="SourceAlpha" result="shadowSpreadOuter1"></feMorphology>
            <feOffset dx="0" dy="2" in="shadowSpreadOuter1" result="shadowOffsetOuter1"></feOffset>
            <feGaussianBlur stdDeviation="1" in="shadowOffsetOuter1" result="shadowBlurOuter1"></feGaussianBlur>
            <feComposite in="shadowBlurOuter1" in2="SourceAlpha" operator="out" result="shadowBlurOuter1"></feComposite>
            <feColorMatrix values="0 0 0 0 0   0 0 0 0 0   0 0 0 0 0  0 0 0 0.179347826 0" type="matrix" in="shadowBlurOuter1"></feColorMatrix>
        </filter>
    </defs>
    <g id="Symbols" stroke="none" stroke-width="1" fill="none" fill-rule="evenodd">
        <g id="Thumb-Up">
            <use fill="black" fill-opacity="1" filter="url(#filter-2)" xlink:href="#path-1"></use>
            <path stroke="#47DF7F" stroke-width="1.6875" d="M25.6349517,14.0501861 C26.0394062,14.572877 26.2802549,15.2314831 26.2802549,15.9460534 C26.2802549,17.3104558 25.4021642,18.470823 24.1836968,18.8705887 C24.4424142,19.3246905 24.5903336,19.8518556 24.5903336,20.4134197 C24.5903336,21.7123779 23.7989141,22.8275717 22.6755114,23.2800742 C22.8199539,23.5972326 22.9004123,23.9496859 22.9004123,24.3208999 C22.9004123,25.7088315 21.7766265,26.8337022 20.3919078,26.8336982 C20.2899992,26.8340127 20.2899992,26.8340127 19.827466,26.8352693 C19.3765582,26.8364472 18.8702269,26.8376251 18.3200461,26.8387244 C16.7480889,26.8418654 15.1396583,26.84375 13.5873138,26.84375 C13.2197908,26.84375 12.8457257,26.8120375 12.4636046,26.7504526 C11.1157273,26.5332205 9.87729512,26.0301239 7.96247467,25.0465926 C5.24856336,23.6526151 4.75178468,23.435869 4,23.435869 L3.15625,23.435869 L3.15625,10.6064682 L4,10.6064682 C4.67833939,10.6064682 6.01996317,9.82948444 7.86300525,8.38812738 C8.19138026,8.13132064 8.53619711,7.85390674 8.91613276,7.54189602 C9.35963172,7.17768583 10.8540846,5.92493068 11.0718678,5.75030893 L14.8686373,1.98341149 C15.9487603,0.912098567 17.6775612,0.871268532 18.7346061,1.91980851 C19.7954186,2.97208578 19.7536286,4.69854168 18.6674871,5.77661184 C18.5330019,5.90876932 18.2975602,6.14020018 17.9948608,6.43785344 C17.4903649,6.93393914 16.9858733,7.43027815 16.5150433,7.89386013 C16.5118924,7.89696253 16.5118924,7.89696253 16.5087415,7.90006493 C16.0936759,8.30874412 15.7257233,8.6713593 15.4176081,8.97537435 L23.9902572,8.97537435 C25.560718,8.97537435 26.84375,10.2192573 26.84375,11.7678406 C26.84375,12.7135701 26.3652276,13.5456579 25.6349517,14.0501861 Z" fill="#FFFFFF" fill-rule="evenodd"></path>
        </g>
    </g>
</svg>