<?xml version="1.0" encoding="UTF-8"?>
<svg width="30px" height="32px" viewBox="0 0 30 32" version="1.1" xmlns="http://www.w3.org/2000/svg" xmlns:xlink="http://www.w3.org/1999/xlink">
    <!-- Generator: Sketch 51 (57462) - http://www.bohemiancoding.com/sketch -->
    <title>Thumb Down</title>
    <desc>Created with Sketch.</desc>
    <defs>
        <path d="M23.9902569,14.2836898 L23.2490832,14.2836898 C24.4572979,14.2836898 25.4365046,13.2850294 25.4365046,12.0541484 C25.4365046,10.822151 24.4572979,9.8246071 23.2490832,9.8246071 L21.5591619,9.8246071 C22.7673766,9.8246071 23.7465834,8.82259742 23.7465834,7.58613421 C23.7465834,6.34967101 22.7673766,5.34766132 21.5591619,5.34766132 L20.3949438,5.34766132 C21.3132321,5.34487021 22.0566621,4.59908473 22.0566621,3.67857555 C22.0566621,2.75694993 21.3104118,2.00948979 20.3893032,2.00948979 C20.3893032,2.00948979 17.1341177,2 13.5873137,2 C10.0405096,2 6.35833138,5.40794937 4,5.40794937 L4,16.5500738 C5.8151424,16.5500738 9.33994814,19.7358505 11.6661282,21.6505543 L15.4628104,25.4174408 C16.2203419,26.1688085 17.4189676,26.1967197 18.1403993,25.4816364 C18.861831,24.7654367 18.8330639,23.5769807 18.0760965,22.825613 C18.0760965,22.825613 13.9748223,18.7946871 13.7774016,18.5853536 C13.5799809,18.3760201 13.4976283,18.1806422 13.6724866,18.1806422 L23.9902569,18.1806422 C25.1003254,18.1806422 25.9999997,17.3086984 25.9999997,16.2324451 C26.0005638,15.1556336 25.1003254,14.2836898 23.9902569,14.2836898 L23.9902569,14.2836898 Z" id="path-1"></path>
        <filter x="-25.9%" y="-15.4%" width="151.7%" height="147.4%" filterUnits="objectBoundingBox" id="filter-2">
            <feMorphology radius="1.6875" operator="dilate" in="SourceAlpha" result="shadowSpreadOuter1"></feMorphology>
            <feOffset dx="0" dy="2" in="shadowSpreadOuter1" result="shadowOffsetOuter1"></feOffset>
            <feGaussianBlur stdDeviation="1" in="shadowOffsetOuter1" result="shadowBlurOuter1"></feGaussianBlur>
            <feComposite in="shadowBlurOuter1" in2="SourceAlpha" operator="out" result="shadowBlurOuter1"></feComposite>
            <feColorMatrix values="0 0 0 0 0   0 0 0 0 0   0 0 0 0 0  0 0 0 0.179347826 0" type="matrix" in="shadowBlurOuter1"></feColorMatrix>
        </filter>
    </defs>
    <g id="Symbols" stroke="none" stroke-width="1" fill="none" fill-rule="evenodd">
        <g id="Thumb-Down">
            <use fill="black" fill-opacity="1" filter="url(#filter-2)" xlink:href="#path-1"></use>
            <path stroke="#D4D2D2" stroke-width="1.6875" d="M25.6348929,13.9498887 C26.3655328,14.4544608 26.8442452,15.2867309 26.8437497,16.2324451 C26.8437497,17.7806127 25.5605964,19.0243922 23.9902569,19.0243922 L15.4174521,19.0243922 C15.7256079,19.3284933 16.093632,19.6912346 16.5087999,20.1000777 C16.5119448,20.1031747 16.5119448,20.1031747 16.5150897,20.1062717 C16.98592,20.5699258 17.4904118,21.0663427 17.994908,21.5625067 C18.2976075,21.8602069 18.5330492,22.0916744 18.6704988,22.2267808 C19.7535897,23.3018594 19.7953674,25.0275942 18.7343782,26.0808886 C17.6772232,27.1287408 15.948589,27.0876649 14.868544,26.0164078 L11.1299127,22.3020042 C10.8523777,22.0735621 9.35798176,20.8210658 8.91542899,20.4576796 C8.53573555,20.145908 8.191166,19.8687213 7.86302693,19.6121163 C6.01983576,18.1707398 4.67831243,17.3938238 4,17.3938238 L3.15625,17.3938238 L3.15625,4.56419937 L4,4.56419937 C4.75178089,4.56419937 5.2485605,4.34744849 7.96246849,2.9534447 C9.87728986,1.96989321 11.1157227,1.46678625 12.4636018,1.24954952 C12.8457238,1.18796319 13.2197898,1.15625 13.5873137,1.15625 C15.1396238,1.15625 16.7480242,1.1580299 18.3199522,1.1609964 C18.8701231,1.16203466 19.3764449,1.1631471 19.8273434,1.16425957 C20.2898646,1.16544632 20.2898646,1.16544632 20.3893032,1.16573979 C21.7764811,1.16573979 22.9004121,2.29103826 22.9004121,3.67857555 C22.9004121,4.04983352 22.8199973,4.40231233 22.6756255,4.71948386 C23.7989691,5.17202296 24.5903334,6.28720328 24.5903334,7.58613421 C24.5903334,8.147846 24.4423437,8.67519536 24.1835144,9.12945487 C25.402151,9.52906462 26.2802546,10.6893184 26.2802546,12.0541484 C26.2802546,12.7685668 26.0393743,13.4271618 25.6348929,13.9498887 Z" fill="#FFFFFF" fill-rule="evenodd"></path>
        </g>
    </g>
</svg>