<?xml version="1.0" encoding="UTF-8"?>
<svg width="65px" height="65px" viewBox="0 0 65 65" version="1.1" xmlns="http://www.w3.org/2000/svg" xmlns:xlink="http://www.w3.org/1999/xlink">
    <!-- Generator: Sketch 51.3 (57544) - http://www.bohemiancoding.com/sketch -->
    <title>Group 30</title>
    <desc>Created with Sketch.</desc>
    <defs></defs>
    <g id="Page-1" stroke="none" stroke-width="1" fill="none" fill-rule="evenodd">
        <g id="-" transform="translate(-330.000000, -642.000000)" stroke="#FFFFFF" stroke-width="4">
            <g id="ic_delete" transform="translate(302.000000, 615.000000)">
                <g id="Group-30" transform="translate(30.000000, 27.000000)">
                    <path d="M10,11 L10,59.007019 C10,61.2123474 11.7900525,63 14.0003217,63 L48.9996783,63 C51.2039339,63 53,61.2080492 53,59.007019 L53,11 L10,11 Z" id="Rectangle-14"></path>
                    <path d="M0.955213962,11 L60.955214,11" id="Path-19" stroke-linecap="round"></path>
                    <path d="M22,11 L41,11 L41,6.5 C41,4.01906046 38.9829238,2 36.5013474,2 L26.4986526,2 C24.0162843,2 22,4.01596953 22,6.5 L22,11 Z" id="Rectangle-15"></path>
                    <path d="M21,22.5867063 L21,53.5514256" id="Path-20" stroke-linecap="round"></path>
                    <path d="M31,25.5867063 L31,51.5467054" id="Path-20" stroke-linecap="round"></path>
                    <path d="M41,22.5867063 L41,53.5514256" id="Path-20" stroke-linecap="round"></path>
                </g>
            </g>
        </g>
    </g>
</svg>