<?xml version="1.0" encoding="UTF-8"?>
<svg width="55px" height="51px" viewBox="0 0 55 51" version="1.1" xmlns="http://www.w3.org/2000/svg" xmlns:xlink="http://www.w3.org/1999/xlink">
    <!-- Generator: Sketch 51.3 (57544) - http://www.bohemiancoding.com/sketch -->
    <title>Group</title>
    <desc>Created with Sketch.</desc>
    <defs></defs>
    <g id="Page-1" stroke="none" stroke-width="1" fill="none" fill-rule="evenodd">
        <g id="Account-Verification-/-08" transform="translate(-773.000000, -318.000000)" fill-rule="nonzero">
            <g id="Group" transform="translate(773.000000, 318.000000)">
                <path d="M44.4311693,13.613347 C43.8519451,10.1870637 42.1476892,7.06016427 39.5411803,4.68726899 C36.6450592,2.04825462 32.8801018,0.595687885 28.9591995,0.595687885 C25.9294113,0.595687885 22.9775956,1.46057495 20.4490591,3.09055441 C18.3438019,4.44332649 16.5949903,6.27289528 15.3585694,8.42402464 C14.8239009,8.32422998 14.2669545,8.2687885 13.7100082,8.2687885 C8.97596411,8.2687885 5.12189531,12.1053388 5.12189531,16.8178645 C5.12189531,17.4277207 5.18872887,18.0154004 5.30011814,18.5919918 C2.23691317,20.8096509 0.376712329,24.3800821 0.376712329,28.1833676 C0.376712329,31.2548255 1.52402183,34.237577 3.61814014,36.599384 C5.76795308,39.0166324 8.60837951,40.4470226 11.6381677,40.613347 C11.6715845,40.613347 11.6938623,40.613347 11.7272791,40.613347 L21.3067565,40.613347 C22.142176,40.613347 22.8105117,39.9480493 22.8105117,39.1164271 C22.8105117,38.2848049 22.142176,37.6195072 21.3067565,37.6195072 L11.7718348,37.6195072 C7.21601361,37.3422998 3.38422267,33.0289528 3.38422267,28.1722793 C3.38422267,25.0342916 5.0773396,22.1069815 7.80637675,20.5213552 C8.4412956,20.1554415 8.70862986,19.3903491 8.46357346,18.7028747 C8.24079491,18.1041068 8.12940564,17.4720739 8.12940564,16.7956879 C8.12940564,13.7353183 10.6356643,11.2404517 13.7100082,11.2404517 C14.3672049,11.2404517 15.0132626,11.3513347 15.6147647,11.5731006 C16.3499339,11.8392197 17.1630756,11.5065708 17.4972434,10.8080082 C19.5802228,6.40595483 24.0803494,3.56735113 28.9703384,3.56735113 C35.5423054,3.56735113 40.966963,8.46837782 41.5907429,14.9661191 C41.6575764,15.6425051 42.1699671,16.1858316 42.8383027,16.2967146 C47.7951253,17.1394251 51.5378048,21.6967146 51.5378048,26.8971253 C51.5378048,32.4080082 47.1824843,37.198152 41.8135214,37.6084189 L33.6041321,37.6084189 C32.7687126,37.6084189 32.1003769,38.2737166 32.1003769,39.1053388 C32.1003769,39.936961 32.7687126,40.6022587 33.6041321,40.6022587 L41.8692161,40.6022587 C41.9026328,40.6022587 41.9360496,40.6022587 41.9806053,40.6022587 C45.3779781,40.3583162 48.5525724,38.8059548 50.9140249,36.2112936 C53.2643386,33.638809 54.5453152,30.3344969 54.5453152,26.8971253 C54.5341763,20.6765914 50.2679671,15.1435318 44.4311693,13.613347 Z" id="Shape" fill="#4A90E2"></path>
                <path d="M36.4891142,29.6026694 C37.0794774,29.0149897 37.0794774,28.0724846 36.4891142,27.4848049 L28.5247813,19.5566735 C28.2463081,19.2794661 27.8564457,19.1131417 27.4665832,19.1131417 C27.0767208,19.1131417 26.6868583,19.2683778 26.4083851,19.5566735 L18.4440522,27.4848049 C17.8536891,28.0724846 17.8536891,29.0149897 18.4440522,29.6026694 C18.7336643,29.8909651 19.1235268,30.0462012 19.5022503,30.0462012 C19.8809738,30.0462012 20.2708363,29.9020534 20.5604484,29.6026694 L25.962828,24.224846 L25.962828,48.9406571 C25.962828,49.7722793 26.6311637,50.437577 27.4665832,50.437577 C28.3020028,50.437577 28.9703384,49.7722793 28.9703384,48.9406571 L28.9703384,24.224846 L34.3727181,29.6026694 C34.9519423,30.1903491 35.8987511,30.1903491 36.4891142,29.6026694 Z" id="Shape" fill="#4BB7F1"></path>
            </g>
        </g>
    </g>
</svg>