<?xml version="1.0" encoding="UTF-8"?>
<svg width="40px" height="22px" viewBox="0 0 40 22" version="1.1" xmlns="http://www.w3.org/2000/svg" xmlns:xlink="http://www.w3.org/1999/xlink">
    <!-- Generator: Sketch 49.3 (51167) - http://www.bohemiancoding.com/sketch -->
    <title>Group 4</title>
    <desc>Created with Sketch.</desc>
    <defs></defs>
    <g id="Page-1" stroke="none" stroke-width="1" fill="none" fill-rule="evenodd">
        <g id="Chat--01" transform="translate(-18.000000, -674.000000)" fill="#9B9B9B" stroke="#FFFFFF">
            <g id="Group-4" transform="translate(19.000000, 674.000000)">
                <path d="M19.0909091,11.884876 C21.5977273,11.884876 23.6363636,9.80917355 23.6363636,7.25677686 C23.6363636,4.70438017 21.5977273,2.62867769 19.0909091,2.62867769 C16.5840909,2.62867769 14.5454545,4.70438017 14.5454545,7.25677686 C14.5454545,9.80917355 16.5840909,11.884876 19.0909091,11.884876" id="Fill-87"></path>
                <path d="M9.09090909,9.88487603 C11.5977273,9.88487603 13.6363636,7.80917355 13.6363636,5.25677686 C13.6363636,2.70438017 11.5977273,0.628677686 9.09090909,0.628677686 C6.58409091,0.628677686 4.54545455,2.70438017 4.54545455,5.25677686 C4.54545455,7.80917355 6.58409091,9.88487603 9.09090909,9.88487603" id="Fill-87"></path>
                <path d="M9.09090909,11.0419008 C3.73863636,11.0419008 0,13.896281 0,17.9840496 L0,19.1410744 L18.1818182,19.1410744 L18.1818182,17.9840496 C18.1818182,13.896281 14.4431818,11.0419008 9.09090909,11.0419008" id="Fill-88"></path>
                <path d="M29.0909091,9.88487603 C31.5977273,9.88487603 33.6363636,7.80917355 33.6363636,5.25677686 C33.6363636,2.70438017 31.5977273,0.628677686 29.0909091,0.628677686 C26.5840909,0.628677686 24.5454545,2.70438017 24.5454545,5.25677686 C24.5454545,7.80917355 26.5840909,9.88487603 29.0909091,9.88487603" id="Fill-87"></path>
                <path d="M29.0909091,11.0419008 C23.7386364,11.0419008 20,13.896281 20,17.9840496 L20,19.1410744 L38.1818182,19.1410744 L38.1818182,17.9840496 C38.1818182,13.896281 34.4431818,11.0419008 29.0909091,11.0419008" id="Fill-88"></path>
                <path d="M19.0909091,13.0419008 C13.7386364,13.0419008 10,15.896281 10,19.9840496 L10,21.1410744 L28.1818182,21.1410744 L28.1818182,19.9840496 C28.1818182,15.896281 24.4431818,13.0419008 19.0909091,13.0419008" id="Fill-88"></path>
            </g>
        </g>
    </g>
</svg>