<?xml version="1.0" encoding="UTF-8"?>
<svg width="47px" height="68px" viewBox="0 0 47 68" version="1.1" xmlns="http://www.w3.org/2000/svg" xmlns:xlink="http://www.w3.org/1999/xlink">
    <!-- Generator: Sketch 51 (57462) - http://www.bohemiancoding.com/sketch -->
    <title>Group</title>
    <desc>Created with Sketch.</desc>
    <defs>
        <polygon id="path-1" points="0 0 46.999853 0 46.999853 47.4418541 0 47.4418541"></polygon>
    </defs>
    <g id="Symbols" stroke="none" stroke-width="1" fill="none" fill-rule="evenodd">
        <g id="Tenant-Manage-Nav-Searching" transform="translate(-678.000000, -114.000000)">
            <g id="Nav">
                <g id="Group-12">
                    <g id="Nav+Items">
                        <g id="Group-4" transform="translate(413.000000, 108.000000)">
                            <g id="Group" transform="translate(265.000000, 6.000000)">
                                <polygon id="Fill-1" fill="#EF4A4C" points="13 41 13 68 24.0007858 61.6486471 35 68 35 41"></polygon>
                                <g id="Group-33">
                                    <path d="M23.5,41.1162791 L34.4666667,41.1162791 L34.4666667,46.1625116 C33.7272,46.6053023 33.1068,47.2505116 32.6963333,48.0522791 L32.6947667,48.0522791 C31.4304667,50.5208372 28.3394333,51.3573953 26.0223333,49.8582326 C25.2531,49.360093 24.3773333,49.111814 23.5,49.111814 L23.5,61.6744186 L12.5333333,68 L12.5333333,46.1625116 L12.5333333,41.1162791 L23.5,41.1162791 Z" id="Fill-2" fill="#DD333E"></path>
                                    <g id="Group-6">
                                        <mask id="mask-2" fill="white">
                                            <use xlink:href="#path-1"></use>
                                        </mask>
                                        <g id="Clip-5"></g>
                                        <path d="M26.02296,0.746734884 C28.34006,-0.752427907 31.4310933,0.0841302326 32.6953933,2.55268837 C33.53356,4.18943256 35.2412267,5.18413023 37.0648267,5.09715349 C39.8143267,4.96906047 42.07816,7.25417674 41.9496933,10.0295256 C41.8650933,11.8702698 42.84896,13.5924093 44.4720267,14.4384558 C46.9175933,15.7146419 47.7447933,18.8363163 46.2595933,21.1752 C45.27416,22.7265488 45.27416,24.7159442 46.2595933,26.267293 C47.7447933,28.6061767 46.9175933,31.7278512 44.4720267,33.0024558 C42.84896,33.8500837 41.8650933,35.5706419 41.9496933,37.4129674 C42.07816,40.1883163 39.8143267,42.4734326 37.0648267,42.3437581 C35.2412267,42.2583628 33.53356,43.2530605 32.6953933,44.8898047 C31.4310933,47.3583628 28.34006,48.1933395 26.02296,46.6957581 C24.48606,45.6994791 22.5151933,45.6994791 20.9767267,46.6957581 C18.6611933,48.1933395 15.5685933,47.3583628 14.30586,44.8898047 C13.4661267,43.2530605 11.7600267,42.2583628 9.93486,42.3437581 C7.18692667,42.4734326 4.92152667,40.1883163 5.04999333,37.4129674 C5.13459333,35.5706419 4.15072667,33.8500837 2.52766,33.0024558 C0.0820933333,31.7278512 -0.745106667,28.6061767 0.740093333,26.267293 C1.72552667,24.7159442 1.72552667,22.7265488 0.740093333,21.1752 C-0.745106667,18.8363163 0.0820933333,15.7146419 2.52766,14.4384558 C4.15072667,13.5924093 5.13459333,11.8702698 5.04999333,10.0295256 C4.92152667,7.25417674 7.18692667,4.96906047 9.93486,5.09715349 C11.7600267,5.18413023 13.4661267,4.18943256 14.30586,2.55268837 C15.5685933,0.0841302326 18.6611933,-0.752427907 20.9767267,0.746734884 C22.5151933,1.74143256 24.48606,1.74143256 26.02296,0.746734884" id="Fill-4" fill="#FECA5B" mask="url(#mask-2)"></path>
                                    </g>
                                    <path d="M39.1666667,23.7209302 C39.1666667,32.4549767 32.1511333,39.5348837 23.5,39.5348837 C14.8488667,39.5348837 7.83333333,32.4549767 7.83333333,23.7209302 C7.83333333,14.9868837 14.8488667,7.90697674 23.5,7.90697674 C32.1511333,7.90697674 39.1666667,14.9868837 39.1666667,23.7209302" id="Fill-7" fill="#F09820"></path>
                                    <path d="M23.5,39.5348837 C14.8488667,39.5348837 7.83333333,32.4549767 7.83333333,23.7209302 C7.83333333,14.9868837 14.8488667,7.90697674 23.5,7.90697674 C32.1511333,7.90697674 39.1666667,14.9868837 39.1666667,23.7209302 C39.1666667,32.4549767 32.1511333,39.5348837 23.5,39.5348837 M23.5,4.74418605 C13.1177,4.74418605 4.7,13.2410233 4.7,23.7209302 C4.7,34.2008372 13.1177,42.6976744 23.5,42.6976744 C33.8823,42.6976744 42.3,34.2008372 42.3,23.7209302 C42.3,13.2410233 33.8823,4.74418605 23.5,4.74418605" id="Fill-9" fill="#F5B445"></path>
                                    <path d="M37.0645133,5.09778605 C35.2409133,5.1831814 33.5332467,4.18848372 32.69508,2.55173953 C32.58228,2.32876279 32.43658,2.13425116 32.2940133,1.93815814 L3.61148,33.7842977 C4.57341333,34.7125767 5.11391333,36.0298791 5.04968,37.4136 C5.00424667,38.4051349 5.27371333,39.3270884 5.75311333,40.1051349 L37.2697467,5.11043721 C37.2008133,5.11043721 37.1350133,5.09462326 37.0645133,5.09778605" id="Fill-11" fill="#FEE17A"></path>
                                    <path d="M8.51561667,28.3392372 C9.12818333,30.3618419 10.12615,32.2136558 11.4296167,33.8013767 L32.2944833,10.6339349 C30.6118833,9.47951628 28.69585,8.64770233 26.6309833,8.22388837 L8.51561667,28.3392372 Z" id="Fill-13" fill="#F5B445"></path>
                                    <path d="M9.31587,36.1497488 L11.43087,33.8013767 C10.1274033,32.2136558 9.12787,30.3618419 8.51530333,28.3392372 L6.13397,30.9849116 C6.91417,32.8857488 7.99830333,34.6205395 9.31587,36.1497488" id="Fill-15" fill="#FECA5B"></path>
                                    <path d="M26.6317667,8.22436279 C28.6950667,8.64817674 30.6126667,9.4799907 32.2937,10.6344093 L34.4102667,8.28603721 C32.7840667,7.11264186 30.973,6.1827814 29.0146667,5.57868837 L26.6317667,8.22436279 Z" id="Fill-17" fill="#FECA5B"></path>
                                    <path d="M44.4724967,14.4387721 C42.84943,13.5927256 41.8655633,11.8690047 41.9501633,10.0282605 C42.0300633,8.25709767 41.13393,6.69467907 39.76153,5.82174884 L7.43023,41.7210047 C8.16813,42.1432372 9.01883,42.3867721 9.93533,42.3440744 C11.75893,42.2586791 13.4665967,43.2533767 14.3047633,44.8901209 C14.6415967,45.5495628 15.1162967,46.082493 15.66463,46.4952372 L44.5116633,14.4656558 C44.4975633,14.4577488 44.4865967,14.4466791 44.4724967,14.4387721" id="Fill-19" fill="#FEE17A"></path>
                                    <path d="M22.00211,39.4585023 L38.8766767,20.7221302 C38.2327767,17.3395256 36.5172767,14.349107 34.10461,12.105107 L13.0517433,35.4797116 C15.4753767,37.6778512 18.5726767,39.1295721 22.00211,39.4585023" id="Fill-21" fill="#F5B445"></path>
                                    <path d="M22.00211,39.4585023 C18.5726767,39.1295721 15.4769433,37.6778512 13.0517433,35.4797116 L10.9461433,37.8185953 C13.32591,39.9787814 16.2430433,41.5412 19.4860433,42.2544093 L22.00211,39.4585023 Z" id="Fill-23" fill="#FECA5B"></path>
                                    <path d="M36.20927,9.76717209 L34.10367,12.1044744 C36.5163367,14.3484744 38.2334033,17.338893 38.8757367,20.7214977 L41.3996367,17.9224279 C40.39227,14.7564744 38.57807,11.9653116 36.20927,9.76717209" id="Fill-25" fill="#FECA5B"></path>
                                    <path d="M28.9466733,33.2085116 C28.8511067,33.2085116 28.7586733,33.1847907 28.6725067,33.1373488 L23.4993733,30.2607907 L18.3278067,33.1373488 C18.12884,33.2480465 17.8875733,33.2290698 17.7089733,33.089907 C17.5256733,32.9507442 17.4363733,32.7151163 17.4739733,32.4826512 L18.46254,26.3879535 L14.2779733,22.073907 C14.1181733,21.9094419 14.05864,21.6611628 14.12914,21.4366047 C14.1980733,21.2104651 14.3813733,21.046 14.60384,21.0127907 L20.3864067,20.1256279 L22.9729733,14.5796744 C23.0716733,14.3677674 23.2784733,14.2317674 23.4993733,14.2317674 C23.72184,14.2317674 23.92864,14.3677674 24.0257733,14.5796744 L26.6139067,20.1256279 L32.3964733,21.0127907 C32.61894,21.046 32.80224,21.2104651 32.87274,21.4366047 C32.9401067,21.6611628 32.88214,21.9094419 32.72234,22.073907 L28.5377733,26.3879535 L29.5232067,32.4826512 C29.5623733,32.7151163 29.4730733,32.9507442 29.29134,33.089907 C29.18794,33.1689767 29.0688733,33.2085116 28.9466733,33.2085116" id="Fill-27" fill="#FFECA8"></path>
                                    <path d="M24.0262433,14.5792 C23.92911,14.367293 23.72231,14.2328744 23.4998433,14.2328744 C23.2773767,14.2328744 23.0721433,14.367293 22.9734433,14.5792 L20.3868767,20.1235721 L15.19651,20.9221767 L14.23301,21.9912 C14.25181,22.0180837 14.25651,22.051293 14.2768767,22.075014 L18.2765767,26.199293 L25.63521,18.0298047 L24.0262433,14.5792 Z" id="Fill-29" fill="#FFFAD4"></path>
                                    <path d="M28.5380867,26.3879535 L32.7226533,22.073907 C32.8808867,21.9094419 32.94042,21.6611628 32.8730533,21.4366047 C32.8025533,21.2104651 32.6176867,21.046 32.3967867,21.0127907 L26.84922,20.1604186 L17.8518533,30.150093 L17.4742867,32.4826512 C17.4366867,32.7151163 17.5259867,32.9507442 17.7092867,33.089907 C17.8878867,33.2290698 18.1275867,33.2480465 18.3265533,33.1373488 L23.4996867,30.2607907 L28.0226533,32.7752093 L29.33552,31.3155814 L28.5380867,26.3879535 Z" id="Fill-31" fill="#FFFAD4"></path>
                                </g>
                            </g>
                        </g>
                    </g>
                </g>
            </g>
        </g>
    </g>
</svg>