<?xml version="1.0" encoding="UTF-8"?>
<svg width="61px" height="61px" viewBox="0 0 61 61" version="1.1" xmlns="http://www.w3.org/2000/svg" xmlns:xlink="http://www.w3.org/1999/xlink">
    <!-- Generator: Sketch 50.2 (55047) - http://www.bohemiancoding.com/sketch -->
    <title>Group Copy</title>
    <desc>Created with Sketch.</desc>
    <defs>
        <path d="M37,57.7155321 C37,58.9771121 36.2825634,60 35.3979048,60 L1.60228787,60 C0.717243929,60 0,58.9771121 0,57.7155321 L0,7.28446791 C0,6.02288788 0.717243929,5 1.60228787,5 L35.3979048,5 C36.2825634,5 37,6.02288788 37,7.28446791 L37,57.7155321 Z" id="path-1"></path>
        <filter x="-1.4%" y="-0.9%" width="105.4%" height="103.6%" filterUnits="objectBoundingBox" id="filter-2">
            <feOffset dx="1" dy="1" in="SourceAlpha" result="shadowOffsetOuter1"></feOffset>
            <feColorMatrix values="0 0 0 0 0   0 0 0 0 0   0 0 0 0 0  0 0 0 0.5 0" type="matrix" in="shadowOffsetOuter1"></feColorMatrix>
        </filter>
    </defs>
    <g id="Symbols" stroke="none" stroke-width="1" fill="none" fill-rule="evenodd">
        <g id="Nav+Items" transform="translate(-1134.000000, -116.000000)">
            <g id="Nav-Items" transform="translate(108.000000, 111.000000)">
                <g id="Maint+Notice" transform="translate(960.000000, 5.000000)">
                    <g id="Group-Copy" transform="translate(66.000000, 0.000000)">
                        <g id="Fill-1">
                            <use fill="black" fill-opacity="1" filter="url(#filter-2)" xlink:href="#path-1"></use>
                            <use fill="#EFC94B" fill-rule="evenodd" xlink:href="#path-1"></use>
                        </g>
                        <path d="M7,9 C7,10.6569092 5.88071749,12 4.49991031,12 C3.11946188,12 2,10.6569092 2,9 C2,7.34309083 3.11946188,6 4.49991031,6 C5.88071749,6 7,7.34309083 7,9" id="Fill-3" fill="#EC8818"></path>
                        <path d="M6,9.32148614 C6,10.2483831 5.32847496,11 4.49989971,11 C3.67152504,11 3,10.2483831 3,9.32148614 L3,1.67828943 C3,0.751392488 3.67152504,0 4.49989971,0 C5.32847496,0 6,0.751392488 6,1.67828943 L6,9.32148614 Z" id="Fill-5" fill="#9B9B9B"></path>
                        <path d="M14,9 C14,10.6569092 12.8807175,12 11.4999103,12 C10.1192825,12 9,10.6569092 9,9 C9,7.34309083 10.1192825,6 11.4999103,6 C12.8807175,6 14,7.34309083 14,9" id="Fill-7" fill="#EC8818"></path>
                        <path d="M13,9.32148614 C13,10.2483831 12.3283193,11 11.5002006,11 C10.6714801,11 10,10.2483831 10,9.32148614 L10,1.67828943 C10,0.751392488 10.6714801,0 11.5002006,0 C12.3283193,0 13,0.751392488 13,1.67828943 L13,9.32148614 Z" id="Fill-9" fill="#9B9B9B"></path>
                        <path d="M21,9 C21,10.6569092 19.8808969,12 18.5000897,12 C17.1194619,12 16,10.6569092 16,9 C16,7.34309083 17.1194619,6 18.5000897,6 C19.8808969,6 21,7.34309083 21,9" id="Fill-11" fill="#EC8818"></path>
                        <path d="M20,9.32148614 C20,10.2483831 19.3282744,11 18.4998997,11 C17.671525,11 17,10.2483831 17,9.32148614 L17,1.67828943 C17,0.751392488 17.671525,0 18.4998997,0 C19.3282744,0 20,0.751392488 20,1.67828943 L20,9.32148614 Z" id="Fill-13" fill="#9B9B9B"></path>
                        <path d="M28,9 C28,10.6569092 26.8805783,12 25.5,12 C24.1192424,12 23,10.6569092 23,9 C23,7.34309083 24.1192424,6 25.5,6 C26.8805783,6 28,7.34309083 28,9" id="Fill-15" fill="#EC8818"></path>
                        <path d="M27,9.32148614 C27,10.2483831 26.3282295,11 25.5,11 C24.6715699,11 24,10.2483831 24,9.32148614 L24,1.67828943 C24,0.751392488 24.6715699,0 25.5,0 C26.3282295,0 27,0.751392488 27,1.67828943 L27,9.32148614 Z" id="Fill-17" fill="#9B9B9B"></path>
                        <path d="M35,9 C35,10.6569092 33.8805381,12 32.4999103,12 C31.1192825,12 30,10.6569092 30,9 C30,7.34309083 31.1192825,6 32.4999103,6 C33.8805381,6 35,7.34309083 35,9" id="Fill-19" fill="#EC8818"></path>
                        <path d="M34,9.32148614 C34,10.2483831 33.3282744,11 32.4998997,11 C31.671525,11 31,10.2483831 31,9.32148614 L31,1.67828943 C31,0.751392488 31.671525,0 32.4998997,0 C33.3282744,0 34,0.751392488 34,1.67828943 L34,9.32148614 Z" id="Fill-21" fill="#9B9B9B"></path>
                        <polygon id="Fill-23" fill="#FAFAFA" points="3 19 32 19 32 17 3 17"></polygon>
                        <polygon id="Fill-25" fill="#FAFAFA" points="3 26 25 26 25 24 3 24"></polygon>
                        <polygon id="Fill-26" fill="#FAFAFA" points="3 32 25 32 25 30 3 30"></polygon>
                        <polygon id="Fill-28" fill="#FED2B4" points="39 28.2544759 28 22 33.7651089 34"></polygon>
                        <polygon id="Fill-29" fill="#50646F" points="32 24.6056736 28 22 30.0951216 27"></polygon>
                        <path d="M36.5915428,27.3011242 C36.1825689,27.7642689 36.2669511,28.5890889 36.7342395,29.239277 L36.6494711,29.3366093 C36.0715396,28.8135845 35.3368154,28.719954 34.9297724,29.1844052 C34.5180952,29.6497273 34.6040222,30.4721521 35.0707313,31.1227757 L34.9813286,31.2227209 C34.4035902,30.697301 33.6711832,30.6056301 33.263754,31.0709523 C32.8538146,31.5334437 32.9381968,32.358917 33.4027819,33.0093228 L33.3668664,33.0509122 L55.5754251,58.502532 C56.0670435,59.0564766 56.7648866,59.1638251 57.1383312,58.7435763 L60.7733331,54.6260086 C61.1465846,54.2057598 61.0482996,53.4170855 60.556295,52.8651007 L38.3487018,27.4113034 L38.3124,27.4504976 C37.7333099,26.9281261 37.0016753,26.8360198 36.5915428,27.3011242" id="Fill-30" fill="#E93737"></path>
                        <path d="M53,55.4166919 L55.7740309,58.5222508 C56.247655,59.0542379 56.9197696,59.1573314 57.2795453,58.7537405 L60.7816849,54.799386 C61.1412746,54.395586 61.046401,53.6381734 60.5725908,53.1082774 L57.799118,50 L53,55.4166919 Z" id="Fill-31" fill="#FF4057"></path>
                        <polygon id="Fill-32" fill="#B9BEC4" points="46 48.1585341 51.2523809 42 58 49.8441476 52.7474277 56"></polygon>
                        <polygon id="Fill-33" fill="#50646F" points="51.1733887 54.2253983 56.5081769 48 57 48.5651926 51.6492446 54.7769097"></polygon>
                        <polygon id="Fill-34" fill="#50646F" points="49.3997373 52.0961581 54.6354545 45.8634279 55.0626363 46.4880654 49.8653218 52.6482061"></polygon>
                        <polygon id="Fill-35" fill="#50646F" points="48 50.4294318 53.215169 44.3156701 53.7013728 44.813755 48.4929161 51"></polygon>
                    </g>
                </g>
            </g>
        </g>
    </g>
</svg>