<?xml version="1.0" encoding="UTF-8"?>
<svg width="70px" height="65px" viewBox="0 0 70 65" version="1.1" xmlns="http://www.w3.org/2000/svg" xmlns:xlink="http://www.w3.org/1999/xlink">
    <!-- Generator: Sketch 50.2 (55047) - http://www.bohemiancoding.com/sketch -->
    <title>rental_nav_icon</title>
    <desc>Created with Sketch.</desc>
    <defs>
        <polygon id="path-1" points="0 0.0104 70 0.0104 70 50.8544978 0 50.8544978"></polygon>
        <polygon id="path-3" points="0 65 70 65 70 0 0 0"></polygon>
    </defs>
    <g id="Symbols" stroke="none" stroke-width="1" fill="none" fill-rule="evenodd">
        <g id="Nav+Items" transform="translate(-561.000000, -114.000000)">
            <g id="Nav-Items" transform="translate(108.000000, 111.000000)">
                <g id="Rent-Payments" transform="translate(394.000000, 3.000000)">
                    <g id="rental_nav_icon" transform="translate(59.000000, 0.000000)">
                        <g id="Group-3">
                            <mask id="mask-2" fill="white">
                                <use xlink:href="#path-1"></use>
                            </mask>
                            <g id="Clip-2"></g>
                            <path d="M4.66666667,0.0100533333 L65.3333333,0.0100533333 C67.9105,0.0100533333 70,2.07965333 70,4.63227556 L70,46.2322756 C70,48.7848978 67.9105,50.8544978 65.3333333,50.8544978 L4.66666667,50.8544978 C2.0895,50.8544978 0,48.7848978 0,46.2322756 L0,4.63227556 C0,2.07965333 2.0895,0.0100533333 4.66666667,0.0100533333" id="Fill-1" fill="#77A0D4" mask="url(#mask-2)"></path>
                        </g>
                        <path d="M19.8791865,31.376 C19.3507867,31.5051429 18.9854161,31.9805714 19.0004471,32.5188571 L19.0004471,47.8685714 C19.0062283,48.9188571 19.1021959,49.9657143 19.2895061,51 L55.710941,51 C55.8982512,49.9657143 55.9942188,48.9188571 56,47.8685714 L56,31.5714286 L37.5002236,27 L19.8791865,31.376 Z" id="Fill-4" fill="#567FA5"></path>
                        <path d="M52.125,37 L58.875,37 C59.497125,37 60,37.55875 60,38.25 L60,40.75 C60,41.44125 59.497125,42 58.875,42 L52.125,42 C51.502875,42 51,41.44125 51,40.75 L51,38.25 C51,37.55875 51.502875,37 52.125,37" id="Fill-6" fill="#BBCBE1"></path>
                        <path d="M56,37 L52.25,37 C51.55875,37 51,37.55875 51,38.25 L51,40.75 C51,41.44 51.55875,42 52.25,42 L56,42 L56,37 Z" id="Fill-8" fill="#77A0D4"></path>
                        <path d="M10.125,37 L16.875,37 C17.497125,37 18,37.55875 18,38.25 L18,40.75 C18,41.44125 17.497125,42 16.875,42 L10.125,42 C9.502875,42 9,41.44125 9,40.75 L9,38.25 C9,37.55875 9.502875,37 10.125,37" id="Fill-10" fill="#BBCBE1"></path>
                        <path d="M24.125,37 L30.875,37 C31.497125,37 32,37.55875 32,38.25 L32,40.75 C32,41.44125 31.497125,42 30.875,42 L24.125,42 C23.502875,42 23,41.44125 23,40.75 L23,38.25 C23,37.55875 23.502875,37 24.125,37" id="Fill-12" fill="#BBCBE1"></path>
                        <path d="M38.125,37 L44.875,37 C45.497125,37 46,37.55875 46,38.25 L46,40.75 C46,41.44125 45.497125,42 44.875,42 L38.125,42 C37.502875,42 37,41.44125 37,40.75 L37,38.25 C37,37.55875 37.502875,37 38.125,37" id="Fill-14" fill="#BBCBE1"></path>
                        <mask id="mask-4" fill="white">
                            <use xlink:href="#path-3"></use>
                        </mask>
                        <g id="Clip-17"></g>
                        <polygon id="Fill-16" fill="#648FBF" mask="url(#mask-4)" points="33 11 42 11 42 9 33 9"></polygon>
                        <polygon id="Fill-18" fill="#648FBF" mask="url(#mask-4)" points="40 16 54 16 54 14 40 14"></polygon>
                        <polygon id="Fill-19" fill="#648FBF" mask="url(#mask-4)" points="51 11 60 11 60 9 51 9"></polygon>
                        <polygon id="Fill-20" fill="#648FBF" mask="url(#mask-4)" points="44 11 49 11 49 9 44 9"></polygon>
                        <polygon id="Fill-21" fill="#648FBF" mask="url(#mask-4)" points="56 16 61 16 61 14 56 14"></polygon>
                        <polygon id="Fill-22" fill="#648FBF" mask="url(#mask-4)" points="33 16 38 16 38 14 33 14"></polygon>
                        <path d="M11.3333333,9 L20.6666667,9 C21.9546667,9 23,10.0453333 23,11.3333333 L23,20.6666667 C23,21.9546667 21.9546667,23 20.6666667,23 L11.3333333,23 C10.0453333,23 9,21.9546667 9,20.6666667 L9,11.3333333 C9,10.0453333 10.0453333,9 11.3333333,9" id="Fill-23" fill="#FACE59" mask="url(#mask-4)"></path>
                        <polygon id="Fill-24" fill="#E5B751" mask="url(#mask-4)" points="9 15 14 15 14 13 9 13"></polygon>
                        <polygon id="Fill-25" fill="#E5B751" mask="url(#mask-4)" points="19 15 24 15 24 13 19 13"></polygon>
                        <polygon id="Fill-26" fill="#E5B751" mask="url(#mask-4)" points="9 19 14 19 14 17 9 17"></polygon>
                        <polygon id="Fill-27" fill="#E5B751" mask="url(#mask-4)" points="19 19 24 19 24 17 19 17"></polygon>
                        <polygon id="Fill-28" fill="#E5B751" mask="url(#mask-4)" points="13 23 15 23 15 9 13 9"></polygon>
                        <polygon id="Fill-29" fill="#E5B751" mask="url(#mask-4)" points="18 23 20 23 20 9 18 9"></polygon>
                        <path d="M52.1215368,27.4189914 L34.7834465,23.0350714 C34.597351,22.9883095 34.4031644,22.9883095 34.2170689,23.0350714 L16.8789787,27.4189914 C16.3507449,27.5510935 15.9843332,28.0374164 16.0005154,28.5880368 L16.0005154,47.1758578 C16.0005154,54.3315844 20.598577,60.6584578 27.3500293,62.7954727 L34.1477166,64.9465162 C34.3742676,65.0178279 34.6146891,65.0178279 34.8412402,64.9465162 L41.6377715,62.7954727 C48.3938474,60.663134 52.9976883,54.3350915 53,47.1758578 L53,28.5541345 C53,28.0163736 52.637056,27.5475864 52.1215368,27.4189914" id="Fill-30" fill="#FACE5A" mask="url(#mask-4)"></path>
                        <path d="M53.53668,28 L37.374975,28 C36.0628013,28 35,29.0344801 35,30.3116873 L35,64.9869968 C35.1175613,65.0043344 35.2374975,65.0043344 35.3550588,64.9869968 L42.3374853,62.8590886 C49.305662,60.7381155 54.0354248,54.4422352 53.9998001,47.3361084 L53.9998001,28.9246749 C54.0021751,28.56174 53.8311769,28.2196103 53.53668,28" id="Fill-31" fill="#F2C357" mask="url(#mask-4)"></path>
                        <path d="M35,33 C28.3725714,33 23,38.3714286 23,45 C23,51.6274286 28.3725714,57 35,57 C41.6274286,57 47,51.6274286 47,45 C47,38.3714286 41.6274286,33 35,33" id="Fill-32" fill="#F2C357" mask="url(#mask-4)"></path>
                        <path d="M36,35 C30.4776471,35 26,39.4764706 26,45 C26,50.5223529 30.4776471,55 36,55 C41.5223529,55 46,50.5223529 46,45 C46,39.4764706 41.5223529,35 36,35" id="Fill-33" fill="#499F62" mask="url(#mask-4)"></path>
                        <path d="M33.4464997,50.870925 L28.1242977,45.302746 C27.9613959,45.1370194 27.9580486,44.8650878 28.1176031,44.6935258 C28.1198346,44.6900246 28.1220662,44.6876904 28.1242977,44.6853562 L29.8983651,42.8296856 C30.0634984,42.6627919 30.3245875,42.6627919 30.4897208,42.8296856 L33.7488722,46.2375838 L40.5092961,39.1300151 C40.6688506,38.9596202 40.9299398,38.956119 41.0939573,39.1230126 L41.1006519,39.1300151 L42.8747192,40.9856858 C43.0387368,41.1525794 43.0420841,41.4256781 42.8825296,41.5960731 L42.8747192,41.6042427 L33.9485943,50.9409503 C33.7856925,51.0413199 33.5792758,51.0109756 33.4464997,50.870925" id="Fill-34" fill="#407F4D" mask="url(#mask-4)"></path>
                        <path d="M32.4220851,50.8419539 L27.1192064,45.2850961 C26.9602645,45.1138829 26.9602645,44.8413395 27.1192064,44.6689616 L28.8864622,42.8170639 C29.0509614,42.6505096 29.3121596,42.6505096 29.4766589,42.8170639 L32.7221852,46.2180333 L39.5244526,39.1249157 C39.6878404,38.9583614 39.9490386,38.9583614 40.1135378,39.1249157 L41.8807936,40.9768134 C42.0397355,41.1491913 42.0397355,41.4217347 41.8807936,41.5941126 L32.9889408,50.9118368 C32.8133267,51.0527674 32.5621318,51.0213201 32.4220851,50.8419539" id="Fill-35" fill="#FFFFFF" mask="url(#mask-4)"></path>
                    </g>
                </g>
            </g>
        </g>
    </g>
</svg>