<?xml version="1.0" encoding="UTF-8"?>
<svg width="61px" height="61px" viewBox="0 0 61 61" version="1.1" xmlns="http://www.w3.org/2000/svg" xmlns:xlink="http://www.w3.org/1999/xlink">
    <!-- Generator: Sketch 50.2 (55047) - http://www.bohemiancoding.com/sketch -->
    <title>tenancy_nav_icon</title>
    <desc>Created with Sketch.</desc>
    <defs>
        <polygon id="path-1" points="0 0.0629010989 19.8111765 0.0629010989 19.8111765 36 0 36"></polygon>
        <polygon id="path-3" points="0.0952095238 0.304845882 25.7619762 0.304845882 25.7619762 26.9516477 0.0952095238 26.9516477"></polygon>
        <polygon id="path-5" points="0.233967341 0.3015625 24.8199506 0.3015625 24.8199506 24.8874585 0.233967341 24.8874585"></polygon>
    </defs>
    <g id="Symbols" stroke="none" stroke-width="1" fill="none" fill-rule="evenodd">
        <g id="Nav+Items" transform="translate(-750.000000, -114.000000)">
            <g id="Nav-Items" transform="translate(108.000000, 111.000000)">
                <g id="Tenancy-Req." transform="translate(576.000000, 3.000000)">
                    <g id="tenancy_nav_icon" transform="translate(66.000000, 0.000000)">
                        <path d="M20,13.4809275 C19.7801167,13.623233 19.7465823,13.6713363 19.5330663,13.8729693 C16.4597933,16.7756023 14.8560882,24.2829233 17.4679457,27.869024 C17.4709171,27.8726318 17.4683702,27.8674206 17.4781333,27.8762395 L15.2292107,30 C15.1069589,29.8841512 14.9830093,29.7402422 14.8590596,29.5698764 C11.3812522,24.7960251 13.1207926,15.6812524 17.2849926,11.7492088 C17.6080258,11.4437529 17.8083828,11.2657707 18.2180111,11 L20,13.4809275 Z" id="Fill-1" fill="#F9A825"></path>
                        <g id="Group-5" transform="translate(0.000000, 25.000000)">
                            <mask id="mask-2" fill="white">
                                <use xlink:href="#path-1"></use>
                            </mask>
                            <g id="Clip-4"></g>
                            <path d="M20.2714582,25.880044 L18.5060784,25.880044 L18.5060784,33.2256264 C18.5060784,33.985978 18.1970588,34.6778901 17.6990196,35.1807033 C17.1982353,35.6858901 16.51,36 15.7562745,36 L7.00529412,36 C6.25156863,36 5.56568627,35.6882637 5.06764706,35.1862418 C4.5645098,34.6782857 4.2554902,33.985978 4.2554902,33.2256264 L4.2554902,22.6503297 L2.73627451,22.6503297 C2.18764706,22.6503297 1.65588235,22.4825934 1.2072549,22.177978 C0.760980392,21.8753407 0.403333333,21.4429451 0.196666667,20.9100659 C0.132352941,20.7450989 0.0845098039,20.5761758 0.0523529412,20.4056703 C0.021372549,20.2355604 0.00568627451,20.0607033 0.00568627451,19.8771429 C0.00764705882,19.4854945 0.0805882353,19.1171868 0.22372549,18.7829011 C0.365294118,18.4505934 0.577058824,18.1408352 0.857058824,17.8741978 L18.2778431,0.816923077 C18.7111765,0.387692308 19.2515686,0.138065934 19.8111765,0.0629010989 L20.2714582,25.880044 Z" id="Fill-3" fill="#29B6F6" mask="url(#mask-2)"></path>
                        </g>
                        <path d="M28.4108797,31.973911 L39.1979467,42.9163173 C39.589887,43.3111627 39.8436584,43.8038284 39.947384,44.3218402 C40.0511096,44.8418323 40.0028099,45.3986554 39.7906079,45.9166672 L39.7882325,45.9158752 C39.5764264,46.4319068 39.2169499,46.8623953 38.7731468,47.1614006 C38.3253848,47.46199 37.7929003,47.6358488 37.2382454,47.6358488 L35.0584241,47.6358488 L35.0584241,58.2226169 C35.0584241,58.9837933 34.7464555,59.676852 34.2436634,60.1798146 C33.738496,60.6859454 33.0436928,61 32.2823785,61 L23.878625,61 C23.1177066,61 22.4229034,60.6859454 21.9173401,60.1798146 C21.414548,59.676852 21.1029753,58.9837933 21.1029753,58.2226169 L21.1029753,50.8690664 L20.0146483,50.8690664 L20,50.8690664 L20,25.0239187 C20.0182114,25.0215425 20.0364227,25.0195624 20.0546341,25.0175822 C20.1694449,25.0045131 20.2846516,24.9989686 20.3998582,25.0001567 L20.3998582,25.0005527 C21.1049548,25.0096615 21.8084678,25.2841127 22.3358056,25.8112334 L22.3476826,25.8231144 L24.1688192,27.6710068 L28.4108797,31.973911 Z" id="Fill-6" fill="#039BE5"></path>
                        <g id="Group-10" transform="translate(35.000000, 16.000000)">
                            <mask id="mask-4" fill="white">
                                <use xlink:href="#path-3"></use>
                            </mask>
                            <g id="Clip-9"></g>
                            <path d="M7.44609048,16.4162224 L7.44609048,16.4174929 L7.16132857,16.7659518 C6.90194762,17.0832812 6.77101905,17.4835165 6.80444762,17.8974106 C6.83756667,18.3100341 7.02730476,18.6839047 7.33435238,18.9516812 L7.33775714,18.9548576 L9.60409048,20.92554 C9.8981381,21.1494812 10.2578048,21.2555753 10.625519,21.2244459 C10.9941619,21.1933165 11.332781,21.0278224 11.5872095,20.7565518 L14.3945905,17.3535988 L16.4798524,19.1730812 L14.0265667,22.1421282 L14.0268762,22.14594 L13.7349952,22.4997988 C13.5019238,22.7828224 13.3753286,23.1350929 13.3768762,23.5026106 L13.3864714,23.6220459 C13.4195905,24.0311753 13.6043762,24.4047282 13.9095667,24.6705988 L14.2503524,24.9682341 L14.2506619,24.9720459 L16.1040905,26.5837871 C16.4114476,26.8512459 16.8026857,26.9805282 17.2041381,26.9462224 C17.6055905,26.9125518 17.9714476,26.7191047 18.2317571,26.4036812 L20.9023286,23.1716224 L21.6424,23.5019753 C22.0884238,23.7008224 22.5802571,23.78214 23.0643524,23.7411635 C23.7991619,23.6789047 24.4782571,23.3437871 24.9787571,22.7926694 L25.0679,22.6846694 C25.3161381,22.3838576 25.5058762,22.0385753 25.6231857,21.6631165 C25.7414238,21.2851165 25.7829,20.8845635 25.7525667,20.4890929 L25.7516381,20.4776576 C25.7188286,20.0825047 25.6135905,19.6949753 25.4368524,19.3420694 C25.2610429,18.9913871 25.0189952,18.6826341 24.7258762,18.4278812 L23.8910905,17.7014224 L23.8932571,17.6985635 L3.90482857,0.304845882 L0.0952095238,4.91739882 L9.89875714,13.4474929 L7.44609048,16.4162224 Z" id="Fill-8" fill="#757575" mask="url(#mask-4)"></path>
                        </g>
                        <g id="Group-13" transform="translate(16.000000, 0.000000)">
                            <mask id="mask-6" fill="white">
                                <use xlink:href="#path-5"></use>
                            </mask>
                            <g id="Clip-12"></g>
                            <path d="M12.0999063,7.4090625 C9.23615625,7.645 7.10615625,10.1578125 7.34178125,13.0215625 C7.57771875,15.8853125 10.0905313,18.0153125 12.9542813,17.7796875 C15.8180312,17.54375 17.9483437,15.0309375 17.7124062,12.1671875 C17.4761562,9.3034375 14.9636562,7.173125 12.0999063,7.4090625 M11.5177188,0.34375 C18.2836563,-0.2140625 24.2205313,4.8190625 24.7777188,11.5846875 C25.3355313,18.3509375 20.3024063,24.2878125 13.5364688,24.8453125 C6.77053125,25.4025 0.83365625,20.37 0.27615625,13.60375 C-0.28134375,6.8378125 4.75146875,0.9009375 11.5177188,0.34375" id="Fill-11" fill="#616161" mask="url(#mask-6)"></path>
                        </g>
                        <path d="M20.0001877,29 C21.1046457,29 22,30.1189125 22,31.4996265 C22,32.8807141 21.1046457,34 20.0001877,34 C18.8957297,34 18,32.8807141 18,31.4996265 C18,30.1189125 18.8957297,29 20.0001877,29" id="Fill-14" fill="#424242"></path>
                        <path d="M23.0993997,10.0398395 C37.6047957,8.96285287 31.2476546,30.0477508 25.8739025,33.7710815 C23.7938462,35.2118556 21.7839734,35.624361 19.0074185,33.6952093 C18.9134302,32.155402 19.7240283,31.4817363 20.7853987,31.2641027 C22.3015249,32.3179283 23.1080187,32.0240232 24.0959223,31.339975 C27.0387011,29.3010081 34.1539052,14.6149361 23.4458021,12.4318119 C23.0989893,11.7006431 22.9733979,10.9059811 23.0993997,10.0398395" id="Fill-16" fill="#F9A825"></path>
                    </g>
                </g>
            </g>
        </g>
    </g>
</svg>