<?xml version="1.0" encoding="UTF-8"?>
<svg width="76px" height="71px" viewBox="0 0 76 71" version="1.1" xmlns="http://www.w3.org/2000/svg" xmlns:xlink="http://www.w3.org/1999/xlink">
    <!-- Generator: Sketch 50.2 (55047) - http://www.bohemiancoding.com/sketch -->
    <title>your_prop_icon</title>
    <desc>Created with Sketch.</desc>
    <defs></defs>
    <g id="Symbols" stroke="none" stroke-width="1" fill="none" fill-rule="evenodd">
        <g id="Nav+Items" transform="translate(-358.000000, -113.000000)">
            <g id="Nav-Items" transform="translate(108.000000, 111.000000)">
                <g id="Your-Props" transform="translate(192.000000, 2.000000)">
                    <g id="your_prop_icon" transform="translate(58.000000, 0.000000)">
                        <polygon id="Fill-1" fill="#ECF0F0" points="68.0555556 68.0833333 7.05555556 68.0833333 7.05555556 21.8079311 37.5418544 5.86111111 68.0555556 21.8079311"></polygon>
                        <rect id="Rectangle-2" stroke="#979797" fill="#D8D8D8" x="7.5" y="67.5" width="60" height="1"></rect>
                        <polygon id="Fill-2" fill="#4A4A4A" points="7.05555556 22.1626757 7.05555556 28 37.7146162 11.5735092 68.0555556 27.8297137 68.0555556 22.1626757 37.5416729 5.86111111"></polygon>
                        <polygon id="Fill-4" fill="#EFC84A" points="14.5833333 65.1666667 35 65.1666667 35 32.1111111 14.5833333 32.1111111"></polygon>
                        <polygon id="Fill-5" fill="#000000" points="38.8888889 58.3611111 63.1944444 58.3611111 63.1944444 36 38.8888889 36"></polygon>
                        <polygon id="Fill-7" fill="#A88429" points="15.5555556 43.7777778 31.1111111 43.7777778 31.1111111 33.0833333 15.5555556 33.0833333"></polygon>
                        <polygon id="Fill-8" fill="#A88429" points="15.5555556 64.1944444 31.1111111 64.1944444 31.1111111 46.6944444 15.5555556 46.6944444"></polygon>
                        <g id="Group-13" transform="translate(15.555556, 33.083333)" fill="#000000">
                            <polygon id="Fill-9" points="0.0117802747 0.0162244677 0.0117802747 1.24776805 13.9682597 1.24776805 13.9682597 10.696039 15.3841648 10.696039 15.3841648 0.0162244677"></polygon>
                            <polygon id="Fill-11" points="0.0117802747 12.848082 0.0117802747 14.3295798 13.9682597 14.3295798 13.9682597 30.0680354 15.3841648 30.0680354 15.3841648 12.848082"></polygon>
                        </g>
                        <polygon id="Fill-14" fill="#EFC84A" points="10.6944444 16.5277778 21.3888889 16.5277778 21.3888889 0.972222222 10.6944444 0.972222222"></polygon>
                        <polygon id="Fill-15" fill="#4A4A4A" points="11.6666667 5.86111111 21.3888889 5.86111111 21.3888889 2.94444444 11.6666667 2.94444444"></polygon>
                        <polygon id="Fill-17" fill="#E45136" points="37.9189734 1 37.9167589 1.00433015 37.9143599 1 0 20.3887771 3.15061068 26.2777778 37.9167589 8.49945477 72.6827227 26.2777778 75.8333333 20.3887771"></polygon>
                        <g id="Group-32" transform="translate(10.000000, 34.000000)">
                            <path d="M27.1824118,32.1679034 C27.1824118,31.6141001 26.7309175,31.1650406 26.1731458,31.1650406 L1.20681975,31.1650406 C0.649048054,31.1650406 0.197553731,31.6141001 0.197553731,32.1679034 L0.197553731,35.1533785 C0.197553731,35.7071818 0.649048054,36.1566082 1.20681975,36.1566082 L26.1731458,36.1566082 C26.7309175,36.1566082 27.1824118,35.7071818 27.1824118,35.1533785 L27.1824118,32.1679034 Z" id="Fill-18" fill="#E45136"></path>
                            <polygon id="Fill-20" fill="#EFC84A" points="29.1025081 23.6447803 52.9438808 23.6447803 52.9438808 0.991674283 29.1025081 0.991674283"></polygon>
                            <polygon id="Fill-22" fill="#2893C0" points="30.1507056 22.6490716 41.1712632 22.6490716 41.1712632 1.98738295 30.1507056 1.98738295"></polygon>
                            <polygon id="Fill-23" fill="#2893C0" points="40.8559367 22.6490716 51.8764943 22.6490716 51.8764943 1.98738295 40.8559367 1.98738295"></polygon>
                            <polygon id="Fill-24" fill="#50BCE2" points="45.0207182 22.6491083 50.4661419 22.6491083 40.8559736 7.77749858 40.8559736 16.2039675"></polygon>
                            <polygon id="Fill-25" fill="#50BCE2" points="40.8559183 2.65638618 40.8559183 6.15659199 51.513177 22.6490716 51.8764759 22.6490716 51.8764759 19.710557"></polygon>
                            <polygon id="Fill-26" fill="#50BCE2" points="41.1712447 16.6912741 41.1712447 8.26517203 37.1146227 1.98751136 31.6697524 1.98751136"></polygon>
                            <polygon id="Fill-27" fill="#50BCE2" points="41.1712447 6.64476073 41.1712447 3.14418804 40.4234284 1.98741964 38.1617131 1.98741964"></polygon>
                            <polygon id="Fill-28" fill="#000000" points="30.1507794 1.98747467 30.1507794 3.14149148 39.1498528 3.14149148 39.1498528 13.0152967 30.1507794 13.0152967 30.1507794 14.169497 39.1498528 14.169497 39.1498528 22.6491633 41.171337 22.6491633 41.171337 13.0152967 41.171337 1.98747467"></polygon>
                            <polygon id="Fill-29" fill="#000000" points="40.8559183 1.98747467 40.8559183 3.14149148 50.5863867 3.14149148 50.5863867 13.0152967 41.5590833 13.0152967 41.5590833 14.169497 50.5588948 14.169497 50.5588948 22.6491633 50.5863867 22.6491633 51.8764759 22.6491633 51.8764759 13.0152967 51.8764759 1.98747467"></polygon>
                            <polygon id="Fill-30" fill="#EFC84A" points="40.4428204 23.3595321 41.6035685 23.3595321 41.6035685 1.38918731 40.4428204 1.38918731"></polygon>
                            <polygon id="Fill-31" fill="#EFC84A" points="29.9739457 13.0131872 52.0731813 13.0131872 52.0731813 11.8591704 29.9739457 11.8591704"></polygon>
                        </g>
                    </g>
                </g>
            </g>
        </g>
    </g>
</svg>