<?xml version="1.0" encoding="UTF-8"?>
<svg width="368px" height="198px" viewBox="0 0 368 198" version="1.1" xmlns="http://www.w3.org/2000/svg" xmlns:xlink="http://www.w3.org/1999/xlink">
    <!-- Generator: Sketch 51 (57462) - http://www.bohemiancoding.com/sketch -->
    <title>list-by-entire-graphic</title>
    <desc>Created with Sketch.</desc>
    <defs></defs>
    <g id="Page-1" stroke="none" stroke-width="1" fill="none" fill-rule="evenodd">
        <g id="List-A-Property-/-01" transform="translate(-159.000000, -205.000000)">
            <rect fill="#FFFFFF" x="0" y="0" width="1368" height="1050"></rect>
            <g id="list-by-entire-graphic" transform="translate(158.000000, 205.000000)">
                <path d="M252.74129,22.2810152 C252.74129,30.0456228 217.358215,41.218838 206.632392,51.294281 C201.192501,56.4046861 203.384229,60.5275975 211.074678,58.0864329 C217.041535,56.1941544 232.318541,51.705319 249.69465,49.5523823 C257.17231,48.6237873 261.930024,51.1125722 265.563712,54.6226861 C296.813671,84.8101671 302.243548,152.200344 281.308854,196.188927 L63.7870585,196.188927 C10.9890721,79.0055089 92.0504599,-11.0769722 193.831249,1.87448354 C207.890351,3.66274937 190.41661,9.15411646 180.73095,17.1442937 C174.573834,22.2246228 180.336664,21.1331165 183.76382,20.5140532 C221.886868,13.6191418 252.74129,13.2456987 252.74129,22.2810152" id="Fill-1" fill="#D3F2FF" transform="translate(170.489928, 98.411432) scale(-1, 1) translate(-170.489928, -98.411432) "></path>
                <path d="M271.514422,96.6301405 L271.514422,144.120065 L262.621088,144.120065 L262.621088,177.915406 L264.446068,177.915406 L264.446068,196.189052 L86.8760544,196.189052 L86.8760544,177.915406 L88.701034,177.915406 L88.701034,125.525609 L78.3019048,133.369166 C77.870068,133.696242 77.2517279,133.60852 76.9262857,133.177432 L74.5643265,130.038254 C74.2388844,129.605913 74.3252517,128.986849 74.7570884,128.66228 L140.087102,79.3728114 L162.96068,96.6301405 L179.913714,96.6301405 L179.913714,90.9269886 L181.468327,90.9269886 L181.468327,79.8051532 L179.913714,79.8051532 L179.913714,75.2787228 L181.468327,75.2787228 L181.468327,70.7535456 L191.47317,70.7535456 L191.47317,75.2787228 L193.027782,75.2787228 L193.027782,79.8051532 L191.47317,79.8051532 L191.47317,90.9269886 L193.027782,90.9269886 L193.027782,96.6301405 L271.514422,96.6301405 Z" id="Fill-3" fill="#FFFFFF"></path>
                <path d="M181.250781,109.514176 C181.250781,110.184619 180.707543,110.728492 180.039135,110.728492 C179.369475,110.728492 178.826237,110.184619 178.826237,109.514176 L178.826237,103.407505 C178.826237,102.738315 179.369475,102.194442 180.039135,102.194442 C180.707543,102.194442 181.250781,102.738315 181.250781,103.407505 L181.250781,109.514176 Z" id="Fill-5" fill="#4A90E2"></path>
                <path d="M169.815619,100.887642 C169.815619,101.556832 169.273633,102.100705 168.603973,102.100705 C167.935565,102.100705 167.392327,101.556832 167.392327,100.887642 L167.392327,96.6306418 C167.392327,95.9601987 167.935565,95.4175785 168.603973,95.4175785 C169.273633,95.4175785 169.815619,95.9601987 169.815619,96.6306418 L169.815619,100.887642 Z" id="Fill-7" fill="#98D7DA"></path>
                <path d="M261.291782,133.536087 C261.291782,134.205277 260.748544,134.749151 260.080136,134.749151 C259.411728,134.749151 258.867238,134.205277 258.867238,133.536087 L258.867238,96.6303911 C258.867238,95.9612013 259.411728,95.4173278 260.080136,95.4173278 C260.748544,95.4173278 261.291782,95.9612013 261.291782,96.6303911 L261.291782,133.536087 Z" id="Fill-9" fill="#4A90E2"></path>
                <path d="M249.857747,133.536087 C249.857747,134.205277 249.314509,134.749151 248.646101,134.749151 C247.976441,134.749151 247.433203,134.205277 247.433203,133.536087 L247.433203,96.6303911 C247.433203,95.9612013 247.976441,95.4173278 248.646101,95.4173278 C249.314509,95.4173278 249.857747,95.9612013 249.857747,96.6303911 L249.857747,133.536087 Z" id="Fill-11" fill="#4A90E2"></path>
                <path d="M238.423211,133.536087 C238.423211,134.205277 237.879973,134.749151 237.211565,134.749151 C236.541905,134.749151 235.999918,134.205277 235.999918,133.536087 L235.999918,96.6303911 C235.999918,95.9612013 236.541905,95.4173278 237.211565,95.4173278 C237.879973,95.4173278 238.423211,95.9612013 238.423211,96.6303911 L238.423211,133.536087 Z" id="Fill-13" fill="#4A90E2"></path>
                <path d="M226.98855,133.536087 C226.98855,134.205277 226.445312,134.749151 225.776903,134.749151 C225.107244,134.749151 224.565257,134.205277 224.565257,133.536087 L224.565257,96.6303911 C224.565257,95.9612013 225.107244,95.4173278 225.776903,95.4173278 C226.445312,95.4173278 226.98855,95.9612013 226.98855,96.6303911 L226.98855,133.536087 Z" id="Fill-15" fill="#4A90E2"></path>
                <path d="M215.554014,133.536087 C215.554014,134.205277 215.010776,134.749151 214.342367,134.749151 C213.672707,134.749151 213.130721,134.205277 213.130721,133.536087 L213.130721,96.6303911 C213.130721,95.9612013 213.672707,95.4173278 214.342367,95.4173278 C215.010776,95.4173278 215.554014,95.9612013 215.554014,96.6303911 L215.554014,133.536087 Z" id="Fill-17" fill="#4A90E2"></path>
                <path d="M204.119978,126.768497 C204.119978,127.437687 203.57674,127.981561 202.908332,127.981561 C202.238672,127.981561 201.695434,127.437687 201.695434,126.768497 L201.695434,96.6298899 C201.695434,95.9607 202.238672,95.4168266 202.908332,95.4168266 C203.57674,95.4168266 204.119978,95.9607 204.119978,96.6298899 L204.119978,126.768497 Z" id="Fill-19" fill="#4A90E2"></path>
                <path d="M192.685442,118.141963 C192.685442,118.811153 192.142204,119.355027 191.473796,119.355027 C190.804136,119.355027 190.260898,118.811153 190.260898,118.141963 L190.260898,103.407254 C190.260898,102.738065 190.804136,102.194191 191.473796,102.194191 C192.142204,102.194191 192.685442,102.738065 192.685442,103.407254 L192.685442,118.141963 Z" id="Fill-21" fill="#4A90E2"></path>
                <path d="M88.7012844,125.525108 L140.087352,86.7572089 L166.764849,106.884285 L163.457856,109.378082 L143.160278,94.0656646 L137.40621,98.4066266 C135.101829,99.072057 133.151679,100.572095 131.902482,102.558361 L88.7012844,135.150665 L88.7012844,125.525108 Z M108.51821,171.164108 L134.848985,171.164108 L134.848985,139.392627 L108.51821,139.392627 L108.51821,171.164108 Z M157.909067,177.916158 L164.465475,177.916158 L164.465475,154.187487 C166.637176,152.631057 168.886482,151.47188 171.220903,150.737525 L171.220903,171.164108 L174.917176,171.164108 L174.917176,149.944272 C178.066454,149.572082 181.367189,149.943019 184.835652,151.118487 L184.835652,133.961411 C174.602999,127.901108 165.748468,128.339715 157.909067,133.961411 L157.909067,177.916158 Z M163.954781,196.189804 L156.084087,196.189804 L156.084087,177.916158 L163.954781,196.189804 Z M115.607842,191.728538 L127.759352,191.728538 L127.759352,187.106867 L115.607842,187.106867 L115.607842,191.728538 Z M262.621339,144.120816 L262.621339,150.193652 L214.691216,150.193652 L218.83059,159.802918 L215.285774,164.511057 L209.951026,164.511057 L209.951026,196.189804 L193.297148,196.189804 L193.297148,177.916158 L191.47342,177.916158 L191.47342,130.428741 L174.501611,117.623905 L151.271298,135.150665 L151.271298,164.063677 L136.750318,129.527715 L140.087352,133.961411 L151.271298,125.525108 L171.372359,110.35931 L191.47342,125.459943 L201.873801,133.371171 L205.417366,128.661778 L209.536713,138.224677 L271.514672,138.224677 L271.514672,144.120816 L262.621339,144.120816 Z M141.823461,103.017019 C146.681312,103.017019 150.619162,106.959475 150.619162,111.821753 C150.619162,116.685285 146.681312,120.627741 141.823461,120.627741 C136.966863,120.627741 133.029012,116.685285 133.029012,111.821753 C133.029012,106.959475 136.966863,103.017019 141.823461,103.017019 Z" id="Fill-23" fill="#4A90E2"></path>
                <path d="M113.426503,190.514848 L126.54683,190.514848 L126.54683,183.697633 L113.426503,183.697633 L113.426503,190.514848 Z M112.214857,181.271506 L127.758476,181.271506 C128.428136,181.271506 128.971374,181.814127 128.971374,182.48457 L128.971374,191.729165 C128.971374,192.399608 128.428136,192.940975 127.758476,192.940975 L112.214857,192.940975 C111.545197,192.940975 111.001959,192.399608 111.001959,191.729165 L111.001959,182.48457 C111.001959,181.814127 111.545197,181.271506 112.214857,181.271506 Z M185.449361,181.271506 L185.449361,179.129848 L184.834776,179.129848 L179.740354,179.129848 L163.005116,179.129848 L157.909442,179.129848 L157.296109,179.129848 L157.296109,181.271506 L185.449361,181.271506 Z M157.296109,185.839291 L185.449361,185.839291 L185.449361,183.697633 L157.296109,183.697633 L157.296109,185.839291 Z M157.296109,190.516101 L185.449361,190.516101 L185.449361,188.266671 L157.296109,188.266671 L157.296109,190.516101 Z M106.336871,169.949165 L111.003211,169.949165 L111.003211,135.983392 L106.336871,135.983392 L106.336871,169.949165 Z M128.971374,169.950418 L133.637714,169.950418 L133.637714,135.984646 L128.971374,135.984646 L128.971374,169.950418 Z M113.426503,169.949165 L126.54683,169.949165 L126.54683,135.983392 L113.426503,135.983392 L113.426503,169.949165 Z M105.125224,133.558519 L112.214857,133.558519 L127.758476,133.558519 L134.848109,133.558519 C135.517769,133.558519 136.061007,134.099886 136.061007,134.770329 L136.061007,171.162228 C136.061007,171.833924 135.517769,172.376544 134.848109,172.376544 L127.758476,172.376544 L112.214857,172.376544 L105.125224,172.376544 C104.455565,172.376544 103.913578,171.833924 103.913578,171.162228 L103.913578,134.770329 C103.913578,134.099886 104.455565,133.558519 105.125224,133.558519 Z M145.399946,102.307101 C144.028082,100.93238 142.131755,100.083987 140.03766,100.083987 C137.943565,100.083987 136.047238,100.93238 134.675374,102.307101 C133.30351,103.68057 132.454857,105.579114 132.454857,107.674405 C132.454857,109.772203 133.30351,111.670747 134.675374,113.044215 C136.047238,114.417684 137.943565,115.267329 140.03766,115.267329 C142.131755,115.267329 144.028082,114.417684 145.399946,113.044215 C146.77181,111.670747 147.621714,109.772203 147.621714,107.674405 C147.621714,105.579114 146.77181,103.68057 145.399946,102.307101 Z M140.03766,97.6566076 C142.800163,97.6566076 145.302313,98.7781899 147.114776,100.591519 C148.924735,102.403595 150.045007,104.908671 150.045007,107.674405 C150.045007,110.441392 148.924735,112.946468 147.114776,114.759797 C145.302313,116.571873 142.800163,117.693456 140.03766,117.693456 C137.275156,117.693456 134.773007,116.571873 132.961796,114.759797 C131.151837,112.946468 130.031565,110.441392 130.031565,107.674405 C130.031565,104.908671 131.151837,102.403595 132.961796,100.591519 C134.773007,98.7781899 137.275156,97.6566076 140.03766,97.6566076 Z M150.060027,127.95562 L141.599782,134.337987 C141.117878,134.701405 140.532082,134.834241 139.97883,134.757797 C139.421823,134.678848 138.893605,134.389367 138.530612,133.906899 L136.168653,130.768975 C135.80566,130.285253 135.671728,129.700025 135.749333,129.144873 C135.82819,128.587215 136.117333,128.05838 136.597986,127.694962 L164.469605,106.668114 L140.086476,88.2741646 L89.9133061,126.127253 L89.9133061,176.702468 L149.446694,176.702468 L150.060027,176.702468 L150.060027,127.95562 Z M191.886857,124.32019 C192.115918,124.402899 192.313687,124.553278 192.453878,124.747519 L202.419918,132.265253 L204.507755,129.492 L171.372735,104.49262 L167.220844,107.624278 L167.19581,107.645582 L138.237714,129.492 L140.325551,132.265253 L150.490612,124.597139 C150.524408,124.568316 150.560707,124.540747 150.598259,124.516937 L170.624218,109.407532 C171.046041,109.076696 171.653116,109.054139 172.101224,109.392494 L191.886857,124.32019 Z M185.59581,133.826696 C185.871184,134.047253 186.047673,134.389367 186.047673,134.770329 L186.047673,176.702468 L186.659755,176.702468 L190.260898,176.702468 L190.260898,144.12019 L190.260898,138.224051 L190.260898,126.127253 L171.372735,111.876266 L152.48332,126.127253 L152.48332,176.702468 L156.084463,176.702468 L156.697796,176.702468 L156.697796,134.770329 C156.697796,134.389367 156.874286,134.047253 157.14966,133.826696 C159.089796,132.084797 161.32283,130.72762 163.72985,129.801532 C166.15815,128.866671 168.746667,128.376684 171.372735,128.376684 C173.998803,128.376684 176.58732,128.866671 179.015619,129.801532 C181.421388,130.72762 183.655673,132.084797 185.59581,133.826696 Z M164.21551,176.702468 L178.527456,176.702468 L178.527456,139.437114 L164.21551,139.437114 L164.21551,176.702468 Z M161.792218,176.702468 L161.792218,138.224051 C161.792218,137.554861 162.335456,137.010987 163.005116,137.010987 L179.740354,137.010987 C180.408762,137.010987 180.952,137.554861 180.952,138.224051 L180.952,176.702468 L183.624381,176.702468 L183.624381,135.317962 C181.979646,133.915671 180.128381,132.817899 178.154449,132.057228 C176.016544,131.233899 173.719673,130.801557 171.372735,130.801557 C169.024544,130.801557 166.728925,131.233899 164.592272,132.057228 C162.617088,132.817899 160.764571,133.915671 159.121088,135.317962 L159.121088,176.702468 L161.792218,176.702468 Z M174.917551,172.376544 L167.827918,172.376544 C167.158259,172.376544 166.616272,171.833924 166.616272,171.162228 L166.616272,144.12019 C166.616272,143.451 167.158259,142.90838 167.827918,142.90838 L174.917551,142.90838 C175.585959,142.90838 176.129197,143.451 176.129197,144.12019 L176.129197,171.162228 C176.129197,171.833924 175.585959,172.376544 174.917551,172.376544 Z M169.039565,169.950418 L173.705905,169.950418 L173.705905,145.333253 L169.039565,145.333253 L169.039565,169.950418 Z M203.869388,166.551835 L250.224871,166.551835 L250.224871,154.765823 L203.869388,154.765823 L203.869388,166.551835 Z M250.224871,180.765228 L250.224871,177.915532 L250.224871,168.977962 L203.869388,168.977962 L203.869388,177.915532 L203.869388,180.765228 L250.224871,180.765228 Z M270.30215,139.437114 L192.685442,139.437114 L192.685442,142.90838 L262.621714,142.90838 L270.30215,142.90838 L270.30215,139.437114 Z M261.408816,145.333253 L192.685442,145.333253 L192.685442,176.702468 L193.297524,176.702468 L201.444844,176.702468 L201.444844,167.766152 L201.444844,153.552759 C201.444844,152.88357 201.988082,152.339696 202.657741,152.339696 L251.436517,152.339696 C252.106177,152.339696 252.648163,152.88357 252.648163,153.552759 L252.648163,167.766152 L252.648163,176.702468 L261.408816,176.702468 L261.408816,145.333253 Z M181.124735,78.590962 L181.467701,78.590962 L191.473796,78.590962 L191.816762,78.590962 L191.816762,76.4931646 L191.473796,76.4931646 L181.467701,76.4931646 L181.124735,76.4931646 L181.124735,78.590962 Z M182.678095,74.0657848 L190.260898,74.0657848 L190.260898,71.965481 L182.678095,71.965481 L182.678095,74.0657848 Z M191.816762,92.1401772 L191.473796,92.1401772 L181.467701,92.1401772 L181.124735,92.1401772 L181.124735,96.6302658 L181.124735,102.194316 L191.816762,102.194316 L191.816762,96.6302658 L191.816762,92.1401772 Z M182.678095,89.7140506 L190.260898,89.7140506 L190.260898,81.0183418 L182.678095,81.0183418 L182.678095,89.7140506 Z M162.285388,97.6378101 C162.249088,97.6127468 162.215293,97.5876835 162.182748,97.5601139 L140.086476,80.890519 L75.6677007,129.492 L77.7555374,132.265253 L87.9243537,124.594633 C87.9556463,124.568316 87.9894422,124.542 88.0244898,124.51819 L139.339211,85.8041772 C139.759782,85.4733418 140.368109,85.452038 140.816218,85.7903924 L166.478585,105.151785 L169.362503,102.976291 L162.285388,97.6378101 Z M166.579973,97.8445823 L172.093714,102.003835 L172.101224,102.010101 L172.12,102.025139 L206.146231,127.694962 C206.628136,128.05838 206.917279,128.587215 206.996136,129.14362 C207.073741,129.697519 206.93981,130.280241 206.576816,130.762709 L206.574313,130.766468 L206.576816,130.768975 L204.213605,133.906899 C203.850612,134.389367 203.323646,134.678848 202.766639,134.757797 C202.212136,134.834241 201.627592,134.701405 201.144435,134.337987 L192.685442,127.95562 L192.685442,137.010987 L270.30215,137.010987 L270.30215,97.8445823 L194.240054,97.8445823 L194.240054,103.40738 C194.240054,104.077823 193.698068,104.621696 193.027156,104.621696 L179.913088,104.621696 C179.243429,104.621696 178.701442,104.077823 178.701442,103.40738 L178.701442,97.8445823 L166.579973,97.8445823 Z M88.0883265,196.189177 C88.0883265,196.858367 87.5450884,197.402241 86.8766803,197.402241 C86.2070204,197.402241 85.665034,196.858367 85.665034,196.189177 L85.665034,177.915532 C85.665034,177.246342 86.2070204,176.702468 86.8766803,176.702468 L87.4900136,176.702468 L87.4900136,127.95562 L79.0310204,134.337987 C78.5478639,134.701405 77.9633197,134.834241 77.4088163,134.757797 C76.8505578,134.677595 76.3235918,134.389367 75.9618503,133.906899 L73.5986395,130.767722 C73.2343946,130.284 73.1017143,129.698772 73.1793197,129.14362 C73.2569252,128.585962 73.5473197,128.05838 74.0279728,127.694962 L139.357986,78.4067468 C139.806095,78.0683924 140.414422,78.0896962 140.836245,78.4217848 L163.363102,95.4172025 L178.701442,95.4172025 L178.701442,90.9271139 C178.701442,90.2566709 179.243429,89.7140506 179.913088,89.7140506 L180.254803,89.7140506 L180.254803,81.0183418 L179.913088,81.0183418 C179.243429,81.0183418 178.701442,80.4744684 178.701442,79.8052785 L178.701442,75.2788481 C178.701442,74.6096582 179.243429,74.0657848 179.913088,74.0657848 L180.254803,74.0657848 L180.254803,70.7524177 C180.254803,70.0819747 180.798041,69.5393544 181.467701,69.5393544 L191.473796,69.5393544 C192.142204,69.5393544 192.685442,70.0819747 192.685442,70.7524177 L192.685442,74.0657848 L193.027156,74.0657848 C193.698068,74.0657848 194.240054,74.6096582 194.240054,75.2788481 L194.240054,79.8052785 C194.240054,80.4744684 193.698068,81.0183418 193.027156,81.0183418 L192.685442,81.0183418 L192.685442,89.7140506 L193.027156,89.7140506 C193.698068,89.7140506 194.240054,90.2566709 194.240054,90.9271139 L194.240054,95.4172025 L271.513796,95.4172025 C272.183456,95.4172025 272.725442,95.9610759 272.725442,96.6302658 L272.725442,138.224051 L272.725442,144.12019 C272.725442,144.791886 272.183456,145.333253 271.513796,145.333253 L263.832109,145.333253 L263.832109,176.702468 L264.445442,176.702468 C265.115102,176.702468 265.657088,177.246342 265.657088,177.915532 L265.657088,196.189177 C265.657088,196.858367 265.115102,197.402241 264.445442,197.402241 C263.775782,197.402241 263.233796,196.858367 263.233796,196.189177 L263.233796,179.129848 L262.621714,179.129848 L252.648163,179.129848 L252.648163,181.977038 L252.648163,196.189177 C252.648163,196.858367 252.106177,197.402241 251.436517,197.402241 C250.766857,197.402241 250.224871,196.858367 250.224871,196.189177 L250.224871,183.190101 L203.869388,183.190101 L203.869388,196.189177 C203.869388,196.858367 203.32615,197.402241 202.657741,197.402241 C201.988082,197.402241 201.444844,196.858367 201.444844,196.189177 L201.444844,181.977038 L201.444844,179.129848 L194.50917,179.129848 L194.50917,196.189177 C194.50917,196.858367 193.967184,197.402241 193.297524,197.402241 C192.629116,197.402241 192.085878,196.858367 192.085878,196.189177 L192.085878,179.129848 L191.473796,179.129848 L187.872653,179.129848 L187.872653,182.48457 L187.872653,187.052354 L187.872653,191.729165 L187.872653,196.189177 C187.872653,196.858367 187.329415,197.402241 186.659755,197.402241 C185.991347,197.402241 185.449361,196.858367 185.449361,196.189177 L185.449361,192.942228 L157.296109,192.942228 L157.296109,196.189177 C157.296109,196.858367 156.752871,197.402241 156.084463,197.402241 C155.416054,197.402241 154.872816,196.858367 154.872816,196.189177 L154.872816,191.729165 L154.872816,187.052354 L154.872816,182.48457 L154.872816,179.129848 L151.271673,179.129848 L150.65834,179.129848 L150.65834,196.189177 C150.65834,196.858367 150.116354,197.402241 149.446694,197.402241 C148.777034,197.402241 148.235048,196.858367 148.235048,196.189177 L148.235048,179.129848 L88.7016599,179.129848 L88.0883265,179.129848 L88.0883265,196.189177 Z M172.12,102.025139 C172.201361,102.087797 172.273959,102.161734 172.337796,102.246949 L172.12,102.025139 Z M140.836245,78.4217848 C140.915102,78.484443 140.988952,78.5596329 141.052789,78.6435949 L140.836245,78.4217848 Z" id="Fill-25" fill="#432D61"></path>
                <path d="M94.7923102,51.9775063 L86.1192762,51.9775063 C78.6854259,47.3621013 69.4391129,37.498443 69.4391129,26.5959114 C69.4391129,12.5780127 80.7895347,1.21306329 94.7923102,1.21306329 C108.793834,1.21306329 120.144256,12.5780127 120.144256,26.5959114 C120.144256,37.498443 110.897943,47.3621013 103.464093,51.9775063 L94.7923102,51.9775063 Z" id="Fill-27"></path>
                <path d="M94.7923102,51.9775063 L87.7702694,51.9775063 C81.7520925,47.3621013 74.2656707,37.498443 74.2656707,26.5959114 C74.2656707,12.5780127 83.4556571,1.21306329 94.7923102,1.21306329 C106.127712,1.21306329 115.317698,12.5780127 115.317698,26.5959114 C115.317698,37.498443 107.831276,47.3621013 101.813099,51.9775063 L94.7923102,51.9775063 Z" id="Fill-28" fill="#FF4057"></path>
                <path d="M94.7923102,51.9775063 L89.8343238,51.9775063 C85.5835483,47.3621013 80.2963646,37.498443 80.2963646,26.5959114 C80.2963646,12.5780127 86.7864327,1.21306329 94.7923102,1.21306329 C102.796936,1.21306329 109.285752,12.5780127 109.285752,26.5959114 C109.285752,37.498443 103.99982,47.3621013 99.7490449,51.9775063 L94.7923102,51.9775063 Z" id="Fill-29" fill="#FF4057"></path>
                <path d="M100.881584,66.2445342 L100.881584,74.0555089 C100.881584,74.886357 100.203162,75.564319 99.3745361,75.564319 L90.208332,75.564319 C89.3797061,75.564319 88.7012844,74.886357 88.7012844,74.0555089 L88.7012844,66.2445342 L100.881584,66.2445342 Z" id="Fill-30" fill="#FFFFFF"></path>
                <path d="M88.7012844,62.4667443 L100.881584,62.4667443 C101.323434,62.4667443 101.686427,62.8289089 101.686427,63.2725291 L101.686427,65.4392506 C101.686427,65.8828709 101.323434,66.2450354 100.881584,66.2450354 L88.7012844,66.2450354 C88.2581823,66.2450354 87.8964408,65.8828709 87.8964408,65.4392506 L87.8964408,63.2725291 C87.8964408,62.8289089 88.2581823,62.4667443 88.7012844,62.4667443" id="Fill-31" fill="#FFFFFF"></path>
                <path d="M86.1190259,51.9775063 L103.463842,51.9775063 L103.463842,54.9512658 C103.463842,55.3948861 103.102101,55.7570506 102.658999,55.7570506 L86.9238694,55.7570506 C86.4807673,55.7570506 86.1190259,55.3948861 86.1190259,54.9512658 L86.1190259,51.9775063 Z" id="Fill-32" fill="#FFFFFF"></path>
                <path d="M94.7923102,51.9775063 L92.7795755,51.9775063 C91.054732,47.3621013 88.909317,37.498443 88.909317,26.5959114 C88.909317,12.5780127 91.5428952,1.21306329 94.7923102,1.21306329 C98.0404735,1.21306329 100.674052,12.5780127 100.674052,26.5959114 C100.674052,37.498443 98.5286367,47.3621013 96.8037932,51.9775063 L94.7923102,51.9775063 Z" id="Fill-33" fill="#FFFFFF"></path>
                <path d="M100.881584,66.2445342 L100.881584,74.0555089 C100.881584,74.886357 100.203162,75.564319 99.3745361,75.564319 L96.1038422,75.564319 C96.932468,75.564319 97.6108898,74.886357 97.6108898,74.0555089 L97.6108898,66.2445342 L97.630917,66.2445342 L100.881584,66.2445342 Z" id="Fill-34" fill="#98D7DA"></path>
                <path d="M97.6111401,62.4667443 L100.881834,62.4667443 C101.323684,62.4667443 101.686678,62.8289089 101.686678,63.2725291 L101.686678,65.4392506 C101.686678,65.8828709 101.323684,66.2450354 100.881834,66.2450354 L97.6111401,66.2450354 C98.0542422,66.2450354 98.4159837,65.8828709 98.4159837,65.4392506 L98.4159837,63.2725291 C98.4159837,62.8289089 98.0542422,62.4667443 97.6111401,62.4667443" id="Fill-35" fill="#98D7DA"></path>
                <path d="M100.193399,51.9775063 L103.464093,51.9775063 L103.464093,54.9512658 C103.464093,55.3936329 103.102351,55.7557975 102.659249,55.7557975 L99.3885551,55.7557975 C99.8316571,55.7557975 100.193399,55.3936329 100.193399,54.9512658 L100.193399,51.9775063 Z" id="Fill-36" fill="#98D7DA"></path>
                <path d="M86.4601143,50.764819 L94.791434,50.764819 L103.122754,50.764819 C107.066863,48.2572367 111.489121,44.2621481 114.660931,39.4337051 C117.203135,35.5651861 118.931733,31.1653253 118.931733,26.5962873 C118.931733,19.9219329 116.230563,13.8791734 111.860876,9.50562911 C107.493693,5.13208481 101.457992,2.4277557 94.791434,2.4277557 C88.1248762,2.4277557 82.0891755,5.13208481 77.7219918,9.50562911 C73.3523048,13.8791734 70.6511347,19.9219329 70.6511347,26.5962873 C70.6511347,31.1653253 72.3797333,35.5651861 74.9219374,39.4337051 C78.0937469,44.2621481 82.5160054,48.2572367 86.4601143,50.764819 Z M100.474155,63.6799329 L98.0621279,63.6799329 L91.5207401,63.6799329 L89.1087129,63.6799329 L89.1087129,65.0320975 L100.474155,65.0320975 L100.474155,63.6799329 Z M99.6693116,67.4569709 L89.9135565,67.4569709 L89.9135565,74.0561354 C89.9135565,74.1375911 89.944849,74.2115278 89.9961687,74.2629076 L90.0011755,74.2679203 C90.0524952,74.3193 90.1263456,74.3506291 90.2089578,74.3506291 L99.3751619,74.3506291 C99.4440054,74.3506291 99.5065905,74.3280722 99.5566585,74.2892241 L99.5816925,74.2641608 C99.6367673,74.2090215 99.6693116,74.1350848 99.6693116,74.0561354 L99.6693116,67.4569709 Z M102.299135,61.837781 L102.306645,61.8453 C102.341693,61.8803886 102.372985,61.9154772 102.401774,61.9543253 C102.710944,62.3089709 102.897448,62.7713886 102.897448,63.2714013 L102.897448,65.4393759 C102.897448,65.995781 102.67089,66.5008063 102.306645,66.8654772 C102.240305,66.9318949 102.168958,66.9933 102.093856,67.0509456 L102.093856,74.0561354 C102.093856,74.806781 101.788441,75.4872494 101.296522,75.9784899 C101.266482,76.0085658 101.237693,76.0348823 101.2064,76.0611987 C100.721992,76.504819 100.078618,76.7780089 99.3751619,76.7780089 L90.2089578,76.7780089 C89.4641959,76.7780089 88.7857741,76.4722367 88.2913524,75.9784899 L88.2901007,75.9759835 L88.2875973,75.9734772 L88.2850939,75.9709709 C87.7944272,75.4772241 87.4902639,74.799262 87.4902639,74.0561354 L87.4902639,67.0471861 C87.4151619,66.9907937 87.3450667,66.9281354 87.2787265,66.8629709 L87.2774748,66.8654772 C86.9119782,66.5008063 86.6854204,65.9945278 86.6854204,65.4393759 L86.6854204,63.2714013 C86.6854204,62.721262 86.9119782,62.218743 87.2774748,61.8503127 L87.2787265,61.8490595 L87.2812299,61.8453 L87.284985,61.8427937 L87.284985,61.8415405 L85.9231347,56.6985532 C85.7691755,56.6108316 85.628985,56.5018063 85.503815,56.377743 L85.5013116,56.3752367 L85.4988082,56.3727304 L85.4950531,56.3689709 C85.1320599,56.0017937 84.9080054,55.4992747 84.9080054,54.9516418 L84.9080054,52.6395532 C80.7836517,49.9640468 76.2099374,45.7872494 72.9054476,40.7608063 C70.1204136,36.5226038 68.2278422,31.6778696 68.2278422,26.5962873 C68.2278422,19.252743 71.2006313,12.6034519 76.0071619,7.79004684 C80.8149442,2.97789494 87.456468,0.000375949367 94.791434,0.000375949367 C102.127652,0.000375949367 108.767924,2.97664177 113.575706,7.79004684 C118.382237,12.6034519 121.356278,19.252743 121.356278,26.5962873 C121.356278,31.6778696 119.462454,36.5226038 116.67742,40.7608063 C113.374182,45.7872494 108.800468,49.9653 104.676114,52.6395532 L104.676114,54.9516418 C104.676114,55.5030342 104.448305,56.0080595 104.081556,56.3752367 L104.085312,56.377743 C103.957638,56.5030595 103.814944,56.613338 103.659733,56.7023127 L102.299135,61.837781 Z M99.2737741,61.2538063 L99.9521959,61.2538063 L101.087488,56.9692367 L99.2737741,56.9692367 L99.2737741,61.2538063 Z M92.7336381,61.2538063 L96.8504816,61.2538063 L96.8504816,56.9692367 L92.7336381,56.9692367 L92.7336381,61.2538063 Z M89.6306721,61.2538063 L90.3090939,61.2538063 L90.3090939,56.9692367 L88.4953796,56.9692367 L89.6306721,61.2538063 Z M94.791434,53.1921987 L87.331298,53.1921987 L87.331298,54.5431101 L91.5207401,54.5431101 L98.0621279,54.5431101 L102.252822,54.5431101 L102.252822,53.1921987 L94.791434,53.1921987 Z" id="Fill-37" fill="#432D61"></path>
                <path d="M46.8867211,124.55591 C60.967102,124.55591 72.3826122,135.983518 72.3826122,150.080366 C72.3826122,164.177214 60.967102,175.604822 46.8867211,175.604822 C32.8063401,175.604822 21.3920816,164.177214 21.3920816,150.080366 C21.3920816,135.983518 32.8063401,124.55591 46.8867211,124.55591" id="Fill-38" fill="#00CF6B"></path>
                <path d="M44.1577633,127.228659 C54.9411646,127.228659 63.6830422,135.979508 63.6830422,146.776773 C63.6830422,157.571533 54.9411646,166.322381 44.1577633,166.322381 C33.3743619,166.322381 24.6337361,157.571533 24.6337361,146.776773 C24.6337361,135.979508 33.3743619,127.228659 44.1577633,127.228659" id="Fill-39" fill="#47DF7F"></path>
                <path d="M48.0986177,176.791067 L48.0986177,196.188801 C48.0986177,196.859244 47.5566313,197.401865 46.8869714,197.401865 C46.2185633,197.401865 45.6753252,196.859244 45.6753252,196.188801 L45.6753252,176.791067 C38.7822095,176.482789 32.570019,173.559156 28.0025633,168.986358 C23.1684952,164.14789 20.179434,157.46351 20.179434,150.081118 C20.179434,142.697472 23.1684952,136.013092 28.0025633,131.174624 C32.8353796,126.334903 39.511951,123.342346 46.8869714,123.342346 C54.2619918,123.342346 60.9385633,126.334903 65.7713796,131.174624 C70.6041959,136.013092 73.5945088,142.697472 73.5945088,150.081118 C73.5945088,157.46351 70.6041959,164.14789 65.7713796,168.986358 C61.2051755,173.559156 54.9904816,176.482789 48.0986177,176.791067 Z M45.6753252,150.081118 C45.6753252,149.410675 46.2185633,148.868054 46.8869714,148.868054 C47.5566313,148.868054 48.0986177,149.410675 48.0986177,150.081118 L48.0986177,156.79808 L51.4369034,153.45589 C51.911298,152.982194 52.6785905,152.982194 53.1517333,153.45589 C53.6248762,153.929586 53.6248762,154.697776 53.1517333,155.171472 L48.0986177,160.229244 L48.0986177,174.362434 C54.3220735,174.055409 59.9296925,171.403713 64.0578014,167.270776 C68.4525224,162.873422 71.1699646,156.79432 71.1699646,150.081118 C71.1699646,143.366662 68.4525224,137.288814 64.0578014,132.890206 C59.6630803,128.490346 53.5935837,125.768472 46.8869714,125.768472 C40.1816109,125.768472 34.1096109,128.490346 29.7161415,132.890206 C25.3214204,137.288814 22.6039782,143.366662 22.6039782,150.081118 C22.6039782,156.79432 25.3214204,162.873422 29.7161415,167.270776 C33.8442503,171.403713 39.4518694,174.055409 45.6753252,174.362434 L45.6753252,168.267042 L36.4502912,159.032472 C35.9771483,158.558776 35.9771483,157.790586 36.4502912,157.31689 C36.923434,156.843194 37.6919782,156.843194 38.1638694,157.31689 L45.6753252,164.83713 L45.6753252,150.081118 Z" id="Fill-40" fill="#432D61"></path>
                <path d="M1.7526357,195.481065 C1.33681737,195.481065 0.99949932,194.919502 0.99949932,194.228547 C0.99949932,193.536298 1.33681737,192.974735 1.7526357,192.974735 L368.246363,192.974735 C368.662181,192.974735 368.999499,193.536298 368.999499,194.228547 C368.999499,194.919502 368.662181,195.481065 368.246363,195.481065 L1.7526357,195.481065 Z" id="Fill-41" fill="#432D61"></path>
            </g>
        </g>
    </g>
</svg>