<?xml version="1.0" encoding="UTF-8"?>
<svg width="368px" height="210px" viewBox="0 0 368 210" version="1.1" xmlns="http://www.w3.org/2000/svg" xmlns:xlink="http://www.w3.org/1999/xlink">
    <!-- Generator: Sketch 51 (57462) - http://www.bohemiancoding.com/sketch -->
    <title>list-by-rooms-graphic</title>
    <desc>Created with Sketch.</desc>
    <defs>
        <polygon id="path-1" points="0.830980576 0.441976331 246.960997 0.441976331 246.960997 208.543161 0.830980576 208.543161"></polygon>
    </defs>
    <g id="Page-1" stroke="none" stroke-width="1" fill="none" fill-rule="evenodd">
        <g id="List-A-Property-/-01" transform="translate(-843.000000, -193.000000)">
            <rect fill="#FFFFFF" x="0" y="0" width="1368" height="1050"></rect>
            <g id="list-by-rooms-graphic" transform="translate(842.000000, 192.000000)">
                <g>
                    <g id="Group-3" transform="translate(183.384354, 105.306544) scale(-1, 1) translate(-183.384354, -105.306544) translate(59.884354, 0.806544)">
                        <mask id="mask-2" fill="white">
                            <use xlink:href="#path-1"></use>
                        </mask>
                        <g id="Clip-2"></g>
                        <path d="M209.091216,23.2939006 C209.091216,31.5641018 173.056005,43.4662497 162.132414,54.1985337 C156.592386,59.642084 158.824169,64.0331314 166.65606,61.4337112 C172.731815,59.4173503 188.291706,54.6367645 205.98825,52.3419834 C213.602346,51.3556521 218.451434,54.005013 222.151461,57.743084 C253.975951,89.901232 252.975842,161.686179 231.654373,208.543161 L26.083815,208.543161 C18.1805769,197.247794 12.2725497,185.756409 8.41355646,174.076498 C-4.2136,135.845546 -0.543613605,98.5484864 15.5132027,68.6501609 C39.4582367,24.0629893 93.8258558,-5.80162604 149.094699,1.55465799 C163.412903,3.45990059 145.616223,9.30922012 135.752822,17.8216343 C129.481801,23.2327231 135.351026,22.0703503 138.842019,21.4098828 C177.668522,14.063587 209.091216,13.6678059 209.091216,23.2939006" id="Fill-1" fill="#D3F2FF" mask="url(#mask-2)"></path>
                    </g>
                    <polygon id="Fill-4" fill="#FFFFFF" points="231.689785 181.610322 234.123091 181.610322 234.123091 186.16118 231.689785 186.16118 231.689785 209.349955 109.469976 209.349955 109.469976 186.16118 107.036669 186.16118 107.036669 181.610322 109.469976 181.610322 109.469976 126.76031 107.036669 126.76031 107.036669 120.592618 109.469976 120.592618 109.469976 75.6258959 107.036669 75.6258959 107.036669 69.456955 109.469976 69.456955 109.469976 15.7306118 118.433404 15.7306118 118.433404 23.0769077 184.335445 23.0769077 189.585078 15.7306118 194.837214 23.0769077 222.727608 23.0769077 222.727608 15.7306118 231.689785 15.7306118 231.689785 69.456955 234.123091 69.456955 234.123091 75.6258959 231.689785 75.6258959 231.689785 120.592618 234.123091 120.592618 234.123091 126.76031 231.689785 126.76031"></polygon>
                    <polygon id="Fill-6" fill="#4A90E2" points="148.346547 44.5058929 156.44505 63.6944077 156.44505 69.4563308 148.346547 69.4563308"></polygon>
                    <path d="M214.151331,79.7180473 L222.727984,79.7180473 L222.727984,75.626645 L225.16129,75.626645 L225.16129,69.4564556 L230.442215,69.4564556 L230.442215,75.626645 L228.007657,75.626645 L228.007657,79.7180473 L231.690161,79.7180473 L231.690161,83.5410178 L228.007657,83.5410178 L228.007657,120.592118 L222.727984,120.592118 L222.727984,83.5410178 L215.763521,83.5410178 L214.151331,79.7180473 Z M109.470351,83.5410178 L165.022079,83.5410178 L165.022079,79.7180473 L109.470351,79.7180473 L109.470351,83.5410178 Z" id="Fill-8" fill="#4A90E2"></path>
                    <polygon id="Fill-10" fill="#4A90E2" points="109.470601 130.853835 222.726982 130.853835 222.726982 126.761184 225.16154 126.761184 225.16154 120.592243 230.441214 120.592243 230.441214 126.761184 228.006656 126.761184 228.006656 130.853835 231.690411 130.853835 231.690411 134.676805 228.006656 134.676805 228.006656 181.609947 222.726982 181.609947 222.726982 134.676805 109.470601 134.676805"></polygon>
                    <path d="M188.541535,53.9198639 C188.541535,51.3866154 190.601834,49.3315503 193.141535,49.3315503 C195.682487,49.3315503 197.742786,51.3866154 197.742786,53.9198639 L197.742786,74.2819882 L188.541535,74.2819882 L188.541535,53.9198639 Z" id="Fill-12" fill="#4A90E2"></path>
                    <path d="M203.609633,33.6593692 C203.609633,34.3273278 203.066395,34.8691858 202.397986,34.8691858 C201.729578,34.8691858 201.18634,34.3273278 201.18634,33.6593692 L201.18634,23.0769077 C201.18634,22.4089491 201.729578,21.8683396 202.397986,21.8683396 C203.066395,21.8683396 203.609633,22.4089491 203.609633,23.0769077 L203.609633,33.6593692 Z M177.984816,33.6593692 C177.984816,34.3260793 177.444082,34.8691858 176.774422,34.8691858 C176.104762,34.8691858 175.562776,34.3260793 175.562776,33.6593692 L175.562776,23.0769077 C175.562776,22.4089491 176.104762,21.8683396 176.774422,21.8683396 C177.444082,21.8683396 177.984816,22.4089491 177.984816,23.0769077 L177.984816,33.6593692 Z M167.821007,47.8850142 C167.821007,48.5517243 167.27902,49.0923337 166.609361,49.0923337 C165.939701,49.0923337 165.397714,48.5517243 165.397714,47.8850142 L165.397714,23.0769077 C165.397714,22.4089491 165.939701,21.8683396 166.609361,21.8683396 C167.27902,21.8683396 167.821007,22.4089491 167.821007,23.0769077 L167.821007,47.8850142 Z M157.657197,62.1081621 C157.657197,62.7761207 157.113959,63.3179787 156.444299,63.3179787 C155.775891,63.3179787 155.233905,62.7761207 155.233905,62.1081621 L155.233905,23.0769077 C155.233905,22.4089491 155.775891,21.8683396 156.444299,21.8683396 C157.113959,21.8683396 157.657197,22.4089491 157.657197,23.0769077 L157.657197,62.1081621 Z M145.068844,23.0769077 C145.068844,22.4089491 145.612082,21.8683396 146.28049,21.8683396 C146.948898,21.8683396 147.492136,22.4089491 147.492136,23.0769077 L147.492136,44.5065172 C147.492136,45.1744757 146.948898,45.7150852 146.28049,45.7150852 C145.612082,45.7150852 145.068844,45.1744757 145.068844,44.5065172 L145.068844,23.0769077 Z M137.328327,44.5065172 C137.328327,45.1744757 136.785088,45.7150852 136.11668,45.7150852 C135.44702,45.7150852 134.903782,45.1744757 134.903782,44.5065172 L134.903782,23.0769077 C134.903782,22.4089491 135.44702,21.8683396 136.11668,21.8683396 C136.785088,21.8683396 137.328327,22.4089491 137.328327,23.0769077 L137.328327,44.5065172 Z M127.163265,69.4557065 C127.163265,70.1236651 126.621279,70.6655231 125.951619,70.6655231 C125.283211,70.6655231 124.739973,70.1236651 124.739973,69.4557065 L124.739973,23.0769077 C124.739973,22.4089491 125.283211,21.8683396 125.951619,21.8683396 C126.621279,21.8683396 127.163265,22.4089491 127.163265,23.0769077 L127.163265,69.4557065 Z M213.774694,47.8850142 C213.774694,48.5517243 213.231456,49.0923337 212.561796,49.0923337 C211.893388,49.0923337 211.351401,48.5517243 211.351401,47.8850142 L211.351401,23.0769077 C211.351401,22.4089491 211.893388,21.8683396 212.561796,21.8683396 C213.231456,21.8683396 213.774694,22.4089491 213.774694,23.0769077 L213.774694,47.8850142 Z" id="Fill-14" fill="#4A90E2"></path>
                    <polygon id="Fill-16" fill="#4A90E2" points="134.694748 69.4564556 143.738286 69.4564556 143.738286 54.4317574 134.694748 54.4317574"></polygon>
                    <polygon id="Fill-18" fill="#4A90E2" points="134.694748 120.592118 143.738286 120.592118 143.738286 92.5990355 134.694748 92.5990355"></polygon>
                    <polygon id="Fill-19" fill="#4A90E2" points="177.37649 120.592118 186.420027 120.592118 186.420027 92.5990355 177.37649 92.5990355"></polygon>
                    <polygon id="Fill-20" fill="#4A90E2" points="196.308463 120.592118 205.352 120.592118 205.352 92.5990355 196.308463 92.5990355"></polygon>
                    <path d="M117.221507,182.81864 L109.470977,182.81864 L108.248065,182.81864 L108.248065,184.952362 L109.470977,184.952362 L117.221507,184.952362 L117.221507,182.81864 Z M126.282569,203.697652 L148.595385,203.697652 L148.595385,201.455309 L126.282569,201.455309 L126.282569,203.697652 Z M126.282569,199.038173 L148.595385,199.038173 L148.595385,196.79583 L126.282569,196.79583 L126.282569,199.038173 Z M126.282569,194.378693 L148.595385,194.378693 L148.595385,192.244972 L126.282569,192.244972 L126.282569,194.378693 Z M126.282569,189.829084 L148.595385,189.829084 L148.595385,187.370747 L126.282569,187.370747 L126.282569,189.829084 Z M148.595385,182.81864 L146.770405,182.81864 L126.282569,182.81864 L126.282569,184.952362 L148.595385,184.952362 L148.595385,182.81864 Z M226.37231,182.81864 L226.37231,184.952362 L231.689535,184.952362 L232.912446,184.952362 L232.912446,182.81864 L231.689535,182.81864 L226.37231,182.81864 Z M223.950269,184.952362 L223.950269,182.81864 L222.727358,182.81864 L157.657698,182.81864 L157.657698,184.952362 L222.727358,184.952362 L223.950269,184.952362 Z M171.602895,199.036924 L180.602623,199.036924 L180.602623,192.244972 L171.602895,192.244972 L171.602895,199.036924 Z M170.391249,189.827836 L181.814269,189.827836 L197.357888,189.827836 L208.780909,189.827836 C209.450569,189.827836 209.992555,190.369693 209.992555,191.036404 L209.992555,200.246741 C209.992555,200.913451 209.450569,201.455309 208.780909,201.455309 L197.357888,201.455309 L181.814269,201.455309 L170.391249,201.455309 C169.720337,201.455309 169.178351,200.913451 169.178351,200.246741 L169.178351,191.036404 C169.178351,190.369693 169.720337,189.827836 170.391249,189.827836 Z M198.569535,199.036924 L207.569263,199.036924 L207.569263,192.244972 L198.569535,192.244972 L198.569535,199.036924 Z M183.025916,199.036924 L196.146242,199.036924 L196.146242,192.244972 L183.025916,192.244972 L183.025916,199.036924 Z M157.657698,180.400256 L221.515712,180.400256 L221.515712,132.061279 L157.657698,132.061279 L157.657698,180.400256 Z M230.476637,132.062528 L223.939004,132.062528 L223.939004,180.400256 L225.160664,180.400256 L230.476637,180.400256 L230.476637,132.062528 Z M145.560011,144.440362 C144.482297,143.123173 143.27065,142.130599 141.976392,141.450155 C140.54695,140.698546 139.007358,140.33148 137.438977,140.33148 C135.869344,140.33148 134.332256,140.698546 132.901562,141.450155 C131.606052,142.131847 130.39065,143.126918 129.314188,144.446605 L129.312936,180.400256 L145.560011,180.400256 L145.560011,144.440362 Z M127.19631,143.241782 C128.55065,141.49635 130.104011,140.195392 131.775031,139.316433 C133.567467,138.3738 135.487576,137.913096 137.438977,137.913096 C139.39163,137.913096 141.310487,138.3738 143.104174,139.316433 C144.760174,140.186652 146.301018,141.476374 147.649099,143.198084 C147.85563,143.414078 147.982052,143.70748 147.982052,144.030847 L147.982052,180.400256 L149.807031,180.400256 L155.233154,180.400256 L155.233154,132.062528 L110.682623,132.062528 L110.682623,180.400256 L118.418133,180.400256 L118.433154,180.400256 L118.448174,180.400256 L125.070922,180.400256 L126.898405,180.400256 L126.898405,144.030847 C126.898405,143.728705 127.011059,143.452782 127.19631,143.241782 Z M198.569535,173.674475 L207.569263,173.674475 L207.569263,165.494167 L198.569535,165.494167 L198.569535,173.674475 Z M198.569535,163.075782 L207.569263,163.075782 L207.569263,143.274244 L198.569535,143.274244 L198.569535,163.075782 Z M183.024664,173.674475 L196.14499,173.674475 L196.14499,165.494167 L183.024664,165.494167 L183.024664,173.674475 Z M183.024664,163.075782 L196.14499,163.075782 L196.14499,143.274244 L183.024664,143.274244 L183.024664,163.075782 Z M171.602895,163.075782 L180.602623,163.075782 L180.602623,143.274244 L171.602895,143.274244 L171.602895,163.075782 Z M171.602895,173.674475 L180.602623,173.674475 L180.602623,165.494167 L171.602895,165.494167 L171.602895,173.674475 Z M170.391249,140.857108 L181.814269,140.857108 L197.357888,140.857108 L208.780909,140.857108 C209.450569,140.857108 209.992555,141.397717 209.992555,142.064427 L209.992555,164.285599 L209.992555,174.883043 C209.992555,175.549753 209.450569,176.090362 208.780909,176.090362 L197.357888,176.090362 L181.814269,176.090362 L170.391249,176.090362 C169.720337,176.090362 169.178351,175.549753 169.178351,174.883043 L169.178351,142.064427 C169.178351,141.397717 169.720337,140.857108 170.391249,140.857108 Z M110.682623,127.969877 L110.682623,129.644143 L156.4448,129.644143 L222.727358,129.644143 L230.476637,129.644143 L230.476637,127.969877 L225.160664,127.969877 L154.011494,127.969877 L110.682623,127.969877 Z M226.37231,121.800936 L226.37231,125.552741 L231.689535,125.552741 L232.912446,125.552741 L232.912446,121.800936 L231.689535,121.800936 L226.37231,121.800936 Z M155.22314,121.800936 L155.22314,125.552741 L223.950269,125.552741 L223.950269,121.800936 L222.727358,121.800936 L205.351249,121.800936 L192.752882,121.800936 L186.419276,121.800936 L173.820909,121.800936 L156.4448,121.800936 L155.22314,121.800936 Z M152.799848,125.552741 L152.799848,121.800936 L143.738786,121.800936 L131.139167,121.800936 L109.470977,121.800936 L108.248065,121.800936 L108.248065,125.552741 L109.470977,125.552741 L152.799848,125.552741 Z M132.350814,108.786356 L142.52714,108.786356 L142.52714,88.9835692 L132.350814,88.9835692 L132.350814,108.786356 Z M132.350814,119.3838 L142.52714,119.3838 L142.52714,111.204741 L132.350814,111.204741 L132.350814,119.3838 Z M175.032555,108.786356 L185.208882,108.786356 L185.208882,88.9835692 L175.032555,88.9835692 L175.032555,108.786356 Z M175.031303,119.3838 L185.20763,119.3838 L185.20763,111.204741 L175.031303,111.204741 L175.031303,119.3838 Z M193.964528,108.786356 L204.140854,108.786356 L204.140854,88.9835692 L193.964528,88.9835692 L193.964528,108.786356 Z M193.963276,119.3838 L204.139603,119.3838 L204.139603,111.204741 L193.963276,111.204741 L193.963276,119.3838 Z M155.22314,70.6652734 L155.22314,74.4170781 L165.021453,74.4170781 L166.243113,74.4170781 L166.243113,70.6652734 L156.4448,70.6652734 L155.22314,70.6652734 Z M152.799848,74.4170781 L152.799848,70.6652734 L148.346297,70.6652734 L143.738786,70.6652734 L131.139167,70.6652734 L126.531657,70.6652734 L118.433154,70.6652734 L109.470977,70.6652734 L108.248065,70.6652734 L108.248065,74.4170781 L109.470977,74.4170781 L152.799848,74.4170781 Z M226.37231,70.6652734 L226.37231,74.4170781 L231.689535,74.4170781 L232.912446,74.4170781 L232.912446,70.6652734 L231.689535,70.6652734 L226.37231,70.6652734 Z M223.950269,74.4170781 L223.950269,70.6652734 L222.727358,70.6652734 L212.929045,70.6652734 L212.929045,74.4170781 L214.150705,74.4170781 L223.950269,74.4170781 Z M230.476637,80.9268651 L223.939004,80.9268651 L223.939004,119.382551 L225.160664,119.382551 L230.476637,119.382551 L230.476637,80.9268651 Z M215.362351,76.8342142 L215.362351,78.5084805 L222.727358,78.5084805 L230.476637,78.5084805 L230.476637,76.8342142 L225.160664,76.8342142 L215.362351,76.8342142 Z M155.233154,80.9268651 L110.682623,80.9268651 L110.682623,119.382551 L129.927521,119.382551 L129.927521,87.7750012 C129.927521,87.1082911 130.469507,86.5664331 131.139167,86.5664331 L143.738786,86.5664331 C144.408446,86.5664331 144.950433,87.1082911 144.950433,87.7750012 L144.950433,109.996173 L144.950433,119.382551 L154.011494,119.382551 L155.233154,119.382551 L155.233154,80.9268651 Z M163.809807,78.5084805 L163.809807,76.8342142 L154.011494,76.8342142 L110.682623,76.8342142 L110.682623,78.5084805 L156.4448,78.5084805 L163.809807,78.5084805 Z M183.774433,49.0683621 C183.788201,48.4141373 184.323929,47.886013 184.986079,47.886013 L183.774433,49.0683621 Z M183.024664,74.4170781 L196.147494,74.4170781 L196.147494,70.6652734 L194.186079,70.6652734 L184.986079,70.6652734 L183.024664,70.6652734 L183.024664,74.4170781 Z M186.196473,68.2468888 L192.974433,68.2468888 L192.974433,49.0958296 C192.974433,48.1844095 192.617698,47.3616343 192.036909,46.7561018 L191.983086,46.7049124 C191.368501,46.0931373 190.522351,45.7148355 189.586079,45.7148355 C188.649807,45.7148355 187.802405,46.0931373 187.189072,46.7049124 C186.57699,47.3166876 186.196473,48.1606876 186.196473,49.0958296 L186.196473,49.1108118 L186.196473,68.2468888 Z M197.357888,76.8342142 L181.813018,76.8342142 C181.143358,76.8342142 180.601371,76.2936047 180.601371,75.6268947 L180.601371,69.4567053 C180.601371,68.7887467 181.143358,68.2468888 181.813018,68.2468888 L183.773181,68.2468888 L183.773181,49.0958296 L183.774433,49.0683621 C183.780691,47.4789953 184.430324,46.0382024 185.475494,44.9956876 C186.528174,43.9469302 187.981399,43.2976994 189.586079,43.2976994 C191.190759,43.2976994 192.643984,43.9469302 193.696664,44.9956876 C193.719195,45.020658 193.742977,45.0443799 193.764256,45.0705988 C194.77563,46.1156107 195.397725,47.5351787 195.397725,49.0958296 L195.397725,68.2468888 L197.357888,68.2468888 C198.027548,68.2468888 198.569535,68.7887467 198.569535,69.4567053 L198.569535,75.6268947 C198.569535,76.2936047 198.027548,76.8342142 197.357888,76.8342142 Z M132.350814,68.2468888 L142.52714,68.2468888 L142.52714,50.8150426 L132.350814,50.8150426 L132.350814,68.2468888 Z M129.927521,68.2468888 L129.927521,49.6064746 C129.927521,48.9397645 130.470759,48.3979065 131.139167,48.3979065 L143.738786,48.3979065 C144.408446,48.3979065 144.950433,48.9397645 144.950433,49.6064746 L144.950433,68.2468888 L147.13465,68.2468888 L147.13465,45.7148355 L127.743303,45.7148355 L127.743303,68.2468888 L129.927521,68.2468888 Z M110.682623,68.2468888 L117.221507,68.2468888 L117.221507,63.317729 L110.682623,63.317729 L110.682623,68.2468888 Z M110.682623,60.9005929 L117.221507,60.9005929 L117.221507,23.0779065 L117.221507,16.9389302 L110.682623,16.9389302 L110.682623,60.9005929 Z M230.476637,63.317729 L223.939004,63.317729 L223.939004,68.2468888 L225.160664,68.2468888 L230.476637,68.2468888 L230.476637,63.317729 Z M223.939004,60.9005929 L230.476637,60.9005929 L230.476637,16.9389302 L223.939004,16.9389302 L223.939004,23.0779065 L223.939004,60.9005929 Z M119.646052,24.285226 L119.646052,62.1079124 L119.646052,68.2468888 L125.320011,68.2468888 L125.320011,44.5062675 C125.320011,43.8395574 125.861997,43.2976994 126.531657,43.2976994 L148.346297,43.2976994 C149.015956,43.2976994 149.557943,43.8395574 149.557943,44.5062675 L149.557943,68.2468888 L154.011494,68.2468888 L155.233154,68.2468888 L155.233154,62.1079124 C155.233154,61.8145101 155.338297,61.5460781 155.513535,61.3363266 L181.988256,24.285226 L119.646052,24.285226 Z M193.903195,23.8482438 C193.864392,23.803297 193.830596,23.7546047 193.800555,23.7046639 L189.586079,17.8066521 L185.372854,23.7021669 C185.341562,23.7546047 185.306514,23.803297 185.267712,23.8494923 L157.657698,62.4899598 L157.657698,68.2468888 L167.456011,68.2468888 C168.124419,68.2468888 168.667657,68.7887467 168.667657,69.4567053 L168.667657,75.6268947 C168.667657,76.2936047 168.124419,76.8342142 167.456011,76.8342142 L166.233099,76.8342142 L166.233099,79.718297 C166.233099,80.3850071 165.691113,80.9268651 165.021453,80.9268651 L157.657698,80.9268651 L157.657698,119.382551 L172.609263,119.382551 L172.609263,87.7750012 C172.609263,87.1082911 173.151249,86.5664331 173.820909,86.5664331 L186.419276,86.5664331 C187.088936,86.5664331 187.630922,87.1082911 187.630922,87.7750012 L187.630922,109.996173 L187.630922,119.382551 L191.539984,119.382551 L191.539984,87.7750012 C191.539984,87.1082911 192.083222,86.5664331 192.752882,86.5664331 L205.351249,86.5664331 C206.019657,86.5664331 206.562895,87.1082911 206.562895,87.7750012 L206.562895,109.996173 L206.562895,119.382551 L221.51446,119.382551 L221.51446,80.9268651 L214.150705,80.9268651 C213.481045,80.9268651 212.939059,80.3850071 212.939059,79.718297 L212.939059,76.8342142 L211.717399,76.8342142 C211.047739,76.8342142 210.504501,76.2936047 210.504501,75.6268947 L210.504501,69.4567053 C210.504501,68.7887467 211.047739,68.2468888 211.717399,68.2468888 L221.51446,68.2468888 L221.51446,62.4899598 L193.903195,23.8482438 Z M197.183902,24.285226 L221.51446,58.3361314 L221.51446,24.285226 L197.183902,24.285226 Z M110.682623,209.349705 C110.682623,210.016415 110.139385,210.558273 109.470977,210.558273 C108.801317,210.558273 108.259331,210.016415 108.259331,209.349705 L108.259331,187.370747 L107.036419,187.370747 C106.368011,187.370747 105.826024,186.828889 105.826024,186.16093 L105.826024,181.610072 C105.826024,180.942114 106.368011,180.400256 107.036419,180.400256 L108.259331,180.400256 L108.259331,130.85396 L108.259331,127.969877 L107.036419,127.969877 C106.368011,127.969877 105.826024,127.429267 105.826024,126.761309 L105.826024,120.592368 C105.826024,119.924409 106.368011,119.382551 107.036419,119.382551 L108.259331,119.382551 L108.259331,76.8342142 L107.036419,76.8342142 C106.368011,76.8342142 105.826024,76.2936047 105.826024,75.6268947 L105.826024,69.4567053 C105.826024,68.7887467 106.368011,68.2468888 107.036419,68.2468888 L108.259331,68.2468888 L108.259331,62.1079124 L108.259331,15.7303621 C108.259331,15.0624036 108.801317,14.5205456 109.470977,14.5205456 L118.433154,14.5205456 C119.102814,14.5205456 119.646052,15.0624036 119.646052,15.7303621 L119.646052,21.8680899 L183.715603,21.8680899 L188.60099,15.029942 C188.987766,14.4893325 189.742541,14.3619834 190.28578,14.7477763 C190.407195,14.8326757 190.506079,14.9350544 190.583684,15.0499183 L195.456555,21.8680899 L221.51446,21.8680899 L221.51446,15.7303621 C221.51446,15.0624036 222.057698,14.5205456 222.727358,14.5205456 L231.689535,14.5205456 C232.357943,14.5205456 232.901181,15.0624036 232.901181,15.7303621 L232.901181,62.1079124 L232.901181,68.2468888 L234.124093,68.2468888 C234.792501,68.2468888 235.334487,68.7887467 235.334487,69.4567053 L235.334487,75.6268947 C235.334487,76.2936047 234.792501,76.8342142 234.124093,76.8342142 L232.901181,76.8342142 L232.901181,79.718297 L232.901181,119.382551 L234.124093,119.382551 C234.792501,119.382551 235.334487,119.924409 235.334487,120.592368 L235.334487,126.761309 C235.334487,127.429267 234.792501,127.969877 234.124093,127.969877 L232.901181,127.969877 L232.901181,130.85396 L232.901181,180.400256 L234.124093,180.400256 C234.792501,180.400256 235.334487,180.942114 235.334487,181.610072 L235.334487,186.16093 C235.334487,186.828889 234.792501,187.370747 234.124093,187.370747 L232.901181,187.370747 L232.901181,209.349705 C232.901181,210.016415 232.357943,210.558273 231.689535,210.558273 C231.019875,210.558273 230.476637,210.016415 230.476637,209.349705 L230.476637,187.370747 L225.160664,187.370747 L223.939004,187.370747 L223.939004,209.349705 C223.939004,210.016415 223.395766,210.558273 222.727358,210.558273 C222.057698,210.558273 221.51446,210.016415 221.51446,209.349705 L221.51446,187.370747 L157.657698,187.370747 L157.657698,209.349705 C157.657698,210.016415 157.113208,210.558273 156.4448,210.558273 C155.776392,210.558273 155.233154,210.016415 155.233154,209.349705 L155.233154,186.16093 L155.233154,182.81864 L151.018678,182.81864 L151.018678,186.16093 L151.018678,191.036404 L151.018678,195.58851 L151.018678,200.246741 L151.018678,204.904972 L151.018678,209.348457 C151.018678,210.015167 150.476691,210.557025 149.807031,210.557025 C149.138623,210.557025 148.595385,210.015167 148.595385,209.348457 L148.595385,206.114788 L126.282569,206.114788 L126.282569,209.348457 C126.282569,210.015167 125.740582,210.557025 125.070922,210.557025 C124.401263,210.557025 123.859276,210.015167 123.859276,209.348457 L123.859276,204.904972 L123.859276,200.246741 L123.859276,195.58851 L123.859276,191.036404 L123.859276,186.16093 L123.859276,182.81864 L119.646052,182.81864 L119.646052,186.16093 L119.646052,209.349705 C119.646052,210.016415 119.102814,210.558273 118.433154,210.558273 C117.764746,210.558273 117.221507,210.016415 117.221507,209.349705 L117.221507,187.370747 L110.682623,187.370747 L110.682623,209.349705 Z" id="Fill-21" fill="#432D61"></path>
                    <polygon id="Fill-22" fill="#4A90E2" points="173.94683 174.882793 208.78166 174.882793 208.78166 146.890959 173.94683 146.890959"></polygon>
                    <polygon id="Fill-23" fill="#D3F2FF" points="173.945328 170.198093 208.821464 150.103153 208.820212 157.434466 178.540321 174.882543 173.945328 174.882543"></polygon>
                    <path d="M298.803722,137.98164 C312.884103,137.98164 324.298362,149.3669 324.298362,163.411509 C324.298362,177.456119 312.884103,188.841379 298.803722,188.841379 C284.723341,188.841379 273.307831,177.456119 273.307831,163.411509 C273.307831,149.3669 284.723341,137.98164 298.803722,137.98164" id="Fill-24" fill="#00CF6B"></path>
                    <path d="M296.074139,140.644485 C306.85754,140.644485 315.599418,149.362905 315.599418,160.120159 C315.599418,170.874917 306.85754,179.593337 296.074139,179.593337 C285.291989,179.593337 276.54886,170.874917 276.54886,160.120159 C276.54886,149.362905 285.291989,140.644485 296.074139,140.644485" id="Fill-25" fill="#47DF7F"></path>
                    <path d="M300.015118,190.023229 L300.015118,209.349081 C300.015118,210.01704 299.47188,210.557649 298.803472,210.557649 C298.133812,210.557649 297.590574,210.01704 297.590574,209.349081 L297.590574,190.023229 C290.699962,189.716093 284.48652,186.803294 279.919064,182.247442 C275.086248,177.426904 272.095935,170.767294 272.095935,163.412259 C272.095935,156.055975 275.086248,149.396365 279.919064,144.575827 C284.75188,139.75404 291.429703,136.772572 298.803472,136.772572 C306.178493,136.772572 312.855064,139.75404 317.68788,144.575827 C322.520697,149.396365 325.509758,156.055975 325.509758,163.412259 C325.509758,170.767294 322.520697,177.426904 317.68788,182.247442 C313.121676,186.803294 306.908234,189.716093 300.015118,190.023229 Z M303.353404,166.774525 C303.827799,166.302584 304.595091,166.302584 305.066982,166.774525 C305.540125,167.246466 305.540125,168.011809 305.066982,168.48375 L300.015118,173.522779 L300.015118,187.603596 C306.238574,187.297708 311.846193,184.655838 315.974302,180.538217 C320.369023,176.157158 323.086465,170.100584 323.086465,163.412259 C323.086465,156.722685 320.369023,150.667359 315.974302,146.285051 C311.579581,141.901495 305.510084,139.189708 298.803472,139.189708 C292.098112,139.189708 286.026112,141.901495 281.63139,146.285051 C277.239173,150.667359 274.520479,156.722685 274.520479,163.412259 C274.520479,170.100584 277.239173,176.157158 281.63139,180.538217 C285.759499,184.655838 291.36837,187.297708 297.590574,187.603596 L297.590574,181.530791 L288.366792,172.330442 C287.893649,171.858501 287.893649,171.093158 288.366792,170.621217 C288.839935,170.149276 289.608479,170.149276 290.08037,170.621217 L297.590574,178.11359 L297.590574,163.412259 C297.590574,162.7443 298.133812,162.203691 298.803472,162.203691 C299.47188,162.203691 300.015118,162.7443 300.015118,163.412259 L300.015118,170.10433 L303.353404,166.774525 Z" id="Fill-26" fill="#432D61" transform="translate(298.802846, 173.665111) scale(-1, 1) translate(-298.802846, -173.665111) "></path>
                    <path d="M257.822041,200.351367 L280.774476,200.351367 L280.774476,198.377456 L257.822041,198.377456 L257.822041,200.351367 Z M257.822041,195.96032 L280.774476,195.96032 L280.774476,193.986408 L257.822041,193.986408 L257.822041,195.96032 Z M252.082993,191.568024 L256.610395,191.568024 L281.986122,191.568024 L286.513524,191.568024 L286.513524,193.986408 L283.19902,193.986408 L283.19902,195.96032 L286.513524,195.96032 L286.513524,198.377456 L283.19902,198.377456 L283.19902,200.351367 L286.513524,200.351367 L286.513524,202.769751 L283.19902,202.769751 L283.19902,209.349456 C283.19902,210.016166 282.655782,210.558024 281.986122,210.558024 C281.317714,210.558024 280.774476,210.016166 280.774476,209.349456 L280.774476,202.769751 L257.823293,202.769751 L257.823293,209.349456 C257.823293,210.016166 257.280054,210.558024 256.610395,210.558024 C255.941986,210.558024 255.398748,210.016166 255.398748,209.349456 L255.398748,202.769751 L252.082993,202.769751 L252.082993,200.351367 L255.398748,200.351367 L255.398748,198.377456 L252.082993,198.377456 L252.082993,195.96032 L255.398748,195.96032 L255.398748,193.986408 L252.082993,193.986408 L252.082993,191.568024 Z" id="Fill-27" fill="#432D61"></path>
                    <polygon id="Fill-28" fill="#4A90E2" points="222.727483 186.160556 225.160789 186.160556 225.160789 181.609698 230.441714 181.609698 230.441714 186.160556 228.008408 186.160556 228.008408 209.349331 222.727483 209.349331"></polygon>
                    <polygon id="Fill-29" fill="#4A90E2" points="156.4448 181.610322 164.543303 200.797588 164.543303 209.349955 156.4448 209.349955"></polygon>
                    <path d="M131.661377,181.610322 L131.662629,147.292233 C134.222356,143.96992 137.546873,142.384298 140.995309,142.384298 C143.00554,142.384298 144.973214,142.923659 146.770656,144.029849 L146.770656,181.610322 L131.661377,181.610322 Z" id="Fill-30" fill="#4A90E2"></path>
                    <polygon id="Fill-31" fill="#4A90E2" points="173.94683 200.246491 208.78166 200.246491 208.78166 195.860438 173.94683 195.860438"></polygon>
                    <path d="M1.7526357,210.636556 C1.33681737,210.636556 0.99949932,210.077074 0.99949932,209.388679 C0.99949932,208.698996 1.33681737,208.139514 1.7526357,208.139514 L368.246363,208.139514 C368.662181,208.139514 368.999499,208.698996 368.999499,209.388679 C368.999499,210.077074 368.662181,210.636556 368.246363,210.636556 L1.7526357,210.636556 Z" id="Fill-32" fill="#432D61"></path>
                </g>
                <g id="Group" transform="translate(209.000000, 60.000000)">
                    <rect id="Rectangle-40" stroke="#FFFFFF" stroke-width="6" fill="#4BB7F1" fill-rule="nonzero" x="0" y="0" width="112" height="55" rx="8"></rect>
                    <path d="M46.906,12.4 C47.0380007,12.4 47.1519995,12.4479995 47.248,12.544 C47.3440005,12.6400005 47.392,12.7539993 47.392,12.886 L47.392,14.164 C47.392,14.2960007 47.3440005,14.4099995 47.248,14.506 C47.1519995,14.6020005 47.0380007,14.65 46.906,14.65 L41.164,14.65 L41.164,18.142 L46.546,18.142 C46.6780007,18.142 46.7919995,18.1899995 46.888,18.286 C46.9840005,18.3820005 47.032,18.4959993 47.032,18.628 L47.032,19.906 C47.032,20.0380007 46.9840005,20.1519995 46.888,20.248 C46.7919995,20.3440005 46.6780007,20.392 46.546,20.392 L41.164,20.392 L41.164,24.514 C41.164,24.6460007 41.1160005,24.7599995 41.02,24.856 C40.9239995,24.9520005 40.8100007,25 40.678,25 L39.22,25 C39.0879993,25 38.9740005,24.9520005 38.878,24.856 C38.7819995,24.7599995 38.734,24.6460007 38.734,24.514 L38.734,12.886 C38.734,12.7539993 38.7819995,12.6400005 38.878,12.544 C38.9740005,12.4479995 39.0879993,12.4 39.22,12.4 L46.906,12.4 Z M49.954,17.098 C49.9900002,16.4259966 50.1189989,15.793003 50.341,15.199 C50.5630011,14.604997 50.8899978,14.0890022 51.322,13.651 C51.7540022,13.2129978 52.2939968,12.8650013 52.942,12.607 C53.5900032,12.3489987 54.3579956,12.22 55.246,12.22 C56.1220044,12.22 56.8839968,12.3459987 57.532,12.598 C58.1800032,12.8500013 58.7199978,13.1979978 59.152,13.642 C59.5840022,14.0860022 59.9139989,14.6019971 60.142,15.19 C60.3700011,15.7780029 60.5019998,16.4139966 60.538,17.098 C60.5500001,17.3260011 60.559,17.5779986 60.565,17.854 C60.571,18.1300014 60.574,18.4149985 60.574,18.709 C60.574,19.0030015 60.571,19.2879986 60.565,19.564 C60.559,19.8400014 60.5500001,20.0919989 60.538,20.32 C60.5019998,20.9920034 60.3730011,21.624997 60.151,22.219 C59.9289989,22.813003 59.6020022,23.3289978 59.17,23.767 C58.7379978,24.2050022 58.1950033,24.5499987 57.541,24.802 C56.8869967,25.0540013 56.1220044,25.18 55.246,25.18 C54.3579956,25.18 53.5900032,25.0540013 52.942,24.802 C52.2939968,24.5499987 51.7540022,24.2050022 51.322,23.767 C50.8899978,23.3289978 50.5630011,22.813003 50.341,22.219 C50.1189989,21.624997 49.9900002,20.9920034 49.954,20.32 C49.9419999,20.0919989 49.933,19.8400014 49.927,19.564 C49.921,19.2879986 49.918,19.0030015 49.918,18.709 C49.918,18.4149985 49.921,18.1300014 49.927,17.854 C49.933,17.5779986 49.9419999,17.3260011 49.954,17.098 Z M58.108,17.188 C58.0599998,16.3239957 57.7810025,15.6550024 57.271,15.181 C56.7609975,14.7069976 56.0860042,14.47 55.246,14.47 C54.4059958,14.47 53.7310025,14.7069976 53.221,15.181 C52.7109975,15.6550024 52.4320002,16.3239957 52.384,17.188 C52.3599999,17.6440023 52.348,18.1509972 52.348,18.709 C52.348,19.2670028 52.3599999,19.7739977 52.384,20.23 C52.4320002,21.0940043 52.7109975,21.7599977 53.221,22.228 C53.7310025,22.6960023 54.4059958,22.93 55.246,22.93 C56.0860042,22.93 56.7609975,22.6960023 57.271,22.228 C57.7810025,21.7599977 58.0599998,21.0940043 58.108,20.23 C58.1320001,19.7739977 58.144,19.2670028 58.144,18.709 C58.144,18.1509972 58.1320001,17.6440023 58.108,17.188 Z M69.094,12.4 C70.5940075,12.4 71.7339961,12.7479965 72.514,13.444 C73.2940039,14.1400035 73.684,15.1059938 73.684,16.342 C73.684,17.2180044 73.483002,17.9649969 73.081,18.583 C72.678998,19.2010031 72.0880039,19.6599985 71.308,19.96 L73.792,24.406 C73.8280002,24.4780004 73.846,24.5439997 73.846,24.604 C73.846,24.7120005 73.8070004,24.8049996 73.729,24.883 C73.6509996,24.9610004 73.5580005,25 73.45,25 L71.92,25 C71.6799988,25 71.5030006,24.9430006 71.389,24.829 C71.2749994,24.7149994 71.1940002,24.6100005 71.146,24.514 L68.788,20.32 L66.394,20.32 L66.394,24.514 C66.394,24.6460007 66.3460005,24.7599995 66.25,24.856 C66.1539995,24.9520005 66.0400007,25 65.908,25 L64.45,25 C64.3179993,25 64.2040005,24.9520005 64.108,24.856 C64.0119995,24.7599995 63.964,24.6460007 63.964,24.514 L63.964,12.886 C63.964,12.7539993 64.0119995,12.6400005 64.108,12.544 C64.2040005,12.4479995 64.3179993,12.4 64.45,12.4 L69.094,12.4 Z M66.394,18.07 L69.004,18.07 C69.6880034,18.07 70.233998,17.9500012 70.642,17.71 C71.050002,17.4699988 71.254,17.0140034 71.254,16.342 C71.254,15.6699966 71.050002,15.2200011 70.642,14.992 C70.233998,14.7639989 69.6880034,14.65 69.004,14.65 L66.394,14.65 L66.394,18.07 Z M46.015,30.4 C46.1470007,30.4 46.2609995,30.4479995 46.357,30.544 C46.4530005,30.6400005 46.501,30.7539993 46.501,30.886 L46.501,42.514 C46.501,42.6460007 46.4530005,42.7599995 46.357,42.856 C46.2609995,42.9520005 46.1470007,43 46.015,43 L44.557,43 C44.4249993,43 44.3110005,42.9520005 44.215,42.856 C44.1189995,42.7599995 44.071,42.6460007 44.071,42.514 L44.071,37.762 L38.635,37.762 L38.635,42.514 C38.635,42.6460007 38.5870005,42.7599995 38.491,42.856 C38.3949995,42.9520005 38.2810007,43 38.149,43 L36.691,43 C36.5589993,43 36.4450005,42.9550005 36.349,42.865 C36.2529995,42.7749995 36.205,42.6580007 36.205,42.514 L36.205,30.886 C36.205,30.7539993 36.2529995,30.6400005 36.349,30.544 C36.4450005,30.4479995 36.5589993,30.4 36.691,30.4 L38.149,30.4 C38.2810007,30.4 38.3949995,30.4479995 38.491,30.544 C38.5870005,30.6400005 38.635,30.7539993 38.635,30.886 L38.635,35.512 L44.071,35.512 L44.071,30.886 C44.071,30.7539993 44.1189995,30.6400005 44.215,30.544 C44.3110005,30.4479995 44.4249993,30.4 44.557,30.4 L46.015,30.4 Z M56.263,36.826 L59.683,30.886 C59.7310002,30.8259997 59.8119994,30.7300007 59.926,30.598 C60.0400006,30.4659993 60.2169988,30.4 60.457,30.4 L61.681,30.4 C61.8130007,30.4 61.9269995,30.4479995 62.023,30.544 C62.1190005,30.6400005 62.167,30.7539993 62.167,30.886 L62.167,42.514 C62.167,42.6460007 62.1190005,42.7599995 62.023,42.856 C61.9269995,42.9520005 61.8130007,43 61.681,43 L60.223,43 C60.0909993,43 59.9770005,42.9520005 59.881,42.856 C59.7849995,42.7599995 59.737,42.6460007 59.737,42.514 L59.737,35.476 L57.397,39.526 C57.3369997,39.6220005 57.2530005,39.7209995 57.145,39.823 C57.0369995,39.9250005 56.8990008,39.976 56.731,39.976 L55.795,39.976 C55.6269992,39.976 55.4890005,39.9250005 55.381,39.823 C55.2729995,39.7209995 55.1890003,39.6220005 55.129,39.526 L52.789,35.476 L52.789,42.514 C52.789,42.6460007 52.7410005,42.7599995 52.645,42.856 C52.5489995,42.9520005 52.4350007,43 52.303,43 L50.845,43 C50.7129993,43 50.5990005,42.9520005 50.503,42.856 C50.4069995,42.7599995 50.359,42.6460007 50.359,42.514 L50.359,30.886 C50.359,30.7539993 50.4069995,30.6400005 50.503,30.544 C50.5990005,30.4479995 50.7129993,30.4 50.845,30.4 L52.069,30.4 C52.3090012,30.4 52.4859994,30.4659993 52.6,30.598 C52.7140006,30.7300007 52.7949998,30.8259997 52.843,30.886 L56.263,36.826 Z M65.593,35.098 C65.6290002,34.4259966 65.7579989,33.793003 65.98,33.199 C66.2020011,32.604997 66.5289978,32.0890022 66.961,31.651 C67.3930022,31.2129978 67.9329968,30.8650013 68.581,30.607 C69.2290032,30.3489987 69.9969956,30.22 70.885,30.22 C71.7610044,30.22 72.5229968,30.3459987 73.171,30.598 C73.8190032,30.8500013 74.3589978,31.1979978 74.791,31.642 C75.2230022,32.0860022 75.5529989,32.6019971 75.781,33.19 C76.0090011,33.7780029 76.1409998,34.4139966 76.177,35.098 C76.1890001,35.3260011 76.198,35.5779986 76.204,35.854 C76.21,36.1300014 76.213,36.4149985 76.213,36.709 C76.213,37.0030015 76.21,37.2879986 76.204,37.564 C76.198,37.8400014 76.1890001,38.0919989 76.177,38.32 C76.1409998,38.9920034 76.0120011,39.624997 75.79,40.219 C75.5679989,40.813003 75.2410022,41.3289978 74.809,41.767 C74.3769978,42.2050022 73.8340033,42.5499987 73.18,42.802 C72.5259967,43.0540013 71.7610044,43.18 70.885,43.18 C69.9969956,43.18 69.2290032,43.0540013 68.581,42.802 C67.9329968,42.5499987 67.3930022,42.2050022 66.961,41.767 C66.5289978,41.3289978 66.2020011,40.813003 65.98,40.219 C65.7579989,39.624997 65.6290002,38.9920034 65.593,38.32 C65.5809999,38.0919989 65.572,37.8400014 65.566,37.564 C65.56,37.2879986 65.557,37.0030015 65.557,36.709 C65.557,36.4149985 65.56,36.1300014 65.566,35.854 C65.572,35.5779986 65.5809999,35.3260011 65.593,35.098 Z M73.747,35.188 C73.6989998,34.3239957 73.4200026,33.6550024 72.91,33.181 C72.3999975,32.7069976 71.7250042,32.47 70.885,32.47 C70.0449958,32.47 69.3700026,32.7069976 68.86,33.181 C68.3499975,33.6550024 68.0710002,34.3239957 68.023,35.188 C67.9989999,35.6440023 67.987,36.1509972 67.987,36.709 C67.987,37.2670028 67.9989999,37.7739977 68.023,38.23 C68.0710002,39.0940043 68.3499975,39.7599977 68.86,40.228 C69.3700026,40.6960023 70.0449958,40.93 70.885,40.93 C71.7250042,40.93 72.3999975,40.6960023 72.91,40.228 C73.4200026,39.7599977 73.6989998,39.0940043 73.747,38.23 C73.7710001,37.7739977 73.783,37.2670028 73.783,36.709 C73.783,36.1509972 73.7710001,35.6440023 73.747,35.188 Z" id="FOR-HMO" fill="#FAFAFA"></path>
                </g>
            </g>
        </g>
    </g>
</svg>