<?xml version="1.0" encoding="UTF-8"?>
<svg width="16px" height="13px" viewBox="0 0 16 13" version="1.1" xmlns="http://www.w3.org/2000/svg" xmlns:xlink="http://www.w3.org/1999/xlink">
    <!-- Generator: Sketch 51 (57462) - http://www.bohemiancoding.com/sketch -->
    <title>bed-icon</title>
    <desc>Created with Sketch.</desc>
    <defs></defs>
    <g id="Symbols" stroke="none" stroke-width="1" fill="none" fill-rule="evenodd">
        <g id="bed-icon" transform="translate(0.000000, -0.000000)" fill="#989DA3">
            <path d="M0.898876404,9.56944444 L15.1011236,9.56944444 L15.1011236,7.22222222 L0.898876404,7.22222222 L0.898876404,9.56944444 Z M12.2612135,6.31944444 L3.96134831,6.31944444 C6.14993258,5.37856944 10.2171685,5.37134722 12.2612135,6.31944444 Z M1.97752809,3.09544444 C1.97752809,1.85845833 3.00907865,0.902777778 4.2407191,0.902777778 L11.7163146,0.902777778 C12.9479551,0.902777778 14.0224719,1.85845833 14.0224719,3.09544444 L14.0224719,6.31944444 L13.8817079,6.31944444 L13.8989663,6.26545833 C11.9714157,4.12966667 4.48791011,4.11377778 2.24035955,6.25029167 L2.27811236,6.31944444 L1.97752809,6.31944444 L1.97752809,3.09544444 Z M15.1164045,6.31944444 L14.9213483,6.31944444 L14.9213483,3.09544444 C14.9213483,1.36048611 13.4435955,0 11.7163146,0 L4.2407191,0 C2.5134382,0 1.07865169,1.36048611 1.07865169,3.09544444 L1.07865169,6.31944444 L0.840808989,6.31944444 C0.391910112,6.31944444 0,6.60941667 0,7.06044444 L0,9.64094444 C0,10.0917917 0.391910112,10.4722222 0.840808989,10.4722222 L15.1164045,10.4722222 C15.5651236,10.4722222 16,10.0917917 16,9.64094444 L16,7.06044444 C16,6.60941667 15.5651236,6.31944444 15.1164045,6.31944444 Z" id="Fill-1"></path>
            <polygon id="Fill-3" points="1.07865169 13 1.97752809 13 1.97752809 11.375 1.07865169 11.375"></polygon>
            <polygon id="Fill-4" points="14.0224719 13 14.9213483 13 14.9213483 11.375 14.0224719 11.375"></polygon>
            <path d="M3.7752809,3.96799722 C3.7752809,3.68037222 3.97177528,3.43048333 4.20997753,3.43048333 L6.2698427,3.43048333 C6.48808989,3.43048333 6.70220225,3.79159444 6.70220225,3.97215 L7.60107865,3.97215 C7.60107865,3.24992778 6.99146067,2.52770556 6.2698427,2.52770556 L4.20997753,2.52770556 C3.47613483,2.52770556 2.87640449,3.18258056 2.87640449,3.96799722 L2.87640449,4.87492778 L3.7752809,4.87492778 L3.7752809,3.96799722 Z" id="Fill-5"></path>
            <path d="M9.99052584,3.43055556 L11.8346607,3.43055556 C12.0730427,3.43055556 12.224773,3.68044444 12.224773,3.96806944 L12.224773,4.875 L13.1236494,4.875 L13.1236494,3.96806944 C13.1236494,3.18265278 12.5686831,2.52777778 11.8346607,2.52777778 L9.99052584,2.52777778 C9.26890787,2.52777778 8.65946966,3.25 8.65946966,3.97222222 L9.55834607,3.97222222 C9.55834607,3.79166667 9.77245843,3.43055556 9.99052584,3.43055556" id="Fill-6"></path>
        </g>
    </g>
</svg>