<?xml version="1.0" encoding="UTF-8"?>
<svg width="34px" height="34px" viewBox="0 0 34 34" version="1.1" xmlns="http://www.w3.org/2000/svg" xmlns:xlink="http://www.w3.org/1999/xlink">
    <!-- Generator: Sketch 51 (57462) - http://www.bohemiancoding.com/sketch -->
    <title>bunk-default-avatar</title>
    <desc>Created with Sketch.</desc>
    <defs>
        <linearGradient x1="100%" y1="0%" x2="0%" y2="100%" id="linearGradient-1">
            <stop stop-color="#F2C94C" offset="0%"></stop>
            <stop stop-color="#F2994A" offset="100%"></stop>
        </linearGradient>
    </defs>
    <g id="Symbols" stroke="none" stroke-width="1" fill="none" fill-rule="evenodd">
        <g id="bunk-default-avatar" transform="translate(1.000000, 1.000000)">
            <g>
                <circle id="Oval" stroke="#E8E8E8" fill="#FFFFFF" cx="16" cy="16" r="16"></circle>
                <path d="M20.694375,20.720625 C20.13,20.519375 19.320625,20.449375 18.804375,20.335625 C18.506875,20.27 18.07375,20.10375 17.929375,19.933125 C17.785,19.758125 17.8725,18.14375 17.8725,18.14375 C17.8725,18.14375 18.139375,17.72375 18.28375,17.35625 C18.428125,16.98875 18.585625,15.9825 18.585625,15.9825 C18.585625,15.9825 18.883125,15.9825 18.988125,15.461875 C19.101875,14.893125 19.276875,14.656875 19.255,14.2325 C19.233125,13.83875 19.0275,13.816875 19.005625,13.816875 C19.005625,13.816875 19.22,13.221875 19.250625,11.961875 C19.285625,10.47 18.14375,9 16,9 C13.85625,9 12.71875,10.465625 12.749375,11.9575 C12.775625,13.213125 12.994375,13.8125 12.994375,13.8125 C12.9725,13.8125 12.766875,13.834375 12.745,14.228125 C12.723125,14.6525 12.9025,14.88 13.011875,15.44875 C13.116875,15.969375 13.414375,15.97375 13.414375,15.97375 C13.414375,15.97375 13.571875,16.984375 13.71625,17.351875 C13.860625,17.72375 14.1275,18.139375 14.1275,18.139375 C14.1275,18.139375 14.215,19.75375 14.070625,19.92875 C13.92625,20.10375 13.493125,20.265625 13.195625,20.33125 C12.675,20.445 11.87,20.519375 11.305625,20.720625 C10.74125,20.921875 9,21.6 9,23 L23,23 C23,21.6 21.25875,20.921875 20.694375,20.720625 Z" id="Mask" fill="url(#linearGradient-1)" fill-rule="nonzero"></path>
            </g>
        </g>
    </g>
</svg>