<?xml version="1.0" encoding="UTF-8"?>
<svg width="16px" height="16px" viewBox="0 0 16 16" version="1.1" xmlns="http://www.w3.org/2000/svg" xmlns:xlink="http://www.w3.org/1999/xlink">
    <!-- Generator: Sketch 51 (57462) - http://www.bohemiancoding.com/sketch -->
    <title>chat-settings-icon</title>
    <desc>Created with Sketch.</desc>
    <defs></defs>
    <g id="Page-1" stroke="none" stroke-width="1" fill="none" fill-rule="evenodd">
        <g id="Chat-/-03" transform="translate(-1340.000000, -94.000000)">
            <rect fill="#F4F8F9" x="0" y="0" width="1368" height="1072"></rect>
            <g id="*chat-heading" transform="translate(338.000000, 75.000000)" fill="#D4D2D2">
                <path d="M1017.91677,25.6198608 C1017.86102,25.5468551 1017.78827,25.5033842 1017.698,25.4895758 L1015.7918,25.1979367 C1015.6876,24.8646167 1015.54517,24.5243925 1015.36464,24.1771362 C1015.48955,24.003508 1015.67699,23.7587921 1015.92695,23.4427326 C1016.1769,23.1266731 1016.35398,22.8958934 1016.45819,22.75001 C1016.5138,22.6735522 1016.54142,22.5937702 1016.54142,22.5104083 C1016.54142,22.4132379 1016.51726,22.336908 1016.46854,22.2812907 C1016.21859,21.9270023 1015.64566,21.3368201 1014.74978,20.5103603 C1014.66667,20.4409346 1014.57973,20.4062857 1014.48959,20.4062857 C1014.38539,20.4062857 1014.30203,20.4374825 1014.23951,20.4998761 L1012.76047,21.6145228 C1012.47561,21.4686394 1012.16313,21.3401443 1011.8229,21.2290376 L1011.53126,19.3124795 C1011.52436,19.2222133 1011.48434,19.1475456 1011.41146,19.0884762 C1011.33846,19.0294068 1011.25356,19 1011.15614,19 L1008.84374,19 C1008.64236,19 1008.51732,19.0971704 1008.46874,19.291639 C1008.37847,19.6387675 1008.27772,20.284567 1008.16661,21.2290376 C1007.8402,21.333368 1007.52426,21.4653151 1007.21869,21.625007 L1005.78121,20.5103603 C1005.69094,20.4409346 1005.60067,20.4062857 1005.51041,20.4062857 C1005.35762,20.4062857 1005.02954,20.6544538 1004.52605,21.1510456 C1004.02255,21.6476375 1003.68066,22.0208485 1003.5,22.2708065 C1003.43748,22.3610727 1003.40629,22.4409826 1003.40629,22.5104083 C1003.40629,22.5937702 1003.44093,22.6771322 1003.51036,22.7603663 C1003.97563,23.3229317 1004.34718,23.8020073 1004.62501,24.1979767 C1004.45138,24.5173604 1004.31598,24.836872 1004.21881,25.1562557 L1002.28128,25.4478948 C1002.20495,25.4618311 1002.13898,25.5069641 1002.08336,25.5834219 C1002.02774,25.6597518 1002,25.7396617 1002,25.8228958 L1002,28.1354232 C1002,28.2258173 1002.02774,28.3072614 1002.08336,28.3801392 C1002.13898,28.4531449 1002.21186,28.4967437 1002.30212,28.5105521 L1004.20845,28.7918348 C1004.30562,29.132059 1004.44793,29.4757354 1004.63549,29.8228638 C1004.51058,29.996492 1004.32301,30.2412079 1004.07305,30.5572674 C1003.8231,30.8733269 1003.64589,31.1041066 1003.54181,31.24999 C1003.4862,31.3265756 1003.45845,31.4062298 1003.45845,31.4895917 C1003.45845,31.5798579 1003.48274,31.6596399 1003.53133,31.7290656 C1003.80213,32.1041945 1004.37505,32.6876004 1005.25009,33.4791555 C1005.32655,33.5556133 1005.41337,33.5937143 1005.51054,33.5937143 C1005.61474,33.5937143 1005.70155,33.5625175 1005.77098,33.5001239 L1007.23979,32.3853493 C1007.52465,32.5312328 1007.83713,32.6597278 1008.17735,32.7709624 L1008.46899,34.6875205 C1008.47602,34.7777867 1008.51591,34.8524544 1008.58879,34.9115238 C1008.66167,34.970721 1008.74682,35 1008.84399,35 L1011.15652,35 C1011.35815,35 1011.48306,34.9028296 1011.53178,34.708361 C1011.62191,34.3611047 1011.72254,33.715433 1011.83364,32.7709624 C1012.16006,32.6667599 1012.47612,32.5346849 1012.78157,32.374993 L1014.21918,33.5001239 C1014.31635,33.5625175 1014.40674,33.5937143 1014.48997,33.5937143 C1014.64263,33.5937143 1014.96905,33.3473362 1015.46897,32.8541965 C1015.96914,32.3611846 1016.31281,31.9860557 1016.50012,31.7290656 C1016.56264,31.6596399 1016.59397,31.5798579 1016.59397,31.4895917 C1016.59397,31.3993256 1016.55932,31.3122558 1016.48977,31.2291495 C1015.98985,30.6179989 1015.6183,30.1389233 1015.37512,29.791667 C1015.51397,29.5346769 1015.6495,29.2187453 1015.78145,28.8437443 L1017.70849,28.5522331 C1017.79172,28.5382968 1017.8614,28.4930359 1017.91689,28.4165781 C1017.97238,28.3401203 1018,28.2602105 1018,28.1769764 L1018,25.8645768 C1018.00013,25.7743106 1017.97251,25.6928664 1017.91677,25.6198608 L1017.91677,25.6198608 Z M1011.88568,28.8854252 C1011.36492,29.4063097 1010.73639,29.6667519 1010.00019,29.6667519 C1009.264,29.6667519 1008.63559,29.4063097 1008.1147,28.8854252 C1007.59395,28.3646687 1007.3335,27.7362575 1007.3335,27.0000639 C1007.3335,26.2638704 1007.59382,25.6354592 1008.1147,25.1145748 C1008.63559,24.5938182 1009.26413,24.333376 1010.00019,24.333376 C1010.73639,24.333376 1011.36492,24.5938182 1011.88568,25.1145748 C1012.40644,25.6354592 1012.66688,26.2638704 1012.66688,27.0000639 C1012.66688,27.7362575 1012.40644,28.3646687 1011.88568,28.8854252 L1011.88568,28.8854252 Z" id="chat-settings-icon"></path>
            </g>
        </g>
    </g>
</svg>