<?xml version="1.0" encoding="UTF-8"?>
<svg width="46px" height="46px" viewBox="0 0 46 46" version="1.1" xmlns="http://www.w3.org/2000/svg" xmlns:xlink="http://www.w3.org/1999/xlink">
    <!-- Generator: Sketch 51 (57462) - http://www.bohemiancoding.com/sketch -->
    <title>icons/icon_meeting</title>
    <desc>Created with Sketch.</desc>
    <defs>
        <linearGradient x1="40.8234008%" y1="28.7446384%" x2="73.0442214%" y2="80.2024548%" id="linearGradient-1">
            <stop stop-color="#13A3F0" offset="0%"></stop>
            <stop stop-color="#15CEF3" offset="100%"></stop>
        </linearGradient>
    </defs>
    <g id="icons/icon_meeting" stroke="none" stroke-width="1" fill="none" fill-rule="evenodd">
        <g id="icon-owed">
            <rect id="frame" x="0" y="0" width="46" height="46"></rect>
            <path d="M23,17 C27.4182727,17 31,20.5817273 31,25 C31,29.4182727 27.4182727,33 23,33 C18.5817273,33 15,29.4182727 15,25 C15,20.5817273 18.5817273,17 23,17" id="fill" fill="url(#linearGradient-1)" opacity="0.695324"></path>
            <path d="M16.0724504,11.0464969 C16.0886964,10.8952942 16.1614167,10.6137177 16.4584869,10.4270285 C17.7016946,9.64632863 19.84617,8.71442598 23.0002198,8.71442598 C26.1542696,8.71442598 28.298745,9.64632863 29.5419527,10.4278 C29.8390229,10.6144891 29.9117432,10.8952942 29.9279892,11.0472684 C29.9581604,11.314959 29.8660996,11.5780209 29.6750154,11.7685672 C29.3841342,12.0578582 28.9315663,12.1095448 28.5996832,11.8912266 C27.909614,11.4360755 27.1506925,11.0680973 26.3422593,10.7957781 L25.3210806,10.4509433 L25.3210806,12.571639 L20.679359,12.571639 L20.679359,10.4509433 L19.6581803,10.7950067 C18.8497471,11.0673259 18.0908256,11.435304 17.4007563,11.8904552 C17.0680996,12.1103163 16.6155318,12.0570868 16.3254242,11.7677958 C16.13434,11.5772495 16.0422792,11.3141875 16.0724504,11.0464969 Z M20.679359,4.85721299 C20.679359,3.58124693 21.7206519,2.5428852 23.0002198,2.5428852 C24.2797877,2.5428852 25.3210806,3.58124693 25.3210806,4.85721299 C25.3210806,6.13317904 24.2797877,7.17154078 23.0002198,7.17154078 C21.7206519,7.17154078 20.679359,6.13317904 20.679359,4.85721299 Z M18.2540595,13.1772214 C18.5325628,12.9936181 18.8265385,12.826215 19.1321185,12.6765552 L19.1321185,14.1145242 L26.8683211,14.1145242 L26.8683211,12.6765552 C27.1739011,12.826215 27.4671032,12.9936181 27.7463801,13.1772214 C28.6901968,13.800547 29.958934,13.666316 30.7689144,12.8586156 C31.2949762,12.3340346 31.5487237,11.6119644 31.4659463,10.8752367 C31.3847162,10.1493092 30.9839809,9.50978329 30.3666319,9.12329055 C29.3748507,8.49919349 27.8740274,7.79949506 25.8595203,7.43151694 C26.4799637,6.74724735 26.8683211,5.85005961 26.8683211,4.85721299 C26.8683211,2.73034575 25.1330909,1 23.0002198,1 C20.8673487,1 19.1321185,2.73034575 19.1321185,4.85721299 C19.1321185,5.85005961 19.5204759,6.74724735 20.1401457,7.43151694 C18.1256385,7.79949506 16.6248152,8.49919349 15.6330341,9.12329055 C15.0156851,9.51055474 14.6157234,10.1493092 14.5337197,10.8752367 C14.4517159,11.6119644 14.7054634,12.3348061 15.2307515,12.8586156 C16.0407319,13.6655446 17.3102428,13.7990041 18.2540595,13.1772214 Z M7.1618922,26.6412091 C6.79983792,25.2209832 6.5739408,22.8997125 7.54947595,19.9072866 C8.52423748,16.9156322 10.0753461,15.1706291 11.2048317,14.2340978 C11.3897269,14.0805807 11.5846792,14.0404657 11.7370824,14.0404657 C11.8067082,14.0404657 11.8678242,14.0489515 11.9142415,14.0582089 C12.1788196,14.1122098 12.400075,14.2811558 12.5230806,14.5218459 C12.7095231,14.8875096 12.6197831,15.3318606 12.3087878,15.5787222 C11.6597204,16.0948173 11.0733162,16.7011712 10.5658213,17.382355 L9.92294291,18.2440564 L11.9451863,18.8997826 L10.5108943,23.3016341 L8.48865095,22.6466793 L8.50102887,23.7212988 C8.51108594,24.5729715 8.6279026,25.4069009 8.84838437,26.2007153 C8.95514397,26.5833509 8.765607,26.9953012 8.39813738,27.1819903 C8.15754148,27.3038783 7.87826456,27.3100498 7.63380056,27.1989621 C7.49454891,27.1372467 7.24853767,26.9814152 7.1618922,26.6412091 Z M3.15299201,20.917105 C2.56349337,20.7265587 2.08384881,20.3176941 1.80302466,19.7668841 C1.52142688,19.2160741 1.47191519,18.5896627 1.66377301,18.001052 C1.98173094,17.0244056 2.89460285,16.4018515 3.87245886,16.4018515 C4.10996028,16.4018515 4.35055618,16.4388807 4.5880576,16.5152535 C5.80418865,16.9086892 6.47259655,18.2162845 6.07805022,19.4297637 C6.07805022,19.4297637 6.07805022,19.4305351 6.0772766,19.4305351 C6.0772766,19.4313065 6.0772766,19.432078 6.07650298,19.4328494 C5.68195664,20.6455572 4.37144392,21.3120836 3.15299201,20.917105 Z M9.09981095,28.5574725 C10.1194425,28.0398345 10.6408625,26.8757276 10.3399242,25.788765 C10.2501843,25.4678449 10.1813321,25.1376674 10.132594,24.8013185 L11.5034491,25.2456694 L13.8947093,17.9084789 L12.5238542,17.4648994 C12.760582,17.2218949 13.011235,16.9950908 13.2727186,16.7860299 C14.1577402,16.0847886 14.4215447,14.8381373 13.9016719,13.821376 C13.5643735,13.1617926 12.9539871,12.6966127 12.226784,12.5477242 C11.5080908,12.4019216 10.7754724,12.5824392 10.2145977,13.0483905 C9.31333015,13.7959184 8.18229733,15.0016831 7.20985666,16.798373 C6.73175934,15.9698436 5.98444217,15.3457465 5.0653813,15.0479697 C3.03926983,14.3922435 0.850698118,15.501578 0.191573657,17.5243004 C-0.127931511,18.504804 -0.0459277634,19.5493373 0.423659735,20.467354 C0.892473612,21.3845992 1.69239696,22.065783 2.67489469,22.3843888 C3.0686674,22.5116768 3.47172356,22.5749351 3.87477972,22.5749351 C4.41012494,22.5749351 4.94082843,22.456133 5.4398135,22.2347289 C5.17059365,24.2535942 5.37405578,25.889824 5.66184252,27.0207588 C5.84132242,27.7258574 6.32715594,28.3036679 6.99479023,28.6053019 C7.31584263,28.7503331 7.65700917,28.8220773 7.99740208,28.8220773 C8.37570239,28.8220773 8.75245546,28.7333614 9.09981095,28.5574725 Z M20.4318005,40.1946841 C20.328909,40.3065432 20.1177107,40.4916895 19.7533356,40.4685462 C18.2873252,40.3728873 16.0035982,39.8706782 13.4514249,38.0215303 C10.8984781,36.1708395 9.71406544,34.1604601 9.16943678,32.8004068 L9.16943678,32.7996353 C9.03946857,32.474858 9.14700179,32.2048531 9.22204296,32.0729364 C9.35510564,31.8384178 9.58487086,31.6802721 9.85022261,31.6386142 C9.89741344,31.6316712 9.94383066,31.627814 9.99024787,31.627814 C10.3453396,31.627814 10.6702601,31.8399607 10.7932657,32.1685953 C11.0818261,32.938495 11.4794669,33.6821656 11.9730366,34.3780069 L12.5965745,35.2551371 L13.8467449,33.5394488 L17.6018976,36.2603268 L16.3532745,37.9752437 L17.3806422,38.2953924 C18.1937171,38.549197 19.0253589,38.6965425 19.8531326,38.7328003 C20.2507734,38.7497721 20.585751,39.0575777 20.6507351,39.4618136 C20.6940578,39.7287327 20.6136013,39.9956519 20.4318005,40.1946841 Z M13.056105,42.5020689 C12.6909562,43.0019637 12.1532901,43.3305982 11.5405829,43.4278 C10.9340646,43.5234589 10.3151684,43.3776562 9.81386245,43.0143068 C9.31255653,42.6501858 8.9829943,42.1140332 8.88551814,41.5038221 C8.78881561,40.8928396 8.93580346,40.2818571 9.3001786,39.7819623 C9.66532736,39.2820675 10.2029934,38.9534329 10.8149271,38.8562312 C10.9379327,38.8377165 11.0609383,38.8276878 11.1831703,38.8276878 C11.6690038,38.8276878 12.1416858,38.979662 12.5424211,39.2704958 C13.5767514,40.0195666 13.8072902,41.4698787 13.056105,42.5020689 Z M19.9219848,37.1922295 C19.5862336,37.1768006 19.2504824,37.1413143 18.9147312,37.0826846 L19.762619,35.9185777 L13.5048047,31.3848096 L12.6561433,32.548145 C12.4975511,32.2472824 12.3582995,31.9394768 12.2414828,31.627814 C11.8446156,30.573252 10.7391123,29.9337261 9.60807947,30.1150151 C8.87468746,30.22996 8.24263971,30.6665965 7.8759437,31.3099797 C7.51388942,31.9448769 7.46128324,32.6970335 7.73127671,33.3720457 C8.16527768,34.4574655 8.96597465,35.9039203 10.3793789,37.3820043 C9.44097749,37.5794937 8.61552467,38.0948173 8.0476874,38.8739743 C7.4403955,39.7071323 7.19438425,40.726208 7.35607089,41.7445122 C7.51775752,42.7628165 8.06702791,43.656147 8.90253779,44.2617294 C9.57017207,44.7461954 10.3577175,45 11.1684715,45 C11.3719337,45 11.5761694,44.9837997 11.7819524,44.9513991 C12.8023575,44.7901676 13.6989834,44.2424434 14.3070489,43.4092854 C14.8919058,42.6062136 15.1061987,41.6527106 15.0079489,40.7362368 C16.8553541,41.6195385 18.4815039,41.9319728 19.6512177,42.009117 C19.7038239,42.0122028 19.7572037,42.0145171 19.8098098,42.0145171 C20.479765,42.0145171 21.1156808,41.7352549 21.573664,41.2345887 C22.0734227,40.6876359 22.2946781,39.953994 22.1778615,39.2218949 C21.9991552,38.0948173 21.0499231,37.2416018 19.9219848,37.1922295 Z M37.1156951,41.5038221 C37.0182189,42.1140332 36.6886567,42.6501858 36.1873508,43.0143068 C35.6860448,43.3776562 35.0686959,43.5234589 34.4606303,43.4278 C33.8479231,43.3305982 33.310257,43.0019637 32.9451082,42.5020689 C32.1931493,41.4691072 32.4236882,40.0195666 33.4595657,39.2697244 C33.960098,38.9071464 34.5720316,38.7628866 35.1862861,38.8562312 C35.7982198,38.9534329 36.3358858,39.2820675 36.7010346,39.7819623 C37.0654097,40.2818571 37.2123976,40.8928396 37.1156951,41.5038221 Z M26.247104,40.4685462 C25.8780872,40.4901466 25.6707569,40.3057718 25.5686391,40.1946841 C25.3868383,39.9956519 25.3063818,39.7287327 25.3489309,39.4641279 C25.413915,39.0591206 25.7496662,38.751315 26.147307,38.7343432 C26.9743071,38.697314 27.8067225,38.5507399 28.6190237,38.2969353 L29.6463914,37.9767866 L28.3977683,36.2618697 L32.1529211,33.5409917 L33.4030914,35.25668 L34.0266294,34.3795498 C34.5209727,33.6837085 34.9178399,32.9400379 35.2064003,32.1701382 C35.3456519,31.7990743 35.7401982,31.5799846 36.1494434,31.6393857 C36.4155687,31.681815 36.6453339,31.8399607 36.777623,32.0737078 C36.8534378,32.2056245 36.9601974,32.4756294 36.8302292,32.8011782 C36.2856005,34.1612315 35.1011879,36.1708395 32.548241,38.0215303 C29.9968414,39.8706782 27.7131144,40.3728873 26.247104,40.4685462 Z M35.6202871,37.3820043 C37.0336913,35.9031489 37.8343883,34.4574655 38.2683893,33.3728172 C38.5391563,32.6970335 38.4857765,31.9448769 38.1237223,31.3099797 C37.7562526,30.6665965 37.1249785,30.2307315 36.3915865,30.1150151 C35.2621009,29.9344975 34.1542767,30.573252 33.7581831,31.627814 C33.6413665,31.9402483 33.5021148,32.2480539 33.3435227,32.548145 L32.4948612,31.3848096 L26.237047,35.9185777 L27.0849348,37.0826846 C26.7491836,37.1405428 26.4134324,37.1768006 26.0784548,37.1922295 C24.9505165,37.2416018 24.0005108,38.0948173 23.8210309,39.2218949 C23.7049878,39.9532225 23.9254696,40.6868644 24.4252283,41.2338172 C24.8832115,41.733712 25.5191274,42.0137457 26.1890825,42.0137457 C26.2416887,42.0137457 26.2950685,42.0114314 26.3476747,42.0083456 C27.5173885,41.9319728 29.1443119,41.6187671 30.9909435,40.7354653 C30.8926937,41.6519391 31.1069865,42.6054422 31.6918434,43.4085139 L31.692617,43.4085139 C32.2999089,44.2416719 33.1957612,44.7893962 34.2169399,44.9506277 C34.4227229,44.9830283 34.6269587,44.9992286 34.8304208,44.9992286 C35.6411748,44.9992286 36.4279467,44.7454239 37.0963546,44.260958 C37.9318644,43.6553756 38.4811348,42.762045 38.6428215,41.7437408 C38.8045081,40.7254366 38.5592705,39.7063609 37.9512049,38.8732029 C37.3841413,38.0955888 36.5586885,37.5794937 35.6202871,37.3820043 Z M44.1974149,19.7668841 C43.9165908,20.3176941 43.4369462,20.7265587 42.8474476,20.917105 C41.6297693,21.3120836 40.3169357,20.6440143 39.9223894,19.4313065 C39.5262958,18.2178273 40.1954773,16.9086892 41.412382,16.5152535 C41.6498834,16.4381093 41.8904793,16.4018515 42.1279807,16.4018515 C43.1066104,16.4018515 44.0187086,17.0251771 44.3366666,18.0018234 C44.5285244,18.5896627 44.4797863,19.2160741 44.1974149,19.7668841 Z M38.8385474,26.6412091 C38.7526755,26.9806438 38.5058907,27.1372467 38.3674126,27.1997335 C38.1237223,27.3115927 37.8444453,27.3054211 37.6023022,27.1819903 C37.2356062,26.9960727 37.0460692,26.5841223 37.1528288,26.2014868 C37.3733106,25.4069009 37.4909009,24.5729715 37.5001843,23.7212988 L37.5125623,22.6466793 L35.4903189,23.3016341 L34.0560269,18.8997826 L36.0782703,18.2440564 L35.4353919,17.382355 C34.927897,16.7011712 34.3414928,16.0948173 33.6916518,15.5787222 C33.3814301,15.3318606 33.2909165,14.8875096 33.4781326,14.5218459 C33.6011382,14.2811558 33.8223936,14.1129813 34.0869717,14.0582089 C34.2362805,14.0265797 34.5279353,14.0103794 34.7971551,14.2340978 C35.9266407,15.1714005 37.4777493,16.9164037 38.4525109,19.9080581 C39.4257252,22.9004839 39.199828,25.2209832 38.8385474,26.6412091 Z M45.8080923,17.5250719 C45.1489678,15.501578 42.9596225,14.3922435 40.9342847,15.0479697 C40.0152238,15.3457465 39.2679066,15.9698436 38.7898093,16.798373 C37.816595,15.0016831 36.6855622,13.7959184 35.7850682,13.0483905 C35.2234199,12.5824392 34.4915751,12.4011502 33.7728819,12.5477242 C33.0456789,12.6966127 32.4352925,13.1617926 32.0979941,13.821376 C31.5781212,14.8373659 31.8426994,16.0847886 32.7261737,16.7860299 C32.988431,16.9950908 33.2390839,17.2211235 33.4758117,17.4648994 L32.1049566,17.9084789 L34.4962169,25.2456694 L35.867072,24.8013185 C35.8191075,25.1384389 35.7502553,25.4678449 35.6597417,25.7895364 C35.3580298,26.8757276 35.8794499,28.0398345 36.8990814,28.556701 C37.2472105,28.7333614 37.6247372,28.8228487 38.0022639,28.8228487 C38.3426568,28.8228487 38.6838233,28.7503331 39.0048757,28.6060734 C39.6717364,28.3044393 40.1575699,27.7266288 40.3378234,27.0215303 L40.3385971,27.0215303 C40.6263838,25.8905954 40.8298459,24.2543657 40.5598525,22.2355004 C41.0596112,22.4576759 41.589541,22.5757066 42.1248862,22.5757066 C42.5279424,22.5757066 42.9317722,22.5124483 43.3247713,22.3851602 C44.3080426,22.0665545 45.1071924,21.3853706 45.5760062,20.4681254 C46.0455937,19.5493373 46.1283711,18.5040325 45.8080923,17.5250719 Z" id="line" fill="#4A90E2"></path>
        </g>
    </g>
</svg>