<?xml version="1.0" encoding="UTF-8"?>
<svg width="46px" height="46px" viewBox="0 0 46 46" version="1.1" xmlns="http://www.w3.org/2000/svg" xmlns:xlink="http://www.w3.org/1999/xlink">
    <!-- Generator: Sketch 51 (57462) - http://www.bohemiancoding.com/sketch -->
    <title>icons/icon-paid</title>
    <desc>Created with Sketch.</desc>
    <defs>
        <linearGradient x1="0%" y1="50%" x2="100%" y2="50%" id="linearGradient-1">
            <stop stop-color="#53D691" offset="0%"></stop>
            <stop stop-color="#43E279" offset="100%"></stop>
        </linearGradient>
    </defs>
    <g id="icons/icon-paid" stroke="none" stroke-width="1" fill="none" fill-rule="evenodd">
        <g id="icon_projects">
            <rect id="frame" x="0" y="0" width="46" height="46"></rect>
            <path d="M15,12.5 C15,14.98544 12.9852,17 10.5,17 C8.0148,17 6,14.98544 6,12.5 C6,10.0148 8.0148,8 10.5,8 C12.9852,8 15,10.0148 15,12.5 Z" id="fill" fill="url(#linearGradient-1)" opacity="0.695089286"></path>
            <path d="M43.7741935,34.1290323 L37.8387097,34.1290323 L37.8387097,3.70967742 C37.8387097,1.66391398 36.1747957,0 34.1290323,0 L3.70967742,0 C1.66391398,0 0,1.66391398 0,3.70967742 C0,5.75544086 1.66391398,7.41935484 3.70967742,7.41935484 L3.70967742,46 L34.8709677,46 L34.8709677,41.5483871 L37.8387097,41.5483871 L37.8387097,38.5806452 L43.7741935,38.5806452 C45.0014538,38.5806452 46,37.5820989 46,36.3548387 C46,35.1275785 45.0014538,34.1290323 43.7741935,34.1290323 Z M36.3548387,3.70967742 L36.3548387,34.1290323 L34.8709677,34.1290323 L34.8709677,5.93548387 L34.1290323,5.93548387 C32.901772,5.93548387 31.9032258,4.93693763 31.9032258,3.70967742 C31.9032258,2.4824172 32.901772,1.48387097 34.1290323,1.48387097 C35.3562925,1.48387097 36.3548387,2.4824172 36.3548387,3.70967742 Z M1.48387097,3.70967742 C1.48387097,2.4824172 2.4824172,1.48387097 3.70967742,1.48387097 L31.1806796,1.48387097 C30.7092043,2.10531613 30.4193548,2.8711914 30.4193548,3.70967742 C30.4193548,4.54816344 30.7092043,5.31423656 31.1806796,5.93548387 L3.70967742,5.93548387 C2.4824172,5.93548387 1.48387097,4.93693763 1.48387097,3.70967742 Z M5.19354839,44.516129 L5.19354839,7.41935484 L33.3870968,7.41935484 L33.3870968,34.1290323 L12.4924129,34.1290323 L5.81578495,36.3548387 L12.4924129,38.5806452 L33.3870968,38.5806452 L33.3870968,44.516129 L5.19354839,44.516129 Z M10.5075871,36.3548387 L11.8709677,35.9003785 L11.8709677,36.8085075 L10.5075871,36.3548387 Z M34.8709677,40.0645161 L36.3548387,40.0645161 L36.3548387,38.5806452 L34.8709677,38.5806452 L34.8709677,40.0645161 Z M13.3548387,37.0967742 L37.8387097,37.0967742 L37.8387097,35.6129032 L13.3548387,35.6129032 L13.3548387,37.0967742 Z M39.3225806,37.0967742 L40.8064516,37.0967742 L40.8064516,35.6129032 L39.3225806,35.6129032 L39.3225806,37.0967742 Z M43.7741935,37.0967742 L42.2903226,37.0967742 L42.2903226,35.6129032 L43.7741935,35.6129032 C44.1837419,35.6129032 44.516129,35.9460817 44.516129,36.3548387 C44.516129,36.7637935 44.1837419,37.0967742 43.7741935,37.0967742 Z M16.3225806,14.8387097 L16.3225806,13.3548387 L28.9354839,13.3548387 L28.9354839,14.8387097 L16.3225806,14.8387097 Z M13.8300731,18.3760602 L8.85772043,22.5200172 L6.89465806,20.5571527 L7.94405161,19.5075613 L8.94952258,20.5122409 L12.8796043,17.236843 L13.8300731,18.3760602 Z M16.3225806,19.2903226 L16.3225806,17.8064516 L31.9032258,17.8064516 L31.9032258,19.2903226 L16.3225806,19.2903226 Z M16.3225806,22.2580645 L16.3225806,20.7741935 L19.2903226,20.7741935 L19.2903226,22.2580645 L16.3225806,22.2580645 Z M20.7741935,22.2580645 L20.7741935,20.7741935 L31.9032258,20.7741935 L31.9032258,22.2580645 L20.7741935,22.2580645 Z M13.8300731,25.7954151 L8.85772043,29.939372 L6.89465806,27.9765075 L7.94405161,26.9269161 L8.94952258,27.9315957 L12.8796043,24.6561978 L13.8300731,25.7954151 Z M16.3225806,26.7096774 L16.3225806,25.2258065 L31.9032258,25.2258065 L31.9032258,26.7096774 L16.3225806,26.7096774 Z M16.3225806,29.6774194 L16.3225806,28.1935484 L27.4516129,28.1935484 L27.4516129,29.6774194 L16.3225806,29.6774194 Z M28.9354839,29.6774194 L28.9354839,28.1935484 L31.9032258,28.1935484 L31.9032258,29.6774194 L28.9354839,29.6774194 Z M28.9354839,11.8709677 L28.9354839,10.3870968 L31.9032258,10.3870968 L31.9032258,11.8709677 L28.9354839,11.8709677 Z M13.8300731,10.9567054 L8.85772043,15.1006624 L6.89465806,13.1377978 L7.94405161,12.0882065 L8.94952258,13.092886 L12.8796043,9.81748817 L13.8300731,10.9567054 Z M16.3225806,11.8709677 L16.3225806,10.3870968 L27.4516129,10.3870968 L27.4516129,11.8709677 L16.3225806,11.8709677 Z" id="line" fill="#4A90E2"></path>
        </g>
    </g>
</svg>