<?xml version="1.0" encoding="UTF-8"?>
<svg width="75px" height="76px" viewBox="0 0 75 76" version="1.1" xmlns="http://www.w3.org/2000/svg" xmlns:xlink="http://www.w3.org/1999/xlink">
    <!-- Generator: Sketch 51.3 (57544) - http://www.bohemiancoding.com/sketch -->
    <title>Group 47</title>
    <desc>Created with Sketch.</desc>
    <defs>
        <rect id="path-1" x="0" y="0" width="84" height="82"></rect>
        <polygon id="path-3" points="0 0.596307692 25.2513971 0.596307692 25.2513971 49.3693077 0 49.3693077"></polygon>
        <polygon id="path-5" points="0.705978482 0.572582076 13.2272059 0.572582076 13.2272059 14.4578068 0.705978482 14.4578068"></polygon>
    </defs>
    <g id="Page-1" stroke="none" stroke-width="1" fill="none" fill-rule="evenodd">
        <g id="Account-/-02-Copy-3" transform="translate(-225.000000, -180.000000)">
            <g id="Group-47" transform="translate(220.000000, 174.000000)">
                <mask id="mask-2" fill="white">
                    <use xlink:href="#path-1"></use>
                </mask>
                <g id="clip" fill-rule="nonzero"></g>
                <polygon id="Fill-1" fill="#343C52" mask="url(#mask-2)" points="50.1767699 62 41 30.4934985 48.5686724 29 53.8080752 47.807771 64.4533609 39.5408902 67 41.2754395"></polygon>
                <g id="Group-46" mask="url(#mask-2)">
                    <g transform="translate(5.000000, 6.000000)">
                        <path d="M62.85875,36.0438038 L64.6903676,34.2987269 C65.2778676,33.7396885 65.6028676,32.96215 65.5874265,32.1539192 L65.5411029,29.6225346 C65.5381618,29.4588423 65.3219853,29.4011115 65.2366912,29.5414192 L63.6484559,32.1619577 C63.4830147,32.4345346 63.1778676,32.59165 62.85875,32.5689962 C62.1418382,32.5185731 61.4477206,32.8247654 61.0043382,33.3859962 L60.2830147,34.2987269 L62.85875,36.0438038 Z" id="Fill-2" fill="#F9B290"></path>
                        <polygon id="Fill-4" fill="#E07270" points="44.4591176 105.400892 44.4591176 65.6353538 23.1172059 65.6353538 17.2414706 105.297123 5.09220588 147.870277 9.06058824 147.870277 26.2407353 105.297123 31.4539706 77.7697769 35.4598529 105.400892 41.5223529 147.974777 45.49 147.974777"></polygon>
                        <path d="M20.7559559,61.2361231 L19.3508088,73.1301231 L43.3611029,73.1301231 L43.3611029,24.3549308 C43.3611029,21.4830077 40.8008088,19.1547769 37.6427206,19.1547769 L21.8721324,19.1547769 C18.4566912,19.1547769 15.8030147,21.8600846 16.19125,24.9461231 L20.7559559,61.2361231 Z" id="Fill-14" fill="#E07270"></path>
                        <path d="M37.9133088,19.1547769 L39.1875735,106.052738 L46.2971324,106.052738 L47.0133088,61.3303923 L44.3868382,25.1010462 C44.4280147,21.8279308 41.5221324,19.1547769 37.9236029,19.1547769 L37.9133088,19.1547769 Z" id="Fill-16" fill="#343C52"></path>
                        <path d="M27.0501471,106.052446 L30.4295588,61.1532538 L24.2369118,19.1544846 L20.8552941,19.1544846 C16.8729412,19.1544846 13.8376471,22.3983692 14.4744118,25.9732923 L20.7560294,61.2358308 L15.4626471,106.052446 L27.0501471,106.052446 Z" id="Fill-18" fill="#343C52"></path>
                        <g id="Group-22" stroke-width="1" fill="none" transform="translate(0.000000, 21.923077)">
                            <mask id="mask-4" fill="white">
                                <use xlink:href="#path-3"></use>
                            </mask>
                            <g id="Clip-21"></g>
                            <path d="M22.4631618,49.3693077 L1.84698529,30.3773462 C-0.232426471,28.8266538 -0.609632353,26.0643462 0.988897059,24.0971154 L15.0109559,0.596307692 L25.2513971,7.89596154 L12.6513971,25.7113846 C11.8322794,26.5488462 11.8315441,27.8116154 12.6499265,28.6498077 L24.8580147,46.1013077 L22.4631618,49.3693077 Z" id="Fill-20" fill="#343C52" mask="url(#mask-4)"></path>
                        </g>
                        <path d="M26.2555882,68.6697269 L24.4386765,67.8154577 L21.5438235,70.4944577 L22.7622059,71.3224192 C23.3077941,71.6885346 23.9945588,71.8449192 24.9386765,71.7667269 L26.2555882,68.6697269 Z" id="Fill-23" fill="#F9B290"></path>
                        <polygon id="Fill-25" fill="#343C52" points="37.8231618 7.67621923 36.1856618 7.31668077 37.08125 3.28941154 38.7180147 3.64895"></polygon>
                        <path d="M32.76875,13.5330423 L30.74375,13.0880038 C29.1672794,12.74235 28.1724265,11.1916577 28.5202206,9.62561923 L29.3981618,5.67727308 C29.8908088,3.45719615 32.1018382,2.05485 34.3363971,2.54592692 L34.7033088,2.62631154 C36.9371324,3.11665769 38.3481618,5.31408077 37.8547794,7.53415769 L37.1371324,10.7619654 C36.7011029,12.7262731 34.7452206,13.9663885 32.76875,13.5330423" id="Fill-27" fill="#F9B290"></path>
                        <path d="M30.9258824,8.8616 L29.0472059,8.44944615 C28.4751471,8.32375385 28.1133824,7.76106154 28.2398529,7.19252308 L29.0119118,3.71844615 C29.2258824,2.75529231 30.1854412,2.14729231 31.1552941,2.35994615 L32.3148529,2.61425385 L30.9258824,8.8616 Z" id="Fill-29" fill="#343C52"></path>
                        <path d="M31.8460294,6.95005385 C31.8460294,7.52370769 31.3783824,7.98774615 30.8019118,7.98774615 C30.2247059,7.98774615 29.7570588,7.52370769 29.7570588,6.95005385 C29.7570588,6.3764 30.2247059,5.91236154 30.8019118,5.91236154 C31.3783824,5.91236154 31.8460294,6.3764 31.8460294,6.95005385" id="Fill-31" fill="#F9B290"></path>
                        <polygon id="Fill-33" fill="#FFFFFF" points="26.6369118 19.2201077 28.7457353 24.1454923 32.9986765 21.2589538 36.0082353 23.6098385 36.2722059 19.2201077"></polygon>
                        <path d="M35.7838971,4.86663077 L29.7088971,3.53297692 L29.9074265,2.63705385 C30.2669853,1.02205385 31.8750735,0.00263076923 33.4993382,0.359246154 L39.89125,1.76232308 L39.7625735,2.34328462 C39.3647794,4.13220769 37.5838971,5.26197692 35.7838971,4.86663077" id="Fill-35" fill="#343C52"></path>
                        <polygon id="Fill-37" fill="#F9B290" points="26.6369118 19.2201077 32.9986765 21.2589538 36.2722059 19.2201077"></polygon>
                        <polygon id="Fill-39" fill="#F9B290" points="33.5640441 9.94452692 29.0956618 9.94452692 26.6368382 19.2201808 31.4544853 19.3887341 36.2721324 19.2201808"></polygon>
                        <path d="M61.7453676,32.8784769 C61.2902206,32.5328231 61.2034559,31.8853615 61.55125,31.4330154 L68.7850735,22.0287462 C69.1328676,21.5764 69.7843382,21.4901692 70.2394853,21.8358231 C70.6946324,22.1814769 70.7813971,22.8289385 70.4336029,23.2812846 L63.1997794,32.6855538 C62.85125,33.1379 62.2005147,33.2241308 61.7453676,32.8784769" id="Fill-41" fill="#343C52"></path>
                        <g id="Group-45" stroke-width="1" fill="none" transform="translate(61.764706, 21.923077)">
                            <mask id="mask-6" fill="white">
                                <use xlink:href="#path-5"></use>
                            </mask>
                            <g id="Clip-44"></g>
                            <path d="M4.28007353,14.2220846 L1.15875,11.8507385 C0.652867647,11.4663538 0.556544118,10.7472769 0.942573529,10.2445077 L8.03669118,1.0222 C8.42345588,0.520161538 9.14698529,0.4237 9.65286765,0.808084615 L12.7741912,3.17943077 C13.2800735,3.56381538 13.3771324,4.28289231 12.9903676,4.78566154 L5.89625,14.0079692 C5.50948529,14.5107385 4.78595588,14.6064692 4.28007353,14.2220846" id="Fill-43" fill="#E07270" mask="url(#mask-6)"></path>
                        </g>
                    </g>
                </g>
            </g>
        </g>
    </g>
</svg>